<svg width="75" height="86" viewBox="0 0 75 86" fill="none" xmlns="http://www.w3.org/2000/svg">
<path d="M67.171 61.0693C68.4214 58.5877 69.086 55.8574 69.086 53.0512C69.086 48.9157 68.6052 44.7774 67.6587 40.7525L64.525 27.4354C63.7871 24.2976 61.0223 22.1075 57.8001 22.1075H56.6146C55.3517 20.4398 53.3703 19.3441 51.1237 19.3441H46.9785V16.5806H48.3602C50.6456 16.5806 52.5054 14.7209 52.5054 12.4355V4.14516C52.5054 1.8598 50.6456 0 48.3602 0H26.2527C23.9673 0 22.1075 1.8598 22.1075 4.14516V12.4355C22.1075 14.7209 23.9673 16.5806 26.2527 16.5806H27.6344V19.3441H23.4893C21.2412 19.3441 19.2598 20.4398 17.9983 22.1075H16.8128C13.5906 22.1075 10.8258 24.2976 10.0879 27.4327L6.9542 40.7511C6.00772 44.776 5.52688 48.9143 5.52688 53.0512C5.52688 55.8574 6.19149 58.5891 7.44195 61.0693C3.1973 62.1249 0 66.1361 0 70.8159V74.3891C0 75.6022 0.194823 76.8016 0.578941 77.9553C2.1168 82.5675 6.41671 85.6667 11.2776 85.6667H63.3353C68.1976 85.6667 72.4961 82.5675 74.0354 77.9539C74.4181 76.8016 74.6129 75.6022 74.6129 74.3891V70.8159C74.6129 66.1361 71.4156 62.1249 67.171 61.0693ZM24.871 12.4355V4.14516C24.871 3.38245 25.49 2.76344 26.2527 2.76344H48.3602C49.1229 2.76344 49.7419 3.38245 49.7419 4.14516V12.4355C49.7419 13.1982 49.1229 13.8172 48.3602 13.8172H26.2527C25.49 13.8172 24.871 13.1982 24.871 12.4355ZM30.3979 16.5806H44.2151V19.3441H30.3979V16.5806ZM9.64441 41.3839L12.7782 28.0655C13.2134 26.2154 14.8272 24.9207 16.7188 24.8779C16.629 25.3228 16.5806 25.7829 16.5806 26.2527V33.1613H19.3441V26.2527C19.3441 23.9673 21.2039 22.1075 23.4893 22.1075H51.1237C53.409 22.1075 55.2688 23.9673 55.2688 26.2527V33.1613H58.0323V26.2527C58.0323 25.7829 57.9839 25.3228 57.8927 24.8793C59.7857 24.9221 61.3981 26.2168 61.8334 28.0683L64.9671 41.3867C65.8652 45.2044 66.3212 49.1298 66.3212 53.0512C66.3212 55.8091 65.564 58.4841 64.1436 60.8344C61.9177 61.0182 59.8326 61.9439 58.2036 63.526C56.5801 65.1012 55.588 67.1378 55.3351 69.3485C53.9272 68.5306 52.4363 67.8646 50.886 67.3727C50.1399 62.4248 49.7419 57.3953 49.7419 52.3907V24.871H46.9785V52.3907C46.9785 57.1549 47.3322 61.9398 47.9927 66.6611C46.7478 66.4428 45.4835 66.3226 44.2151 66.3226H30.3979C29.1294 66.3226 27.8652 66.4428 26.6202 66.6611C27.2807 61.9398 27.6344 57.1549 27.6344 52.3907V24.871H24.871V52.3907C24.871 57.3953 24.473 62.4248 23.7241 67.3727C22.1739 67.8646 20.683 68.5306 19.275 69.3485C19.0221 67.1378 18.0301 65.0998 16.4066 63.526C14.7761 61.9453 12.716 61.0306 10.4707 60.8399C9.04751 58.4869 8.29032 55.8105 8.29032 53.0512C8.29032 49.1285 8.74629 45.203 9.64441 41.3839ZM71.8495 74.3891C71.8495 75.3052 71.703 76.2116 71.4142 77.0807C70.2522 80.564 67.0052 82.9032 63.3353 82.9032H11.2776C7.60775 82.9032 4.36071 80.564 3.20006 77.082C2.9099 76.2116 2.76344 75.3052 2.76344 74.3891V70.8159C2.76344 66.9278 5.7673 63.6738 9.45926 63.5633C11.3412 63.5011 13.1305 64.1975 14.4832 65.5088C15.8359 66.8214 16.5806 68.5831 16.5806 70.4678V73.2312C16.5806 77.0406 19.6798 80.1398 23.4893 80.1398H26.2527V77.3764H23.4893C21.2039 77.3764 19.3441 75.5166 19.3441 73.2312V72.5735C22.5718 70.3282 26.4641 69.086 30.3979 69.086H44.2151C48.1488 69.086 52.0411 70.3282 55.2688 72.5735V73.2312C55.2688 75.5166 53.409 77.3764 51.1237 77.3764H48.3602V80.1398H51.1237C54.9331 80.1398 58.0323 77.0406 58.0323 73.2312V70.4678C58.0323 68.5831 58.777 66.8214 60.1311 65.5088C61.4838 64.1975 63.28 63.5039 65.155 63.5633C68.8456 63.6738 71.8495 66.9278 71.8495 70.8159V74.3891Z" fill="white"/>
</svg>
