<svg width="96" height="96" viewBox="0 0 96 96" fill="none" xmlns="http://www.w3.org/2000/svg">
<path d="M0 92.9033V96.0001H96V92.9033H71.2258H24.7742H0Z" fill="white"/>
<path d="M71.2258 74.3228C67.81 74.3228 65.0322 77.1006 65.0322 80.5163C65.0322 83.932 67.81 86.7099 71.2258 86.7099C74.6415 86.7099 77.4193 83.932 77.4193 80.5163C77.4193 77.1006 74.6415 74.3228 71.2258 74.3228ZM71.2258 83.6131C69.5179 83.6131 68.129 82.2242 68.129 80.5163C68.129 78.8084 69.5179 77.4195 71.2258 77.4195C72.9336 77.4195 74.3225 78.8084 74.3225 80.5163C74.3225 82.2242 72.9336 83.6131 71.2258 83.6131Z" fill="white"/>
<path d="M24.7742 74.3228C21.3585 74.3228 18.5807 77.1006 18.5807 80.5163C18.5807 83.932 21.3585 86.7099 24.7742 86.7099C28.19 86.7099 30.9678 83.932 30.9678 80.5163C30.9678 77.1006 28.19 74.3228 24.7742 74.3228ZM24.7742 83.6131C23.0664 83.6131 21.6775 82.2242 21.6775 80.5163C21.6775 78.8084 23.0664 77.4195 24.7742 77.4195C26.4821 77.4195 27.871 78.8084 27.871 80.5163C27.871 82.2242 26.4821 83.6131 24.7742 83.6131Z" fill="white"/>
<path d="M88.656 57.5625L73.6552 54.348L63.072 40.589C59.9055 36.4719 54.9228 34.2329 49.7342 34.5813L18.9213 36.7057C14.2312 37.0308 9.99639 39.4247 7.30219 43.2739L4.19923 47.707C1.45239 51.6321 0 56.237 0 61.0262V77.419C0 79.98 2.08413 82.0641 4.64516 82.0641H12.4939C13.2604 88.1648 18.4692 92.9029 24.7742 92.9029C31.0792 92.9029 36.288 88.1648 37.0545 82.0641H58.9471C59.7135 88.1648 64.9223 92.9029 71.2273 92.9029C77.5324 92.9029 82.7412 88.1648 83.5076 82.0641H91.3548C93.9159 82.0641 96 79.98 96 77.419V66.6453C96 62.2928 92.911 58.4745 88.656 57.5625ZM3.09677 65.0319H6.19355V69.036L3.09677 72.1328V65.0319ZM24.7742 89.8061C19.6506 89.8061 15.4839 85.6394 15.4839 80.5158C15.4839 75.3921 19.6506 71.2254 24.7742 71.2254C29.8978 71.2254 34.0645 75.3921 34.0645 80.5158C34.0645 85.6394 29.8978 89.8061 24.7742 89.8061ZM71.2258 89.8061C66.1022 89.8061 61.9355 85.6394 61.9355 80.5158C61.9355 75.3921 66.1022 71.2254 71.2258 71.2254C76.3494 71.2254 80.5161 75.3921 80.5161 80.5158C80.5161 85.6394 76.3494 89.8061 71.2258 89.8061ZM91.3548 78.9674H83.5061C82.7396 72.8667 77.5308 68.1287 71.2258 68.1287C64.9208 68.1287 59.712 72.8667 58.9455 78.9674H37.0545C36.288 72.8667 31.0792 68.1287 24.7742 68.1287C18.4692 68.1287 13.2604 72.8667 12.4939 78.9674H4.64516C3.792 78.9674 3.09677 78.2737 3.09677 77.419V75.8706C3.5071 75.8706 3.90194 75.708 4.19148 75.4169L8.83664 70.7718C9.12774 70.4822 9.29032 70.0889 9.29032 69.677V63.4835C9.29032 62.6272 8.59665 61.9351 7.74194 61.9351H3.09677V61.0262C3.09677 56.875 4.35406 52.8832 6.73548 49.483L9.83845 45.0499C11.9938 41.9718 15.3817 40.0548 19.1334 39.7963L49.9448 37.6719C54.0774 37.3622 58.0815 39.1831 60.6163 42.4765L71.5463 56.6861C71.7708 56.9772 72.0898 57.1785 72.449 57.2559L88.0072 60.5896C89.7259 60.9581 91.1489 62.045 92.0129 63.4835H88.2581C87.4034 63.4835 86.7097 64.1756 86.7097 65.0319V71.2254C86.7097 72.0817 87.4034 72.7738 88.2581 72.7738H92.9032V77.419C92.9032 78.2737 92.208 78.9674 91.3548 78.9674ZM92.9032 66.6453V69.677H89.8064V66.5803H92.897C92.897 66.6019 92.9032 66.6236 92.9032 66.6453Z" fill="white"/>
<path d="M58.0026 44.5489C56.1213 41.8624 52.9208 40.3528 49.6506 40.616L19.2418 43.0485C16.3231 43.2808 13.6552 44.9035 12.1037 47.3855L6.4289 56.4699C6.1316 56.9484 6.11457 57.5491 6.38864 58.0415C6.66115 58.5339 7.17831 58.839 7.74193 58.839H65.0322C65.6098 58.839 66.1393 58.5184 66.4057 58.0059C66.672 57.4934 66.6317 56.8771 66.3004 56.4033L58.0026 44.5489ZM41.8064 44.3522V55.7422H26.3226V45.591L41.8064 44.3522ZM14.7329 49.0284C15.7657 47.3731 17.5448 46.2908 19.4911 46.1375L23.2258 45.8387V55.7422H10.5352L14.7329 49.0284ZM44.9032 55.7422V44.1045L49.8999 43.705C52.0692 43.5223 54.2121 44.5334 55.4679 46.3249L62.0593 55.7422H44.9032Z" fill="white"/>
<path d="M47.9999 61.9355H41.8064V65.0323H47.9999V61.9355Z" fill="white"/>
<path d="M29.4194 61.9355H23.2258V65.0323H29.4194V61.9355Z" fill="white"/>
<path d="M60.3871 21.6776C63.8029 21.6776 66.5807 24.4554 66.5807 27.8711C66.5807 28.7274 67.2744 29.4195 68.1291 29.4195C68.9838 29.4195 69.6775 28.7274 69.6775 27.8711C69.6775 24.4554 72.4553 21.6776 75.871 21.6776C76.7257 21.6776 77.4194 20.9854 77.4194 20.1292C77.4194 19.2729 76.7257 18.5808 75.871 18.5808C72.4553 18.5808 69.6775 15.803 69.6775 12.3873C69.6775 11.531 68.9838 10.8389 68.1291 10.8389C67.2744 10.8389 66.5807 11.531 66.5807 12.3873C66.5807 15.803 63.8029 18.5808 60.3871 18.5808C59.5324 18.5808 58.8387 19.2729 58.8387 20.1292C58.8387 20.9854 59.5324 21.6776 60.3871 21.6776ZM68.1291 17.5171C68.8166 18.5514 69.7069 19.4402 70.7412 20.1292C69.7069 20.8167 68.8181 21.707 68.1291 22.7413C67.4416 21.707 66.5513 20.8182 65.5169 20.1292C66.5513 19.4417 67.4416 18.5514 68.1291 17.5171Z" fill="white"/>
<path d="M78.9677 10.8387C82.3834 10.8387 85.1612 13.6165 85.1612 17.0323C85.1612 17.8885 85.8549 18.5806 86.7096 18.5806C87.5643 18.5806 88.258 17.8885 88.258 17.0323C88.258 13.6165 91.0358 10.8387 94.4516 10.8387C95.3063 10.8387 96 10.1466 96 9.29032C96 8.43406 95.3063 7.74194 94.4516 7.74194C91.0358 7.74194 88.258 4.96413 88.258 1.54839C88.258 0.692129 87.5643 0 86.7096 0C85.8549 0 85.1612 0.692129 85.1612 1.54839C85.1612 4.96413 82.3834 7.74194 78.9677 7.74194C78.113 7.74194 77.4193 8.43406 77.4193 9.29032C77.4193 10.1466 78.113 10.8387 78.9677 10.8387ZM86.7096 6.67819C87.3971 7.71252 88.2874 8.60284 89.3218 9.29032C88.2874 9.97781 87.3971 10.8681 86.7096 11.9025C86.0222 10.8681 85.1318 9.97781 84.0975 9.29032C85.1318 8.60284 86.0222 7.71252 86.7096 6.67819Z" fill="white"/>
<path d="M1.54839 21.6776C4.96413 21.6776 7.74194 24.4554 7.74194 27.8711C7.74194 28.7274 8.43561 29.4195 9.29032 29.4195C10.145 29.4195 10.8387 28.7274 10.8387 27.8711C10.8387 24.4554 13.6165 21.6776 17.0323 21.6776C17.887 21.6776 18.5806 20.9854 18.5806 20.1292C18.5806 19.2729 17.887 18.5808 17.0323 18.5808C13.6165 18.5808 10.8387 15.803 10.8387 12.3873C10.8387 11.531 10.145 10.8389 9.29032 10.8389C8.43561 10.8389 7.74194 11.531 7.74194 12.3873C7.74194 15.803 4.96413 18.5808 1.54839 18.5808C0.693677 18.5808 0 19.2729 0 20.1292C0 20.9854 0.693677 21.6776 1.54839 21.6776ZM9.29032 17.5171C9.97781 18.5514 10.8681 19.4417 11.9025 20.1292C10.8681 20.8167 9.97781 21.707 9.29032 22.7413C8.60284 21.707 7.71252 20.8167 6.67819 20.1292C7.71252 19.4417 8.60284 18.5514 9.29032 17.5171Z" fill="white"/>
<path d="M20.1291 10.8387C23.5448 10.8387 26.3226 13.6165 26.3226 17.0323C26.3226 17.8885 27.0163 18.5806 27.871 18.5806C28.7257 18.5806 29.4194 17.8885 29.4194 17.0323C29.4194 13.6165 32.1972 10.8387 35.6129 10.8387C36.4677 10.8387 37.1613 10.1466 37.1613 9.29032C37.1613 8.43406 36.4677 7.74194 35.6129 7.74194C32.1972 7.74194 29.4194 4.96413 29.4194 1.54839C29.4194 0.692129 28.7257 0 27.871 0C27.0163 0 26.3226 0.692129 26.3226 1.54839C26.3226 4.96413 23.5448 7.74194 20.1291 7.74194C19.2744 7.74194 18.5807 8.43406 18.5807 9.29032C18.5807 10.1466 19.2744 10.8387 20.1291 10.8387ZM27.871 6.67819C28.5585 7.71252 29.4488 8.60284 30.4831 9.29032C29.4488 9.97781 28.5585 10.8681 27.871 11.9025C27.1835 10.8681 26.2932 9.97781 25.2589 9.29032C26.2932 8.60284 27.1835 7.71252 27.871 6.67819Z" fill="white"/>
</svg>
