<svg width="88" height="88" viewBox="0 0 88 88" fill="none" xmlns="http://www.w3.org/2000/svg">
<path d="M83.7419 26.9677H88V24.129H84.6929L78.0148 7.91006C76.0348 3.10555 71.3992 0 66.203 0H43.0817C38.7314 0 34.7203 2.18155 32.3556 5.83355L20.3876 24.3292L1.03045 29.8618C0.420129 30.035 0 30.5928 0 31.2258V49.6774C0 50.4609 0.634452 51.0968 1.41935 51.0968H8.59987C9.30813 57.4739 14.7258 62.4516 21.2903 62.4516C27.8548 62.4516 33.2725 57.4739 33.9808 51.0968H38.5099L39.2764 52.2479C41.4381 55.4897 42.5806 59.2637 42.5806 63.1613C42.5806 67.0588 41.4381 70.8329 39.2764 74.0747L38.2403 75.6303C37.3659 76.9418 36.9046 78.469 36.9046 80.0431C36.9032 84.4303 40.4729 88 44.8587 88C46.4342 88 47.9614 87.5373 49.2715 86.6644L50.2366 86.0214C51.8277 84.9612 53.5494 84.1294 55.3534 83.5134V88H58.1921V82.3226C58.1921 81.8485 57.9551 81.4057 57.5605 81.1417L49.6774 75.8858V70.9677C49.6774 70.1857 50.3133 69.5484 51.0968 69.5484C51.8803 69.5484 52.5161 70.1857 52.5161 70.9677V75.2258H55.3548V70.9677V56.7742C55.3548 55.9921 55.9907 55.3548 56.7742 55.3548C57.5577 55.3548 58.1935 55.9921 58.1935 56.7742V59.6129V66.7097H61.0323V59.6129V56.7742V53.9355C61.0323 53.1534 61.6681 52.5161 62.4516 52.5161C63.2351 52.5161 63.871 53.1534 63.871 53.9355V56.7742V59.6129V66.7097H66.7097V59.6129V56.7742C66.7097 55.9921 67.3455 55.3548 68.129 55.3548C68.9125 55.3548 69.5484 55.9921 69.5484 56.7742V62.4516V66.7097H72.3871V62.4516C72.3871 61.6695 73.023 61.0323 73.8064 61.0323C74.5899 61.0323 75.2258 61.6695 75.2258 62.4516V77.4769L72.803 79.8997C72.5361 80.1652 72.3871 80.5271 72.3871 80.9032V88H75.2258V86.3933L75.6303 86.663C76.9418 87.5373 78.4676 88 80.0445 88C84.4303 88 88 84.4303 88 80.0445C88 78.469 87.5387 76.9432 86.6644 75.6317L85.6283 74.0761C83.4652 70.8329 82.3226 67.0588 82.3226 63.1613C82.3226 59.2637 83.4652 55.4897 85.6268 52.2479L86.663 50.6923C87.5373 49.3808 87.9986 47.8535 87.9986 46.2795C88 41.8923 84.4303 38.3226 80.0445 38.3226C78.469 38.3226 76.9418 38.7853 75.6317 39.6582L74.6666 40.3012C71.0373 42.7212 66.8133 44 62.4516 44C58.0899 44 53.8659 42.7212 50.2381 40.3026L49.2729 39.6596C47.9614 38.7853 46.4356 38.3226 44.8587 38.3226C40.4729 38.3226 36.9032 41.8923 36.9032 46.2781C36.9032 46.9523 37.0054 47.6137 37.1701 48.2581H33.9808C33.2725 41.8809 27.8548 36.9032 21.2903 36.9032C14.7258 36.9032 9.30813 41.8809 8.59987 48.2581H2.83871V39.7419H7.09677C7.88168 39.7419 8.51613 39.1061 8.51613 38.3226V30.6737L21.6792 26.9124C22.0099 26.8187 22.2952 26.6072 22.4812 26.3191L34.7387 7.37639C36.5782 4.53484 39.6965 2.83871 43.0817 2.83871H66.203C70.2453 2.83871 73.8519 5.25445 75.3904 8.99161L82.4305 26.0892C82.6476 26.62 83.1671 26.9677 83.7419 26.9677ZM44.8587 41.1613C45.8721 41.1613 46.8529 41.4579 47.6974 42.02L48.6626 42.663C52.7603 45.3952 57.5279 46.8387 62.4516 46.8387C67.3754 46.8387 72.143 45.3952 76.2406 42.6644L77.2058 42.0214C78.0503 41.4594 79.0311 41.1627 80.0445 41.1627C82.8662 41.1613 85.1613 43.4564 85.1613 46.2781C85.1613 47.2915 84.8646 48.2737 84.3026 49.1168L83.2664 50.6724C80.7911 54.3826 79.4839 58.7003 79.4839 63.1613C79.4839 67.6223 80.7911 71.94 83.265 75.6502L84.3012 77.2058C84.8632 78.0489 85.1599 79.0311 85.1599 80.0445C85.1613 82.8662 82.8662 85.1613 80.0445 85.1613C79.0311 85.1613 78.0503 84.8646 77.2058 84.3026L76.2406 83.6596C75.9099 83.4396 75.565 83.2452 75.2258 83.0422V81.4923L77.6486 79.0694C77.9155 78.8026 78.0645 78.4406 78.0645 78.0645V62.4516C78.0645 60.104 76.1541 58.1935 73.8064 58.1935C73.3068 58.1935 72.8328 58.2957 72.3871 58.4547V56.7742C72.3871 54.4266 70.4766 52.5161 68.129 52.5161C67.5684 52.5161 67.0361 52.6311 66.545 52.8284C66.0554 51.0187 64.4146 49.6774 62.4516 49.6774C60.4886 49.6774 58.8493 51.0187 58.3582 52.8284C57.8671 52.6311 57.3348 52.5161 56.7742 52.5161C54.4266 52.5161 52.5161 54.4266 52.5161 56.7742V66.9708C52.0704 66.8119 51.5964 66.7097 51.0968 66.7097C48.7492 66.7097 46.8387 68.6201 46.8387 70.9677V76.6452C46.8387 77.1192 47.0757 77.5621 47.4703 77.8261L52.8681 81.4241C51.4034 82.0373 49.9911 82.7725 48.6626 83.6582L47.6974 84.3012C46.8529 84.8632 45.8721 85.1599 44.8587 85.1599C42.037 85.1613 39.7419 82.8662 39.7419 80.0445C39.7419 79.0311 40.0386 78.0489 40.6006 77.2058L41.6368 75.6502C44.1121 71.94 45.4194 67.6223 45.4194 63.1613C45.4194 58.7003 44.1121 54.3826 41.6382 50.6724L40.6021 49.1168C40.04 48.2737 39.7434 47.2915 39.7434 46.2781C39.7419 43.4564 42.037 41.1613 44.8587 41.1613ZM21.2903 39.7419C26.7676 39.7419 31.2258 44.1987 31.2258 49.6774C31.2258 55.1561 26.7676 59.6129 21.2903 59.6129C15.813 59.6129 11.3548 55.1561 11.3548 49.6774C11.3548 44.1987 15.813 39.7419 21.2903 39.7419ZM5.67742 36.9032H2.83871V32.296L5.67742 31.4855V36.9032Z" fill="white"/>
<path d="M21.2904 56.7741C25.2035 56.7741 28.3872 53.5905 28.3872 49.6773C28.3872 45.7642 25.2035 42.5806 21.2904 42.5806C17.3772 42.5806 14.1936 45.7642 14.1936 49.6773C14.1936 53.5905 17.3772 56.7741 21.2904 56.7741ZM21.2904 45.4193C23.638 45.4193 25.5484 47.3297 25.5484 49.6773C25.5484 52.025 23.638 53.9354 21.2904 53.9354C18.9428 53.9354 17.0323 52.025 17.0323 49.6773C17.0323 47.3297 18.9428 45.4193 21.2904 45.4193Z" fill="white"/>
<path d="M77.8148 26.3516C78.0802 25.9669 78.1384 25.4758 77.9695 25.0387L72.2736 10.2263C71.2262 7.50537 68.5635 5.67725 65.6495 5.67725H44.3337C41.8512 5.67725 39.5916 6.94047 38.2886 9.05531L28.5973 24.8045C28.3276 25.2431 28.3162 25.7909 28.5675 26.2409C28.8187 26.6908 29.2927 26.9676 29.8066 26.9676H76.6453C77.1122 26.9676 77.5508 26.7376 77.8148 26.3516ZM40.7072 10.5428C41.4878 9.27389 42.8447 8.51596 44.3337 8.51596H52.5162V24.1289H32.3458L40.7072 10.5428ZM55.3549 24.1289V8.51596H65.6495C67.3967 8.51596 68.9949 9.61312 69.6237 11.2454L74.5787 24.1289H55.3549Z" fill="white"/>
<path d="M55.3548 29.8066H49.6774V32.6454H55.3548V29.8066Z" fill="white"/>
<path d="M78.0645 29.8066H72.3871V32.6454H78.0645V29.8066Z" fill="white"/>
<path d="M32.6451 78.0645C29.514 78.0645 26.9677 75.5182 26.9677 72.3871C26.9677 71.6036 26.3333 70.9678 25.5484 70.9678C24.7635 70.9678 24.129 71.6036 24.129 72.3871C24.129 75.5182 21.5827 78.0645 18.4516 78.0645C17.6667 78.0645 17.0322 78.7004 17.0322 79.4839C17.0322 80.2674 17.6667 80.9033 18.4516 80.9033C21.5827 80.9033 24.129 83.4496 24.129 86.5807C24.129 87.3642 24.7635 88 25.5484 88C26.3333 88 26.9677 87.3642 26.9677 86.5807C26.9677 83.4496 29.514 80.9033 32.6451 80.9033C33.43 80.9033 34.0645 80.2674 34.0645 79.4839C34.0645 78.7004 33.43 78.0645 32.6451 78.0645ZM25.5484 81.8784C24.9182 80.9302 24.102 80.1155 23.1539 79.4839C24.102 78.8537 24.9167 78.0376 25.5484 77.0895C26.1785 78.0376 26.9947 78.8523 27.9428 79.4839C26.9947 80.1141 26.1785 80.9302 25.5484 81.8784Z" fill="white"/>
<path d="M15.6129 68.129C12.4818 68.129 9.93548 65.5827 9.93548 62.4516C9.93548 61.6681 9.30103 61.0322 8.51613 61.0322C7.73123 61.0322 7.09677 61.6681 7.09677 62.4516C7.09677 65.5827 4.55045 68.129 1.41935 68.129C0.634452 68.129 0 68.7649 0 69.5484C0 70.3318 0.634452 70.9677 1.41935 70.9677C4.55045 70.9677 7.09677 73.514 7.09677 76.6451C7.09677 77.4286 7.73123 78.0645 8.51613 78.0645C9.30103 78.0645 9.93548 77.4286 9.93548 76.6451C9.93548 73.514 12.4818 70.9677 15.6129 70.9677C16.3978 70.9677 17.0323 70.3318 17.0323 69.5484C17.0323 68.7649 16.3978 68.129 15.6129 68.129ZM8.51613 71.9428C7.88594 70.9947 7.06981 70.1785 6.12168 69.5484C7.06981 68.9182 7.88594 68.102 8.51613 67.1539C9.14632 68.102 9.96245 68.9182 10.9106 69.5484C9.96245 70.1785 9.14632 70.9947 8.51613 71.9428Z" fill="white"/>
<path d="M1.41935 9.93548C4.55045 9.93548 7.09677 12.4818 7.09677 15.6129C7.09677 16.3964 7.73123 17.0323 8.51613 17.0323C9.30103 17.0323 9.93548 16.3964 9.93548 15.6129C9.93548 12.4818 12.4818 9.93548 15.6129 9.93548C16.3978 9.93548 17.0323 9.29961 17.0323 8.51613C17.0323 7.73265 16.3978 7.09677 15.6129 7.09677C12.4818 7.09677 9.93548 4.55045 9.93548 1.41935C9.93548 0.635871 9.30103 0 8.51613 0C7.73123 0 7.09677 0.635871 7.09677 1.41935C7.09677 4.55045 4.55045 7.09677 1.41935 7.09677C0.634452 7.09677 0 7.73265 0 8.51613C0 9.29961 0.634452 9.93548 1.41935 9.93548ZM8.51613 6.12168C9.14632 7.06981 9.96245 7.88594 10.9106 8.51613C9.96245 9.14632 9.14632 9.96245 8.51613 10.9106C7.88594 9.96245 7.06981 9.14632 6.12168 8.51613C7.06981 7.88594 7.88594 7.06981 8.51613 6.12168Z" fill="white"/>
</svg>
