<svg width="120" height="85" viewBox="0 0 120 85" fill="none" xmlns="http://www.w3.org/2000/svg">
<path fill-rule="evenodd" clip-rule="evenodd" d="M35.5442 7.73528C35.5442 3.48623 32.0581 0 27.809 0C23.5599 0 20.0739 3.48623 20.0739 7.73528C20.0739 11.9845 23.5599 15.4701 27.809 15.4701C32.0581 15.4701 35.5442 11.9845 35.5442 7.73528ZM23.9414 7.73528C23.9414 5.5764 25.6501 3.86764 27.809 3.86764C29.9679 3.86764 31.6766 5.5764 31.6766 7.73528C31.6766 9.89416 29.9679 11.6029 27.809 11.6029C25.6501 11.6029 23.9414 9.89416 23.9414 7.73528ZM20.4276 13.8232C18.9582 12.9418 17.2834 12.7416 15.865 13.1509C14.4466 13.5601 13.2999 14.502 12.5489 15.6816L2.84971 30.9251C1.46755 33.0972 0.734651 35.6181 0.734628 38.192V79.2849C0.733849 79.5394 0.783292 79.7914 0.880123 80.0268C0.976953 80.2621 1.11927 80.476 1.29891 80.6562C1.47856 80.8364 1.692 80.9797 1.927 81.0773C2.16201 81.1749 2.41396 81.2249 2.66842 81.225H10.4036C10.8986 81.2257 11.375 81.0364 11.7348 80.6964C12.0945 80.3563 12.3102 79.8916 12.3374 79.3973L13.1064 64.7791C13.5983 67.0393 14.7254 69.065 16.2877 70.6627V79.4934C16.2877 82.3517 18.6138 84.6778 21.4721 84.6778H35.297C38.1553 84.6778 40.4813 82.3517 40.4813 79.4934V74.3091H92.3249V79.4934C92.3249 82.3517 94.6509 84.6778 97.5092 84.6778H111.334C114.192 84.6778 116.519 82.3517 116.519 79.4934V70.6627C118.653 68.4801 119.975 65.4991 119.975 62.2123V48.3873C119.975 47.8827 119.755 47.404 119.372 47.0757L110.821 39.7467H118.247C119.201 39.7467 119.975 38.9725 119.975 38.0186V31.1061C119.975 30.1522 119.201 29.378 118.247 29.378H107.878C107.223 29.378 106.625 29.7478 106.331 30.3337L105.125 32.7444L96.8093 18.1919C94.663 14.4333 90.6365 12.0969 86.3076 12.0969H46.4987C42.1697 12.0969 38.1449 14.4333 35.9952 18.1919L29.8127 29.0112L28.0364 26.8389C28.0364 26.7979 28.0366 26.7592 28.0368 26.7225C28.0393 26.3253 28.0403 26.1621 27.7246 25.7286C26.9259 24.6305 26.6397 24.015 26.5764 23.515C26.5557 23.3514 26.5353 23.1833 26.5145 23.0113L26.5144 23.0109L26.5144 23.0108L26.5144 23.0108L26.5144 23.0107L26.5144 23.0107C26.3794 21.8972 26.2248 20.6217 25.8286 19.3378C25.3711 17.8557 24.5054 16.2626 22.8826 15.2891L20.4276 13.8232ZM28.1458 31.9283C27.8644 31.9154 27.6062 31.8996 27.3694 31.8815C27.3176 31.8641 27.2673 31.8447 27.2186 31.8233L27.2426 31.8714C27.2842 31.8748 27.3265 31.8782 27.3694 31.8815C27.5861 31.9541 27.831 31.9914 28.1124 31.9868L28.1458 31.9283ZM25.4587 29.4613C25.2178 28.9801 24.9491 28.4756 24.5973 27.9921C23.6686 26.7145 22.9289 25.4959 22.739 23.9964L22.6979 23.6694L22.6979 23.6694V23.6694C22.5506 22.4946 22.4073 21.3513 22.1347 20.4682C21.8369 19.5035 21.4745 18.9419 20.8959 18.5951L18.4409 17.1297C17.7932 16.7408 17.3572 16.7365 16.9377 16.8593L16.9377 16.8678C16.5182 16.9847 16.0979 17.3108 15.8122 17.7595L6.11299 33.003C5.12579 34.5544 4.60223 36.3538 4.60221 38.1925V77.352H8.56799L10.2525 45.301C10.3691 43.086 11.0843 40.9453 12.3147 39.0994L12.8529 38.2916C12.8388 38.2027 12.8315 38.1115 12.8315 38.0186V31.1061C12.8315 30.1522 13.6057 29.378 14.5596 29.378H24.9283C25.1114 29.378 25.29 29.4069 25.4587 29.4613ZM16.5349 39.7467L15.5327 41.2509C14.6872 42.5182 14.2002 43.9897 14.1201 45.5115L14.0663 46.5342L21.9853 39.7467H16.5349ZM18.8378 36.2905L20.3747 33.984L22.0063 35.6158C22.2757 35.8858 22.5807 36.1123 22.91 36.2905H18.8378ZM16.4892 32.8343L16.2877 33.1367V32.8343H16.4892ZM26.6564 63.9404H23.2002V67.3966H26.6564V63.9404ZM106.15 63.9404H109.606V67.3966H106.15V63.9404ZM83.6842 50.1154H49.1219C48.168 50.1154 47.3938 50.8896 47.3938 51.8435V58.756C47.3938 59.7099 48.168 60.4841 49.1219 60.4841H83.6842C84.6382 60.4841 85.4124 59.7099 85.4124 58.756V51.8435C85.4124 50.8896 84.6382 50.1154 83.6842 50.1154ZM81.9561 57.0279H50.85V53.5716H81.9561V57.0279ZM46.4987 15.5531C43.4053 15.5531 40.5315 17.2207 38.9969 19.9062L29.634 36.2905H32.5908L40.4433 23.2035C41.9952 20.6165 44.8345 19.0093 47.8518 19.0093H84.9544C87.9717 19.0093 90.8128 20.6165 92.3629 23.2035L100.215 36.2905H103.172L93.8093 19.9062C92.2747 17.2207 89.4009 15.5531 86.3076 15.5531H46.4987ZM36.6207 36.2905H96.1855L89.4009 24.9834C88.4694 23.4298 86.7672 22.4656 84.9562 22.4656H47.8518C46.0407 22.4656 44.3368 23.4298 43.4053 24.9834L36.6207 36.2905ZM38.9243 55.4121L29.653 50.1154H16.2877V57.0279H36.5015L38.9243 55.4121ZM35.297 81.2215C36.2492 81.2215 37.0251 80.4456 37.0251 79.4934V74.3091H24.9283C23.0706 74.3091 21.3183 73.877 19.7439 73.1253V79.4934C19.7439 80.4456 20.5199 81.2215 21.4721 81.2215H35.297ZM49.8374 67.3966L46.3811 70.8528H86.4251L82.9688 67.3966H49.8374ZM95.7811 79.4934C95.7811 80.4456 96.557 81.2215 97.5092 81.2215H111.334C112.286 81.2215 113.062 80.4456 113.062 79.4934V73.1253C111.488 73.877 109.736 74.3091 107.878 74.3091H95.7811V79.4934ZM96.3047 57.0279H116.519V50.1154H103.153L93.8819 55.4121L96.3047 57.0279ZM102.694 46.6592H113.576L105.51 39.7467H104.422H28.3845H27.2958L19.2307 46.6592H30.1126C30.4133 46.6592 30.7088 46.737 30.9715 46.8873L43.0683 53.7998C43.5868 54.097 43.9168 54.6414 43.9376 55.241C43.9583 55.839 43.668 56.4058 43.1686 56.7376L37.9842 60.1938C37.7008 60.3822 37.3656 60.4841 37.0251 60.4841H16.2877V62.2123C16.2877 66.9767 20.1639 70.8528 24.9283 70.8528H41.494L47.9002 64.4467C48.2233 64.1218 48.664 63.9404 49.1219 63.9404H83.6843C84.1422 63.9404 84.5829 64.1218 84.9061 64.4467L91.3122 70.8528H107.878C112.642 70.8528 116.519 66.9767 116.519 62.2123V60.4841H95.7811C95.4407 60.4841 95.1054 60.3822 94.8237 60.1938L89.6394 56.7376C89.1399 56.4058 88.8496 55.839 88.8704 55.241C88.8911 54.6414 89.2194 54.097 89.7396 53.7998L101.836 46.8873C102.097 46.737 102.393 46.6592 102.694 46.6592ZM107.218 36.2905H116.519V32.8343H108.946L107.218 36.2905Z" fill="white"/>
</svg>
