<svg width="103" height="76" viewBox="0 0 103 76" fill="none" xmlns="http://www.w3.org/2000/svg">
<path fill-rule="evenodd" clip-rule="evenodd" d="M93.1054 4.14951H87.9185V3.11214C87.9185 1.39631 86.5222 0 84.8064 0H69.2457C67.5299 0 66.1336 1.39631 66.1336 3.11214V4.14951H60.9467H51.6103V70.5417H102.442V4.14951H93.1054ZM67.171 6.22427H68.2083V3.11214C68.2083 2.54054 68.6731 2.07476 69.2457 2.07476H84.8064C85.379 2.07476 85.8438 2.54054 85.8438 3.11214V6.22427H86.8811H91.0307V11.4112H63.0214V6.22427H67.171ZM95.1802 56.4479V63.2801H88.348L95.1802 56.4479ZM86.8811 61.8132V54.9811H93.7133L86.8811 61.8132ZM84.8064 52.9063V63.2801H58.8719V10.3738H60.9467V13.4859H93.1054V10.3738H95.1802V52.9063H84.8064ZM100.367 68.467H53.685V6.22427H60.9467V8.29903H56.7972V65.3549H97.2549V8.29903H93.1054V6.22427H100.367V68.467ZM60.9467 24.897H67.1709V18.6727H60.9467V24.897ZM63.0214 20.7474H65.0962V22.8222H63.0214V20.7474ZM67.1709 36.3084H60.9467V30.0841H67.1709V36.3084ZM65.0962 32.1589H63.0214V34.2336H65.0962V32.1589ZM60.9467 47.7185H67.1709V41.4932H60.9467V47.7185ZM63.0214 43.5679H65.0962V45.6437H63.0214V43.5679ZM69.2458 18.6727H87.9186V20.7474H69.2458V18.6727ZM81.6944 22.8221H69.2458V24.8968H81.6944V22.8221ZM69.2458 30.0841H87.9186V32.1589H69.2458V30.0841ZM81.6944 34.2335H69.2458V36.3082H81.6944V34.2335ZM69.2458 41.4951H87.9186V43.5699H69.2458V41.4951ZM81.6944 45.6445H69.2458V47.7193H81.6944V45.6445ZM31.421 8.06412H49.9974V11.2898H31.421C28.534 11.2898 25.8519 12.8461 24.4197 15.3525L15.6815 30.6436H18.441L25.7697 18.4297C27.218 16.0153 29.8678 14.5154 32.6838 14.5154H49.9974V17.741H32.6838C30.9936 17.741 29.4033 18.641 28.534 20.0909L22.2021 30.6436H49.9974V33.8693H13.4993L5.97228 40.3206H16.1282C16.4088 40.3206 16.6846 40.3931 16.9298 40.5334L28.2195 46.9847C28.7034 47.2621 29.0114 47.7702 29.0308 48.3298C29.0501 48.8879 28.7792 49.4169 28.3131 49.7265L23.4746 52.9522C23.2101 53.128 22.8972 53.2231 22.5795 53.2231H3.22564V54.8359C3.22564 59.2825 6.8432 62.9001 11.2898 62.9001H26.7503L32.729 56.9213C33.0306 56.6181 33.4419 56.4488 33.8693 56.4488H49.9974V59.6744H34.537L31.3113 62.9001H49.9974V66.1257H25.8051V70.9642C25.8051 73.6318 23.6343 75.8026 20.9667 75.8026H8.06411C5.3965 75.8026 3.22564 73.6318 3.22564 70.9642V62.7226C1.23381 60.6856 0 57.9035 0 54.8359V41.9334C0 41.4624 0.204828 41.0157 0.562875 40.7092L8.54312 33.8693H1.61282C0.722544 33.8693 0 33.1467 0 32.2564V25.8052C0 24.9149 0.722544 24.1923 1.61282 24.1923H11.2898C11.901 24.1923 12.459 24.5375 12.7316 25.0842L13.8574 27.3341L21.6183 13.7525C23.6246 10.2447 27.3809 8.06412 31.421 8.06412ZM33.8693 43.5462H49.9974V46.7718H35.4821V49.9975H49.9974V53.2231H33.8693C32.979 53.2231 32.2564 52.5006 32.2564 51.6103V45.159C32.2564 44.2687 32.979 43.5462 33.8693 43.5462ZM3.22564 27.418H10.293L11.9058 30.6436H3.22564V27.418ZM15.6992 43.5462L24.352 48.4895L22.0908 49.9975H3.22564V43.5462H15.6992ZM22.5795 70.9642C22.5795 71.8528 21.8553 72.577 20.9667 72.577H8.06411C7.17544 72.577 6.45129 71.8528 6.45129 70.9642V65.0209C7.92057 65.7225 9.55597 66.1257 11.2898 66.1257H22.5795V70.9642ZM9.67693 56.4488V59.6744H12.9026V56.4488H9.67693Z" fill="white"/>
</svg>
