<svg width="96" height="110" viewBox="0 0 96 110" fill="none" xmlns="http://www.w3.org/2000/svg">
<path fill-rule="evenodd" clip-rule="evenodd" d="M32.4302 33.7586C21.9579 33.7586 13.2933 41.8296 12.7202 52.5457L9.66418 54.8572C5.17484 58.2369 2.5358 63.5405 2.5358 69.1684V84.1393C2.5358 90.8348 7.98465 96.3095 14.6674 96.3095H80.6387C87.3211 96.3095 92.7778 90.8348 92.7778 84.1393V69.1684C92.7778 63.5405 90.1309 58.2369 85.6419 54.8572L82.5779 52.5384C82.2086 46.3731 79.4004 41.6739 75.8062 38.6069C71.9606 35.3252 67.1845 33.7335 62.8834 33.7586H61.5569V37.7301H62.8834C66.1619 37.6851 70.1468 39.0063 73.2231 41.6325C76.191 44.2111 78.5401 48.1232 78.645 53.6162L78.6848 54.5782L83.2615 58.0303C86.7536 60.6595 88.8152 64.7824 88.8152 69.1684V84.1397C88.8152 88.697 85.1753 92.3384 80.6475 92.3384H14.6758C10.1476 92.3384 6.51567 88.697 6.51567 84.1397V69.1684C6.51567 64.7824 8.56931 60.6595 12.0618 58.0303L16.6616 54.5709V53.5787C16.6616 44.8013 23.7066 37.7315 32.4386 37.7315H33.7651V33.76L32.4302 33.7586Z" fill="white"/>
<path fill-rule="evenodd" clip-rule="evenodd" d="M12.7598 52.9648L11.5032 56.7344L16.8396 58.5186C18.5482 59.0905 20.3365 59.3802 22.1376 59.3802H73.1693C74.9704 59.3802 76.7588 59.0905 78.4673 58.5186L83.8041 56.7344L82.5476 52.9648L77.2107 54.7564C75.9085 55.1917 74.5423 55.4078 73.1693 55.4078H22.1376C20.765 55.4078 19.4064 55.1932 18.1042 54.7564L12.7598 52.9648Z" fill="white"/>
<path fill-rule="evenodd" clip-rule="evenodd" d="M2.5358 76.4985C2.5358 83.1943 7.98465 88.6692 14.6674 88.6692H80.6387C87.3211 88.6692 92.7778 83.1943 92.7778 76.4985H88.8064C88.8064 81.0566 85.1669 84.6977 80.6387 84.6977H14.6674C10.1392 84.6977 6.50726 81.0566 6.50726 76.4985H2.5358Z" fill="white"/>
<path fill-rule="evenodd" clip-rule="evenodd" d="M12.6834 94.5029V104.688C12.683 107.164 14.7271 109.218 17.2053 109.218H22.286C24.7646 109.218 26.8087 107.164 26.8083 104.688V94.5029H22.8368V104.688C22.8368 105.026 22.6105 105.246 22.286 105.246H17.2053C16.8796 105.246 16.6544 105.024 16.6548 104.688V94.5029H12.6834Z" fill="white"/>
<path fill-rule="evenodd" clip-rule="evenodd" d="M68.5061 94.5029V104.688C68.5057 107.164 70.5498 109.218 73.0284 109.218H78.1091C80.5873 109.218 82.6314 107.164 82.631 104.688V94.5029H78.6596V104.688C78.66 105.026 78.4332 105.246 78.1091 105.246H73.0284C72.7028 105.246 72.4776 105.024 72.4776 104.688V94.5029H68.5061Z" fill="white"/>
<path d="M19.7419 65.6001C15.8621 65.6001 12.6834 68.7921 12.6834 72.6746C12.6834 76.5567 15.8621 79.7565 19.7419 79.7565C23.6216 79.7565 26.8083 76.5567 26.8083 72.6746C26.8083 68.7921 23.6216 65.6001 19.7419 65.6001ZM19.7419 69.5716C21.4675 69.5716 22.8368 70.9301 22.8368 72.6746C22.8368 74.4184 21.4675 75.785 19.7419 75.785C18.0163 75.785 16.6548 74.4191 16.6548 72.6746C16.6548 70.9303 18.0163 69.5716 19.7419 69.5716Z" fill="white"/>
<path d="M75.5646 65.6001C71.6849 65.6001 68.5061 68.7921 68.5061 72.6746C68.5061 76.5567 71.6849 79.7565 75.5646 79.7565C79.4447 79.7565 82.6235 76.5567 82.6235 72.6746C82.6235 68.7921 79.4447 65.6001 75.5646 65.6001ZM75.5646 69.5716C77.2902 69.5716 78.652 70.9301 78.652 72.6746C78.652 74.4184 77.2902 75.785 75.5646 75.785C73.8394 75.785 72.4776 74.4191 72.4776 72.6746C72.4776 70.9303 73.8394 69.5716 75.5646 69.5716Z" fill="white"/>
<path fill-rule="evenodd" clip-rule="evenodd" d="M34.9682 65.6001C34.6667 65.6006 34.3693 65.6696 34.0985 65.8021C33.8277 65.9346 33.5906 66.1269 33.4052 66.3646C33.2198 66.6024 33.091 66.8791 33.0285 67.1741C32.966 67.469 32.9714 67.7743 33.0444 68.0668L35.581 78.2517C35.6882 78.681 35.9357 79.062 36.2842 79.3346C36.6327 79.6072 37.0623 79.7559 37.5048 79.7565H57.8041C58.2479 79.7575 58.6792 79.6097 59.0292 79.3369C59.3793 79.0642 59.6279 78.6823 59.7354 78.2517L62.272 68.0668C62.3452 67.7737 62.3505 67.4677 62.2875 67.1722C62.2246 66.8767 62.0951 66.5998 61.9089 66.3619C61.7226 66.124 61.4846 65.9318 61.2128 65.7998C60.9411 65.6678 60.6428 65.5994 60.3407 65.6001H34.9682ZM37.5123 69.5716H57.8041L56.2529 75.785H39.056L37.5123 69.5716Z" fill="white"/>
<path fill-rule="evenodd" clip-rule="evenodd" d="M7.05849 46.4966C3.17876 46.4966 0 49.6964 0 53.5789V56.1231C0 58.5989 2.04372 60.6608 4.52231 60.6608H8.6022V56.6893H4.52231C4.19665 56.6893 3.97146 56.4598 3.97146 56.1235V53.5794C3.97146 51.8352 5.33328 50.4686 7.05848 50.4686H14.6682V46.497L7.05849 46.4966Z" fill="white"/>
<path fill-rule="evenodd" clip-rule="evenodd" d="M80.6397 46.4936V50.4656H88.249C89.9747 50.4656 91.344 51.8315 91.344 53.576V56.1201C91.344 56.4578 91.1176 56.6858 90.7932 56.6858H87.0389V60.6574H90.7932C93.2718 60.6574 95.3155 58.5954 95.3155 56.1197V53.5755C95.3155 49.6929 92.1288 46.4932 88.249 46.4932L80.6397 46.4936Z" fill="white"/>
<path fill-rule="evenodd" clip-rule="evenodd" d="M46.6783 25.8135C46.3065 25.811 45.9413 25.9128 45.6245 26.1076C45.3077 26.3024 45.052 26.5822 44.8864 26.9152L42.2104 32.2752L36.8426 34.959C36.5128 35.124 36.2353 35.3778 36.0415 35.6915C35.8476 36.0052 35.7449 36.3667 35.7449 36.7355C35.7449 37.1043 35.8476 37.4657 36.0415 37.7794C36.2353 38.0931 36.5128 38.3465 36.8426 38.5114L42.2104 41.1953L44.8864 46.563C45.0514 46.8929 45.3049 47.1703 45.6186 47.3642C45.9323 47.5581 46.2939 47.6611 46.6627 47.6611C47.0315 47.6611 47.393 47.5581 47.7067 47.3642C48.0204 47.1703 48.274 46.8929 48.4389 46.563L51.1228 41.1953L56.4907 38.5114C56.8205 38.3465 57.0979 38.0931 57.2918 37.7794C57.4857 37.4657 57.5884 37.1043 57.5884 36.7355C57.5884 36.3667 57.4857 36.0052 57.2918 35.6915C57.0979 35.3778 56.8205 35.124 56.4907 34.959L51.1228 32.2752L48.4389 26.9152C48.2757 26.587 48.0249 26.3103 47.7141 26.1159C47.4034 25.9214 47.0449 25.8168 46.6783 25.8135ZM46.6783 32.2436L47.8805 34.6485C48.0744 35.0319 48.3874 35.3421 48.7725 35.5325L51.1772 36.735L48.7725 37.937C48.3862 38.1294 48.0731 38.4426 47.8805 38.8289L46.6783 41.2333L45.4758 38.8289C45.2853 38.4439 44.9751 38.1308 44.5917 37.937L42.187 36.735L44.5917 35.5325C44.9739 35.3407 45.284 35.0307 45.4758 34.6485L46.6783 32.2436Z" fill="white"/>
<path fill-rule="evenodd" clip-rule="evenodd" d="M82.4228 13.9004C82.0509 13.8978 81.6858 14.0001 81.369 14.1949C81.0522 14.3897 80.7964 14.6695 80.6309 15.0025L77.9549 20.362L72.5871 23.0463C72.2572 23.2113 71.9798 23.4646 71.7859 23.7783C71.592 24.0921 71.4893 24.4535 71.4893 24.8223C71.4893 25.1911 71.592 25.5525 71.7859 25.8662C71.9798 26.18 72.2572 26.4338 72.5871 26.5987L77.9549 29.2826L80.6309 34.6503C80.7958 34.9802 81.0493 35.2576 81.3631 35.4515C81.6768 35.6454 82.0383 35.7479 82.4071 35.7479C82.7759 35.7479 83.1374 35.6454 83.4511 35.4515C83.7649 35.2576 84.0184 34.9802 84.1833 34.6503L86.8673 29.2826L92.2351 26.5987C92.5649 26.4338 92.8424 26.18 93.0362 25.8662C93.2301 25.5525 93.3328 25.1911 93.3328 24.8223C93.3328 24.4535 93.2301 24.0921 93.0362 23.7783C92.8424 23.4646 92.5649 23.2113 92.2351 23.0463L86.8673 20.3615L84.1833 15.002C84.0202 14.6738 83.7693 14.3971 83.4586 14.2027C83.1478 14.0082 82.7893 13.9032 82.4228 13.8999V13.9004ZM82.4228 20.3308L83.6249 22.7353C83.8188 23.1187 84.1318 23.4289 84.5169 23.6194L86.9217 24.8218L84.5169 26.0243C84.1306 26.2167 83.8175 26.5295 83.6249 26.9157L82.4228 29.3206L81.2202 26.9157C81.0297 26.5307 80.7195 26.2181 80.3362 26.0243L77.9315 24.8218L80.3362 23.6194C80.7184 23.4275 81.0284 23.1175 81.2202 22.7353L82.4228 20.3308Z" fill="white"/>
<path d="M58.5772 3.97217C55.3107 3.97217 52.62 6.66293 52.62 9.92946C52.62 13.196 55.3107 15.8863 58.5772 15.8863C61.8437 15.8863 64.5344 13.196 64.5344 9.92946C64.5344 6.66293 61.8437 3.97217 58.5772 3.97217ZM58.5772 7.94324C59.6971 7.94324 60.5629 8.80969 60.5629 9.92946C60.5629 11.0492 59.6971 11.9152 58.5772 11.9152C57.4568 11.9152 56.5915 11.0491 56.5915 9.92946C56.5915 8.80969 57.4568 7.94324 58.5772 7.94324Z" fill="white"/>
<path fill-rule="evenodd" clip-rule="evenodd" d="M29.8169 13.9255C30.0776 13.9296 30.3351 13.9851 30.5744 14.0886C30.8138 14.1922 31.0304 14.3415 31.212 14.5288C31.3935 14.7161 31.5363 14.9373 31.6324 15.1798C31.7284 15.4222 31.7757 15.6812 31.7716 15.942V23.831C31.7753 24.0941 31.7267 24.3555 31.6286 24.5996C31.5305 24.8438 31.3848 25.0664 31.2001 25.2538C31.0153 25.4412 30.7951 25.5897 30.5524 25.6912C30.3096 25.7928 30.049 25.8452 29.7859 25.8452C29.5227 25.8452 29.2622 25.7928 29.0194 25.6912C28.7766 25.5897 28.5565 25.4412 28.3717 25.2538C28.187 25.0664 28.0413 24.8438 27.9432 24.5996C27.845 24.3555 27.7964 24.0941 27.8002 23.831V15.942C27.796 15.676 27.8453 15.4121 27.9452 15.1656C28.0451 14.919 28.1934 14.6949 28.3816 14.5068C28.5697 14.3187 28.7936 14.1702 29.0402 14.0703C29.2868 13.9704 29.5509 13.9214 29.8169 13.9255Z" fill="white"/>
<path fill-rule="evenodd" clip-rule="evenodd" d="M33.728 17.8982C33.9912 17.8942 34.2527 17.9426 34.4971 18.0406C34.7414 18.1387 34.9639 18.2842 35.1515 18.4689C35.339 18.6537 35.488 18.8742 35.5897 19.1171C35.6913 19.36 35.7437 19.6206 35.7437 19.8839C35.7437 20.1472 35.6913 20.4079 35.5897 20.6508C35.488 20.8936 35.339 21.1137 35.1515 21.2985C34.9639 21.4833 34.7414 21.6292 34.4971 21.7272C34.2527 21.8253 33.9912 21.8737 33.728 21.8697H25.847C25.5837 21.8737 25.3223 21.8253 25.0779 21.7272C24.8335 21.6292 24.6111 21.4833 24.4235 21.2985C24.2359 21.1137 24.0869 20.8936 23.9853 20.6508C23.8836 20.4079 23.8312 20.1472 23.8312 19.8839C23.8312 19.6206 23.8836 19.36 23.9853 19.1171C24.0869 18.8742 24.2359 18.6537 24.4235 18.4689C24.6111 18.2842 24.8335 18.1387 25.0779 18.0406C25.3223 17.9426 25.5837 17.8942 25.847 17.8982H33.728Z" fill="white"/>
<path d="M13.8982 0C10.6317 0 7.94101 2.69076 7.94101 5.95729C7.94101 9.22383 10.6317 11.9146 13.8982 11.9146C17.1647 11.9146 19.8554 9.22383 19.8554 5.95729C19.8554 2.69076 17.1647 0 13.8982 0ZM13.8982 3.97153C15.0182 3.97153 15.8839 4.83617 15.8839 5.95729C15.8839 7.07706 15.0182 7.9426 13.8982 7.9426C12.7779 7.9426 11.9125 7.07691 11.9125 5.95729C11.9125 4.83753 12.7779 3.97153 13.8982 3.97153Z" fill="white"/>
</svg>
