<svg width="133" height="94" viewBox="0 0 133 94" fill="none" xmlns="http://www.w3.org/2000/svg">
<path fill-rule="evenodd" clip-rule="evenodd" d="M38.0547 8.45644C38.0547 3.81125 34.2436 0 29.5984 0C24.9531 0 21.1421 3.81125 21.1421 8.45644C21.1421 13.1018 24.9531 16.9124 29.5984 16.9124C34.2436 16.9124 38.0547 13.1018 38.0547 8.45644ZM25.3702 8.45644C25.3702 6.09629 27.2382 4.22822 29.5984 4.22822C31.9586 4.22822 33.8265 6.09629 33.8265 8.45644C33.8265 10.8166 31.9586 12.6847 29.5984 12.6847C27.2382 12.6847 25.3702 10.8166 25.3702 8.45644ZM21.5289 15.112C19.9226 14.1484 18.0917 13.9296 16.541 14.3771C14.9904 14.8244 13.7367 15.8541 12.9157 17.1437L2.31228 33.8084C0.801257 36.1829 3.532e-05 38.9389 9.91117e-06 41.7527V86.6767C-0.000841819 86.9549 0.0532105 87.2305 0.159069 87.4877C0.264927 87.745 0.42051 87.9789 0.616902 88.1759C0.813294 88.3729 1.04663 88.5296 1.30355 88.6362C1.56047 88.7429 1.83591 88.7976 2.11409 88.7977H10.5704C11.1116 88.7984 11.6324 88.5915 12.0257 88.2198C12.419 87.848 12.6548 87.34 12.6845 86.7996L14.6334 49.7547C14.721 48.0909 15.2534 46.4823 16.1777 45.0968L21.4711 37.1524L23.2549 38.9364C24.0168 39.7001 25.0402 40.146 26.1092 40.1807C26.0588 40.1822 26.0082 40.1829 25.9575 40.1829H26.2443C26.1992 40.1829 26.1542 40.1822 26.1092 40.1807C26.9171 40.1573 27.6827 39.9478 28.3641 39.594C29.1378 40.2314 30.0815 40.6675 31.1097 40.8166C29.8056 43.5238 29.1021 46.5227 29.1021 49.6072V57.644V66.031C29.1021 72.7623 33.9264 78.4236 40.2876 79.7271V88.396C40.2876 91.4511 42.824 93.9874 45.8788 93.9874H51.4701C54.5249 93.9874 57.0613 91.4511 57.0613 88.396V80.0094H101.791V88.396C101.791 91.4511 104.327 93.9874 107.382 93.9874H112.973C116.028 93.9874 118.564 91.4511 118.564 88.396V79.726C124.923 78.4204 129.745 72.7605 129.745 66.031V57.644V49.6072C129.745 46.5228 129.041 43.5239 127.737 40.8167C130.428 40.4266 132.541 38.0704 132.541 35.282V32.4864C132.541 27.8876 128.753 24.0994 124.155 24.0994H116.928C113.599 15.9142 105.553 10.1177 96.1971 10.1177L62.6496 10.119C53.3233 10.119 45.4645 15.9332 42.1845 24.0994H34.6928C32.3095 24.0994 30.144 25.1167 28.6106 26.7371C28.3919 26.3194 28.2875 25.9958 28.251 25.7075C28.2283 25.5283 28.206 25.3443 28.1832 25.1561C28.0356 23.9388 27.8666 22.5444 27.4335 21.1408C26.9334 19.5205 25.9869 17.7789 24.2128 16.7146L21.5289 15.112ZM118.388 29.6907C118.503 30.6054 118.562 31.5369 118.562 32.4818V31.0855L121.642 33.4014C122.414 33.9803 123.137 34.6093 123.81 35.282H126.95V32.4864C126.95 30.9101 125.732 29.6907 124.155 29.6907H118.388ZM26.3059 32.4864C26.3059 32.0116 26.3463 31.5455 26.4237 31.0913C26.3242 30.9375 26.213 30.7745 26.0874 30.6019C25.0721 29.2052 24.2635 27.8729 24.0559 26.2337L24.0109 25.8762C23.8499 24.5919 23.6932 23.3421 23.3952 22.3766C23.0697 21.3219 22.6734 20.708 22.0409 20.3288L19.357 18.7267C18.6489 18.3017 18.1723 18.297 17.7136 18.4312L17.7137 18.4405C17.255 18.5683 16.7956 18.9248 16.4832 19.4154L5.87979 36.08C4.80055 37.776 4.22819 39.7432 4.22817 41.7532V84.5636H8.56368L10.4052 49.5245C10.5327 47.103 11.3145 44.7627 12.6597 42.7447L17.9532 34.8003C19.4089 32.6177 22.606 32.3 24.4605 34.1561L26.2156 35.919C26.1338 35.9379 26.0475 35.9478 25.9575 35.9478H26.2443L26.2156 35.919C26.2579 35.9092 26.299 35.897 26.3388 35.8825C26.3171 35.6851 26.3059 35.4847 26.3059 35.282V32.4864ZM37.205 33.4014C36.4331 33.9803 35.7092 34.6093 35.0365 35.282H31.8971V32.4864C31.8971 30.9099 33.1157 29.6907 34.6928 29.6907H40.7305C40.6816 30.0731 40.642 30.4584 40.6122 30.8463L37.205 33.4014ZM107.382 88.396V80.0094H112.973V88.396H107.382ZM51.4701 80.0094H45.8788V88.396H51.4701V80.0094ZM43.0802 74.4174C39.5615 74.4174 36.5794 72.3 35.3263 69.2574C37.5489 70.7493 40.2178 71.6217 43.0802 71.6217H115.766C118.629 71.6217 121.298 70.7493 123.52 69.2574C122.267 72.3 119.285 74.4174 115.766 74.4174H43.0802ZM115.766 66.0304C120.428 66.0304 124.147 62.3153 124.153 57.6556L124.153 57.644L124.153 49.6059C124.153 44.9868 121.984 40.6485 118.289 37.8777L117.409 37.2163L113.561 38.5014C111.617 39.1481 109.582 39.4733 107.533 39.4733H51.3145C49.2655 39.4733 47.2302 39.1502 45.2864 38.5014L41.4377 37.2162L40.5576 37.8777C36.8625 40.6485 34.6933 44.9868 34.6933 49.6059V57.644C34.6933 62.3092 38.4151 66.0304 43.0802 66.0304H115.766ZM62.6496 15.7097H96.1971C105.493 15.7097 112.971 23.1876 112.971 32.4837V32.8029L111.792 33.1945C110.418 33.6531 108.981 33.8813 107.533 33.8813H51.3145C49.8665 33.8813 48.4292 33.6531 47.0555 33.1945L45.8758 32.8028V32.4837C45.8758 23.1865 53.3526 15.7097 62.6496 15.7097ZM40.2876 53.4536C40.2876 48.8548 44.0756 45.0666 48.6744 45.0666C53.2733 45.0666 57.0613 48.8548 57.0613 53.4536C57.0613 58.0524 53.2733 61.8406 48.6744 61.8406C44.0756 61.8406 40.2876 58.0524 40.2876 53.4536ZM51.4701 53.4536C51.4701 51.8774 50.2515 50.6579 48.6744 50.6579C47.0973 50.6579 45.8788 51.8771 45.8788 53.4536C45.8788 55.032 47.0973 56.2493 48.6744 56.2493C50.2515 56.2493 51.4701 55.0301 51.4701 53.4536ZM110.178 45.0666C105.579 45.0666 101.791 48.8548 101.791 53.4536C101.791 58.0524 105.579 61.8406 110.178 61.8406C114.776 61.8406 118.564 58.0524 118.564 53.4536C118.564 48.8548 114.776 45.0666 110.178 45.0666ZM110.178 50.6579C111.755 50.6579 112.973 51.8774 112.973 53.4536C112.973 55.0301 111.755 56.2493 110.178 56.2493C108.6 56.2493 107.382 55.032 107.382 53.4536C107.382 51.8771 108.6 50.6579 110.178 50.6579ZM64.2201 45.3517C64.6024 45.1645 65.0223 45.0669 65.4479 45.0666H93.4041C93.8297 45.0669 94.2497 45.1645 94.6319 45.3517C95.0142 45.5388 95.3486 45.8108 95.6098 46.1468C95.871 46.4828 96.0521 46.8736 96.1392 47.2902C96.2263 47.7068 96.2171 48.1379 96.1124 48.5504L93.3168 59.7331C93.1637 60.3353 92.8143 60.8696 92.3239 61.2512C91.8334 61.6327 91.2299 61.8397 90.6085 61.84H68.2435C67.6222 61.8397 67.0186 61.6327 66.5282 61.2512C66.0377 60.8696 65.6884 60.3353 65.5352 59.7331L62.7396 48.5504C62.6349 48.1379 62.6257 47.7068 62.7128 47.2902C62.7999 46.8736 62.981 46.4828 63.2422 46.1468C63.5034 45.8108 63.8379 45.5388 64.2201 45.3517ZM89.8222 50.6579H69.0298L70.4276 56.2493H88.4244L89.8222 50.6579Z" fill="white"/>
</svg>
