<svg width="117" height="77" viewBox="0 0 117 77" fill="none" xmlns="http://www.w3.org/2000/svg">
<path d="M112.697 10.872H98.7713C97.1075 10.872 95.6766 11.8373 94.9611 13.2307C93.052 12.838 90.3814 12.0215 87.5855 11.1636C83.4979 9.91133 78.491 8.40227 73.4506 7.41439C71.741 3.74651 66.5301 0 52.369 0C46.1077 0 38.562 3.13553 31.9054 5.90112C28.0933 7.48443 24.4707 8.98069 21.9239 9.52785C21.1744 8.25176 19.8068 7.38495 18.2287 7.38495H4.30524C1.93095 7.38495 0 9.32596 0 11.7126V48.0086C0 50.3953 1.93095 52.3363 4.30524 52.3363H18.2287C18.5372 52.3363 18.8406 52.2988 19.139 52.2334L27.8994 61.6211C31.398 65.3355 35.4702 68.3951 40.013 70.7128L51.1259 76.3453C52.0148 76.784 52.9677 77 53.9113 77C55.4036 77 56.8752 76.4624 58.0476 75.4218C59.1078 74.4687 59.8117 73.1983 60.0607 71.8338L64.9738 74.2136C67.5811 75.4747 70.7965 74.82 72.8051 72.5781C73.9065 71.2688 74.4526 69.5942 74.3498 67.9014C76.7492 68.232 79.183 67.5821 80.954 66.0452C82.5741 64.6416 83.5499 62.7559 83.7533 60.6678C87.2906 62.4962 91.7627 61.527 94.2032 58.5454C95.1341 57.4224 95.7086 56.0764 95.9753 54.6648C96.7676 55.377 97.8015 55.8233 98.9451 55.8233H112.697C115.069 55.8233 117 53.8823 117 51.4979V15.1973C117 12.813 115.069 10.872 112.697 10.872ZM4.68001 12.0893H17.8539V12.1122V12.1124L17.9085 47.6319H4.68001V12.0893ZM90.5973 55.5476C89.473 56.9259 87.293 57.3324 85.6864 56.3678L80.1288 52.9835C80.0268 52.9074 79.9223 52.8325 79.857 52.7935L73.6323 49.0057C72.5264 48.3371 71.0912 48.6864 70.4193 49.8004C69.7498 50.9121 70.104 52.357 71.21 53.03L77.3572 56.7719C77.3941 56.8021 77.4398 56.8121 77.478 56.8398C77.5075 56.8611 77.5229 56.8941 77.5537 56.9144C78.5293 57.5575 79.1144 58.6509 79.1144 59.8385C79.1144 60.4336 78.9567 61.5659 77.8988 62.4803C76.8704 63.3738 75.2547 63.5391 73.7877 62.9075L65.9473 59.5353C64.8184 59.0415 63.5022 59.5238 62.9424 60.6287C62.3825 61.7314 62.7687 63.0821 63.8267 63.7159L68.7718 66.6862C69.4138 67.0696 69.6012 67.6647 69.6562 67.9862C69.7475 68.5445 69.5945 69.1096 69.2814 69.4839C68.6963 70.1295 67.7709 70.3431 67.0032 69.9755L55.2574 64.2834C54.124 63.7298 52.7552 64.1846 52.1701 65.3033C51.5829 66.4243 51.9827 67.8094 53.075 68.441L54.6998 69.3782C55.4242 69.7826 55.4813 70.513 55.4813 70.7289C55.4813 71.1654 55.2803 71.5996 54.9374 71.905C54.4622 72.33 53.7765 72.4126 53.2122 72.1349L42.1268 66.5161C38.0706 64.4441 34.4259 61.7107 31.3067 58.3936L22.4426 48.8954C22.5042 48.6059 22.5339 48.3073 22.5339 48.0086V14.2096C25.5982 13.6123 29.4168 12.0252 33.6924 10.2495C39.9468 7.6492 47.0377 4.7044 52.369 4.7044C57.7641 4.7044 62.1152 5.29471 65.0813 6.36964C64.6791 6.3583 64.2792 6.35135 63.8815 6.35135C50.8996 6.35135 28.2263 15.868 27.2665 16.2724C26.3982 16.6399 25.8336 17.4943 25.8336 18.4409C25.8336 20.7769 26.5695 22.9982 27.9885 24.8979C29.4077 26.7241 31.3248 28.0311 33.5574 28.6788C39.0854 30.2294 47.1885 31.0838 55.1157 26.7815L89.777 49.8739C90.6955 50.4871 91.2897 51.4289 91.4496 52.5247C91.6073 53.6181 91.3103 54.6886 90.5973 55.5476ZM92.3638 45.9552C92.3638 45.9552 92.3638 45.9552 92.3638 45.9528L56.4936 22.0541C55.7304 21.551 54.75 21.5349 53.9732 22.0127C47.0788 26.2806 39.7503 25.5319 34.8349 24.1536C33.5803 23.7884 32.4881 23.0463 31.7065 22.038C31.2335 21.404 30.8953 20.6988 30.7034 19.9478C36.1078 17.7816 53.7218 11.0557 63.8815 11.0557C66.1645 11.0557 68.5866 11.29 71.2877 11.7701C71.2878 11.7701 71.2882 11.7701 71.2884 11.7701C71.2906 11.7704 71.2922 11.7721 71.2946 11.7724C76.5025 12.6844 81.6646 14.267 86.2213 15.6636C89.5078 16.6716 92.2752 17.5106 94.4683 17.9148V48.0236C93.885 47.2309 93.1977 46.5118 92.3638 45.9552ZM112.32 51.1189H99.1483V15.5764H112.32V51.1189Z" fill="white"/>
</svg>
