<svg width="89" height="66" viewBox="0 0 89 66" fill="none" xmlns="http://www.w3.org/2000/svg">
<path d="M44.5341 0C39.0119 0 33.4902 0.429128 28.0036 1.28627L21.8036 2.28654C17.6709 2.9294 14.3219 5.92855 13.2531 9.99996L7.83801 27.0716C5.20159 29.2859 3.41994 32.501 3.27743 36.1438H3.06451C1.35439 36.1438 0 37.5001 0 39.2144V62.9294C0 64.6437 1.35439 66 3.06451 66H13.6094C15.3195 66 16.6739 64.6437 16.6739 62.9294V58.5712H72.3235V62.9294C72.3235 64.6437 73.6778 66 75.388 66H85.9328C87.6429 66 88.9973 64.6437 88.9973 62.9294V39.2144C89.0686 37.5001 87.7139 36.1438 86.0038 36.1438H85.7909C85.6483 32.501 83.8667 29.2859 81.2303 27.0716L75.8152 9.99996C74.7464 5.99997 71.3974 2.9294 67.2647 2.28654L61.0647 1.28627C55.5781 0.429128 50.0564 0 44.5341 0ZM44.5606 3.62582C49.8958 3.62582 55.2226 4.03626 60.4955 4.85768L66.6941 5.85795C69.4017 6.28652 71.6819 8.28596 72.3944 11.0002V11.0714L76.7407 24.7864C76.1706 24.6436 75.6017 24.5007 75.0317 24.4293C64.9135 23.0007 54.6523 22.3576 44.5341 22.3576C34.416 22.3576 24.1559 23.0724 14.109 24.3582C13.5389 24.4296 12.9686 24.5724 12.3986 24.7153L16.6739 11.0714V11.0002C17.3864 8.28596 19.5953 6.28652 22.3742 5.85795L28.5728 4.85768C33.8813 4.03626 39.2254 3.62582 44.5606 3.62582ZM44.5341 25.929C54.5098 25.929 64.6277 26.5724 74.5321 27.9296C78.7361 28.501 81.9431 32.001 82.2281 36.1438H82.0848H65.5543C63.8442 36.1438 62.4898 37.5001 62.4898 39.2144V43.6438C62.4898 45.3581 63.8442 46.7144 65.5543 46.7144H82.0138C83.0114 46.7144 83.7952 45.9287 83.7952 44.9287V39.6427H83.9385H85.4346V62.4997H75.8862V58.5712H79.3779C82.1569 58.5712 84.4367 56.2858 84.4367 53.5001V50.2146C84.4367 49.2146 83.6529 48.4289 82.6554 48.4289H6.41292C5.41535 48.4289 4.63155 49.2146 4.63155 50.2146V53.5001C4.63155 56.2858 6.91142 58.5712 9.69035 58.5712H13.1821V62.4997H3.56273V39.7152H4.84587V44.9287C4.84587 45.9287 5.62967 46.7144 6.62724 46.7144H23.4431C25.1532 46.7144 26.5062 45.2866 26.5062 43.6438V39.2144C26.5062 37.5001 25.1532 36.1438 23.4431 36.1438H6.91114C7.19616 31.9296 10.4032 28.501 14.6072 27.9296C24.4403 26.5724 34.5585 25.929 44.5341 25.929ZM31.352 36.1438C30.3545 36.1438 29.5707 36.9295 29.5707 37.9295V44.9287C29.5707 45.9287 30.3545 46.7144 31.352 46.7144C32.3496 46.7144 33.1334 45.9287 33.1334 44.9287V39.7152H55.9349V44.9287C55.9349 45.9287 56.7187 46.7144 57.7163 46.7144C58.7138 46.7144 59.4976 45.9287 59.4976 44.9287V37.9295C59.4976 36.9295 58.7138 36.1438 57.7163 36.1438H31.352ZM8.4086 39.7152H23.0158V43.143H8.4086V39.7152ZM66.0525 39.7152H80.3034V43.143H66.0525V39.7152ZM8.19428 52.0715H80.874V53.5712C80.874 54.4283 80.233 55.0723 79.3779 55.0723H9.69035C8.8353 55.0723 8.19428 54.4283 8.19428 53.5712V52.0715Z" fill="white"/>
</svg>
