<svg width="124" height="95" viewBox="0 0 124 95" fill="none" xmlns="http://www.w3.org/2000/svg">
<path fill-rule="evenodd" clip-rule="evenodd" d="M111.305 5.22368H104.775V3.91776C104.775 1.75777 103.017 0 100.857 0H81.2686C79.1086 0 77.3508 1.75777 77.3508 3.91776V5.22368H70.8212H59.0679V88.8025H123.058V5.22368H111.305ZM78.6567 7.83551H79.9626V3.91776C79.9626 3.1982 80.5477 2.61184 81.2686 2.61184H100.857C101.578 2.61184 102.163 3.1982 102.163 3.91776V7.83551H103.469H108.693V14.3651H73.433V7.83551H78.6567ZM113.917 71.0603V79.6611H105.316L113.917 71.0603ZM103.469 77.8145V69.2137H112.07L103.469 77.8145ZM100.857 66.6019V79.6611H68.2094V13.0592H70.8212V16.9769H111.305V13.0592H113.917V66.6019H100.857ZM120.446 86.1907H61.6798V7.83551H70.8212V10.4474H65.5975V82.2729H116.528V10.4474H111.305V7.83551H120.446V86.1907ZM70.8208 31.3419H78.6564V23.5064H70.8208V31.3419ZM73.4327 26.1183H76.0445V28.7301H73.4327V26.1183ZM78.6564 45.7071H70.8208V37.8716H78.6564V45.7071ZM76.0445 40.4835H73.4327V43.0953H76.0445V40.4835ZM70.8208 60.071H78.6564V52.2341H70.8208V60.071ZM73.4327 54.846H76.0445V57.4591H73.4327V54.846ZM81.2686 23.5064H104.775V26.1183H81.2686V23.5064ZM96.9396 28.7301H81.2686V31.3419H96.9396V28.7301ZM81.2686 37.8716H104.775V40.4835H81.2686V37.8716ZM96.9396 43.0953H81.2686V45.7071H96.9396V43.0953ZM81.2686 52.2368H104.775V54.8486H81.2686V52.2368ZM96.9396 57.4605H81.2686V60.0723H96.9396V57.4605ZM35.3629 12.7992L57.099 12.7984V18.239H35.3629C26.3168 18.239 19.0418 25.5141 19.0418 34.5604V34.8709L20.1896 35.252C21.5262 35.6982 22.9247 35.9203 24.3336 35.9203H57.099V41.3614H24.3336C22.34 41.3614 20.3596 41.047 18.4683 40.4158L14.7234 39.1652L13.8671 39.8088C10.2717 42.5049 8.16105 46.7261 8.16108 51.2206V59.0418C8.16108 63.5811 11.7824 67.2019 16.3216 67.2019H57.099V72.6423H16.3216C13.5365 72.6423 10.9396 71.7935 8.77697 70.3418C9.99625 73.3023 12.8979 75.3625 16.3216 75.3625H57.099V80.8035H29.9254V88.9639C29.9254 91.9366 27.4575 94.4044 24.4851 94.4044H19.0447C16.0723 94.4044 13.6044 91.9366 13.6044 88.9639V80.5289C7.41488 79.2605 2.72071 73.7521 2.72071 67.2024V59.0418V51.2218C2.7207 48.2206 3.40526 45.3026 4.67416 42.6685C2.05556 42.2886 0 39.9962 0 37.2832V34.563C0 30.0883 3.68582 26.4023 8.16055 26.4023H15.45C18.6416 18.4566 26.2882 12.7992 35.3629 12.7992ZM38.0857 46.8036H57.099V52.2441H41.571L42.931 57.6845H57.099V63.1243H40.8059C40.2013 63.124 39.6141 62.9227 39.1369 62.5514C38.6597 62.1802 38.3197 61.6602 38.1707 61.0743L35.4505 50.1934C35.3486 49.792 35.3397 49.3726 35.4245 48.9673C35.5092 48.5619 35.6854 48.1817 35.9395 47.8547C36.1937 47.5278 36.5192 47.2631 36.8911 47.081C37.263 46.8989 37.6716 46.8039 38.0857 46.8036ZM14.0353 31.8428C13.9877 32.2149 13.9492 32.5897 13.9202 32.9672L10.605 35.4533C9.8539 36.0166 9.14953 36.6287 8.49494 37.2832H5.44037V34.563C5.44037 33.0291 6.62601 31.8428 8.16055 31.8428H14.0353ZM19.0447 88.9639V80.8035H24.4851V88.9639H19.0447ZM21.7649 46.8036C17.2902 46.8036 13.6044 50.4896 13.6044 54.9643C13.6044 59.439 17.2902 63.125 21.7649 63.125C26.2396 63.125 29.9254 59.439 29.9254 54.9643C29.9254 50.4896 26.2396 46.8036 21.7649 46.8036ZM21.7649 52.2441C23.2994 52.2441 24.4851 53.4306 24.4851 54.9643C24.4851 56.4982 23.2994 57.6845 21.7649 57.6845C20.2304 57.6845 19.0447 56.5001 19.0447 54.9643C19.0447 53.4304 20.2304 52.2441 21.7649 52.2441Z" fill="white"/>
</svg>
