<svg width="136" height="98" viewBox="0 0 136 98" fill="none" xmlns="http://www.w3.org/2000/svg">
<path fill-rule="evenodd" clip-rule="evenodd" d="M107.727 26.9163L114.825 20.3395C115.408 19.7995 115.442 18.8918 114.905 18.3121L108.315 11.1995C108.057 10.921 107.698 10.7574 107.319 10.7414L81.778 9.76784C79.0033 4.05172 73.2517 0.257296 66.8807 0.0128905C62.261 -0.163195 57.852 1.46962 54.4617 4.61101C51.0713 7.75241 49.1091 12.0259 48.9315 16.644C48.7539 21.262 50.3867 25.671 53.5281 29.0614C56.668 32.4501 60.9431 34.4139 65.5596 34.5899C70.8295 34.7923 75.8873 32.5704 79.3489 28.5446L91.8288 29.0265C92.2171 29.0429 92.5588 28.8888 92.8797 28.6246L95.4758 26.1198L98.6682 28.5812C98.9732 28.8162 99.3582 28.9199 99.7413 28.8658C100.121 28.8147 100.471 28.6047 100.695 28.3008L103.027 25.1597L105.972 27.0681C106.522 27.4249 107.244 27.3634 107.727 26.9163ZM111.822 19.2098L106.596 24.0524L103.457 22.0195C102.82 21.6078 101.977 21.7725 101.526 22.3676L99.2621 25.416L96.2457 23.0894C95.6844 22.6557 94.9123 22.709 94.3754 23.1915L91.3285 26.132L78.747 25.6509C78.2853 25.6333 77.8383 25.8458 77.5625 26.1977C74.7044 29.8389 70.2683 31.897 65.6689 31.7233C61.8166 31.5765 58.2506 29.9395 55.6313 27.1126C53.012 24.2857 51.6498 20.6039 51.7982 16.7501C51.9435 12.8993 53.5819 9.33503 56.4104 6.7142C59.2373 4.09488 62.9176 2.73105 66.7683 2.87938C72.3393 3.09173 77.3425 6.56243 79.5154 11.7199C79.7316 12.2357 80.223 12.5778 80.7814 12.5991L106.61 13.5851L111.822 19.2098ZM58.7453 22.5753C60.227 22.6318 61.6433 22.1078 62.7313 21.0997C63.8193 20.0916 64.4496 18.7193 64.5077 17.2361C64.6227 14.1776 62.2269 11.5919 59.17 11.4754C56.2034 11.3655 53.5222 13.8498 53.4077 16.8146C53.2926 19.8731 55.6869 22.4572 58.7453 22.5753ZM56.2759 16.9224C56.3016 16.2064 56.6064 15.5449 57.1326 15.0573C57.6588 14.5697 58.3432 14.3178 59.0591 14.3435C60.5392 14.3984 61.6974 15.6483 61.6394 17.1284C61.5848 18.5601 60.288 19.7618 58.8562 19.7072C57.3761 19.6523 56.2179 18.4024 56.2759 16.9224ZM104.151 18.647C103.883 18.8961 103.518 19.0446 103.122 19.0295L85.4509 18.3559C84.6586 18.3257 84.0421 17.6603 84.0723 16.868C84.1025 16.0757 84.7695 15.4576 85.5618 15.4878L103.232 16.1614C104.025 16.1916 104.641 16.857 104.611 17.6493C104.595 18.0438 104.42 18.398 104.151 18.647ZM135.177 65.9754C134.568 63.6208 132.991 61.6101 130.849 60.4593C128.705 59.3058 126.155 59.1047 123.851 59.9037L91.8017 71.0331C91.8114 70.9305 91.8252 70.8291 91.839 70.7278L91.839 70.7276C91.8642 70.5426 91.8894 70.3578 91.8894 70.166C91.8894 65.0415 87.7226 60.8747 82.5981 60.8747H75.5238C70.1347 60.8747 64.9414 59.2662 60.502 56.221C55.1501 52.5568 48.8959 50.6203 42.4168 50.6203H27.591V48.0648C27.591 46.5672 26.3791 45.3556 24.8818 45.3556H2.70901C1.21165 45.3556 0 46.5672 0 48.0648V94.9023C0 96.3996 1.21165 97.6114 2.70901 97.6114H24.8818C26.3791 97.6114 27.591 96.3996 27.591 94.9023V92.4008L83.8018 97.6007C83.8839 97.6087 83.9685 97.6114 84.0505 97.6114C84.4473 97.6114 84.8416 97.5241 85.204 97.3521L130.438 76.0577C134.232 74.2746 136.224 70.031 135.177 65.9754ZM22.1728 92.1932H5.41819V50.7738H22.1728V92.1932ZM128.131 71.158L83.5637 92.1377L27.591 86.9578V56.0385H42.4168C47.798 56.0385 52.9938 57.647 57.4385 60.6922C62.7826 64.3562 69.0368 66.2929 75.5238 66.2929H82.5981C84.733 66.2929 86.4712 68.0309 86.4712 70.166C86.4712 71.7094 85.5565 73.0349 84.2466 73.6568L83.3703 73.961C83.1206 74.0118 82.8624 74.0392 82.5981 74.0392H58.9703C57.4728 74.0392 56.2612 75.2509 56.2612 76.7482C56.2612 78.2456 57.4728 79.4572 58.9703 79.4572H82.5981C83.3681 79.4572 84.1048 79.336 84.8205 79.1588C84.8449 79.1518 84.8693 79.1507 84.8938 79.1495H84.8938C84.9214 79.1481 84.949 79.1468 84.9764 79.1372L85.719 78.8793C85.7918 78.8531 85.8657 78.8296 85.9395 78.8061L85.9396 78.8061C86.0626 78.767 86.1853 78.7279 86.3028 78.6766L125.626 65.0229C126.515 64.7107 127.46 64.7901 128.288 65.2345C129.113 65.6764 129.695 66.4199 129.93 67.3273C130.327 68.8697 129.571 70.4782 128.131 71.158Z" fill="white"/>
</svg>
