<svg width="109" height="78" viewBox="0 0 109 78" fill="none" xmlns="http://www.w3.org/2000/svg">
<path d="M81.9786 7.50536C81.9786 6.54656 82.7603 5.7697 83.7238 5.7697H86.1382V3.36848C86.1382 2.40969 86.9198 1.63283 87.8833 1.63283C88.8468 1.63283 89.6285 2.40969 89.6285 3.36848V5.7697H92.0428C93.0063 5.7697 93.788 6.54656 93.788 7.50536C93.788 8.46415 93.0063 9.24101 92.0428 9.24101H89.6285V11.6422C89.6285 12.601 88.8468 13.3779 87.8833 13.3779C86.9198 13.3779 86.1382 12.601 86.1382 11.6422V9.24101H83.7238C82.7603 9.24101 81.9786 8.46415 81.9786 7.50536ZM51.7083 71.1892C50.5059 71.1892 49.5312 72.1585 49.5312 73.3544C49.5312 74.5502 50.5059 75.5197 51.7083 75.5197C52.9107 75.5197 53.8854 74.5502 53.8854 73.3544C53.8854 72.1585 52.9107 71.1892 51.7083 71.1892ZM46.5057 7.60818H48.9201V10.0094C48.9201 10.9682 49.7012 11.7451 50.6653 11.7451C51.6293 11.7451 52.4104 10.9682 52.4104 10.0094V7.60818H54.8248C55.7888 7.60818 56.5699 6.83132 56.5699 5.87253C56.5699 4.91374 55.7888 4.13687 54.8248 4.13687H52.4104V1.73566C52.4104 0.776864 51.6293 0 50.6653 0C49.7012 0 48.9201 0.776864 48.9201 1.73566V4.13687H46.5057C45.5417 4.13687 44.7606 4.91374 44.7606 5.87253C44.7606 6.83132 45.5417 7.60818 46.5057 7.60818ZM22.1417 68.2268H19.7274V65.8255C19.7274 64.8673 18.9463 64.0899 17.9822 64.0899C17.0182 64.0899 16.2371 64.8673 16.2371 65.8255V68.2268H13.8227C12.8587 68.2268 12.0775 69.0042 12.0775 69.9624C12.0775 70.9206 12.8587 71.6981 13.8227 71.6981H16.2371V74.0982C16.2371 75.0564 17.0182 75.8338 17.9822 75.8338C18.9463 75.8338 19.7274 75.0564 19.7274 74.0982V71.6981H22.1417C23.1058 71.6981 23.8869 70.9206 23.8869 69.9624C23.8869 69.0042 23.1058 68.2268 22.1417 68.2268ZM17.3449 11.8564C18.5473 11.8564 19.522 10.887 19.522 9.69117C19.522 8.49536 18.5473 7.52591 17.3449 7.52591C16.1425 7.52591 15.1678 8.49536 15.1678 9.69117C15.1678 10.887 16.1425 11.8564 17.3449 11.8564ZM106.823 33.9476C105.62 33.9476 104.646 34.9169 104.646 36.1128C104.646 37.3086 105.62 38.2781 106.823 38.2781C108.025 38.2781 109 37.3086 109 36.1128C109 34.9169 108.025 33.9476 106.823 33.9476ZM2.17718 41.7697C0.974762 41.7697 0 42.7391 0 43.935C0 45.1309 0.974762 46.1003 2.17718 46.1003C3.37953 46.1003 4.3543 45.1309 4.3543 43.935C4.3543 42.7391 3.37953 41.7697 2.17718 41.7697ZM88.5639 70.3918H86.1495V67.9906C86.1495 67.0324 85.3678 66.2549 84.4044 66.2549C83.4409 66.2549 82.6592 67.0324 82.6592 67.9906V70.3918H80.2448C79.2814 70.3918 78.4997 71.1692 78.4997 72.1275C78.4997 73.0857 79.2814 73.8631 80.2448 73.8631H82.6592V76.2643C82.6592 77.2226 83.4409 78 84.4044 78C85.3678 78 86.1495 77.2226 86.1495 76.2643V73.8631H88.5639C89.5273 73.8631 90.309 73.0857 90.309 72.1275C90.309 71.1692 89.5273 70.3918 88.5639 70.3918ZM98.6826 21.6759V56.1009C98.6826 58.3337 96.8556 60.1508 94.6106 60.1508H13.1694C10.9243 60.1508 9.09738 58.3337 9.09738 56.1009V21.6759C9.09738 19.4431 10.9243 17.6261 13.1694 17.6261H94.6106C96.8556 17.6261 98.6826 19.4431 98.6826 21.6759ZM95.1923 21.6759C95.1923 21.3567 94.931 21.0974 94.6106 21.0974H13.1694C12.8484 21.0974 12.5877 21.3567 12.5877 21.6759V56.1009C12.5877 56.4196 12.8484 56.6795 13.1694 56.6795H94.6106C94.931 56.6795 95.1923 56.4196 95.1923 56.1009V21.6759ZM93.9414 25.6687V52.1075C93.9414 53.7031 92.637 55.0003 91.0328 55.0003H16.7461C15.1424 55.0003 13.8375 53.7031 13.8375 52.1075V25.6687C13.8375 24.0738 15.1424 22.776 16.7461 22.776H91.0328C92.637 22.776 93.9414 24.0738 93.9414 25.6687ZM90.451 26.2473H17.3278V51.529H90.451V26.2473ZM62.7336 39.3099V46.1717C62.7336 47.7673 61.4287 49.0645 59.825 49.0645H54.4362C52.8325 49.0645 51.5276 47.7673 51.5276 46.1717V39.3099C51.5276 37.7149 52.8325 36.4171 54.4362 36.4171H59.825C61.4287 36.4171 62.7336 37.7149 62.7336 39.3099ZM59.2433 39.8885H55.0179V45.5932H59.2433V39.8885ZM72.5553 36.4171C74.1595 36.4171 75.4638 37.7149 75.4638 39.3099V46.1717C75.4638 47.7673 74.1595 49.0645 72.5553 49.0645H67.1675C65.5633 49.0645 64.2589 47.7673 64.2589 46.1717V39.3099C64.2589 37.7149 65.5633 36.4171 67.1675 36.4171H72.5553ZM71.9735 39.8885H67.7493V45.5932H71.9735V39.8885ZM76.9886 46.1717V39.3099C76.9886 37.7149 78.2929 36.4171 79.8972 36.4171H85.286C86.8903 36.4171 88.1946 37.7149 88.1946 39.3099V46.1717C88.1946 47.7673 86.8903 49.0645 85.286 49.0645H79.8972C78.2929 49.0645 76.9886 47.7673 76.9886 46.1717ZM80.4789 45.5932H84.7043V39.8885H80.4789V45.5932ZM19.5848 46.1717V39.3099C19.5848 37.7149 20.8897 36.4171 22.4934 36.4171H27.8817C29.4854 36.4171 30.7902 37.7149 30.7902 39.3099V46.1717C30.7902 47.7673 29.4854 49.0645 27.8817 49.0645H22.4934C20.8897 49.0645 19.5848 47.7673 19.5848 46.1717ZM23.0751 45.5932H27.2999V39.8885H23.0751V45.5932ZM32.3156 46.1717V39.3099C32.3156 37.7149 33.6204 36.4171 35.2241 36.4171H40.6124C42.2161 36.4171 43.521 37.7149 43.521 39.3099V46.1717C43.521 47.7673 42.2161 49.0645 40.6124 49.0645H35.2241C33.6204 49.0645 32.3156 47.7673 32.3156 46.1717ZM35.8059 45.5932H40.0307V39.8885H35.8059V45.5932ZM35.3957 32.1837H72.3837C73.3472 32.1837 74.1288 31.4068 74.1288 30.448C74.1288 29.4892 73.3472 28.7123 72.3837 28.7123H35.3957C34.4317 28.7123 33.6506 29.4892 33.6506 30.448C33.6506 31.4068 34.4317 32.1837 35.3957 32.1837Z" fill="white"/>
</svg>
