<svg width="77" height="77" viewBox="0 0 77 77" fill="none" xmlns="http://www.w3.org/2000/svg">
<path d="M38.5 0C17.248 0 0 17.248 0 38.5C0 59.752 17.248 77 38.5 77C59.752 77 77 59.752 77 38.5C77 17.248 59.752 0 38.5 0ZM38.5 3.08C58.0272 3.08 73.92 18.9728 73.92 38.5C73.92 58.0272 58.0272 73.92 38.5 73.92C18.9728 73.92 3.08 58.0272 3.08 38.5C3.08 18.9728 18.9728 3.08 38.5 3.08ZM38.5 7.7C21.4984 7.7 7.7 21.4984 7.7 38.5C7.7 55.5016 21.4984 69.3 38.5 69.3C55.5016 69.3 69.3 55.5016 69.3 38.5C69.3 21.4984 55.5016 7.7 38.5 7.7ZM38.5 10.78C53.7768 10.78 66.22 23.2232 66.22 38.5C66.22 53.7768 53.7768 66.22 38.5 66.22C23.2232 66.22 10.78 53.7768 10.78 38.5C10.78 23.2232 23.2232 10.78 38.5 10.78ZM38.5614 12.32C35.2966 12.32 32.0934 12.9362 29.0134 14.1066C28.5822 14.2914 28.2739 14.5994 28.1507 15.0306C28.0275 15.4618 28.0282 15.8928 28.2746 16.324L31.8467 22.6067C33.2635 25.0091 35.728 26.488 38.5 26.488C41.272 26.488 43.7981 25.0717 45.1533 22.6693L48.8493 16.324C49.0957 15.9544 49.0952 15.4618 48.972 15.0306C48.8488 14.5994 48.479 14.2914 48.1094 14.1066C45.0294 12.9362 41.8262 12.32 38.5614 12.32ZM38.5229 15.4072C40.7944 15.4149 43.0586 15.7386 45.2146 16.3854L42.504 21.0667C41.6416 22.4835 40.1632 23.3466 38.5 23.3466C36.8368 23.3466 35.3584 22.4838 34.496 21.0054L31.7854 16.324C33.9722 15.708 36.2514 15.3995 38.5229 15.4072ZM53.9144 17.7196C53.8076 17.7177 53.6998 17.7259 53.592 17.7413C53.1608 17.8029 52.7917 18.1104 52.5453 18.48L48.9106 24.7627C47.4938 27.1651 47.4938 30.0603 48.9106 32.4627C50.3274 34.8651 52.7907 36.344 55.5627 36.344H62.832C63.2632 36.344 63.6946 36.159 64.0026 35.7894C64.3106 35.4198 64.4336 34.9886 64.372 34.5574C63.3864 28.0894 59.9984 22.1765 54.824 18.0493C54.5468 17.8183 54.235 17.7254 53.9144 17.7196ZM23.0158 17.781C22.6808 17.7868 22.3456 17.8796 22.1146 18.1106C17.0018 22.1762 13.6136 28.0894 12.628 34.5574C12.5664 34.9886 12.6894 35.4814 12.9974 35.7894C13.2438 36.159 13.6754 36.344 14.1066 36.344H21.3747C24.1467 36.344 26.6728 34.9277 28.028 32.5253C29.4448 30.1229 29.4448 27.2277 28.028 24.8253L24.3934 18.5414C24.147 18.1718 23.7778 17.8642 23.3466 17.8026C23.2388 17.7872 23.1274 17.7791 23.0158 17.781ZM22.7306 21.6214L25.4413 26.3027C26.3037 27.7195 26.3037 29.5059 25.4413 30.9227C24.5789 32.3395 23.1005 33.2026 21.4373 33.2026H16.016C17.0016 28.829 19.3426 24.763 22.7306 21.6214ZM54.2694 21.6214C57.6574 24.763 59.9368 28.7672 60.984 33.264H55.5627C53.8995 33.264 52.4211 32.4011 51.5587 30.9227C50.6963 29.4443 50.6963 27.7195 51.5587 26.3027L54.2694 21.6214ZM38.5 29.26C33.3872 29.26 29.26 33.3872 29.26 38.5C29.26 43.6128 33.3872 47.74 38.5 47.74C43.6128 47.74 47.74 43.6128 47.74 38.5C47.74 33.3872 43.6128 29.26 38.5 29.26ZM38.5 32.34C41.888 32.34 44.66 35.112 44.66 38.5C44.66 41.888 41.888 44.66 38.5 44.66C35.112 44.66 32.34 41.888 32.34 38.5C32.34 35.112 35.112 32.34 38.5 32.34ZM14.1066 40.656C13.6754 40.656 13.244 40.841 12.936 41.2106C12.628 41.5802 12.505 42.0114 12.5666 42.4426C13.5522 48.9722 16.9402 54.8235 22.1146 58.9507C22.361 59.1971 22.7304 59.2587 23.1 59.2587H23.408C23.8392 59.1971 24.2083 58.8896 24.4547 58.52L28.0894 52.2373C29.5062 49.7733 29.5062 46.9397 28.0894 44.5373C26.6726 42.1349 24.2093 40.656 21.4373 40.656H14.1066ZM55.5627 40.656C52.7907 40.656 50.2658 42.0723 48.9106 44.4747C47.5554 46.8771 47.4938 49.7723 48.9106 52.1747L52.5453 58.4586C52.7917 58.8282 53.1608 59.1358 53.592 59.1974H53.9C54.2696 59.1974 54.5774 59.0742 54.8854 58.8894C60.0598 54.7622 63.4478 48.9109 64.4334 42.3813C64.495 41.9501 64.372 41.4573 64.064 41.1493C63.756 40.8413 63.3246 40.656 62.8934 40.656H55.5627ZM16.016 43.736H21.4373C23.1005 43.736 24.5789 44.5989 25.4413 46.0773C26.2421 47.4941 26.2421 49.2189 25.4413 50.6973L22.7306 55.3786C19.4042 52.237 17.0632 48.2328 16.016 43.736ZM55.5627 43.7974H60.984C59.9984 48.171 57.6574 52.237 54.2694 55.3786L51.5587 50.6973C50.6963 49.2805 50.6963 47.4941 51.5587 46.0773C52.4211 44.6605 53.8995 43.7974 55.5627 43.7974ZM38.5 50.4506C35.728 50.4506 33.2019 51.867 31.8467 54.2694L28.1507 60.676C27.9043 61.0456 27.9048 61.5382 28.028 61.9694C28.1512 62.4006 28.521 62.7086 28.8906 62.8934C31.9706 64.0638 35.1738 64.68 38.4386 64.68C41.7034 64.68 44.9066 64.0638 47.9866 62.8934C48.4178 62.7086 48.7261 62.4006 48.8493 61.9694C48.9725 61.5382 48.9718 61.1072 48.7254 60.676L45.1533 54.3307C43.7365 51.9283 41.272 50.4506 38.5 50.4506ZM38.5 53.6534C40.1632 53.6534 41.6416 54.5162 42.504 55.9946L45.2146 60.676C40.841 61.908 36.0974 61.9082 31.7854 60.6146L34.496 55.9333C35.3584 54.5165 36.8368 53.6534 38.5 53.6534Z" fill="white"/>
</svg>
