<svg width="77" height="77" viewBox="0 0 77 77" fill="none" xmlns="http://www.w3.org/2000/svg">
<path fill-rule="evenodd" clip-rule="evenodd" d="M28.35 1.41432C21.6531 3.16155 15.6717 6.87608 10.1569 12.7142C-0.476041 23.9704 -3.01573 40.8051 3.7492 55.1844C6.69662 61.4501 15.5338 70.2803 21.8044 73.2254C24.4232 74.456 29.2167 75.9159 32.4567 76.4712C57.751 80.8056 80.8049 57.8103 76.4729 32.5679C75.0748 24.424 72.0047 18.37 66.0418 12.0002C56.1487 1.43364 42.7264 -2.33634 28.35 1.41432ZM47.3417 4.53581C73.6104 11.3282 82.4854 44.0761 63.2625 63.283C42.971 83.5592 8.64952 72.4643 3.77947 44.0542C-0.467635 19.2764 22.7813 -1.81469 47.3417 4.53581ZM30.4945 9.40788C21.3059 12.4571 14.8655 18.0491 10.9916 26.3409C8.99083 30.6224 8.63775 32.4553 8.64111 38.5211C8.64447 44.5742 9.00596 46.4424 11.0152 50.7937C13.9803 57.2164 19.7212 62.9268 26.2911 65.9895C30.5719 67.9854 32.4163 68.3415 38.481 68.3415C44.5456 68.3415 46.3901 67.9854 50.6708 65.9895C57.2407 62.9268 62.9817 57.2164 65.9468 50.7937C67.9577 46.439 68.3175 44.5792 68.3175 38.5211C68.3175 32.4629 67.9577 30.6031 65.9468 26.2485C61.1818 15.9272 51.0752 9.09792 39.7882 8.56955C36.3372 8.40827 32.4508 8.75939 30.4945 9.40788ZM46.6944 12.9973C52.9078 15.0024 58.474 19.6317 61.7282 25.5009C63.265 28.2729 64.5269 30.8669 64.5319 31.2642C64.5521 32.6905 58.11 30.8139 51.0911 27.3489C44.8953 24.2896 43.2123 23.8208 38.4347 23.8208C33.5916 23.8208 32.1002 24.2509 26.1238 27.3665C19.8095 30.6594 12.42 32.8316 12.42 31.3961C12.42 31.055 13.6322 28.5039 15.1135 25.726C21.1168 14.4723 34.5222 9.06852 46.6944 12.9973ZM49.8545 30.53C53.9974 32.6426 59.0532 34.5386 61.3567 34.8435L65.4659 35.3886L65.2137 39.2645L64.9623 43.1411L57.1903 43.5729C46.0799 44.1895 44.1539 46.1139 43.5368 57.2156L43.1047 64.9815H38.481H33.8572L33.4251 57.2156C33.0149 49.8327 32.8594 49.3161 30.2684 46.7271C27.6774 44.1382 27.1604 43.9828 19.7717 43.5729L11.9996 43.1411L11.7483 39.2645L11.4961 35.3886L15.6902 34.8326C18.0651 34.5176 23.0949 32.6494 27.2907 30.5241C37.2174 25.495 39.9816 25.4958 49.8545 30.53ZM34.3701 31.2936C27.0822 35.3298 30.1314 46.9212 38.481 46.9212C42.7407 46.9212 46.8877 42.8177 46.8877 38.6025C46.8877 32.2957 39.9126 28.2233 34.3701 31.2936ZM41.8437 35.161C42.7684 36.085 43.525 37.597 43.525 38.5211C43.525 40.6849 40.6466 43.5611 38.481 43.5611C37.5562 43.5611 36.043 42.8051 35.1183 41.8811C34.1935 40.9571 33.4369 39.4451 33.4369 38.5211C33.4369 37.597 34.1935 36.085 35.1183 35.161C36.043 34.237 37.5562 33.481 38.481 33.481C39.4057 33.481 40.9189 34.237 41.8437 35.161ZM28.0103 48.9834C29.8371 50.8079 30.0742 51.7739 30.0742 57.3836C30.0742 60.8696 29.8665 63.7215 29.6118 63.7215C28.682 63.7215 23.6943 60.8956 20.9663 58.8233C18.5157 56.9619 13.2909 49.3102 13.2682 47.5512C13.264 47.2043 16.1147 46.9212 19.6035 46.9212C25.2176 46.9212 26.1844 47.1581 28.0103 48.9834ZM63.7013 47.3832C63.7013 48.3123 60.8733 53.2961 58.7993 56.0219C56.9364 58.4705 49.2786 63.6912 47.5183 63.7139C47.1711 63.7181 46.8877 60.8696 46.8877 57.3836C46.8877 51.7739 47.1248 50.8079 48.9516 48.9834C50.7776 47.1581 51.7443 46.9212 57.3584 46.9212C60.8472 46.9212 63.7013 47.1287 63.7013 47.3832Z" fill="white"/>
</svg>
