<svg width="88" height="88" viewBox="0 0 88 88" fill="none" xmlns="http://www.w3.org/2000/svg">
<path fill-rule="evenodd" clip-rule="evenodd" d="M84.6937 24.1291L78.0157 7.9101C76.0357 3.10556 71.4 0 66.2037 0H43.0824C38.732 0 34.7209 2.18156 32.3562 5.83499L20.3882 24.3293L1.03095 29.8605C0.420623 30.0351 0.000492526 30.5929 0.000492526 31.2259V49.6776C0.000492526 50.4625 0.634947 51.097 1.41985 51.097H8.6004C9.30866 57.4742 14.7264 62.4519 21.2909 62.4519C27.8554 62.4519 33.2731 57.4742 33.9814 51.097H53.9362V48.2583H33.9814C33.2731 41.8811 27.8554 36.9034 21.2909 36.9034C14.7264 36.9034 9.30866 41.8811 8.6004 48.2583H2.83921V39.7421H7.0973C7.8822 39.7421 8.51666 39.1077 8.51666 38.3227V30.6738L21.6798 26.9139C22.0105 26.8202 22.2958 26.6073 22.4817 26.3192L34.7393 7.37642C36.5788 4.53486 39.6986 2.83872 43.0824 2.83872H66.2037C70.2461 2.83872 73.8527 5.25305 75.3913 8.99165L82.4313 26.0893C82.6485 26.6215 83.1679 26.9679 83.7428 26.9679H88.0009V24.1291H84.6937ZM21.2909 39.7421C26.7682 39.7421 31.2264 44.2003 31.2264 49.6776C31.2264 55.1549 26.7682 59.6132 21.2909 59.6132C15.8136 59.6132 11.3554 55.1549 11.3554 49.6776C11.3554 44.2003 15.8136 39.7421 21.2909 39.7421ZM5.67794 36.9034H2.83921V32.2961L5.67794 31.4857V36.9034ZM21.2904 56.7742C25.2036 56.7742 28.3872 53.5906 28.3872 49.6774C28.3872 45.7643 25.2036 42.5806 21.2904 42.5806C17.3772 42.5806 14.1936 45.7643 14.1936 49.6774C14.1936 53.5906 17.3772 56.7742 21.2904 56.7742ZM21.2904 45.4194C23.638 45.4194 25.5485 47.3298 25.5485 49.6774C25.5485 52.0251 23.638 53.9355 21.2904 53.9355C18.9428 53.9355 17.0323 52.0251 17.0323 49.6774C17.0323 47.3298 18.9428 45.4194 21.2904 45.4194ZM67.6566 5.67725C69.3811 5.67725 70.924 6.70629 71.5868 8.29739L77.9555 23.5839C78.1386 24.0211 78.0903 24.5221 77.8263 24.9167C77.5623 25.3113 77.1195 25.5483 76.6454 25.5483H29.8065C29.2828 25.5483 28.8016 25.2588 28.5547 24.7975C28.3077 24.3362 28.3361 23.7769 28.6256 23.3412L39.1374 7.57352C39.9294 6.38551 41.2537 5.67725 42.6801 5.67725H67.6566ZM42.6801 8.51597C42.2046 8.51597 41.7632 8.75159 41.4992 9.14759L32.4579 22.7096H52.5163V8.51597H42.6801ZM55.355 8.51597V22.7096H74.5164L68.9667 9.38888C68.7453 8.85804 68.23 8.51597 67.6566 8.51597H55.355ZM55.3551 28.387H49.6776V31.2257H55.3551V28.387ZM72.3874 28.387H78.0648V31.2257H72.3874V28.387ZM32.6453 78.0647C29.5142 78.0647 26.9678 75.5183 26.9678 72.3872C26.9678 71.6023 26.3334 70.9678 25.5485 70.9678C24.7636 70.9678 24.1291 71.6023 24.1291 72.3872C24.1291 75.5183 21.5828 78.0647 18.4517 78.0647C17.6668 78.0647 17.0323 78.6991 17.0323 79.484C17.0323 80.2689 17.6668 80.9034 18.4517 80.9034C21.5828 80.9034 24.1291 83.4497 24.1291 86.5808C24.1291 87.3657 24.7636 88.0002 25.5485 88.0002C26.3334 88.0002 26.9678 87.3657 26.9678 86.5808C26.9678 83.4497 29.5142 80.9034 32.6453 80.9034C33.4302 80.9034 34.0646 80.2689 34.0646 79.484C34.0646 78.6991 33.4302 78.0647 32.6453 78.0647ZM25.5485 81.8785C24.9183 80.9303 24.1022 80.1156 23.154 79.484C24.1022 78.8538 24.9169 78.0377 25.5485 77.0896C26.1787 78.0377 26.9948 78.8524 27.9429 79.484C26.9948 80.1142 26.1787 80.9303 25.5485 81.8785ZM9.93552 62.4517C9.93552 65.5828 12.4819 68.1291 15.613 68.1291C16.3979 68.1291 17.0323 68.7636 17.0323 69.5485C17.0323 70.3334 16.3979 70.9678 15.613 70.9678C12.4819 70.9678 9.93552 73.5142 9.93552 76.6453C9.93552 77.4302 9.30107 78.0647 8.51616 78.0647C7.73126 78.0647 7.0968 77.4302 7.0968 76.6453C7.0968 73.5142 4.55047 70.9678 1.41936 70.9678C0.634454 70.9678 0 70.3334 0 69.5485C0 68.7636 0.634454 68.1291 1.41936 68.1291C4.55047 68.1291 7.0968 65.5828 7.0968 62.4517C7.0968 61.6668 7.73126 61.0323 8.51616 61.0323C9.30107 61.0323 9.93552 61.6668 9.93552 62.4517ZM6.1217 69.5485C7.06984 70.1787 7.88597 70.9948 8.51616 71.9429C9.14636 70.9948 9.96249 70.1787 10.9106 69.5485C9.96249 68.9183 9.14636 68.1022 8.51616 67.154C7.88597 68.1022 7.06984 68.9183 6.1217 69.5485ZM1.41985 9.93552C4.55096 9.93552 7.0973 12.4819 7.0973 15.613C7.0973 16.3979 7.73175 17.0323 8.51666 17.0323C9.30156 17.0323 9.93602 16.3979 9.93602 15.613C9.93602 12.4819 12.4824 9.93552 15.6135 9.93552C16.3984 9.93552 17.0328 9.30107 17.0328 8.51616C17.0328 7.73126 16.3984 7.0968 15.6135 7.0968C12.4824 7.0968 9.93602 4.55047 9.93602 1.41936C9.93602 0.634454 9.30156 0 8.51666 0C7.73175 0 7.0973 0.634454 7.0973 1.41936C7.0973 4.55047 4.55096 7.0968 1.41985 7.0968C0.634947 7.0968 0.000492526 7.73126 0.000492526 8.51616C0.000492526 9.30107 0.634947 9.93552 1.41985 9.93552ZM8.51666 6.1217C9.14685 7.06984 9.96299 7.88597 10.9111 8.51616C9.96299 9.14636 9.14685 9.96249 8.51666 10.9106C7.88646 9.96249 7.07033 9.14636 6.1222 8.51616C7.07033 7.88597 7.88646 7.06984 8.51666 6.1217ZM57.9474 66.8446C57.3584 66.51 56.6872 66.3042 55.9634 66.3042C55.4027 66.3042 54.9495 65.8511 54.9495 65.2904C54.9495 64.7298 55.4027 64.2766 55.9634 64.2766C58.1999 64.2766 60.0187 62.4578 60.0187 60.2213C60.0187 59.6606 60.4719 59.2074 61.0325 59.2074C61.5932 59.2074 62.0463 59.6606 62.0463 60.2213C62.0463 61.2797 62.463 62.2357 63.1291 62.9586L66.1017 60.7282V50.083C66.1017 49.5233 66.5548 49.0691 67.1155 49.0691H68.1293V46.3653L66.3267 43.9615L62.973 51.5074L61.1197 50.6842L64.5414 42.9862H61.0325C60.4719 42.9862 60.0187 42.532 60.0187 41.9723V37.917C60.0187 37.3574 60.4719 36.9032 61.0325 36.9032H73.1985C73.5371 36.9032 73.8534 37.0725 74.042 37.3543L78.0973 43.4373C78.3041 43.7486 78.3244 44.148 78.148 44.4775C77.9716 44.807 77.6279 45.0138 77.2538 45.0138H74.2123V49.0691H75.2261C75.7868 49.0691 76.2399 49.5233 76.2399 50.083V60.9279L82.1526 69.7969C82.2631 69.9632 82.3229 70.1598 82.3229 70.3596V84.5532C82.3229 85.1138 81.8697 85.567 81.3091 85.567H54.9495C54.3889 85.567 53.9357 85.1138 53.9357 84.5532V70.3596C53.9357 70.0412 54.0858 69.7401 54.3412 69.5485L57.9474 66.8446ZM61.0325 63.5801C60.5824 64.2573 59.9994 64.8393 59.3222 65.2904C59.9994 65.7405 60.5814 66.3235 61.0325 67.0007C61.4827 66.3235 62.0656 65.7416 62.7428 65.2904C62.0656 64.8403 61.4827 64.2573 61.0325 63.5801ZM73.1985 42.9862H75.3599L72.6561 38.9309H62.0463V40.9585H66.1017C66.42 40.9585 66.7211 41.1086 66.9127 41.364L69.9542 45.4194C70.086 45.5947 70.157 45.8087 70.157 46.0277V49.0691H72.1846V44C72.1846 43.4404 72.6378 42.9862 73.1985 42.9862ZM68.1293 51.0968V53.1245H74.2123V51.0968H68.1293ZM80.2953 83.5393V70.6667L74.3826 61.7978C74.2721 61.6315 74.2123 61.4348 74.2123 61.2351V55.1521H68.1293V61.2351C68.1293 61.5534 67.9793 61.8545 67.7238 62.0462L64.9854 64.1012C65.3423 64.2036 65.7113 64.2766 66.1017 64.2766C66.6623 64.2766 67.1155 64.7298 67.1155 65.2904C67.1155 65.8511 66.6623 66.3042 66.1017 66.3042C63.8652 66.3042 62.0463 68.123 62.0463 70.3596C62.0463 70.9202 61.5932 71.3734 61.0325 71.3734C60.4719 71.3734 60.0187 70.9202 60.0187 70.3596C60.0187 69.5931 59.7926 68.8834 59.4226 68.2721L55.9634 70.8665V83.5393H80.2953ZM67.1157 74.4148C69.3522 74.4148 71.171 72.596 71.171 70.3595C71.171 69.7988 71.6242 69.3456 72.1848 69.3456C72.7455 69.3456 73.1987 69.7988 73.1987 70.3595C73.1987 72.596 75.0175 74.4148 77.254 74.4148C77.8146 74.4148 78.2678 74.868 78.2678 75.4286C78.2678 75.9893 77.8146 76.4425 77.254 76.4425C75.0175 76.4425 73.1987 78.2613 73.1987 80.4978C73.1987 81.0584 72.7455 81.5116 72.1848 81.5116C71.6242 81.5116 71.171 81.0584 71.171 80.4978C71.171 78.2613 69.3522 76.4425 67.1157 76.4425C66.555 76.4425 66.1019 75.9893 66.1019 75.4286C66.1019 74.868 66.555 74.4148 67.1157 74.4148ZM72.1848 77.139C72.635 76.4617 73.2179 75.8788 73.8952 75.4286C73.2179 74.9785 72.636 74.3955 72.1848 73.7183C71.7347 74.3955 71.1517 74.9775 70.4745 75.4286C71.1517 75.8788 71.7347 76.4617 72.1848 77.139Z" fill="white"/>
</svg>
