<svg width="107" height="73" viewBox="0 0 107 73" fill="none" xmlns="http://www.w3.org/2000/svg">
<path fill-rule="evenodd" clip-rule="evenodd" d="M107 26.3501V19.4868C107 18.5397 106.231 17.771 105.284 17.771H94.9892C94.3389 17.771 93.7452 18.1382 93.4536 18.7199L92.2559 21.1134L83.9994 6.6645C81.8683 2.93258 77.8705 0.612793 73.5723 0.612793H34.0467C29.7485 0.612793 25.7524 2.93258 23.6179 6.6645L15.3614 21.1134L14.1637 18.7199C13.8737 18.1382 13.2801 17.771 12.6298 17.771H2.33484C1.38771 17.771 0.619019 18.5397 0.619019 19.4868V26.3501C0.619019 27.2973 1.38771 28.0659 2.33484 28.0659H9.70773L1.21784 35.3427C0.836928 35.6688 0.619019 36.144 0.619019 36.6451V50.3716C0.619019 53.6351 1.93162 56.5949 4.05066 58.762V67.5298C4.05066 70.3678 6.36016 72.6773 9.19813 72.6773H22.9247C25.7627 72.6773 28.0722 70.3678 28.0722 67.5298V62.3824L30.5038 62.3824V69.2457V70.2457H31.5038H76.1152H77.1152V69.2457V62.3824H79.5468V67.5298C79.5468 70.3678 81.8563 72.6773 84.6943 72.6773H98.4209C101.259 72.6773 103.568 70.3678 103.568 67.5298V58.762C105.687 56.5949 107 53.6351 107 50.3716V36.6451C107 36.144 106.782 35.6688 106.401 35.3427L97.9113 28.0659H105.284C106.231 28.0659 107 27.2973 107 26.3501ZM26.5983 8.36659C28.1219 5.7002 30.9753 4.04444 34.0467 4.04444H73.5723C76.6437 4.04444 79.4971 5.7002 81.0207 8.36659L90.317 24.6343H87.3813L79.5846 11.6404C78.0455 9.07179 75.2247 7.47608 72.2288 7.47608H35.3901C32.3943 7.47608 29.5752 9.07179 28.0344 11.6404L20.2377 24.6343H17.302L26.5983 8.36659ZM83.38 24.6343H24.239L30.9753 13.4077C31.9002 11.8652 33.592 10.9077 35.3901 10.9077H72.2306C74.0287 10.9077 75.7188 11.8652 76.6436 13.4077L83.38 24.6343ZM4.05066 21.2027H11.5694L13.2852 24.6343H4.05066V21.2027ZM17.3208 38.3609L26.5262 43.6199L24.1206 45.2242H4.05066V38.3609H17.3208ZM24.6405 67.5298C24.6405 68.4753 23.8701 69.2457 22.9247 69.2457H9.19813C8.25271 69.2457 7.48231 68.4753 7.48231 67.5298V61.207C9.04542 61.9534 10.7853 62.3824 12.6298 62.3824H24.6405V67.5298ZM37.3616 38.3609H70.2574L73.689 58.9507H33.93L37.3616 38.3609ZM84.6943 69.2457C83.7489 69.2457 82.9785 68.4753 82.9785 67.5298V62.3824H94.9892C96.8337 62.3824 98.5736 61.9534 100.137 61.207V67.5298C100.137 68.4753 99.3663 69.2457 98.4209 69.2457H84.6943ZM103.568 45.2242H83.4984L81.0928 43.6199L90.2982 38.3609H103.568V45.2242ZM100.646 34.9292H89.8418C89.5432 34.9292 89.2498 35.0064 88.9907 35.1557L76.9799 42.019C76.4635 42.3141 76.1375 42.8546 76.1169 43.45C76.0963 44.0437 76.3846 44.6065 76.8804 44.9359L82.0279 48.3675C82.3076 48.5546 82.6404 48.6558 82.9785 48.6558H103.568V50.3716C103.568 55.1021 99.7197 58.9507 94.9892 58.9507H78.5414L72.1808 35.432C71.8599 35.1094 71.4224 34.9292 70.9677 34.9292H36.6513C36.1966 34.9292 35.759 35.1094 35.4382 35.432L29.0776 58.9507H12.6298C7.89925 58.9507 4.05066 55.1021 4.05066 50.3716V48.6558H24.6405C24.9785 48.6558 25.3114 48.5546 25.5928 48.3675L30.7403 44.9359C31.2361 44.6065 31.5244 44.0437 31.5038 43.45C31.4832 42.8546 31.1555 42.3141 30.6408 42.019L18.63 35.1557C18.3692 35.0064 18.0758 34.9292 17.7772 34.9292H6.97271L14.9804 28.0659H16.0614H91.5576H92.6385L100.646 34.9292ZM103.568 24.6343H94.3338L96.0496 21.2027H103.568V24.6343ZM10.9139 52.0876H14.3456V55.5192H10.9139V52.0876ZM96.705 52.0876V55.5192H93.2734V52.0876H96.705ZM40.0829 45.2242H67.5361V44.2242H40.0829V45.2242ZM67.5361 50.3716H40.0829V49.3716H67.5361V50.3716ZM40.0829 55.5191H67.5361V54.5191H40.0829V55.5191ZM32.5038 62.5245V68.2457H40.7987V62.5245H32.5038ZM41.7987 62.5245V68.2457H54.5253V62.5245H41.7987ZM68.2519 68.2457H55.5253V62.5245H68.2519V68.2457ZM69.2519 68.2457H75.1152V62.5245H69.2519V68.2457Z" fill="white"/>
</svg>
