<svg width="98" height="98" viewBox="0 0 98 98" fill="none" xmlns="http://www.w3.org/2000/svg">
<path d="M96.2803 33.0582L74.8496 26.9349L61.6005 6.45797C58.9843 2.41506 54.5455 0 49.7279 0H24.1302C18.3777 0 13.2459 3.43796 11.054 8.75675L3.66109 26.7118H0V29.8543H4.71384C5.35021 29.8543 5.9253 29.4694 6.16728 28.8817L13.9608 9.95407C15.6641 5.81688 19.6567 3.14256 24.1302 3.14256H49.7279C53.4754 3.14256 56.9275 5.02024 58.9623 8.16595L72.5319 29.1363C72.7377 29.4552 73.0536 29.6894 73.4181 29.7931L87.9917 33.9585V42.4246C87.9917 43.2919 88.6957 43.9959 89.563 43.9959H94.2769V53.4236H87.899C87.1134 46.3638 81.1158 40.8533 73.8502 40.8533C66.5846 40.8533 60.587 46.3638 59.8014 53.4236H53.4236C53.4236 49.0915 49.8992 45.5672 45.5672 45.5672H7.85641C3.52438 45.5672 0 49.0915 0 53.4236V95.8482C0 96.7155 0.703934 97.4194 1.57128 97.4194H9.42769H12.5702H28.2831H31.4256H45.5672C46.4345 97.4194 47.1384 96.7155 47.1384 95.8482V62.8512H51.8523C52.7196 62.8512 53.4236 62.1473 53.4236 61.28V56.5661H59.8014C60.587 63.6259 66.5846 69.1364 73.8502 69.1364C81.1158 69.1364 87.1134 63.6259 87.899 56.5661H95.8482C96.7155 56.5661 97.4194 55.8622 97.4194 54.9948V34.5682C97.4194 33.8674 96.9543 33.2499 96.2803 33.0582ZM3.14256 94.2769V53.4236C3.14256 50.8247 5.25751 48.7097 7.85641 48.7097C10.4553 48.7097 12.5702 50.8247 12.5702 53.4236V61.28V64.7116C12.0769 64.5357 11.5521 64.4225 10.999 64.4225C8.40007 64.4225 6.28512 66.5375 6.28512 69.1364V86.4205C6.28512 86.8369 6.45011 87.2375 6.74551 87.5314L9.42769 90.2135V94.2769H3.14256ZM12.5702 94.2769V89.563C12.5702 89.1466 12.4053 88.746 12.1099 88.4521L9.42769 85.77V69.1364C9.42769 68.2706 10.1332 67.5651 10.999 67.5651C11.8647 67.5651 12.5702 68.2706 12.5702 69.1364V73.8502H15.7128V69.1364V62.8512H18.8554V73.8502H21.9979V62.8512H25.1405V73.8502H28.2831V62.8512H31.4256V78.5641V83.2779H34.5682V78.5641C34.5682 77.6983 35.2737 76.9928 36.1395 76.9928C37.0052 76.9928 37.7107 77.6983 37.7107 78.5641V84.0086L28.9823 89.827C28.5455 90.1193 28.2831 90.6095 28.2831 91.1343V94.2769H12.5702ZM43.9959 94.2769H31.4256V91.9749L40.1541 86.1565C40.5909 85.8642 40.8533 85.374 40.8533 84.8492V78.5641C40.8533 75.9652 38.7384 73.8502 36.1395 73.8502C35.5864 73.8502 35.0616 73.9633 34.5682 74.1393V62.8512H43.9959V94.2769ZM50.281 59.7087H15.7128V53.4236C15.7128 51.6559 15.1252 50.0233 14.1384 48.7097H45.5672C48.1661 48.7097 50.281 50.8247 50.281 53.4236V59.7087ZM73.8502 65.9938C67.7851 65.9938 62.8512 61.06 62.8512 54.9948C62.8512 48.9297 67.7851 43.9959 73.8502 43.9959C79.9154 43.9959 84.8492 48.9297 84.8492 54.9948C84.8492 61.06 79.9154 65.9938 73.8502 65.9938ZM91.1343 40.8533V34.8557L94.2769 35.7529V40.8533H91.1343Z" fill="white"/>
<path d="M73.8502 47.1387C69.5182 47.1387 65.9938 50.6631 65.9938 54.9951C65.9938 59.3271 69.5182 62.8515 73.8502 62.8515C78.1822 62.8515 81.7066 59.3271 81.7066 54.9951C81.7066 50.6631 78.1822 47.1387 73.8502 47.1387ZM73.8502 59.7089C71.2513 59.7089 69.1363 57.594 69.1363 54.9951C69.1363 52.3962 71.2513 50.2812 73.8502 50.2812C76.4491 50.2812 78.564 52.3962 78.564 54.9951C78.564 57.594 76.4491 59.7089 73.8502 59.7089Z" fill="white"/>
<path d="M65.7941 29.0499C66.0722 28.5534 66.0581 27.9453 65.7611 27.4597L55.0308 10.0248C53.612 7.71816 51.0476 6.28516 48.3403 6.28516H24.7428C21.5154 6.28516 18.5693 8.30897 17.4096 11.3211L11.1025 27.719C10.9171 28.203 10.9815 28.7451 11.2738 29.1724C11.5676 29.5998 12.0516 29.8544 12.5701 29.8544H64.4224C64.9912 29.8544 65.516 29.5464 65.7941 29.0499ZM20.3432 12.4493C21.0393 10.6423 22.807 9.42772 24.7428 9.42772H36.1393V26.7118H14.8579L20.3432 12.4493ZM39.2819 26.7118V9.42772H48.3403C49.965 9.42772 51.5033 10.2872 52.3549 11.6715L61.6098 26.7118H39.2819Z" fill="white"/>
<path d="M42.4247 32.9971H36.1395V36.1396H42.4247V32.9971Z" fill="white"/>
<path d="M17.2841 32.9971H10.999V36.1396H17.2841V32.9971Z" fill="white"/>
<path d="M76.9928 86.4204C73.5266 86.4204 70.7077 83.6015 70.7077 80.1352C70.7077 79.2679 70.0038 78.564 69.1364 78.564C68.2691 78.564 67.5651 79.2679 67.5651 80.1352C67.5651 83.6015 64.7463 86.4204 61.28 86.4204C60.4127 86.4204 59.7087 87.1243 59.7087 87.9917C59.7087 88.859 60.4127 89.5629 61.28 89.5629C64.7463 89.5629 67.5651 92.3818 67.5651 95.8481C67.5651 96.7154 68.2691 97.4193 69.1364 97.4193C70.0038 97.4193 70.7077 96.7154 70.7077 95.8481C70.7077 92.3818 73.5266 89.5629 76.9928 89.5629C77.8602 89.5629 78.5641 88.859 78.5641 87.9917C78.5641 87.1243 77.8602 86.4204 76.9928 86.4204ZM69.1364 90.6424C68.4388 89.5928 67.5353 88.6909 66.4857 87.9917C67.5353 87.294 68.4372 86.3905 69.1364 85.3409C69.8341 86.3905 70.7376 87.2924 71.7872 87.9917C70.7376 88.6893 69.8341 89.5928 69.1364 90.6424Z" fill="white"/>
<path d="M95.8482 75.4213C92.3819 75.4213 89.5631 72.6025 89.5631 69.1362C89.5631 68.2689 88.8591 67.5649 87.9918 67.5649C87.1244 67.5649 86.4205 68.2689 86.4205 69.1362C86.4205 72.6025 83.6016 75.4213 80.1354 75.4213C79.268 75.4213 78.5641 76.1253 78.5641 76.9926C78.5641 77.86 79.268 78.5639 80.1354 78.5639C83.6016 78.5639 86.4205 81.3828 86.4205 84.849C86.4205 85.7164 87.1244 86.4203 87.9918 86.4203C88.8591 86.4203 89.5631 85.7164 89.5631 84.849C89.5631 81.3828 92.3819 78.5639 95.8482 78.5639C96.7155 78.5639 97.4195 77.86 97.4195 76.9926C97.4195 76.1253 96.7155 75.4213 95.8482 75.4213ZM87.9918 79.6434C87.2941 78.5938 86.3906 77.6918 85.341 76.9926C86.3906 76.295 87.2926 75.3915 87.9918 74.3419C88.6894 75.3915 89.5929 76.2934 90.6425 76.9926C89.5929 77.6903 88.6894 78.5938 87.9918 79.6434Z" fill="white"/>
<path d="M80.1354 10.999C83.6016 10.999 86.4205 13.8178 86.4205 17.2841C86.4205 18.1514 87.1244 18.8554 87.9918 18.8554C88.8591 18.8554 89.5631 18.1514 89.5631 17.2841C89.5631 13.8178 92.3819 10.999 95.8482 10.999C96.7155 10.999 97.4195 10.295 97.4195 9.42769C97.4195 8.56034 96.7155 7.85641 95.8482 7.85641C92.3819 7.85641 89.5631 5.03753 89.5631 1.57128C89.5631 0.703934 88.8591 0 87.9918 0C87.1244 0 86.4205 0.703934 86.4205 1.57128C86.4205 5.03753 83.6016 7.85641 80.1354 7.85641C79.268 7.85641 78.5641 8.56034 78.5641 9.42769C78.5641 10.295 79.268 10.999 80.1354 10.999ZM87.9918 6.77694C88.6894 7.82655 89.5929 8.73004 90.6425 9.42769C89.5929 10.1253 88.6894 11.0288 87.9918 12.0784C87.2941 11.0288 86.3906 10.1253 85.341 9.42769C86.3906 8.73004 87.2941 7.82655 87.9918 6.77694Z" fill="white"/>
</svg>
