<svg width="47" height="99" viewBox="0 0 47 99" fill="none" xmlns="http://www.w3.org/2000/svg">
<path fill-rule="evenodd" clip-rule="evenodd" d="M31.012 65.4296V12.1137C31.012 5.43435 25.5777 0 18.8984 0C12.219 0 6.78469 5.43435 6.78469 12.1137V65.4296C1.4689 69.8759 -0.981496 76.7726 0.362271 83.689C1.80485 91.0798 7.73323 97.0082 15.124 98.4507C16.3887 98.6879 17.6336 98.8064 18.8786 98.8064C23.2656 98.8064 27.5143 97.3046 30.933 94.4985C35.3002 90.8822 37.8099 85.5664 37.8099 79.9146C37.8099 74.2629 35.3397 69.0262 31.012 65.4296ZM28.4233 91.4552C24.9651 94.3009 20.4002 95.447 15.9144 94.5775C10.0848 93.4511 5.42116 88.7677 4.275 82.9381C3.14861 77.1876 5.34212 71.4568 9.98602 67.9788C10.4801 67.6034 10.7765 67.0105 10.7765 66.3979V12.1137C10.7765 7.62786 14.4323 3.95226 18.9379 3.95226C23.4435 3.95226 27.0993 7.6081 27.0993 12.1137V66.3782C27.0993 66.9908 27.3957 67.5836 27.8897 67.9591C31.7037 70.8244 33.8972 75.1719 33.8972 79.9146C33.8577 84.4005 31.8815 88.5898 28.4233 91.4552ZM20.8942 70.3501V22.7254C20.8942 21.6385 20.005 20.7493 18.9181 20.7493C17.8312 20.7493 16.942 21.6385 16.942 22.7254V70.3501C12.5154 71.2591 9.15603 75.2114 9.15603 79.9145C9.15603 85.2896 13.5233 89.6766 18.9181 89.6766C24.3129 89.6766 28.6802 85.3094 28.6802 79.9145C28.6802 75.2114 25.3208 71.2789 20.8942 70.3501ZM18.9181 85.7244C15.7168 85.7244 13.1083 83.1159 13.1083 79.9145C13.1083 76.7132 15.7168 74.1047 18.9181 74.1047C22.1194 74.1047 24.7279 76.7132 24.7279 79.9145C24.7279 83.1159 22.1194 85.7244 18.9181 85.7244ZM41.6437 15.8089H35.8338C34.747 15.8089 33.8577 14.9197 33.8577 13.8328C33.8577 12.7459 34.747 11.8567 35.8338 11.8567H41.6437C42.7305 11.8567 43.6198 12.7459 43.6198 13.8328C43.6198 14.9197 42.7305 15.8089 41.6437 15.8089ZM44.845 21.362H35.8338C34.747 21.362 33.8577 22.2512 33.8577 23.3381C33.8577 24.425 34.747 25.3142 35.8338 25.3142H44.845C45.9319 25.3142 46.8211 24.425 46.8211 23.3381C46.8211 22.2512 45.9516 21.362 44.845 21.362ZM41.6437 34.8389H35.8338C34.747 34.8389 33.8577 33.9497 33.8577 32.8628C33.8577 31.7759 34.747 30.8867 35.8338 30.8867H41.6437C42.7305 30.8867 43.6198 31.7759 43.6198 32.8628C43.6198 33.9497 42.7305 34.8389 41.6437 34.8389ZM44.845 40.392H35.8338C34.747 40.392 33.8577 41.2812 33.8577 42.3681C33.8577 43.455 34.747 44.3442 35.8338 44.3442H44.845C45.9319 44.3442 46.8211 43.455 46.8211 42.3681C46.8211 41.2812 45.9516 40.392 44.845 40.392ZM35.8338 49.8973H41.6437C42.7305 49.8973 43.6198 50.7865 43.6198 51.8734C43.6198 52.9603 42.7305 53.8495 41.6437 53.8495H35.8338C34.747 53.8495 33.8577 52.9603 33.8577 51.8734C33.8577 50.7865 34.747 49.8973 35.8338 49.8973Z" fill="white"/>
</svg>
