<svg width="106" height="61" viewBox="0 0 106 61" fill="none" xmlns="http://www.w3.org/2000/svg">
<path d="M53 0C33.949 0 15.9935 6.01709 0.820125 17.3815C0.0614563 17.9664 -0.190445 18.9691 0.146741 19.8883L17.3419 59.7466C17.6791 60.4986 18.4384 61 19.2814 61H86.7186C87.5616 61 88.3209 60.4986 88.6581 59.7466L105.853 19.8883C106.19 18.9691 105.939 17.9664 105.18 17.3815C90.0065 6.01709 72.051 0 53 0ZM53 4.17808C70.5337 4.17808 87.225 9.5257 101.303 19.7202L85.3702 56.8219H20.6298L4.69744 19.7202C18.775 9.5257 35.4663 4.17808 53 4.17808ZM53 12.5342C40.4398 12.5342 28.5537 15.5418 17.6794 21.4747C16.7522 21.9761 16.3313 23.0624 16.6685 23.9815L24.8446 47.1291C25.1818 47.9647 25.9408 48.549 26.8681 48.549C27.121 48.549 27.3745 48.5493 27.5431 48.4658C28.639 48.0479 29.229 46.8787 28.8076 45.7924L21.2209 24.3993C30.9993 19.3856 41.7046 16.8788 52.916 16.8788C64.7175 16.8788 75.929 19.7199 86.2132 25.235C87.2247 25.8199 88.4895 25.4021 89.0796 24.3993C89.6696 23.3966 89.2482 22.1445 88.2366 21.5596C77.4466 15.5431 65.5602 12.5342 53 12.5342Z" fill="white"/>
</svg>
