<svg width="77" height="77" viewBox="0 0 77 77" fill="none" xmlns="http://www.w3.org/2000/svg">
<path d="M27.205 0C12.1866 0 0 17.248 0 38.5C0 59.752 12.1866 77 27.205 77H49.795C64.8134 77 77 59.752 77 38.5C77 17.248 64.7521 0 49.7337 0H27.205ZM27.205 3.08C40.5 3.08 51.2724 18.9728 51.2724 38.5C51.2724 58.0272 40.4387 73.92 27.1437 73.92C13.8487 73.92 3.07755 58.0272 3.07755 38.5C3.07755 18.9728 13.91 3.08 27.205 3.08ZM37.8538 3.08H49.795C63.09 3.08 73.9225 18.9728 73.9225 38.5C73.9225 58.0272 63.0287 73.92 49.7337 73.92H37.8538C47.5173 68.068 54.35 54.3928 54.35 38.5C54.35 22.6072 47.5173 8.932 37.8538 3.08ZM27.205 6.16C14.7102 6.16 4.86277 20.3896 4.86277 38.5C4.86277 39.3624 5.53983 40.04 6.40154 40.04C7.26325 40.04 7.94031 39.3624 7.94031 38.5C7.94031 22.1144 16.4336 9.24 27.205 9.24C28.0668 9.24 28.7438 8.5624 28.7438 7.7C28.7438 6.8376 28.0668 6.16 27.205 6.16ZM27.205 15.4C18.0955 15.4 10.7101 25.7488 10.7101 38.5C10.7101 51.2512 18.0955 61.6 27.205 61.6C36.3146 61.6 43.7012 51.2512 43.7012 38.5C43.7012 25.7488 36.3146 15.4 27.205 15.4ZM27.205 18.48C34.5912 18.48 40.6236 27.4736 40.6236 38.5C40.6236 49.5264 34.5912 58.52 27.205 58.52C19.8189 58.52 13.7877 49.5264 13.7877 38.5C13.7877 27.4736 19.8189 18.48 27.205 18.48ZM27.1437 21.56C20.7424 21.56 15.8181 29.0136 15.8181 38.5C15.8181 47.9864 20.8037 55.44 27.205 55.44C33.6063 55.44 38.5307 47.9864 38.5307 38.5C38.5307 29.0136 33.545 21.56 27.1437 21.56ZM27.205 24.64C31.6983 24.64 35.4531 30.9848 35.4531 38.5C35.4531 46.0152 31.6983 52.36 27.205 52.36C22.7118 52.36 18.8957 46.0152 18.8957 38.5C18.8957 30.9848 22.7118 24.64 27.205 24.64ZM24.3739 32.34C23.266 32.34 22.4048 33.264 22.4048 34.496C22.4048 35.728 23.266 36.652 24.3739 36.652C25.4819 36.652 26.3443 35.728 26.3443 34.496C26.3443 33.264 25.4819 32.34 24.3739 32.34ZM29.9748 32.34C28.8669 32.34 28.0057 33.264 28.0057 34.496C28.0057 35.6664 28.8669 36.652 29.9748 36.652C31.0827 36.652 31.9452 35.728 31.9452 34.496C31.9452 33.264 31.0827 32.34 29.9748 32.34ZM24.3739 40.348C23.266 40.348 22.4048 41.272 22.4048 42.504C22.4048 43.736 23.266 44.66 24.3739 44.66C25.4819 44.66 26.3443 43.736 26.3443 42.504C26.3443 41.3336 25.4819 40.348 24.3739 40.348ZM29.9748 40.348C28.8669 40.348 28.0057 41.272 28.0057 42.504C28.0057 43.736 28.8669 44.66 29.9748 44.66C31.0827 44.66 31.9452 43.736 31.9452 42.504C31.9452 41.272 31.0827 40.348 29.9748 40.348ZM34.5419 65.7652C34.2487 65.7461 33.9449 65.8117 33.6679 65.9734C31.5752 67.1438 29.4209 67.76 27.205 67.76C26.3433 67.76 25.6663 68.4376 25.6663 69.3C25.6663 70.1624 26.3433 70.84 27.205 70.84C29.9748 70.84 32.6215 70.101 35.2067 68.6226C35.9453 68.1914 36.1917 67.2672 35.7609 66.528C35.4916 66.066 35.0305 65.7971 34.5419 65.7652Z" fill="white"/>
</svg>
