<svg width="78" height="78" viewBox="0 0 78 78" fill="none" xmlns="http://www.w3.org/2000/svg">
<path d="M72.2041 29.7205L52.8463 22.6816C51.0724 22.0363 49.6935 20.6448 49.0645 18.8634L44.4801 5.87516C43.2397 2.36139 39.9033 0 36.1756 0H13.8387C8.98384 0 5.03226 3.95032 5.03226 8.80645V34.2659C2.12613 35.1365 0 37.8338 0 41.0192C0 42.4144 0.408871 43.7681 1.18384 44.9305L2.10223 46.3094C4.01952 49.184 5.03226 52.5292 5.03226 55.9839C5.03226 59.4385 4.01952 62.7837 2.10348 65.6571L1.1851 67.036C0.408871 68.1997 0 69.5521 0 70.9485C0 74.836 3.16403 78 7.05145 78C8.44664 78 9.80032 77.5911 10.9628 76.8162L11.3226 76.5759V78H13.8387V71.7097C13.8387 71.375 13.7066 71.0555 13.4701 70.8202L11.3226 68.6727V55.3548C11.3226 54.6604 11.8862 54.0968 12.5806 54.0968C13.2751 54.0968 13.8387 54.6604 13.8387 55.3548V59.129H16.3548V55.3548V50.3226C16.3548 49.6281 16.9185 49.0645 17.6129 49.0645C18.3074 49.0645 18.871 49.6281 18.871 50.3226V59.129H21.3871V50.3226V47.8064C21.3871 47.112 21.9507 46.5484 22.6452 46.5484C23.3396 46.5484 23.9032 47.112 23.9032 47.8064V50.3226V59.129H26.4194V50.3226C26.4194 49.6281 26.983 49.0645 27.6774 49.0645C28.3719 49.0645 28.9355 49.6281 28.9355 50.3226V62.9032V66.6774H31.4516V62.9032C31.4516 62.2088 32.0152 61.6452 32.7097 61.6452C33.4041 61.6452 33.9677 62.2088 33.9677 62.9032V67.2624L26.9792 71.921C26.6295 72.155 26.4194 72.5475 26.4194 72.9677V78H28.9355V74.0233C30.5357 74.5693 32.0605 75.3052 33.4708 76.245L34.3263 76.8149C35.49 77.5899 36.8424 77.9987 38.2376 77.9987C42.1263 78 45.2903 74.836 45.2903 70.9485C45.2903 69.5534 44.8815 68.1997 44.1065 67.0372L43.1881 65.6584C43.1365 65.5804 43.0925 65.4986 43.0409 65.4206H69.1936C74.0484 65.4206 78 61.469 78 56.6142V37.9973C78 34.3074 75.6701 30.9811 72.2041 29.7205ZM38.2389 75.4839C37.3406 75.4839 36.4713 75.2197 35.7227 74.7227L34.8673 74.1528C33.6897 73.3678 32.4379 72.7161 31.1396 72.1726L35.924 68.9822C36.2738 68.7482 36.4839 68.3557 36.4839 67.9355V62.9032C36.4839 60.8224 34.7905 59.129 32.7097 59.129C32.2668 59.129 31.8466 59.2196 31.4516 59.3605V50.3226C31.4516 48.2417 29.7583 46.5484 27.6774 46.5484C27.1805 46.5484 26.7087 46.6503 26.2734 46.8252C25.8394 45.2211 24.3851 44.0323 22.6452 44.0323C20.9053 44.0323 19.4522 45.2211 19.0169 46.8252C18.5816 46.6503 18.1098 46.5484 17.6129 46.5484C15.5321 46.5484 13.8387 48.2417 13.8387 50.3226V51.8121C13.4437 51.6712 13.0235 51.5806 12.5806 51.5806C10.4998 51.5806 8.80645 53.274 8.80645 55.3548V69.1936C8.80645 69.5282 8.93855 69.8477 9.17507 70.083L11.3226 72.2305V73.6043C11.0219 73.7842 10.7162 73.9566 10.4231 74.1516L9.56758 74.7215C8.82029 75.2197 7.94971 75.4839 7.05145 75.4839C4.55042 75.4839 2.51613 73.4496 2.51613 70.9485C2.51613 70.0503 2.78032 69.181 3.27726 68.4324L4.19565 67.0536C6.38971 63.7663 7.54839 59.938 7.54839 55.9839C7.54839 52.0298 6.38971 48.2015 4.1969 44.9142L3.27852 43.5353C2.78032 42.788 2.51613 41.9174 2.51613 41.0192C2.51613 38.5182 4.55042 36.4839 7.05145 36.4839C7.94971 36.4839 8.81903 36.7468 9.56758 37.245L10.4231 37.8149C14.0551 40.2367 18.2809 41.5161 22.6452 41.5161C27.0094 41.5161 31.2352 40.2367 34.8673 37.8162L35.7227 37.2463C36.4713 36.7481 37.3406 36.4851 38.2389 36.4851C40.7399 36.4839 42.7742 38.5182 42.7742 41.0192C42.7742 41.9174 42.51 42.7868 42.0131 43.5353L41.0947 44.9142C38.9006 48.2015 37.7419 52.0298 37.7419 55.9839C37.7419 59.938 38.9006 63.7663 41.0934 67.0536L42.0118 68.4324C42.51 69.181 42.7729 70.0503 42.7729 70.9485C42.7742 73.4496 40.7399 75.4839 38.2389 75.4839ZM17.6129 21.3871V7.54839H22.6452V15.0968H25.1613V7.54839H30.1935V26.4194H32.7097V7.54839H35.0723C36.1366 7.54839 37.0903 8.22271 37.4438 9.22664L37.7419 10.0733V34.0042C36.5229 34.0898 35.3491 34.4697 34.3263 35.1516L33.4708 35.7215C33.2217 35.8875 32.9638 36.036 32.7097 36.1895V31.4516H30.1935V37.4702C28.5857 38.1458 26.8962 38.605 25.1613 38.8289V20.129H22.6452V39C20.9304 39 19.2434 38.7647 17.6129 38.3294V26.4194H15.0968V37.4702C14.2312 37.1066 13.3921 36.6801 12.5806 36.1907V10.0645C12.5806 8.67687 13.7091 7.54839 15.0968 7.54839V21.3871H17.6129ZM47.8064 33.9677V29.8425L52.8387 31.5195V37.7419H55.3548V32.3587L60.3871 34.0357V46.5484H62.9032V34.8748L68.7306 36.8173C69.7597 37.1607 70.4516 38.1194 70.4516 39.2038V55.3548C70.4516 56.7425 69.3231 57.871 67.9355 57.871H62.9032V51.5806H60.3871V57.871H55.3548V42.7742H52.8387V57.871H47.8064V47.8064H45.2903V57.871H40.3713C40.3034 57.247 40.2581 56.6179 40.2581 55.9839C40.2581 52.5292 41.2708 49.184 43.1868 46.3106L44.1052 44.9318C44.8802 43.7681 45.2891 42.4156 45.2891 41.0205C45.2891 37.8338 43.1629 35.1377 40.2568 34.2672V17.2015L43.4875 26.3552C43.8272 27.3176 44.4764 28.1278 45.2891 28.7229V33.9677H47.8064ZM75.4839 56.6129C75.4839 60.0814 72.662 62.9032 69.1936 62.9032H41.6998C41.3463 62.0867 41.0569 61.2464 40.833 60.3871H67.9355C70.7108 60.3871 72.9677 58.1301 72.9677 55.3548V39.2038C72.9677 37.0336 71.5839 35.1151 69.5269 34.4307L47.4391 27.0673C46.7082 26.8245 46.1181 26.2445 45.8627 25.5173L39.8165 8.39003C39.1082 6.38216 37.201 5.03226 35.0723 5.03226H15.0968C12.3215 5.03226 10.0645 7.28923 10.0645 10.0645V34.6433C9.27571 34.2697 8.42274 34.0659 7.54839 34.0042V8.80645C7.54839 5.33797 10.3702 2.51613 13.8387 2.51613H36.1756C38.8377 2.51613 41.2217 4.20194 42.1074 6.71303L46.6918 19.7013C47.5724 22.1948 49.5023 24.1435 51.987 25.0468L71.3448 32.0857C73.8207 32.9865 75.4839 35.3617 75.4839 37.9973V56.6129Z" fill="white"/>
</svg>
