<svg width="96" height="96" viewBox="0 0 96 96" fill="none" xmlns="http://www.w3.org/2000/svg">
<path d="M94.8774 32.5765L73.759 26.5425L60.703 6.36387C58.1249 2.37987 53.7507 0 49.0034 0H23.7786C18.1099 0 13.0529 3.38787 10.8929 8.62916L3.60774 26.3226H0V29.4194H4.64516C5.27226 29.4194 5.83897 29.04 6.07742 28.4609L13.7574 9.80903C15.4359 5.73213 19.3703 3.09677 23.7786 3.09677H49.0034C52.6963 3.09677 56.0981 4.9471 58.1032 8.04697L71.4751 28.7117C71.6779 29.0261 71.9892 29.2568 72.3484 29.359L86.7097 33.4637V41.8065C86.7097 42.6612 87.4034 43.3548 88.2581 43.3548H92.9032V52.6452H86.6183C85.8441 45.6883 79.9339 40.2581 72.7742 40.2581C65.0911 40.2581 58.8387 46.5105 58.8387 54.1936C58.8387 61.8766 65.0911 68.129 72.7742 68.129C79.9339 68.129 85.8441 62.6988 86.6183 55.7419H94.4516C95.3063 55.7419 96 55.0483 96 54.1936V34.0645C96 33.3739 95.5417 32.7654 94.8774 32.5765ZM72.7742 65.0323C66.7974 65.0323 61.9355 60.1703 61.9355 54.1936C61.9355 48.2168 66.7974 43.3548 72.7742 43.3548C78.751 43.3548 83.6129 48.2168 83.6129 54.1936C83.6129 60.1703 78.751 65.0323 72.7742 65.0323ZM89.8064 40.2581V34.3479L92.9032 35.232V40.2581H89.8064Z" fill="white"/>
<path d="M72.7742 46.4517C68.5053 46.4517 65.0322 49.9247 65.0322 54.1936C65.0322 58.4625 68.5053 61.9355 72.7742 61.9355C77.0431 61.9355 80.5161 58.4625 80.5161 54.1936C80.5161 49.9247 77.0431 46.4517 72.7742 46.4517ZM72.7742 58.8388C70.2131 58.8388 68.129 56.7546 68.129 54.1936C68.129 51.6326 70.2131 49.5484 72.7742 49.5484C75.3352 49.5484 77.4193 51.6326 77.4193 54.1936C77.4193 56.7546 75.3352 58.8388 72.7742 58.8388Z" fill="white"/>
<path d="M64.8354 28.6264C65.1095 28.1371 65.0956 27.5379 64.8029 27.0594L54.229 9.87852C52.8308 7.60549 50.3038 6.19336 47.6359 6.19336H24.3823C21.2019 6.19336 18.2987 8.18768 17.1559 11.1559L10.9407 27.3149C10.758 27.7918 10.8215 28.326 11.1095 28.7472C11.399 29.1683 11.8759 29.4192 12.3869 29.4192H63.4837C64.0442 29.4192 64.5614 29.1157 64.8354 28.6264ZM20.0468 12.2677C20.7327 10.487 22.4747 9.29013 24.3823 9.29013H35.6127V26.3224H14.6414L20.0468 12.2677ZM38.7095 26.3224V9.29013H47.6359C49.237 9.29013 50.7529 10.1371 51.5921 11.5012L60.7121 26.3224H38.7095Z" fill="white"/>
<path d="M41.8065 32.5161H35.6129V35.6129H41.8065V32.5161Z" fill="white"/>
<path d="M17.0323 32.5161H10.8387V35.6129H17.0323V32.5161Z" fill="white"/>
<path d="M94.4516 72.7742C91.0358 72.7742 88.258 69.9964 88.258 66.5806C88.258 65.7259 87.5643 65.0322 86.7096 65.0322C85.8549 65.0322 85.1612 65.7259 85.1612 66.5806C85.1612 69.9964 82.3834 72.7742 78.9677 72.7742C78.113 72.7742 77.4193 73.4678 77.4193 74.3225C77.4193 75.1773 78.113 75.8709 78.9677 75.8709C82.3834 75.8709 85.1612 78.6487 85.1612 82.0645C85.1612 82.9192 85.8549 83.6129 86.7096 83.6129C87.5643 83.6129 88.258 82.9192 88.258 82.0645C88.258 78.6487 91.0358 75.8709 94.4516 75.8709C95.3063 75.8709 96 75.1773 96 74.3225C96 73.4678 95.3063 72.7742 94.4516 72.7742ZM86.7096 76.9347C86.0222 75.9004 85.1318 75.0116 84.0975 74.3225C85.1318 73.6351 86.0206 72.7447 86.7096 71.7104C87.3971 72.7447 88.2874 73.6335 89.3218 74.3225C88.2874 75.01 87.3971 75.9004 86.7096 76.9347Z" fill="white"/>
<path d="M78.9677 10.8387C82.3834 10.8387 85.1612 13.6165 85.1612 17.0323C85.1612 17.887 85.8549 18.5806 86.7096 18.5806C87.5643 18.5806 88.258 17.887 88.258 17.0323C88.258 13.6165 91.0358 10.8387 94.4516 10.8387C95.3063 10.8387 96 10.145 96 9.29032C96 8.43561 95.3063 7.74194 94.4516 7.74194C91.0358 7.74194 88.258 4.96413 88.258 1.54839C88.258 0.693677 87.5643 0 86.7096 0C85.8549 0 85.1612 0.693677 85.1612 1.54839C85.1612 4.96413 82.3834 7.74194 78.9677 7.74194C78.113 7.74194 77.4193 8.43561 77.4193 9.29032C77.4193 10.145 78.113 10.8387 78.9677 10.8387ZM86.7096 6.67819C87.3971 7.71252 88.2874 8.60284 89.3218 9.29032C88.2874 9.97781 87.3971 10.8681 86.7096 11.9025C86.0222 10.8681 85.1318 9.97781 84.0975 9.29032C85.1318 8.60284 86.0222 7.71252 86.7096 6.67819Z" fill="white"/>
<path d="M55.7419 63.4838V60.387C55.7419 59.5323 55.0483 58.8386 54.1935 58.8386H49.5484C52.9641 58.8386 55.7419 56.0608 55.7419 52.6451C55.7419 49.2293 52.9641 46.4515 49.5484 46.4515C48.8717 46.4515 48.2121 46.5785 47.5819 46.7906C46.4052 43.0094 42.8733 40.258 38.7097 40.258C37.8085 40.258 36.9414 40.3927 36.1161 40.6327C34.5461 37.5792 31.4106 35.6128 27.871 35.6128C24.2849 35.6128 21.1742 37.6582 19.6258 40.6404C18.7881 40.3958 17.9241 40.258 17.0323 40.258C12.8655 40.258 9.33213 43.0156 8.1569 46.7999C7.536 46.5909 6.88413 46.4515 6.19355 46.4515C2.77781 46.4515 0 49.2293 0 52.6451C0 56.0608 2.77781 58.8386 6.19355 58.8386H1.54839C0.693677 58.8386 0 59.5323 0 60.387V63.4838C0 71.3263 4.51819 78.1176 11.0772 81.4389L12.3933 94.6063C12.4738 95.3976 13.1396 95.9999 13.9355 95.9999H41.8064C42.6023 95.9999 43.2681 95.3976 43.3471 94.6063L44.6632 81.4389C51.2237 78.1176 55.7419 71.3263 55.7419 63.4838ZM52.6452 61.9354V63.4838C52.6452 69.3893 49.6212 74.5996 45.0426 77.6561L46.3045 65.0321H48C48.8547 65.0321 49.5484 64.3385 49.5484 63.4838V61.9354H52.6452ZM35.6129 77.4192H20.129C19.2743 77.4192 18.5806 78.1129 18.5806 78.9676V80.437C16.9719 80.2915 15.4312 79.9137 13.9819 79.3501L12.5497 65.0321H43.1923L41.76 79.3501C40.3107 79.9137 38.7701 80.2915 37.1613 80.437V78.9676C37.1613 78.1129 36.4676 77.4192 35.6129 77.4192ZM34.0645 80.516V83.6128H21.6774V80.516H34.0645ZM9.29032 58.8386H46.4516V61.9354H9.29032V58.8386ZM3.09677 52.6451C3.09677 50.9372 4.48568 49.5483 6.19355 49.5483C7.90142 49.5483 9.29032 50.9372 9.29032 52.6451H12.3871C12.3871 51.1369 11.8235 49.7712 10.9254 48.6967C11.345 45.6866 13.9092 43.3547 17.0323 43.3547C17.6005 43.3547 18.1486 43.4523 18.6828 43.6009C18.6225 44.0283 18.5806 44.4603 18.5806 44.9031C18.5806 46.9315 19.2232 48.8592 20.4387 50.4789L22.9161 48.6192C22.1048 47.5416 21.6774 46.2564 21.6774 44.9031C21.6774 41.4874 24.4552 38.7096 27.871 38.7096C30.2044 38.7096 32.2699 39.9932 33.329 41.9891C30.9662 43.6752 29.4194 46.4314 29.4194 49.5483H32.5161C32.5161 46.1325 35.2939 43.3547 38.7097 43.3547C42.1254 43.3547 44.9032 46.1325 44.9032 49.5483C44.9032 50.4107 44.7298 51.2438 44.3876 52.0257L47.2258 53.266C47.681 52.2223 47.9257 51.1183 47.9768 49.9803C48.4506 49.7016 48.991 49.5483 49.5484 49.5483C51.2563 49.5483 52.6452 50.9372 52.6452 52.6451C52.6452 54.3529 51.2563 55.7418 49.5484 55.7418H48H46.4516H9.29032H7.74194H6.19355C4.48568 55.7418 3.09677 54.3529 3.09677 52.6451ZM3.09677 63.4838V61.9354H6.19355V63.4838C6.19355 64.3385 6.88723 65.0321 7.74194 65.0321H9.43742L10.6994 77.6561C6.12077 74.5996 3.09677 69.3893 3.09677 63.4838ZM40.4052 92.9031H15.3368L14.321 82.7503C15.6852 83.1622 17.1112 83.4208 18.5806 83.5338V85.1612C18.5806 86.0159 19.2743 86.7096 20.129 86.7096H35.6129C36.4676 86.7096 37.1613 86.0159 37.1613 85.1612V83.5338C38.6292 83.4208 40.0568 83.1622 41.4209 82.7503L40.4052 92.9031Z" fill="white"/>
<path d="M91.3548 86.7097H82.0645C81.2113 86.7097 80.5161 86.0144 80.5161 85.1613C80.5161 82.6002 78.432 80.5161 75.8709 80.5161H54.1935C51.6325 80.5161 49.5483 82.6002 49.5483 85.1613C49.5483 87.7223 51.6325 89.8064 54.1935 89.8064H63.4838C64.337 89.8064 65.0322 90.5017 65.0322 91.3548C65.0322 93.9159 67.1163 96 69.6774 96H91.3548C93.9158 96 96 93.9159 96 91.3548C96 88.7938 93.9158 86.7097 91.3548 86.7097ZM91.3548 92.9032H69.6774C68.8242 92.9032 68.129 92.208 68.129 91.3548C68.129 88.7938 66.0449 86.7097 63.4838 86.7097H54.1935C53.3403 86.7097 52.6451 86.0144 52.6451 85.1613C52.6451 84.3081 53.3403 83.6129 54.1935 83.6129H75.8709C76.7241 83.6129 77.4193 84.3081 77.4193 85.1613C77.4193 87.7223 79.5034 89.8064 82.0645 89.8064H91.3548C92.208 89.8064 92.9032 90.5017 92.9032 91.3548C92.9032 92.208 92.208 92.9032 91.3548 92.9032Z" fill="white"/>
</svg>
