<?xml version="1.0" standalone="no"?>
<!DOCTYPE svg PUBLIC "-//W3C//DTD SVG 1.1//EN" "http://www.w3.org/Graphics/SVG/1.1/DTD/svg11.dtd" >
<svg>
<metadata>
Created by FontForge 20090914 at Mon Feb 22 09:48:15 2021
 By www-data
(c)Copyright ParaGraph International, 1992.
</metadata>
<defs>
<font id="BetinaScriptExtraCTT-Regular" horiz-adv-x="606" >
  <font-face 
    font-family="BetinaScriptExtraCTT"
    font-weight="400"
    font-stretch="normal"
    units-per-em="1000"
    panose-1="0 0 0 0 0 0 0 0 0 0"
    ascent="800"
    descent="-200"
    x-height="355"
    cap-height="587"
    bbox="-195.002 -482.998 1090 930.547"
    underline-thickness="40"
    underline-position="-60"
    unicode-range="U+0020-U+2219"
  />
<missing-glyph horiz-adv-x="105" 
d="M5 0v100h95v-100h-95zM10 5h85v90h-85v-90z" />
    <glyph glyph-name=".notdef" horiz-adv-x="105" 
d="M5 0v100h95v-100h-95zM10 5h85v90h-85v-90z" />
    <glyph glyph-name="space" unicode=" " horiz-adv-x="242" 
 />
    <glyph glyph-name="space" unicode="&#x45d;" horiz-adv-x="242" 
 />
    <glyph glyph-name="space" unicode="&#x40d;" horiz-adv-x="242" 
 />
    <glyph glyph-name="space" unicode="&#xa0;" horiz-adv-x="242" 
 />
    <glyph glyph-name="exclam" unicode="!" horiz-adv-x="242" 
d="M164 731c14.667 0 25.4961 -1.33203 32.4961 -3.99902s10.5 -6.33398 10.5 -11.001c-0.666992 -11.333 -4.83398 -30 -12.501 -56s-11.5 -51.333 -11.5 -76c0 -7.33301 -0.333008 -12.666 -1 -15.999s-1.66699 -7 -3 -11c0 -1.33301 -1.16699 -5.5 -3.5 -12.5
s-4.5 -14.5 -6.5 -22.5c-6 -24 -9.66699 -40.167 -11 -48.5s-2 -16.5 -2 -24.5c-0.666992 -5.33301 -0.833984 -12.833 -0.500977 -22.5s0.5 -16.834 0.5 -21.501c-0.666992 -6 -1.33398 -12.333 -2.00098 -19s-1.66699 -14 -3 -22c-2.66699 -12 -4.16699 -19.333 -4.5 -22
s-0.166016 -5 0.500977 -7c0 -12 2.33301 -22.833 7 -32.5s7 -25.834 7 -48.501c0 -16.667 -7.66699 -29.834 -23 -39.501s-31.333 -14.167 -48 -13.5c-9.33301 0 -18.666 9.66699 -27.999 29s-14 34 -14 44c0 2.66699 2.5 6.66699 7.5 12s7.5 9.66602 7.5 12.999
c0 31.333 -1.33301 48.5 -4 51.5s-3.66699 20.167 -3 51.5c0 2.66699 0.833008 6.83398 2.5 12.501s2.83398 9.83398 3.50098 12.501c0.666992 6 0.833984 15.333 0.500977 28s0.166992 22 1.5 28c0.666992 6 2.83398 14.833 6.50098 26.5s6.16699 20.167 7.5 25.5
c0.666992 6 1.33398 14.333 2.00098 25s1.33398 18.334 2.00098 23.001c6.66699 57.333 16.5 96.333 29.5 117s30.5 31 52.5 31zM117.996 54.001c12 0 22.333 -9.66699 31 -29s13 -40.333 13 -63c0 -8.66699 -4.66699 -17.167 -14 -25.5s-20.333 -12.5 -33 -12.5
c-21.333 0 -37 5.5 -47 16.5s-14.667 29.167 -14 54.5c0 19.333 5.16699 34 15.5 44s26.5 15 48.5 15z" />
    <glyph glyph-name="quotedbl" unicode="&#x22;" horiz-adv-x="472" 
d="M159 814c10.667 0 19.999 -5.16992 27.999 -15.5029s12.333 -20.833 13 -31.5c0 -7.33301 -3 -27.166 -9 -59.499s-8.66699 -65.5 -8 -99.5c0 -3.33301 -0.166992 -8.66602 -0.5 -15.999s-0.166016 -12.666 0.500977 -15.999c0 -12 0.666992 -33.167 2 -63.5
s2 -49.833 2 -58.5c0 -20.667 -3.83301 -36.5 -11.5 -47.5s-16.5 -16.5 -26.5 -16.5c-16.667 0 -30.667 9.5 -42 28.5s-17 41.833 -17 68.5v25.5c0 11.667 0.333008 20.5 1 26.5c0 2 -0.166992 7.16699 -0.5 15.5s-0.166016 15.166 0.500977 20.499
c0 5.33301 0.5 18.333 1.5 39s1.5 37.334 1.5 50.001c0 3.33301 -0.666992 8.5 -2 15.5s-2 12.5 -2 16.5c0 42 4.66699 72 14 90s27.666 27.333 54.999 28zM341.999 819.997c10 0 19.168 -4.99805 27.501 -14.998s12.5 -20 12.5 -30
c0 -2.66699 -0.166992 -5.33398 -0.5 -8.00098s-1.83301 -10 -4.5 -22c-0.666992 -2 -1.16699 -3.66699 -1.5 -5s-1.5 -16 -3.5 -44c-4.66699 -47.333 -8.83398 -80 -12.501 -98s-5.83398 -33.667 -6.50098 -47c-6.66699 -87.333 -13.167 -134.166 -19.5 -140.499
s-14.5 -9.5 -24.5 -9.5c-13.333 0 -25.833 5.5 -37.5 16.5s-17.5 23.167 -17.5 36.5v26c0 7.33301 0.333008 14.666 1 21.999v2.5v19.5c-0.666992 15.333 -0.166992 30.833 1.5 46.5s5.83398 40.5 12.501 74.5c2.66699 12.667 4.66699 23.5 6 32.5s2 17.5 2 25.5
c0 5.33301 -0.5 14.166 -1.5 26.499s-1.5 21.833 -1.5 28.5c0 19.333 4.5 34.5 13.5 45.5s27.167 16.5 54.5 16.5z" />
    <glyph glyph-name="numbersign" unicode="#" horiz-adv-x="535" 
d="M289 654c8.66699 0 16.4951 -5.49902 23.4951 -16.499s10.5 -23.167 10.5 -36.5c-0.666992 -4 -3.16699 -11 -7.5 -21s-10.166 -22 -17.499 -36l59 -3c0 37.333 6.83301 65.333 20.5 84s35.5 28 65.5 28c8.66699 0 16.167 -5.33301 22.5 -16
s9.83301 -22.334 10.5 -35.001c0 -0.666992 -0.166992 -1.33398 -0.5 -2.00098s-7.16602 -20.667 -20.499 -60c2.66699 -0.666992 5.5 -1 8.5 -1h9.5c2.66699 0 7 0.333008 13 1s10.667 1 14 1c9.33301 0 18.5 -3.83301 27.5 -11.5s13.5 -15.5 13.5 -23.5
c0 -14.667 -3.33301 -26.334 -10 -35.001s-42 -18 -106 -28c-3.33301 -3.33301 -5.66602 -7.66602 -6.99902 -12.999s-2 -12.333 -2 -21l28 -4.5c10 -1.66699 18 -2.5 24 -2.5c2.66699 0 7.16699 0.166992 13.5 0.5s11.166 0.5 14.499 0.5
c8.66699 -0.666992 17.5 -4.66699 26.5 -12s13.5 -15 13.5 -23c0 -12 -4.83301 -23.667 -14.5 -35s-20.5 -18.666 -32.5 -21.999c-3.33301 -1.33301 -12.5 -1 -27.5 1s-41.5 1.33301 -79.5 -2c-13.333 -57.333 -24.833 -91.5 -34.5 -102.5s-21.5 -16.5 -35.5 -16.5
c-12 0 -22 6.5 -30 19.5s-12 26.5 -12 40.5c0 8 2 17 6 27s5 20.667 3 32h-2h-27h-250h234c-6 -55.333 -13.833 -90.333 -23.5 -105s-22.834 -22 -39.501 -22c-11.333 0 -21.333 6 -30 18s-13 24.667 -13 38s0.833008 25.5 2.5 36.5s4.5 23.833 8.5 38.5
c-51.333 3.33301 -80.833 9.16602 -88.5 17.499s-11.5 20.833 -11.5 37.5c0 10.667 4 21 12 31s17 15.333 27 16c9.33301 0 16 -0.166992 20 -0.5s8 -0.5 12 -0.5c2 -0.666992 4.33301 -1 7 -1s17 0.333008 43 1l7 35c-32.667 -8.66699 -58.667 -7.33398 -78 3.99902
s-28.666 27.666 -27.999 48.999c0 9.33301 3.83301 18.333 11.5 27s16.5 14.667 26.5 18c2.66699 0.666992 5.83398 1 9.50098 1s11.834 -0.333008 24.501 -1c8 -1.33301 17.667 -2.16602 29 -2.49902s24 -0.166016 38 0.500977
c34.667 68.667 55.334 103.834 62.001 105.501s15.667 2.5 27 2.5zM264.995 450.001l-7.50098 -23.499c-2.33301 -7.66699 -4.16602 -14.834 -5.49902 -21.501c9.33301 -2 18.833 -3 28.5 -3s19.5 0.666992 29.5 2c2 7.33301 4.66699 14.333 8 21l10 21
c-10.667 1.33301 -21.167 2.33301 -31.5 3s-20.833 1 -31.5 1z" />
    <glyph glyph-name="dollar" unicode="$" horiz-adv-x="737" 
d="M411 583l26.002 7.00098c2 7.33301 1.66699 15.166 -1 23.499s-1 12.5 5 12.5c50.667 0 76 -0.166992 76 -0.5s2 -6.5 6 -18.5c46.667 12.667 89.667 13.667 129 3s59 -27.667 59 -51c0 -18 -6.66699 -32.667 -20 -44s-32 -16.666 -56 -15.999
c-4 -0.666992 -9.5 1 -16.5 5s-12.167 6 -15.5 6s-10.333 -0.833008 -21 -2.5s-25.334 -2.16699 -44.001 -1.5h-23.5c-3.66699 0 -9.5 -0.333008 -17.5 -1l-14 -63.5c-2.66699 -11.667 -6.33398 -24.167 -11.001 -37.5c17.333 -8 42.666 -24.833 75.999 -50.5
s53.333 -44.834 60 -57.501c2 -5.33301 4.33301 -13 7 -23s4.66699 -16.333 6 -19c1.33301 -4.66699 5.33301 -13.667 12 -27s10 -24 10 -32c0 -50 -20.667 -101.5 -62 -154.5s-95.666 -85.167 -162.999 -96.5c-4.66699 -52.667 -11.667 -87 -21 -103s-22 -24 -38 -24
c-14 0 -26.167 2.83301 -36.5 8.5s-15.5 12.167 -15.5 19.5c0 24 1.16699 42.333 3.5 55s6.83301 27.667 13.5 45l-37 8c-4.66699 -13.333 -5.5 -26.333 -2.5 -39s4.5 -21 4.5 -25c0 -20.667 -5.33301 -37.5 -16 -50.5s-25 -19.5 -43 -19.5
c-22 0.666992 -37.5 14.334 -46.5 41.001s-4.5 64.667 13.5 114c-81.333 33.333 -139.333 62.666 -174 87.999s-52 49.333 -52 72c0 21.333 7.5 40.333 22.5 57s30.167 25 45.5 25c11.333 0 22.5 -7.16699 33.5 -21.5s16.5 -26.833 16.5 -37.5
c0 -1.33301 -0.333008 -2.66602 -1 -3.99902s-1 -2.33301 -1 -3c0 -6 13.333 -17.833 40 -35.5s57 -32.834 91 -45.501c2 12 5 22.5 9 31.5s9.66699 25.5 17 49.5c4 15.333 7.5 38.833 10.5 70.5s13.5 75.5 31.5 131.5c-55.333 20.667 -87.333 36.167 -96 46.5
s-13 22.5 -13 36.5c0 23.333 11.833 45 35.5 65s55.834 37.333 96.501 52c8.66699 86 17.834 135.333 27.501 148s25.167 19 46.5 19c13.333 0 26 -4.5 38 -13.5s18 -18.833 18 -29.5c-0.666992 -12 -3.33398 -25.5 -8.00098 -40.5s-11.334 -32.5 -20.001 -52.5z
M309.002 43.001l31 -1c16 153.333 25.167 235.5 27.5 246.5s4.83301 21.833 7.5 32.5l-15 10c-8.66699 -59.333 -17 -111.833 -25 -157.5s-16.667 -89.167 -26 -130.5zM450.002 299.001c-12 -41.333 -20.001 -82.168 -24.001 -122.501s-3.66699 -81.166 1 -122.499
c38 21.333 63.833 40.333 77.5 57s22.834 39.334 27.501 68.001c0.666992 7.33301 1 13.666 1 18.999s-0.333008 10.333 -1 15c-3.33301 12.667 -13.833 28 -31.5 46s-34.5 31.333 -50.5 40z" />
    <glyph glyph-name="percent" unicode="%" horiz-adv-x="735" 
d="M166 598c8 5.33301 14.6689 9 20.002 11s10.333 3.66699 15 5h10.5h17.5c45.333 -4.66699 82.166 -15.5 110.499 -32.5s44.166 -40.167 47.499 -69.5v-12.5v-21.5c-2.66699 -48 -19 -86.5 -49 -115.5s-70 -43.5 -120 -43.5c-30 0 -56.833 15.167 -80.5 45.5
s-35.167 71.5 -34.5 123.5c0 22.667 5 43.167 15 61.5s26 34.5 48 48.5zM215.002 515c-1.33301 -1.33301 -3.33398 -4.00098 -6.00098 -8.00098s-4 -6.33301 -4 -7c0 -16 3.83301 -33.167 11.5 -51.5s17.5 -27.166 29.5 -26.499c8 0 16 3.83301 24 11.5s13 15.5 15 23.5
c0 1.33301 -0.166992 3.33301 -0.5 6s-0.166016 4.66699 0.500977 6c0 2.66699 0.333008 6.66699 1 12s1 9.33301 1 12c0 4.66699 -4.83301 9.66699 -14.5 15s-20.167 8.33301 -31.5 9h-13h-5c-2.66699 -0.666992 -4.5 -1.16699 -5.5 -1.5s-1.83301 -0.5 -2.5 -0.5z
M340.001 329.999c187.333 162.667 283.667 244.332 289 244.999s10 1.33398 14 2.00098c7.33301 0 14.333 -2.16699 21 -6.5s10 -8.83301 10 -13.5c0 -31.333 -23.667 -75 -71 -131s-106.333 -112.333 -177 -169c-24 -18.667 -75.5 -69.5 -154.5 -152.5
s-132.167 -124.833 -159.5 -125.5c-12 0 -22.667 5.33301 -32 16s-14 24 -14 40c0 18 22.167 51.167 66.5 99.5s113.5 113.5 207.5 195.5zM417.002 211.997c11.333 21.333 32.168 39.999 62.501 55.999s60.833 24 91.5 24c35.333 0 64.666 -13.167 87.999 -39.5
s35 -56.166 35 -89.499c0 -44.667 -11.333 -82.834 -34 -114.501s-55.667 -47.5 -99 -47.5c-49.333 0 -88.333 16.167 -117 48.5s-43 68.833 -43 109.5c0 7.33301 1.16699 15.333 3.5 24s6.5 18.334 12.5 29.001zM504.004 165.996
c-0.666992 -1.33301 -1.16699 -2.66797 -1.5 -4.00098s-0.166016 -2.66602 0.500977 -3.99902c0 -11.333 6.5 -23.333 19.5 -36s25.167 -19 36.5 -19c10.667 -0.666992 19 2.5 25 9.5s9.33301 21.167 10 42.5c0 12 -3.33301 21 -10 27s-20.334 9 -41.001 9
c-8.66699 0 -17 -2.83301 -25 -8.5s-12.667 -11.167 -14 -16.5z" />
    <glyph glyph-name="ampersand" unicode="&#x26;" horiz-adv-x="562" 
d="M290 315c4 -8.66699 8.50488 -16.9961 13.5049 -24.9961s32.833 -49 83.5 -123c10.667 7.33301 19.5 16.166 26.5 26.499s12.5 22.166 16.5 35.499c-24 -10.667 -45.333 -11 -64 -1s-28 26 -28 48c-0.666992 16.667 3 28.667 11 36s27 10.666 57 9.99902l3 -1l19 1
c30 0 50.333 1.83301 61 5.5l19 6.5l-1 -0.5c-0.666992 -0.333008 7 -0.166016 23 0.500977c19.333 0 33.666 5.83301 42.999 17.5s29 17.5 59 17.5c7.33301 0 14.166 -5.16699 20.499 -15.5s9.5 -21.5 9.5 -33.5v-19l-127 -67c-0.666992 -25.333 -8 -49.833 -22 -73.5
s-35 -47.834 -63 -72.501c5.33301 -4 9.16602 -8.5 11.499 -13.5s4.16602 -13.833 5.49902 -26.5v-15.5v-7.5c-2.66699 -12 -8 -21.167 -16 -27.5s-19 -9.5 -33 -9.5c-11.333 0 -19.5 0.5 -24.5 1.5s-17.833 12.833 -38.5 35.5c-25.333 -10.667 -49.166 -17.5 -71.499 -20.5
s-51.833 -1.5 -88.5 4.5c-39.333 5.33301 -64.333 12.5 -75 21.5s-31 40.5 -61 94.5c-20 34.667 -20.667 75.667 -2 123s50.667 86 96 116c-4 12.667 -6.83301 24.167 -8.5 34.5s-2.5 19.5 -2.5 27.5c-0.666992 32 9.66602 61 30.999 87s47 39 77 39s55.667 -11.667 77 -35
s32 -51 32 -83c-0.666992 -21.333 -5.83398 -40.833 -15.501 -58.5s-27.5 -37.834 -53.5 -60.501zM193.005 271.004c-13.333 -9.33301 -24 -20.834 -32 -34.501s-11.667 -28.167 -11 -43.5c0 -28 7.5 -49.833 22.5 -65.5s43.5 -23.5 85.5 -23.5
c2 -0.666992 4.83301 -0.333984 8.5 0.999023s13.5 5.33301 29.5 12c-22 34.667 -39.333 58.834 -52 72.501s-29.667 40.834 -51 81.501z" />
    <glyph glyph-name="quotesingle" unicode="'" horiz-adv-x="215" 
d="M21 814c10.667 0 20.333 -5.49805 29 -16.498s13 -22.167 13 -33.5c-0.666992 -0.666992 -1 -1.33398 -1 -2.00098s-1.33301 -8.66699 -4 -24c-1.33301 -6 -2.33301 -13.833 -3 -23.5s-1 -16.167 -1 -19.5c-0.666992 -4 -1.83398 -10.5 -3.50098 -19.5
s-2.5 -15.833 -2.5 -20.5v-23c0 -10 0.333008 -17.333 1 -22c0 -4 -0.166992 -9.83301 -0.5 -17.5s-0.5 -13.167 -0.5 -16.5c0 -9.33301 0.333008 -23.166 1 -41.499s1.33398 -31.833 2.00098 -40.5c0 -52 -3.33301 -82.5 -10 -91.5s-16.334 -13.167 -29.001 -12.5
c-16 -0.666992 -29.833 8.66602 -41.5 27.999s-17.5 42.333 -17.5 69c0.666992 6.66699 1 15.834 1 27.501v24.5c0.666992 4 1 8.66699 1 14s-0.333008 12.666 -1 21.999c0 22 0.166992 39.667 0.5 53s1.5 39.666 3.5 78.999c4 52.667 10.833 83.667 20.5 93
s23.834 14 42.501 14z" />
    <glyph glyph-name="parenleft" unicode="(" horiz-adv-x="308" 
d="M249 647c14.667 0 27.6699 -4.33203 39.0029 -12.999s17 -19.667 17 -33c0 -18.667 -24.833 -72.5 -74.5 -161.5s-66.834 -181.167 -51.501 -276.5c7.33301 -47.333 13.166 -79.333 17.499 -96s10.166 -32 17.499 -46c31.333 -64.667 47.166 -97 47.499 -97
s0.5 -1 0.5 -3c0 -22.667 -5.66699 -40.834 -17 -54.501s-24.333 -20.5 -39 -20.5c-33.333 0 -64.166 41.5 -92.499 124.5s-42.5 176.5 -42.5 280.5c0 86 21.5 173.5 64.5 262.5s80.833 133.5 113.5 133.5z" />
    <glyph glyph-name="parenright" unicode=")" horiz-adv-x="344" 
d="M77 -153c-14.667 0 -27.332 4.66895 -37.999 14.002s-16 20.666 -16 33.999c-0.666992 16 13.833 43.667 43.5 83s51.5 72.666 65.5 99.999c24 46 38.667 97 44 153s0.666016 124.333 -14.001 205c-8 40.667 -19.833 72 -35.5 94s-23.167 40.667 -22.5 56
c0 15.333 3.5 29 10.5 41s15.5 18 25.5 18c48.667 0 84.167 -30.833 106.5 -92.5s33.5 -153.167 33.5 -274.5c-0.666992 -108 -25.667 -206.667 -75 -296s-92 -134.333 -128 -135z" />
    <glyph glyph-name="asterisk" unicode="*" horiz-adv-x="385" 
d="M189 258c-15.333 0 -26.8291 8.83203 -34.4961 26.499s-7.83398 43.5 -0.500977 77.5c-4.66699 -0.666992 -8.5 -1.66699 -11.5 -3s-6.16699 -3.66602 -9.5 -6.99902c-10.667 -10 -19.334 -16.333 -26.001 -19s-14 -4 -22 -4c-16 0 -27.667 5.16699 -35 15.5
s-11 25.166 -11 44.499c0 10.667 6.16699 21 18.5 31s29.5 18.333 51.5 25c-20 8.66699 -34.5 18.834 -43.5 30.501s-13.167 26.834 -12.5 45.501c0 7.33301 3.66699 14.333 11 21s15 10 23 10c10 0 20.667 -1.83301 32 -5.5s24.666 -9.16699 39.999 -16.5
c-4 24.667 -1.83301 43.667 6.5 57s21.166 20 38.499 20c13.333 0 23.5 -2.33301 30.5 -7s14.833 -33.334 23.5 -86.001c22 14.667 44 19.667 66 15s33 -14.667 33 -30c0 -23.333 -5 -40.333 -15 -51s-24.667 -18.334 -44 -23.001c16.667 -13.333 29.5 -25.833 38.5 -37.5
s13.833 -21.5 14.5 -29.5c0 -11.333 -4.83301 -22.166 -14.5 -32.499s-20.834 -15.5 -33.501 -15.5c-6 0 -12.667 1.66699 -20 5s-19.333 12 -36 26c-1.33301 -30 -6.66602 -51.333 -15.999 -64s-23.333 -19 -42 -19z" />
    <glyph glyph-name="plus" unicode="+" horiz-adv-x="540" 
d="M214 351c-2 81.333 1.5 130.998 10.5 148.998s22.5 27 40.5 27c16 0 28.167 -6 36.5 -18s12.5 -29.333 12.5 -52c-0.666992 -5.33301 -1 -12 -1 -20v-16c-0.666992 -1.33301 -1 -1.66602 -1 -0.999023s0.333008 -20.333 1 -63c86 2 137.5 -1.5 154.5 -10.5
s25.833 -22.167 26.5 -39.5c0 -15.333 -6 -27.5 -18 -36.5s-29 -13.5 -51 -13.5c-4.66699 -0.666992 -11.167 -0.5 -19.5 0.5s-14.5 1.5 -18.5 1.5c-16.667 0 -30.334 -0.333008 -41.001 -1s-19.334 -1 -26.001 -1c9.33301 -58 9.5 -102.5 0.5 -133.5
s-23.833 -46.5 -44.5 -46.5c-13.333 0 -24.166 4 -32.499 12s-16.166 62 -23.499 162c-58 -8 -101.667 -8.33301 -131 -1s-44 22.666 -44 45.999c0 14.667 5.16699 26.334 15.5 35.001s61.5 15.334 153.5 20.001z" />
    <glyph glyph-name="comma" unicode="," horiz-adv-x="191" 
d="M142 163c8.66699 0 16.168 -5.16992 22.501 -15.5029s9.5 -21.833 9.5 -34.5c0 -5.33301 -3.33301 -16.5 -10 -33.5s-18.667 -45.833 -36 -86.5c-3.33301 -7.33301 -5.83301 -13.166 -7.5 -17.499s-12.167 -40.166 -31.5 -107.499
c-40.667 -144 -62.5 -216.333 -65.5 -217s-6.16699 -1 -9.5 -1c-10.667 0 -20.334 6.16699 -29.001 18.5s-13 24.833 -13 37.5c0 28.667 8 77.334 24 146.001s35 137 57 205c18 56.667 32.333 88.5 43 95.5s26 10.5 46 10.5z" />
    <glyph glyph-name="hyphen" unicode="-" horiz-adv-x="394" 
d="M179 251c12 1.33301 24.167 2.49902 36.5 3.49902s25.5 1.5 39.5 1.5c29.333 0 49.5 -4 60.5 -12s16.5 -19.333 16.5 -34c0 -21.333 -11.667 -37.166 -35 -47.499s-69 -15.5 -137 -15.5c-52 0 -81.5 3.66699 -88.5 11s-10.5 17.666 -10.5 30.999
c0 15.333 4.5 27.333 13.5 36s43.833 17.334 104.5 26.001z" />
    <glyph glyph-name="hyphen" unicode="&#xad;" horiz-adv-x="394" 
d="M179 251c12 1.33301 24.167 2.49902 36.5 3.49902s25.5 1.5 39.5 1.5c29.333 0 49.5 -4 60.5 -12s16.5 -19.333 16.5 -34c0 -21.333 -11.667 -37.166 -35 -47.499s-69 -15.5 -137 -15.5c-52 0 -81.5 3.66699 -88.5 11s-10.5 17.666 -10.5 30.999
c0 15.333 4.5 27.333 13.5 36s43.833 17.334 104.5 26.001z" />
    <glyph glyph-name="period" unicode="." horiz-adv-x="187" 
d="M99 87c21.333 0 37 -4.16797 47 -12.501s15 -26.166 15 -53.499c0 -17.333 -5 -30.5 -15 -39.5s-25 -13.5 -45 -13.5c-15.333 0 -30.333 6.16699 -45 18.5s-22 25.833 -22 40.5c0 13.333 6.16699 26.5 18.5 39.5s27.833 19.833 46.5 20.5z" />
    <glyph glyph-name="slash" unicode="/" horiz-adv-x="487" 
d="M398 581c13.333 38.667 22.999 59.8311 28.999 63.498s12.667 5.5 20 5.5c31.333 0 50 -1.33301 56 -4s9 -6.66699 9 -12c0 -32 -14.167 -82.167 -42.5 -150.5s-72.166 -163.833 -131.499 -286.5c-120 -248 -179.333 -371.833 -178 -371.5s0.333008 0.5 -3 0.5
c-14.667 0 -28 3.66699 -40 11s-18 15.333 -18 24c-0.666992 4.66699 -1.16699 5.33398 -1.5 2.00098s60.834 147 183.501 451c16 40.667 25.333 63.334 28 68.001s6 9.66699 10 15c6.66699 11.333 11.834 20.833 15.501 28.5s7.5 17.5 11.5 29.5
c9.33301 28.667 15.166 46 17.499 52s5.16602 12.667 8.49902 20c4 8.66699 8.83301 18.5 14.5 29.5s9.5 19.167 11.5 24.5z" />
    <glyph glyph-name="zero" unicode="0" horiz-adv-x="552" 
d="M259 600c18 0 32.665 -1.5 43.998 -4.5s47 -30.833 107 -83.5c49.333 -44.667 80.333 -82.334 93 -113.001s19 -63.334 19 -98.001c0 -31.333 -6.5 -64.166 -19.5 -98.499s-32.833 -72.166 -59.5 -113.499c-23.333 -35.333 -53.666 -63.166 -90.999 -83.499
s-69.333 -30.833 -96 -31.5c-95.333 0.666992 -158.666 30.167 -189.999 88.5s-41.333 146.166 -30 263.499c8 94 32.167 163.167 72.5 207.5s90.5 66.5 150.5 66.5zM249.998 498c-32 0 -55.8311 -11.333 -71.498 -34s-27.834 -70.667 -36.501 -144
c-5.33301 -42 -3 -71.333 7 -88s15 -33.667 15 -51c0 -4.66699 -1.5 -11.667 -4.5 -21s-4.5 -16.333 -4.5 -21c-0.666992 -14.667 5.16602 -27.5 17.499 -38.5s27.833 -16.5 46.5 -16.5c36 0 67.667 9.5 95 28.5s49.333 44.5 66 76.5c30 58.667 42.833 100.167 38.5 124.5
s-13.833 50.5 -28.5 78.5c-14 24.667 -36.333 48.5 -67 71.5s-55 34.5 -73 34.5z" />
    <glyph glyph-name="one" unicode="1" horiz-adv-x="680" 
d="M546 593c12.667 0 24.1689 -10.334 34.502 -31.001s15.5 -47.334 15.5 -80.001c0 -17.333 -0.5 -33.166 -1.5 -47.499s-9.16699 -75.833 -24.5 -184.5c-6.66699 -44 -11.834 -83.5 -15.501 -118.5s-5.5 -58.5 -5.5 -70.5c0 -3.33301 2.66699 -7.66602 8 -12.999
s8 -9.33301 8 -12c0 -16.667 -8.83301 -36 -26.5 -58s-35.167 -33 -52.5 -33c-15.333 0 -27.833 8.66699 -37.5 26s-14.167 38.333 -13.5 63c0 13.333 5.83301 41.5 17.5 84.5s20.167 92.833 25.5 149.5c6 78 9.16699 117 9.5 117s0.5 24 0.5 72
c-0.666992 11.333 -21.334 2.5 -62.001 -26.5s-79.667 -63.167 -117 -102.5c-183.333 -192.667 -268.666 -287.667 -255.999 -285s17.334 4 14.001 4c-12.667 0 -23.334 2.33301 -32.001 7s-13 10.667 -13 18c0 48 20.167 98.333 60.5 151s99.5 112.667 177.5 180
c82.667 71.333 145.167 120.833 187.5 148.5s75.166 41.5 98.499 41.5z" />
    <glyph glyph-name="two" unicode="2" horiz-adv-x="569" 
d="M265 578c62 -0.666992 106.167 -11.167 132.5 -31.5s39.5 -58.833 39.5 -115.5c0 -14.667 -2.16699 -27.834 -6.5 -39.501s-42.5 -56.5 -114.5 -134.5c-114.667 -124 -169.167 -179.5 -163.5 -166.5s8.83398 19.167 9.50098 18.5c0 -5.33301 5 -9.33301 15 -12
s41 -4 93 -4c8 0 24.667 3.5 50 10.5s52.666 15.833 81.999 26.5c66 23.333 107.667 33.5 125 30.5s26 -12.5 26 -28.5c0 -27.333 -5.83301 -48.333 -17.5 -63s-67.167 -32 -166.5 -52c-23.333 -5.33301 -51.166 -12.333 -83.499 -21s-55.166 -13 -68.499 -13
c-42.667 0 -80.334 10.333 -113.001 31s-49 44.334 -49 71.001c0 12.667 2.16699 25.167 6.5 37.5s68.833 86.833 193.5 223.5c29.333 32.667 49 56.167 59 70.5s15.333 25.5 16 33.5c0 2 -6 7.83301 -18 17.5s-20.333 14.5 -25 14.5
c-26.667 0 -53.334 -3.16699 -80.001 -9.5s-49.334 -14.833 -68.001 -25.5c-34 -19.333 -58.833 -25 -74.5 -17s-23.5 27.333 -23.5 58c0 16.667 15.833 33 47.5 49s65.834 28 102.501 36c7.33301 1.33301 16 2.5 26 3.5s26 1.5 48 1.5z" />
    <glyph glyph-name="three" unicode="3" horiz-adv-x="651" 
d="M394 638c40 0 69.834 -7.16992 89.501 -21.5029s29.5 -36.833 29.5 -67.5c-0.666992 -34.667 -9.16699 -65.5 -25.5 -92.5s-38.5 -46.167 -66.5 -57.5l39 -11c59.333 -17.333 102.833 -39.833 130.5 -67.5s41.5 -65.167 41.5 -112.5c0 -23.333 -4.5 -44.833 -13.5 -64.5
s-45.5 -56.167 -109.5 -109.5c-38.667 -31.333 -64.334 -49.166 -77.001 -53.499s-37.667 -11.833 -75 -22.5c-98 -27.333 -174.167 -20 -228.5 22s-81.5 101.333 -81.5 178c0 16 9 38.5 27 67.5s32.667 43.5 44 43.5c15.333 0 29 -6.33301 41 -19s18 -29 18 -49
c0 -11.333 -4.16699 -29 -12.5 -53s-12.166 -46.333 -11.499 -67c-0.666992 -9.33301 14.666 -19 45.999 -29s57 -15 77 -15c23.333 0 48.5 5.5 75.5 16.5s55.5 26.833 85.5 47.5c28.667 20 50.334 38 65.001 54s22 30.333 22 43c0 25.333 -12.333 48.666 -37 69.999
s-57.667 32.666 -99 33.999h-17h-37c-30 -0.666992 -53.833 4.5 -71.5 15.5s-26.5 25.167 -26.5 42.5c0 6.66699 1 12.834 3 18.501s32.333 29.5 91 71.5c18 12.667 35.5 26.667 52.5 42s25.833 25.333 26.5 30c0 4.66699 -4.16699 9.83398 -12.5 15.501
s-15.833 8.5 -22.5 8.5c-2.66699 0 -5 -0.333008 -7 -1l-35 -12c-2.66699 -1.33301 -5.33398 -2.33301 -8.00098 -3s-18 -3.66699 -46 -9c-66 -13.333 -100 -20.166 -102 -20.499s-3.66699 -0.833008 -5 -1.5c-8 -3.33301 -21.333 -10.833 -40 -22.5s-35 -17.5 -49 -17.5
c-11.333 -0.666992 -21.833 3.5 -31.5 12.5s-14.5 18.5 -14.5 28.5c0 24.667 15.833 46.334 47.5 65.001s100.5 39.667 206.5 63c16 3.33301 32.5 5.83301 49.5 7.5s35.167 2.5 54.5 2.5z" />
    <glyph glyph-name="four" unicode="4" horiz-adv-x="532" 
d="M378 608c14 -0.666992 27.5 -5.66309 40.5 -14.9961s19.5 -19.333 19.5 -30c0 -52.667 -14.333 -94.667 -43 -126s-41.334 -70 -38.001 -116c8 9.33301 17.833 16.333 29.5 21s26.167 7 43.5 7s30.666 -4.33301 39.999 -13s14 -30.334 14 -65.001
c0 -8 -8.33301 -14.167 -25 -18.5s-27.334 -7.83301 -32.001 -10.5c-3.33301 -2 -9.16602 -6.5 -17.499 -13.5s-15.166 -11.167 -20.499 -12.5c-4.66699 -1.33301 -11 -2 -19 -2h-16c-11.333 -1.33301 -19 -4.83301 -23 -10.5s-4.66699 -19.167 -2 -40.5
c1.33301 -12.667 1.83301 -23.334 1.5 -32.001s-0.833008 -17 -1.5 -25c-0.666992 -2.66699 -1 -5.33398 -1 -8.00098v-13c0 -4 2.5 -13 7.5 -27s7.83301 -26.667 8.5 -38c0 -8.66699 -3.83301 -16.667 -11.5 -24s-15.5 -11 -23.5 -11c-27.333 0 -50.5 13.167 -69.5 39.5
s-28.5 58.5 -28.5 96.5c-0.666992 10 1.33301 20.667 6 32s8.33398 23.666 11.001 36.999c-60 2.66699 -106.667 19.667 -140 51s-50 76 -50 134c0 8.66699 3.33301 21.667 10 39s10.667 30.333 12 39c0 4.66699 -0.166992 11.167 -0.5 19.5s-0.166016 14.5 0.500977 18.5
c0.666992 16 6 34.333 16 55s20.667 31 32 31c16.667 0 33.667 -5 51 -15s26 -20.333 26 -31c0 -4 -2.16699 -10 -6.5 -18s-6.5 -14 -6.5 -18s0.166992 -9.66699 0.5 -17s0.5 -12.666 0.5 -15.999c-0.666992 -7.33301 -4.83398 -17 -12.501 -29s-11.5 -26 -11.5 -42
c0 -24.667 5.66699 -46.834 17 -66.501s23 -29.5 35 -29.5c2 0 6.66699 0.166992 14 0.5s15 0.5 23 0.5c6.66699 30.667 14.5 58 23.5 82s14.167 38.333 15.5 43c28 91.333 48.333 145.333 61 162s26 25 40 25z" />
    <glyph glyph-name="five" unicode="5" horiz-adv-x="643" 
d="M349 613c6.66699 0 17.832 -0.666992 33.499 -2s28.167 -1.66602 37.5 -0.999023c46.667 1.33301 69.834 2 69.501 2s3.83398 -0.666992 12.501 -2c66 -16 100.333 -27.5 103 -34.5s4 -16.5 4 -28.5c0 -22.667 -7.83301 -40 -23.5 -52s-34.834 -18 -57.501 -18
c-7.33301 0 -23.5 6 -48.5 18s-62.5 16.667 -112.5 14c-38 -2.66699 -67.667 -4.5 -89 -5.5s-42.333 -1.16699 -63 -0.5c-5.33301 0 -12.166 0.166992 -20.499 0.5s-14.166 0.5 -17.499 0.5c-8.66699 0 -16.5 -12 -23.5 -36s-10.5 -46.333 -10.5 -67
c0 -25.333 6.16699 -44.166 18.5 -56.499s59.833 -19.833 142.5 -22.5c119.333 -5.33301 196.666 -18.833 231.999 -40.5s53 -57.834 53 -108.501c0 -42 -28.667 -84.167 -86 -126.5s-122.333 -63.5 -195 -63.5c-42.667 0 -74.667 2 -96 6s-43.666 11.333 -66.999 22
c-50.667 23.333 -83.167 41.166 -97.5 53.499s-21.5 24.833 -21.5 37.5c0 24 3.83301 41.667 11.5 53s19.167 17.333 34.5 18c9.33301 0 19.5 -2.5 30.5 -7.5s31.167 -16.167 60.5 -33.5c28.667 -18 50.667 -28.833 66 -32.5s33.333 -5.5 54 -5.5c24 0 60.667 11 110 33
s74.333 41.667 75 59c0 12 -17 21.333 -51 28s-79 10 -135 10c-64.667 -0.666992 -106.334 0 -125.001 2s-42.334 18.333 -71.001 49c-23.333 24 -36.666 44.167 -39.999 60.5s-5 40.833 -5 73.5c-0.666992 49.333 15.166 96.833 47.499 142.5s64.5 68.5 96.5 68.5
c4 0 10 -3 18 -9s14.333 -9 19 -9c6 0 17.167 1.83301 33.5 5.5s47.5 5.5 93.5 5.5z" />
    <glyph glyph-name="six" unicode="6" horiz-adv-x="519" 
d="M201 658c14 0 26.5029 -4.49707 37.5029 -13.4971s16.5 -20.5 16.5 -34.5c0 -6 -16.167 -34 -48.5 -84s-48.5 -136 -48.5 -258c-0.666992 -43.333 7.66602 -79.333 24.999 -108s37.666 -44 60.999 -46c16 -2 39.5 9.66699 70.5 35s46.5 45.666 46.5 60.999
c0 17.333 -6.33301 31.166 -19 41.499s-26.334 7.5 -41.001 -8.5c-36 -38 -54.167 -57.167 -54.5 -57.5s-1.16602 -0.5 -2.49902 -0.5c-18 -6.66699 -35.167 -6.5 -51.5 0.5s-24.5 21.5 -24.5 43.5c0 36.667 18 69 54 97s70 42 102 42c36 0 69.167 -15.833 99.5 -47.5
s45.5 -65.834 45.5 -102.501c0 -34 -22.5 -78.167 -67.5 -132.5s-87.167 -81.5 -126.5 -81.5c-64.667 0 -118.5 21 -161.5 63s-64.167 97.667 -63.5 167c-0.666992 2 -0.833984 3.5 -0.500977 4.5s9.83301 69.167 28.5 204.5c6 45.333 13.5 73.5 22.5 84.5
s14.833 24.833 17.5 41.5c6 38 15.667 62.333 29 73s31.333 16 54 16z" />
    <glyph glyph-name="seven" unicode="7" horiz-adv-x="608" 
d="M126 645c3.33301 -0.666992 8.49609 -2.16992 15.4961 -4.50293s12.5 -3.5 16.5 -3.5c2.66699 0 6.83398 0.666992 12.501 2s10.167 2 13.5 2c16 0 31.5 -2.33301 46.5 -7s37.833 -15.334 68.5 -32.001c14 -8.66699 27 -13.334 39 -14.001s24.667 -6 38 -16
c1.33301 -1.33301 1.83301 -1.66602 1.5 -0.999023s20.834 -25 63.501 -77c20 -24.667 26.667 -42.167 20 -52.5s-9.33398 -18.166 -8.00098 -23.499c0.666992 -5.33301 5 -9.33301 13 -12s18.333 -4 31 -4c43.333 0 78.333 4.33301 105 13s41.334 13.334 44.001 14.001
c23.333 -0.666992 38.333 -5 45 -13s10.334 -21.333 11.001 -40c0 -25.333 -10 -42.333 -30 -51s-69.667 -12.667 -149 -12c-31.333 0 -51.666 -1 -60.999 -3s-18.666 -4.66699 -27.999 -8c-2 -10 -4 -18.667 -6 -26s-6 -16.333 -12 -27c-1.33301 -2 -2.33301 -4 -3 -6
s-9.66699 -30.667 -27 -86c-10.667 -33.333 -16.167 -51.833 -16.5 -55.5s-0.5 -6.83398 -0.5 -9.50098c0 -6 2.66699 -12.333 8 -19s8.33301 -13 9 -19c0 -27.333 -8.33301 -51.166 -25 -71.499s-33 -30.5 -49 -30.5c-18 0 -33.333 8 -46 24s-18.667 36 -18 60
c0 9.33301 3 21.833 9 37.5s9.66699 26.5 11 32.5c0.666992 4.66699 2 13.5 4 26.5s4.33301 23.167 7 30.5l17 53l1 3c2.66699 18.667 5.33398 32.167 8.00098 40.5s6.33398 18.5 11.001 30.5c-4 -1.33301 -6.16699 -2 -6.5 -2s-48.833 -6.66699 -145.5 -20
c-4 -0.666992 -7.66699 -1.16699 -11 -1.5s-15.666 -1.16602 -36.999 -2.49902c-4.66699 0 -8.83398 -0.166992 -12.501 -0.5s-6.83398 -0.833008 -9.50098 -1.5c-5.33301 -1.33301 -14.833 -4.83301 -28.5 -10.5s-24.834 -8.5 -33.501 -8.5c-16.667 0 -31 4 -43 12
s-18 17.667 -18 29c0 24.667 11.5 46.667 34.5 66s47.167 29 72.5 29c2.66699 0 6.5 -3.16699 11.5 -9.5s9.16699 -9.5 12.5 -9.5c4.66699 0 15.667 2.33301 33 7s31.333 7 42 7c26 0.666992 42.5 1.5 49.5 2.5s17.167 2.83301 30.5 5.5c14.667 2 29 3.5 43 4.5
s28.667 1.5 44 1.5c0 43.333 -5 71.333 -15 84s-43.333 26 -100 40c-122.667 29.333 -184.834 45.833 -186.501 49.5s-2.5 8.83398 -2.5 15.501c0 20 9 36.333 27 49s37.667 19 59 19z" />
    <glyph glyph-name="eight" unicode="8" horiz-adv-x="523" 
d="M329 662c37.333 -0.666992 68.3252 -7.49512 92.9922 -20.4951s37 -31.167 37 -54.5c0 -28.667 -8.33301 -55.834 -25 -81.501s-53 -62.167 -109 -109.5c35.333 -43.333 57.333 -72.5 66 -87.5s13.334 -29.167 14.001 -42.5c0 -12 0.833008 -19.333 2.5 -22
s4.83398 -5.33398 9.50098 -8.00098l10.5 -7c1 -0.666992 1.83301 -1 2.5 -1c0 -0.666992 0.333008 -1.5 1 -2.5s4.33398 -18.5 11.001 -52.5c12.667 -74.667 -0.166016 -127.334 -38.499 -158.001s-87.166 -33.667 -146.499 -9c-6 2 -15.167 4.5 -27.5 7.5
s-21.166 5.83301 -26.499 8.5c-6 2 -13.667 6.33301 -23 13l-18 13c-38.667 23.333 -64.167 47.5 -76.5 72.5s-18.5 57.5 -18.5 97.5c0 18.667 4.5 38.5 13.5 59.5s24.5 44.833 46.5 71.5c14.667 17.333 25.334 28.666 32.001 33.999s17.334 12.666 32.001 21.999
c-41.333 74 -62.166 112.667 -62.499 116s-0.5 7 -0.5 11c0 28.667 10.167 51.167 30.5 67.5s42.166 18.166 65.499 5.49902c9.33301 16.667 23.833 30.334 43.5 41.001s40.167 16 61.5 16zM335.992 559.005c-14 0 -32.333 -8.66602 -55 -25.999s-33.667 -28.333 -33 -33
c-0.666992 -4 1.5 -9.33301 6.5 -16s8.16699 -11 9.5 -13c15.333 9.33301 33.5 23.666 54.5 42.999s31.5 32.666 31.5 39.999c0 1.33301 -1.33301 2.33301 -4 3s-6 1.33398 -10 2.00098zM243.992 325.006c-18 -13.333 -35.168 -33.668 -51.501 -61.001
s-24.5 -47.666 -24.5 -60.999c0 -25.333 15.5 -49.333 46.5 -72s59.5 -33.667 85.5 -33c16.667 -0.666992 29.334 1.33301 38.001 6s13 13 13 25c0 23.333 -12 56 -36 98s-47.667 74.667 -71 98z" />
    <glyph glyph-name="nine" unicode="9" horiz-adv-x="485" 
d="M232 641c64 0 109.671 -21.835 137.004 -65.502s34.333 -101.834 21 -174.501c-4 -20 -8 -45.5 -12 -76.5s-5.66699 -53.833 -5 -68.5c0 -10 0.833008 -24.667 2.5 -44s2.5 -33.666 2.5 -42.999c0 -6.66699 -1.5 -16.167 -4.5 -28.5s-4.5 -21.5 -4.5 -27.5
c0 -37.333 4.66699 -62.5 14 -75.5s14 -31.167 14 -54.5c0 -12.667 -4.5 -22.667 -13.5 -30s-25.167 -11 -48.5 -11c-18 0 -30.833 4.5 -38.5 13.5s-11.834 42.833 -12.501 101.5c-0.666992 22 -1 33.167 -1 33.5v1.5c-1.33301 2.66699 -4.33301 7.33398 -9 14.001
s-7 12.334 -7 17.001s0.833008 17.5 2.5 38.5s2.5 42.167 2.5 63.5c0 29.333 -0.833008 50 -2.5 62s-3.83398 18.333 -6.50098 19c-0.666992 0 -8.83398 -7.16699 -24.501 -21.5s-35.5 -21.5 -59.5 -21.5c-42.667 0 -75.5 12.333 -98.5 37s-34.5 59.667 -34.5 105
c0 78 18.167 136.833 54.5 176.5s80.166 59.5 131.499 59.5zM221.004 538.998c-20.667 0 -36.668 -10.8301 -48.001 -32.4971s-18.666 -51.834 -21.999 -90.501c-0.666992 -4 -0.833984 -9.5 -0.500977 -16.5s0.5 -12.5 0.5 -16.5c-0.666992 -11.333 0 -17.833 2 -19.5
s6.33301 -2.16699 13 -1.5h4.5c0.333008 0 28.833 25.333 85.5 76c10 9.33301 17.667 17.666 23 24.999s8 13.666 8 18.999c0 10 -7.16699 22 -21.5 36s-29.166 21 -44.499 21z" />
    <glyph glyph-name="colon" unicode=":" horiz-adv-x="255" 
d="M122 91c18 0 32.667 -6.66797 44 -20.001s17 -30 17 -50c0 -16 -6.5 -28.833 -19.5 -38.5s-27.833 -14.5 -44.5 -14.5c-20 0 -35.167 6 -45.5 18s-15.5 31 -15.5 57c0 10.667 7.16699 21.334 21.5 32.001s28.5 16 42.5 16zM168 348.999c24 0 40.167 -6 48.5 -18
s12.5 -30 12.5 -54c-0.666992 -10 -6 -20.333 -16 -31s-23.667 -16 -41 -16c-18.667 0 -34 5.33301 -46 16s-18 24 -18 40c-0.666992 18 4.33301 33 15 45s25.667 18 45 18z" />
    <glyph glyph-name="semicolon" unicode=";" horiz-adv-x="223" 
d="M142 163c8.66699 0 16.333 -5.16602 23 -15.499s10 -21.833 10 -34.5c0 -4.66699 -3.66699 -16.5 -11 -35.5s-19.333 -47.167 -36 -84.5l-11 -27c-2.66699 -6.66699 -11.667 -39.334 -27 -98.001c-38.667 -143.333 -60 -215.5 -64 -216.5s-7.66699 -1.5 -11 -1.5
c-10.667 0 -20.5 6.16699 -29.5 18.5s-13.5 24.833 -13.5 37.5c0.666992 20 6.5 59.667 17.5 119s23.167 110 36.5 152c32 104 54.5 161 67.5 171s29.167 15 48.5 15zM148.999 354.001c19.333 0 33.668 -5.00098 43.001 -15.001s14 -29 14 -57
c0 -16.667 -3.66699 -29.667 -11 -39s-16 -14 -26 -14c-26.667 0 -48.334 6.33301 -65.001 19s-25 26.334 -25 41.001c0 13.333 7 27.5 21 42.5s30.333 22.5 49 22.5z" />
    <glyph glyph-name="equal" unicode="=" horiz-adv-x="543" 
d="M285 283l8.50195 0.00195312c3 0 31.833 0.333008 86.5 1c48 0 79.333 -3.83301 94 -11.5s22.334 -20.834 23.001 -39.501c0 -15.333 -6 -27.333 -18 -36s-29.333 -13 -52 -13c-5.33301 0 -12 0.166992 -20 0.5s-13.333 0.833008 -16 1.5h-16.5h-19.5
c-16 -0.666992 -29.833 -1.5 -41.5 -2.5s-28.5 -3.5 -50.5 -7.5c-16.667 -3.33301 -30.834 -5.5 -42.501 -6.5s-35.834 -1.5 -72.501 -1.5c-32.667 0 -57.5 4.16699 -74.5 12.5s-25.5 20.166 -25.5 35.499c0 13.333 5.66699 24.5 17 33.5s84.666 20.167 219.999 33.5z
M284.002 424.002c58.667 4.66699 88 6.83301 88 6.5s1.66699 -0.166016 5 0.500977c50.667 0 83 -4 97 -12s21.333 -20.667 22 -38c0 -15.333 -5.33301 -27.333 -16 -36s-28 -13 -52 -13c-3.33301 -0.666992 -9.33301 -0.833984 -18 -0.500977s-15.334 0.5 -20.001 0.5
c-18 -0.666992 -36.667 -2.5 -56 -5.5s-33.333 -4.5 -42 -4.5c-1.33301 -0.666992 -1.5 -0.833984 -0.5 -0.500977s-21.5 0.5 -67.5 0.5c-9.33301 -0.666992 -22.666 -1.5 -39.999 -2.5s-30.333 -1.5 -39 -1.5c-32.667 0 -57.5 4.83301 -74.5 14.5s-25.5 21.167 -25.5 34.5
c0 10.667 3.16699 19.834 9.5 27.501s82.833 17.5 229.5 29.5z" />
    <glyph glyph-name="question" unicode="?" horiz-adv-x="353" 
d="M163 732c4 0 9.50098 -1.49414 16.501 -4.49414s12.167 -4.5 15.5 -4.5c4.66699 -1.33301 11.667 -1.66602 21 -0.999023s16.333 1 21 1c31.333 -3.33301 52.5 -22.5 63.5 -57.5s10.833 -63.833 -0.5 -86.5c-2.66699 -4.66699 -7.16699 -10.834 -13.5 -18.501
s-10.5 -13.167 -12.5 -16.5c-2.66699 -4.66699 -6.16699 -12.834 -10.5 -24.501s-8.83301 -19.834 -13.5 -24.501c-39.333 -40.667 -62.333 -68.667 -69 -84s-10 -29.333 -10 -42c0 -16 7.33301 -30.833 22 -44.5s29.334 -20.5 44.001 -20.5c4.66699 0 12 0.666992 22 2
l23 3c6.66699 0 13.334 -2.5 20.001 -7.5s10 -10.167 10 -15.5c-0.666992 -23.333 -8.83398 -43.333 -24.501 -60s-36.167 -25 -61.5 -25c-34.667 0 -69.667 17 -105 51s-53 70.333 -53 109c0 17.333 6.83301 40.666 20.5 69.999s33.167 61.666 58.5 96.999
c34 48.667 52.167 75.667 54.5 81s3.83301 10 4.5 14c-0.666992 2.66699 -2.33398 4.66699 -5.00098 6s-8.33398 2 -17.001 2c-2 -0.666992 -5 -0.833984 -9 -0.500977s-6.66699 0.5 -8 0.5c-10 -0.666992 -25.333 -5.83398 -46 -15.501s-36 -14.5 -46 -14.5
s-19.5 2.66699 -28.5 8s-13.5 12 -13.5 20c0 26.667 14 50.5 42 71.5s57.333 31.5 88 31.5zM261.001 119.006c10.667 -0.666992 23.3311 -6.83301 37.998 -18.5s22 -22.167 22 -31.5c0 -12 -9.66699 -29.333 -29 -52s-33.333 -34 -42 -34c-17.333 0 -29.666 5 -36.999 15
s-10.666 31 -9.99902 63c0 12 6.83301 24.5 20.5 37.5s26.167 19.833 37.5 20.5z" />
    <glyph glyph-name="A" unicode="A" horiz-adv-x="570" 
d="M303 643c52 0 86.8252 -4.66895 104.492 -14.002s31.834 -63.666 42.501 -162.999c4.66699 -42 20.334 -74 47.001 -96s17.334 -45.667 -27.999 -71l12 -68c0.666992 -7.33301 3.33398 -17.833 8.00098 -31.5s8 -23.834 10 -30.501c0 -3.33301 0.5 -7.66602 1.5 -12.999
s1.5 -9 1.5 -11c2.66699 -15.333 9.66699 -29.5 21 -42.5s17 -22.5 17 -28.5c0 -14 -5.16699 -31.833 -15.5 -53.5s-20.166 -32.834 -29.499 -33.501c-26 0 -46.167 8.16699 -60.5 24.5s-27.833 71.166 -40.5 164.499c-5.33301 33.333 -11.333 55 -18 65s-16 15 -28 15
c-1.33301 0 -2.33301 -0.166992 -3 -0.5s-13 -8.83301 -37 -25.5c-7.33301 -5.33301 -15.166 -9 -23.499 -11s-18.833 -3 -31.5 -3c-25.333 -0.666992 -42.666 -6.16699 -51.999 -16.5s-15.333 -25.5 -18 -45.5c-1.33301 -6 -1.66602 -14.167 -0.999023 -24.5
s1 -17.166 1 -20.499c-0.666992 -2 -1 -4.33301 -1 -7s-10.333 -30.667 -31 -84c-20 -50.667 -31.667 -77 -35 -79s-7.33301 -3 -12 -3c-29.333 0 -49.833 5.33301 -61.5 16s-17.5 25.667 -17.5 45c0 16 4.83301 35.833 14.5 59.5s16.5 42.5 20.5 56.5
c4 16.667 7 30.5 9 41.5s3.33301 19.167 4 24.5c0 2.66699 -2 6.5 -6 11.5s-6 9.16699 -6 12.5c0 33.333 3.83301 54.833 11.5 64.5s18.834 16.834 33.501 21.501c18 5.33301 33.667 24.833 47 58.5s27.666 82.167 42.999 145.5c10.667 44.667 26 80.834 46 108.501
s40.333 41.5 61 41.5zM328.992 521.998c-10 0 -22.498 -26.999 -37.498 -80.999s-20.167 -73.333 -15.5 -58c-2 -5.33301 -6 -12.333 -12 -21s-9.66699 -14.667 -11 -18c-0.666992 -1.33301 -1.33398 -2.83301 -2.00098 -4.5s-1.33398 -3.83398 -2.00098 -6.50098l79 21
l28 20c-9.33301 46.667 -14.333 73 -15 79s-0.666992 12 0 18c0 22 -1 36 -3 42s-5 9 -9 9z" />
    <glyph glyph-name="B" unicode="B" horiz-adv-x="569" 
d="M281 730c10 -0.666992 19.335 -4.83984 28.002 -12.5068s13.334 -16.167 14.001 -25.5c0 -24.667 -0.333008 -38.667 -1 -42s-1 -6.66602 -1 -9.99902c49.333 -15.333 78.833 -27.5 88.5 -36.5s14.5 -28.167 14.5 -57.5c0 -33.333 -7.16699 -57.5 -21.5 -72.5
s-39.833 -32.5 -76.5 -52.5c-8 -4.66699 -14 -8.83398 -18 -12.501s-6 -6.5 -6 -8.5s0.833008 -3.83301 2.5 -5.5s16.167 -6.16699 43.5 -13.5c49.333 -14.667 93.5 -42.667 132.5 -84s58.5 -82.666 58.5 -123.999c0 -58 -26.333 -113 -79 -165s-116 -78 -190 -78
c-65.333 0 -123.166 15.667 -173.499 47s-75.5 65.333 -75.5 102c0 2.66699 2.33301 7.33398 7 14.001s7 12 7 16s-0.166992 10.667 -0.5 20s-0.5 16.333 -0.5 21c0 7.33301 8 22.333 24 45s27.667 36.334 35 41.001c6 3.33301 13.5 5 22.5 5s17.5 -1.66699 25.5 -5
c6.66699 -4 12.5 -9.16699 17.5 -15.5s8.5 -13.166 10.5 -20.499c0.666992 -4 1 -8.16699 1 -12.5s-0.333008 -8.16602 -1 -11.499c-1.33301 -5.33301 -3.33301 -10.5 -6 -15.5s-10 -15.167 -22 -30.5c-6.66699 -8.66699 -10.167 -13.667 -10.5 -15
s-0.5 -2.66602 -0.5 -3.99902c0 -22.667 9.66699 -41.5 29 -56.5s46 -22.5 80 -22.5c36.667 0 77.334 15.667 122.001 47s67 61.333 67 90c0 17.333 -5 32.333 -15 45s-50 36.667 -120 72v-15c0 -5.33301 0.333008 -20 1 -44c0 -8 -1 -19.167 -3 -33.5s-3 -24.5 -3 -30.5
c0 -4.66699 3.83301 -10.334 11.5 -17.001s11.5 -12 11.5 -16c0 -27.333 -6.5 -47.833 -19.5 -61.5s-32.833 -20.167 -59.5 -19.5c-9.33301 0 -16.5 4.5 -21.5 13.5s-7.5 20.5 -7.5 34.5c0 2 1 4.83301 3 8.5s3 6.5 3 8.5c0 7.33301 -4.83301 13.5 -14.5 18.5
s-14.5 11.167 -14.5 18.5c0 5.33301 3.83301 13.666 11.5 24.999s11.5 27 11.5 47c-0.666992 30.667 -2.33398 49.334 -5.00098 56.001s-2 24.334 2 53.001c-37.333 38 -56 57.167 -56 57.5v9.5c0 13.333 5.16699 26.5 15.5 39.5s24.833 25.5 43.5 37.5
c0 12.667 0.5 25.334 1.5 38.001s2.16699 25.334 3.5 38.001h-8.5c-3 0 -37.167 -2 -102.5 -6c-10 -0.666992 -20.167 -1 -30.5 -1s-22.5 0.333008 -36.5 1c-14 0 -24.5 -3.33301 -31.5 -10s-12.167 -10 -15.5 -10c-20.667 0 -40.834 4.83301 -60.501 14.5
s-29.5 22.167 -29.5 37.5c0.666992 23.333 16.167 41.666 46.5 54.999s71.5 20.333 123.5 21c6 0 15.667 -1 29 -3s23.666 -3 30.999 -3c20.667 -0.666992 36.167 0.333008 46.5 3s27.833 3.66699 52.5 3c15.333 46 26.166 70.167 32.499 72.5s15.166 3.5 26.499 3.5z" />
    <glyph glyph-name="C" unicode="C" horiz-adv-x="528" 
d="M307 596c28.667 0 54.5039 -12 77.5039 -36s39.167 -58.333 48.5 -103c4 -23.333 1.66699 -41.666 -7 -54.999s-26 -20 -52 -20c-3.33301 0 -3.83301 -0.166992 -1.5 -0.5s-13.834 25.834 -48.501 78.501c-20 28.667 -49 20.667 -87 -24s-61 -102 -69 -172
c-3.33301 -28 6.66699 -56.667 30 -86s46.333 -44 69 -44c8.66699 0 24.5 6.33301 47.5 19s40.167 24.667 51.5 36l48.5 50.5c0.333008 0.333008 8.83301 0.5 25.5 0.5c35.333 0 56 -4.83301 62 -14.5s5.33301 -23.834 -2 -42.501c-11.333 -28 -47.5 -62.333 -108.5 -103
s-102.167 -61 -123.5 -61c-51.333 0 -99.666 23.833 -144.999 71.5s-65.333 106.5 -60 176.5c3.33301 49.333 13.166 93.666 29.499 132.999s39.166 74.333 68.499 105c23.333 24 49.166 45.167 77.499 63.5s51.166 27.5 68.499 27.5z" />
    <glyph glyph-name="D" unicode="D" horiz-adv-x="814" 
d="M309 632c89.333 0 153.498 -4.16602 192.498 -12.499s78.5 -22.5 118.5 -42.5c60 -31.333 101.333 -72.333 124 -123s25.667 -106 9 -166c-25.333 -90 -56.666 -153.833 -93.999 -191.5s-92.666 -76.834 -165.999 -117.501c-24.667 -13.333 -53 -25.166 -85 -35.499
s-59.333 -15.5 -82 -15.5c-32 0 -60 4 -84 12s-55 39 -93 93l-19 27v1c0 4.66699 1.33301 12.167 4 22.5s4 18.5 4 24.5s-0.5 15 -1.5 27s-1.5 21.333 -1.5 28c0 8.66699 0.5 22 1.5 40s1.5 31.667 1.5 41c0 10 -1.33301 25.5 -4 46.5s-3.66699 36.833 -3 47.5
c0 14.667 1.16699 32.667 3.5 54s7.83301 59.333 16.5 114c-59.333 -6.66699 -89.833 -10.334 -91.5 -11.001s-3.16699 -1 -4.5 -1c-60 -22.667 -91.5 -34 -94.5 -34h-8.5c-8 0 -15.5 4.33301 -22.5 13s-10.5 18 -10.5 28c0 22 11 41.167 33 57.5s55.667 29.833 101 40.5
c35.333 8 79 15.5 131 22.5s93.667 10.5 125 10.5zM266.998 522.001c-4.66699 -13.333 -7.83398 -25.498 -9.50098 -36.498s-1.83398 -27.5 -0.500977 -49.5c1.33301 -37.333 1.16602 -68.5 -0.500977 -93.5s-5.83398 -54.5 -12.501 -88.5
c-3.33301 -16 -4.83301 -26.333 -4.5 -31s1.83301 -6.66699 4.5 -6c0.666992 -0.666992 3.66699 0.333008 9 3s10 4 14 4c25.333 0 44.333 -5 57 -15s19 -24.333 19 -43c0 -13.333 -13.333 -33.333 -40 -60s-39.667 -43 -39 -49c0 -6 5.33301 -11.167 16 -15.5
s23.334 -6.5 38.001 -6.5c26.667 0 56.667 6.5 90 19.5s68 31.5 104 55.5c51.333 33.333 87.833 67.666 109.5 102.999s32.834 74 33.501 116c0 45.333 -10.333 81.666 -31 108.999s-52 48 -94 62c-49.333 15.333 -93.666 24.333 -132.999 27s-82.666 1 -129.999 -5z" />
    <glyph glyph-name="E" unicode="E" 
d="M94 464c-2 1.33301 -3.66797 3.00391 -5.00098 5.00391s-2 21.333 -2 58c0 11.333 1.16699 20.333 3.5 27s20.5 13.667 54.5 21c2 0 4.33301 0.666992 7 2s23.334 14 62.001 38c14 8.66699 26.167 15 36.5 19s23.5 4 39.5 0c4 -0.666992 7.16699 -0.833984 9.5 -0.500977
s9.5 5.16602 21.5 14.499c9.33301 6.66699 34.833 12.667 76.5 18s78.834 8 111.501 8c8 0 16.167 -3 24.5 -9s12.5 -12.333 12.5 -19c0 -17.333 -5.33301 -34.833 -16 -52.5s-23.334 -27.5 -38.001 -29.5c-5.33301 -1.33301 -13.5 -1.5 -24.5 -0.5
s-19.167 1.16699 -24.5 0.5c-76.667 -13.333 -133.167 -25.5 -169.5 -36.5s-60.5 -21.833 -72.5 -32.5c-29.333 -26.667 -46.666 -40.5 -51.999 -41.5s-10.666 -1.16699 -15.999 -0.5c20.667 -20.667 30.834 -35.167 30.501 -43.5s-4.5 -18.5 -12.5 -30.5h8
c4 0 7.33301 0.333008 10 1c5.33301 0 13.666 0.333008 24.999 1s20 1 26 1l24 2l69 5c16 1.33301 28.333 2 37 2s15.334 0.333008 20.001 1c8 0.666992 14.667 4.5 20 11.5s13.333 10.5 24 10.5c5.33301 0 13 -1 23 -3s17.333 -3 22 -3
c2.66699 -0.666992 7.33398 -0.833984 14.001 -0.500977s12 0.5 16 0.5c11.333 -1.33301 21.333 -5 30 -11s13 -12 13 -18c0 -13.333 -9.83301 -31.833 -29.5 -55.5s-37.5 -35.167 -53.5 -34.5c-2 0 -5.16699 0.666992 -9.5 2s-7.5 2 -9.5 2c-9.33301 0 -19 -0.5 -29 -1.5
s-22.667 -2.5 -38 -4.5c-34.667 -4.66699 -58 -7.5 -70 -8.5s-22.333 -1.5 -31 -1.5c-3.33301 0 -8.33301 0.333008 -15 1s-11.334 1 -14.001 1c-6 0 -14.5 -3 -25.5 -9s-19.167 -9 -24.5 -9c-4.66699 0 -11.334 1.16699 -20.001 3.5s-15 3.83301 -19 4.5h-2h-3
c-3.33301 -46.667 9.66699 -82.834 39 -108.501s75 -38.5 137 -38.5c67.333 -0.666992 119.166 8.16602 155.499 26.499s65.166 27.5 86.499 27.5c6.66699 0 12.834 -4.66699 18.501 -14s8.5 -18.666 8.5 -27.999c0 -38 -26.833 -68.333 -80.5 -91
s-114.834 -34 -183.501 -34c-96 0 -168 23.667 -216 71s-72 122.333 -72 225c0 35.333 5.83301 68.333 17.5 99s26.5 50.667 44.5 60z" />
    <glyph glyph-name="F" unicode="F" horiz-adv-x="759" 
d="M681 642c31.333 0 52.1709 -4.6709 62.5039 -14.0039s15.5 -29.333 15.5 -60c0 -7.33301 -3.33301 -13.666 -10 -18.999s-30.334 -11.666 -71.001 -18.999c-68 -12.667 -101.833 -19 -101.5 -19s-4.16699 0 -13.5 0l-64 -3.5c-6 -0.333008 -13 -1.16602 -21 -2.49902
l-60 -6l-10 -1c-4 -0.666992 -10 -1.33398 -18 -2.00098s-14 -1 -18 -1c-2 -0.666992 -3.66699 -1 -5 -1s-16.666 -1.33301 -45.999 -4c-7.33301 -43.333 -13 -73.666 -17 -90.999s-9.33301 -35.666 -16 -54.999c2 -0.666992 2 -0.833984 0 -0.500977s51 13.5 159 39.5
c82 19.333 148.667 19 200 -1s77 -48.667 77 -86c-0.666992 -12 -7.83398 -22.833 -21.501 -32.5s-27.834 -14.5 -42.501 -14.5c-8 -0.666992 -19.167 4 -33.5 14s-25.5 15.333 -33.5 16c-9.33301 0 -19.833 -0.666992 -31.5 -2s-57.834 -8.33301 -138.501 -21
c-46 -7.33301 -70.667 -12.833 -74 -16.5s-22.666 -8.5 -57.999 -14.5c0 -21.333 -1.5 -35.833 -4.5 -43.5s-4.5 -15.5 -4.5 -23.5c0 -3.33301 1.33301 -8.16602 4 -14.499s4 -10.833 4 -13.5c0 -3.33301 -0.333008 -7.16602 -1 -11.499s-3 -17.833 -7 -40.5
c-2.66699 -12.667 -3.33398 -29 -2.00098 -49s2 -27 2 -21c1.33301 -21.333 6.5 -37.333 15.5 -48s13.5 -19 13.5 -25c0 -19.333 -6.33301 -36.333 -19 -51s-29.667 -22.334 -51 -23.001c-16.667 0 -32.334 7.66699 -47.001 23s-23.334 30.666 -26.001 45.999
c-1.33301 6.66699 -1.5 16.334 -0.5 29.001s1.16699 22.334 0.5 29.001c-2 12 -3.33301 22.5 -4 31.5s-1 17.5 -1 25.5c0 2.66699 2.33301 6 7 10s7 7.33301 7 10c0 1.33301 -0.333008 3.66602 -1 6.99902s-1 6 -1 8c0 -12.667 -0.666992 -4.66699 -2 24
s1.66699 66.667 9 114c-6.66699 -1.33301 -13 -2.5 -19 -3.5s-24 -1.16699 -54 -0.5c-35.333 0 -52.333 -0.166992 -51 -0.5s1.66602 -0.166016 0.999023 0.500977c-23.333 1.33301 -39 5.83301 -47 13.5s-12 20.167 -12 37.5c0 25.333 4.83301 43.333 14.5 54
s27.5 16 53.5 16c5.33301 0 12.833 -1.33301 22.5 -4s17.167 -4 22.5 -4c17.333 0 31.833 0.166992 43.5 0.5s20.834 1.16602 27.501 2.49902c0.666992 13.333 1.66699 24.833 3 34.5s3 22.834 5 39.501c3.33301 18 5.5 32.667 6.5 44s2.5 25 4.5 41
c-20 -1.33301 -40.833 -1.83301 -62.5 -1.5s-31.5 0.5 -29.5 0.5c-30.667 -0.666992 -55.667 6.66602 -75 21.999s-29 37 -29 65c0 12.667 3.33301 22.5 10 29.5s36.667 10.5 90 10.5c6.66699 0 39.5 -2.33301 98.5 -7s97.167 -7 114.5 -7c36.667 0 81 2 133 6
s87.333 8.66699 106 14c30.667 8 54.834 13.5 72.501 16.5s34.167 4.5 49.5 4.5z" />
    <glyph glyph-name="G" unicode="G" horiz-adv-x="632" 
d="M59 199l-18.999 46.0029c-3.33301 6 -1.83301 17.333 4.5 34s9.83301 31.667 10.5 45c0.666992 22 4.83398 43.5 12.501 64.5s33.5 65.833 77.5 134.5c15.333 24 29 42.333 41 55s39.333 29 82 49c70 32 127.667 34.167 173 6.5s68 -63.167 68 -106.5
c0 -17.333 -6.66699 -31.833 -20 -43.5s-27 -17.5 -41 -17.5c-10.667 0 -21 3.83301 -31 11.5s-18.333 17.5 -25 29.5c-14 23.333 -21 35.166 -21 35.499s-0.666992 0.5 -2 0.5c-19.333 0 -37 -3.66699 -53 -11s-34 -20 -54 -38c-29.333 -26.667 -55.833 -64.5 -79.5 -113.5
s-35.5 -89.167 -35.5 -120.5c0 -34.667 6.33301 -61.834 19 -81.501s30.334 -29.167 53.001 -28.5c14.667 -0.666992 36 8.5 64 27.5s60.333 46.5 97 82.5c46.667 45.333 73.167 69.833 79.5 73.5s12.833 5.5 19.5 5.5c30.667 0 51.667 -8.33301 63 -25s17.333 -43 18 -79
c0 -62.667 6.16699 -109.334 18.5 -140.001s18.5 -45.667 18.5 -45c0 -13.333 -3.66699 -25.333 -11 -36s-15.333 -16 -24 -16c-74.667 0 -109.834 29.333 -105.501 88s2.5 89.334 -5.5 92.001c-18 4 -41.5 -17.5 -70.5 -64.5s-79.833 -70.5 -152.5 -70.5
c-36.667 0 -66.334 7.16699 -89.001 21.5s-49.334 59.166 -80.001 134.499z" />
    <glyph glyph-name="H" unicode="H" horiz-adv-x="633" 
d="M138 614c22.667 0 40.3311 -9.16797 52.998 -27.501s19 -51.166 19 -98.499c0 -2.66699 -1.5 -6.33398 -4.5 -11.001s-4.5 -8 -4.5 -10c0 -3.33301 0.333008 -8.33301 1 -15s1.33398 -11.667 2.00098 -15c-0.666992 -6.66699 -2.16699 -19.5 -4.5 -38.5
s-4.16602 -39.5 -5.49902 -61.5c32.667 -0.666992 69.834 2.33301 111.501 9s85.5 17.667 131.5 33c0.666992 24 2.16699 47 4.5 69s3.5 38.667 3.5 50c-1.33301 26.667 -1.83301 41 -1.5 43s0.833008 4.33301 1.5 7c2.66699 16 9.16699 29.667 19.5 41s21.5 17.333 33.5 18
c24 0 39.333 -6 46 -18s10 -30 10 -54c-0.666992 -4.66699 -1.5 -11 -2.5 -19s-1.5 -13.667 -1.5 -17c0 -4.66699 0.666992 -11.834 2 -21.501s2 -18.167 2 -25.5c0 -4.66699 -0.5 -10.167 -1.5 -16.5s-1.5 -9.83301 -1.5 -10.5c0 -1.33301 1.66699 -0.833008 5 1.5
s6.33301 3.5 9 3.5c15.333 0 27.166 -5.66699 35.499 -17s12.5 -26.333 12.5 -45c-0.666992 -10 -2 -17.833 -4 -23.5s-27 -18.167 -75 -37.5c1.33301 -15.333 4 -27.833 8 -37.5s6 -17.167 6 -22.5c-0.666992 -7.33301 -2.83398 -15.5 -6.50098 -24.5
s-4.83398 -25.833 -3.50098 -50.5v-32.5v-26.5c-2 -34.667 0.5 -56.5 7.5 -65.5s10.5 -19.167 10.5 -30.5c0 -6.66699 -8.66699 -16.667 -26 -30s-29 -20 -35 -20c-9.33301 0.666992 -21.5 7.66699 -36.5 21s-22.5 24 -22.5 32
c0 0.666992 -0.166992 0.333984 -0.5 -0.999023s2.83398 14 9.50098 46c0.666992 4.66699 1 9.33398 1 14.001s-0.333008 9.66699 -1 15c-4 23.333 -6 35.5 -6 36.5v2.5c0 2.66699 1 7.33398 3 14.001s3 12 3 16c0 9.33301 -1.16699 21.166 -3.5 35.499
s-3.16602 37.833 -2.49902 70.5c-36 -12.667 -76 -22.5 -120 -29.5s-84.333 -10.167 -121 -9.5c-2.66699 -0.666992 -5.5 0.333008 -8.5 3l-4.5 4c-0.666992 0 -1 -0.166992 -1 -0.5s0.333008 -2.5 1 -6.5v-14.5v-10.5c-0.666992 -2.66699 -1 -4.5 -1 -5.5
s0.333008 -1.5 1 -1.5c-0.666992 0 8.83301 -4 28.5 -12s29.834 -30.333 30.501 -67c-0.666992 -46.667 -6.5 -81 -17.5 -103s-26.167 -33 -45.5 -33c-24.667 0 -44 7.66699 -58 23s-23 58.333 -27 129c-2 24 -4 44.333 -6 61s-4.33301 27.667 -7 33
c-3.33301 4.66699 -10 9.66699 -20 15s-15 11 -15 17c0 20.667 6.33301 37 19 49l21 20v0l4 56v2.5v42.5c-0.666992 4.66699 -0.833984 14.834 -0.500977 30.501s0.5 28.5 0.5 38.5c-2 28.667 -3 43.5 -3 44.5v3.5c0 19.333 5 35.166 15 47.499s21.333 18.5 34 18.5z" />
    <glyph glyph-name="I" unicode="I" horiz-adv-x="273" 
d="M138 587c21.333 0 36.498 -4.17285 45.498 -12.5059s14.167 -27.166 15.5 -56.499v-46.5v-42.5c-1.33301 -18 -3.16602 -48.5 -5.49902 -91.5s-3.5 -77.167 -3.5 -102.5c0 -15.333 0.333008 -37.666 1 -66.999s1.33398 -46.666 2.00098 -51.999
c0.666992 -4 1.5 -7.66699 2.5 -11s2.16699 -6 3.5 -8c1.33301 -3.33301 5.5 -9.66602 12.5 -18.999s10.5 -17 10.5 -23c0 -16.667 -6.83301 -32.667 -20.5 -48s-32.167 -23 -55.5 -23c-16 0 -29.833 13.833 -41.5 41.5s-19.167 63.5 -22.5 107.5
c-1.33301 8.66699 -2 18.334 -2 29.001s0.666992 22.667 2 36c0.666992 16 2.5 41.333 5.5 76s4.5 60.334 4.5 77.001c0 6 -0.333008 15.667 -1 29s-1 23.333 -1 30c0 4 0.666992 10.333 2 19l3 20l-3 30.5c-1.33301 13.667 -2 24.167 -2 31.5c0 34.667 4 56 12 64
s20 12 36 12z" />
    <glyph glyph-name="J" unicode="J" horiz-adv-x="399" 
d="M224 706c18 0 32.668 -7.16504 44.001 -21.498s29 -87.5 53 -219.5c2.66699 -16 4.5 -44.333 5.5 -85s1.5 -100.334 1.5 -179.001c0 -94.667 -26 -176.834 -78 -246.501s-116.333 -104.5 -193 -104.5c-46 0 -93.5 15.833 -142.5 47.5s-73.5 62.5 -73.5 92.5
c0 22 8.5 44.333 25.5 67s34.833 34 53.5 34c12.667 -0.666992 22.167 -3.5 28.5 -8.5s10.5 -27.167 12.5 -66.5c1.33301 -16.667 9 -29.667 23 -39s36 -14 66 -14c36 0 63 5.33301 81 16s38 38 60 82c26 53.333 38.833 99.5 38.5 138.5s-6.5 119.167 -18.5 240.5
c-6.66699 58 -14.834 101.167 -24.501 129.5s-14.5 49.5 -14.5 63.5c0 36.667 4.66699 58 14 64s22 9 38 9z" />
    <glyph glyph-name="K" unicode="K" horiz-adv-x="539" 
d="M185 391l22.001 20.999c26 24.667 53.167 44.334 81.5 59.001s45.166 26.334 50.499 35.001c19.333 32 30.833 49 34.5 51s8.5 4.33301 14.5 7c16.667 6 29.667 9 39 9s14 -3 14 -9v-121l-6 -4c-48 -38.667 -73.667 -59 -77 -61s-6 -3.66699 -8 -5
c-12 -7.33301 -26.667 -15.666 -44 -24.999s-29.666 -17 -36.999 -23s-14.666 -13.167 -21.999 -21.5s-13 -15.5 -17 -21.5c-2.66699 -4 -2.5 -7.16699 0.5 -9.5s11.167 -5.5 24.5 -9.5c14.667 -5.33301 43.667 -21.333 87 -48s89.333 -39 138 -37
c108.667 4 167 1.83301 175 -6.5s12 -20.833 12 -37.5c0 -26 -16 -44 -48 -54s-89.667 -15 -173 -15c-26.667 0 -60.834 7.66699 -102.501 23s-75.5 31.666 -101.5 48.999c-27.333 16.667 -41.5 25.167 -42.5 25.5l-1.5 0.5c0 -0.666992 4.66699 -8.83398 14 -24.501
s14 -28.834 14 -39.501c-0.666992 -15.333 -5.83398 -30.833 -15.501 -46.5s-21.167 -23.167 -34.5 -22.5c-33.333 0 -58.166 14.667 -74.499 44s-24.166 72 -23.499 128c0 33.333 -0.166992 50.666 -0.5 51.999s-0.5 2.66602 -0.5 3.99902c-0.666992 0.666992 -2 3 -4 7
s-3 7.33301 -3 10c-0.666992 6.66699 -0.5 14 0.5 22s2.5 19 4.5 33c0.666992 8 0.666992 19.167 0 33.5s-0.666992 23.5 0 27.5c0 10.667 1.5 27.334 4.5 50.001s4.5 39.667 4.5 51c0 6.66699 -1 17 -3 31s-3 25 -3 33c0 22.667 4.16699 40.834 12.5 54.501
s19.166 20.5 32.499 20.5c22.667 0 39.5 -9.66699 50.5 -29s16.833 -50.666 17.5 -93.999c-0.666992 -30.667 -1.33398 -53 -2.00098 -67s-2 -30.667 -4 -50z" />
    <glyph glyph-name="L" unicode="L" horiz-adv-x="540" 
d="M179 608c18 0 33 -7.49609 45 -22.4961s18 -30.833 18 -47.5c0 -23.333 -5.5 -35.333 -16.5 -36s-17.833 -7.66699 -20.5 -21c-1.33301 -5.33301 -3.33301 -16.833 -6 -34.5s-7 -40.5 -13 -68.5c-20 -92 -22.5 -160 -7.5 -204s58.167 -66 129.5 -66
c49.333 -0.666992 83.666 3 102.999 11l34 14c43.333 13.333 67.5 21.166 72.5 23.499s9.5 4.83301 13.5 7.5c43.333 24.667 65.166 37.167 65.499 37.5s1.5 0.5 3.5 0.5c28.667 0 47.834 -2.16699 57.501 -6.5s14.834 -10.5 15.501 -18.5
c0 -22.667 -5.33301 -41.834 -16 -57.501s-42.334 -33.834 -95.001 -54.501c-117.333 -46.667 -183.5 -70.834 -198.5 -72.501s-33.833 -2.5 -56.5 -2.5c-96.667 0 -166.667 33.667 -210 101s-52 163 -26 287c26 124.667 45.333 194.167 58 208.5s29.334 21.5 50.001 21.5z
" />
    <glyph glyph-name="M" unicode="M" horiz-adv-x="771" 
d="M566 561c27.333 0 50.3398 -8.16211 69.0068 -24.4951s37.667 -50.5 57 -102.5c13.333 -38.667 21.666 -64.5 24.999 -77.5s3.66602 -40.833 0.999023 -83.5c-2 -20.667 -2.16699 -38.167 -0.5 -52.5s8.83398 -36.5 21.501 -66.5c12 -30.667 16 -56.834 12 -78.501
s-12.667 -32.5 -26 -32.5c-43.333 0 -73.333 15.333 -90 46s-25 75.667 -25 135c0 7.33301 0.333008 19 1 35s1 28.333 1 37c0 22 -5.66699 51.167 -17 87.5s-22.333 55.833 -33 58.5h-4h-4c-10 -2 -22 -16.833 -36 -44.5s-27.333 -49.5 -40 -65.5
c-12 -14.667 -32.667 -58.167 -62 -130.5s-59 -108.5 -89 -108.5c-16 0 -28.833 2.5 -38.5 7.5s-21.834 56.5 -36.501 154.5c-14.667 92.667 -21.334 138.667 -20.001 138s1.66602 -1 0.999023 -1c-2.66699 0 -6.83398 -6.16699 -12.501 -18.5s-12.167 -28.5 -19.5 -48.5
c-9.33301 -24 -17.333 -50.333 -24 -79s-10 -50.334 -10 -65.001s2.16699 -30.334 6.5 -47.001s6.5 -38 6.5 -64c-0.666992 -20.667 -5.5 -37.5 -14.5 -50.5s-19.167 -19.5 -30.5 -19.5c-26 0 -45 6.83301 -57 20.5s-18 41.167 -18 82.5c0 90 5.5 160.5 16.5 211.5
s29.167 91.167 54.5 120.5c32.667 38 54.667 61.833 66 71.5s20 14.5 26 14.5c34.667 0 62.167 -9.66699 82.5 -29s31.5 -45.333 33.5 -78c0.666992 -22.667 2 -36.834 4 -42.501s5 -8.5 9 -8.5c1.33301 0 3.66602 0.833008 6.99902 2.5s7.66602 5.16699 12.999 10.5
c31.333 28.667 54.166 57.167 68.499 85.5s32.5 51.166 54.5 68.499c12.667 10 24.834 17.667 36.501 23s23.167 8 34.5 8z" />
    <glyph glyph-name="N" unicode="N" horiz-adv-x="715" 
d="M532 502c9.33301 -0.666992 17.332 -3.83301 23.999 -9.5s13.667 -28.167 21 -67.5c2 -11.333 8.16699 -34.166 18.5 -68.499s19.833 -63.5 28.5 -87.5c34 -102 51.167 -154.333 51.5 -157s0.5 -5 0.5 -7c0 -34 -13.667 -61 -41 -81s-64 -30 -110 -30
c-56 0 -113.167 19.333 -171.5 58s-114.5 97.334 -168.5 176.001c-2 -12 -3.66699 -26.667 -5 -44s-1.66602 -32 -0.999023 -44c1.33301 -22 4 -39.833 8 -53.5s6 -23.5 6 -29.5c0 -10 -5.83301 -23.5 -17.5 -40.5s-22.167 -25.5 -31.5 -25.5
c-31.333 0 -52.166 3.66699 -62.499 11s-15.5 19 -15.5 35c0 24.667 4.16699 74.5 12.5 149.5s16.5 131.833 24.5 170.5c-15.333 26.667 -24.333 42.667 -27 48s-4.66699 10.333 -6 15c-10.667 26 -10.834 47.833 -0.500977 65.5s24.5 26.5 42.5 26.5
c4 0 8.66699 -1.33301 14 -4s51 -72 137 -208c39.333 -63.333 81.5 -111.833 126.5 -145.5s85.5 -50.167 121.5 -49.5h46.5c0.333008 0 0.833008 1.33301 1.5 4v3.5v6.5l-2 8l-20 49c-4 8 -7.5 17.333 -10.5 28s-6.5 28.667 -10.5 54
c-10 55.333 -20.833 88.166 -32.5 98.499s-17.5 36.833 -17.5 79.5c-0.666992 23.333 4.33301 40.166 15 50.499s27.667 15.5 51 15.5z" />
    <glyph glyph-name="O" unicode="O" horiz-adv-x="730" 
d="M332 595c57.333 -0.666992 127.501 -26.166 210.501 -76.499s124.5 -104.166 124.5 -161.499c0 -36.667 -13.333 -79.334 -40 -128.001s-56.334 -87.334 -89.001 -116.001c-28.667 -25.333 -62.5 -46.5 -101.5 -63.5s-76.167 -25.5 -111.5 -25.5
c-80 0 -143.333 22.667 -190 68s-78 114.666 -94 207.999c-6 32 -1.83301 50.667 12.5 56s21.5 14 21.5 26c0 2 -2.66699 5.83301 -8 11.5s-8 10.5 -8 14.5c-0.666992 16 5.33301 31.833 18 47.5s32 33.167 58 52.5c44.667 32.667 81.667 55.334 111 68.001s58 19 86 19z
M321.001 484.001c-1.33301 0 -2.16699 -0.166992 -2.5 -0.5s-17.833 -5.5 -52.5 -15.5c-44 -13.333 -74.667 -35.833 -92 -67.5s-23 -72.167 -17 -121.5c5.33301 -51.333 22.833 -89.833 52.5 -115.5s67.5 -38.167 113.5 -37.5c52 -0.666992 104.5 24.833 157.5 76.5
s79.5 101.5 79.5 149.5c0 26.667 -30.5 55.167 -91.5 85.5s-110.167 45.833 -147.5 46.5z" />
    <glyph glyph-name="P" unicode="P" horiz-adv-x="542" 
d="M269 630c32 0 64.835 -3.66602 98.502 -10.999s60.834 -16.333 81.501 -27c24.667 -14 46.334 -33.667 65.001 -59s28 -51.333 28 -78c0 -60.667 -32 -125.5 -96 -194.5s-137.667 -106.5 -221 -112.5c10.667 -58 17.5 -95.833 20.5 -113.5s4.5 -31.167 4.5 -40.5
c0 -6.66699 -3.83301 -12.834 -11.5 -18.501s-15.5 -8.5 -23.5 -8.5c-35.333 0 -60.333 14.667 -75 44s-22 102.666 -22 219.999c0 111.333 4.66699 178.666 14 201.999s24.333 35 45 35c14.667 -0.666992 29.5 -7.16699 44.5 -19.5s22.5 -26.166 22.5 -41.499
c0 -4.66699 -1.66699 -11 -5 -19s-5.66602 -16.333 -6.99902 -25c-0.666992 -2.66699 -1.16699 -5.5 -1.5 -8.5s-0.5 -5.83301 -0.5 -8.5c-0.666992 -4 -0.833984 -12.333 -0.500977 -25s-0.166992 -23.334 -1.5 -32.001c-2.66699 -12 -3.83398 -19.167 -3.50098 -21.5
s1.5 -4.16602 3.5 -5.49902c1.33301 -1.33301 3.16602 -2.33301 5.49902 -3s5.16602 -1 8.49902 -1c31.333 0 71.333 23 120 69s73 84.333 73 115c-0.666992 24.667 -14.667 43.834 -42 57.501s-65 20.5 -113 20.5c-55.333 0 -93.666 -1.83301 -114.999 -5.5
s-35.666 -8.83398 -42.999 -15.501c-12.667 -11.333 -21.334 -31.666 -26.001 -60.999s-12.334 -44 -23.001 -44c-34.667 0 -57 9 -67 27s-5.33301 47 14 87c25.333 51.333 57.166 84.5 95.499 99.5s89.5 22.5 153.5 22.5z" />
    <glyph glyph-name="Q" unicode="Q" horiz-adv-x="659" 
d="M197 432c5.33301 82 36.1631 136.669 92.4961 164.002s112.5 13 168.5 -43c42.667 -44.667 72.334 -86.667 89.001 -126s25 -84.333 25 -135c0 -42.667 -6.83301 -87.834 -20.5 -135.501s-32.167 -90.5 -55.5 -128.5c4.66699 -5.33301 6.83398 -7.83301 6.50098 -7.5
s-0.166016 0.5 0.500977 0.5c2 0 5.33301 1.16699 10 3.5s8.66699 3.5 12 3.5c14.667 0 26.667 -5.83301 36 -17.5s14 -27.167 14 -46.5c-0.666992 -20 -7.66699 -37 -21 -51s-28.666 -21 -45.999 -21c-8.66699 0 -17 2 -25 6s-23.667 17.667 -47 41
c-22 -24.667 -45.167 -42.834 -69.5 -54.501s-51.833 -17.5 -82.5 -17.5c-63.333 0 -115.166 26.333 -155.499 79s-60.5 114.334 -60.5 185.001c0 72.667 10.667 134.667 32 186s53.666 89.666 96.999 114.999zM358.997 504.002
c-15.333 0 -28.166 -7.16406 -38.499 -21.4971s-24.166 -58.5 -41.499 -132.5c-10 -40.667 -17.833 -64.667 -23.5 -72s-12.5 -11 -20.5 -11c-5.33301 0 -13 1.33301 -23 4s-16.333 4 -19 4c-6.66699 0 -11.334 -7.83301 -14.001 -23.5s-3.66699 -42.5 -3 -80.5
c0 -49.333 10.833 -94.333 32.5 -135s48.167 -61.334 79.5 -62.001c26.667 0 47 8.16699 61 24.5s21 38.166 21 65.499c0 4.66699 -6.33301 13.5 -19 26.5s-22.334 28.5 -29.001 46.5c-7.33301 18 -11.666 28 -12.999 30s-2.33301 4 -3 6
c-2 1.33301 -6.5 4.83301 -13.5 10.5s-10.5 11.5 -10.5 17.5c0 40.667 0.166992 61.167 0.5 61.5s1.16602 0.5 2.49902 0.5c4 0 10.833 -0.333008 20.5 -1s17.167 -1 22.5 -1c1.33301 -0.666992 4.5 -0.833984 9.5 -0.500977s8.83301 0.5 11.5 0.5
c4.66699 -1.33301 9.83398 -4.5 15.501 -9.5s18.5 -20.833 38.5 -47.5c11.333 -16 18.666 -25.833 21.999 -29.5s7.33301 -7.5 12 -11.5c10.667 19.333 19.5 40.333 26.5 63s10.5 43 10.5 61c0 48 -14.333 96 -43 144s-52.667 72.333 -72 73z" />
    <glyph glyph-name="R" unicode="R" horiz-adv-x="591" 
d="M94 459l-0.00195312 1.00195c-0.666992 5.33301 -6.66699 11.833 -18 19.5s-17 13.834 -17 18.501c-0.666992 25.333 18 43.666 56 54.999s97.667 17 179 17c86 0 144.333 -10.167 175 -30.5s46 -52.5 46 -96.5c0 -34.667 -16.833 -70.834 -50.5 -108.501
s-81.5 -72.834 -143.5 -105.501c-8.66699 -4.66699 -18.667 -9.33398 -30 -14.001s-25.666 -9.66699 -42.999 -15c17.333 -8 33.666 -13.667 48.999 -17s31 -5 47 -5c32.667 0 68.334 6.16699 107.001 18.5s67.334 25.833 86.001 40.5c54 42.667 83.333 64.667 88 66
s9 2 13 2c8.66699 0 16.834 -4.83301 24.501 -14.5s11.5 -19.5 11.5 -29.5c-0.666992 -22.667 -9.83398 -44.167 -27.501 -64.5s-48.5 -44.833 -92.5 -73.5c-24 -16 -48.333 -27.667 -73 -35s-66 -13 -124 -17c-26.667 -2 -45 -3 -55 -3s-19.333 1 -28 3
c-20.667 3.33301 -39.5 10 -56.5 20s-31.5 22.667 -43.5 38c0 -11.333 -0.166992 -22 -0.5 -32s-0.5 -16.333 -0.5 -19c0 -4.66699 2.5 -10.167 7.5 -16.5s8.16699 -10.5 9.5 -12.5c3.33301 -8 5 -16.333 5 -25s-1.66699 -17 -5 -25c-6 -10.667 -14.667 -19.834 -26 -27.501
s-22.333 -11.5 -33 -11.5c-14 0 -27.833 13.833 -41.5 41.5s-20.5 52.834 -20.5 75.501c0 4.66699 2 11.834 6 21.501s6 17.167 6 22.5c0 3.33301 -0.166992 9 -0.5 17s-0.5 14.333 -0.5 19c0 6.66699 1 16.5 3 29.5s3 22.833 3 29.5c0 3.33301 -2.5 8 -7.5 14
s-7.5 11 -7.5 15c-0.666992 44 1 80.333 5 109s10 63.667 18 105zM199.998 468.002c-4.66699 -42.667 -9 -66.834 -13 -72.501s-7.33301 -25.5 -10 -59.5c-0.666992 -1.33301 -0.833984 -1.66602 -0.500977 -0.999023s0.5 -21.333 0.5 -66c6.66699 6.66699 47 31.5 121 74.5
s111 75.833 111 98.5c-0.666992 4.66699 -3.66699 9.66699 -9 15s-12 9.33301 -20 12c-4.66699 1.33301 -9.5 2.16602 -14.5 2.49902s-24.833 -0.5 -59.5 -2.5c-32.667 -2.66699 -50.167 -3.16699 -52.5 -1.5s-20.166 1.83398 -53.499 0.500977z" />
    <glyph glyph-name="S" unicode="S" horiz-adv-x="460" 
d="M265 641l12.5029 0.000976562c4.33301 0 17.166 0.333008 38.499 1c26 0 51.5 -9.83301 76.5 -29.5s40.833 -42.5 47.5 -68.5l4 -22l-21 -61c-10.667 -30 -16 -44.833 -16 -44.5s-0.333008 0.5 -1 0.5c-29.333 0 -51.5 4.33301 -66.5 13s-21.5 21 -19.5 37
c0 4 0.833008 7.83301 2.5 11.5s4.16699 7.5 7.5 11.5c9.33301 11.333 14.166 17.5 14.499 18.5s0.5 2.16699 0.5 3.5c0 8 -3.16699 15 -9.5 21s-15.5 9 -27.5 9c-21.333 0 -33.166 -0.666992 -35.499 -2s-3.5 -3 -3.5 -5c0 -10 4.33301 -24 13 -42s22.667 -41 42 -69
c30 -46 52.5 -88.833 67.5 -128.5s22.5 -72.5 22.5 -98.5c0 -61.333 -21.167 -112 -63.5 -152s-99.833 -60 -172.5 -60c-48.667 0 -90.5 17.167 -125.5 51.5s-52.5 74.833 -52.5 121.5c0 36.667 13.667 74.334 41 113.001s58.666 58 93.999 58c21.333 0 37.833 -6 49.5 -18
s17.5 -27 17.5 -45c0 -18.667 -11 -31.334 -33 -38.001s-34.333 -11.334 -37 -14.001c-4 -3.33301 -9 -12.333 -15 -27s-8.66699 -26.334 -8 -35.001c-0.666992 -31.333 16.5 -52.5 51.5 -63.5s63.5 -3.83301 85.5 21.5l55 64l1 25c0 2.66699 -0.166992 4.5 -0.5 5.5
s-27.5 60.167 -81.5 177.5c-40 84.667 -60.833 130.334 -62.5 137.001s-3.16699 14.667 -4.5 24c-4.66699 20 2.66602 40.5 21.999 61.5s49.333 33.167 90 36.5z" />
    <glyph glyph-name="T" unicode="T" horiz-adv-x="581" 
d="M288 616c8 0 14.6699 -1.33691 20.0029 -4.00391s9.66602 -6 12.999 -10c11.333 -19.333 16.666 -28.833 15.999 -28.5s-0.666992 0.5 0 0.5c2.66699 0 12.167 3.16699 28.5 9.5s39.5 12.833 69.5 19.5c91.333 20 139.666 30.333 144.999 31s10.666 1 15.999 1
c4 0 10.167 -0.5 18.5 -1.5s14.5 -1.5 18.5 -1.5c2 0 5.16699 2.16699 9.5 6.5s8.16602 6.5 11.499 6.5c24 0 42.833 -6 56.5 -18s20.5 -27.333 20.5 -46c0 -12.667 -3.66699 -22.5 -11 -29.5s-27.666 -10.5 -60.999 -10.5c-2.66699 -0.666992 -5 -1 -7 -1
s-41.667 -7 -119 -21c-10.667 -2 -21.667 -4.33301 -33 -7l-90 -22c-15.333 -4 -28.333 -7.16699 -39 -9.5s-22.334 -4.5 -35.001 -6.5c0 -116 -0.166992 -173.333 -0.5 -172s-0.166016 1 0.500977 -1v-60.5c0 -21.667 0.333008 -51.834 1 -90.501
c0 -5.33301 -0.5 -12.666 -1.5 -21.999s-1.5 -16.333 -1.5 -21c0 -22.667 3.5 -37.167 10.5 -43.5s11.167 -24.166 12.5 -53.499c0 -2 -0.166992 -5.16699 -0.5 -9.5s-0.166016 -8.16602 0.500977 -11.499c0.666992 -5.33301 3.83398 -13.833 9.50098 -25.5
s8.5 -20.5 8.5 -26.5c0 -8.66699 -4.5 -17.5 -13.5 -26.5s-18.5 -13.5 -28.5 -13.5c-28 0 -52 13.833 -72 41.5s-30 58.834 -30 93.501c0 24.667 2.66699 45.167 8 61.5s8.33301 28.166 9 35.499c0 4 -2.83301 9.66699 -8.5 17s-8.5 13.333 -8.5 18
c0 6 1.16699 15.5 3.5 28.5s3.5 23.167 3.5 30.5c0 12.667 -1.5 31.5 -4.5 56.5s-4.5 43.833 -4.5 56.5v1.5c0 0.333008 0.666992 15.5 2 45.5c0 0.666992 -0.166992 0.666992 -0.5 0s-0.166016 21.666 0.500977 66.999c-17.333 -4 -40 -8.16699 -68 -12.5
s-45.667 -6.16602 -53 -5.49902c-6.66699 0 -16.334 0.5 -29.001 1.5s-22 1.5 -28 1.5c-8.66699 0 -21.167 -0.833008 -37.5 -2.5s-28.833 -2.5 -37.5 -2.5c-14 0 -25.5 7.33301 -34.5 22s-13.833 33.667 -14.5 57c0 10.667 5.5 20.334 16.5 29.001s21.833 13 32.5 13
c3.33301 0 7.5 -1.16699 12.5 -3.5s8.83301 -3.5 11.5 -3.5h7c2.66699 0 5.33398 0.333008 8.00098 1c13.333 1.33301 26.666 2 39.999 2s27 -0.666992 41 -2c7.33301 -1.33301 15.166 -2.16602 23.499 -2.49902s18.166 -0.5 29.499 -0.5c6 0 14.667 2.83301 26 8.5
s20.333 8.83398 27 9.50098c16 1.33301 24.333 2.16602 25 2.49902s1.33398 0.833008 2.00098 1.5c2.66699 1.33301 5.16699 10.333 7.5 27s18.833 25 49.5 25z" />
    <glyph glyph-name="U" unicode="U" horiz-adv-x="679" 
d="M130 516c12.667 0 26.001 -6.16602 40.001 -18.499s21 -24.5 21 -36.5c-0.666992 -11.333 -5.5 -26.333 -14.5 -45s-11.5 -54.667 -7.5 -108c10 -136.667 15 -204.834 15 -204.501s9.66699 0.5 29 0.5c6.66699 0 15 4.5 25 13.5s18.333 18.833 25 29.5
c4 7.33301 10.333 20.5 19 39.5s16 33.167 22 42.5c16 24.667 24.167 37.5 24.5 38.5s0.833008 2.16699 1.5 3.5c2 5.33301 4.16699 14.666 6.5 27.999s7.5 28 15.5 44c1.33301 2.66699 8.66602 16.334 21.999 41.001s24 46.667 32 66c10.667 27.333 24.667 48.333 42 63
s38.333 22 63 22c7.33301 0 14.166 -4.83301 20.499 -14.5s11.5 -22.5 15.5 -38.5c1.33301 -8.66699 2.33301 -17.5 3 -26.5s-0.333008 -26.833 -3 -53.5c-3.33301 -27.333 -5 -59.333 -5 -96s1.66699 -77 5 -121c3.33301 -58 5.16602 -87 5.49902 -87h1.5
c2.66699 0 9.33398 0.333008 20.001 1s19 1 25 1c6 -0.666992 11.333 -4.16699 16 -10.5s7 -13.166 7 -20.499c0 -21.333 -7.83301 -44.833 -23.5 -70.5s-30.167 -38.5 -43.5 -38.5c-31.333 0 -55.666 10.833 -72.999 32.5s-32.666 74.167 -45.999 157.5
c-0.666992 1.33301 -0.833984 1.5 -0.500977 0.5s0.5 39.5 0.5 121.5c-40.667 -108.667 -78 -183.334 -112 -224.001s-70 -61 -108 -61c-47.333 0 -84 24.167 -110 72.5s-38.667 124.833 -38 229.5c0 92.667 1 142 3 148s8 18 18 36s17.833 29.667 23.5 35s11.5 8 17.5 8z
" />
    <glyph glyph-name="V" unicode="V" horiz-adv-x="551" 
d="M73 583c3.33301 0 3.16406 0.331055 -0.50293 0.998047s26.833 -76 91.5 -230l4 -12l25 -82c8 -25.333 17 -44.5 27 -57.5s16 -24.5 18 -34.5c2.66699 -18 5.66699 -28 9 -30s8.33301 -1.66699 15 1c1.33301 0 -3.83398 -3.83301 -15.501 -11.5
s28.166 80.833 119.499 265.5c59.333 120 89 179.833 89 179.5s6.66699 -0.166016 20 0.500977c18.667 0 34.334 -4 47.001 -12s19 -16.667 19 -26c0 -11.333 -2 -22.333 -6 -33s-19.667 -35 -47 -73c-7.33301 -10 -14.666 -30.5 -21.999 -61.5s-14 -54.167 -20 -69.5
c-2 -6 -4 -11.667 -6 -17s-7.33301 -15.333 -16 -30l-2 -3l-18 -73c-1.33301 -3.33301 -2.5 -7 -3.5 -11s-17.167 -33 -48.5 -87c-29.333 -50.667 -48.666 -77 -57.999 -79s-20.333 -3 -33 -3c-21.333 0 -41.666 8.16699 -60.999 24.5s-47 73.5 -83 171.5
c-1.33301 2 -4.66602 7.83301 -9.99902 17.5s-13 27.167 -23 52.5c-15.333 38 -22.833 63.667 -22.5 77s-1.5 26.333 -5.5 39c-12 36.667 -21 69.334 -27 98.001s-9 52 -9 70c0 8.66699 5.66699 17.167 17 25.5s23.333 12.5 36 12.5z" />
    <glyph glyph-name="W" unicode="W" horiz-adv-x="656" 
d="M365 252c12.667 -4 23.502 -9.33301 32.502 -16s17.5 -16.334 25.5 -29.001c1.33301 -2.66699 9.83301 -13.5 25.5 -32.5s23.834 -31.5 24.501 -37.5c-0.666992 -15.333 -2.66699 5.5 -6 62.5s-5.33301 106.5 -6 148.5c-1.33301 48 2.33398 81.833 11.001 101.5
s23 29.5 43 29.5c21.333 0 39.166 -2.5 53.499 -7.5s24.5 -12.833 30.5 -23.5c4 -6.66699 6 -10.167 6 -10.5s-10.333 -17.833 -31 -52.5c-4 -6.66699 -6.33301 -19.834 -7 -39.501s0.666016 -44.167 3.99902 -73.5c10 -104.667 7.5 -179.5 -7.5 -224.5
s-42.5 -67.5 -82.5 -67.5c-14.667 0.666992 -31.5 9 -50.5 25s-36.167 37 -51.5 63c-16 25.333 -26.5 38.166 -31.5 38.499s-9.83301 -5.5 -14.5 -17.5c-14 -31.333 -25 -50.666 -33 -57.999s-16.667 -11.666 -26 -12.999c-40.667 -8 -75.667 7.83301 -105 47.5
s-53 111.834 -71 216.501c-2 8.66699 -3.33301 21.834 -4 39.501s-1.66699 30.834 -3 39.501c-0.666992 3.33301 -2.5 9.66602 -5.5 18.999s-4.5 17.333 -4.5 24c0 32.667 4.16699 56.334 12.5 71.001s22.166 22 41.499 22c33.333 0 52 -27.5 56 -82.5s8 -89.5 12 -103.5
c26 -110 38.5 -163.833 37.5 -161.5s-0.833008 2.83301 0.5 1.5c2 -7.33301 4.16699 -12 6.5 -14s4.83301 -2.33301 7.5 -1s4.66699 3.16602 6 5.49902s2 8.83301 2 19.5c-0.666992 29.333 9.16602 53.666 29.499 72.999s44.5 25.333 72.5 18z" />
    <glyph glyph-name="X" unicode="X" horiz-adv-x="616" 
d="M125 696l9.99609 -1.00488l92 -145c2.66699 -5.33301 8.5 -12.5 17.5 -21.5s15.167 -15.833 18.5 -20.5c4 -7.33301 7 -18.5 9 -33.5s4 -24.833 6 -29.5c0.666992 -4.66699 1.16699 -7 1.5 -7s19.166 -30 56.499 -90c28.667 12 81.834 46.5 159.501 103.5
s131.5 85.5 161.5 85.5c5.33301 0 9.66602 -4.16699 12.999 -12.5s5 -18.166 5 -29.499c0 -21.333 -16.167 -47.666 -48.5 -78.999s-65.166 -56.333 -98.499 -75c-4.66699 -2.66699 -12.5 -5.83398 -23.5 -9.50098s-18.833 -7.16699 -23.5 -10.5
c-0.666992 -0.666992 -0.666992 -0.833984 0 -0.500977s-5.66602 -6.16699 -18.999 -19.5c-5.33301 -5.33301 -11.666 -10.5 -18.999 -15.5s-19.333 -11.833 -36 -20.5c40 -73.333 86.333 -135.833 139 -187.5s79 -86.167 79 -103.5c0 -15.333 -8 -28.833 -24 -40.5
s-36.667 -17.834 -62 -18.501c-34.667 0.666992 -56.5 15.834 -65.5 45.501s-26.5 56.5 -52.5 80.5c-23.333 20 -46.333 52.167 -69 96.5s-37.334 66.5 -44.001 66.5c-2.66699 0 -5.16699 -0.5 -7.5 -1.5s-13.833 -14.167 -34.5 -39.5
c-7.33301 -8.66699 -21.666 -18.667 -42.999 -30s-39 -21.666 -53 -30.999c-14.667 -10 -33.5 -31.833 -56.5 -65.5s-46.833 -50.5 -71.5 -50.5c-15.333 0.666992 -31.166 6.33398 -47.499 17.001s-24.5 22.667 -24.5 36c0 8.66699 0.833008 16.834 2.5 24.501
s17.5 20.834 47.5 39.501c8 4.66699 13.667 11.5 17 20.5s11.666 19.167 24.999 30.5c18.667 14.667 27.834 21.834 27.501 21.501s-0.166016 -0.166016 0.500977 0.500977c32.667 30 48.334 44.667 47.001 44s-1.33301 -0.666992 0 0
c4.66699 2.66699 18.5 7.83398 41.5 15.501s44.833 21.834 65.5 42.501c-10.667 14 -18.834 26.167 -24.501 36.5s-11.834 25.166 -18.501 44.499c-0.666992 2.66699 -0.666992 3.16699 0 1.5s-16.666 29.833 -51.999 94.5c-6.66699 11.333 -14.167 25.333 -22.5 42
s-13.166 27.667 -14.499 33c-1.33301 2.66699 -2.83301 8.16699 -4.5 16.5s-3.5 14.833 -5.5 19.5c-3.33301 4.66699 -10.166 11.5 -20.499 20.5s-16.5 16.5 -18.5 22.5c-2 3.33301 -3 7.66602 -3 12.999s1 11.666 3 18.999c3.33301 18 10.166 31.667 20.499 41
s24.166 14 41.499 14z" />
    <glyph glyph-name="Y" unicode="Y" horiz-adv-x="562" 
d="M297 385l33 73c40.667 90 69.667 143.333 87 160s37.333 25 60 25c9.33301 -0.666992 18.5 -3.5 27.5 -8.5s13.5 -10.833 13.5 -17.5c0 -18.667 -12 -47.167 -36 -85.5s-39.667 -69.166 -47 -92.499c-2 -5.33301 -4.5 -16.333 -7.5 -33s-7.16699 -29.334 -12.5 -38.001
c-18 -27.333 -27 -41.5 -27 -42.5s0.333008 -2.16699 1 -3.5c5.33301 -22.667 7.66602 -35.5 6.99902 -38.5s-2 -6.5 -4 -10.5c-2.66699 -7.33301 -6.66699 -16 -12 -26s-9 -19.333 -11 -28c-1.33301 -6 -2.33301 -11.833 -3 -17.5s-0.666992 -18.167 0 -37.5
c0 -20.667 -2.66699 -35 -8 -43s-8 -20 -8 -36c0 -6 1.5 -15 4.5 -27s4.5 -21 4.5 -27c-0.666992 -15.333 -7.5 -26.333 -20.5 -33s-33.167 -10 -60.5 -10c-8.66699 0.666992 -16.834 3.16699 -24.501 7.5s-13.167 10.166 -16.5 17.499c-1.33301 2 -2.5 4.5 -3.5 7.5
s0.166992 21.167 3.5 54.5c0 6 -0.166992 14.333 -0.5 25s-0.166016 17.667 0.500977 21v8l20 117c-137.333 200 -207.666 304.333 -210.999 313s-5 16.334 -5 23.001c0 24 15.167 36.333 45.5 37s55.5 -15.666 75.5 -48.999c20 -35.333 43 -70.833 69 -106.5
s48 -61.834 66 -78.501z" />
    <glyph glyph-name="Z" unicode="Z" horiz-adv-x="529" 
d="M226 611c54.667 0 92.8311 -20.001 114.498 -60.001s29.834 -97.333 24.501 -172h2c0.666992 0 1.33398 0.333008 2.00098 1c6.66699 1.33301 16.167 4.16602 28.5 8.49902l26.5 9.5c68 19.333 115.167 25.833 141.5 19.5s39.5 -23.166 39.5 -50.499
c0 -19.333 -13.167 -37.5 -39.5 -54.5s-52.166 -25.833 -77.499 -26.5c-5.33301 -0.666992 -14.333 -0.666992 -27 0s-22.334 0.666992 -29.001 0c-7.33301 -1.33301 -19.833 -4.66602 -37.5 -9.99902s-33.167 -9.33301 -46.5 -12
c-3.33301 -31.333 -0.5 -60.666 8.5 -87.999s18.5 -41.333 28.5 -42c2.66699 -0.666992 8.33398 0.166016 17.001 2.49902s22.334 3.5 41.001 3.5c14 0 26 -4.83301 36 -14.5s15 -23.5 15 -41.5c0 -16 -10.667 -35 -32 -57s-40 -33 -56 -33c-14 0 -34.333 9.16699 -61 27.5
s-45.667 34.833 -57 49.5c-12.667 15.333 -22.834 33.833 -30.501 55.5s-13.834 56.834 -18.501 105.501l-14 -3l-28 -3c-16 -2 -29.167 -6.5 -39.5 -13.5s-20.833 -11.5 -31.5 -13.5c-34 -8 -51.167 -12 -51.5 -12s-0.833008 -0.333008 -1.5 -1
c-15.333 -10.667 -26.5 -17.5 -33.5 -20.5s-15.833 -5.83301 -26.5 -8.5c-32 -9.33301 -55.667 -10.666 -71 -3.99902s-23 20.667 -23 42c0 17.333 1.83301 31.666 5.5 42.999s31.834 23.666 84.501 36.999c10 2 26.167 9 48.5 21s39.833 19.667 52.5 23
c9.33301 2 26.166 3.5 50.499 4.5s51.5 8.16699 81.5 21.5c2 15.333 3.16699 23 3.5 23s0.5 27 0.5 81c0 20.667 -2 32.5 -6 35.5s-10.667 5.5 -20 7.5c-5.33301 0.666992 -10 1 -14 1s-7.66699 -0.333008 -11 -1c-8 -2 -22 -7.16699 -42 -15.5s-38.667 -12.5 -56 -12.5
c-12 0 -22.333 2.83301 -31 8.5s-13 12.5 -13 20.5c0 20 4.33301 36.167 13 48.5s37.667 30.5 87 54.5c10.667 4.66699 22 8.16699 34 10.5s25 3.83301 39 4.5z" />
    <glyph glyph-name="bracketleft" unicode="[" horiz-adv-x="372" 
d="M138 557c0 2.66699 -0.329102 7.16211 -0.996094 13.4951s-1 11.5 -1 15.5c0 19.333 5.33301 34.333 16 45s31.667 16 63 16c4 0 10 -0.166992 18 -0.5s14.333 -0.5 19 -0.5c4 0 10.667 0.166992 20 0.5s16.666 0.5 21.999 0.5c35.333 -0.666992 61.333 -5.66699 78 -15
s25 -28.666 25 -57.999c0 -11.333 -7.33301 -20.166 -22 -26.499s-32 -9.5 -52 -9.5c-6 0 -13.333 0.666992 -22 2s-14.334 2.33301 -17.001 3h-15.5h-14.5c-8.66699 -1.33301 -13.167 -2.16602 -13.5 -2.49902s-0.5 -0.833008 -0.5 -1.5
c0 -3.33301 0.666992 -8.83301 2 -16.5s2 -14.167 2 -19.5c-0.666992 -22 -3.83398 -54.667 -9.50098 -98s-9.83398 -89.666 -12.501 -138.999c-11.333 -166 -16.833 -244.667 -16.5 -236s0.5 12 0.5 10c-0.666992 -6 0 -15.667 2 -29s3 -26 3 -38
c-0.666992 -3.33301 -1.5 -6.83301 -2.5 -10.5s-1.5 -6.5 -1.5 -8.5v0h4c2 0.666992 5.16699 0.666992 9.5 0s7.5 -1 9.5 -1c6.66699 0 14.167 0.5 22.5 1.5l29.5 3.5c12 2.66699 21.333 3.83398 28 3.50098s13 -1.5 19 -3.5c10.667 -3.33301 19.834 -11 27.501 -23
s11.5 -24.667 11.5 -38c0 -7.33301 -9.33301 -17.666 -28 -30.999s-32.667 -20 -42 -20c-3.33301 0 -8.33301 1.83301 -15 5.5s-11.667 5.5 -15 5.5c-4.66699 0 -13 -0.833008 -25 -2.5s-26.333 -2.5 -43 -2.5c-37.333 0 -63.5 4.66699 -78.5 14s-22.5 69.333 -22.5 180
c-0.666992 58.667 1.16602 113.167 5.49902 163.5s14.5 118.833 30.5 205.5c1.33301 7.33301 2 15.166 2 23.499s-0.666992 27.5 -2 57.5c-0.666992 8 -1 14.667 -1 20s0.333008 10.333 1 15c0 1.33301 0.5 5 1.5 11s1.5 11 1.5 15z" />
    <glyph glyph-name="backslash" unicode="\" horiz-adv-x="487" 
d="M213 581c-1.33301 2 2.66895 -5.50195 12.002 -22.502s22.333 -51.5 39 -103.5c4 -12 7.83301 -21.833 11.5 -29.5s8.83398 -17.167 15.501 -28.5c2.66699 -3.33301 5.16699 -7.16602 7.5 -11.499s12.833 -28.166 31.5 -71.499c120.667 -293.333 181.167 -441 181.5 -443
s0.5 -5.33301 0.5 -10c0 -8.66699 -6.16699 -16.5 -18.5 -23.5s-25.5 -10.833 -39.5 -11.5c-3.33301 0 -7 0.5 -11 1.5s-37.667 71.5 -101 211.5c-10.667 22.667 -21.834 48.167 -33.501 76.5s-23.5 55.5 -35.5 81.5l-40 78.5c-14.667 27.667 -28.334 55.5 -41.001 83.5
c-32.667 66.667 -56.334 121.334 -71.001 164.001s-22 79.667 -22 111c-0.666992 4.66699 1.66602 8.5 6.99902 11.5s25 4.5 59 4.5c6.66699 0 12.834 -1.83301 18.501 -5.5s15.5 -24.834 29.5 -63.501z" />
    <glyph glyph-name="bracketright" unicode="]" horiz-adv-x="373" 
d="M235 -63c0 -2.66699 0.333008 -7.16211 1 -13.4951s1 -11.166 1 -14.499c0 -21.333 -6.5 -37.166 -19.5 -47.499s-32.833 -15.5 -59.5 -15.5c-4.66699 0 -11 0.166992 -19 0.5s-14 0.5 -18 0.5c-4.66699 0.666992 -11.667 0.666992 -21 0s-16 -1 -20 -1
c-36 0 -62.167 5.16699 -78.5 15.5s-24.833 30.166 -25.5 59.499c0 10.667 7.16699 19.167 21.5 25.5s31.166 9.5 50.499 9.5c5.33301 0 12.666 -0.833008 21.999 -2.5s15.666 -2.83398 18.999 -3.50098c4.66699 -0.666992 9.5 -1 14.5 -1s10.5 0.333008 16.5 1
c7.33301 1.33301 11.333 2.16602 12 2.49902s1 0.833008 1 1.5c0 3.33301 -0.666992 8.83301 -2 16.5s-2 14.167 -2 19.5c0 21.333 2.83301 53.833 8.5 97.5s10.167 90.5 13.5 140.5c2 39.333 5.33301 82.666 10 129.999s7 79 7 95c0 6 -1 16 -3 30s-3 27 -3 39
c0 2.66699 0.833008 6 2.5 10s2.5 6.66699 2.5 8h-0.5h-4.5c-2.66699 -0.666992 -6.16699 -0.833984 -10.5 -0.500977s-7.16602 0.833008 -8.49902 1.5c-20.667 -0.666992 -40.334 -1.83398 -59.001 -3.50098s-32 -2.5 -40 -2.5c-11.333 0 -20.666 6.5 -27.999 19.5
s-11 26.833 -11 41.5c0 8 9 18.5 27 31.5s32.333 19.5 43 19.5c2.66699 -0.666992 7.33398 -2.33398 14.001 -5.00098s12 -4 16 -4s13.5 0.666992 28.5 2s28.167 2 39.5 2c49.333 0 78.5 -6.5 87.5 -19.5s13.5 -71.5 13.5 -175.5c0 -48.667 -1.66699 -96 -5 -142
s-13.333 -121.333 -30 -226c-1.33301 -5.33301 -2.16602 -10.5 -2.49902 -15.5s0.5 -26.833 2.5 -65.5c0 -15.333 -0.833008 -25.833 -2.5 -31.5s-2.16699 -15.5 -1.5 -29.5z" />
    <glyph glyph-name="grave" unicode="`" horiz-adv-x="203" 
d="M143 390c4.66699 2 8.66797 5.33301 12.001 10s6 10.667 8 18c2 10.667 1 24.667 -3 42s-11.333 38.333 -22 63c-10.667 22.667 -16.334 35 -17.001 37s-1.33398 4.33301 -2.00098 7c-2 4 -3.83301 9.5 -5.5 16.5s-2.83398 12.167 -3.50098 15.5
c-4.66699 13.333 -10 23.833 -16 31.5s-16.333 13.834 -31 18.501c-14.667 3.33301 -25.167 4.83301 -31.5 4.5s-12.5 -1.5 -18.5 -3.5c-7.33301 -2.66699 -12.333 -5.66699 -15 -9s-4 -8 -4 -14c0 -4 0.666992 -7.66699 2 -11s6 -11 14 -23l6 -10.5
c2 -3.66699 12.667 -32.834 32 -87.501c4.66699 -14 11.334 -30.333 20.001 -49s13.667 -29 15 -31c4.66699 -11.333 9.83398 -19 15.501 -23s13.167 -6 22.5 -6c3.33301 -0.666992 7 -0.666992 11 0s7.66699 2 11 4z" />
    <glyph glyph-name="a" unicode="a" horiz-adv-x="444" 
d="M190 378c10 0 18.8311 -1.16895 26.498 -3.50195s23.5 -12.833 47.5 -31.5l22 -18l1 -2v-8.5c0 -4.33301 1 -6.5 3 -6.5c1.33301 0 5.5 1 12.5 3s12.5 3 16.5 3c12.667 0 24.334 -12.667 35.001 -38s16 -52 16 -80c0 -3.33301 -0.333008 -8.16602 -1 -14.499
s-0.666992 -10.833 0 -13.5c0 -4.66699 1.83301 -10.5 5.5 -17.5s5.16699 -16.167 4.5 -27.5c-0.666992 -6.66699 -1 -11.167 -1 -13.5s0.333008 -4.16602 1 -5.49902c3.33301 -19.333 10 -29.333 20 -30s15 -15 15 -43c0 -26.667 -2.83301 -44.167 -8.5 -52.5
s-15.167 -12.5 -28.5 -12.5c-12 0 -21.333 1.16699 -28 3.5s-16.334 9.16602 -29.001 20.499c-14 12.667 -21.833 19.834 -23.5 21.501s-2.16699 7.5 -1.5 17.5l1 7l-5 9c-2 2.66699 -3.5 7 -4.5 13s-1.5 10 -1.5 12c-1.33301 2 -3.16602 5.5 -5.49902 10.5
s-3.83301 9.5 -4.5 13.5c-3.33301 12 -4.83301 18 -4.5 18h0.5c-5.33301 -0.666992 -11 -2.5 -17 -5.5s-10.667 -6.5 -14 -10.5c-4.66699 -5.33301 -8.66699 -11.833 -12 -19.5s-8.66602 -13.834 -15.999 -18.501c-0.666992 0 -2.16699 -0.833008 -4.5 -2.5
s-4.16602 -2.83398 -5.49902 -3.50098c-0.666992 -0.666992 -1.33398 -1.16699 -2.00098 -1.5s-10 -9.16602 -28 -26.499c-10 -9.33301 -19.333 -16 -28 -20s-20.667 -6 -36 -6c-24 0 -44.667 8.66699 -62 26s-26 37 -26 59c0 6 2 15.833 6 29.5s7 26.167 9 37.5
c8.66699 51.333 13 76.833 13 76.5s6.66699 13.834 20 42.501c16 34 34.333 60.5 55 79.5s43 28.833 67 29.5zM184.998 270.998c-1.33301 0 -1.33105 0.167969 0.00195312 0.500977s-13 -25.834 -43 -78.501c-4 -6.66699 -7.33301 -20.167 -10 -40.5s-4 -35.833 -4 -46.5
c0 -2.66699 13.333 15 40 53s40 60.667 40 68c0 4.66699 -1.66699 8.5 -5 11.5s-5.33301 9.5 -6 19.5l-1.5 6c-0.333008 1.33301 -0.833008 2.33301 -1.5 3c-0.666992 0 -1.83398 0.166992 -3.50098 0.5s-2.83398 0.833008 -3.50098 1.5
c-0.666992 0 -1.16699 0.333008 -1.5 1z" />
    <glyph glyph-name="b" unicode="b" horiz-adv-x="444" 
d="M74 698c18 -0.666992 31.499 -5.66895 40.499 -15.002s14.833 -27 17.5 -53c0.666992 -12.667 1 -22.667 1 -30s-0.333008 -13.666 -1 -18.999c-0.666992 -4 -3 -14.167 -7 -30.5s-6.66699 -34.833 -8 -55.5c-8 -114 -12.333 -172.833 -13 -176.5
s-1.33398 -7.83398 -2.00098 -12.501c8.66699 10.667 19.167 20 31.5 28s42.5 20 90.5 36c2.66699 0.666992 16.667 9.16699 42 25.5s58.333 24.5 99 24.5c16 0 28.5 -5.16699 37.5 -15.5s13.5 -25.166 13.5 -44.499c0 -8.66699 -4.66699 -16.167 -14 -22.5
s-19.666 -10.166 -30.999 -11.499c12 -17.333 22 -36.333 30 -57s12 -40 12 -58c0 -58 -19.167 -111.5 -57.5 -160.5s-89.166 -73.5 -152.499 -73.5c-48 0 -88.5 16.667 -121.5 50s-45.5 73.666 -37.5 120.999c-15.333 3.33301 -26.5 10.5 -33.5 21.5s-10.5 26.5 -10.5 46.5
c-0 12 1.33301 26.667 4 44s4 38.666 4 63.999v7l7 124c2 40 3.16699 61.833 3.5 65.5s0.833008 7.5 1.5 11.5c5.33301 44 8 65.833 8 65.5s0.333008 0.833984 1 3.50098v14.5v12.5c-0.666992 2.66699 -1 5.83398 -1 9.50098v35.5c0 6.66699 4.5 12.5 13.5 17.5
s19.833 7.5 32.5 7.5zM271.999 275.998c-6.66699 -2 -12.333 -4.33398 -17 -7.00098s-23.667 -18.667 -57 -48c-18 -16 -31.5 -31.5 -40.5 -46.5s-13.5 -28.5 -13.5 -40.5c0 -14.667 5.5 -28.5 16.5 -41.5s23.167 -19.5 36.5 -19.5c32 0 59.667 13.333 83 40
s35 59.334 35 98.001c0 14 -4.5 27.833 -13.5 41.5s-18.833 21.5 -29.5 23.5z" />
    <glyph glyph-name="c" unicode="c" horiz-adv-x="406" 
d="M164 349c4.66699 0.666992 8.82715 0.832031 12.4941 0.499023s7.5 -0.5 11.5 -0.5c14.667 -3.33301 26.834 -11.166 36.501 -23.499s14.5 -26.833 14.5 -43.5c0 -12.667 -5.33301 -23 -16 -31s-24.667 -11.667 -42 -11c-2.66699 0 -5.66699 1.33301 -9 4
s-5.66602 4 -6.99902 4c-4.66699 0 -8.5 -2.5 -11.5 -7.5s-5.83301 -30.833 -8.5 -77.5c-1.33301 -18.667 2.33398 -31.667 11.001 -39s22 -11 40 -11c16.667 0 34.334 5 53.001 15s39 25.333 61 46c30 28 44.333 41.667 43 41s-1.33301 -0.666992 0 0
c5.33301 2 11.5 3.16699 18.5 3.5s13.5 -0.833984 19.5 -3.50098c7.33301 -4 13.833 -9.66699 19.5 -17s8.5 -14.666 8.5 -21.999c0 -9.33301 -1.83301 -18 -5.5 -26s-15.5 -22.333 -35.5 -43c-42.667 -44 -75.167 -71.167 -97.5 -81.5s-46.833 -15.166 -73.5 -14.499
c-54.667 0 -95.667 14.667 -123 44s-42 72.666 -44 129.999c-0.666992 4.66699 -1 8.5 -1 11.5s0.333008 5.83301 1 8.5c2.66699 44 13.834 77.5 33.501 100.5s49.834 37.5 90.501 43.5z" />
    <glyph glyph-name="d" unicode="d" horiz-adv-x="452" 
d="M421 600c11.333 0 21.6631 -4.99805 30.9961 -14.998s14.333 -20 15 -30c0 -6 -2.83301 -13.833 -8.5 -23.5s-9.16699 -16.167 -10.5 -19.5s-2.33301 -6.83301 -3 -10.5s-1 -8.83398 -1 -15.501c-1.33301 -18.667 -4.66602 -32 -9.99902 -40s-9 -17 -11 -27
c-2 -6.66699 -3 -24 -3 -52s-9 -75.667 -27 -143c-9.33301 -34 -14.666 -57.333 -15.999 -70s-2 -26.334 -2 -41.001c-0.666992 -12 1.33301 -23.333 6 -34s7 -18 7 -22c0 -23.333 -3.16699 -41.333 -9.5 -54s-15.5 -19 -27.5 -19c-20.667 0 -36.834 3.66699 -48.501 11
s-22.5 49.666 -32.5 126.999c-3.33301 -17.333 -9.33301 -31.833 -18 -43.5s-27.667 -30.5 -57 -56.5c-16.667 -14.667 -31.167 -24.667 -43.5 -30s-24.166 -8.33301 -35.499 -9c-32 0 -56.333 7 -73 21s-25 35 -25 63c-0.666992 67.333 18 132.666 56 195.999s74 95 108 95
c18 0 36 -10.5 54 -31.5s29 -45.167 33 -72.5l7 19l11 21c6.66699 12.667 15.334 38 26.001 76l7 32c2 9.33301 5 35.333 9 78c0 4.66699 0.333008 9.33398 1 14.001s9.33398 24 26.001 58c12 24.667 22 38.834 30 42.501s19.667 5.5 35 5.5zM165.997 162.002
c2 6 3.50195 11.332 4.50195 15.999s1.5 9.33398 1.5 14.001c0 8.66699 -0.5 16.5 -1.5 23.5s-2.16699 10.5 -3.5 10.5c-4 0 -10.5 -6.83301 -19.5 -20.5s-14.833 -24.5 -17.5 -32.5s-5.66699 -20.833 -9 -38.5s-5 -29.5 -5 -35.5
c-0.666992 -2.66699 -0.333984 -4.83398 0.999023 -6.50098s2.66602 -2.5 3.99902 -2.5c5.33301 0 12.333 6.33301 21 19s16.667 30.334 24 53.001z" />
    <glyph glyph-name="e" unicode="e" horiz-adv-x="391" 
d="M90 40c-27.333 -8 -41.667 -12.0029 -43 -12.0029h-2c-14.667 0 -27.5 5.33301 -38.5 16s-16.5 24.667 -16.5 42c0.666992 16 5.16699 27.833 13.5 35.5s20.5 11.167 36.5 10.5c-5.33301 12.667 -9.33301 28.5 -12 47.5s-4 35.833 -4 50.5c0 43.333 12.667 79.333 38 108
s49 39 71 31c30 -12 52.167 -28.333 66.5 -49s21.5 -47.667 21.5 -81c0 -22 -5.33301 -47.5 -16 -76.5s-22.667 -46.5 -36 -52.5c16 -10 31.167 -17.333 45.5 -22s28.5 -6.66699 42.5 -6c36.667 0 64 7.83301 82 23.5s34.333 25.834 49 30.501c5.33301 1.33301 11 2 17 2
s11.667 -0.666992 17 -2c8 -3.33301 14.833 -8 20.5 -14s8.5 -11.667 8.5 -17c0 -14.667 -4.33301 -27.667 -13 -39s-25.667 -24.666 -51 -39.999c-37.333 -21.333 -66.5 -34.166 -87.5 -38.499s-47.5 -6.5 -79.5 -6.5c-22 0 -45.167 5.33301 -69.5 16s-44.5 25 -60.5 43z
" />
    <glyph glyph-name="f" unicode="f" horiz-adv-x="413" 
d="M204 666c12 0 29.502 -6.83398 52.502 -20.501s38.5 -26.5 46.5 -38.5c4.66699 -8 10.834 -20.833 18.501 -38.5s11.5 -28.834 11.5 -33.501c0 -40.667 -8.66699 -72.167 -26 -94.5s-37.333 -33.5 -60 -33.5c-6 -0.666992 -10.333 6 -13 20s-4 33 -4 57
c0 10 0.5 23.833 1.5 41.5s1.5 23.5 1.5 17.5c0 -1.33301 -1.83301 -2.83301 -5.5 -4.5s-5.83398 -3.16699 -6.50098 -4.5s-1.16699 -2.5 -1.5 -3.5s0.166992 -4.83301 1.5 -11.5c0 -3.33301 -0.166992 -9.16602 -0.5 -17.499s-0.833008 -19.833 -1.5 -34.5
c-0.666992 -5.33301 -1.66699 -12.5 -3 -21.5s-2 -15.833 -2 -20.5c-0.666992 -6.66699 -0.666992 -17.5 0 -32.5s0.666992 -26.167 0 -33.5c-4 -32.667 -5.5 -51.834 -4.5 -57.501s2.5 -10.834 4.5 -15.501c20.667 6.66699 45 12.5 73 17.5s55.667 8.16699 83 9.5h21h22
c21.333 -1.33301 39 -4.83301 53 -10.5s23.333 -13.5 28 -23.5c2 -5.33301 3 -11.166 3 -17.499s-1 -12.166 -3 -17.499c-4.66699 -12.667 -12.167 -21.5 -22.5 -26.5s-26.5 -7.5 -48.5 -7.5c-8 0 -19 0.666992 -33 2s-24.333 2 -31 2c-22.667 0 -49 -2.33301 -79 -7
s-51.667 -10 -65 -16c3.33301 -16 5.66602 -32.333 6.99902 -49s2.66602 -49.334 3.99902 -98.001c0.666992 -23.333 1.33398 -43.166 2.00098 -59.499s5.33398 -56.166 14.001 -119.499c2 -15.333 3.33301 -33.833 4 -55.5s2 -38.167 4 -49.5
c0.666992 -4 1.83398 -7.5 3.50098 -10.5s5.5 -7.16699 11.5 -12.5c14 -12 22.833 -22.5 26.5 -31.5s5.5 -19.833 5.5 -32.5c0 -12 -5.33301 -25.833 -16 -41.5s-20.667 -23.5 -30 -23.5c-34 0 -58.833 15.833 -74.5 47.5s-27.834 120.167 -36.501 265.5
c-1.33301 16 -2.33301 28.5 -3 37.5s-6.33398 75.5 -17.001 199.5c-104 -42.667 -154.333 -64 -151 -64s3.33301 0.333008 0 1c-10.667 -0.666992 -19 3.83301 -25 13.5s-9 27.167 -9 52.5c0.666992 15.333 9.33398 29 26.001 41s69 31 157 57
c-0.666992 20 -1.33398 37.5 -2.00098 52.5s-1 27.167 -1 36.5c-3.33301 58 -4.66602 93 -3.99902 105s2 23.667 4 35c15.333 86.667 29.166 138 41.499 154s28.166 24 47.499 24z" />
    <glyph glyph-name="g" unicode="g" horiz-adv-x="336" 
d="M179 330c26 0 46.5049 -8.66992 61.5049 -26.0029s22.5 -40 22.5 -68c0 -17.333 -3.83301 -30.666 -11.5 -39.999s-17.5 -13.666 -29.5 -12.999c-21.333 -0.666992 -35 0.5 -41 3.5s-9 7.16699 -9 12.5c0 2 1 5 3 9s3 7.66699 3 11
c0 0.666992 -0.666992 1.33398 -2 2.00098s-2.33301 1 -3 1c-4 0 -12.5 -8.66699 -25.5 -26s-19.5 -27.666 -19.5 -30.999v-1.5c0 -0.333008 0.333008 -0.5 1 -0.5c0.666992 -1.33301 1.5 -2 2.5 -2s3.16699 0.666992 6.5 2c-0.666992 -0.666992 6.66602 2 21.999 8
s33.333 9 54 9c27.333 0 47 -6.83301 59 -20.5s18 -39.834 18 -78.501c0 -10.667 -0.166992 -16 -0.5 -16s-3.5 -29.667 -9.5 -89c-0.666992 -4 -1 -8.16699 -1 -12.5s0.333008 -14.833 1 -31.5c0.666992 -32.667 -1.33301 -64 -6 -94s-22.334 -82 -53.001 -156
c-16.667 -38 -35 -63.333 -55 -76s-46.333 -19 -79 -19c-32 0 -58.667 4.66699 -80 14s-52.666 29 -93.999 59c-18 14 -37.667 34.333 -59 61s-32 46.334 -32 59.001c0 3.33301 1.16699 7.5 3.5 12.5s3.5 8.83301 3.5 11.5c0.666992 2.66699 0.166992 6 -1.5 10
s-2.5 7 -2.5 9c0 10 5 19.333 15 28s20.333 13 31 13c17.333 0.666992 33.666 -3.33301 48.999 -12s23 -19.334 23 -32.001c0 -3.33301 -1.66699 -8.33301 -5 -15s-5.33301 -12 -6 -16c0 -15.333 22.5 -36.333 67.5 -63s74.833 -40 89.5 -40c23.333 0 44.5 27.167 63.5 81.5
s28.5 110.833 28.5 169.5c0 6.66699 -0.166992 16 -0.5 28s-0.5 21 -0.5 27c0 3.33301 1.5 7.83301 4.5 13.5s4.83301 10.167 5.5 13.5c-0.666992 13.333 -2.33398 25.166 -5.00098 35.499s-6 15.5 -10 15.5c-2.66699 0 -11.834 -2.66699 -27.501 -8
s-30.167 -7.66602 -43.5 -6.99902c-21.333 -0.666992 -39.833 6.83301 -55.5 22.5s-23.5 38.5 -23.5 68.5c0 50 16.167 93.167 48.5 129.5s67.166 54.5 104.499 54.5z" />
    <glyph glyph-name="h" unicode="h" horiz-adv-x="621" 
d="M148 298l0.00683594 -26.4971v-20.5c-2 -39.333 -2.83301 -61.833 -2.5 -67.5s1.16602 -11.834 2.49902 -18.501c1.33301 -16.667 3.16602 -29.667 5.49902 -39s5.16602 -14 8.49902 -14l-2.5 -1.5c-1.66699 -1 10.166 22.833 35.499 71.5c4 8 10.167 16.833 18.5 26.5
s13.833 16.5 16.5 20.5s6.66699 11 12 21s10 17.667 14 23c0.666992 0.666992 1.33398 1.66699 2.00098 3s9.33398 11 26.001 29c15.333 17.333 28.666 29 39.999 35s24 9 38 9c12 0 21.667 -2.5 29 -7.5s23.333 -52.5 48 -142.5c8 -28.667 17.5 -49 28.5 -61
s25.833 -17.667 44.5 -17c3.33301 -0.666992 8.5 -0.333984 15.5 0.999023l30.5 6c12 2 23.833 5.16699 35.5 9.5s21.167 6.5 28.5 6.5c16 0 28.167 -5.16699 36.5 -15.5s12.5 -27.5 12.5 -51.5c0 -18.667 -14 -33.667 -42 -45s-63 -17 -105 -17
c-40 -0.666992 -74.667 9 -104 29s-49 43.333 -59 70c-2 3.33301 -5.5 14.666 -10.5 33.999s-11.167 34 -18.5 44c-6.66699 10 -12.834 13.167 -18.501 9.5s-15.167 -23.5 -28.5 -59.5c-6 -15.333 -12.333 -29.5 -19 -42.5s-22.334 -39.167 -47.001 -78.5
c-16.667 -25.333 -33.334 -44.166 -50.001 -56.499s-33.334 -18.5 -50.001 -18.5c-22 0 -38.333 10 -49 30s-18.667 73.333 -24 160c-0.666992 9.33301 -1.16699 19.333 -1.5 30s0.166992 35 1.5 73c0.666992 48.667 0.5 96 -0.5 142s-2.83301 84.333 -5.5 115
c-4 38.667 -2.16699 66.167 5.5 82.5s20.5 24.5 38.5 24.5c16 -0.666992 29.5 -8.83398 40.5 -24.501s18.833 -109.167 23.5 -280.5z" />
    <glyph glyph-name="i" unicode="i" horiz-adv-x="253" 
d="M152 304c13.333 0 24.499 -4.17188 33.499 -12.5049s14.833 -19.5 17.5 -33.5c0.666992 -5.33301 1 -10.666 1 -15.999s-0.333008 -13 -1 -23c-1.33301 -14.667 -2.16602 -24.167 -2.49902 -28.5s-0.5 -8.16602 -0.5 -11.499c-0.666992 -4.66699 -1 -9.66699 -1 -15
s0.333008 -14 1 -26c0.666992 -61.333 -2.66602 -102.166 -9.99902 -122.499s-19.666 -30.5 -36.999 -30.5c-24.667 0 -41.834 2.5 -51.501 7.5s-14.167 11.833 -13.5 20.5c0 14.667 0.166992 26.834 0.5 36.501s1.16602 16.5 2.49902 20.5c2 8 3.5 17.167 4.5 27.5
s1.5 20.833 1.5 31.5c-0.666992 0 -0.833984 0 -0.500977 0s-7.5 0.333008 -23.5 1c-15.333 0 -27.166 5 -35.499 15s-12.5 24.667 -12.5 44c0 2 0.166992 3.83301 0.5 5.5s15.5 18.834 45.5 51.501c30 32 49 49.667 57 53s16 5 24 5zM169.999 453.995
c10 0 22.3291 -5.83105 36.9961 -17.498s24.334 -22.167 29.001 -31.5c8.66699 -20.667 6.33398 -38.834 -6.99902 -54.501s-33.666 -23.5 -60.999 -23.5c-15.333 0 -29.666 4.5 -42.999 13.5s-20 18.833 -20 29.5c0 21.333 6.5 40.666 19.5 57.999s28.167 26 45.5 26z" />
    <glyph glyph-name="j" unicode="j" horiz-adv-x="240" 
d="M144 251c9.33301 -0.666992 18.6689 -3.99805 28.002 -9.99805s14 -12.667 14 -20c0 -11.333 -3.33301 -26.333 -10 -45s-10.334 -29.667 -11.001 -33c-0.666992 -2 -1.16699 -4 -1.5 -6s0.166992 -13.333 1.5 -34c0.666992 -34.667 -3.83301 -73.834 -13.5 -117.501
s-14.5 -91.167 -14.5 -142.5c-0.666992 -2.66699 -0.833984 -8.33398 -0.500977 -17.001s0.5 -16 0.5 -22c-0.666992 0 -1 -0.166992 -1 -0.5s0.333008 -0.833008 1 -1.5c0 -0.666992 2.16699 -4.33398 6.5 -11.001s6.5 -22.667 6.5 -48c0 -15.333 -4 -26.666 -12 -33.999
s-35.667 -11.333 -83 -12c-6.66699 0 -12.5 13.167 -17.5 39.5s-7.16699 52.833 -6.5 79.5c0 2 1.66699 3.83301 5 5.5l7 3.5c2 2.66699 3.33301 5.66699 4 9s-0.333008 13.333 -3 30c-4 20.667 -2 43.334 6 68.001s12.667 41.334 14 50.001
c0.666992 9.33301 0.666992 21.666 0 36.999s-0.666992 26 0 32c0 3.33301 0.333008 9.16602 1 17.499s1 15.166 1 20.499c0 2.66699 -0.333008 7.33398 -1 14.001s-1 11.667 -1 15c0 36.667 8.16699 68 24.5 94s34.833 39 55.5 39zM107.003 546.002
c20 0 38.834 -13.5 56.501 -40.5s26.5 -54.167 26.5 -81.5c-0.666992 -14.667 -9.33398 -26.5 -26.001 -35.5s-36 -13.5 -58 -13.5c-6 0 -16 12.667 -30 38s-22 43.333 -24 54c-1.33301 4 -2 8.5 -2 13.5s0.666992 9.83301 2 14.5c2.66699 14 9.5 26 20.5 36
s22.5 15 34.5 15z" />
    <glyph glyph-name="k" unicode="k" horiz-adv-x="441" 
d="M165 571c16.667 0 31.167 -6.33691 43.5 -19.0039s18.5 -31 18.5 -55c0 -6.66699 -0.166992 -13 -0.5 -19s-28.166 -82.333 -83.499 -229c2 -10.667 3.66699 -22.5 5 -35.5s1.66602 -23.167 0.999023 -30.5c-3.33301 -20 -4.33301 -31.167 -3 -33.5s3.33301 -3.5 6 -3.5
c8.66699 0 18.167 11.667 28.5 35s19.833 39.333 28.5 48c18 18.667 39.167 36.167 63.5 52.5s44.166 24.5 59.499 24.5c9.33301 0 18.166 -6.16699 26.499 -18.5s12.833 -24.166 13.5 -35.499c0 -19.333 -13.5 -33.166 -40.5 -41.499s-45.833 -27.5 -56.5 -57.5
c-0.666992 -1.33301 -1.16699 -2.83301 -1.5 -4.5s0.166992 -6.16699 1.5 -13.5c1.33301 -20.667 5.33301 -34.167 12 -40.5s16.667 -9.16602 30 -8.49902c15.333 0 30.833 3 46.5 9s32.167 17 49.5 33c6.66699 6 15.5 11 26.5 15s23.5 6 37.5 6
c7.33301 0 14 -5.66699 20 -17s9.33301 -21.666 10 -30.999c0 -7.33301 -3.16699 -15.333 -9.5 -24s-17.833 -19 -34.5 -31c-34 -25.333 -62.833 -41.833 -86.5 -49.5s-51.167 -11.5 -82.5 -11.5c-15.333 0 -33.5 5 -54.5 15s-36.833 22.333 -47.5 37
c-7.33301 -2 -17.5 -5.83301 -30.5 -11.5s-23.5 -8.5 -31.5 -8.5c-22.667 0 -39.5 7.16699 -50.5 21.5s-19.5 46.5 -25.5 96.5c-16 -12.667 -33.833 -17 -53.5 -13s-29.5 13 -29.5 27c0.666992 13.333 5.66699 29.5 15 48.5s32 52.167 68 99.5l3 19l2 74
c0.666992 48 12.334 90.167 35.001 126.5s46.334 54.5 71.001 54.5z" />
    <glyph glyph-name="l" unicode="l" horiz-adv-x="223" 
d="M140 649c23.333 -0.666992 39.8291 -9.5 49.4961 -26.5s9.83398 -59.833 0.500977 -128.5c-7.33301 -50 -18.666 -144.667 -33.999 -284s-23 -218.333 -23 -237c0 -4 1 -10 3 -18s3 -14.333 3 -19c0 -12.667 -6.83301 -22.834 -20.5 -30.501s-29.167 -11.5 -46.5 -11.5
c-11.333 0.666992 -23.666 12.834 -36.999 36.501s-20 44.5 -20 62.5c0 10.667 4.5 20.5 13.5 29.5s13.833 19.833 14.5 32.5v13.5v12.5c0 5.33301 0.166992 11.5 0.5 18.5s2.83301 24.833 7.5 53.5c2.66699 18.667 5.33398 38.667 8.00098 60s12 117 28 287
c8 89.333 15.333 136.5 22 141.5s17 7.5 31 7.5z" />
    <glyph glyph-name="m" unicode="m" horiz-adv-x="684" 
d="M86 256c37.333 0 55.498 -15 54.498 -45s2.16699 -47 9.5 -51c7.33301 -5.33301 19.666 3 36.999 25s29.666 35.333 36.999 40c44 29.333 70.333 44.5 79 45.5s16.667 0.166992 24 -2.5c45.333 -18 70.833 -39.5 76.5 -64.5s11.834 -37.5 18.501 -37.5
c8 0 13.833 5 17.5 15s10.834 17.333 21.501 22c35.333 16 53.833 24.333 55.5 25s3.83398 1.33398 6.50098 2.00098c27.333 4 49.666 -0.333008 66.999 -13s26.666 -33.334 27.999 -62.001c0 -4 -0.166992 -9.5 -0.5 -16.5s-0.166016 -11.5 0.500977 -13.5
c0 -9.33301 0.5 -17.333 1.5 -24s2.83301 -11.334 5.5 -14.001c18.667 -28.667 28.167 -43.834 28.5 -45.501s0.5 -3.16699 0.5 -4.5c0 -9.33301 -5.5 -20.333 -16.5 -33s-21.5 -19 -31.5 -19s-18.833 0.833008 -26.5 2.5s-24.167 12.5 -49.5 32.5
c-21.333 16.667 -32.166 25.834 -32.499 27.501s-0.5 3.83398 -0.5 6.50098c0.666992 18 0.833984 28.667 0.500977 32s-1.16602 5.66602 -2.49902 6.99902c-6 4.66699 -17.667 -8.33301 -35 -39s-38.333 -46 -63 -46s-44.167 5.33301 -58.5 16s-22.5 26.667 -24.5 48
c-5.33301 46 -9.33301 70.333 -12 73s-5.33398 4 -8.00098 4c-1.33301 -0.666992 -1.33301 -0.666992 0 0s-28 -38 -88 -116c-12 -15.333 -23 -26.166 -33 -32.499s-20 -9.5 -30 -9.5c-23.333 0 -40.833 5.83301 -52.5 17.5s-21.5 44.5 -29.5 98.5
c-4.66699 26.667 -7.16699 40.667 -7.5 42s-0.833008 2.33301 -1.5 3c-5.33301 16 -8.66602 27.5 -9.99902 34.5s-2 14.167 -2 21.5c-0.666992 14 3.16602 25.5 11.499 34.5s19.833 13.5 34.5 13.5z" />
    <glyph glyph-name="n" unicode="n" horiz-adv-x="438" 
d="M51 285c34 0 51.166 -15.8389 51.499 -47.5059s10.833 -49.5 31.5 -53.5c12.667 -3.33301 23.5 1.33398 32.5 14.001s21.167 20.334 36.5 23.001c19.333 2.66699 37 -2 53 -14s31.667 -35 47 -69c13.333 -30.667 21.666 -46.834 24.999 -48.501
s7.66602 -2.16699 12.999 -1.5c25.333 2 49.5 13.833 72.5 35.5s44.167 29.5 63.5 23.5c40.667 -14.667 46.834 -42.5 18.501 -83.5s-79.166 -67.833 -152.499 -80.5c-26.667 -4.66699 -51.5 0 -74.5 14s-37.833 35 -44.5 63c-2 9.33301 -4.33301 17.333 -7 24
s-5.66699 12.334 -9 17.001c-3.33301 5.33301 -6.16602 7.5 -8.49902 6.5s-4.83301 -8.83301 -7.5 -23.5c-8 -35.333 -19.5 -61 -34.5 -77s-34.833 -24 -59.5 -24c-20.667 0.666992 -37.167 7.5 -49.5 20.5s-18.166 29.5 -17.499 49.5v18.5v2.5
c-0.666992 0.666992 -2.33398 4.83398 -5.00098 12.501s-4 18.834 -4 33.501c-0.666992 8.66699 -1 16.334 -1 23.001s0.333008 13.334 1 20.001c0 6 0.166992 12.5 0.5 19.5s0.5 20.5 0.5 40.5c0 4 -0.5 10 -1.5 18s-1.5 14 -1.5 18c0 6 3.33301 11.833 10 17.5
s13.667 8.5 21 8.5z" />
    <glyph glyph-name="o" unicode="o" horiz-adv-x="383" 
d="M185 360c18.667 -1.33301 32.334 -3.83301 41.001 -7.5s28 -19.167 58 -46.5c25.333 -24 42.666 -45.833 51.999 -65.5s15.333 -41.834 18 -66.501c4 -51.333 -12.833 -98.5 -50.5 -141.5s-81.167 -64.5 -130.5 -64.5c-33.333 0 -61.5 8.16699 -84.5 24.5
s-38.167 40.5 -45.5 72.5c-4.66699 17.333 -8.5 39.333 -11.5 66s-3.16699 46 -0.5 58c8 48 25.5 88.833 52.5 122.5s60.833 49.834 101.5 48.501zM183 257c-13.333 0 -26.5 -12.5 -39.5 -37.5s-15.167 -48.833 -6.5 -71.5c0.666992 -3.33301 3.83398 -10 9.50098 -20
s8.5 -18 8.5 -24c0 -2.66699 -0.833008 -6.33398 -2.5 -11.001s-2.5 -8 -2.5 -10c0 -3.33301 1.66699 -6.16602 5 -8.49902s6.66602 -3.5 9.99902 -3.5c18 0 35.167 7.16699 51.5 21.5s27.833 33.5 34.5 57.5c6 21.333 -0.333008 44.5 -19 69.5s-35 37.5 -49 37.5z" />
    <glyph glyph-name="p" unicode="p" horiz-adv-x="419" 
d="M97 283c27.333 0 43.1699 -13.834 47.5029 -41.501s7.5 -41.167 9.5 -40.5l24 26.5c16 17.667 49.667 30.167 101 37.5c31.333 4 58.166 -5.83301 80.499 -29.5s33.5 -47.5 33.5 -71.5c-0.666992 -10.667 -3.16699 -22.667 -7.5 -36s-18.5 -39.333 -42.5 -78
c-16.667 -27.333 -32.667 -44.5 -48 -51.5s-36 -12.167 -62 -15.5c-11.333 -0.666992 -28.5 3.83301 -51.5 13.5s-36.833 14.5 -41.5 14.5c-1.33301 0 -2.66602 -0.666992 -3.99902 -2s-6 -51.333 -14 -150c-0.666992 -4.66699 -1.16699 -10.167 -1.5 -16.5
s0.166992 -24.166 1.5 -53.499c0.666992 -30.667 -3.66602 -56.334 -12.999 -77.001s-21 -31 -35 -31s-29.833 4.83301 -47.5 14.5s-26.5 20.167 -26.5 31.5c0 2 0.5 5 1.5 9s1.5 7 1.5 9c0 1.33301 -1.83301 6.5 -5.5 15.5s-5.5 20.167 -5.5 33.5
c0 20.667 3.16699 37 9.5 49s10.166 23.667 11.499 35v4.5v4.5l-3 42l12 15c3.33301 3.33301 5.5 6.33301 6.5 9s1.5 5.33398 1.5 8.00098c1.33301 16.667 1.66602 26.667 0.999023 30s-0.333984 14 0.999023 32c0.666992 12 2.16699 30.5 4.5 55.5s3.5 43.5 3.5 55.5
c0 6 -0.5 15.5 -1.5 28.5s-1.5 22.833 -1.5 29.5c0 23.333 6.16699 44.333 18.5 63s26.166 28 41.499 28zM199.004 102.999c2.66699 -6 7.00098 -10.3311 13.001 -12.998s12 -3.33398 18 -2.00098c5.33301 0.666992 14.166 7.16699 26.499 19.5s19.166 22.166 20.499 29.499
c0 1.33301 -0.166992 3.5 -0.5 6.5s-0.166016 6.16699 0.500977 9.5v3v1c-4.66699 0 -8.16699 -0.166992 -10.5 -0.5s-20.833 -14.833 -55.5 -43.5z" />
    <glyph glyph-name="q" unicode="q" horiz-adv-x="372" 
d="M196 265c-1.33301 -8.66699 -5.33203 -17.335 -11.999 -26.002s-12.334 -18 -17.001 -28c-9.33301 -18 -16 -40.167 -20 -66.5s-4 -36.833 0 -31.5l20 28c7.33301 10.667 16.666 26.167 27.999 46.5s17 34.166 17 41.499c0 3.33301 -1.5 8 -4.5 14l-11.5 22l7 -223
c-12 -19.333 -27.167 -37.333 -45.5 -54s-33.5 -25 -45.5 -25c-24 0 -43.667 8 -59 24s-23 37.333 -23 64c0 66.667 15.833 136 47.5 208s71.5 108 119.5 108c32.667 -0.666992 62.334 -16.5 89.001 -47.5s40 -63.833 40 -98.5c0 -4.66699 -4 -20 -12 -46s-12 -56 -12 -90
c0 -39.333 2.83301 -85 8.5 -137s11.834 -91 18.501 -117c14.667 -59.333 22.167 -90.666 22.5 -93.999s0.5 -6.66602 0.5 -9.99902c0 -14.667 -5.83301 -26.667 -17.5 -36s-26.834 -14 -45.501 -14c-13.333 0 -23.333 2.33301 -30 7s-12.334 25 -17.001 61
c-3.33301 22 -6.16602 33.333 -8.49902 34s-4.83301 13 -7.5 37c-16 134.667 -24 204.834 -24 210.501s-2 85.167 -6 238.5z" />
    <glyph glyph-name="r" unicode="r" horiz-adv-x="323" 
d="M221 381c4 0 9.33008 -2.3252 15.9971 -6.99219s11.334 -7.33398 14.001 -8.00098c31.333 -13.333 49.166 -24.333 53.499 -33s6.5 -19.334 6.5 -32.001s-4.16699 -22.167 -12.5 -28.5s-27.166 -9.5 -56.499 -9.5c-4 0 -8.16699 2.33301 -12.5 7s-7.5 7 -9.5 7
c-4 0 -7.33301 -3.5 -10 -10.5s-5.66699 -22.833 -9 -47.5c-0.666992 -4.66699 -1.16699 -9.33398 -1.5 -14.001s0.166992 -11.334 1.5 -20.001c0.666992 -14.667 1 -25.167 1 -31.5s-0.333008 -11.833 -1 -16.5c-0.666992 -3.33301 -1.66699 -7.5 -3 -12.5
s-2 -8.5 -2 -10.5c-1.33301 -6 -2.16602 -12.667 -2.49902 -20s0.5 -19.333 2.5 -36c1.33301 -20 -1 -35.5 -7 -46.5s-15.667 -18.833 -29 -23.5c-6 -1.33301 -12 -2 -18 -2s-11.667 0.666992 -17 2c-12 4 -21.833 9.66699 -29.5 17s-11.167 15.666 -10.5 24.999
c0 12 1.16699 23.667 3.5 35s3.5 21.333 3.5 30c0 3.33301 -2.33301 8 -7 14s-6.66699 10.667 -6 14c0 2 0.666992 5.66699 2 11s2 9.66602 2 12.999c-1.33301 3.33301 -5.16602 8.5 -11.499 15.5s-10.833 13.167 -13.5 18.5c-7.33301 13.333 -11 19.833 -11 19.5
s-1.33301 0.833984 -4 3.50098c-13.333 10 -20.5 16.167 -21.5 18.5s-1.5 5.16602 -1.5 8.49902c-0.666992 19.333 3.83301 34.666 13.5 45.999s23.834 17.333 42.501 18c4 0 9.66699 -2.16699 17 -6.5s14.666 -7.83301 21.999 -10.5l4 17c4 19.333 10.5 35.166 19.5 47.499
s26.833 22.5 53.5 30.5c18 4.66699 27.167 7.16699 27.5 7.5s0.833008 0.5 1.5 0.5z" />
    <glyph glyph-name="s" unicode="s" horiz-adv-x="350" 
d="M179 398c1.33301 0 3.00293 0.162109 5.00293 0.495117s13.333 0.5 34 0.5c33.333 0 60.333 -11.167 81 -33.5s31 -44.833 31 -67.5c0 -12 -2.5 -23 -7.5 -33s-10.5 -15 -16.5 -15c-28.667 0 -48.334 7.83301 -59.001 23.5s-19.334 24.834 -26.001 27.501
c-3.33301 0.666992 -6 1 -8 1s-3 -0.333008 -3 -1c-0.666992 -7.33301 1.5 -15.166 6.5 -23.499s13.833 -18.5 26.5 -30.5c12.667 -13.333 26 -36.666 40 -69.999s21 -59.666 21 -78.999c0 -44 -15.667 -80.833 -47 -110.5s-73 -44.5 -125 -44.5
c-39.333 0 -71.5 14.333 -96.5 43s-36.833 58.334 -35.5 89.001c0.666992 25.333 8.66699 50.333 24 75s33.666 37 54.999 37c22.667 0 40.167 -6.66699 52.5 -20s16.166 -28 11.499 -44c-4 -13.333 -11.5 -24 -22.5 -32s-16.5 -15 -16.5 -21
c0 -10 3.33301 -17.167 10 -21.5s19.667 -6.5 39 -6.5c14.667 -0.666992 25.834 4 33.501 14s11.5 24.667 11.5 44c0 6 -0.833008 11.5 -2.5 16.5s-8.16699 18.167 -19.5 39.5c-49.333 85.333 -74.666 132.5 -75.999 141.5s-2 18.5 -2 28.5c0 16 7.66699 31 23 45
s34.666 23 57.999 27z" />
    <glyph glyph-name="t" unicode="t" horiz-adv-x="428" 
d="M29 380l-0.5 0.00585938c-0.333008 0 7.83398 -6 24.501 -18c0 -0.666992 -0.166992 -0.833984 -0.5 -0.500977s7.16699 -3.83398 22.5 -12.501c32 -19.333 51.5 -29.666 58.5 -30.999s15.167 -2 24.5 -2c2 18.667 3.66699 42 5 70s2 60.333 2 97
c0 7.33301 -0.666992 19 -2 35s-1.66602 28.667 -0.999023 38c0 31.333 3.83301 52 11.5 62s20.167 15 37.5 15c19.333 0 33.333 -5 42 -15s12.334 -34.333 11.001 -73c-0.666992 -1.33301 -0.833984 -1 -0.500977 1s0.5 -19 0.5 -63
c-0.666992 -24.667 -1.83398 -54.167 -3.50098 -88.5s-3.83398 -60.833 -6.50098 -79.5l58 17c36 10 69.667 29.667 101 59s54.666 44.333 69.999 45c10.667 0 20.667 -5 30 -15s14 -20.333 14 -31c0 -36.667 -28.5 -72.834 -85.5 -108.501s-124.5 -58.834 -202.5 -69.501
c-3.33301 -38.667 -8.5 -78.334 -15.5 -119.001s-10.5 -77 -10.5 -109c0 -5.33301 0.166992 -14 0.5 -26s0.5 -21 0.5 -27c0 -11.333 -5 -20.333 -15 -27s-24.333 -10.334 -43 -11.001c-14 0 -27.167 9 -39.5 27s-18.5 35 -18.5 51c0 -10 5.66699 7.16699 17 51.5
s21 109.166 29 194.499c-29.333 1.33301 -57.333 7.5 -84 18.5s-50.334 25.167 -71.001 42.5c-27.333 22 -35.166 44.5 -23.499 67.5s32.834 34.5 63.501 34.5z" />
    <glyph glyph-name="u" unicode="u" horiz-adv-x="601" 
d="M126 393c26 0 45.834 -13.8301 59.501 -41.4971s19.5 -73.834 17.5 -138.501c-1.33301 -21.333 -1 -42.5 1 -63.5s5 -31.5 9 -31.5s8.5 3 13.5 9s21.5 42.333 49.5 109c13.333 31.333 28.333 56.833 45 76.5s33.667 29.5 51 29.5s31.833 -6.66699 43.5 -20
s19.5 -32 23.5 -56c-0.666992 0.666992 0.166016 -9 2.49902 -29s6.5 -40 12.5 -60c17.333 -64 27 -96.833 29 -98.5s4 -2.5 6 -2.5c4.66699 0 10.667 2.16699 18 6.5s17 11.833 29 22.5c22.667 19.333 38 30.333 46 33s16 2.66699 24 0
c10.667 -2.66699 18.5 -8.83398 23.5 -18.501s7.5 -21.834 7.5 -36.501c0 -6.66699 -4.16699 -14.667 -12.5 -24s-22.5 -22.333 -42.5 -39c-20 -15.333 -36.667 -27.166 -50 -35.499s-23.666 -12.5 -30.999 -12.5c-35.333 0 -66 15 -92 45s-41.667 63 -47 99
c-6 35.333 -9.33301 53.166 -10 53.499l-1 0.5c-4 0 -10.167 -11.667 -18.5 -35s-15.5 -39 -21.5 -47c-42.667 -54 -71.167 -85 -85.5 -93s-30.5 -12 -48.5 -12c-24 0 -41.5 7 -52.5 21s-16.167 33 -15.5 57v25v21c-3.33301 88 -5 132.667 -5 134
s0.333008 2.66602 1 3.99902c1.33301 8.66699 1.83301 14.167 1.5 16.5s-0.833008 4.83301 -1.5 7.5c-2 2.66699 -4.16699 5.16699 -6.5 7.5s-4.5 3.5 -6.5 3.5c-0.666992 0 -0.666992 0 0 0s-4.66602 -4.66699 -15.999 -14c-18.667 -14.667 -29.834 -22.667 -33.501 -24
s-6.83398 -2 -9.50098 -2c-12 0 -23.5 3.83301 -34.5 11.5s-16.5 16.834 -16.5 27.501c0 6 0.833008 11.667 2.5 17s18.5 23 50.5 53c22 20 39 32.333 51 37s25.333 7 40 7z" />
    <glyph glyph-name="v" unicode="v" horiz-adv-x="388" 
d="M68 355c3.33301 0 5.49902 -0.166992 6.49902 -0.5s22.5 -47.5 64.5 -141.5c4.66699 -12 8.83398 -26 12.501 -42s8.16699 -26.667 13.5 -32c2 -2.66699 4.33301 -4.83398 7 -6.50098s5 -2.5 7 -2.5l-0.5 -0.5c-0.333008 -0.333008 -0.166016 7.83398 0.500977 24.501v4
c0 1.33301 6.66699 11.666 20 30.999c0.666992 1.33301 1.5 2.83301 2.5 4.5s4.5 11.167 10.5 28.5c7.33301 22 18.5 40.167 33.5 54.5s28.167 21.833 39.5 22.5c4.66699 0 9.83398 -1.16699 15.501 -3.5s16.5 -8.5 32.5 -18.5c24.667 -17.333 38.334 -29.5 41.001 -36.5
s4 -14.167 4 -21.5c-0.666992 -14 -6.33398 -24.667 -17.001 -32s-27 -11 -49 -11c-2.66699 0 -5.5 0.666992 -8.5 2l-4.5 2c-2 0 -2.5 -3.66699 -1.5 -11s1.5 -12.333 1.5 -15c-0.666992 -5.33301 -3.83398 -10.833 -9.50098 -16.5s-8.83398 -9.5 -9.50098 -11.5
c-0.666992 -0.666992 -1 -1.16699 -1 -1.5s-1 -8.16602 -3 -23.499c-1.33301 -6 -4 -14 -8 -24s-7.66699 -17.333 -11 -22c-36 -48.667 -56.667 -73.334 -62 -74.001s-11.333 -1 -18 -1c-22 0 -44.5 13 -67.5 39s-33.167 49.333 -30.5 70l1 16l-1 3
c-17.333 26.667 -27 44.167 -29 52.5s-3.66699 16.833 -5 25.5c-1.33301 6 -5.83301 25.167 -13.5 57.5s-11.5 57.166 -11.5 74.499c0 8.66699 5 16.834 15 24.501s21 11.834 33 12.501z" />
    <glyph glyph-name="w" unicode="w" horiz-adv-x="556" 
d="M121 347c8.66699 0 17.5 -3.16113 26.5 -9.49414s13.5 -13.166 13.5 -20.499c0 -6 -4.16699 -20.167 -12.5 -42.5s-12.833 -47.833 -13.5 -76.5c-0.666992 -4.66699 -0.833984 -11.667 -0.500977 -21s0.5 -17.333 0.5 -24c-1.33301 -29.333 -1.66602 -45 -0.999023 -47
s2 -3 4 -3c26.667 0 41.167 21.5 43.5 64.5s19.166 64.5 50.499 64.5c14.667 0 26.334 -2 35.001 -6s25 -34 49 -90c6 -16 12 -26.667 18 -32s12.667 -8 20 -8c12 -0.666992 21.333 4.5 28 15.5s10 28.167 10 51.5c0 7.33301 -0.666992 18.5 -2 33.5s-2 26.5 -2 34.5
c0 36 5.16699 62.833 15.5 80.5s27.5 33.5 51.5 47.5c13.333 8 28.666 15.167 45.999 21.5s31.333 9.5 42 9.5c18.667 0 33.334 -5.5 44.001 -16.5s16 -27.167 16 -48.5c0 -38.667 -19.167 -55.834 -57.5 -51.501s-57.5 -4.5 -57.5 -26.5
c-0.666992 -8.66699 -0.833984 -15.834 -0.500977 -21.501s1.16602 -10.834 2.49902 -15.501c0.666992 -8 1 -16.5 1 -25.5s-0.333008 -21.5 -1 -37.5c-4.66699 -54.667 -19.5 -94.334 -44.5 -119.001s-60.833 -37.334 -107.5 -38.001c-31.333 0 -54.833 14.5 -70.5 43.5
s-24.5 43.5 -26.5 43.5c-2.66699 0 -5.16699 -4.33301 -7.5 -13s-4.16602 -14.334 -5.49902 -17.001c-0.666992 -0.666992 -1.16699 -1.33398 -1.5 -2.00098s-7.5 -7 -21.5 -19c-31.333 -26 -49.333 -39.667 -54 -41s-9.66699 -2 -15 -2c-36 0 -62.333 19.5 -79 58.5
s-25 91.167 -25 156.5c0 4.66699 1 11.5 3 20.5s3.33301 15.833 4 20.5c0 2 -0.166992 6 -0.5 12s-0.166016 10.667 0.500977 14c2 20 11.167 38.5 27.5 55.5s34.5 25.833 54.5 26.5z" />
    <glyph glyph-name="x" unicode="x" horiz-adv-x="378" 
d="M28 398c12 0 22.167 -1.66504 30.5 -4.99805s27.833 -24.666 58.5 -63.999c56 -74 82.667 -110.667 80 -110s-3.33398 1 -2.00098 1c7.33301 0 23 9.33301 47 28s39.333 28.667 46 30c2 0 5.66699 0.166992 11 0.5s9.66602 1.16602 12.999 2.49902
c2 0.666992 5.66699 3 11 7s10 6 14 6c14 0 26.333 -4.66699 37 -14s16 -20 16 -32c0 -8.66699 -1.16699 -15.834 -3.5 -21.501s-33.833 -24.834 -94.5 -57.501c-0.666992 -0.666992 -5 -3.66699 -13 -9s-16.333 -9.33301 -25 -12
c-9.33301 -3.33301 -14 -5.16602 -14 -5.49902v-0.5c0 -3.33301 1.16699 -6.83301 3.5 -10.5s7.5 -9.16699 15.5 -16.5c16.667 -17.333 30.167 -33.333 40.5 -48s20.5 -36 30.5 -64c12 -35.333 15.167 -57.666 9.5 -66.999s-17.5 -16.666 -35.5 -21.999
c-7.33301 -2 -14.5 -3 -21.5 -3s-13.5 1 -19.5 3c-8 3.33301 -14.333 7.33301 -19 12s-9 17 -13 37c-4 18 -13.667 37 -29 57s-24.333 34 -27 42c-6 15.333 -9.66699 23.5 -11 24.5s-2.66602 1.83301 -3.99902 2.5c-1.33301 0 -2.66602 -0.5 -3.99902 -1.5
s-5 -4.16699 -11 -9.5c-28.667 -26.667 -42.5 -39.5 -41.5 -38.5s1.16699 1.16699 0.5 0.5c-28.667 -36 -45.167 -54.5 -49.5 -55.5s-10.166 -1.5 -17.499 -1.5c-12.667 0 -22.834 6.5 -30.501 19.5s-11.5 28.167 -11.5 45.5c0 3.33301 0.5 7 1.5 11s15.833 23.333 44.5 58
l32 37l18 5c6.66699 1.33301 11 2.66602 13 3.99902s3.66699 3.33301 5 6c-2 2 -3.33301 3.66699 -4 5l-2 4c-2 2 -4.5 6.16699 -7.5 12.5s-5.5 11.166 -7.5 14.499c-2.66699 3.33301 -6.66699 8 -12 14s-9 10.667 -11 14c-2 2 -4.83301 6.16699 -8.5 12.5l-8.5 14.5
c-38 49.333 -57.167 75.166 -57.5 77.499s-0.5 4.5 -0.5 6.5c0 16 3.5 29 10.5 39s16.167 15 27.5 15z" />
    <glyph glyph-name="y" unicode="y" horiz-adv-x="374" 
d="M193 362c8.66699 0 17.6738 -4.33105 27.0068 -12.998s14 -17 14 -25c-0.666992 -6.66699 -1.83398 -13 -3.50098 -19s-15.167 -33 -40.5 -81c-8 -14.667 -12.5 -23.5 -13.5 -26.5s-1.5 -4.83301 -1.5 -5.5c0 -1.33301 2 -1.33301 6 0s10.667 4.66602 20 9.99902
c18.667 10 37.667 26.5 57 49.5s39.666 34.5 60.999 34.5c10 -0.666992 17.667 -5.33398 23 -14.001s8 -32.334 8 -71.001c-0.666992 -5.33301 -1.33398 -13.166 -2.00098 -23.499s-1 -17.833 -1 -22.5c0 -8 0.666992 -19.833 2 -35.5s2 -27.167 2 -34.5
c0 -48 -5.16699 -104 -15.5 -168s-22.166 -112.667 -35.499 -146c-20.667 -49.333 -42.834 -84.333 -66.501 -105s-51.167 -31.334 -82.5 -32.001c-29.333 0 -59.666 10.333 -90.999 31s-51.666 45.334 -60.999 74.001c-2 6 -4 10.667 -6 14s-5 7.33301 -9 12
c-5.33301 6 -9 10.5 -11 13.5s-4 6.83301 -6 11.5c-0.666992 2.66699 -1.5 5.33398 -2.5 8.00098s-3.16699 10.334 -6.5 23.001c-2 8.66699 -5.83301 16 -11.5 22s-8.5 14.333 -8.5 25c0 20.667 3.66699 37.5 11 50.5s16.666 19.5 27.999 19.5c18 0 35 -7.16699 51 -21.5
s24 -30.5 24 -48.5c-0.666992 -3.33301 -1.33398 -8 -2.00098 -14s-0.666992 -10.667 0 -14c-0.666992 0 -0.833984 -0.166992 -0.500977 -0.5s6.5 -7.16602 18.5 -20.499c1.33301 -1.33301 2.66602 -3 3.99902 -5s6 -10.667 14 -26
c7.33301 -14.667 16.5 -26.834 27.5 -36.501s21.5 -14.5 31.5 -14.5c20 0 40.167 17 60.5 51s32.166 72 35.499 114c1.33301 29.333 3.66602 60.666 6.99902 93.999s5 59.333 5 78c-0.666992 18.667 -3.5 30 -8.5 34s-17.5 0.666992 -37.5 -10
c-12.667 -6.66699 -23.334 -10.834 -32.001 -12.501s-20 -2.5 -34 -2.5c-22.667 0 -42 6.5 -58 19.5s-24 26.5 -24 40.5c0 15.333 4.66699 29 14 41s14 23.333 14 34c0 3.33301 -5.66699 2 -17 -4s-19 -8.66699 -23 -8c-14.667 0 -28 5.83301 -40 17.5
s-18 24.834 -18 39.501c0 3.33301 0.5 6.5 1.5 9.5s28.5 17.833 82.5 44.5c40 19.333 67.333 31.666 82 36.999s27.334 8 38.001 8z" />
    <glyph glyph-name="z" unicode="z" horiz-adv-x="374" 
d="M160 365c25.333 -0.666992 44.168 -4.66895 56.501 -12.002s22.833 -21.666 31.5 -42.999c6 -16.667 7.16699 -30.167 3.5 -40.5s-5.5 -16.833 -5.5 -19.5c-0.666992 -2.66699 -0.666992 -6.16699 0 -10.5l3 -19.5c6.66699 6 18.667 12.833 36 20.5s31 11.5 41 11.5
c11.333 0 22.166 -5.66699 32.499 -17s15.5 -23.333 15.5 -36c0 -12 -5.16699 -22.333 -15.5 -31s-26.833 -16.334 -49.5 -23.001c-10 -3.33301 -19.833 -9 -29.5 -17s-17.167 -11.667 -22.5 -11c-3.33301 0 -7.5 0.5 -12.5 1.5s-8.16699 1.5 -9.5 1.5
c-2 0 -3.5 -2.33301 -4.5 -7s-1.16699 -10.667 -0.5 -18c0 -9.33301 0.5 -15.833 1.5 -19.5s2.83301 -5.5 5.5 -5.5c1.33301 0 3 0.333008 5 1s5.33301 2 10 4c2.66699 1.33301 5.5 2.16602 8.5 2.49902s11.833 0.833008 26.5 1.5c10.667 0 18.834 -6.16699 24.501 -18.5
s8.5 -33.833 8.5 -64.5c-0.666992 -8 -14.5 -15.667 -41.5 -23s-52.167 -11 -75.5 -11c-21.333 0 -38.166 13.5 -50.499 40.5s-18.833 57.167 -19.5 90.5c-16.667 0.666992 -29.834 1.66699 -39.501 3s-16.167 3 -19.5 5c-45.333 21.333 -69 34 -71 38s-3 8 -3 12
c0 18.667 5 36.334 15 53.001s22.333 25 37 25c12.667 -0.666992 25.334 -6.16699 38.001 -16.5s19.667 -15.5 21 -15.5c0 -0.666992 0.333008 -1 1 -1s3.66699 0.333008 9 1c1.33301 0 3.16602 -0.166992 5.49902 -0.5s6.16602 -1.16602 11.499 -2.49902
c-0.666992 2.66699 -1 5 -1 7s3.66699 16.667 11 44c0.666992 4 1 7.33301 1 10s-0.333008 4 -1 4c-1.33301 0 -3 -0.5 -5 -1.5l-5 -2.5c-8 -4.66699 -17.333 -8.16699 -28 -10.5s-22.667 -3.16602 -36 -2.49902c-8 0 -15 4 -21 12s-9 16.333 -9 25
c-0.666992 26.667 10 47.667 32 63s50 23 84 23z" />
    <glyph glyph-name="braceleft" unicode="{" horiz-adv-x="417" 
d="M355 640c18 0 32.3311 -5.66895 42.998 -17.002s16 -24.333 16 -39s-15.167 -28.667 -45.5 -42s-47.833 -22.666 -52.5 -27.999l-5 -6l-30 -196c-4 -25.333 -12.833 -43.666 -26.5 -54.999s-20.5 -19 -20.5 -23c0 -116.667 19.167 -194.5 57.5 -233.5
s57.5 -72.5 57.5 -100.5c0 -12 -5.5 -23.5 -16.5 -34.5s-22.833 -16.5 -35.5 -16.5c-38 0 -69.833 20 -95.5 60s-36.5 96 -32.5 168c2.66699 58.667 -13.166 94.167 -47.499 106.5s-51.166 29.833 -50.499 52.5c-0.666992 12.667 2.5 24 9.5 34s31.5 24 73.5 42
c7.33301 3.33301 12.833 6.83301 16.5 10.5s9.16699 43.167 16.5 118.5c6 62 25.5 110.667 58.5 146s69.5 53 109.5 53z" />
    <glyph glyph-name="bar" unicode="|" horiz-adv-x="273" 
d="M138 687c21.333 0 36.5 -4.16992 45.5 -12.5029s14.167 -27.166 15.5 -56.499c1.33301 -36.667 2 -69.834 2 -99.501s-0.666992 -59.5 -2 -89.5c-4 -72 -6.5 -136.5 -7.5 -193.5s-1.5 -123.833 -1.5 -200.5c0 -28.667 0.166992 -52 0.5 -70s1.16602 -34 2.49902 -48
c0.666992 -4 1.5 -7.66699 2.5 -11s2.16699 -6.33301 3.5 -9s5.5 -8.66699 12.5 -18s10.5 -17.333 10.5 -24c-0.666992 -16 -7.66699 -31.833 -21 -47.5s-31.666 -23.5 -54.999 -23.5c-16 0 -30 14.333 -42 43s-19.333 64 -22 106c-0.666992 7.33301 -1 15 -1 23
s0.333008 22 1 42c0.666992 22.667 1.5 67.834 2.5 135.501s2.83301 121.834 5.5 162.501c0.666992 16.667 1.16699 28.5 1.5 35.5s0.5 13.5 0.5 19.5s-0.333008 15.667 -1 29s-1 23.333 -1 30c0 15.333 0.666992 38.5 2 69.5l3 69.5
c0 6.66699 -0.833008 16.834 -2.5 30.501s-2.5 24.167 -2.5 31.5c0 35.333 4 56.833 12 64.5s20 11.5 36 11.5z" />
    <glyph glyph-name="braceright" unicode="}" horiz-adv-x="363" 
d="M61 -151c-18 0 -32.167 5.49902 -42.5 16.499s-15.5 23.833 -15.5 38.5s15 29 45 43s47.667 23.333 53 28c6.66699 8 12 18 16 30s10.333 68.667 19 170c0.666992 14.667 2.5 26.334 5.5 35.001s10.167 17.667 21.5 27l13 10l-25 78
c-0.666992 1.33301 -0.5 0.166016 0.5 -3.50098s-1.16699 28.833 -6.5 97.5c-2.66699 38.667 -4.33398 60 -5.00098 64l-2 12c-6.66699 20 -19.834 35.167 -39.501 45.5s-29.5 26.166 -29.5 47.499c-0.666992 12.667 4.5 24.5 15.5 35.5s23.167 16.5 36.5 16.5
c40 0 71.333 -19.5 94 -58.5s33.667 -95.833 33 -170.5c-0.666992 -20 -0.166992 -36.5 1.5 -49.5s4.83398 -21.5 9.50098 -25.5c4 -5.33301 19.5 -13.666 46.5 -24.999s40.5 -31.333 40.5 -60c-0.666992 -10.667 -3.16699 -20.5 -7.5 -29.5s-29.5 -24.5 -75.5 -46.5
c-9.33301 -4 -15.833 -8.66699 -19.5 -14s-8.5 -43.666 -14.5 -114.999c-4 -54 -22.167 -100.167 -54.5 -138.5s-70.166 -57.833 -113.499 -58.5z" />
    <glyph glyph-name="afii10051" horiz-adv-x="657" 
d="M278 733c14 0 26.3369 -7.16895 37.0039 -21.502s14 -30.166 10 -47.499c22.667 -0.666992 38.667 -0.833984 48 -0.500977s18 0.833008 26 1.5c49.333 2 74.666 3.16699 75.999 3.5s2.66602 0.5 3.99902 0.5c4.66699 0 12.167 -0.333008 22.5 -1
s18.166 -0.666992 23.499 0c5.33301 0 14 1 26 3s21.667 3 29 3c17.333 0 29.5 -4 36.5 -12s10.5 -22 10.5 -42c-0.666992 -23.333 -6 -39.166 -16 -47.499s-25.667 -12.5 -47 -12.5c-9.33301 0 -21 0.5 -35 1.5s-23 1.83301 -27 2.5h-23.5h-26.5
c-22 -1.33301 -43.833 -3 -65.5 -5s-46.5 -3 -74.5 -3c-0.666992 -11.333 -1.5 -20.666 -2.5 -27.999s-2.5 -17.666 -4.5 -30.999c-3.33301 -20.667 -5.33301 -35.834 -6 -45.501s-1 -21.5 -1 -35.5c8 1.33301 15.5 2 22.5 2s21.833 -1 44.5 -3
c63.333 -6.66699 103.166 -12.667 119.499 -18s31.166 -12.333 44.499 -21c27.333 -19.333 48.166 -49 62.499 -89s21.5 -89.333 21.5 -148c0 -76 -7.5 -131.667 -22.5 -167s-43.833 -67.666 -86.5 -96.999c-42.667 -28 -83.5 -46 -122.5 -54s-78.833 -7.66699 -119.5 1
c-32 7.33301 -57.667 19 -77 35s-29 32 -29 48c0 14 5.83301 27.167 17.5 39.5s24.5 18.5 38.5 18.5c15.333 0 30.5 -7.5 45.5 -22.5s53.167 -17.167 114.5 -6.5c42.667 8 75.334 29.833 98.001 65.5s34 89.167 34 160.5c-0.666992 57.333 -17 99.333 -49 126
s-84.667 35 -158 25c0 -57.333 0 -85.666 0 -84.999v0c-3.33301 -21.333 -5 -32.5 -5 -33.5v-2.5c0 -8 3.83301 -19 11.5 -33s11.5 -24.667 11.5 -32c0 -27.333 -7.66699 -47.666 -23 -60.999s-36 -20 -62 -20c-10 0 -17.667 5 -23 15s-8 23.333 -8 40c0 2 1 4.5 3 7.5
s3 5.16699 3 6.5c0 -0.666992 -3.5 3.16602 -10.5 11.499s-10.5 20.166 -10.5 35.499v5.5c0 2.33301 2.66699 12.5 8 30.5c2.66699 10.667 4.33398 17.5 5.00098 20.5s1 6.16699 1 9.5c-0.666992 6 -1.83398 15.667 -3.50098 29s-2.5 23.333 -2.5 30
c0 41.333 0.666992 80.666 2 117.999s4 84.333 8 141c-29.333 -4 -48 -8 -56 -12s-34.667 -8 -80 -12c-33.333 -3.33301 -57.166 -8.66602 -71.499 -15.999s-22.833 -11 -25.5 -11c-24.667 -0.666992 -46.167 4.5 -64.5 15.5s-27.5 24.5 -27.5 40.5
c0 18.667 6.5 33.667 19.5 45s76.833 24.666 191.5 39.999c6.66699 0.666992 24 3.5 52 8.5s54 8.83301 78 11.5c-2.66699 23.333 2.33301 42.333 15 57s27.667 22 45 22z" />
    <glyph glyph-name="afii10052" horiz-adv-x="564" 
d="M252 616c19.333 -0.666992 31.3301 -7.83008 35.9971 -21.4971s8.66699 -20.5 12 -20.5c2.66699 0 13.667 3.16699 33 9.5s41 12.833 65 19.5c48 12 82.833 20.167 104.5 24.5s40.5 6.83301 56.5 7.5c4 0 10.333 -0.5 19 -1.5s15 -1.5 19 -1.5c2 0 5 2 9 6
s7.66699 6.33301 11 7c24 -0.666992 42.667 -6.83398 56 -18.501s20.333 -26.834 21 -45.501c0 -12.667 -3.66699 -22.5 -11 -29.5s-27.666 -10.5 -60.999 -10.5c-2.66699 -0.666992 -5.16699 -1 -7.5 -1s-41.833 -7 -118.5 -21c-2.66699 -0.666992 -1 -0.5 5 0.5
s-62 -14.5 -204 -46.5c-1.33301 -18 -2 -34.667 -2 -50s0.333008 -32.333 1 -51c2 -84 3.33301 -137.167 4 -159.5s1 -42.5 1 -60.5c0 -11.333 -0.5 -27.666 -1.5 -48.999s-1.5 -37 -1.5 -47c-0.666992 -4 -0.833984 -11.333 -0.500977 -22s0.5 -19 0.5 -25
c-0.666992 -9.33301 -1 -15.166 -1 -17.499s0.333008 -4.5 1 -6.5c0.666992 -9.33301 1.16699 -18 1.5 -26s0.5 -15.333 0.5 -22c0 -9.33301 -4.66699 -18.166 -14 -26.499s-19 -12.5 -29 -12.5c-28.667 0 -49 6.66699 -61 20s-17.667 33.666 -17 60.999
c0 16 1.5 34.833 4.5 56.5s4.5 55.167 4.5 100.5c0 4 -0.166992 10 -0.5 18s-0.5 14 -0.5 18c0 5.33301 1.16699 13.166 3.5 23.499s3.5 18.5 3.5 24.5c0 12.667 -0.333008 31.834 -1 57.501s-1 45.167 -1 58.5c0 6 0.333008 14.167 1 24.5s1.33398 17.833 2.00098 22.5
c0 0.666992 -0.166992 0.666992 -0.5 0s-0.166016 21.333 0.500977 66c-18.667 -2.66699 -38.167 -4.83398 -58.5 -6.50098s-35.5 -2.5 -45.5 -2.5c-20.667 0 -35.667 3.33301 -45 10s-14 17.667 -14 33c0 17.333 5.83301 31.666 17.5 42.999s28.834 16.666 51.501 15.999
c5.33301 -0.666992 9.16602 -1 11.499 -1s4.83301 0.333008 7.5 1c6 0 15.333 1.66699 28 5s28.334 5 47.001 5c-2 20 0 35.667 6 47s23 17 51 17zM314.997 650.004c-5.33301 2 -9.66602 5.33301 -12.999 10s-5.66602 10.667 -6.99902 18c-2.66699 10.667 -2 24.667 2 42
s11.667 38.333 23 63c10 22.667 15.333 35 16 37s1.66699 4.33301 3 7c1.33301 4 2.83301 9.5 4.5 16.5s3.16699 12.167 4.5 15.5c4 13.333 9 23.833 15 31.5s16.667 13.834 32 18.501c14 3.33301 24.167 4.83301 30.5 4.5s12.833 -1.5 19.5 -3.5
c6.66699 -2.66699 11.5 -5.66699 14.5 -9s4.5 -8 4.5 -14c0 -4 -0.666992 -7.66699 -2 -11s-6 -11 -14 -23c-2.66699 -3.33301 -5 -6.83301 -7 -10.5s-12.333 -32.834 -31 -87.501c-5.33301 -14 -12.333 -30.333 -21 -49s-13.334 -29 -14.001 -31
c-5.33301 -11.333 -10.833 -19 -16.5 -23s-12.834 -6 -21.501 -6c-4 -0.666992 -8 -0.666992 -12 0s-7.33301 2 -10 4z" />
    <glyph glyph-name="afii10061" horiz-adv-x="562" 
d="M194 374l26 38.001c5.33301 8 12.666 15.833 21.999 23.5s32 20.5 68 38.5c12.667 6 22 11.333 28 16s10.667 10 14 16c18.667 31.333 30 48.166 34 50.499s9 4.83301 15 7.5c8.66699 3.33301 17.667 5 27 5s18 -1.66699 26 -5
c11.333 -5.33301 20.166 -14.833 26.499 -28.5s9.5 -30.834 9.5 -51.501c0 -6.66699 -4 -14 -12 -22s-34.333 -29.333 -79 -64c-106 -82 -158.667 -121.833 -158 -119.5s1 2.5 1 0.5c0 -0.666992 -0.166992 -1 -0.5 -1s40.834 -23.333 123.501 -70
c24.667 -14.667 50.5 -24 77.5 -28s69.167 -1 126.5 9c32.667 5.33301 59.167 2 79.5 -10s30.833 -27 31.5 -45c0 -22 -8.5 -38.5 -25.5 -49.5s-47.167 -16.5 -90.5 -16.5c-91.333 -1.33301 -145.5 0.333984 -162.5 5.00098s-32.833 11 -47.5 19l-79 38.5
c-0.666992 0.333008 -10.334 1.16602 -29.001 2.49902c2 -27.333 -2.83301 -51.333 -14.5 -72s-25.834 -31 -42.501 -31c-33.333 0 -58.166 14.667 -74.499 44s-24.166 72 -23.499 128c0 33.333 -0.166992 50.666 -0.5 51.999s-0.5 2.66602 -0.5 3.99902
c-0.666992 0.666992 -2 3 -4 7s-3 7.33301 -3 10c0 6.66699 0.333008 14 1 22s2 19 4 33c0.666992 8 0.666992 19.167 0 33.5s-0.666992 23.5 0 27.5c0 10.667 1.5 27.334 4.5 50.001s4.5 39.667 4.5 51c0 6.66699 -1.16699 17 -3.5 31s-3.16602 25 -2.49902 33
c-0.666992 22.667 3.33301 40.834 12 54.501s19.667 20.5 33 20.5c22.667 0 39.667 -9.66699 51 -29s17 -50.666 17 -93.999c0 -38 -0.833008 -65 -2.5 -81s-4.16699 -33.667 -7.5 -53zM264 667.001c-5.33301 2 -9.66602 5.33301 -12.999 10s-5.66602 10.667 -6.99902 18
c-2.66699 10.667 -2 24.667 2 42s11.667 38.333 23 63c10 22.667 15.333 35 16 37s1.66699 4.33301 3 7c1.33301 4 2.83301 9.5 4.5 16.5s3.16699 12.167 4.5 15.5c4 13.333 9 23.833 15 31.5s16.667 13.834 32 18.501c14 3.33301 24.167 4.83301 30.5 4.5
s12.833 -1.5 19.5 -3.5c6.66699 -2.66699 11.5 -5.66699 14.5 -9s4.5 -8 4.5 -14c0 -4 -0.666992 -7.66699 -2 -11s-6 -11 -14 -23c-2.66699 -3.33301 -5 -6.83301 -7 -10.5s-12.333 -32.834 -31 -87.501c-5.33301 -14 -12.333 -30.333 -21 -49s-13.334 -29 -14.001 -31
c-5.33301 -11.333 -10.833 -19 -16.5 -23s-12.834 -6 -21.501 -6c-4 -0.666992 -8 -0.666992 -12 0s-7.33301 2 -10 4z" />
    <glyph glyph-name="afii10060" horiz-adv-x="657" 
d="M278 733c14 0 26.3379 -7.16602 37.0049 -21.499s14 -30.166 10 -47.499c22.667 -0.666992 38.667 -0.833984 48 -0.500977s18 0.833008 26 1.5c49.333 2 74.666 3.16699 75.999 3.5s2.66602 0.5 3.99902 0.5c4.66699 0 12.167 -0.333008 22.5 -1
s18.166 -0.666992 23.499 0c5.33301 0 14 1 26 3s21.667 3 29 3c17.333 0 29.5 -4 36.5 -12s10.5 -22 10.5 -42c-0.666992 -23.333 -6 -39.166 -16 -47.499s-25.667 -12.5 -47 -12.5c-9.33301 0 -21 0.5 -35 1.5s-23 1.83301 -27 2.5h-23.5h-26.5
c-22 -1.33301 -43.833 -3 -65.5 -5s-46.5 -3 -74.5 -3c-0.666992 -11.333 -1.5 -20.666 -2.5 -27.999s-2.5 -17.666 -4.5 -30.999c-3.33301 -20.667 -5.33301 -35.834 -6 -45.501s-1 -21.5 -1 -35.5c9.33301 1.33301 18.166 2 26.499 2s21.833 -1 40.5 -3
c48.667 -6 84.167 -11.833 106.5 -17.5s40.833 -12.834 55.5 -21.501c25.333 -16.667 44.333 -39 57 -67s19 -85 19 -171c-0.666992 -48 -5.83398 -82.167 -15.501 -102.5s-23.5 -30.833 -41.5 -31.5c-33.333 -2.66699 -55 6.33301 -65 27s-6.33301 55.667 11 105
c20 58.667 11.667 105.167 -25 139.5s-93.334 46.166 -170.001 35.499c0 -57.333 0 -85.666 0 -84.999v0c-3.33301 -21.333 -5 -32.5 -5 -33.5v-2.5c0 -8 3.83301 -19 11.5 -33s11.5 -24.667 11.5 -32c0 -27.333 -7.66699 -47.666 -23 -60.999s-36 -20 -62 -20
c-10 0 -17.667 5 -23 15s-8 23.333 -8 40c0 2 1 4.5 3 7.5s3 5.16699 3 6.5c0 -0.666992 -3.5 3.16602 -10.5 11.499s-10.5 20.166 -10.5 35.499v5.5c0 2.33301 2.66699 12.5 8 30.5c2.66699 10.667 4.33398 17.5 5.00098 20.5s1 6.16699 1 9.5
c-0.666992 6 -1.83398 15.667 -3.50098 29s-2.5 23.333 -2.5 30c0 41.333 0.666992 80.666 2 117.999s4 84.333 8 141c-29.333 -4 -48 -8 -56 -12s-34.667 -8 -80 -12c-33.333 -3.33301 -57.166 -8.66602 -71.499 -15.999s-22.833 -11 -25.5 -11
c-24.667 -0.666992 -46.167 4.5 -64.5 15.5s-27.5 24.5 -27.5 40.5c0 18.667 6.5 33.667 19.5 45s76.833 24.666 191.5 39.999c6.66699 0.666992 24 3.5 52 8.5s54 8.83301 78 11.5c-2.66699 23.333 2.33301 42.333 15 57s27.667 22 45 22z" />
    <glyph glyph-name="afii10145" horiz-adv-x="679" 
d="M130 516c12.667 0 26.0039 -6.16504 40.0039 -18.498s21 -24.5 21 -36.5c-0.666992 -11.333 -5.5 -26.333 -14.5 -45s-11.5 -54.667 -7.5 -108c10 -136.667 15 -204.834 15 -204.501s9.66699 0.5 29 0.5c6.66699 0 15 4.5 25 13.5s18.333 18.833 25 29.5
c4 7.33301 10.333 20.5 19 39.5s16 33.167 22 42.5c16 24.667 24.167 37.5 24.5 38.5s0.833008 2.16699 1.5 3.5c2 5.33301 4.16699 14.666 6.5 27.999s7.5 28 15.5 44c1.33301 2.66699 8.66602 16.334 21.999 41.001s24 46.667 32 66c10.667 27.333 24.667 48.333 42 63
s38.333 22 63 22c7.33301 0 14.166 -4.83301 20.499 -14.5s11.5 -22.5 15.5 -38.5c2 -9.33301 3.16699 -19 3.5 -29s-0.833984 -27 -3.50098 -51c-2 -13.333 -3.16699 -27.5 -3.5 -42.5s-0.5 -41.167 -0.5 -78.5c-0.666992 -8 0.166016 -22.5 2.49902 -43.5
s2.83301 -38.5 1.5 -52.5c-3.33301 -31.333 -3.83301 -50.5 -1.5 -57.5s11.166 -12.833 26.499 -17.5c22.667 -7.33301 36.667 -14 42 -20s8 -13 8 -21c0 -21.333 -8 -44.833 -24 -70.5s-30.333 -38.5 -43 -38.5c-31.333 0 -55.666 10.833 -72.999 32.5
s-32.666 74.167 -45.999 157.5c-0.666992 1.33301 -0.833984 1.5 -0.500977 0.5s0.5 39.5 0.5 121.5c-40.667 -108.667 -78 -183.334 -112 -224.001s-70 -61 -108 -61c-47.333 0 -84 24.167 -110 72.5s-38.667 124.833 -38 229.5c0 92.667 1 142 3 148s8 18 18 36
s17.833 29.667 23.5 35s11.5 8 17.5 8zM227.004 -330.998c-7.33301 4 -12.832 8.49707 -16.499 13.4971s-6.16699 11.833 -7.5 20.5c-3.33301 16 -2.33301 34.5 3 55.5s14.333 44.833 27 71.5l19.5 46.5c1 2.33301 2.16699 4.5 3.5 6.5l5.5 21
c2.33301 8.66699 4.16602 14.667 5.49902 18c4.66699 16.667 10.667 29.834 18 39.501s20.333 16.5 39 20.5l41 11l19 -9c13.333 -6 20 -15.667 20 -29s-5.33301 -27 -16 -41c-1.33301 -1.33301 -2.83301 -3.16602 -4.5 -5.49902s-15.5 -40.166 -41.5 -113.499
c-4 -10.667 -11.167 -27 -21.5 -49s-17.166 -37.667 -20.499 -47c-6 -12.667 -12.667 -21.5 -20 -26.5s-16 -8.16699 -26 -9.5c-4.66699 0 -9.33398 0.5 -14.001 1.5s-9 2.5 -13 4.5z" />
    <glyph glyph-name="afii10099" horiz-adv-x="532" 
d="M157 298l0.000976562 -26.501v-20.5c-2 -47.333 -1.66699 -81.833 1 -103.5s7 -33.5 13 -35.5c0 -0.666992 -0.666992 -1 -2 -1s10.334 23.667 35.001 71c4 8 10.167 16.833 18.5 26.5s13.833 16.5 16.5 20.5c36.667 53.333 63.5 86.666 80.5 99.999s34.167 20 51.5 20
c23.333 0 45.833 -20.5 67.5 -61.5s39.834 -99.833 54.501 -176.5c3.33301 -22 6.83301 -51.333 10.5 -88s5.5 -66 5.5 -88c-0.666992 -40 -9.16699 -85 -25.5 -135s-36.166 -93.667 -59.499 -131c-20 -30 -46.167 -55.667 -78.5 -77s-61.833 -32.333 -88.5 -33
c-36.667 0 -66.834 11.333 -90.501 34s-43.5 58.667 -59.5 108c-4 12 -8.33301 33.5 -13 64.5s-7 51.5 -7 61.5c0 14.667 5.16699 28.834 15.5 42.501s22.833 20.5 37.5 20.5c18 0 31.5 -6.33301 40.5 -19s13.833 -32.667 14.5 -60c0 -4 -1.16699 -10 -3.5 -18
s-3.16602 -14 -2.49902 -18c0 -24 6.83301 -50 20.5 -78s31.5 -41 53.5 -39c12 2 27 10.333 45 25s33.333 31 46 49c15.333 24 29 55.833 41 95.5s17 71.834 15 96.501c-4 42.667 -8.83301 80.5 -14.5 113.5s-11.5 59.167 -17.5 78.5c-4.66699 12 -10.667 25.667 -18 41
s-13.666 27 -18.999 35c-6.66699 10 -12.834 13 -18.501 9s-15.167 -23.667 -28.5 -59c-6 -15.333 -12.333 -29.5 -19 -42.5s-22.334 -39.167 -47.001 -78.5c-16.667 -26 -33.334 -45 -50.001 -57s-33.334 -18 -50.001 -18c-25.333 0 -43.833 13.5 -55.5 40.5
s-17.5 76.833 -17.5 149.5v147c0 16 0.333008 34 1 54c-8.66699 -3.33301 -17.667 -5.66602 -27 -6.99902s-20 -2 -32 -2c-17.333 0 -31 4.16699 -41 12.5s-15.333 20.166 -16 35.499c0 14 4 25.333 12 34s36 14.667 84 18l17 1c-8 80 -9.33301 128.333 -4 145
s15.333 25 30 25c26.667 0 45.5 -8.66699 56.5 -26s16.167 -55.333 15.5 -114c20 7.33301 42.667 18.333 68 33s43 22 53 22c12 0 21.333 -3.33301 28 -10s10 -15.667 10 -27c-0.666992 -20 -19.334 -43.167 -56.001 -69.5s-70 -41.833 -100 -46.5
c0.666992 -10.667 1.16699 -21.167 1.5 -31.5s0.833008 -20.833 1.5 -31.5z" />
    <glyph glyph-name="afii10109" horiz-adv-x="415" 
d="M107 331c4.66699 -4 8.16992 -10 10.5029 -18s3.5 -20.333 3.5 -37c0 -8.66699 -0.5 -20.167 -1.5 -34.5s-1.5 -24.833 -1.5 -31.5c0 -20 0.5 -34.333 1.5 -43s2.83301 -17.334 5.5 -26.001l6 12c23.333 46.667 52.166 85.834 86.499 117.501s62.833 43.834 85.5 36.501
c8 -3.33301 16.5 -10.833 25.5 -22.5s13.5 -21.834 13.5 -30.501c-0.666992 -19.333 -15.834 -36.666 -45.501 -51.999s-47.167 -31.666 -52.5 -48.999c-0.666992 -2 -1.16699 -4 -1.5 -6s0.166992 -6 1.5 -12c2 -20.667 6.33301 -33.834 13 -39.501
s16.334 -8.5 29.001 -8.5c6.66699 0 14.5 1.16699 23.5 3.5s19.167 5.83301 30.5 10.5c73.333 32 108.833 48.333 106.5 49s-2.16602 0.666992 0.500977 0c7.33301 -4 14 -11.167 20 -21.5s9 -20.166 9 -29.499c-0.666992 -6.66699 -6.5 -16.167 -17.5 -28.5
s-27.167 -26.166 -48.5 -41.499c-17.333 -12.667 -39.833 -23.334 -67.5 -32.001s-54.5 -13 -80.5 -13c-14 0 -29.667 4 -47 12s-34.333 18.667 -51 32c-32 -34 -59.833 -45 -83.5 -33s-39.834 41 -48.501 87c-2 8.66699 -4.83301 17.667 -8.5 27s-5.5 17.333 -5.5 24
c-0.666992 4.66699 -0.666992 11.167 0 19.5s1 14.166 1 17.499c0 2.66699 -0.666992 7.16699 -2 13.5s-2 11.166 -2 14.499c0 5.33301 0.666992 13 2 23l3 22v3v22c-0.666992 24 2.83301 41.667 10.5 53s21.5 17 41.5 17c9.33301 0 16.666 -0.666992 21.999 -2
s9.66602 -3 12.999 -5zM166.003 390c-5.33301 2 -9.66602 5.33301 -12.999 10s-5.66602 10.667 -6.99902 18c-2.66699 10.667 -2 24.667 2 42s11.667 38.333 23 63c10 22.667 15.333 35 16 37s1.66699 4.33301 3 7c1.33301 4 2.83301 9.5 4.5 16.5s3.16699 12.167 4.5 15.5
c4 13.333 9 23.833 15 31.5s16.667 13.834 32 18.501c14 3.33301 24.167 4.83301 30.5 4.5s12.833 -1.5 19.5 -3.5c6.66699 -2.66699 11.5 -5.66699 14.5 -9s4.5 -8 4.5 -14c-0.666992 -4 -1.5 -7.66699 -2.5 -11s-5.5 -11 -13.5 -23
c-2.66699 -3.33301 -5 -6.83301 -7 -10.5s-12.333 -32.834 -31 -87.501c-5.33301 -14 -12.333 -30.333 -21 -49s-13.334 -29 -14.001 -31c-5.33301 -11.333 -10.833 -19 -16.5 -23s-12.834 -6 -21.501 -6c-4 -0.666992 -8 -0.666992 -12 0s-7.33301 2 -10 4z" />
    <glyph glyph-name="afii10108" horiz-adv-x="630" 
d="M157 298l0.00390625 -26.5v-20.5c-1.33301 -39.333 -2 -61.833 -2 -67.5s0.666992 -11.834 2 -18.501c1.33301 -16.667 3.16602 -29.667 5.49902 -39s5.16602 -14 8.49902 -14l-2.5 -1.5c-1.66699 -1 10.166 22.833 35.499 71.5c4 8 10.167 16.833 18.5 26.5
s13.833 16.5 16.5 20.5c37.333 54 64.333 87.333 81 100s33.667 19.334 51 20.001c12 0 21.667 -2.5 29 -7.5s23.333 -52.5 48 -142.5c8 -28.667 17.5 -48.834 28.5 -60.501s25.833 -17.5 44.5 -17.5c3.33301 0 8.5 0.5 15.5 1.5s17.167 2.83301 30.5 5.5
c12 2 23.833 5.16699 35.5 9.5s21.167 6.5 28.5 6.5c16 0 28.167 -5.16699 36.5 -15.5s12.5 -27.5 12.5 -51.5c0 -18.667 -14 -33.667 -42 -45s-63 -17 -105 -17c-40 0 -74.667 9.83301 -104 29.5s-49 42.834 -59 69.501c-2 3.33301 -5.5 14.666 -10.5 33.999
s-11.167 34 -18.5 44c-6.66699 10 -12.834 13.167 -18.501 9.5s-15.167 -23.5 -28.5 -59.5c-20.667 -55.333 -46.667 -101.666 -78 -138.999s-60.666 -56.333 -87.999 -57c-25.333 0 -43.833 13.5 -55.5 40.5s-17.5 76.833 -17.5 149.5v147c0 16 0.333008 34 1 54
c-8.66699 -3.33301 -17.667 -5.66602 -27 -6.99902s-20 -2 -32 -2c-17.333 0 -31 4.16699 -41 12.5s-15.333 20.166 -16 35.499c0 14 4 25.333 12 34s36 14.667 84 18l17 1c-8 80 -9.33301 128.333 -4 145s15.333 25 30 25c26.667 0 45.5 -8.66699 56.5 -26
s16.167 -55.333 15.5 -114c20 7.33301 42.667 18.333 68 33s43 22 53 22c12 0 21.333 -3.33301 28 -10s10 -15.667 10 -27c-0.666992 -20 -19.334 -43.167 -56.001 -69.5s-70 -41.833 -100 -46.5c0.666992 -10.667 1.16699 -21.167 1.5 -31.5s0.833008 -20.833 1.5 -31.5z
" />
    <glyph glyph-name="afii10062" unicode="&#xa1;" horiz-adv-x="519" 
d="M461 643c9.33301 0 18.667 -2.66504 28 -7.99805s14 -11.333 14 -18c0 -16 -14.833 -52.5 -44.5 -109.5s-49.167 -101.5 -58.5 -133.5c-1.33301 -2.66699 -1 -1.16699 1 4.5s-17.333 -40.833 -58 -139.5c-4.66699 -11.333 -10.167 -23 -16.5 -35s-12.5 -27 -18.5 -45
c-10 -29.333 -16.5 -47.833 -19.5 -55.5s-6.16699 -15.167 -9.5 -22.5c-20.667 -46.667 -42.5 -77.667 -65.5 -93s-47.167 -15.333 -72.5 0c-4 2.66699 -8.16699 5.66699 -12.5 9s30.167 89.666 103.5 258.999c-66.667 76 -117.834 142 -153.501 198s-53.5 98 -53.5 126
c0 7.33301 4 14.666 12 21.999s17 11 27 11c4.66699 0 5.5 0.166992 2.5 0.5s67.833 -77.5 212.5 -233.5c64.667 143.333 105.834 223 123.501 239s37.167 24 58.5 24zM380.001 801.002c18 0 32.334 -5.67188 43.001 -17.0049s16 -25 16 -41
c0 -7.33301 -5.66699 -17.166 -17 -29.499s-22 -21.5 -32 -27.5c-3.33301 -2 -8 -4.33301 -14 -7s-10.333 -4.66699 -13 -6c-4 -2.66699 -8.83301 -6.66699 -14.5 -12s-9.5 -8.66602 -11.5 -9.99902c-4.66699 -4 -9.5 -7.16699 -14.5 -9.5s-29.167 -5.16602 -72.5 -8.49902
c-8.66699 -1.33301 -20.834 -3.5 -36.501 -6.5s-28.834 -4.5 -39.501 -4.5c-14 0 -26.167 2.66699 -36.5 8s-15.166 12 -14.499 20c0 31.333 4 52.333 12 63s20 16.334 36 17.001c4.66699 0 11.667 -0.166992 21 -0.5s16.333 -0.5 21 -0.5c53.333 0 79.5 11.833 78.5 35.5
s28.5 35.834 88.5 36.501z" />
    <glyph glyph-name="afii10110" unicode="&#xa2;" horiz-adv-x="393" 
d="M194 362c7.33301 0 16.0029 -4.33984 26.0029 -13.0068s15 -17 15 -25c0 -6 -1.33301 -12.5 -4 -19.5s-16.334 -33.833 -41.001 -80.5c-6 -11.333 -10 -19.166 -12 -23.499s-3 -7.16602 -3 -8.49902c-0.666992 -1.33301 -0.333984 -1.83301 0.999023 -1.5
s10.333 4.5 27 12.5c13.333 6 33.5 23.333 60.5 52s49.5 43 67.5 43c8.66699 0 16.667 -5.83301 24 -17.5s11 -23.167 11 -34.5c0 -10 -3.16699 -25 -9.5 -45s-9.5 -36 -9.5 -48c-0.666992 -8 0 -19.5 2 -34.5s3 -26.167 3 -33.5c0 -42 -5.33301 -97.167 -16 -165.5
s-22.334 -117.833 -35.001 -148.5c-21.333 -48.667 -43.666 -83.667 -66.999 -105s-51 -32 -83 -32c-29.333 0 -59.666 10.333 -90.999 31s-51.666 45.334 -60.999 74.001c-2 6 -4 10.667 -6 14s-5 7.33301 -9 12c-5.33301 6 -9 10.5 -11 13.5s-4 6.83301 -6 11.5
c-1.33301 2.66699 -2.5 5.5 -3.5 8.5s-2.5 10.5 -4.5 22.5c-1.33301 8.66699 -5 16.334 -11 23.001s-9.33301 14.667 -10 24c0 20.667 3.83301 37.5 11.5 50.5s16.834 19.5 27.501 19.5c18 0 34.833 -7.16699 50.5 -21.5s23.834 -30.5 24.501 -48.5
c0 -3.33301 -0.333008 -8 -1 -14s-1 -10.667 -1 -14v-0.5c0 -0.333008 6 -7.16602 18 -20.499c2 -2 3.83301 -4.33301 5.5 -7s6.16699 -10.667 13.5 -24c8 -15.333 17.167 -27.666 27.5 -36.999s20.5 -14 30.5 -14c28 0 53 28.5 75 85.5s33 139.5 33 247.5
c-0.666992 13.333 -1.83398 23 -3.50098 29s-4.16699 9 -7.5 9c-0.666992 0 -11.334 -4.16699 -32.001 -12.5s-43.334 -12.5 -68.001 -12.5c-23.333 0 -43 6.33301 -59 19s-23.667 26.334 -23 41.001c0 16 4.66699 30.5 14 43.5s14 23.5 14 31.5
c0 3.33301 -5.66699 2.16602 -17 -3.50098s-19 -8.5 -23 -8.5c-15.333 0 -28.833 5.83301 -40.5 17.5s-17.834 24.834 -18.501 39.501c0 2.66699 0.666992 5.83398 2 9.50098s29 18.5 83 44.5c46 21.333 75.167 34.166 87.5 38.499s23.166 6.5 32.499 6.5zM411.003 553.993
c16 0 28.8301 -4.99512 38.4971 -14.9951s14.834 -22 15.501 -36c-0.666992 -18.667 -20.667 -40.834 -60 -66.501s-68.666 -38.834 -87.999 -39.501c-4 -0.666992 -10.167 -0.833984 -18.5 -0.500977s-14.5 0.5 -18.5 0.5c-8.66699 -1.33301 -20.167 -3.5 -34.5 -6.5
s-27.833 -4.5 -40.5 -4.5c-13.333 0 -24.5 2.16699 -33.5 6.5s-13.5 10.166 -13.5 17.499c0 28 3.83301 47.167 11.5 57.5s18.834 15.5 33.501 15.5c4.66699 0 11.667 -0.333008 21 -1s16.333 -0.666992 21 0c10 0 24.167 1.5 42.5 4.5s30.833 6.5 37.5 10.5
c2.66699 1.33301 13.167 11.166 31.5 29.499s36.5 27.5 54.5 27.5z" />
    <glyph glyph-name="afii10057" unicode="&#xa3;" horiz-adv-x="399" 
d="M224 706c18 0 32.668 -7.16504 44.001 -21.498s29 -87.5 53 -219.5c2.66699 -16 4.5 -44.333 5.5 -85s1.5 -100.334 1.5 -179.001c0 -94.667 -26 -176.834 -78 -246.501s-116.333 -104.5 -193 -104.5c-46 0 -93.5 15.833 -142.5 47.5s-73.5 62.5 -73.5 92.5
c0 22 8.5 44.333 25.5 67s34.833 34 53.5 34c12.667 -0.666992 22.167 -3.5 28.5 -8.5s10.5 -27.167 12.5 -66.5c1.33301 -16.667 9 -29.667 23 -39s36 -14 66 -14c36 0 63 5.33301 81 16s38 38 60 82c26 53.333 38.833 99.5 38.5 138.5s-6.5 119.167 -18.5 240.5
c-6.66699 58 -14.834 101.167 -24.501 129.5s-14.5 49.5 -14.5 63.5c0 36.667 4.66699 58 14 64s22 9 38 9z" />
    <glyph glyph-name="afii10050" unicode="&#xa5;" horiz-adv-x="528" 
d="M238 626c20 0 34.8271 -9.49707 44.4941 -28.4971s15.834 -28.5 18.501 -28.5c66.667 0 127.167 15.333 181.5 46s87.833 46 100.5 46c26.667 0 45.834 -5.33301 57.501 -16s17.5 -26.334 17.5 -47.001c0 -32.667 -16.167 -58.167 -48.5 -76.5
s-135.833 -36.5 -310.5 -54.5c4 -50 4.16699 -99.333 0.5 -148s-5.5 -93.667 -5.5 -135c0 -7.33301 0.833008 -18.166 2.5 -32.499s2.5 -25.166 2.5 -32.499c0 -30.667 -2 -51.167 -6 -61.5s-6 -17.166 -6 -20.499c0 -2.66699 0.5 -6.33398 1.5 -11.001s1.83301 -8 2.5 -10
c0 -11.333 -4.66699 -22.166 -14 -32.499s-19.666 -15.5 -30.999 -15.5c-22 0 -40.333 6 -55 18s-22 27.333 -22 46c0 8 2.16699 18.5 6.5 31.5s7.16602 22.167 8.49902 27.5c0.666992 3.33301 1.16699 7 1.5 11s0.5 8.66699 0.5 14c0 28.667 1.5 49.667 4.5 63
s4.5 28.666 4.5 45.999c0 12 -0.5 30.333 -1.5 55s-1.5 43.334 -1.5 56.001c0 8 0.5 21.667 1.5 41s1.16699 44.666 0.5 75.999c-16 -4.66699 -32.167 -8 -48.5 -10s-35.166 -3 -56.499 -3s-36.166 3.16699 -44.499 9.5s-12.5 17.166 -12.5 32.499
c0 21.333 4.33301 36.833 13 46.5s27.334 14.167 56.001 13.5c0 -0.666992 -0.166992 -0.833984 -0.5 -0.500977s6.16699 0.5 19.5 0.5c26.667 -0.666992 44.5 0.666016 53.5 3.99902s15.833 9 20.5 17c25.333 41.333 38.333 62.166 39 62.499s2.33398 0.5 5.00098 0.5z" />
    <glyph glyph-name="section" unicode="&#xa7;" horiz-adv-x="462" 
d="M191 646c2.66699 0 5.5 0.161133 8.5 0.494141s12.167 0.5 27.5 0.5c32 0 64.167 -9.33301 96.5 -28s48.5 -38.667 48.5 -60c0 -12.667 -3.16699 -24.167 -9.5 -34.5s-13.166 -15.166 -20.499 -14.499c-15.333 0 -34.833 7 -58.5 21s-46.834 21 -69.501 21
c-4.66699 0 -8.66699 -1.66699 -12 -5s-5 -7.33301 -5 -12c0 -3.33301 0.5 -6.66602 1.5 -9.99902s25.5 -29.333 73.5 -78c52.667 -54.667 89 -101.5 109 -140.5s30 -76.5 30 -112.5c0 -34.667 -12.333 -67 -37 -97s-56.667 -48 -96 -54c24.667 -25.333 44 -50.833 58 -76.5
s21 -52.167 21 -79.5c0 -26 -12 -49.667 -36 -71s-55.333 -32.333 -94 -33c-50.667 0 -88.334 8.33301 -113.001 25s-37 40.334 -37 71.001c0 13.333 2.66699 24.833 8 34.5s12 14.5 20 14.5c18 0 36.5 -9 55.5 -27s35.167 -27 48.5 -27c14 0 25 2 33 6s12 9.33301 12 16
c0 8 -2.66699 16.667 -8 26s-46.666 54 -123.999 134c-38 38.667 -62.833 69.834 -74.5 93.501s-17.5 48.834 -17.5 75.501c0 53.333 10 94.333 30 123s48.333 43 85 43c30.667 0 49.667 -13.667 57 -41s-3 -47 -31 -59c-20.667 -9.33301 -32.334 -18.166 -35.001 -26.499
s-4 -20.5 -4 -36.5c0 -20.667 9.5 -40.167 28.5 -58.5s42.833 -27.5 71.5 -27.5c17.333 -0.666992 33.666 4.33301 48.999 15s23 24.334 23 41.001c0 20.667 -5.16699 41.334 -15.5 62.001s-27.166 43.667 -50.499 69c-88 93.333 -134.167 147.166 -138.5 161.499
s-6.5 31.166 -6.5 50.499c-0.666992 28 7.83301 51.5 25.5 70.5s41.834 30.5 72.501 34.5z" />
    <glyph glyph-name="afii10023" unicode="&#xa8;" 
d="M510 674c8 0 16.165 -2.99902 24.498 -8.99902s12.5 -12.333 12.5 -19c0 -17.333 -5.33301 -34.833 -16 -52.5s-23.334 -27.5 -38.001 -29.5c-5.33301 -1.33301 -13.666 -1.5 -24.999 -0.5s-19.333 1.16699 -24 0.5c-2 -0.666992 -3.66699 -1.16699 -5 -1.5
s-9 -3.16602 -23 -8.49902c-6 -2.66699 -12.333 -5 -19 -7s-14.667 -3.66699 -24 -5c-4.66699 -0.666992 -11.667 -1.83398 -21 -3.50098s-16.333 -2.83398 -21 -3.50098c-2 -0.666992 -3.16699 -1 -3.5 -1s-26.5 -6.33301 -78.5 -19
c-27.333 -6.66699 -47.5 -16.834 -60.5 -30.501s-29.167 -20.5 -48.5 -20.5c-17.333 0 -30.666 4.83301 -39.999 14.5s-13.666 25.834 -12.999 48.501c0 24.667 24 49.167 72 73.5s89.333 36.5 124 36.5c2 0 4.5 -0.666992 7.5 -2s5.5 -2 7.5 -2
c-5.33301 0 16 6.83301 64 20.5s97.333 20.5 148 20.5zM116.998 466.001c15.333 0 28.4971 -9.33398 39.4971 -28.001s9.16699 -38.334 -5.5 -59.001c84.667 4.66699 136.834 7.5 156.501 8.5s35.5 2.5 47.5 4.5c6 0.666992 12.5 1.5 19.5 2.5s16.5 2.5 28.5 4.5
c20 3.33301 32.667 5.5 38 6.5s10.333 1.83301 15 2.5c8 0.666992 14.667 1 20 1s10.333 -0.333008 15 -1c11.333 -2.66699 21.166 -6.66699 29.499 -12s12.5 -11 12.5 -17c0 -22.667 -15.667 -44.667 -47 -66s-69.333 -31.666 -114 -30.999h-34h-11
c-23.333 -0.666992 -46.166 -2.16699 -68.499 -4.5s-37.166 -3.5 -44.499 -3.5c-4 0 -9.5 0.833008 -16.5 2.5s-12.167 2.5 -15.5 2.5c-4.66699 0 -10.667 -1.66699 -18 -5s-12.333 -5 -15 -5c-1.33301 -0.666992 -2.83301 -1 -4.5 -1h-5.5c-2 -50 10.667 -86.667 38 -110
s83.333 -35 168 -35c58 -0.666992 110.833 8 158.5 26s71.834 27 72.501 27c6.66699 0 12.834 -4.66699 18.501 -14s8.5 -18.666 8.5 -27.999c0 -35.333 -32.667 -64.833 -98 -88.5s-144 -35.5 -236 -35.5c-86.667 0 -147.834 21.167 -183.501 63.5s-53.5 119.5 -53.5 231.5
c0 44 8.66699 81.833 26 113.5s37 47.5 59 47.5zM221.995 769c10 0 21.333 -8.83301 34 -26.5s19 -33.5 19 -47.5s-4.33301 -24.333 -13 -31s-25.667 -9.66699 -51 -9c-18 0 -32.667 5.66699 -44 17s-17 23.666 -17 36.999c0 12.667 7.5 25.834 22.5 39.501
s31.5 20.5 49.5 20.5zM403.995 803c16.667 0 29.335 -5 38.002 -15s13 -28.333 13 -55c-0.666992 -13.333 -6 -23.5 -16 -30.5s-27 -10.167 -51 -9.5c-17.333 -0.666992 -29.833 3 -37.5 11s-11.5 24 -11.5 48c-0.666992 20 2.66602 33.5 9.99902 40.5
s25.666 10.5 54.999 10.5z" />
    <glyph glyph-name="copyright" unicode="&#xa9;" horiz-adv-x="769" 
d="M356 468c28.667 0 53.001 -6.33105 73.001 -18.998s30 -30.334 30 -53.001c-0.666992 -14.667 -5.5 -25.5 -14.5 -32.5s-23.167 -10.5 -42.5 -10.5c-6.66699 0 -14.834 2.66699 -24.501 8s-16.834 8 -21.501 8c-12.667 -0.666992 -22.167 -8.33398 -28.5 -23.001
s-9.16602 -36 -8.49902 -64c0 -14.667 5.5 -26.5 16.5 -35.5s27.833 -13.5 50.5 -13.5c18.667 0 35.667 3.66699 51 11s30.333 18.666 45 33.999c25.333 26 38.666 39.333 39.999 40l4 2c6 2 12.167 3 18.5 3s12.5 -1 18.5 -3c7.33301 -4 13.5 -9.5 18.5 -16.5
s7.83301 -14.167 8.5 -21.5c0 -12.667 -3 -24.667 -9 -36s-17.333 -23.666 -34 -36.999l-96 -78h-55c-58 0 -102.167 16.5 -132.5 49.5s-45.5 70.167 -45.5 111.5c0 52.667 12.333 95.167 37 127.5s58.334 48.5 101.001 48.5zM50.001 314.002
c0 90.667 33.999 169 101.999 235s149 99 243 99c84 -0.666992 158.833 -31.5 224.5 -92.5s98.834 -134.167 99.501 -219.5c0 -98 -33.333 -181.5 -100 -250.5s-145.334 -103.833 -236.001 -104.5c-83.333 0 -159.666 30 -228.999 90s-104 141 -104 243zM133 312.002
c0 -75.333 26.834 -135.833 80.501 -181.5s110.167 -68.5 169.5 -68.5c66 0 123.833 27.667 173.5 83s74.5 118.666 74.5 189.999c0 64.667 -26 119.5 -78 164.5s-108 67.5 -168 67.5c-70.667 0 -130.334 -24.667 -179.001 -74s-73 -109.666 -73 -180.999z" />
    <glyph glyph-name="afii10053" unicode="&#xaa;" 
d="M155 342l119.994 10.0029c3.33301 0 10.333 0.166992 21 0.5s32.334 3.16602 65.001 8.49902c20 2.66699 36 6 48 10s20 6 24 6c16 0 29.667 -4.5 41 -13.5s17 -19.5 17 -31.5c0 -18 -9.5 -35.5 -28.5 -52.5s-38.833 -25.5 -59.5 -25.5
c-4.66699 -0.666992 -11 -0.166992 -19 1.5s-13.667 2.5 -17 2.5c-2 0 -23.667 -4.5 -65 -13.5s-95.333 -11.833 -162 -8.5c8 -61.333 24 -100.666 48 -117.999s63.333 -26 118 -26c59.333 0 108.833 9.5 148.5 28.5s71.834 28.833 96.501 29.5c6 0 11.333 -4.5 16 -13.5
s7 -19.167 7 -30.5c0 -38.667 -28.167 -68.667 -84.5 -90s-118.166 -32 -185.499 -32c-107.333 0 -184.666 34.667 -231.999 104s-56 156.333 -26 261c15.333 54 24.333 83.833 27 89.5s6 10.834 10 15.501c21.333 27.333 31.833 40.833 31.5 40.5
s0.166992 0.166992 1.5 1.5c13.333 23.333 31.833 43 55.5 59s63.167 37.667 118.5 65c8 4 14.667 6.66699 20 8s17.333 1.66602 36 0.999023c6.66699 -0.666992 18.334 1.16602 35.001 5.49902s37.667 6.5 63 6.5c32.667 -0.666992 59 -5.83398 79 -15.501
s30 -22.834 30 -39.501c0 -18 -6.16699 -32 -18.5 -42s-30.833 -15 -55.5 -15c-4 0 -9.5 1 -16.5 3s-12.167 3 -15.5 3c-44.667 -0.666992 -84.667 -7 -120 -19s-67.666 -30.667 -96.999 -56c-27.333 -23.333 -44.333 -40.333 -51 -51s-14.667 -33 -24 -67z" />
    <glyph glyph-name="guillemotleft" unicode="&#xab;" horiz-adv-x="468" 
d="M198 382c12.667 0 24.666 -4.99902 35.999 -14.999s17 -20.333 17 -31c0 -10 -8.66699 -29 -26 -57s-31 -46.667 -41 -56c-5.33301 -4.66699 -8.16602 -7.5 -8.49902 -8.5s-0.5 -1.83301 -0.5 -2.5c0 -1.33301 0.333008 -2.5 1 -3.5s5.66699 -4.16699 15 -9.5
c52 -32.667 82 -65.5 90 -98.5s-5.66699 -51.167 -41 -54.5c-11.333 -1.33301 -29.833 7 -55.5 25s-46.5 36.667 -62.5 56c-24.667 28 -39 46 -43 54s-6 15.333 -6 22c-0.666992 16 10.333 44.667 33 86s40 67.666 52 78.999c4.66699 4.66699 10.5 8 17.5 10
s14.5 3.33301 22.5 4zM332.999 339.001c11.333 0 22.334 -4.49902 33.001 -13.499s16 -18.833 16 -29.5c0 -11.333 -4.33301 -25 -13 -41s-16 -26 -22 -30c-6.66699 -4.66699 -10 -7.33398 -10 -8.00098v-1v-1l3 -2c26 -22 45.167 -40.167 57.5 -54.5
s18.166 -26.833 17.499 -37.5c-1.33301 -16 -4.66602 -27.667 -9.99902 -35s-32.666 -2 -81.999 16c-18 6 -28.167 10 -30.5 12s-4.83301 5 -7.5 9c-2 2 -4.83301 5.5 -8.5 10.5s-6.16699 8.83301 -7.5 11.5c-2 1.33301 -4.5 3.66602 -7.5 6.99902s-4.83301 6 -5.5 8
c-10.667 12.667 -17.334 25 -20.001 37s3.33301 34.667 18 68c10.667 25.333 22.667 43.833 36 55.5s27.666 17.834 42.999 18.501z" />
    <glyph glyph-name="registered" unicode="&#xae;" horiz-adv-x="770" 
d="M245 449c-6 4.66699 -10.498 10.168 -13.498 16.501s-4.16699 12.833 -3.5 19.5c0 19.333 8.33301 33.5 25 42.5s44 13.5 82 13.5c74.667 0 129.5 -10.333 164.5 -31s52.5 -50 52.5 -88c0 -28.667 -15.833 -57 -47.5 -85s-68.834 -46.333 -111.501 -55
c16.667 -6.66699 36 -13.334 58 -20.001s36.667 -10 44 -10c8 -0.666992 17.5 1.83301 28.5 7.5s19.833 8.5 26.5 8.5c8 0 15.667 -4.66699 23 -14s11 -19 11 -29c0 -25.333 -7.66699 -43.666 -23 -54.999s-38 -17 -68 -17c-19.333 0 -46.333 5.16699 -81 15.5
s-64.667 22.166 -90 35.499l-4 -23c-3.33301 -19.333 -9.83301 -34 -19.5 -44s-23.834 -15 -42.501 -15c-10.667 0 -20.167 5.16699 -28.5 15.5s-12.5 21.166 -12.5 32.499c0 4.66699 1 11.834 3 21.501s3 17.167 3 22.5c0 3.33301 -0.166992 9 -0.5 17s-0.5 14.333 -0.5 19
c0 28.667 1.83301 57.5 5.5 86.5s10.167 66.5 19.5 112.5zM348.002 442.001c-4.66699 -20.667 -8.66699 -36.168 -12 -46.501s-5.33301 -19.5 -6 -27.5c32 10.667 58.333 21.334 79 32.001s31 19.334 31 26.001c0 5.33301 -11.667 9.66602 -35 12.999s-42.333 4.33301 -57 3
zM51.002 337c0 90 36.1699 163.999 108.503 221.999s154.166 87 245.499 87c81.333 0 154.166 -31.667 218.499 -95s96.5 -137.666 96.5 -222.999c0 -89.333 -34.333 -169.333 -103 -240s-154.334 -106 -257.001 -106c-80.667 0 -152.5 34.333 -215.5 103
s-94.167 152.667 -93.5 252zM134.005 329.999c0 -73.333 24 -136.167 72 -188.5s101.333 -78.5 160 -78.5c74 0 137.333 28.5 190 85.5s79 116.5 79 178.5c0 61.333 -24.167 116.5 -72.5 165.5s-101.5 73.5 -159.5 73.5c-75.333 0 -139 -21.833 -191 -65.5
s-78 -100.5 -78 -170.5z" />
    <glyph glyph-name="afii10056	" unicode="&#xaf;" horiz-adv-x="327" 
d="M171 587c21.333 0 36.4971 -4.1748 45.4971 -12.5078s14.167 -27.166 15.5 -56.499v-46.5v-42.5c-1.33301 -18 -3.16602 -48.5 -5.49902 -91.5s-3.5 -77.167 -3.5 -102.5c0 -15.333 0.333008 -37.666 1 -66.999s1.33398 -46.666 2.00098 -51.999
c0.666992 -4 1.5 -7.66699 2.5 -11s2.16699 -6 3.5 -8c1.33301 -3.33301 5.33301 -9.66602 12 -18.999s10.334 -17 11.001 -23c0 -16.667 -6.83301 -32.667 -20.5 -48s-32.167 -23 -55.5 -23c-16 0 -29.833 13.833 -41.5 41.5s-19.167 63.5 -22.5 107.5
c-1.33301 8.66699 -2 18.334 -2 29.001s0.666992 22.667 2 36c0.666992 16 2.5 41.333 5.5 76s4.5 60.334 4.5 77.001c0 6 -0.333008 15.667 -1 29s-1 23.333 -1 30c0 4 0.833008 10.333 2.5 19s2.5 15.334 2.5 20.001c0 6.66699 -1 16.834 -3 30.501
s-2.66699 24.167 -2 31.5c0 34.667 4 56 12 64s20 12 36 12zM93.9971 706.992c16.667 0 30.667 -8.66699 42 -26s17.333 -36 18 -56c0 -21.333 -5.5 -35.833 -16.5 -43.5s-33.833 -11.5 -68.5 -11.5c-16.667 0 -29.5 5.83301 -38.5 17.5s-13.5 28.167 -13.5 49.5
c0 18 8.16699 34.167 24.5 48.5s33.833 21.5 52.5 21.5zM268.997 717.992c17.333 -0.666992 33.5 -8.99902 48.5 -24.999s22.5 -31 22.5 -45c0 -16.667 -7 -30.834 -21 -42.501s-31.333 -17.5 -52 -17.5c-30 0 -49.333 4.5 -58 13.5s-13 24.5 -13 46.5
c-0.666992 21.333 5.83301 38.333 19.5 51s31.5 19 53.5 19z" />
    <glyph glyph-name="degree" unicode="&#xb0;" horiz-adv-x="405" 
d="M66 498c-0.666992 20 4.83203 40.5 16.499 61.5s27.5 40.167 47.5 57.5c8.66699 8 20.834 15.333 36.501 22s28.5 10.334 38.5 11.001c43.333 0 80.666 -17.333 111.999 -52s47 -67 47 -97c0 -32.667 -6.33301 -59.834 -19 -81.501s-31.667 -37.167 -57 -46.5
c-55.333 -21.333 -106.166 -18.333 -152.499 9s-69.5 66 -69.5 116zM180.999 531c-4 -3.33301 -8.16699 -8.83398 -12.5 -16.501s-6.5 -13.167 -6.5 -16.5c0 -9.33301 5.83301 -17.666 17.5 -24.999s27.5 -11 47.5 -11c5.33301 0 10.833 1 16.5 3s10.167 5 13.5 9
c10.667 13.333 9.5 28.833 -3.5 46.5s-24.5 26.5 -34.5 26.5c-4 0 -10.5 -2 -19.5 -6s-15.167 -7.33301 -18.5 -10z" />
    <glyph glyph-name="afii10055" unicode="&#xb2;" horiz-adv-x="273" 
d="M138 587c21.333 0 36.498 -4.17285 45.498 -12.5059s14.167 -27.166 15.5 -56.499v-46.5v-42.5c-1.33301 -18 -3.16602 -48.5 -5.49902 -91.5s-3.5 -77.167 -3.5 -102.5c0 -15.333 0.333008 -37.666 1 -66.999s1.33398 -46.666 2.00098 -51.999
c0.666992 -4 1.5 -7.66699 2.5 -11s2.16699 -6 3.5 -8c1.33301 -3.33301 5.5 -9.66602 12.5 -18.999s10.5 -17 10.5 -23c0 -16.667 -6.83301 -32.667 -20.5 -48s-32.167 -23 -55.5 -23c-16 0 -29.833 13.833 -41.5 41.5s-19.167 63.5 -22.5 107.5
c-1.33301 8.66699 -2 18.334 -2 29.001s0.666992 22.667 2 36c0.666992 16 2.5 41.333 5.5 76s4.5 60.334 4.5 77.001c0 6 -0.333008 15.667 -1 29s-1 23.333 -1 30c0 4 0.666992 10.333 2 19l3 20l-3 30.5c-1.33301 13.667 -2 24.167 -2 31.5c0 34.667 4 56 12 64
s20 12 36 12z" />
    <glyph glyph-name="afii10103" unicode="&#xb3;" horiz-adv-x="253" 
d="M152 304c13.333 0 24.499 -4.17188 33.499 -12.5049s14.833 -19.5 17.5 -33.5c0.666992 -5.33301 1 -10.666 1 -15.999s-0.333008 -13 -1 -23c-1.33301 -14.667 -2.16602 -24.167 -2.49902 -28.5s-0.5 -8.16602 -0.5 -11.499c-0.666992 -4.66699 -1 -9.66699 -1 -15
s0.333008 -14 1 -26c0.666992 -61.333 -2.66602 -102.166 -9.99902 -122.499s-19.666 -30.5 -36.999 -30.5c-24.667 0 -41.834 2.5 -51.501 7.5s-14.167 11.833 -13.5 20.5c0 14.667 0.166992 26.834 0.5 36.501s1.16602 16.5 2.49902 20.5c2 8 3.5 17.167 4.5 27.5
s1.5 20.833 1.5 31.5c-0.666992 0 -0.833984 0 -0.500977 0s-7.5 0.333008 -23.5 1c-15.333 0 -27.166 5 -35.499 15s-12.5 24.667 -12.5 44c0 2 0.166992 3.83301 0.5 5.5s15.5 18.834 45.5 51.501c30 32 49 49.667 57 53s16 5 24 5zM169.999 453.995
c10 0 22.3291 -5.83105 36.9961 -17.498s24.334 -22.167 29.001 -31.5c8.66699 -20.667 6.33398 -38.834 -6.99902 -54.501s-33.666 -23.5 -60.999 -23.5c-15.333 0 -29.666 4.5 -42.999 13.5s-20 18.833 -20 29.5c0 21.333 6.5 40.666 19.5 57.999s28.167 26 45.5 26z" />
    <glyph glyph-name="afii10098" unicode="&#xb4;" horiz-adv-x="328" 
d="M291 406c17.333 0 31.002 -7.66699 41.002 -23s10 -34.666 0 -57.999c-10 -22.667 -20.833 -37.5 -32.5 -44.5s-26.834 -10.5 -45.501 -10.5c-23.333 -0.666992 -40.833 -0.333984 -52.5 0.999023s-22.167 3.33301 -31.5 6c-4 -24 -7.16699 -48.5 -9.5 -73.5
s-3.83301 -53.5 -4.5 -85.5c-2 -56.667 -9.33301 -94 -22 -112s-33 -27 -61 -27c-14 0 -24 3.66699 -30 11s-9 23 -9 47c0 2.66699 0.5 6.5 1.5 11.5s1.83301 8.5 2.5 10.5v3.5c0 1.66699 0.333008 9.16699 1 22.5c0.666992 5.33301 1.33398 10 2.00098 14s1.66699 8 3 12
c2.66699 10.667 4.16699 16.167 4.5 16.5s0.5 0.833008 0.5 1.5c-0.666992 1.33301 -1.33398 4 -2.00098 8s-0.666992 7.33301 0 10c0 16.667 2.66699 36.5 8 59.5s8 40.5 8 52.5c-0.666992 4 -3.83398 13.833 -9.50098 29.5s-8.5 28.167 -8.5 37.5
c0 12 5.83301 22.833 17.5 32.5s28.167 15.167 49.5 16.5h11.5h15.5c50 -2 73.667 -2.83301 71 -2.5s-3.66699 0.5 -3 0.5c23.333 0 36.5 0.666992 39.5 2s6.16699 4.33301 9.5 9c6.66699 8.66699 12.5 14.5 17.5 17.5s10.833 4.5 17.5 4.5z" />
    <glyph glyph-name="paragraph" unicode="&#xb6;" horiz-adv-x="555" 
d="M429 652c67.333 0 109.169 -4.66602 125.502 -13.999s24.833 -23.666 25.5 -42.999c0 -20 -4.33301 -33.833 -13 -41.5s-21 -11.5 -37 -11.5c-5.33301 0 -10.833 0.166992 -16.5 0.5s-17.834 1.5 -36.501 3.5c-2.66699 0 -5.66699 0.166992 -9 0.5s-19 0.5 -47 0.5
c-62.667 0 -113.334 -17.333 -152.001 -52s-58 -74.334 -58 -119.001c0 -29.333 8.5 -54.833 25.5 -76.5s37.833 -32.167 62.5 -31.5c25.333 0 43.833 9 55.5 27s17.5 56 17.5 114c0 3.33301 -0.666992 12.5 -2 27.5s-2 29.167 -2 42.5c-0.666992 15.333 2 27.333 8 36
s31 13 75 13c8.66699 0 15.667 -5.5 21 -16.5s8 -24.167 8 -39.5c-0.666992 -6 -1.5 -14.333 -2.5 -25s-1.5 -18.667 -1.5 -24s0.5 -19.666 1.5 -42.999l2.5 -57c0 -6 -1.66699 -14.833 -5 -26.5s-5 -20.167 -5 -25.5c-0.666992 -11.333 -0.333984 -27.666 0.999023 -48.999
s2 -37.333 2 -48c-0.666992 -156.667 -12 -261 -34 -313s-59.667 -78 -113 -78c-23.333 0 -42.5 6.5 -57.5 19.5s-22.5 29.833 -22.5 50.5c0 25.333 11.5 39 34.5 41s40.167 8.33301 51.5 19c8.66699 9.33301 15.334 20.666 20.001 33.999s7 48.333 7 105
c0 25.333 -0.166992 47 -0.5 65s-0.5 34.667 -0.5 50c-70 -18.667 -130.667 -5.83398 -182 38.499s-77 101.166 -77 170.499c0 76.667 33 141.667 99 195s143 80.333 231 81z" />
    <glyph glyph-name="afii10071" unicode="&#xb8;" horiz-adv-x="391" 
d="M89 39c-22.667 -12 -44.667 -13.501 -66 -4.50098s-32.333 26.167 -33 51.5c0.666992 16 4.66699 27.333 12 34s22 11.334 44 14.001c-10 30 -15.667 50.333 -17 61s-2 25 -2 43c0 12 1.66699 25.333 5 40s8.33301 27.334 15 38.001c8.66699 15.333 22.334 29 41.001 41
s33.667 16 45 12c20 -8 34.667 -15.833 44 -23.5s17.666 -18.834 24.999 -33.501c6 -14.667 10.667 -28.167 14 -40.5s5 -23.166 5 -32.499c0 -18 -1.66699 -33.333 -5 -46s-18.666 -40.334 -45.999 -83.001c13.333 -8.66699 27.666 -15.5 42.999 -20.5s30 -7.5 44 -7.5
c36 0 63.667 8 83 24s35.333 26 48 30c5.33301 1.33301 11 2 17 2s11.667 -0.666992 17 -2c8 -3.33301 14.833 -8 20.5 -14s8.5 -11.667 8.5 -17c0 -17.333 -7 -33.833 -21 -49.5s-39.667 -33.167 -77 -52.5c-14 -6.66699 -29.333 -11.667 -46 -15s-37 -5 -61 -5
c-41.333 0 -72.5 4.5 -93.5 13.5s-42.167 23.167 -63.5 42.5zM67 471.999c20.667 0 36.001 -11.001 46.001 -33.001s7.33301 -42 -8 -60c-8.66699 -10 -16.334 -16 -23.001 -18s-15.334 -3 -26.001 -3c-18.667 -0.666992 -33.5 4.33301 -44.5 15s-16.5 23.667 -16.5 39
c0 14.667 7.33301 28.334 22 41.001s31.334 19 50.001 19zM224.001 456.998c25.333 -0.666992 41.833 -11.001 49.5 -31.001s3.5 -39.333 -12.5 -58c-8 -9.33301 -15.667 -15.166 -23 -17.499s-17.333 -3.5 -30 -3.5c-16.667 0 -29 3.5 -37 10.5s-12 23.167 -12 48.5
c0 20 3.83301 33.5 11.5 40.5s25.5 10.5 53.5 10.5z" />
    <glyph glyph-name="afii61352" unicode="&#xb9;" horiz-adv-x="908" 
d="M481 516c3.33301 0 7.33301 -0.664062 12 -1.99707s22.334 -86 53.001 -254c5.33301 -33.333 13.5 -64.666 24.5 -93.999s16.5 -52.666 16.5 -69.999c0 -38 -11 -66.833 -33 -86.5s-50 -29.5 -84 -29.5c-30 0 -73.5 26 -130.5 78s-106.833 107.667 -149.5 167
c-2 -14 -3.33301 -24.5 -4 -31.5s-1 -13.5 -1 -19.5c0 -10 0.333008 -24.333 1 -43s1.33398 -32.334 2.00098 -41.001c0 -4.66699 -1.16699 -11.5 -3.5 -20.5s-3.5 -15.5 -3.5 -19.5c-0.666992 -3.33301 -0.666992 -9.66602 0 -18.999s0.666992 -16.333 0 -21
c-2.66699 -10.667 -7.5 -19.834 -14.5 -27.501s-14.167 -11.5 -21.5 -11.5c-31.333 0 -51.833 3.66699 -61.5 11s-14.5 18.666 -14.5 33.999c0 28.667 4.66699 86.834 14 174.501s17.666 143.5 24.999 167.5c-28 44.667 -42 67.834 -42 69.501v6.5c0 30.667 3 52.167 9 64.5
s17.333 18.5 34 18.5c12 0 23.167 -3.16699 33.5 -9.5s24.166 -29.5 41.499 -69.5c14.667 -36 41.667 -81.667 81 -137s73 -97.333 101 -126c19.333 -20.667 39.833 -40 61.5 -58s36.5 -27 44.5 -27c0.666992 0 1.33398 0.666992 2.00098 2s1 3 1 5
c0 1.33301 -4.33301 14.833 -13 40.5s-17 62.5 -25 110.5c-1.33301 5.33301 -2.33301 10.666 -3 15.999s-2 43.666 -4 114.999c-0.666992 13.333 -3.33398 26.666 -8.00098 39.999s-7 23.666 -7 30.999c0 21.333 5 37.666 15 48.999s27 17 51 17zM706 478.003
c42 0 77.668 -16.168 107.001 -48.501s44 -62.5 44 -90.5c-0.666992 -43.333 -18.334 -80.833 -53.001 -112.5s-66.667 -47.167 -96 -46.5c-48.667 0 -84.667 10.333 -108 31s-35 53.334 -35 98.001s13 84 39 118s60 51 102 51zM704.001 382.002
c-8.66699 0 -16.833 -5.83105 -24.5 -17.498s-11.5 -27.834 -11.5 -48.501c0 -11.333 2.66699 -19.833 8 -25.5s13 -8.5 23 -8.5c14.667 -0.666992 27.5 4.16602 38.5 14.499s16.5 19.5 16.5 27.5c0 12.667 -6.33301 25.5 -19 38.5s-23 19.5 -31 19.5zM716.002 160.004
c40 4.66699 61.335 7.16797 64.002 7.50098s5.33398 0.5 8.00098 0.5c31.333 0 52.166 -3.83301 62.499 -11.5s15.833 -18.834 16.5 -33.501c-0.666992 -16.667 -7.5 -29.5 -20.5 -38.5s-39.5 -15.5 -79.5 -19.5c-31.333 -3.33301 -54.333 -7.33301 -69 -12
s-27.334 -6.66699 -38.001 -6c-18 0 -31.667 4.16699 -41 12.5s-14 19.166 -14 32.499c0 18.667 8.16699 33.334 24.5 44.001s45.166 18.667 86.499 24z" />
    <glyph glyph-name="afii10101" unicode="&#xba;" horiz-adv-x="397" 
d="M224 428c-6 0 -13.498 -1.83105 -22.498 -5.49805s-15.167 -5.83398 -18.5 -6.50098c-42 -9.33301 -74.833 -24.333 -98.5 -45s-38.834 -45 -45.501 -73c-11.333 -4.66699 -19.666 -11.5 -24.999 -20.5s-8 -20.5 -8 -34.5c0 -1.33301 -0.166992 -1.5 -0.5 -0.5
s11.5 -10.833 35.5 -35.5c18 -60.667 51.833 -107.334 101.5 -140.001s104.167 -49 163.5 -49c46.667 0 76.667 5 90 15s20 24 20 42c-0.666992 12.667 -5 23.167 -13 31.5s-19 12.5 -33 12.5c-7.33301 0 -17.333 -1.66699 -30 -5s-22 -5 -28 -5
c-32.667 0 -62 6.83301 -88 20.5s-50.667 36.167 -74 67.5c10.667 -2.66699 20.667 -4.33398 30 -5.00098s22 -1 38 -1c13.333 0 25.666 0.333008 36.999 1s18.666 1 21.999 1s8 -1.5 14 -4.5s10.667 -4.16699 14 -3.5c9.33301 0 17.166 6.16699 23.499 18.5
s9.5 25.5 9.5 39.5c0 10 -4.33301 18.333 -13 25s-18.334 10 -29.001 10c-3.33301 0 -8 -0.666992 -14 -2s-10.333 -2 -13 -2s-6.16699 0.666992 -10.5 2s-7.16602 2.33301 -8.49902 3c-2.66699 0 -5.5 0.166992 -8.5 0.5s-9.16699 0.166016 -18.5 -0.500977
c-4.66699 -0.666992 -9 -1 -13 -1h-12c-10 0 -17.5 0.5 -22.5 1.5s-10.833 1.83301 -17.5 2.5c-0.666992 0 -0.833984 0 -0.500977 0s-6.5 0 -20.5 0c7.33301 14 17.333 25 30 33s32.334 12.667 59.001 14c16 0.666992 25 0.833984 27 0.500977s4 -0.5 6 -0.5
c13.333 -3.33301 24.833 -11.333 34.5 -24s23.167 -19 40.5 -19c12.667 0 23 3.33301 31 10s12 17.334 12 32.001c0 30 -16.667 54.167 -50 72.5s-67.666 27.5 -102.999 27.5z" />
    <glyph glyph-name="guillemotright" unicode="&#xbb;" horiz-adv-x="452" 
d="M260 46c-12.667 0 -24.335 5.33301 -35.002 16s-15.667 21.667 -15 33c0 9.33301 10.5 28.5 31.5 57.5s36.5 47.167 46.5 54.5c6 4 9.33301 6.5 10 7.5s1 1.83301 1 2.5l-1 1c-0.666992 0.666992 -5.33398 4.66699 -14.001 12h-1.5
c-0.333008 0 -7.16602 9.33301 -20.499 28l-4 4c-1.33301 1.33301 -7.33301 7 -18 17c-11.333 9.33301 -20.333 19.5 -27 30.5s-9.66699 20.833 -9 29.5c1.33301 25.333 10.333 39.833 27 43.5s40.334 -5.83301 71.001 -28.5c26.667 -20.667 49.834 -43.667 69.501 -69
s29.5 -45.666 29.5 -60.999c0 -16 -12.5 -44 -37.5 -84s-46.5 -67.333 -64.5 -82c-5.33301 -4.66699 -11.333 -7.83398 -18 -9.50098s-13.667 -2.5 -21 -2.5zM122.999 89c-11.333 0 -21.6689 4.49805 -31.002 13.498s-14 18.833 -14 29.5
c-0.666992 12 3.83301 25.833 13.5 41.5s18.5 26.167 26.5 31.5c8 4.66699 12.167 7.33398 12.5 8.00098s0.5 1.33398 0.5 2.00098h-0.5c-0.333008 0 -0.833008 0.666992 -1.5 2c-22.667 19.333 -39.5 36.5 -50.5 51.5s-16.167 28.833 -15.5 41.5c0 10 5.33301 19.333 16 28
s21.334 13 32.001 13c22 -0.666992 48 -15.167 78 -43.5s45 -56.5 45 -84.5c0 -24.667 -13.667 -53.167 -41 -85.5s-50.666 -48.5 -69.999 -48.5z" />
    <glyph glyph-name="afii10105" unicode="&#xbc;" horiz-adv-x="240" 
d="M144 251c9.33301 -0.666992 18.6689 -3.99805 28.002 -9.99805s14 -12.667 14 -20c0 -11.333 -3.33301 -26.333 -10 -45s-10.334 -29.667 -11.001 -33c-0.666992 -2 -1.16699 -4 -1.5 -6s0.166992 -13.333 1.5 -34c0.666992 -34.667 -3.83301 -73.834 -13.5 -117.501
s-14.5 -91.167 -14.5 -142.5c-0.666992 -2.66699 -0.833984 -8.33398 -0.500977 -17.001s0.5 -16 0.5 -22c-0.666992 0 -1 -0.166992 -1 -0.5s0.333008 -0.833008 1 -1.5c0 -0.666992 2.16699 -4.33398 6.5 -11.001s6.5 -22.667 6.5 -48c0 -15.333 -4 -26.666 -12 -33.999
s-35.667 -11.333 -83 -12c-6.66699 0 -12.5 13.167 -17.5 39.5s-7.16699 52.833 -6.5 79.5c0 2 1.66699 3.83301 5 5.5l7 3.5c2 2.66699 3.33301 5.66699 4 9s-0.333008 13.333 -3 30c-4 20.667 -2 43.334 6 68.001s12.667 41.334 14 50.001
c0.666992 9.33301 0.666992 21.666 0 36.999s-0.666992 26 0 32c0 3.33301 0.333008 9.16602 1 17.499s1 15.166 1 20.499c0 2.66699 -0.333008 7.33398 -1 14.001s-1 11.667 -1 15c0 36.667 8.16699 68 24.5 94s34.833 39 55.5 39zM107.003 546.002
c20 0 38.834 -13.5 56.501 -40.5s26.5 -54.167 26.5 -81.5c-0.666992 -14.667 -9.33398 -26.5 -26.001 -35.5s-36 -13.5 -58 -13.5c-6 0 -16 12.667 -30 38s-22 43.333 -24 54c-1.33301 4 -2 8.5 -2 13.5s0.666992 9.83301 2 14.5c2.66699 14 9.5 26 20.5 36
s22.5 15 34.5 15z" />
    <glyph glyph-name="afii10054" unicode="&#xbd;" horiz-adv-x="460" 
d="M265 641l12.5029 0.000976562c4.33301 0 17.166 0.333008 38.499 1c26 0 51.5 -9.83301 76.5 -29.5s40.833 -42.5 47.5 -68.5l4 -22l-21 -61c-10.667 -30 -16 -44.833 -16 -44.5s-0.333008 0.5 -1 0.5c-29.333 0 -51.5 4.33301 -66.5 13s-21.5 21 -19.5 37
c0 4 0.833008 7.83301 2.5 11.5s4.16699 7.5 7.5 11.5c9.33301 11.333 14.166 17.5 14.499 18.5s0.5 2.16699 0.5 3.5c0 8 -3.16699 15 -9.5 21s-15.5 9 -27.5 9c-21.333 0 -33.166 -0.666992 -35.499 -2s-3.5 -3 -3.5 -5c0 -10 4.33301 -24 13 -42s22.667 -41 42 -69
c30 -46 52.5 -88.833 67.5 -128.5s22.5 -72.5 22.5 -98.5c0 -61.333 -21.167 -112 -63.5 -152s-99.833 -60 -172.5 -60c-48.667 0 -90.5 17.167 -125.5 51.5s-52.5 74.833 -52.5 121.5c0 36.667 13.667 74.334 41 113.001s58.666 58 93.999 58c21.333 0 37.833 -6 49.5 -18
s17.5 -27 17.5 -45c0 -18.667 -11 -31.334 -33 -38.001s-34.333 -11.334 -37 -14.001c-4 -3.33301 -9 -12.333 -15 -27s-8.66699 -26.334 -8 -35.001c-0.666992 -31.333 16.5 -52.5 51.5 -63.5s63.5 -3.83301 85.5 21.5l55 64l1 25c0 2.66699 -0.166992 4.5 -0.5 5.5
s-27.5 60.167 -81.5 177.5c-40 84.667 -60.833 130.334 -62.5 137.001s-3.16699 14.667 -4.5 24c-4.66699 20 2.66602 40.5 21.999 61.5s49.333 33.167 90 36.5z" />
    <glyph glyph-name="afii10102" unicode="&#xbe;" horiz-adv-x="350" 
d="M179 398c1.33301 0 3.00293 0.162109 5.00293 0.495117s13.333 0.5 34 0.5c33.333 0 60.333 -11.167 81 -33.5s31 -44.833 31 -67.5c0 -12 -2.5 -23 -7.5 -33s-10.5 -15 -16.5 -15c-28.667 0 -48.334 7.83301 -59.001 23.5s-19.334 24.834 -26.001 27.501
c-3.33301 0.666992 -6 1 -8 1s-3 -0.333008 -3 -1c-0.666992 -7.33301 1.5 -15.166 6.5 -23.499s13.833 -18.5 26.5 -30.5c12.667 -13.333 26 -36.666 40 -69.999s21 -59.666 21 -78.999c0 -44 -15.667 -80.833 -47 -110.5s-73 -44.5 -125 -44.5
c-39.333 0 -71.5 14.333 -96.5 43s-36.833 58.334 -35.5 89.001c0.666992 25.333 8.66699 50.333 24 75s33.666 37 54.999 37c22.667 0 40.167 -6.66699 52.5 -20s16.166 -28 11.499 -44c-4 -13.333 -11.5 -24 -22.5 -32s-16.5 -15 -16.5 -21
c0 -10 3.33301 -17.167 10 -21.5s19.667 -6.5 39 -6.5c14.667 -0.666992 25.834 4 33.501 14s11.5 24.667 11.5 44c0 6 -0.833008 11.5 -2.5 16.5s-8.16699 18.167 -19.5 39.5c-49.333 85.333 -74.666 132.5 -75.999 141.5s-2 18.5 -2 28.5c0 16 7.66699 31 23 45
s34.666 23 57.999 27z" />
    <glyph glyph-name="afii10104" unicode="&#xbf;" horiz-adv-x="228" 
d="M156 336c15.333 0 26.501 -6.83203 33.501 -20.499s10.5 -35.167 10.5 -64.5c0 -4.66699 -0.5 -10.5 -1.5 -17.5s-1.5 -11.5 -1.5 -13.5c-0.666992 -3.33301 -1 -6 -1 -8v-74c-0.666992 -80.667 -6.33398 -127.667 -17.001 -141s-27 -20 -49 -20c-14 0 -25 4.5 -33 13.5
s-12 24.167 -12 45.5c0 18.667 0.5 35.667 1.5 51s2.83301 29.333 5.5 42c0.666992 6 1.5 14.667 2.5 26s1.83301 17.666 2.5 18.999c0 -2.66699 -3.16699 -6.16699 -9.5 -10.5s-12.166 -6.5 -17.499 -6.5c-13.333 0 -24.333 4 -33 12s-13 20 -13 36
c0 18.667 17.667 45.167 53 79.5s61.666 51.5 78.999 51.5zM85.001 454.001c18.667 0 31.501 -11.332 38.501 -33.999s6.83301 -42.334 -0.5 -59.001c-3.33301 -6.66699 -9 -12 -17 -16s-18.333 -5.66699 -31 -5c-17.333 0 -32 5.16699 -44 15.5s-18 22.833 -18 37.5
c-0.666992 12 6.66602 25.167 21.999 39.5s32 21.5 50 21.5zM202.002 448.002c24.667 0 40.998 -10.333 48.998 -31s3.66699 -40 -13 -58c-10 -10.667 -18.167 -16.834 -24.5 -18.501s-15.166 -2.5 -26.499 -2.5c-20 0 -32.5 3.83301 -37.5 11.5s-7.5 27.5 -7.5 59.5
c0 12 4.83301 21.333 14.5 28s24.834 10.334 45.501 11.001z" />
    <glyph glyph-name="afii10017" unicode="&#xc0;" horiz-adv-x="570" 
d="M303 643c52 0 86.8252 -4.66895 104.492 -14.002s31.834 -63.666 42.501 -162.999c4.66699 -42 20.334 -74 47.001 -96s17.334 -45.667 -27.999 -71l12 -68c0.666992 -7.33301 3.33398 -17.833 8.00098 -31.5s8 -23.834 10 -30.501c0 -3.33301 0.5 -7.66602 1.5 -12.999
s1.5 -9 1.5 -11c2.66699 -15.333 9.66699 -29.5 21 -42.5s17 -22.5 17 -28.5c0 -14 -5.16699 -31.833 -15.5 -53.5s-20.166 -32.834 -29.499 -33.501c-26 0 -46.167 8.16699 -60.5 24.5s-27.833 71.166 -40.5 164.499c-5.33301 33.333 -11.333 55 -18 65s-16 15 -28 15
c-1.33301 0 -2.33301 -0.166992 -3 -0.5s-13 -8.83301 -37 -25.5c-7.33301 -5.33301 -15.166 -9 -23.499 -11s-18.833 -3 -31.5 -3c-25.333 -0.666992 -42.666 -6.16699 -51.999 -16.5s-15.333 -25.5 -18 -45.5c-1.33301 -6 -1.66602 -14.167 -0.999023 -24.5
s1 -17.166 1 -20.499c-0.666992 -2 -1 -4.33301 -1 -7s-10.333 -30.667 -31 -84c-20 -50.667 -31.667 -77 -35 -79s-7.33301 -3 -12 -3c-29.333 0 -49.833 5.33301 -61.5 16s-17.5 25.667 -17.5 45c0 16 4.83301 35.833 14.5 59.5s16.5 42.5 20.5 56.5
c4 16.667 7 30.5 9 41.5s3.33301 19.167 4 24.5c0 2.66699 -2 6.5 -6 11.5s-6 9.16699 -6 12.5c0 33.333 3.83301 54.833 11.5 64.5s18.834 16.834 33.501 21.501c18 5.33301 33.667 24.833 47 58.5s27.666 82.167 42.999 145.5c10.667 44.667 26 80.834 46 108.501
s40.333 41.5 61 41.5zM328.992 521.998c-10 0 -22.498 -26.999 -37.498 -80.999s-20.167 -73.333 -15.5 -58c-2 -5.33301 -6 -12.333 -12 -21s-9.66699 -14.667 -11 -18c-0.666992 -1.33301 -1.33398 -2.83301 -2.00098 -4.5s-1.33398 -3.83398 -2.00098 -6.50098l79 21
l28 20c-9.33301 46.667 -14.333 73 -15 79s-0.666992 12 0 18c0 22 -1 36 -3 42s-5 9 -9 9z" />
    <glyph glyph-name="afii10017" unicode="&#x410;" horiz-adv-x="570" 
d="M303 643c52 0 86.8252 -4.66895 104.492 -14.002s31.834 -63.666 42.501 -162.999c4.66699 -42 20.334 -74 47.001 -96s17.334 -45.667 -27.999 -71l12 -68c0.666992 -7.33301 3.33398 -17.833 8.00098 -31.5s8 -23.834 10 -30.501c0 -3.33301 0.5 -7.66602 1.5 -12.999
s1.5 -9 1.5 -11c2.66699 -15.333 9.66699 -29.5 21 -42.5s17 -22.5 17 -28.5c0 -14 -5.16699 -31.833 -15.5 -53.5s-20.166 -32.834 -29.499 -33.501c-26 0 -46.167 8.16699 -60.5 24.5s-27.833 71.166 -40.5 164.499c-5.33301 33.333 -11.333 55 -18 65s-16 15 -28 15
c-1.33301 0 -2.33301 -0.166992 -3 -0.5s-13 -8.83301 -37 -25.5c-7.33301 -5.33301 -15.166 -9 -23.499 -11s-18.833 -3 -31.5 -3c-25.333 -0.666992 -42.666 -6.16699 -51.999 -16.5s-15.333 -25.5 -18 -45.5c-1.33301 -6 -1.66602 -14.167 -0.999023 -24.5
s1 -17.166 1 -20.499c-0.666992 -2 -1 -4.33301 -1 -7s-10.333 -30.667 -31 -84c-20 -50.667 -31.667 -77 -35 -79s-7.33301 -3 -12 -3c-29.333 0 -49.833 5.33301 -61.5 16s-17.5 25.667 -17.5 45c0 16 4.83301 35.833 14.5 59.5s16.5 42.5 20.5 56.5
c4 16.667 7 30.5 9 41.5s3.33301 19.167 4 24.5c0 2.66699 -2 6.5 -6 11.5s-6 9.16699 -6 12.5c0 33.333 3.83301 54.833 11.5 64.5s18.834 16.834 33.501 21.501c18 5.33301 33.667 24.833 47 58.5s27.666 82.167 42.999 145.5c10.667 44.667 26 80.834 46 108.501
s40.333 41.5 61 41.5zM328.992 521.998c-10 0 -22.498 -26.999 -37.498 -80.999s-20.167 -73.333 -15.5 -58c-2 -5.33301 -6 -12.333 -12 -21s-9.66699 -14.667 -11 -18c-0.666992 -1.33301 -1.33398 -2.83301 -2.00098 -4.5s-1.33398 -3.83398 -2.00098 -6.50098l79 21
l28 20c-9.33301 46.667 -14.333 73 -15 79s-0.666992 12 0 18c0 22 -1 36 -3 42s-5 9 -9 9z" />
    <glyph glyph-name="afii10018" unicode="&#xc1;" horiz-adv-x="657" 
d="M278 733c14 0 26.335 -7.16602 37.002 -21.499s14 -30.166 10 -47.499c22.667 -0.666992 38.667 -0.833984 48 -0.500977s18 0.833008 26 1.5c49.333 2 74.666 3.16699 75.999 3.5s2.66602 0.5 3.99902 0.5c4.66699 0 12.167 -0.333008 22.5 -1
s18.166 -0.666992 23.499 0c5.33301 0 14 1 26 3s21.667 3 29 3c17.333 0 29.5 -4 36.5 -12s10.5 -22 10.5 -42c-0.666992 -23.333 -6 -39.166 -16 -47.499s-25.667 -12.5 -47 -12.5c-9.33301 0 -21 0.5 -35 1.5s-23 1.83301 -27 2.5h-23.5h-26.5
c-22 -1.33301 -43.833 -3 -65.5 -5s-46.5 -3 -74.5 -3c-0.666992 -11.333 -1.5 -20.666 -2.5 -27.999s-2.5 -17.666 -4.5 -30.999c-3.33301 -20.667 -5.33301 -35.834 -6 -45.501s-1 -21.5 -1 -35.5c6 0.666992 11.833 1.16699 17.5 1.5s22.167 -0.5 49.5 -2.5l101 -9
l56 -37c32 -22.667 54 -45.834 66 -69.501s18 -54.5 18 -92.5c-0.666992 -40 -13.834 -79.5 -39.501 -118.5s-66.5 -76.833 -122.5 -113.5c-44 -28 -85 -46.167 -123 -54.5s-77.667 -7.83301 -119 1.5c-32 7.33301 -57.667 19 -77 35s-29 32 -29 48
c0 13.333 5.83301 26.333 17.5 39s24.5 19 38.5 19c16.667 0 33.334 -8.16699 50.001 -24.5s53.334 -17.833 110.001 -4.5c35.333 8 75.166 31.333 119.499 70s66.5 74.667 66.5 108c0 35.333 -19 62.666 -57 81.999s-86 25 -144 17c0 -57.333 0 -85.666 0 -84.999v0
c-3.33301 -21.333 -5 -32.5 -5 -33.5v-2.5c0 -8 3.83301 -19 11.5 -33s11.5 -24.667 11.5 -32c0 -27.333 -7.66699 -47.666 -23 -60.999s-36 -20 -62 -20c-10 0 -17.667 5 -23 15s-8 23.333 -8 40c0 2 1 4.5 3 7.5s3 5.16699 3 6.5c0 -0.666992 -3.5 3.16602 -10.5 11.499
s-10.5 20.166 -10.5 35.499v5.5c0 2.33301 2.66699 12.5 8 30.5c2.66699 10.667 4.33398 17.5 5.00098 20.5s1 6.16699 1 9.5c-0.666992 6 -1.83398 15.667 -3.50098 29s-2.5 23.333 -2.5 30c0 41.333 0.666992 80.666 2 117.999s4 84.333 8 141c-29.333 -4 -48 -8 -56 -12
s-34.667 -8 -80 -12c-33.333 -3.33301 -57.166 -8.66602 -71.499 -15.999s-22.833 -11 -25.5 -11c-24.667 -0.666992 -46.167 4.5 -64.5 15.5s-27.5 24.5 -27.5 40.5c0 18.667 6.5 33.667 19.5 45s76.833 24.666 191.5 39.999c6.66699 0.666992 24 3.5 52 8.5
s54 8.83301 78 11.5c-2.66699 23.333 2.33301 42.333 15 57s27.667 22 45 22z" />
    <glyph glyph-name="afii10018" unicode="&#x411;" horiz-adv-x="657" 
d="M278 733c14 0 26.335 -7.16602 37.002 -21.499s14 -30.166 10 -47.499c22.667 -0.666992 38.667 -0.833984 48 -0.500977s18 0.833008 26 1.5c49.333 2 74.666 3.16699 75.999 3.5s2.66602 0.5 3.99902 0.5c4.66699 0 12.167 -0.333008 22.5 -1
s18.166 -0.666992 23.499 0c5.33301 0 14 1 26 3s21.667 3 29 3c17.333 0 29.5 -4 36.5 -12s10.5 -22 10.5 -42c-0.666992 -23.333 -6 -39.166 -16 -47.499s-25.667 -12.5 -47 -12.5c-9.33301 0 -21 0.5 -35 1.5s-23 1.83301 -27 2.5h-23.5h-26.5
c-22 -1.33301 -43.833 -3 -65.5 -5s-46.5 -3 -74.5 -3c-0.666992 -11.333 -1.5 -20.666 -2.5 -27.999s-2.5 -17.666 -4.5 -30.999c-3.33301 -20.667 -5.33301 -35.834 -6 -45.501s-1 -21.5 -1 -35.5c6 0.666992 11.833 1.16699 17.5 1.5s22.167 -0.5 49.5 -2.5l101 -9
l56 -37c32 -22.667 54 -45.834 66 -69.501s18 -54.5 18 -92.5c-0.666992 -40 -13.834 -79.5 -39.501 -118.5s-66.5 -76.833 -122.5 -113.5c-44 -28 -85 -46.167 -123 -54.5s-77.667 -7.83301 -119 1.5c-32 7.33301 -57.667 19 -77 35s-29 32 -29 48
c0 13.333 5.83301 26.333 17.5 39s24.5 19 38.5 19c16.667 0 33.334 -8.16699 50.001 -24.5s53.334 -17.833 110.001 -4.5c35.333 8 75.166 31.333 119.499 70s66.5 74.667 66.5 108c0 35.333 -19 62.666 -57 81.999s-86 25 -144 17c0 -57.333 0 -85.666 0 -84.999v0
c-3.33301 -21.333 -5 -32.5 -5 -33.5v-2.5c0 -8 3.83301 -19 11.5 -33s11.5 -24.667 11.5 -32c0 -27.333 -7.66699 -47.666 -23 -60.999s-36 -20 -62 -20c-10 0 -17.667 5 -23 15s-8 23.333 -8 40c0 2 1 4.5 3 7.5s3 5.16699 3 6.5c0 -0.666992 -3.5 3.16602 -10.5 11.499
s-10.5 20.166 -10.5 35.499v5.5c0 2.33301 2.66699 12.5 8 30.5c2.66699 10.667 4.33398 17.5 5.00098 20.5s1 6.16699 1 9.5c-0.666992 6 -1.83398 15.667 -3.50098 29s-2.5 23.333 -2.5 30c0 41.333 0.666992 80.666 2 117.999s4 84.333 8 141c-29.333 -4 -48 -8 -56 -12
s-34.667 -8 -80 -12c-33.333 -3.33301 -57.166 -8.66602 -71.499 -15.999s-22.833 -11 -25.5 -11c-24.667 -0.666992 -46.167 4.5 -64.5 15.5s-27.5 24.5 -27.5 40.5c0 18.667 6.5 33.667 19.5 45s76.833 24.666 191.5 39.999c6.66699 0.666992 24 3.5 52 8.5
s54 8.83301 78 11.5c-2.66699 23.333 2.33301 42.333 15 57s27.667 22 45 22z" />
    <glyph glyph-name="afii10019" unicode="&#xc2;" horiz-adv-x="569" 
d="M281 730c10 -0.666992 19.335 -4.83984 28.002 -12.5068s13.334 -16.167 14.001 -25.5c0 -24.667 -0.333008 -38.667 -1 -42s-1 -6.66602 -1 -9.99902c49.333 -15.333 78.833 -27.5 88.5 -36.5s14.5 -28.167 14.5 -57.5c0 -33.333 -7.16699 -57.5 -21.5 -72.5
s-39.833 -32.5 -76.5 -52.5c-8 -4.66699 -14 -8.83398 -18 -12.501s-6 -6.5 -6 -8.5s0.833008 -3.83301 2.5 -5.5s16.167 -6.16699 43.5 -13.5c49.333 -14.667 93.5 -42.667 132.5 -84s58.5 -82.666 58.5 -123.999c0 -58 -26.333 -113 -79 -165s-116 -78 -190 -78
c-65.333 0 -123.166 15.667 -173.499 47s-75.5 65.333 -75.5 102c0 2.66699 2.33301 7.33398 7 14.001s7 12 7 16s-0.166992 10.667 -0.5 20s-0.5 16.333 -0.5 21c0 7.33301 8 22.333 24 45s27.667 36.334 35 41.001c6 3.33301 13.5 5 22.5 5s17.5 -1.66699 25.5 -5
c6.66699 -4 12.5 -9.16699 17.5 -15.5s8.5 -13.166 10.5 -20.499c0.666992 -4 1 -8.16699 1 -12.5s-0.333008 -8.16602 -1 -11.499c-1.33301 -5.33301 -3.33301 -10.5 -6 -15.5s-10 -15.167 -22 -30.5c-6.66699 -8.66699 -10.167 -13.667 -10.5 -15
s-0.5 -2.66602 -0.5 -3.99902c0 -22.667 9.66699 -41.5 29 -56.5s46 -22.5 80 -22.5c36.667 0 77.334 15.667 122.001 47s67 61.333 67 90c0 17.333 -5 32.333 -15 45s-50 36.667 -120 72v-15c0 -5.33301 0.333008 -20 1 -44c0 -8 -1 -19.167 -3 -33.5s-3 -24.5 -3 -30.5
c0 -4.66699 3.83301 -10.334 11.5 -17.001s11.5 -12 11.5 -16c0 -27.333 -6.5 -47.833 -19.5 -61.5s-32.833 -20.167 -59.5 -19.5c-9.33301 0 -16.5 4.5 -21.5 13.5s-7.5 20.5 -7.5 34.5c0 2 1 4.83301 3 8.5s3 6.5 3 8.5c0 7.33301 -4.83301 13.5 -14.5 18.5
s-14.5 11.167 -14.5 18.5c0 5.33301 3.83301 13.666 11.5 24.999s11.5 27 11.5 47c-0.666992 30.667 -2.33398 49.334 -5.00098 56.001s-2 24.334 2 53.001c-37.333 38 -56 57.167 -56 57.5v9.5c0 13.333 5.16699 26.5 15.5 39.5s24.833 25.5 43.5 37.5
c0 12.667 0.5 25.334 1.5 38.001s2.16699 25.334 3.5 38.001h-8.5c-3 0 -37.167 -2 -102.5 -6c-10 -0.666992 -20.167 -1 -30.5 -1s-22.5 0.333008 -36.5 1c-14 0 -24.5 -3.33301 -31.5 -10s-12.167 -10 -15.5 -10c-20.667 0 -40.834 4.83301 -60.501 14.5
s-29.5 22.167 -29.5 37.5c0.666992 23.333 16.167 41.666 46.5 54.999s71.5 20.333 123.5 21c6 0 15.667 -1 29 -3s23.666 -3 30.999 -3c20.667 -0.666992 36.167 0.333008 46.5 3s27.833 3.66699 52.5 3c15.333 46 26.166 70.167 32.499 72.5s15.166 3.5 26.499 3.5z" />
    <glyph glyph-name="afii10019" unicode="&#x412;" horiz-adv-x="569" 
d="M281 730c10 -0.666992 19.335 -4.83984 28.002 -12.5068s13.334 -16.167 14.001 -25.5c0 -24.667 -0.333008 -38.667 -1 -42s-1 -6.66602 -1 -9.99902c49.333 -15.333 78.833 -27.5 88.5 -36.5s14.5 -28.167 14.5 -57.5c0 -33.333 -7.16699 -57.5 -21.5 -72.5
s-39.833 -32.5 -76.5 -52.5c-8 -4.66699 -14 -8.83398 -18 -12.501s-6 -6.5 -6 -8.5s0.833008 -3.83301 2.5 -5.5s16.167 -6.16699 43.5 -13.5c49.333 -14.667 93.5 -42.667 132.5 -84s58.5 -82.666 58.5 -123.999c0 -58 -26.333 -113 -79 -165s-116 -78 -190 -78
c-65.333 0 -123.166 15.667 -173.499 47s-75.5 65.333 -75.5 102c0 2.66699 2.33301 7.33398 7 14.001s7 12 7 16s-0.166992 10.667 -0.5 20s-0.5 16.333 -0.5 21c0 7.33301 8 22.333 24 45s27.667 36.334 35 41.001c6 3.33301 13.5 5 22.5 5s17.5 -1.66699 25.5 -5
c6.66699 -4 12.5 -9.16699 17.5 -15.5s8.5 -13.166 10.5 -20.499c0.666992 -4 1 -8.16699 1 -12.5s-0.333008 -8.16602 -1 -11.499c-1.33301 -5.33301 -3.33301 -10.5 -6 -15.5s-10 -15.167 -22 -30.5c-6.66699 -8.66699 -10.167 -13.667 -10.5 -15
s-0.5 -2.66602 -0.5 -3.99902c0 -22.667 9.66699 -41.5 29 -56.5s46 -22.5 80 -22.5c36.667 0 77.334 15.667 122.001 47s67 61.333 67 90c0 17.333 -5 32.333 -15 45s-50 36.667 -120 72v-15c0 -5.33301 0.333008 -20 1 -44c0 -8 -1 -19.167 -3 -33.5s-3 -24.5 -3 -30.5
c0 -4.66699 3.83301 -10.334 11.5 -17.001s11.5 -12 11.5 -16c0 -27.333 -6.5 -47.833 -19.5 -61.5s-32.833 -20.167 -59.5 -19.5c-9.33301 0 -16.5 4.5 -21.5 13.5s-7.5 20.5 -7.5 34.5c0 2 1 4.83301 3 8.5s3 6.5 3 8.5c0 7.33301 -4.83301 13.5 -14.5 18.5
s-14.5 11.167 -14.5 18.5c0 5.33301 3.83301 13.666 11.5 24.999s11.5 27 11.5 47c-0.666992 30.667 -2.33398 49.334 -5.00098 56.001s-2 24.334 2 53.001c-37.333 38 -56 57.167 -56 57.5v9.5c0 13.333 5.16699 26.5 15.5 39.5s24.833 25.5 43.5 37.5
c0 12.667 0.5 25.334 1.5 38.001s2.16699 25.334 3.5 38.001h-8.5c-3 0 -37.167 -2 -102.5 -6c-10 -0.666992 -20.167 -1 -30.5 -1s-22.5 0.333008 -36.5 1c-14 0 -24.5 -3.33301 -31.5 -10s-12.167 -10 -15.5 -10c-20.667 0 -40.834 4.83301 -60.501 14.5
s-29.5 22.167 -29.5 37.5c0.666992 23.333 16.167 41.666 46.5 54.999s71.5 20.333 123.5 21c6 0 15.667 -1 29 -3s23.666 -3 30.999 -3c20.667 -0.666992 36.167 0.333008 46.5 3s27.833 3.66699 52.5 3c15.333 46 26.166 70.167 32.499 72.5s15.166 3.5 26.499 3.5z" />
    <glyph glyph-name="afii10020" unicode="&#xc3;" horiz-adv-x="564" 
d="M252 616c19.333 -0.666992 31.3301 -7.83008 35.9971 -21.4971s8.66699 -20.5 12 -20.5c2.66699 0 13.667 3.16699 33 9.5s41 12.833 65 19.5c48 12 82.833 20.167 104.5 24.5s40.5 6.83301 56.5 7.5c4 0 10.333 -0.5 19 -1.5s15 -1.5 19 -1.5c2 0 5 2 9 6
s7.66699 6.33301 11 7c24 -0.666992 42.667 -6.83398 56 -18.501s20.333 -26.834 21 -45.501c0 -12.667 -3.66699 -22.5 -11 -29.5s-27.666 -10.5 -60.999 -10.5c-2.66699 -0.666992 -5.16699 -1 -7.5 -1s-41.833 -7 -118.5 -21c-2.66699 -0.666992 -1 -0.5 5 0.5
s-62 -14.5 -204 -46.5c-1.33301 -18 -2 -34.667 -2 -50s0.333008 -32.333 1 -51c2 -84 3.33301 -137.167 4 -159.5s1 -42.5 1 -60.5c0 -11.333 -0.5 -27.666 -1.5 -48.999s-1.5 -37 -1.5 -47c-0.666992 -4 -0.833984 -11.333 -0.500977 -22s0.5 -19 0.5 -25
c-0.666992 -9.33301 -1 -15.166 -1 -17.499s0.333008 -4.5 1 -6.5c0.666992 -9.33301 1.16699 -18 1.5 -26s0.5 -15.333 0.5 -22c0 -9.33301 -4.66699 -18.166 -14 -26.499s-19 -12.5 -29 -12.5c-28.667 0 -49 6.66699 -61 20s-17.667 33.666 -17 60.999
c0 16 1.5 34.833 4.5 56.5s4.5 55.167 4.5 100.5c0 4 -0.166992 10 -0.5 18s-0.5 14 -0.5 18c0 5.33301 1.16699 13.166 3.5 23.499s3.5 18.5 3.5 24.5c0 12.667 -0.333008 31.834 -1 57.501s-1 45.167 -1 58.5c0 6 0.333008 14.167 1 24.5s1.33398 17.833 2.00098 22.5
c0 0.666992 -0.166992 0.666992 -0.5 0s-0.166016 21.333 0.500977 66c-18.667 -2.66699 -38.167 -4.83398 -58.5 -6.50098s-35.5 -2.5 -45.5 -2.5c-20.667 0 -35.667 3.33301 -45 10s-14 17.667 -14 33c0 17.333 5.83301 31.666 17.5 42.999s28.834 16.666 51.501 15.999
c5.33301 -0.666992 9.16602 -1 11.499 -1s4.83301 0.333008 7.5 1c6 0 15.333 1.66699 28 5s28.334 5 47.001 5c-2 20 0 35.667 6 47s23 17 51 17z" />
    <glyph glyph-name="afii10020" unicode="&#x413;" horiz-adv-x="564" 
d="M252 616c19.333 -0.666992 31.3301 -7.83008 35.9971 -21.4971s8.66699 -20.5 12 -20.5c2.66699 0 13.667 3.16699 33 9.5s41 12.833 65 19.5c48 12 82.833 20.167 104.5 24.5s40.5 6.83301 56.5 7.5c4 0 10.333 -0.5 19 -1.5s15 -1.5 19 -1.5c2 0 5 2 9 6
s7.66699 6.33301 11 7c24 -0.666992 42.667 -6.83398 56 -18.501s20.333 -26.834 21 -45.501c0 -12.667 -3.66699 -22.5 -11 -29.5s-27.666 -10.5 -60.999 -10.5c-2.66699 -0.666992 -5.16699 -1 -7.5 -1s-41.833 -7 -118.5 -21c-2.66699 -0.666992 -1 -0.5 5 0.5
s-62 -14.5 -204 -46.5c-1.33301 -18 -2 -34.667 -2 -50s0.333008 -32.333 1 -51c2 -84 3.33301 -137.167 4 -159.5s1 -42.5 1 -60.5c0 -11.333 -0.5 -27.666 -1.5 -48.999s-1.5 -37 -1.5 -47c-0.666992 -4 -0.833984 -11.333 -0.500977 -22s0.5 -19 0.5 -25
c-0.666992 -9.33301 -1 -15.166 -1 -17.499s0.333008 -4.5 1 -6.5c0.666992 -9.33301 1.16699 -18 1.5 -26s0.5 -15.333 0.5 -22c0 -9.33301 -4.66699 -18.166 -14 -26.499s-19 -12.5 -29 -12.5c-28.667 0 -49 6.66699 -61 20s-17.667 33.666 -17 60.999
c0 16 1.5 34.833 4.5 56.5s4.5 55.167 4.5 100.5c0 4 -0.166992 10 -0.5 18s-0.5 14 -0.5 18c0 5.33301 1.16699 13.166 3.5 23.499s3.5 18.5 3.5 24.5c0 12.667 -0.333008 31.834 -1 57.501s-1 45.167 -1 58.5c0 6 0.333008 14.167 1 24.5s1.33398 17.833 2.00098 22.5
c0 0.666992 -0.166992 0.666992 -0.5 0s-0.166016 21.333 0.500977 66c-18.667 -2.66699 -38.167 -4.83398 -58.5 -6.50098s-35.5 -2.5 -45.5 -2.5c-20.667 0 -35.667 3.33301 -45 10s-14 17.667 -14 33c0 17.333 5.83301 31.666 17.5 42.999s28.834 16.666 51.501 15.999
c5.33301 -0.666992 9.16602 -1 11.499 -1s4.83301 0.333008 7.5 1c6 0 15.333 1.66699 28 5s28.334 5 47.001 5c-2 20 0 35.667 6 47s23 17 51 17z" />
    <glyph glyph-name="afii10021" unicode="&#xc4;" horiz-adv-x="803" 
d="M309 632c152.667 0 265.499 -23.999 338.499 -71.999s109.5 -117 109.5 -207c-0.666992 -120 -49.834 -220.667 -147.501 -302s-215.5 -122.333 -353.5 -123c-89.333 0 -147.833 4.66699 -175.5 14s-41.5 23.666 -41.5 42.999c0 12 2.33301 24 7 36
s11.334 20.333 20.001 25c3.33301 2 7.33301 3.16699 12 3.5s17.334 -0.833984 38.001 -3.50098c8.66699 -1.33301 14.334 2 17.001 10s4 22.667 4 44c0 43.333 -1 72.5 -3 87.5s-2.33301 33.833 -1 56.5c2 60 4.33301 111.5 7 154.5s6 78.833 10 107.5
c-60 -7.33301 -90.667 -11.166 -92 -11.499s-2.33301 -0.5 -3 -0.5c-58 -22.667 -88.5 -34 -91.5 -34h-11.5c-8 0 -15.5 4.33301 -22.5 13s-10.5 18 -10.5 28c0 28 19.5 51.5 58.5 70.5s99.5 34.167 181.5 45.5c61.333 8 98.666 12.5 111.999 13.5s26 1.5 38 1.5z
M266.999 522.001c-6 -18.667 -10.833 -46.499 -14.5 -83.499s-5.83398 -83.833 -6.50098 -140.5c-1.33301 -49.333 -0.666016 -90.333 2.00098 -123s4 -52 4 -58c0 -8.66699 -0.5 -18.334 -1.5 -29.001l-5.5 -56c104 -1.33301 197.167 28.667 279.5 90
s123.5 135.333 123.5 222c0 72 -34 123.5 -102 154.5s-161 38.833 -279 23.5z" />
    <glyph glyph-name="afii10021" unicode="&#x414;" horiz-adv-x="803" 
d="M309 632c152.667 0 265.499 -23.999 338.499 -71.999s109.5 -117 109.5 -207c-0.666992 -120 -49.834 -220.667 -147.501 -302s-215.5 -122.333 -353.5 -123c-89.333 0 -147.833 4.66699 -175.5 14s-41.5 23.666 -41.5 42.999c0 12 2.33301 24 7 36
s11.334 20.333 20.001 25c3.33301 2 7.33301 3.16699 12 3.5s17.334 -0.833984 38.001 -3.50098c8.66699 -1.33301 14.334 2 17.001 10s4 22.667 4 44c0 43.333 -1 72.5 -3 87.5s-2.33301 33.833 -1 56.5c2 60 4.33301 111.5 7 154.5s6 78.833 10 107.5
c-60 -7.33301 -90.667 -11.166 -92 -11.499s-2.33301 -0.5 -3 -0.5c-58 -22.667 -88.5 -34 -91.5 -34h-11.5c-8 0 -15.5 4.33301 -22.5 13s-10.5 18 -10.5 28c0 28 19.5 51.5 58.5 70.5s99.5 34.167 181.5 45.5c61.333 8 98.666 12.5 111.999 13.5s26 1.5 38 1.5z
M266.999 522.001c-6 -18.667 -10.833 -46.499 -14.5 -83.499s-5.83398 -83.833 -6.50098 -140.5c-1.33301 -49.333 -0.666016 -90.333 2.00098 -123s4 -52 4 -58c0 -8.66699 -0.5 -18.334 -1.5 -29.001l-5.5 -56c104 -1.33301 197.167 28.667 279.5 90
s123.5 135.333 123.5 222c0 72 -34 123.5 -102 154.5s-161 38.833 -279 23.5z" />
    <glyph glyph-name="afii10022" unicode="&#xc5;" 
d="M518 683c8 0 16.001 -3 24.001 -9s12.333 -12.333 13 -19c0 -17.333 -5.33301 -34.833 -16 -52.5s-23.334 -27.5 -38.001 -29.5c-5.33301 -1.33301 -13.5 -1.5 -24.5 -0.5s-19.167 1.16699 -24.5 0.5c-76.667 -13.333 -133.334 -25.5 -170.001 -36.5
s-60.667 -21.833 -72 -32.5c-26.667 -24.667 -42.5 -37.667 -47.5 -39s-9.5 -1.66602 -13.5 -0.999023c-15.333 0 -28 7.5 -38 22.5s-15 31.5 -15 49.5c-0.666992 12 1.16602 21.333 5.49902 28s21.833 13.334 52.5 20.001c2 0 4.33301 0.666992 7 2s23.334 14 62.001 38
c14 8.66699 26.167 15 36.5 19s23.5 4 39.5 0c4 -0.666992 7.16699 -0.833984 9.5 -0.500977s9.5 5.16602 21.5 14.499c9.33301 6.66699 34.833 12.667 76.5 18s78.834 8 111.501 8zM116.001 466c15.333 0 28.334 -9.5 39.001 -28.5s9.33398 -38.5 -3.99902 -58.5h8
c4 0 7.33301 0.333008 10 1c5.33301 0 13.666 0.333008 24.999 1s20 1 26 1l24 2l69 5c16 1.33301 28.333 2 37 2s15.334 0.333008 20.001 1c8 0.666992 14.667 4.5 20 11.5s13.333 10.5 24 10.5c5.33301 0 13 -1 23 -3s17.333 -3 22 -3
c2.66699 -0.666992 7.33398 -0.833984 14.001 -0.500977s12 0.5 16 0.5c11.333 -1.33301 21.333 -5 30 -11s13 -12 13 -18c0 -13.333 -9.83301 -31.666 -29.5 -54.999s-37.5 -35 -53.5 -35c-2 0 -5.16699 0.5 -9.5 1.5s-7.5 1.83301 -9.5 2.5
c-9.33301 0 -18.833 -0.5 -28.5 -1.5s-22.5 -2.5 -38.5 -4.5c-32 -4.66699 -54.333 -7.5 -67 -8.5s-24 -1.5 -34 -1.5c-3.33301 0 -8.33301 0.333008 -15 1s-11.334 1 -14.001 1c-10.667 0 -23.667 -4 -39 -12s-33.666 -7.33301 -54.999 2
c-3.33301 -46.667 9.66699 -82.834 39 -108.501s75 -38.5 137 -38.5c67.333 0 119.166 9 155.499 27s65.166 27 86.499 27c6.66699 0 12.834 -4.66699 18.501 -14s8.5 -18.666 8.5 -27.999c0 -38 -26.833 -68.5 -80.5 -91.5s-114.834 -34.167 -183.501 -33.5
c-96 0 -168 23.667 -216 71s-72 122.333 -72 225c0 46.667 8.66699 85 26 115s36.666 45.333 57.999 46z" />
    <glyph glyph-name="afii10022" unicode="&#x415;" 
d="M518 683c8 0 16.001 -3 24.001 -9s12.333 -12.333 13 -19c0 -17.333 -5.33301 -34.833 -16 -52.5s-23.334 -27.5 -38.001 -29.5c-5.33301 -1.33301 -13.5 -1.5 -24.5 -0.5s-19.167 1.16699 -24.5 0.5c-76.667 -13.333 -133.334 -25.5 -170.001 -36.5
s-60.667 -21.833 -72 -32.5c-26.667 -24.667 -42.5 -37.667 -47.5 -39s-9.5 -1.66602 -13.5 -0.999023c-15.333 0 -28 7.5 -38 22.5s-15 31.5 -15 49.5c-0.666992 12 1.16602 21.333 5.49902 28s21.833 13.334 52.5 20.001c2 0 4.33301 0.666992 7 2s23.334 14 62.001 38
c14 8.66699 26.167 15 36.5 19s23.5 4 39.5 0c4 -0.666992 7.16699 -0.833984 9.5 -0.500977s9.5 5.16602 21.5 14.499c9.33301 6.66699 34.833 12.667 76.5 18s78.834 8 111.501 8zM116.001 466c15.333 0 28.334 -9.5 39.001 -28.5s9.33398 -38.5 -3.99902 -58.5h8
c4 0 7.33301 0.333008 10 1c5.33301 0 13.666 0.333008 24.999 1s20 1 26 1l24 2l69 5c16 1.33301 28.333 2 37 2s15.334 0.333008 20.001 1c8 0.666992 14.667 4.5 20 11.5s13.333 10.5 24 10.5c5.33301 0 13 -1 23 -3s17.333 -3 22 -3
c2.66699 -0.666992 7.33398 -0.833984 14.001 -0.500977s12 0.5 16 0.5c11.333 -1.33301 21.333 -5 30 -11s13 -12 13 -18c0 -13.333 -9.83301 -31.666 -29.5 -54.999s-37.5 -35 -53.5 -35c-2 0 -5.16699 0.5 -9.5 1.5s-7.5 1.83301 -9.5 2.5
c-9.33301 0 -18.833 -0.5 -28.5 -1.5s-22.5 -2.5 -38.5 -4.5c-32 -4.66699 -54.333 -7.5 -67 -8.5s-24 -1.5 -34 -1.5c-3.33301 0 -8.33301 0.333008 -15 1s-11.334 1 -14.001 1c-10.667 0 -23.667 -4 -39 -12s-33.666 -7.33301 -54.999 2
c-3.33301 -46.667 9.66699 -82.834 39 -108.501s75 -38.5 137 -38.5c67.333 0 119.166 9 155.499 27s65.166 27 86.499 27c6.66699 0 12.834 -4.66699 18.501 -14s8.5 -18.666 8.5 -27.999c0 -38 -26.833 -68.5 -80.5 -91.5s-114.834 -34.167 -183.501 -33.5
c-96 0 -168 23.667 -216 71s-72 122.333 -72 225c0 46.667 8.66699 85 26 115s36.666 45.333 57.999 46z" />
    <glyph glyph-name="afii10024" unicode="&#xc6;" horiz-adv-x="1090" 
d="M277 548c4 0 9.66016 -2.16602 16.9932 -6.49902s13 -6.5 17 -6.5c2.66699 0 7.33398 1 14.001 3s11.667 3 15 3c37.333 0 75 -26.167 113 -78.5s51.333 -103.5 40 -153.5c5.33301 -8.66699 11.5 -19.5 18.5 -32.5s14.833 -26.5 23.5 -40.5
c16.667 23.333 30.834 42.333 42.501 57l25.5 32c22.667 30 42 48 58 54s35 7.66699 57 5c30 62.667 59.833 105.667 89.5 129s68.834 35 117.501 35c20 -0.666992 38.5 -8.83398 55.5 -24.501s25.833 -32.5 26.5 -50.5c0 -16 -5.33301 -28.5 -16 -37.5
s-23.667 -13.5 -39 -13.5c-6 -0.666992 -14.333 1.33301 -25 6s-18.334 7 -23.001 7c-24 0 -45.167 -12.667 -63.5 -38s-27.5 -56.333 -27.5 -93c0 -42 13.5 -75.833 40.5 -101.5s60.5 -38.5 100.5 -38.5c28.667 0 48.167 6.83301 58.5 20.5s21.5 20.5 33.5 20.5
c15.333 0 26.5 -7.16699 33.5 -21.5s10.5 -36.833 10.5 -67.5c0 -8.66699 -16.667 -20 -50 -34s-68.333 -21 -105 -21c-53.333 -0.666992 -98.666 14.5 -135.999 45.5s-68.333 84.833 -93 161.5c-17.333 -8.66699 -37.666 -30.334 -60.999 -65.001
s-36.666 -61.334 -39.999 -80.001c-16.667 -91.333 -29.167 -140.166 -37.5 -146.499s-20.166 -9.5 -35.499 -9.5s-29.666 5.83301 -42.999 17.5s-20 23.834 -20 36.501c0 4.66699 1 12.5 3 23.5s3 19.5 3 25.5c-0.666992 6 -3.66699 16.333 -9 31s-11 28.334 -17 41.001
l-3 -2l-88 -85c-92.667 -89.333 -143.834 -135.333 -153.501 -138s-18.834 -4 -27.501 -4c-34 0 -58.833 7.33301 -74.5 22s-23.5 34.334 -23.5 59.001c0 10 1.16699 20.5 3.5 31.5s50.166 74.5 143.499 190.5c20.667 26 36.334 45.167 47.001 57.5
s49.334 41.166 116.001 86.499c-8.66699 26.667 -21.167 46.5 -37.5 59.5s-36.166 19.5 -59.499 19.5c-20 0 -38.833 -5.33301 -56.5 -16s-43.167 -33.334 -76.5 -68.001c-66 -68 -100.667 -102.167 -104 -102.5s-6.33301 -0.5 -9 -0.5c-16 -0.666992 -27.667 3 -35 11
s-11 25.667 -11 53c0 0.666992 0 0.166992 0 -1.5s19.333 25.833 58 82.5c18 26 38.167 50.167 60.5 72.5s47.166 42.5 74.499 60.5c8.66699 6 19.334 10.5 32.001 13.5s30 4.5 52 4.5z" />
    <glyph glyph-name="afii10024" unicode="&#x416;" horiz-adv-x="1090" 
d="M277 548c4 0 9.66016 -2.16602 16.9932 -6.49902s13 -6.5 17 -6.5c2.66699 0 7.33398 1 14.001 3s11.667 3 15 3c37.333 0 75 -26.167 113 -78.5s51.333 -103.5 40 -153.5c5.33301 -8.66699 11.5 -19.5 18.5 -32.5s14.833 -26.5 23.5 -40.5
c16.667 23.333 30.834 42.333 42.501 57l25.5 32c22.667 30 42 48 58 54s35 7.66699 57 5c30 62.667 59.833 105.667 89.5 129s68.834 35 117.501 35c20 -0.666992 38.5 -8.83398 55.5 -24.501s25.833 -32.5 26.5 -50.5c0 -16 -5.33301 -28.5 -16 -37.5
s-23.667 -13.5 -39 -13.5c-6 -0.666992 -14.333 1.33301 -25 6s-18.334 7 -23.001 7c-24 0 -45.167 -12.667 -63.5 -38s-27.5 -56.333 -27.5 -93c0 -42 13.5 -75.833 40.5 -101.5s60.5 -38.5 100.5 -38.5c28.667 0 48.167 6.83301 58.5 20.5s21.5 20.5 33.5 20.5
c15.333 0 26.5 -7.16699 33.5 -21.5s10.5 -36.833 10.5 -67.5c0 -8.66699 -16.667 -20 -50 -34s-68.333 -21 -105 -21c-53.333 -0.666992 -98.666 14.5 -135.999 45.5s-68.333 84.833 -93 161.5c-17.333 -8.66699 -37.666 -30.334 -60.999 -65.001
s-36.666 -61.334 -39.999 -80.001c-16.667 -91.333 -29.167 -140.166 -37.5 -146.499s-20.166 -9.5 -35.499 -9.5s-29.666 5.83301 -42.999 17.5s-20 23.834 -20 36.501c0 4.66699 1 12.5 3 23.5s3 19.5 3 25.5c-0.666992 6 -3.66699 16.333 -9 31s-11 28.334 -17 41.001
l-3 -2l-88 -85c-92.667 -89.333 -143.834 -135.333 -153.501 -138s-18.834 -4 -27.501 -4c-34 0 -58.833 7.33301 -74.5 22s-23.5 34.334 -23.5 59.001c0 10 1.16699 20.5 3.5 31.5s50.166 74.5 143.499 190.5c20.667 26 36.334 45.167 47.001 57.5
s49.334 41.166 116.001 86.499c-8.66699 26.667 -21.167 46.5 -37.5 59.5s-36.166 19.5 -59.499 19.5c-20 0 -38.833 -5.33301 -56.5 -16s-43.167 -33.334 -76.5 -68.001c-66 -68 -100.667 -102.167 -104 -102.5s-6.33301 -0.5 -9 -0.5c-16 -0.666992 -27.667 3 -35 11
s-11 25.667 -11 53c0 0.666992 0 0.166992 0 -1.5s19.333 25.833 58 82.5c18 26 38.167 50.167 60.5 72.5s47.166 42.5 74.499 60.5c8.66699 6 19.334 10.5 32.001 13.5s30 4.5 52 4.5z" />
    <glyph glyph-name="afii10025" unicode="&#xc7;" horiz-adv-x="573" 
d="M324 639c34 0 65.1699 -10.998 93.5029 -32.998s42.833 -45.667 43.5 -71c0 -4 -0.666992 -8.16699 -2 -12.5s-41 -42.5 -119 -114.5c4 -2.66699 7.66699 -4.66699 11 -6s7.66602 -2.66602 12.999 -3.99902c13.333 -4 21 -6.5 23 -7.5s20.333 -12.167 55 -33.5
c42.667 -27.333 70 -52.333 82 -75s18 -50.667 18 -84c0 -45.333 -21.167 -94.833 -63.5 -148.5s-89.833 -95.167 -142.5 -124.5c-48.667 -26 -92 -45.167 -130 -57.5s-74 -18.5 -108 -18.5c-45.333 0 -82.166 17.667 -110.499 53s-42.5 73.333 -42.5 114
c0.666992 19.333 5.5 38.833 14.5 58.5s19.5 29.5 31.5 29.5c26 0 46.833 -4 62.5 -12s23.5 -19.333 23.5 -34c0 -2.66699 -0.333008 -5 -1 -7s-8.66699 -12.667 -24 -32c-3.33301 -4 -5.33301 -7 -6 -9s-1 -3.66699 -1 -5c0 -12.667 7.66699 -24.334 23 -35.001
s34.333 -16 57 -16c16 0 38.167 5.16699 66.5 15.5s54.833 21.5 79.5 33.5c36.667 18.667 72.667 47.5 108 86.5s53.333 72.833 54 101.5c-0.666992 32.667 -18.334 60.167 -53.001 82.5s-83.334 39.166 -146.001 50.499c-38.667 6.66699 -63.5 14.167 -74.5 22.5
s-16.5 18.166 -16.5 29.499c0 31.333 27.833 58 83.5 80s83.5 42.333 83.5 61c0 10 -0.333008 15.5 -1 16.5s-1.33398 1.5 -2.00098 1.5c-8 0 -19.833 -0.666992 -35.5 -2s-24.5 -2.33301 -26.5 -3c-4 -2 -9.5 -5.66699 -16.5 -11s-15.167 -9.33301 -24.5 -12l-37 -9v0
c-3.33301 -2.66699 -8.5 -11.5 -15.5 -26.5s-16.167 -22.5 -27.5 -22.5c-23.333 0 -42.833 5 -58.5 15s-23.5 24.667 -23.5 44c0 37.333 30 68.5 90 93.5s124 37.5 192 37.5z" />
    <glyph glyph-name="afii10025" unicode="&#x417;" horiz-adv-x="573" 
d="M324 639c34 0 65.1699 -10.998 93.5029 -32.998s42.833 -45.667 43.5 -71c0 -4 -0.666992 -8.16699 -2 -12.5s-41 -42.5 -119 -114.5c4 -2.66699 7.66699 -4.66699 11 -6s7.66602 -2.66602 12.999 -3.99902c13.333 -4 21 -6.5 23 -7.5s20.333 -12.167 55 -33.5
c42.667 -27.333 70 -52.333 82 -75s18 -50.667 18 -84c0 -45.333 -21.167 -94.833 -63.5 -148.5s-89.833 -95.167 -142.5 -124.5c-48.667 -26 -92 -45.167 -130 -57.5s-74 -18.5 -108 -18.5c-45.333 0 -82.166 17.667 -110.499 53s-42.5 73.333 -42.5 114
c0.666992 19.333 5.5 38.833 14.5 58.5s19.5 29.5 31.5 29.5c26 0 46.833 -4 62.5 -12s23.5 -19.333 23.5 -34c0 -2.66699 -0.333008 -5 -1 -7s-8.66699 -12.667 -24 -32c-3.33301 -4 -5.33301 -7 -6 -9s-1 -3.66699 -1 -5c0 -12.667 7.66699 -24.334 23 -35.001
s34.333 -16 57 -16c16 0 38.167 5.16699 66.5 15.5s54.833 21.5 79.5 33.5c36.667 18.667 72.667 47.5 108 86.5s53.333 72.833 54 101.5c-0.666992 32.667 -18.334 60.167 -53.001 82.5s-83.334 39.166 -146.001 50.499c-38.667 6.66699 -63.5 14.167 -74.5 22.5
s-16.5 18.166 -16.5 29.499c0 31.333 27.833 58 83.5 80s83.5 42.333 83.5 61c0 10 -0.333008 15.5 -1 16.5s-1.33398 1.5 -2.00098 1.5c-8 0 -19.833 -0.666992 -35.5 -2s-24.5 -2.33301 -26.5 -3c-4 -2 -9.5 -5.66699 -16.5 -11s-15.167 -9.33301 -24.5 -12l-37 -9v0
c-3.33301 -2.66699 -8.5 -11.5 -15.5 -26.5s-16.167 -22.5 -27.5 -22.5c-23.333 0 -42.833 5 -58.5 15s-23.5 24.667 -23.5 44c0 37.333 30 68.5 90 93.5s124 37.5 192 37.5z" />
    <glyph glyph-name="afii10026" unicode="&#xc8;" horiz-adv-x="679" 
d="M130 516c12.667 0 26.0039 -6.16504 40.0039 -18.498s21 -24.5 21 -36.5c-0.666992 -11.333 -5.5 -26.333 -14.5 -45s-11.5 -54.667 -7.5 -108c10 -136.667 15 -204.834 15 -204.501s9.66699 0.5 29 0.5c6.66699 0 15 4.5 25 13.5s18.333 18.833 25 29.5
c4 7.33301 10.333 20.5 19 39.5s16 33.167 22 42.5c16 24.667 24.167 37.5 24.5 38.5s0.833008 2.16699 1.5 3.5c2 5.33301 4.16699 14.666 6.5 27.999s7.5 28 15.5 44c1.33301 2.66699 8.66602 16.334 21.999 41.001s24 46.667 32 66c10.667 27.333 24.667 48.333 42 63
s38.333 22 63 22c7.33301 0 14.166 -4.83301 20.499 -14.5s11.5 -22.5 15.5 -38.5c2 -9.33301 3.16699 -19 3.5 -29s-0.833984 -27 -3.50098 -51c-2 -13.333 -3.16699 -27.5 -3.5 -42.5s-0.5 -41.167 -0.5 -78.5c-0.666992 -8 0.166016 -22.5 2.49902 -43.5
s2.83301 -38.5 1.5 -52.5c-3.33301 -31.333 -3.83301 -50.5 -1.5 -57.5s11.166 -12.833 26.499 -17.5c22.667 -7.33301 36.667 -14 42 -20s8 -13 8 -21c0 -21.333 -8 -44.833 -24 -70.5s-30.333 -38.5 -43 -38.5c-31.333 0 -55.666 10.833 -72.999 32.5
s-32.666 74.167 -45.999 157.5c-0.666992 1.33301 -0.833984 1.5 -0.500977 0.5s0.5 39.5 0.5 121.5c-40.667 -108.667 -78 -183.334 -112 -224.001s-70 -61 -108 -61c-47.333 0 -84 24.167 -110 72.5s-38.667 124.833 -38 229.5c0 92.667 1 142 3 148s8 18 18 36
s17.833 29.667 23.5 35s11.5 8 17.5 8z" />
    <glyph glyph-name="afii10026" unicode="&#x418;" horiz-adv-x="679" 
d="M130 516c12.667 0 26.0039 -6.16504 40.0039 -18.498s21 -24.5 21 -36.5c-0.666992 -11.333 -5.5 -26.333 -14.5 -45s-11.5 -54.667 -7.5 -108c10 -136.667 15 -204.834 15 -204.501s9.66699 0.5 29 0.5c6.66699 0 15 4.5 25 13.5s18.333 18.833 25 29.5
c4 7.33301 10.333 20.5 19 39.5s16 33.167 22 42.5c16 24.667 24.167 37.5 24.5 38.5s0.833008 2.16699 1.5 3.5c2 5.33301 4.16699 14.666 6.5 27.999s7.5 28 15.5 44c1.33301 2.66699 8.66602 16.334 21.999 41.001s24 46.667 32 66c10.667 27.333 24.667 48.333 42 63
s38.333 22 63 22c7.33301 0 14.166 -4.83301 20.499 -14.5s11.5 -22.5 15.5 -38.5c2 -9.33301 3.16699 -19 3.5 -29s-0.833984 -27 -3.50098 -51c-2 -13.333 -3.16699 -27.5 -3.5 -42.5s-0.5 -41.167 -0.5 -78.5c-0.666992 -8 0.166016 -22.5 2.49902 -43.5
s2.83301 -38.5 1.5 -52.5c-3.33301 -31.333 -3.83301 -50.5 -1.5 -57.5s11.166 -12.833 26.499 -17.5c22.667 -7.33301 36.667 -14 42 -20s8 -13 8 -21c0 -21.333 -8 -44.833 -24 -70.5s-30.333 -38.5 -43 -38.5c-31.333 0 -55.666 10.833 -72.999 32.5
s-32.666 74.167 -45.999 157.5c-0.666992 1.33301 -0.833984 1.5 -0.500977 0.5s0.5 39.5 0.5 121.5c-40.667 -108.667 -78 -183.334 -112 -224.001s-70 -61 -108 -61c-47.333 0 -84 24.167 -110 72.5s-38.667 124.833 -38 229.5c0 92.667 1 142 3 148s8 18 18 36
s17.833 29.667 23.5 35s11.5 8 17.5 8z" />
    <glyph glyph-name="afii10027" unicode="&#xc9;" horiz-adv-x="687" 
d="M122 540c13.333 0 26.6689 -5.49805 40.002 -16.498s20 -22.833 20 -35.5c0 -7.33301 -1.16699 -31 -3.5 -71s-3.5 -79.333 -3.5 -118c0 -52.667 4.16699 -98.334 12.5 -137.001s19.833 -58 34.5 -58c16 0 40.5 28.667 73.5 86s72.5 144 118.5 260
c10.667 26.667 24.834 47.5 42.501 62.5s38.5 22.5 62.5 22.5c7.33301 0 14.166 -4.83301 20.499 -14.5s11.5 -22.5 15.5 -38.5c1.33301 -8.66699 2.33301 -17.334 3 -26.001s-0.333008 -27 -3 -55c-1.33301 -11.333 -2.16602 -23.166 -2.49902 -35.499
s-0.5 -40.5 -0.5 -84.5c0 -120 1.5 -180.5 4.5 -181.5s4.83301 -1.5 5.5 -1.5c3.33301 0 10.166 0.333008 20.499 1s18.5 1 24.5 1s11.333 -3.33301 16 -10s7 -13.667 7 -21c0 -22.667 -8.83301 -46.5 -26.5 -71.5s-35.167 -37.833 -52.5 -38.5
c-26.667 0 -47.834 10.667 -63.501 32s-30.167 74.333 -43.5 159c-0.666992 1.33301 -0.833984 1.5 -0.500977 0.5s0.5 39.167 0.5 120.5c-54.667 -129.333 -96.5 -208.833 -125.5 -238.5s-60.833 -44.834 -95.5 -45.501c-48.667 0 -86.667 27.667 -114 83
s-41 128.333 -41 219c0 52.667 1.5 87.5 4.5 104.5s4.16699 34.5 3.5 52.5c-2 28.667 1 51.5 9 68.5s20.333 25.5 37 25.5zM421.003 678.002c15.333 -0.666992 28.665 -4.83301 39.998 -12.5s17 -18.167 17 -31.5c0 -20 -17.333 -45.333 -52 -76s-65 -46 -91 -46
c-4.66699 0 -11.667 0.5 -21 1.5s-16.333 1.5 -21 1.5c-6 0 -14.333 -0.666992 -25 -2s-18.334 -2 -23.001 -2c-0.666992 -0.666992 -0.5 -1 0.5 -1s-11.167 5.33301 -36.5 16c-17.333 6.66699 -28.666 15.834 -33.999 27.501s-8 27.5 -8 47.5
c0 7.33301 4.5 13.666 13.5 18.999s19.5 8 31.5 8c6.66699 0 15.834 -2.16699 27.501 -6.5s19.834 -6.83301 24.501 -7.5c2.66699 -1.33301 5.83398 -2 9.50098 -2h27.5c11.333 0 20 0.5 26 1.5s19.333 12.167 40 33.5c12 12 22.167 20.167 30.5 24.5s16.166 6.5 23.499 6.5
z" />
    <glyph glyph-name="afii10027" unicode="&#x419;" horiz-adv-x="687" 
d="M122 540c13.333 0 26.6689 -5.49805 40.002 -16.498s20 -22.833 20 -35.5c0 -7.33301 -1.16699 -31 -3.5 -71s-3.5 -79.333 -3.5 -118c0 -52.667 4.16699 -98.334 12.5 -137.001s19.833 -58 34.5 -58c16 0 40.5 28.667 73.5 86s72.5 144 118.5 260
c10.667 26.667 24.834 47.5 42.501 62.5s38.5 22.5 62.5 22.5c7.33301 0 14.166 -4.83301 20.499 -14.5s11.5 -22.5 15.5 -38.5c1.33301 -8.66699 2.33301 -17.334 3 -26.001s-0.333008 -27 -3 -55c-1.33301 -11.333 -2.16602 -23.166 -2.49902 -35.499
s-0.5 -40.5 -0.5 -84.5c0 -120 1.5 -180.5 4.5 -181.5s4.83301 -1.5 5.5 -1.5c3.33301 0 10.166 0.333008 20.499 1s18.5 1 24.5 1s11.333 -3.33301 16 -10s7 -13.667 7 -21c0 -22.667 -8.83301 -46.5 -26.5 -71.5s-35.167 -37.833 -52.5 -38.5
c-26.667 0 -47.834 10.667 -63.501 32s-30.167 74.333 -43.5 159c-0.666992 1.33301 -0.833984 1.5 -0.500977 0.5s0.5 39.167 0.5 120.5c-54.667 -129.333 -96.5 -208.833 -125.5 -238.5s-60.833 -44.834 -95.5 -45.501c-48.667 0 -86.667 27.667 -114 83
s-41 128.333 -41 219c0 52.667 1.5 87.5 4.5 104.5s4.16699 34.5 3.5 52.5c-2 28.667 1 51.5 9 68.5s20.333 25.5 37 25.5zM421.003 678.002c15.333 -0.666992 28.665 -4.83301 39.998 -12.5s17 -18.167 17 -31.5c0 -20 -17.333 -45.333 -52 -76s-65 -46 -91 -46
c-4.66699 0 -11.667 0.5 -21 1.5s-16.333 1.5 -21 1.5c-6 0 -14.333 -0.666992 -25 -2s-18.334 -2 -23.001 -2c-0.666992 -0.666992 -0.5 -1 0.5 -1s-11.167 5.33301 -36.5 16c-17.333 6.66699 -28.666 15.834 -33.999 27.501s-8 27.5 -8 47.5
c0 7.33301 4.5 13.666 13.5 18.999s19.5 8 31.5 8c6.66699 0 15.834 -2.16699 27.501 -6.5s19.834 -6.83301 24.501 -7.5c2.66699 -1.33301 5.83398 -2 9.50098 -2h27.5c11.333 0 20 0.5 26 1.5s19.333 12.167 40 33.5c12 12 22.167 20.167 30.5 24.5s16.166 6.5 23.499 6.5
z" />
    <glyph glyph-name="afii10028" unicode="&#xca;" horiz-adv-x="562" 
d="M194 374l26 38.001c5.33301 8 12.666 15.833 21.999 23.5s32 20.5 68 38.5c12.667 6 22 11.333 28 16s10.667 10 14 16c18.667 31.333 30 48.166 34 50.499s9 4.83301 15 7.5c8.66699 3.33301 17.667 5 27 5s18 -1.66699 26 -5
c11.333 -5.33301 20.166 -14.833 26.499 -28.5s9.5 -30.834 9.5 -51.501c0 -6.66699 -4 -14 -12 -22s-34.333 -29.333 -79 -64c-106 -82 -158.667 -121.833 -158 -119.5s1 2.5 1 0.5c0 -0.666992 -0.166992 -1 -0.5 -1s40.834 -23.333 123.501 -70
c24.667 -14.667 50.5 -24 77.5 -28s69.167 -1 126.5 9c32.667 5.33301 59.167 2 79.5 -10s30.833 -27 31.5 -45c0 -22 -8.5 -38.5 -25.5 -49.5s-47.167 -16.5 -90.5 -16.5c-91.333 -1.33301 -145.5 0.333984 -162.5 5.00098s-32.833 11 -47.5 19l-79 38.5
c-0.666992 0.333008 -10.334 1.16602 -29.001 2.49902c2 -27.333 -2.83301 -51.333 -14.5 -72s-25.834 -31 -42.501 -31c-33.333 0 -58.166 14.667 -74.499 44s-24.166 72 -23.499 128c0 33.333 -0.166992 50.666 -0.5 51.999s-0.5 2.66602 -0.5 3.99902
c-0.666992 0.666992 -2 3 -4 7s-3 7.33301 -3 10c0 6.66699 0.333008 14 1 22s2 19 4 33c0.666992 8 0.666992 19.167 0 33.5s-0.666992 23.5 0 27.5c0 10.667 1.5 27.334 4.5 50.001s4.5 39.667 4.5 51c0 6.66699 -1.16699 17 -3.5 31s-3.16602 25 -2.49902 33
c-0.666992 22.667 3.33301 40.834 12 54.501s19.667 20.5 33 20.5c22.667 0 39.667 -9.66699 51 -29s17 -50.666 17 -93.999c0 -38 -0.833008 -65 -2.5 -81s-4.16699 -33.667 -7.5 -53z" />
    <glyph glyph-name="afii10028" unicode="&#x41a;" horiz-adv-x="562" 
d="M194 374l26 38.001c5.33301 8 12.666 15.833 21.999 23.5s32 20.5 68 38.5c12.667 6 22 11.333 28 16s10.667 10 14 16c18.667 31.333 30 48.166 34 50.499s9 4.83301 15 7.5c8.66699 3.33301 17.667 5 27 5s18 -1.66699 26 -5
c11.333 -5.33301 20.166 -14.833 26.499 -28.5s9.5 -30.834 9.5 -51.501c0 -6.66699 -4 -14 -12 -22s-34.333 -29.333 -79 -64c-106 -82 -158.667 -121.833 -158 -119.5s1 2.5 1 0.5c0 -0.666992 -0.166992 -1 -0.5 -1s40.834 -23.333 123.501 -70
c24.667 -14.667 50.5 -24 77.5 -28s69.167 -1 126.5 9c32.667 5.33301 59.167 2 79.5 -10s30.833 -27 31.5 -45c0 -22 -8.5 -38.5 -25.5 -49.5s-47.167 -16.5 -90.5 -16.5c-91.333 -1.33301 -145.5 0.333984 -162.5 5.00098s-32.833 11 -47.5 19l-79 38.5
c-0.666992 0.333008 -10.334 1.16602 -29.001 2.49902c2 -27.333 -2.83301 -51.333 -14.5 -72s-25.834 -31 -42.501 -31c-33.333 0 -58.166 14.667 -74.499 44s-24.166 72 -23.499 128c0 33.333 -0.166992 50.666 -0.5 51.999s-0.5 2.66602 -0.5 3.99902
c-0.666992 0.666992 -2 3 -4 7s-3 7.33301 -3 10c0 6.66699 0.333008 14 1 22s2 19 4 33c0.666992 8 0.666992 19.167 0 33.5s-0.666992 23.5 0 27.5c0 10.667 1.5 27.334 4.5 50.001s4.5 39.667 4.5 51c0 6.66699 -1.16699 17 -3.5 31s-3.16602 25 -2.49902 33
c-0.666992 22.667 3.33301 40.834 12 54.501s19.667 20.5 33 20.5c22.667 0 39.667 -9.66699 51 -29s17 -50.666 17 -93.999c0 -38 -0.833008 -65 -2.5 -81s-4.16699 -33.667 -7.5 -53z" />
    <glyph glyph-name="afii10029" unicode="&#xcb;" 
d="M359 617c26.667 0.666992 47.5 -3.49902 62.5 -12.499s39.5 -52.833 73.5 -131.5c10 -24 18.833 -48 26.5 -72s17.167 -81.667 28.5 -173c5.33301 -48 12.833 -86.667 22.5 -116s14.5 -47 14.5 -53c0 -14 -5 -26.167 -15 -36.5s-22 -15.5 -36 -15.5
c-20 0 -37.167 7 -51.5 21s-21.5 28.667 -21.5 44c0 0.666992 0.833008 1.83398 2.5 3.50098s2.5 2.83398 2.5 3.50098s-2 2 -6 4s-6 4.33301 -6 7s0.333008 7 1 13s1 10.667 1 14c0 4.66699 -2.33301 17.667 -7 39s-9 49 -13 83
c-13.333 99.333 -24.166 160.5 -32.499 183.5s-19.166 41.5 -32.499 55.5l-12 12c-21.333 -28 -40.5 -56 -57.5 -84s-48.833 -100.333 -95.5 -217c-38 -95.333 -61.333 -144.333 -70 -147s-18 -4 -28 -4c-30.667 0 -48.334 11.833 -53.001 35.5s3 53.834 23 90.501
c29.333 55.333 45.166 92.666 47.499 111.999s12.833 45 31.5 77c27.333 45.333 43 73.166 47 83.499s7.66699 18.833 11 25.5c23.333 51.333 45.5 89.666 66.5 114.999s46.167 38.666 75.5 39.999z" />
    <glyph glyph-name="afii10029" unicode="&#x41b;" 
d="M359 617c26.667 0.666992 47.5 -3.49902 62.5 -12.499s39.5 -52.833 73.5 -131.5c10 -24 18.833 -48 26.5 -72s17.167 -81.667 28.5 -173c5.33301 -48 12.833 -86.667 22.5 -116s14.5 -47 14.5 -53c0 -14 -5 -26.167 -15 -36.5s-22 -15.5 -36 -15.5
c-20 0 -37.167 7 -51.5 21s-21.5 28.667 -21.5 44c0 0.666992 0.833008 1.83398 2.5 3.50098s2.5 2.83398 2.5 3.50098s-2 2 -6 4s-6 4.33301 -6 7s0.333008 7 1 13s1 10.667 1 14c0 4.66699 -2.33301 17.667 -7 39s-9 49 -13 83
c-13.333 99.333 -24.166 160.5 -32.499 183.5s-19.166 41.5 -32.499 55.5l-12 12c-21.333 -28 -40.5 -56 -57.5 -84s-48.833 -100.333 -95.5 -217c-38 -95.333 -61.333 -144.333 -70 -147s-18 -4 -28 -4c-30.667 0 -48.334 11.833 -53.001 35.5s3 53.834 23 90.501
c29.333 55.333 45.166 92.666 47.499 111.999s12.833 45 31.5 77c27.333 45.333 43 73.166 47 83.499s7.66699 18.833 11 25.5c23.333 51.333 45.5 89.666 66.5 114.999s46.167 38.666 75.5 39.999z" />
    <glyph glyph-name="afii10030" unicode="&#xcc;" horiz-adv-x="771" 
d="M566 561c27.333 0 50.332 -8.16309 68.999 -24.4961s37.667 -50.5 57 -102.5c13.333 -38.667 21.666 -64.5 24.999 -77.5s3.66602 -40.833 0.999023 -83.5c-2 -20.667 -2.16699 -38.167 -0.5 -52.5s8.83398 -36.5 21.501 -66.5c12 -30.667 16 -56.834 12 -78.501
s-12.667 -32.5 -26 -32.5c-43.333 0 -73.333 15.333 -90 46s-25 75.667 -25 135c0 7.33301 0.333008 19 1 35s1 28.333 1 37c0 22 -5.66699 51.167 -17 87.5s-22.333 55.833 -33 58.5h-4h-4c-10 -2 -22 -16.833 -36 -44.5s-27.333 -49.5 -40 -65.5
c-12 -14.667 -32.667 -58.334 -62 -131.001s-59 -108.667 -89 -108c-22.667 0 -39.667 6.83301 -51 20.5s-19.333 60.834 -24 141.501c-3.33301 45.333 -6.5 72.166 -9.5 80.499s-6.5 16.166 -10.5 23.499c-5.33301 9.33301 -10.166 12.833 -14.499 10.5
s-9.83301 -17.166 -16.5 -44.499c-22.667 -86.667 -34.167 -131.834 -34.5 -135.501s-0.166016 -6.5 0.500977 -8.5c0 -15.333 2.16699 -31 6.5 -47s6.5 -37.333 6.5 -64c0 -20.667 -4.66699 -37.5 -14 -50.5s-19.666 -19.5 -30.999 -19.5c-26 0 -45 6.83301 -57 20.5
s-18 41.167 -18 82.5c0 90 5.5 160.5 16.5 211.5s29.167 91.167 54.5 120.5c32.667 38 54.667 61.833 66 71.5s20 14.5 26 14.5c34.667 0 62.167 -9.66699 82.5 -29s31.5 -45.333 33.5 -78c1.33301 -36 2.83301 -56.167 4.5 -60.5s3.83398 -6.5 6.50098 -6.5
c0.666992 0 1.66699 0.5 3 1.5s7.66602 10.167 18.999 27.5c13.333 20.667 33.666 48.667 60.999 84s48 58.666 62 69.999c12 10 24 17.667 36 23s23.667 8 35 8z" />
    <glyph glyph-name="afii10030" unicode="&#x41c;" horiz-adv-x="771" 
d="M566 561c27.333 0 50.332 -8.16309 68.999 -24.4961s37.667 -50.5 57 -102.5c13.333 -38.667 21.666 -64.5 24.999 -77.5s3.66602 -40.833 0.999023 -83.5c-2 -20.667 -2.16699 -38.167 -0.5 -52.5s8.83398 -36.5 21.501 -66.5c12 -30.667 16 -56.834 12 -78.501
s-12.667 -32.5 -26 -32.5c-43.333 0 -73.333 15.333 -90 46s-25 75.667 -25 135c0 7.33301 0.333008 19 1 35s1 28.333 1 37c0 22 -5.66699 51.167 -17 87.5s-22.333 55.833 -33 58.5h-4h-4c-10 -2 -22 -16.833 -36 -44.5s-27.333 -49.5 -40 -65.5
c-12 -14.667 -32.667 -58.334 -62 -131.001s-59 -108.667 -89 -108c-22.667 0 -39.667 6.83301 -51 20.5s-19.333 60.834 -24 141.501c-3.33301 45.333 -6.5 72.166 -9.5 80.499s-6.5 16.166 -10.5 23.499c-5.33301 9.33301 -10.166 12.833 -14.499 10.5
s-9.83301 -17.166 -16.5 -44.499c-22.667 -86.667 -34.167 -131.834 -34.5 -135.501s-0.166016 -6.5 0.500977 -8.5c0 -15.333 2.16699 -31 6.5 -47s6.5 -37.333 6.5 -64c0 -20.667 -4.66699 -37.5 -14 -50.5s-19.666 -19.5 -30.999 -19.5c-26 0 -45 6.83301 -57 20.5
s-18 41.167 -18 82.5c0 90 5.5 160.5 16.5 211.5s29.167 91.167 54.5 120.5c32.667 38 54.667 61.833 66 71.5s20 14.5 26 14.5c34.667 0 62.167 -9.66699 82.5 -29s31.5 -45.333 33.5 -78c1.33301 -36 2.83301 -56.167 4.5 -60.5s3.83398 -6.5 6.50098 -6.5
c0.666992 0 1.66699 0.5 3 1.5s7.66602 10.167 18.999 27.5c13.333 20.667 33.666 48.667 60.999 84s48 58.666 62 69.999c12 10 24 17.667 36 23s23.667 8 35 8z" />
    </font>
</defs>
</svg>
