<?xml version="1.0" standalone="no"?>
<!DOCTYPE svg PUBLIC "-//W3C//DTD SVG 1.1//EN" "http://www.w3.org/Graphics/SVG/1.1/DTD/svg11.dtd" >
<svg>
<metadata>
Created by FontForge 20090914 at Sun Feb 21 10:16:30 2021
 By www-data
Copyright (c) 2013 by Roman Ershov, Jovanny Lemonad. All rights reserved.
</metadata>
<defs>
<font id="Supermolot-Light" horiz-adv-x="600" >
  <font-face 
    font-family="Supermolot"
    font-weight="300"
    font-stretch="normal"
    units-per-em="1000"
    panose-1="2 0 5 3 5 0 0 2 0 4"
    ascent="807"
    descent="-193"
    x-height="530"
    cap-height="700"
    bbox="-75.001 -259.001 1300 940.001"
    underline-thickness="50"
    underline-position="-150"
    unicode-range="U+0020-U+2122"
  />
<missing-glyph horiz-adv-x="740" 
d="M100 605h540v-510h-540v510zM580 545h-420v-390h420v390zM370 390l115 105l40 -40l-115 -105l115 -105l-40 -40l-115 105l-115 -105l-40 40l115 105l-115 105l40 40z" />
    <glyph glyph-name=".notdef" horiz-adv-x="740" 
d="M100 605h540v-510h-540v510zM580 545h-420v-390h420v390zM370 390l115 105l40 -40l-115 -105l115 -105l-40 -40l-115 105l-115 -105l-40 40l115 105l-115 105l40 40z" />
    <glyph glyph-name="space" unicode=" " horiz-adv-x="290" 
 />
    <glyph glyph-name="exclam" unicode="!" horiz-adv-x="260" 
d="M90 700h80v-180l-15 -320h-50l-15 320v180zM95 105h70v-105h-70v105z" />
    <glyph glyph-name="quotedbl" unicode="&#x22;" horiz-adv-x="355" 
d="M225 700h65v-100l-15 -120h-35l-15 120v100zM65 700h65v-100l-15 -120h-35l-15 120v100z" />
    <glyph glyph-name="numbersign" unicode="#" horiz-adv-x="695" 
d="M485 520l30 180h70l-30 -180h110v-55h-120l-40 -230h120v-55h-130l-30 -180h-70l30 180h-215l-30 -180h-70l30 180h-110v55h120l40 230h-120v55h130l30 180h70l-30 -180h215zM475 465h-215l-40 -230h215z" />
    <glyph glyph-name="dollar" unicode="$" horiz-adv-x="590" 
d="M125 550v-55c0 -22 6.66699 -40.167 20 -54.5s31.666 -24.5 54.999 -30.5l210 -50c83.333 -20 125 -68.333 125 -145v-65c0 -46 -14.5 -82.5 -43.5 -109.5s-69.5 -40.5 -121.5 -40.5h-40v-90h-70v90h-205v55h315c28 0 50.833 8.83301 68.5 26.5s26.5 40.5 26.5 68.5v65
c0 22 -6.66699 40.167 -20 54.5s-31.666 24.5 -54.999 30.5l-210 50c-83.333 20 -125 68.333 -125 145v55c0 46 14.5 82.5 43.5 109.5s69.5 40.5 121.5 40.5h40v90h70v-90h175v-35l-20 -20h-265c-28 0 -50.833 -8.83301 -68.5 -26.5s-26.5 -40.5 -26.5 -68.5z" />
    <glyph glyph-name="percent" unicode="%" horiz-adv-x="825" 
d="M595 700h60v-30l-425 -670h-60v30zM280 470v140c0 15.333 -4.5 27.5 -13.5 36.5s-21.167 13.5 -36.5 13.5h-75c-15.333 0 -27.5 -4.5 -36.5 -13.5s-13.5 -21.167 -13.5 -36.5v-140c0 -15.333 4.5 -27.5 13.5 -36.5s21.167 -13.5 36.5 -13.5h75
c15.333 0 27.5 4.5 36.5 13.5s13.5 21.167 13.5 36.5zM345 610v-140c0 -30.667 -9.83301 -55 -29.5 -73s-48.167 -27 -85.5 -27h-75c-37.333 0 -65.833 9 -85.5 27s-29.5 42.333 -29.5 73v140c0 30.667 9.83301 55 29.5 73s48.167 27 85.5 27h75
c37.333 0 65.833 -9 85.5 -27s29.5 -42.333 29.5 -73zM720 90v140c0 15.333 -4.5 27.5 -13.5 36.5s-21.167 13.5 -36.5 13.5h-75c-15.333 0 -27.5 -4.5 -36.5 -13.5s-13.5 -21.167 -13.5 -36.5v-140c0 -15.333 4.5 -27.5 13.5 -36.5s21.167 -13.5 36.5 -13.5h75
c15.333 0 27.5 4.5 36.5 13.5s13.5 21.167 13.5 36.5zM785 230v-140c0 -30.667 -9.83301 -55 -29.5 -73s-48.167 -27 -85.5 -27h-75c-37.333 0 -65.833 9 -85.5 27s-29.5 42.333 -29.5 73v140c0 30.667 9.83301 55 29.5 73s48.167 27 85.5 27h75
c37.333 0 65.833 -9 85.5 -27s29.5 -42.333 29.5 -73z" />
    <glyph glyph-name="ampersand" unicode="&#x26;" horiz-adv-x="660" 
d="M200 550l0.000976562 -34.998c0 -26.667 15.667 -57.667 47 -93c12 -14.667 28 -30.334 48 -47.001l355 -345v-30h-65l-80 80c-7.33301 -17.333 -17.333 -32.333 -30 -45c-30 -30 -70 -45 -120 -45h-140c-52 0 -92.5 13.5 -121.5 40.5s-43.5 63.5 -43.5 109.5v90
c0 53.333 25 93 75 119c22 11.333 47 18.333 75 21v5c-14.667 13.333 -26.334 26.666 -35.001 39.999c-23.333 30.667 -35 64 -35 100v35c0 46 14.5 82.5 43.5 109.5s69.5 40.5 121.5 40.5h235v-35l-20 -20h-215c-28 0 -50.833 -8.83301 -68.5 -26.5
s-26.5 -40.5 -26.5 -68.5zM215.001 45.002l140 -0.000976562c35.333 0 63.333 12.333 84 37c8.66699 10.667 15.667 23.334 21 38.001l-215 210c-41.333 0 -72.5 -8.83301 -93.5 -26.5s-31.5 -42.167 -31.5 -73.5v-90c0 -28 8.83301 -50.833 26.5 -68.5
s40.5 -26.5 68.5 -26.5z" />
    <glyph glyph-name="quotesingle" unicode="'" horiz-adv-x="195" 
d="M65 700h65v-100l-15 -120h-35l-15 120v100z" />
    <glyph glyph-name="parenleft" unicode="(" horiz-adv-x="340" 
d="M95 -30v650c0 46 14.5 82.5 43.5 109.5s69.5 40.5 121.5 40.5h40v-55h-40c-28 0 -50.833 -8.83301 -68.5 -26.5s-26.5 -40.5 -26.5 -68.5v-650c0 -28 8.83301 -50.833 26.5 -68.5s40.5 -26.5 68.5 -26.5h40v-55h-40c-52 0 -92.5 13.5 -121.5 40.5s-43.5 63.5 -43.5 109.5
z" />
    <glyph glyph-name="parenright" unicode=")" horiz-adv-x="340" 
d="M245 620v-650c0 -46 -14.5 -82.5 -43.5 -109.5s-69.5 -40.5 -121.5 -40.5h-40v55h40c28 0 50.833 8.83301 68.5 26.5s26.5 40.5 26.5 68.5v650c0 28 -8.83301 50.833 -26.5 68.5s-40.5 26.5 -68.5 26.5h-40v55h40c52 0 92.5 -13.5 121.5 -40.5s43.5 -63.5 43.5 -109.5z
" />
    <glyph glyph-name="asterisk" unicode="*" horiz-adv-x="410" 
d="M205 470l-85 -100l-35 25l74 110l-119 45l10 40l125 -30l10 140h40l10 -140l125 30l10 -40l-119 -45l74 -110l-35 -25z" />
    <glyph glyph-name="plus" unicode="+" horiz-adv-x="530" 
d="M490 350v-55h-195v-200h-60v200h-195v55h195v200h60v-200h195z" />
    <glyph glyph-name="comma" unicode="," horiz-adv-x="200" 
d="M65 105h70v-70l-35 -140h-35v210z" />
    <glyph glyph-name="hyphen" unicode="-" horiz-adv-x="485" 
d="M445 350v-55h-405v55h405z" />
    <glyph glyph-name="period" unicode="." horiz-adv-x="200" 
d="M65 105h70v-105h-70v105z" />
    <glyph glyph-name="slash" unicode="/" horiz-adv-x="460" 
d="M80 -50h-60v30l360 770h60v-30z" />
    <glyph glyph-name="zero" unicode="0" horiz-adv-x="640" 
d="M395 -10h-150c-52 0 -92.5 13.5 -121.5 40.5s-43.5 63.5 -43.5 109.5v420c0 46 14.5 82.5 43.5 109.5s69.5 40.5 121.5 40.5h150c52 0 92.5 -13.5 121.5 -40.5s43.5 -63.5 43.5 -109.5v-420c0 -46 -14.5 -82.5 -43.5 -109.5s-69.5 -40.5 -121.5 -40.5zM245 45h150
c28 0 50.833 8.83301 68.5 26.5s26.5 40.5 26.5 68.5v420c0 28 -8.83301 50.833 -26.5 68.5s-40.5 26.5 -68.5 26.5h-150c-28 0 -50.833 -8.83301 -68.5 -26.5s-26.5 -40.5 -26.5 -68.5v-420c0 -28 8.83301 -50.833 26.5 -68.5s40.5 -26.5 68.5 -26.5z" />
    <glyph glyph-name="one" unicode="1" horiz-adv-x="330" 
d="M230 700v-700h-70v640h-140v30l155 30h55z" />
    <glyph glyph-name="two" unicode="2" horiz-adv-x="540" 
d="M405 350l-290.001 -289.998v-5h370v-55h-460v55l330 335c12 13.333 22 25.666 30 36.999c20 30.667 30 56.667 30 78v45c0 28 -8.83301 50.833 -26.5 68.5s-40.5 26.5 -68.5 26.5h-255l-20 20v35h275c52 0 92.5 -13.5 121.5 -40.5s43.5 -63.5 43.5 -109.5v-45
c0 -33.333 -13.333 -69.333 -40 -108c-13.333 -18.667 -26.666 -34.334 -39.999 -47.001z" />
    <glyph glyph-name="three" unicode="3" horiz-adv-x="545" 
d="M420 150v95c0 28 -8.83301 50.833 -26.5 68.5s-40.5 26.5 -68.5 26.5h-195v45l255 255v5h-340l-20 20v35h445v-50l-250 -250v-5h105c52 0 92.5 -13.5 121.5 -40.5s43.5 -63.5 43.5 -109.5v-95c0 -46 -14.5 -82.5 -43.5 -109.5s-69.5 -40.5 -121.5 -40.5h-295v55h295
c28 0 50.833 8.83301 68.5 26.5s26.5 40.5 26.5 68.5z" />
    <glyph glyph-name="four" unicode="4" horiz-adv-x="585" 
d="M460 700v-480h110v-55h-110v-165h-70v165h-375v50l350 485h95zM390 620h-5l-290 -395v-5h295v400z" />
    <glyph glyph-name="five" unicode="5" horiz-adv-x="575" 
d="M490 700v-35l-20 -20h-325v-235h210c52 0 92.5 -13.5 121.5 -40.5s43.5 -63.5 43.5 -109.5v-110c0 -46 -14.5 -82.5 -43.5 -109.5s-69.5 -40.5 -121.5 -40.5h-280v55h280c28 0 50.833 8.83301 68.5 26.5s26.5 40.5 26.5 68.5v110c0 28 -8.83301 50.833 -26.5 68.5
s-40.5 26.5 -68.5 26.5h-280v345h415z" />
    <glyph glyph-name="six" unicode="6" 
d="M150 550v-130h230c52 0 92.5 -13.5 121.5 -40.5s43.5 -63.5 43.5 -109.5v-130c0 -46 -14.5 -82.5 -43.5 -109.5s-69.5 -40.5 -121.5 -40.5h-135c-52 0 -92.5 13.5 -121.5 40.5s-43.5 63.5 -43.5 109.5v410c0 46 14.5 82.5 43.5 109.5s69.5 40.5 121.5 40.5h265v-35
l-20 -20h-245c-28 0 -50.833 -8.66699 -68.5 -26s-26.5 -40.333 -26.5 -69zM245 45h135c28 0 50.833 8.83301 68.5 26.5s26.5 40.5 26.5 68.5v130c0 28 -8.83301 50.833 -26.5 68.5s-40.5 26.5 -68.5 26.5h-230v-225c0 -28 8.83301 -50.833 26.5 -68.5
s40.5 -26.5 68.5 -26.5z" />
    <glyph glyph-name="seven" unicode="7" horiz-adv-x="485" 
d="M200 0h-65v35l260 605v5h-385v55h465v-50z" />
    <glyph glyph-name="eight" unicode="8" horiz-adv-x="625" 
d="M395 -10h-164.999c-52 0 -92.5 13.5 -121.5 40.5s-43.5 63.5 -43.5 109.5v105c0 43.333 18.333 77.333 55 102c14.667 10 33 17.667 55 23v5c-18 5.33301 -33 12.666 -45 21.999c-30 22 -45 53 -45 93v70c0 46 14.5 82.5 43.5 109.5s69.5 40.5 121.5 40.5h125
c52 0 92.5 -13.5 121.5 -40.5s43.5 -63.5 43.5 -109.5v-70c0 -40 -15 -71 -45 -93c-12 -9.33301 -27 -16.666 -45 -21.999v-5c21.333 -5.33301 39.666 -13 54.999 -23c36.667 -26 55 -60 55 -102v-105c0 -46 -14.5 -82.5 -43.5 -109.5s-69.5 -40.5 -121.5 -40.5zM230.001 45
h165c28 0 50.833 8.83301 68.5 26.5s26.5 40.5 26.5 68.5v105c0 28 -8.83301 50.833 -26.5 68.5s-40.5 26.5 -68.5 26.5h-165c-28 0 -50.833 -8.83301 -68.5 -26.5s-26.5 -40.167 -26.5 -67.5v-106c0 -28 8.83301 -50.833 26.5 -68.5s40.5 -26.5 68.5 -26.5zM250.001 395
h125c28 0 50.833 8.83301 68.5 26.5s26.5 40.5 26.5 68.5v70c0 28 -8.83301 50.833 -26.5 68.5s-40.5 26.5 -68.5 26.5h-125c-28 0 -50.833 -8.83301 -68.5 -26.5s-26.5 -40.5 -26.5 -68.5v-70c0 -28 8.83301 -50.833 26.5 -68.5s40.5 -26.5 68.5 -26.5z" />
    <glyph glyph-name="nine" unicode="9" 
d="M450 150v130h-230c-52 0 -92.5 13.5 -121.5 40.5s-43.5 63.5 -43.5 109.5v130c0 46 14.5 82.5 43.5 109.5s69.5 40.5 121.5 40.5h135c52 0 92.5 -13.5 121.5 -40.5s43.5 -63.5 43.5 -109.5v-410c0 -46 -14.5 -82.5 -43.5 -109.5s-69.5 -40.5 -121.5 -40.5h-275v55h275
c28 0 50.833 8.66699 68.5 26s26.5 40.333 26.5 69zM355 655h-135c-28 0 -50.833 -8.83301 -68.5 -26.5s-26.5 -40.5 -26.5 -68.5v-130c0 -28 8.83301 -50.833 26.5 -68.5s40.5 -26.5 68.5 -26.5h230v225c0 28 -8.83301 50.833 -26.5 68.5s-40.5 26.5 -68.5 26.5z" />
    <glyph glyph-name="colon" unicode=":" horiz-adv-x="200" 
d="M65 105h70v-105h-70v105zM65 530h70v-105h-70v105z" />
    <glyph glyph-name="semicolon" unicode=";" horiz-adv-x="200" 
d="M65 530h70v-105h-70v105zM65 105h70v-70l-35 -140h-35v210z" />
    <glyph glyph-name="less" unicode="&#x3c;" horiz-adv-x="500" 
d="M450 0l-400 235v65l400 235v-75l-330 -190v-5l330 -190v-75z" />
    <glyph glyph-name="equal" unicode="=" horiz-adv-x="505" 
d="M465 455v-55h-425v55h425zM465 250v-55h-425v55h425z" />
    <glyph glyph-name="greater" unicode="&#x3e;" horiz-adv-x="500" 
d="M450 235l-400 -235v75l330 190v5l-330 190v75l400 -235v-65z" />
    <glyph glyph-name="question" unicode="?" horiz-adv-x="495" 
d="M160 105h70v-105h-70v105zM230 240v-40h-70v40c0 28 6.33301 50.667 19 68s31.334 33 56.001 47l100 55c30 18 45 41.333 45 70v70c0 28 -8.83301 50.833 -26.5 68.5s-40.5 26.5 -68.5 26.5h-255l-20 20v35h275c52 0 92.5 -13.5 121.5 -40.5s43.5 -63.5 43.5 -109.5v-70
c0 -28 -6.33301 -50.667 -19 -68s-31.334 -33 -56.001 -47l-100 -55c-30 -18 -45 -41.333 -45 -70z" />
    <glyph glyph-name="at" unicode="@" horiz-adv-x="860" 
d="M80 130l-0.000976562 439.998c0 46 14.5 82.5 43.5 109.5s69.5 40.5 121.5 40.5h365c52 0 92.5 -13.5 121.5 -40.5s43.5 -63.5 43.5 -109.5v-380h-45l-10 70h-5c-5.33301 -14 -14 -27.333 -26 -40c-25.333 -26.667 -56.666 -40 -93.999 -40h-105
c-47.333 0 -84.166 12.333 -110.499 37s-39.5 57.334 -39.5 98.001v40c0 40.667 13.167 73.334 39.5 98.001s63.166 37 110.499 37h215v80c0 28 -8.83301 50.833 -26.5 68.5s-40.5 26.5 -68.5 26.5h-365c-28 0 -50.833 -8.83301 -68.5 -26.5s-26.5 -40.5 -26.5 -68.5v-440
c0 -28 8.83301 -50.833 26.5 -68.5s40.5 -26.5 68.5 -26.5h520v-55h-520c-52 0 -92.5 13.5 -121.5 40.5s-43.5 63.5 -43.5 109.5zM704.999 434.998h-214.999c-22.667 0 -41.667 -7.66699 -57 -23s-23 -34.333 -23 -57v-40c0 -22.667 7.66699 -41.667 23 -57
s34.333 -23 57 -23h105c32 0 60.333 15.667 85 47c9.33301 12.667 17.666 28.667 24.999 48v105z" />
    <glyph glyph-name="A" unicode="A" horiz-adv-x="625" 
d="M155 185l-65 -185h-65v35l240 665h95l240 -665v-35h-65l-65 185h-315zM455 240l-140 390h-5l-140 -390h285z" />
    <glyph glyph-name="B" unicode="B" horiz-adv-x="650" 
d="M95 700l300 -0.000976562c52 0 92.5 -13.5 121.5 -40.5s43.5 -63.5 43.5 -109.5v-65c0 -39.333 -13.333 -70.333 -40 -93c-11.333 -9.33301 -24.666 -16.666 -39.999 -21.999v-5c21.333 -5.33301 39.666 -13 54.999 -23c36.667 -26 55 -60 55 -102v-90
c0 -46 -14.5 -82.5 -43.5 -109.5s-69.5 -40.5 -121.5 -40.5h-330v700zM165 54.999h260c28 0 50.833 8.83301 68.5 26.5s26.5 40.5 26.5 68.5v90c0 28 -8.83301 50.833 -26.5 68.5s-40.5 26.5 -68.5 26.5h-260v-280zM395 644.999h-230v-255h230
c28 0 50.833 8.83301 68.5 26.5s26.5 40.5 26.5 68.5v65c0 28 -8.83301 50.833 -26.5 68.5s-40.5 26.5 -68.5 26.5z" />
    <glyph glyph-name="C" unicode="C" horiz-adv-x="570" 
d="M80 150v400c0 46 14.5 82.5 43.5 109.5s69.5 40.5 121.5 40.5h290v-35l-20 -20h-270c-28 0 -50.833 -8.83301 -68.5 -26.5s-26.5 -40.5 -26.5 -68.5v-400c0 -28 8.83301 -50.833 26.5 -68.5s40.5 -26.5 68.5 -26.5h290v-55h-290c-52 0 -92.5 13.5 -121.5 40.5
s-43.5 63.5 -43.5 109.5z" />
    <glyph glyph-name="D" unicode="D" horiz-adv-x="665" 
d="M95 0v700h325c52 0 92.5 -13.5 121.5 -40.5s43.5 -63.5 43.5 -109.5v-400c0 -46 -14.5 -82.5 -43.5 -109.5s-69.5 -40.5 -121.5 -40.5h-325zM165 645v-590h255c28 0 50.833 8.83301 68.5 26.5s26.5 40.5 26.5 68.5v400c0 28 -8.83301 50.833 -26.5 68.5
s-40.5 26.5 -68.5 26.5h-255z" />
    <glyph glyph-name="E" unicode="E" horiz-adv-x="580" 
d="M95 0v700h450v-35l-20 -20h-360v-260h295v-55h-295v-275h380v-55h-450z" />
    <glyph glyph-name="F" unicode="F" horiz-adv-x="555" 
d="M165 0h-70v700h450v-35l-20 -20h-360v-285h295v-55h-295v-305z" />
    <glyph glyph-name="G" unicode="G" horiz-adv-x="655" 
d="M80 150v400c0 46 14.5 82.5 43.5 109.5s69.5 40.5 121.5 40.5h295v-35l-20 -20h-275c-28 0 -50.833 -8.83301 -68.5 -26.5s-26.5 -40.5 -26.5 -68.5v-400c0 -28 8.83301 -50.833 26.5 -68.5s40.5 -26.5 68.5 -26.5h255v275h-170v55h240v-385h-325
c-52 0 -92.5 13.5 -121.5 40.5s-43.5 63.5 -43.5 109.5z" />
    <glyph glyph-name="H" unicode="H" horiz-adv-x="680" 
d="M95 700h70v-320h350v320h70v-700h-70v325h-350v-325h-70v700z" />
    <glyph glyph-name="I" unicode="I" horiz-adv-x="260" 
d="M95 700h70v-700h-70v700z" />
    <glyph glyph-name="J" unicode="J" horiz-adv-x="515" 
d="M255 -10h-245v55h245c28 0 50.833 8.83301 68.5 26.5s26.5 40.5 26.5 68.5v560h70v-560c0 -46 -14.5 -82.5 -43.5 -109.5s-69.5 -40.5 -121.5 -40.5z" />
    <glyph glyph-name="K" unicode="K" horiz-adv-x="630" 
d="M335 380l170 320h65v-35l-175 -310l200 -320v-35h-65l-195 325h-170v-325h-70v700h70v-320h170z" />
    <glyph glyph-name="L" unicode="L" horiz-adv-x="545" 
d="M95 700h70v-645h370v-55h-440v700z" />
    <glyph glyph-name="M" unicode="M" horiz-adv-x="965" 
d="M530 85h-95l-215 540h-5l-80 -625h-65v35l90 665h100l220 -540h5l220 540h100l90 -665v-35h-65l-80 625h-5z" />
    <glyph glyph-name="N" unicode="N" horiz-adv-x="680" 
d="M585 0h-85l-340 605h-5l10 -145v-460h-70v700h85l340 -605h5l-10 145v460h70v-700z" />
    <glyph glyph-name="O" unicode="O" horiz-adv-x="670" 
d="M425 -10h-180c-52 0 -92.5 13.5 -121.5 40.5s-43.5 63.5 -43.5 109.5v420c0 46 14.5 82.5 43.5 109.5s69.5 40.5 121.5 40.5h180c52 0 92.5 -13.5 121.5 -40.5s43.5 -63.5 43.5 -109.5v-420c0 -46 -14.5 -82.5 -43.5 -109.5s-69.5 -40.5 -121.5 -40.5zM245 45h180
c28 0 50.833 8.83301 68.5 26.5s26.5 40.5 26.5 68.5v420c0 28 -8.83301 50.833 -26.5 68.5s-40.5 26.5 -68.5 26.5h-180c-28 0 -50.833 -8.83301 -68.5 -26.5s-26.5 -40.5 -26.5 -68.5v-420c0 -28 8.83301 -50.833 26.5 -68.5s40.5 -26.5 68.5 -26.5z" />
    <glyph glyph-name="P" unicode="P" horiz-adv-x="630" 
d="M95 700h310c52 0 92.5 -13.5 121.5 -40.5s43.5 -63.5 43.5 -109.5v-160c0 -46 -14.5 -82.5 -43.5 -109.5s-69.5 -40.5 -121.5 -40.5h-240v-240h-70v700zM405 645h-240v-350h240c28 0 50.833 8.83301 68.5 26.5s26.5 40.5 26.5 68.5v160c0 28 -8.83301 50.833 -26.5 68.5
s-40.5 26.5 -68.5 26.5z" />
    <glyph glyph-name="Q" unicode="Q" horiz-adv-x="670" 
d="M425 -10h-55l70 -90v-35h-65l-71 125h-59c-52 0 -92.5 13.5 -121.5 40.5s-43.5 63.5 -43.5 109.5v420c0 46 14.5 82.5 43.5 109.5s69.5 40.5 121.5 40.5h180c52 0 92.5 -13.5 121.5 -40.5s43.5 -63.5 43.5 -109.5v-420c0 -46 -14.5 -82.5 -43.5 -109.5
s-69.5 -40.5 -121.5 -40.5zM245 45h180c28 0 50.833 8.83301 68.5 26.5s26.5 40.5 26.5 68.5v420c0 28 -8.83301 50.833 -26.5 68.5s-40.5 26.5 -68.5 26.5h-180c-28 0 -50.833 -8.83301 -68.5 -26.5s-26.5 -40.5 -26.5 -68.5v-420c0 -28 8.83301 -50.833 26.5 -68.5
s40.5 -26.5 68.5 -26.5z" />
    <glyph glyph-name="R" unicode="R" horiz-adv-x="650" 
d="M95 700h310c52 0 92.5 -13.5 121.5 -40.5s43.5 -63.5 43.5 -109.5v-120c0 -56.667 -23.333 -97.667 -70 -123c-22.667 -12 -46 -19.333 -70 -22l53 -79l63 -93.5l54 -77.5v-35h-65l-180 280h-190v-280h-70v700zM405 645h-240v-310h240c28 0 50.833 8.83301 68.5 26.5
s26.5 40.5 26.5 68.5v120c0 28 -8.83301 50.833 -26.5 68.5s-40.5 26.5 -68.5 26.5z" />
    <glyph glyph-name="S" unicode="S" horiz-adv-x="590" 
d="M125 550v-55c0 -22 6.66699 -40.167 20 -54.5s31.666 -24.5 54.999 -30.5l210 -50c83.333 -20 125 -68.333 125 -145v-65c0 -46 -14.5 -82.5 -43.5 -109.5s-69.5 -40.5 -121.5 -40.5h-315v55h315c28 0 50.833 8.83301 68.5 26.5s26.5 40.5 26.5 68.5v65
c0 22 -6.66699 40.167 -20 54.5s-31.666 24.5 -54.999 30.5l-210 50c-83.333 20 -125 68.333 -125 145v55c0 46 14.5 82.5 43.5 109.5s69.5 40.5 121.5 40.5h285v-35l-20 -20h-265c-28 0 -50.833 -8.83301 -68.5 -26.5s-26.5 -40.5 -26.5 -68.5z" />
    <glyph glyph-name="T" unicode="T" horiz-adv-x="550" 
d="M310 645v-645h-70v645h-220v55h510v-35l-20 -20h-200z" />
    <glyph glyph-name="U" unicode="U" horiz-adv-x="690" 
d="M260 45h170c28 0 50.833 8.83301 68.5 26.5s26.5 40.5 26.5 68.5v560h70v-560c0 -46 -14.5 -82.5 -43.5 -109.5s-69.5 -40.5 -121.5 -40.5h-170c-52 0 -92.5 13.5 -121.5 40.5s-43.5 63.5 -43.5 109.5v560h70v-560c0 -28 8.83301 -50.833 26.5 -68.5
s40.5 -26.5 68.5 -26.5z" />
    <glyph glyph-name="V" unicode="V" horiz-adv-x="615" 
d="M310 70l210 630h65v-35l-230 -665h-95l-230 665v35h65l210 -630h5z" />
    <glyph glyph-name="W" unicode="W" horiz-adv-x="925" 
d="M465 520h-5l-175 -520h-95l-150 665v35h65l135 -630h5l88 268l82 252h95l82 -252l88 -268h5l135 630h65v-35l-150 -665h-95z" />
    <glyph glyph-name="X" unicode="X" horiz-adv-x="595" 
d="M295 305l-200 -305h-65v35l220 315l-205 315v35h65l185 -300h5l185 300h65v-35l-205 -315l220 -315v-35h-65l-200 305h-5z" />
    <glyph glyph-name="Y" unicode="Y" horiz-adv-x="580" 
d="M85 700l202 -395h6l202 395h65v-35l-235 -445v-220h-70v220l-235 445v35h65z" />
    <glyph glyph-name="Z" unicode="Z" horiz-adv-x="550" 
d="M520 55v-55h-490v50l390 590v5h-370l-20 20v35h480v-50l-390 -590v-5h400z" />
    <glyph glyph-name="bracketleft" unicode="[" horiz-adv-x="340" 
d="M300 -180h-205v950h205v-55h-135v-840h135v-55z" />
    <glyph glyph-name="backslash" unicode="\" horiz-adv-x="460" 
d="M20 750h60l360 -770v-30h-60l-360 770v30z" />
    <glyph glyph-name="bracketright" unicode="]" horiz-adv-x="340" 
d="M245 -180h-205v55h135v840h-135v55h205v-950z" />
    <glyph glyph-name="asciicircum" unicode="^" horiz-adv-x="445" 
d="M190 700h65l170 -240h-75l-125 180h-5l-125 -180h-75z" />
    <glyph glyph-name="underscore" unicode="_" horiz-adv-x="485" 
d="M455 -70v-55h-425v55h425z" />
    <glyph glyph-name="grave" unicode="`" horiz-adv-x="255" 
d="M40 700h85l90 -160h-60z" />
    <glyph glyph-name="a" unicode="a" horiz-adv-x="570" 
d="M105 475v54.999h235c47.333 0 84.166 -12.333 110.499 -37s39.5 -57.334 39.5 -98.001v-395h-45l-10 70h-5c-5.33301 -14 -14 -27.333 -26 -40c-25.333 -26.667 -56.666 -40 -93.999 -40h-105c-47.333 0 -84.166 12.333 -110.499 37s-39.5 57.334 -39.5 98.001v40
c0 40.667 13.167 73.334 39.5 98.001s63.166 37 110.499 37h215v95c0 22.667 -7.66699 41.667 -23 57s-34.333 23 -57 23h-235zM420 244.999h-214.999c-22.667 0 -41.667 -7.66699 -57 -23s-23 -34.333 -23 -57v-40c0 -22.667 7.66699 -41.667 23 -57s34.333 -23 57 -23h105
c32 0 60.333 15.667 85 47c9.33301 12.667 17.666 28.667 24.999 48v105z" />
    <glyph glyph-name="b" unicode="b" horiz-adv-x="590" 
d="M520 395v-259.998c0 -40.667 -13.167 -73.334 -39.5 -98.001s-63.166 -37 -110.499 -37h-285v700h70v-170h215c47.333 0 84.166 -12.333 110.499 -37s39.5 -57.334 39.5 -98.001zM155 475.002v-420h215c22.667 0 41.667 7.66699 57 23s23 34.333 23 57v260
c0 22.667 -7.66699 41.667 -23 57s-34.333 23 -57 23h-215z" />
    <glyph glyph-name="c" unicode="c" horiz-adv-x="505" 
d="M470 0l-250 -0.00195312c-47.333 0 -84.166 12.333 -110.499 37s-39.5 57.334 -39.5 98.001v260c0 40.667 13.167 73.334 39.5 98.001s63.166 37 110.499 37h250v-35l-20 -20h-230c-22.667 0 -41.667 -7.66699 -57 -23s-23 -34.333 -23 -57v-260
c0 -22.667 7.66699 -41.667 23 -57s34.333 -23 57 -23h250v-55z" />
    <glyph glyph-name="d" unicode="d" horiz-adv-x="590" 
d="M505 0l-45.001 -0.00195312l-10 70h-5c-5.33301 -14 -14 -27.333 -26 -40c-25.333 -26.667 -56.666 -40 -93.999 -40h-105c-47.333 0 -84.166 12.333 -110.499 37s-39.5 57.334 -39.5 98.001v270c0 40.667 13.167 73.334 39.5 98.001s63.166 37 110.499 37h215v170h70
v-700zM434.999 139.998l0.000976562 335h-215c-22.667 0 -41.667 -7.66699 -57 -23s-23 -34.333 -23 -57v-270c0 -22.667 7.66699 -41.667 23 -57s34.333 -23 57 -23h105c32 0 60.333 15.667 85 47c9.33301 12.667 17.666 28.667 24.999 48z" />
    <glyph glyph-name="e" unicode="e" horiz-adv-x="565" 
d="M495 235l-354.999 -0.000976562v-100c0 -22.667 7.66699 -41.667 23 -57s34.333 -23 57 -23h255v-55h-255c-47.333 0 -84.166 12.333 -110.499 37s-39.5 57.334 -39.5 98.001v270c0 40.667 13.167 73.334 39.5 98.001s63.166 37 110.499 37h125
c47.333 0 84.166 -12.333 110.499 -37s39.5 -57.334 39.5 -98.001v-170zM140.001 404.999v-115h285v115c0 22.667 -7.66699 41.667 -23 57s-34.333 23 -57 23h-125c-22.667 0 -41.667 -7.66699 -57 -23s-23 -34.333 -23 -57z" />
    <glyph glyph-name="f" unicode="f" horiz-adv-x="400" 
d="M150 0l-69.999 -0.000976562v575c0 40.667 13.167 73.334 39.5 98.001s63.166 37 110.499 37h190v-35l-20 -20h-170c-22.667 0 -41.667 -7.66699 -57 -23s-23 -34.333 -23 -57v-125h205v-55h-205v-395z" />
    <glyph glyph-name="g" unicode="g" horiz-adv-x="575" 
d="M140 405v-70c0 -22.667 7.66699 -41.667 23 -57s34.333 -23 57 -23h135c22.667 0 41.667 7.66699 57 23s23 34.333 23 57v70c0 22.667 -7.66699 41.667 -23 57s-34.333 23 -57 23h-135c-22.667 0 -41.667 -7.66699 -57 -23s-23 -34.333 -23 -57zM170 125h219.998
c47.333 0 84.166 -12.333 110.499 -37s39.5 -57.334 39.5 -98.001v-25c0 -40.667 -13.167 -73.334 -39.5 -98.001s-63.166 -37 -110.499 -37h-205c-47.333 0 -84.166 12.333 -110.499 37s-39.5 57.334 -39.5 98.001v25c0 35.333 13.333 64.333 40 87
c12.667 10.667 26 18.334 40 23.001v5c-6 2 -11 5 -15 9c-10 8.66699 -15 20.667 -15 36v25c0 16.667 6.66699 30 20 40c4 2.66699 10.667 6 20 10v5c-9.33301 4 -18.666 11.333 -27.999 22c-18 19.333 -27 47 -27 83v70c0 40.667 13.167 73.334 39.5 98.001
s63.166 37 110.499 37h145l50 80h65v-30l-55 -55v-5c14.667 -6.66699 28 -16 40 -28c26.667 -26.667 40 -59 40 -97v-70c0 -40.667 -13.167 -73.334 -39.5 -98.001s-63.166 -37 -110.499 -37h-185c-16.667 0 -25 -8.33301 -25 -25v-25c0 -16.667 8.33301 -25 25 -25z
M389.998 70h-205c-22.667 0 -41.667 -7.66699 -57 -23s-23 -34.333 -23 -57v-25c0 -22.667 7.66699 -41.667 23 -57s34.333 -23 57 -23h205c22.667 0 41.667 7.66699 57 23s23 34.333 23 57v25c0 22.667 -7.66699 41.667 -23 57s-34.333 23 -57 23z" />
    <glyph glyph-name="h" unicode="h" 
d="M155 475l0.000976562 -474.999h-70v700h70v-170h215c47.333 0 84.166 -12.333 110.499 -37s39.5 -57.334 39.5 -98.001v-395h-70v395c0 22.667 -7.66699 41.667 -23 57s-34.333 23 -57 23h-215z" />
    <glyph glyph-name="i" unicode="i" horiz-adv-x="230" 
d="M80 530h70v-530h-70v530zM80 710h70v-100h-70v100z" />
    <glyph glyph-name="j" unicode="j" horiz-adv-x="250" 
d="M20 -170l-95.001 0.000976562v55h95c22.667 0 41.667 7.66699 57 23s23 34.333 23 57v565h70v-565c0 -40.667 -13.167 -73.334 -39.5 -98.001s-63.166 -37 -110.499 -37zM99.999 710.001h70v-100h-70v100z" />
    <glyph glyph-name="k" unicode="k" horiz-adv-x="555" 
d="M305 300l135 230h65v-35l-145 -220l160 -240v-35h-65l-150 245h-150v-245h-70v700h70v-400h150z" />
    <glyph glyph-name="l" unicode="l" horiz-adv-x="290" 
d="M260 -10l-25.001 -0.000976562c-47.333 0 -84.166 12.333 -110.499 37s-39.5 57.334 -39.5 98.001v575h70v-575c0 -22.667 7.66699 -41.667 23 -57s34.333 -23 57 -23h25v-55z" />
    <glyph glyph-name="m" unicode="m" horiz-adv-x="890" 
d="M480 405l0.00292969 -404.999h-70v405c0 22.667 -7.66699 41.667 -23 57s-34.333 23 -57 23h-70c-34 0 -62.333 -16 -85 -48c-10 -12.667 -18.333 -28.334 -25 -47.001v-390h-70v530h45l10 -70h5c5.33301 14 14 27.333 26 40c25.333 26.667 56.666 40 93.999 40h70
c33.333 0 63 -11.667 89 -35c10 -10 18.667 -21.667 26 -35h5c6 12.667 14.333 24.334 25 35.001c23.333 23.333 51.666 35 84.999 35h100c47.333 0 84.166 -12.333 110.499 -37s39.5 -57.334 39.5 -98.001v-405h-70v405c0 22.667 -7.66699 41.667 -23 57s-34.333 23 -57 23
h-100c-22.667 0 -41.667 -7.66699 -57 -23s-23 -34.333 -23 -57z" />
    <glyph glyph-name="n" unicode="n" 
d="M150 390l0.00195312 -389.998h-70v530h45l10 -70h5c5.33301 14 14 27.333 26 40c25.333 26.667 56.666 40 93.999 40h110c47.333 0 84.166 -12.333 110.499 -37s39.5 -57.334 39.5 -98.001v-405h-70v405c0 22.667 -7.66699 41.667 -23 57s-34.333 23 -57 23h-110
c-34 0 -62.333 -16 -85 -48c-10 -12.667 -18.333 -28.334 -25 -47.001z" />
    <glyph glyph-name="o" unicode="o" horiz-adv-x="590" 
d="M370 -10h-150c-47.333 0 -84.166 12.333 -110.499 37s-39.5 57.334 -39.5 98.001v280c0 40.667 13.167 73.334 39.5 98.001s63.166 37 110.499 37h150c47.333 0 84.166 -12.333 110.499 -37s39.5 -57.334 39.5 -98.001v-280c0 -40.667 -13.167 -73.334 -39.5 -98.001
s-63.166 -37 -110.499 -37zM140 405v-280c0 -22.667 7.66699 -41.667 23 -57s34.333 -23 57 -23h150c22.667 0 41.667 7.66699 57 23s23 34.333 23 57v280c0 22.667 -7.66699 41.667 -23 57s-34.333 23 -57 23h-150c-22.667 0 -41.667 -7.66699 -57 -23s-23 -34.333 -23 -57
z" />
    <glyph glyph-name="p" unicode="p" horiz-adv-x="585" 
d="M80 530l45.001 0.00195312l10 -70h5c5.33301 14 14 27.333 26 40c25.333 26.667 56.666 40 93.999 40h105c47.333 0 84.166 -12.333 110.499 -37s39.5 -57.334 39.5 -98.001v-270c0 -40.667 -13.167 -73.334 -39.5 -98.001s-63.166 -37 -110.499 -37h-215v-170h-70v700z
M150.001 390.002v-334.999h215c22.667 0 41.667 7.66699 57 23s23 34.333 23 57v270c0 22.667 -7.66699 41.667 -23 57s-34.333 23 -57 23h-105c-34 0 -62.333 -16 -85 -48c-10 -12.667 -18.333 -28.334 -25 -47.001z" />
    <glyph glyph-name="q" unicode="q" horiz-adv-x="585" 
d="M70 135v259.998c0 40.667 13.167 73.334 39.5 98.001s63.166 37 110.499 37h285v-700h-70v170h-215c-47.333 0 -84.166 12.333 -110.499 37s-39.5 57.334 -39.5 98.001zM435 54.998v420h-215c-22.667 0 -41.667 -7.66699 -57 -23s-23 -34.333 -23 -57v-260
c0 -22.667 7.66699 -41.667 23 -57s34.333 -23 57 -23h215z" />
    <glyph glyph-name="r" unicode="r" horiz-adv-x="430" 
d="M150 390l0.000976562 -389.999h-70v530h45l10 -70h5c5.33301 14 14 27.333 26 40c25.333 26.667 56.666 40 93.999 40h155v-55h-155c-34 0 -62.333 -16 -85 -48c-10 -12.667 -18.333 -28.334 -25 -47.001z" />
    <glyph glyph-name="s" unicode="s" horiz-adv-x="515" 
d="M345 225l-195 30c-70 12 -105 52 -105 120v20c0 40.667 13.167 73.334 39.5 98.001s63.166 37 110.499 37h250v-35l-20 -20h-230c-22.667 0 -41.667 -7.66699 -57 -23s-23 -34.333 -23 -57v-20c0 -38 18.333 -59.667 55 -65l195 -30c70 -12 105 -52 105 -120v-25
c0 -40.667 -13.167 -73.334 -39.5 -98.001s-63.166 -37 -110.499 -37h-275v55h275c22.667 0 41.667 7.66699 57 23s23 34.333 23 57v25c0 38 -18.333 59.667 -55 65z" />
    <glyph glyph-name="t" unicode="t" horiz-adv-x="425" 
d="M105 125l-0.000976562 349.999h-90v55h90l35 140h35v-140h160v-55h-160v-350c0 -22.667 7.66699 -41.667 23 -57s34.333 -23 57 -23h155v-55h-155c-47.333 0 -84.166 12.333 -110.499 37s-39.5 57.334 -39.5 98.001z" />
    <glyph glyph-name="u" unicode="u" 
d="M450 140l-0.000976562 389.999h70v-530h-45l-10 70h-5c-5.33301 -14 -14 -27.333 -26 -40c-25.333 -26.667 -56.666 -40 -93.999 -40h-110c-47.333 0 -84.166 12.333 -110.499 37s-39.5 57.334 -39.5 98.001v405h70v-405c0 -22.667 7.66699 -41.667 23 -57
s34.333 -23 57 -23h110c32 0 60.333 15.667 85 47c9.33301 12.667 17.666 28.667 24.999 48z" />
    <glyph glyph-name="v" unicode="v" horiz-adv-x="545" 
d="M275 60l175 470h65v-35l-195 -495h-95l-195 495v35h65l175 -470h5z" />
    <glyph glyph-name="w" unicode="w" horiz-adv-x="795" 
d="M445 450l135 -380h5l105 460h65v-35l-125 -495h-90l-140 385h-5l-140 -385h-90l-125 495v35h65l105 -460h5l135 380h95z" />
    <glyph glyph-name="x" unicode="x" horiz-adv-x="515" 
d="M255 315h5l150 215h65v-35l-175 -230l185 -230v-35h-65l-160 215h-5l-160 -215h-65v35l185 230l-175 230v35h65z" />
    <glyph glyph-name="y" unicode="y" horiz-adv-x="535" 
d="M505 495l-198.999 -545c-30.667 -80 -84 -120 -160 -120h-50v55h50c19.333 0 36.666 6.16699 51.999 18.5s26.333 27.833 33 46.5l15 40v9l-216 496v35h65l186 -460h5l154 460h65v-35z" />
    <glyph glyph-name="z" unicode="z" horiz-adv-x="490" 
d="M460 55v-55h-430v50l330 420v5h-310l-20 20v35h420v-50l-330 -420v-5h340z" />
    <glyph glyph-name="braceleft" unicode="{" horiz-adv-x="395" 
d="M355 -180h-40c-52 0 -92.5 13.5 -121.5 40.5s-43.5 63.5 -43.5 109.5v205c0 28 -8 50 -24 66s-38 24 -66 24v65c28 0 50 8 66 24s24 38 24 66v200c0 46 14.5 82.5 43.5 109.5s69.5 40.5 121.5 40.5h40v-55h-40c-28 0 -50.833 -8.83301 -68.5 -26.5
s-26.5 -40.5 -26.5 -68.5v-200c0 -44 -15 -77 -45 -99c-12.667 -10 -27.667 -17 -45 -21v-5c17.333 -4 32.333 -11 45 -21c30 -22 45 -55 45 -99v-205c0 -28 8.83301 -50.833 26.5 -68.5s40.5 -26.5 68.5 -26.5h40v-55z" />
    <glyph glyph-name="bar" unicode="|" horiz-adv-x="260" 
d="M95 770h70v-980h-70v980z" />
    <glyph glyph-name="braceright" unicode="}" horiz-adv-x="395" 
d="M80 -180h-40v55h40c28 0 50.833 8.83301 68.5 26.5s26.5 40.5 26.5 68.5v205c0 44 15 77 45 99c13.333 10 28.333 17 45 21v5c-16.667 4 -31.667 11 -45 21c-30 22 -45 55 -45 99v200c0 28 -8.83301 50.833 -26.5 68.5s-40.5 26.5 -68.5 26.5h-40v55h40
c52 0 92.5 -13.5 121.5 -40.5s43.5 -63.5 43.5 -109.5v-200c0 -28 8 -50 24 -66s38 -24 66 -24v-65c-28 0 -50 -8 -66 -24s-24 -38 -24 -66v-205c0 -46 -14.5 -82.5 -43.5 -109.5s-69.5 -40.5 -121.5 -40.5z" />
    <glyph glyph-name="asciitilde" unicode="~" horiz-adv-x="505" 
d="M110 240h-60.001v115c0 20.667 7 38.334 21 53.001s32 22 54 22h35c16.667 0 34 -6.66699 52 -20c8 -6 15.667 -12.667 23 -20l75 -75c3.33301 -6 7.33301 -10.333 12 -13c8 -8 17.333 -12 28 -12h15c7.33301 0 14.166 3.16699 20.499 9.5s9.5 13.166 9.5 20.499v100h60
v-115c0 -20.667 -7 -38.334 -21 -53.001s-32 -22 -54 -22h-35c-17.333 0 -35 6.66699 -53 20c-5.33301 4 -12.666 10.667 -21.999 20l-75 75c-6 6 -10.333 10 -13 12c-10 8.66699 -19 13 -27 13h-15c-7.33301 0 -14.166 -3.16699 -20.499 -9.5s-9.5 -13.166 -9.5 -20.499
v-100z" />
    <glyph glyph-name="nbspace" unicode="&#xa0;" horiz-adv-x="290" 
 />
    <glyph glyph-name="exclamdown" unicode="&#xa1;" horiz-adv-x="260" 
d="M170 -170h-80v180l15 320h50l15 -320v-180zM165 425h-70v105h70v-105z" />
    <glyph glyph-name="cent" unicode="&#xa2;" horiz-adv-x="505" 
d="M260 610l70 -0.00195312v-80h140v-35l-20 -20h-230c-22.667 0 -41.667 -7.66699 -57 -23s-23 -34.333 -23 -57v-260c0 -22.667 7.66699 -41.667 23 -57s34.333 -23 57 -23h250v-55h-140v-80h-70v80h-40c-47.333 0 -84.166 12.333 -110.499 37s-39.5 57.334 -39.5 98.001
v260c0 40.667 13.167 73.334 39.5 98.001s63.166 37 110.499 37h40v80z" />
    <glyph glyph-name="sterling" unicode="&#xa3;" horiz-adv-x="540" 
d="M160 55h360.001v-55h-465v55h30c12.667 7.33301 24.334 16 35.001 26c23.333 23.333 35 49.666 35 78.999v205h-80v55h80v155c0 40.667 13.167 73.334 39.5 98.001s63.166 37 110.499 37h176v-35l-20 -20h-156c-22.667 0 -41.667 -7.66699 -57 -23s-23 -34.333 -23 -57
v-155h185v-55h-185v-205c0 -28.667 -11 -54 -33 -76c-8.66699 -8.66699 -19.334 -16.667 -32.001 -24v-5z" />
    <glyph glyph-name="currency" unicode="&#xa4;" horiz-adv-x="660" 
d="M505 195v-55h-310v-140h-70v140h-90v55h90v95h-90v55h90v355h310c52 0 92.5 -13.5 121.5 -40.5s43.5 -63.5 43.5 -109.5v-110c0 -46 -14.5 -82.5 -43.5 -109.5s-69.5 -40.5 -121.5 -40.5h-240v-95h310zM195 345h240c28 0 50.833 8.83301 68.5 26.5s26.5 40.5 26.5 68.5
v110c0 28 -8.83301 50.833 -26.5 68.5s-40.5 26.5 -68.5 26.5h-240v-300z" />
    <glyph glyph-name="yen" unicode="&#xa5;" horiz-adv-x="580" 
d="M500 160v-55h-175v-105h-70v105h-175v55h175v60l-11 20h-164v55h135l-195 370v35h65l202 -395h6l202 395h65v-35l-196 -370h136v-55h-165l-10 -20v-60h175z" />
    <glyph glyph-name="brokenbar" unicode="&#xa6;" horiz-adv-x="260" 
d="M95 770h70v-410h-70v410zM165 -210h-70v410h70v-410z" />
    <glyph glyph-name="section" unicode="&#xa7;" horiz-adv-x="545" 
d="M65 520l-0.000976562 45.0039c0 40.667 13.167 73.334 39.5 98.001s63.166 37 110.499 37h250v-35l-20 -20h-230c-22.667 0 -41.667 -7.66699 -57 -23s-23 -34 -23 -56v-46c0 -15.333 6 -29.333 18 -42s26 -20.334 42 -23.001l185 -30
c33.333 -5.33301 60 -18.666 80 -39.999s30 -48 30 -80v-100c0 -32.667 -11 -59.334 -33 -80.001c-7.33301 -7.33301 -18 -14 -32 -20v-5c13.333 -5.33301 24 -11.666 32 -18.999c22 -20.667 33 -44.334 33 -71.001v-45c0 -40.667 -13.167 -73.334 -39.5 -98.001
s-63.166 -37 -110.499 -37h-285v55h285c22.667 0 41.667 7.66699 57 23s23 34.333 23 57v45c0 15.333 -6.33301 29.166 -19 41.499s-28 20.166 -46 23.499l-190 30c-33.333 5.33301 -60 18.666 -80 39.999s-30 48 -30 80v100c0 34.667 11.667 61.334 35 80.001
c8.66699 7.33301 20.334 14 35.001 20v5c-12 5.33301 -22 11.666 -30 18.999c-20 20 -30 43.667 -30 71zM124.999 325.004v-99.999c0 -17.333 5.5 -31.833 16.5 -43.5s25.5 -18.834 43.5 -21.501l185 -30c13.333 0 25 6.5 35 19.5s15 31.5 15 55.5v100
c0 17.333 -5.5 31.833 -16.5 43.5s-25.5 18.834 -43.5 21.501l-180 30c-16 0 -29.167 -6.33301 -39.5 -19s-15.5 -31.334 -15.5 -56.001z" />
    <glyph glyph-name="dieresis" unicode="&#xa8;" horiz-adv-x="350" 
d="M40 700h70v-100h-70v100zM240 700h70v-100h-70v100z" />
    <glyph glyph-name="copyright" unicode="&#xa9;" horiz-adv-x="940" 
d="M860 570v-440c0 -46 -14.5 -82.5 -43.5 -109.5s-69.5 -40.5 -121.5 -40.5h-450c-52 0 -92.5 13.5 -121.5 40.5s-43.5 63.5 -43.5 109.5v440c0 46 14.5 82.5 43.5 109.5s69.5 40.5 121.5 40.5h450c52 0 92.5 -13.5 121.5 -40.5s43.5 -63.5 43.5 -109.5zM245 35h450
c28 0 50.833 8.83301 68.5 26.5s26.5 40.5 26.5 68.5v440c0 28 -8.83301 50.833 -26.5 68.5s-40.5 26.5 -68.5 26.5h-450c-28 0 -50.833 -8.83301 -68.5 -26.5s-26.5 -40.5 -26.5 -68.5v-440c0 -28 8.83301 -50.833 26.5 -68.5s40.5 -26.5 68.5 -26.5zM365 440v-180
c0 -20 5.83301 -35.833 17.5 -47.5s27.5 -17.5 47.5 -17.5h200v-55h-200c-42 0 -75 11 -99 33s-36 51 -36 87v180c0 36 12 65 36 87s57 33 99 33h200v-35l-20 -20h-180c-20 0 -35.833 -5.83301 -47.5 -17.5s-17.5 -27.5 -17.5 -47.5z" />
    <glyph glyph-name="ordfeminine" unicode="&#xaa;" horiz-adv-x="380" 
d="M340 600v-230h-50l-5 45h-5c-3.33301 -10 -9 -19.333 -17 -28c-14.667 -18 -34 -27 -58 -27h-50c-37.333 0 -65.833 9 -85.5 27s-29.5 42.333 -29.5 73s9.83301 55 29.5 73s48.167 27 85.5 27h120v40c0 15.333 -4.5 27.5 -13.5 36.5s-21.167 13.5 -36.5 13.5h-140v50h140
c37.333 0 65.833 -9 85.5 -27s29.5 -42.333 29.5 -73zM155 410h50c16.667 0 32.5 7.5 47.5 22.5s22.5 29.167 22.5 42.5v35h-120c-15.333 0 -27.5 -4.5 -36.5 -13.5s-13.5 -21.167 -13.5 -36.5s4.5 -27.5 13.5 -36.5s21.167 -13.5 36.5 -13.5z" />
    <glyph glyph-name="guillemotleft" unicode="&#xab;" horiz-adv-x="490" 
d="M65 260l105 205h65v-35l-90 -170l90 -170v-35h-65zM255 260l105 205h65v-35l-90 -170l90 -170v-35h-65z" />
    <glyph glyph-name="logicalnot" unicode="&#xac;" horiz-adv-x="500" 
d="M390 245v120h-350v55h420v-175h-70z" />
    <glyph glyph-name="uni00AD" unicode="&#xad;" horiz-adv-x="505" 
d="M465 350v-55h-425v55h425z" />
    <glyph glyph-name="registered" unicode="&#xae;" horiz-adv-x="940" 
d="M650 440v-19c0 -42 -16.667 -73 -50 -93c-15.333 -9.33301 -32 -15.333 -50 -18l110 -135v-35h-65l-110 160h-120v-160h-70v420h220c42 0 75 -11 99 -33s36 -51 36 -87zM580 421v18.999c0 20 -5.83301 35.833 -17.5 47.5s-27.5 17.5 -47.5 17.5h-150v-150h150
c20 0 35.833 5.83301 47.5 17.5s17.5 27.834 17.5 48.501zM860 569.999v-440c0 -46 -14.5 -82.5 -43.5 -109.5s-69.5 -40.5 -121.5 -40.5h-450c-52 0 -92.5 13.5 -121.5 40.5s-43.5 63.5 -43.5 109.5v440c0 46 14.5 82.5 43.5 109.5s69.5 40.5 121.5 40.5h450
c52 0 92.5 -13.5 121.5 -40.5s43.5 -63.5 43.5 -109.5zM245 34.999h450c28 0 50.833 8.83301 68.5 26.5s26.5 40.5 26.5 68.5v440c0 28 -8.83301 50.833 -26.5 68.5s-40.5 26.5 -68.5 26.5h-450c-28 0 -50.833 -8.83301 -68.5 -26.5s-26.5 -40.5 -26.5 -68.5v-440
c0 -28 8.83301 -50.833 26.5 -68.5s40.5 -26.5 68.5 -26.5z" />
    <glyph glyph-name="macron" unicode="&#xaf;" horiz-adv-x="400" 
d="M345 700v-55h-290v55h290z" />
    <glyph glyph-name="degree" unicode="&#xb0;" horiz-adv-x="395" 
d="M290 470v140c0 15.333 -4.5 27.5 -13.5 36.5s-21.167 13.5 -36.5 13.5h-85c-15.333 0 -27.5 -4.5 -36.5 -13.5s-13.5 -21.167 -13.5 -36.5v-140c0 -15.333 4.5 -27.5 13.5 -36.5s21.167 -13.5 36.5 -13.5h85c15.333 0 27.5 4.5 36.5 13.5s13.5 21.167 13.5 36.5zM355 610
v-140c0 -30.667 -9.83301 -55 -29.5 -73s-48.167 -27 -85.5 -27h-85c-37.333 0 -65.833 9 -85.5 27s-29.5 42.333 -29.5 73v140c0 30.667 9.83301 55 29.5 73s48.167 27 85.5 27h85c37.333 0 65.833 -9 85.5 -27s29.5 -42.333 29.5 -73z" />
    <glyph glyph-name="plusminus" unicode="&#xb1;" horiz-adv-x="550" 
d="M500 425v-55h-195v-210h190v-55h-440v55h190v210h-195v55h195v200h60v-200h195z" />
    <glyph glyph-name="twosuperior" unicode="&#xb2;" horiz-adv-x="350" 
d="M310 370h-269.999v45l160 120l22 21c15.333 16.667 23 31.334 23 44.001c0 15.333 -4.5 27.5 -13.5 36.5s-21.167 13.5 -36.5 13.5h-145v50h145c37.333 0 65.833 -9 85.5 -27s29.5 -42.333 29.5 -73c0 -21.333 -11.667 -45 -35 -71
c-10.667 -10.667 -22.334 -20.334 -35.001 -29.001l-110 -75v-5h180v-50z" />
    <glyph glyph-name="threesuperior" unicode="&#xb3;" horiz-adv-x="360" 
d="M255 470c0 30 -16.667 45 -50 45h-105v45l105 85v5h-165v50h255v-45l-116 -90h26c37.333 0 65.833 -8.16699 85.5 -24.5s29.5 -39.833 29.5 -70.5s-9.83301 -55 -29.5 -73s-48.167 -27 -85.5 -27h-165v50h165c15.333 0 27.5 4.5 36.5 13.5s13.5 21.167 13.5 36.5z" />
    <glyph glyph-name="acute" unicode="&#xb4;" horiz-adv-x="255" 
d="M130 700h85l-115 -160h-60z" />
    <glyph glyph-name="mu" unicode="&#xb5;" 
d="M150 -170h-70v700h70v-405c0 -22.667 7.66699 -41.667 23 -57s34.333 -23 57 -23h110c32 0 60.333 15.667 85 47c9.33301 12.667 17.666 28.667 24.999 48v390h70v-530h-45l-10 70h-5c-5.33301 -14 -14 -27.333 -26 -40c-25.333 -26.667 -56.666 -40 -93.999 -40h-110
c-22 0 -40.667 5.66699 -56 17c-8.66699 6 -15 12 -19 18h-5v-195z" />
    <glyph glyph-name="paragraph" unicode="&#xb6;" 
d="M580 645l-105 -0.00195312v-815h-70v815h-115v-815h-70v495h-30c-47.333 0 -84.166 12.333 -110.499 37s-39.5 57.334 -39.5 98.001v105c0 40.667 13.167 73.334 39.5 98.001s63.166 37 110.499 37h390v-55z" />
    <glyph glyph-name="periodcentered" unicode="&#xb7;" horiz-adv-x="290" 
d="M110 400h70v-105h-70v105z" />
    <glyph glyph-name="cedilla" unicode="&#xb8;" horiz-adv-x="280" 
d="M70 -85v85h50v-40h35c25.333 0 45.833 -7.66699 61.5 -23s23.5 -34.333 23.5 -57v-20c0 -22.667 -7.83301 -41.667 -23.5 -57s-36.167 -23 -61.5 -23h-115v45h105c10 0 18.333 3.33301 25 10s10 15 10 25v20c0 10 -3.33301 18.333 -10 25s-15 10 -25 10h-75z" />
    <glyph glyph-name="onesuperior" unicode="&#xb9;" horiz-adv-x="220" 
d="M40 645v40l85 15h55v-330h-65v275h-75z" />
    <glyph glyph-name="ordmasculine" unicode="&#xba;" horiz-adv-x="385" 
d="M280 470v140c0 15.333 -4.5 27.5 -13.5 36.5s-21.167 13.5 -36.5 13.5h-75c-15.333 0 -27.5 -4.5 -36.5 -13.5s-13.5 -21.167 -13.5 -36.5v-140c0 -15.333 4.5 -27.5 13.5 -36.5s21.167 -13.5 36.5 -13.5h75c15.333 0 27.5 4.5 36.5 13.5s13.5 21.167 13.5 36.5zM345 610
v-140c0 -30.667 -9.83301 -55 -29.5 -73s-48.167 -27 -85.5 -27h-75c-37.333 0 -65.833 9 -85.5 27s-29.5 42.333 -29.5 73v140c0 30.667 9.83301 55 29.5 73s48.167 27 85.5 27h75c37.333 0 65.833 -9 85.5 -27s29.5 -42.333 29.5 -73z" />
    <glyph glyph-name="guillemotright" unicode="&#xbb;" horiz-adv-x="490" 
d="M320 465l105 -205l-105 -205h-65v35l90 170l-90 170v35h65zM130 465l105 -205l-105 -205h-65v35l90 170l-90 170v35h65z" />
    <glyph glyph-name="onequarter" unicode="&#xbc;" horiz-adv-x="745" 
d="M535 700h60v-30l-425 -670h-60v30zM585 330h65v-220h55v-50h-55v-60h-65v60h-195v45zM465 115v-5h120v135h-5zM40 645v40l85 15h55v-330h-65v275h-75z" />
    <glyph glyph-name="onehalf" unicode="&#xbd;" horiz-adv-x="775" 
d="M535 700h60v-30l-425 -670h-60v30zM40 645v40l85 15h55v-330h-65v275h-75zM735 0l-269.999 -0.000976562v45l160 120l22 21c15.333 16.667 23 31.334 23 44.001c0 15.333 -4.5 27.5 -13.5 36.5s-21.167 13.5 -36.5 13.5h-145v50h145c37.333 0 65.833 -9 85.5 -27
s29.5 -42.333 29.5 -73c0 -21.333 -11.667 -45 -35 -71c-10.667 -10 -22.334 -19.667 -35.001 -29l-110 -75v-5h180v-50z" />
    <glyph glyph-name="threequarters" unicode="&#xbe;" horiz-adv-x="795" 
d="M595 700h60v-30l-425 -670h-60v30zM635 330h65v-220h55v-50h-55v-60h-65v60h-195v45zM515 115v-5h120v135h-5zM255 470c0 30 -16.667 45 -50 45h-105v45l105 85v5h-165v50h255v-45l-116 -90h26c37.333 0 65.833 -8.16699 85.5 -24.5s29.5 -39.833 29.5 -70.5
s-9.83301 -55 -29.5 -73s-48.167 -27 -85.5 -27h-165v50h165c15.333 0 27.5 4.5 36.5 13.5s13.5 21.167 13.5 36.5z" />
    <glyph glyph-name="questiondown" unicode="&#xbf;" horiz-adv-x="465" 
d="M335 425h-70v105h70v-105zM265 290v40h70v-40c0 -28 -6.33301 -50.667 -19 -68s-31.334 -33 -56.001 -47l-100 -55c-30 -18 -45 -41.333 -45 -70v-70c0 -28 8.83301 -50.833 26.5 -68.5s40.5 -26.5 68.5 -26.5h255l20 -20v-35h-275c-52 0 -92.5 13.5 -121.5 40.5
s-43.5 63.5 -43.5 109.5v70c0 28 6.33301 50.667 19 68s31.334 33 56.001 47l100 55c30 18 45 41.333 45 70z" />
    <glyph glyph-name="Agrave" unicode="&#xc0;" horiz-adv-x="625" 
d="M155 185l-65 -185h-65v35l240 665h95l240 -665v-35h-65l-65 185h-315zM455 240l-140 390h-5l-140 -390h285zM165 940h85l90 -160h-60z" />
    <glyph glyph-name="Aacute" unicode="&#xc1;" horiz-adv-x="625" 
d="M155 185l-65 -185h-65v35l240 665h95l240 -665v-35h-65l-65 185h-315zM455 240l-140 390h-5l-140 -390h285zM365 940h85l-115 -160h-60z" />
    <glyph glyph-name="Acircumflex" unicode="&#xc2;" horiz-adv-x="625" 
d="M155 185l-65 -185h-65v35l240 665h95l240 -665v-35h-65l-65 185h-315zM455 240l-140 390h-5l-140 -390h285zM212 740h-65l135 150h60l135 -150h-65l-100 105z" />
    <glyph glyph-name="Atilde" unicode="&#xc3;" horiz-adv-x="625" 
d="M155 185l-65 -185h-65v35l240 665h95l240 -665v-35h-65l-65 185h-315zM455 240l-140 390h-5l-140 -390h285zM395 895h60v-75c0 -17.333 -5.66699 -31.666 -17 -42.999s-25.666 -17 -42.999 -17h-20c-12.667 0 -24 4 -34 12c-5.33301 2.66699 -10.666 7 -15.999 13l-45 40
c-4 2.66699 -7 5 -9 7c-9.33301 5.33301 -16.333 8 -21 8c-13.333 0 -20 -8.33301 -20 -25v-50h-60v75c0 17.333 5.66699 31.666 17 42.999s25.666 17 42.999 17h20c11.333 0 22.666 -4.33301 33.999 -13c6.66699 -4 12 -8 16 -12l45 -40l9 -8
c6.66699 -4.66699 13.667 -7 21 -7c13.333 0 20 8.33301 20 25v50z" />
    <glyph glyph-name="Adieresis" unicode="&#xc4;" horiz-adv-x="625" 
d="M155 185l-65 -185h-65v35l240 665h95l240 -665v-35h-65l-65 185h-315zM455 240l-140 390h-5l-140 -390h285zM177 870h70v-100h-70v100zM377 870h70v-100h-70v100z" />
    <glyph glyph-name="Aring" unicode="&#xc5;" horiz-adv-x="625" 
d="M155 185l-64.999 -185.001h-65v35l228 632c-32 12.667 -48 35.334 -48 68.001v45c0 20.667 8 38.334 24 53.001s36.333 22 61 22h45c24.667 0 45 -7.33301 61 -22s24 -32.334 24 -53.001v-45c0 -14.667 -4.33301 -28.167 -13 -40.5s-20.334 -21.5 -35.001 -27.5l228 -632
v-35h-65l-65 185h-315zM455.001 239.999l-140 390h-5l-140 -390h285zM330.001 814.999h-35c-10.667 0 -19.167 -3.33301 -25.5 -10s-9.5 -15 -9.5 -25v-45c0 -10 3.16699 -18.333 9.5 -25s14.833 -10 25.5 -10h35c10.667 0 19.167 3.33301 25.5 10s9.5 15 9.5 25v45
c0 10 -3.16699 18.333 -9.5 25s-14.833 10 -25.5 10z" />
    <glyph glyph-name="AE" unicode="&#xc6;" horiz-adv-x="945" 
d="M180 225l-105 -225h-65v35l324 665h576v-35l-20 -20h-350v-260h285v-55h-285v-275h370v-55h-440v225h-290zM383 645l-173 -365h260v365h-87z" />
    <glyph glyph-name="Ccedilla" unicode="&#xc7;" horiz-adv-x="570" 
d="M80 150v400c0 46 14.5 82.5 43.5 109.5s69.5 40.5 121.5 40.5h290v-35l-20 -20h-270c-28 0 -50.833 -8.83301 -68.5 -26.5s-26.5 -40.5 -26.5 -68.5v-400c0 -28 8.83301 -50.833 26.5 -68.5s40.5 -26.5 68.5 -26.5h290v-55h-220v-40h35
c25.333 0 45.833 -7.66699 61.5 -23s23.5 -34.333 23.5 -57v-20c0 -22.667 -7.83301 -41.667 -23.5 -57s-36.167 -23 -61.5 -23h-115v45h105c10 0 18.333 3.33301 25 10s10 15 10 25v20c0 10 -3.33301 18.333 -10 25s-15 10 -25 10h-75v85h-20c-52 0 -92.5 13.5 -121.5 40.5
s-43.5 63.5 -43.5 109.5z" />
    <glyph glyph-name="Egrave" unicode="&#xc8;" horiz-adv-x="580" 
d="M95 0v700h450v-35l-20 -20h-360v-260h295v-55h-295v-275h380v-55h-450zM182 940h85l90 -160h-60z" />
    <glyph glyph-name="Eacute" unicode="&#xc9;" horiz-adv-x="580" 
d="M95 0v700h450v-35l-20 -20h-360v-260h295v-55h-295v-275h380v-55h-450zM362 940h85l-115 -160h-60z" />
    <glyph glyph-name="Ecircumflex" unicode="&#xca;" horiz-adv-x="580" 
d="M95 0v700h450v-35l-20 -20h-360v-260h295v-55h-295v-275h380v-55h-450zM220 770h-65l135 150h60l135 -150h-65l-100 105z" />
    <glyph glyph-name="Edieresis" unicode="&#xcb;" horiz-adv-x="580" 
d="M95 0v700h450v-35l-20 -20h-360v-260h295v-55h-295v-275h380v-55h-450zM185 880h70v-100h-70v100zM385 880h70v-100h-70v100z" />
    <glyph glyph-name="Igrave" unicode="&#xcc;" horiz-adv-x="260" 
d="M95 700h70v-700h-70v700zM-7 940h85l90 -160h-60z" />
    <glyph glyph-name="Iacute" unicode="&#xcd;" horiz-adv-x="260" 
d="M95 700h70v-700h-70v700zM182 940h85l-115 -160h-60z" />
    <glyph glyph-name="Icircumflex" unicode="&#xce;" horiz-adv-x="260" 
d="M95 700h70v-700h-70v700zM31 770h-65l135 150h60l135 -150h-65l-100 105z" />
    <glyph glyph-name="Idieresis" unicode="&#xcf;" horiz-adv-x="260" 
d="M95 700h70v-700h-70v700zM-4 860h70v-100h-70v100zM196 860h70v-100h-70v100z" />
    <glyph glyph-name="Eth" unicode="&#xd0;" horiz-adv-x="665" 
d="M95 0v335h-75v55h75v310h325c52 0 92.5 -13.5 121.5 -40.5s43.5 -63.5 43.5 -109.5v-400c0 -46 -14.5 -82.5 -43.5 -109.5s-69.5 -40.5 -121.5 -40.5h-325zM320 390v-55h-155v-280h255c28 0 50.833 8.83301 68.5 26.5s26.5 40.5 26.5 68.5v400
c0 28 -8.83301 50.833 -26.5 68.5s-40.5 26.5 -68.5 26.5h-255v-255h155z" />
    <glyph glyph-name="Ntilde" unicode="&#xd1;" horiz-adv-x="680" 
d="M585 0h-85l-340 605h-5l10 -145v-460h-70v700h85l340 -605h5l-10 145v460h70v-700zM422 905l60.001 0.000976562v-75c0 -17.333 -5.66699 -31.666 -17 -42.999s-25.666 -17 -42.999 -17h-20c-12.667 0 -24 4 -34 12c-4.66699 3.33301 -10 7.66602 -16 12.999l-45 40
c-4 2.66699 -7 5 -9 7c-9.33301 5.33301 -16.333 8 -21 8c-13.333 0 -20 -8.33301 -20 -25v-50h-60v75c0 17.333 5.66699 31.666 17 42.999s25.666 17 42.999 17h20c11.333 0 22.666 -4.33301 33.999 -13c6.66699 -4 12 -8 16 -12l45 -40l9 -8
c6.66699 -4.66699 13.667 -7 21 -7c13.333 0 20 8.33301 20 25v50z" />
    <glyph glyph-name="Ograve" unicode="&#xd2;" horiz-adv-x="670" 
d="M425 -10h-180c-52 0 -92.5 13.5 -121.5 40.5s-43.5 63.5 -43.5 109.5v420c0 46 14.5 82.5 43.5 109.5s69.5 40.5 121.5 40.5h180c52 0 92.5 -13.5 121.5 -40.5s43.5 -63.5 43.5 -109.5v-420c0 -46 -14.5 -82.5 -43.5 -109.5s-69.5 -40.5 -121.5 -40.5zM245 45h180
c28 0 50.833 8.83301 68.5 26.5s26.5 40.5 26.5 68.5v420c0 28 -8.83301 50.833 -26.5 68.5s-40.5 26.5 -68.5 26.5h-180c-28 0 -50.833 -8.83301 -68.5 -26.5s-26.5 -40.5 -26.5 -68.5v-420c0 -28 8.83301 -50.833 26.5 -68.5s40.5 -26.5 68.5 -26.5zM207 940h85l90 -160
h-60z" />
    <glyph glyph-name="Oacute" unicode="&#xd3;" horiz-adv-x="670" 
d="M425 -10h-180c-52 0 -92.5 13.5 -121.5 40.5s-43.5 63.5 -43.5 109.5v420c0 46 14.5 82.5 43.5 109.5s69.5 40.5 121.5 40.5h180c52 0 92.5 -13.5 121.5 -40.5s43.5 -63.5 43.5 -109.5v-420c0 -46 -14.5 -82.5 -43.5 -109.5s-69.5 -40.5 -121.5 -40.5zM245 45h180
c28 0 50.833 8.83301 68.5 26.5s26.5 40.5 26.5 68.5v420c0 28 -8.83301 50.833 -26.5 68.5s-40.5 26.5 -68.5 26.5h-180c-28 0 -50.833 -8.83301 -68.5 -26.5s-26.5 -40.5 -26.5 -68.5v-420c0 -28 8.83301 -50.833 26.5 -68.5s40.5 -26.5 68.5 -26.5zM387 940h85l-115 -160
h-60z" />
    <glyph glyph-name="Ocircumflex" unicode="&#xd4;" horiz-adv-x="670" 
d="M425 -10h-180c-52 0 -92.5 13.5 -121.5 40.5s-43.5 63.5 -43.5 109.5v420c0 46 14.5 82.5 43.5 109.5s69.5 40.5 121.5 40.5h180c52 0 92.5 -13.5 121.5 -40.5s43.5 -63.5 43.5 -109.5v-420c0 -46 -14.5 -82.5 -43.5 -109.5s-69.5 -40.5 -121.5 -40.5zM245 45h180
c28 0 50.833 8.83301 68.5 26.5s26.5 40.5 26.5 68.5v420c0 28 -8.83301 50.833 -26.5 68.5s-40.5 26.5 -68.5 26.5h-180c-28 0 -50.833 -8.83301 -68.5 -26.5s-26.5 -40.5 -26.5 -68.5v-420c0 -28 8.83301 -50.833 26.5 -68.5s40.5 -26.5 68.5 -26.5zM235 780h-65l135 150
h60l135 -150h-65l-100 105z" />
    <glyph glyph-name="Otilde" unicode="&#xd5;" horiz-adv-x="670" 
d="M425 -10h-180c-52 0 -92.5 13.5 -121.5 40.5s-43.5 63.5 -43.5 109.5v420c0 46 14.5 82.5 43.5 109.5s69.5 40.5 121.5 40.5h180c52 0 92.5 -13.5 121.5 -40.5s43.5 -63.5 43.5 -109.5v-420c0 -46 -14.5 -82.5 -43.5 -109.5s-69.5 -40.5 -121.5 -40.5zM245 45h180
c28 0 50.833 8.83301 68.5 26.5s26.5 40.5 26.5 68.5v420c0 28 -8.83301 50.833 -26.5 68.5s-40.5 26.5 -68.5 26.5h-180c-28 0 -50.833 -8.83301 -68.5 -26.5s-26.5 -40.5 -26.5 -68.5v-420c0 -28 8.83301 -50.833 26.5 -68.5s40.5 -26.5 68.5 -26.5zM417 915h60.001v-75
c0 -17.333 -5.66699 -31.666 -17 -42.999s-25.666 -17 -42.999 -17h-20c-12.667 0 -24 4 -34 12c-4.66699 2.66699 -10 7 -16 13l-45 40c-4 2.66699 -7 5 -9 7c-9.33301 5.33301 -16.333 8 -21 8c-13.333 0 -20 -8.33301 -20 -25v-50h-60v75
c0 17.333 5.66699 31.666 17 42.999s25.666 17 42.999 17h20c11.333 0 22.666 -4.33301 33.999 -13c6.66699 -4 12 -8 16 -12l45 -40l9 -8c6.66699 -4.66699 13.667 -7 21 -7c13.333 0 20 8.33301 20 25v50z" />
    <glyph glyph-name="Odieresis" unicode="&#xd6;" horiz-adv-x="670" 
d="M425 -10h-180c-52 0 -92.5 13.5 -121.5 40.5s-43.5 63.5 -43.5 109.5v420c0 46 14.5 82.5 43.5 109.5s69.5 40.5 121.5 40.5h180c52 0 92.5 -13.5 121.5 -40.5s43.5 -63.5 43.5 -109.5v-420c0 -46 -14.5 -82.5 -43.5 -109.5s-69.5 -40.5 -121.5 -40.5zM245 45h180
c28 0 50.833 8.83301 68.5 26.5s26.5 40.5 26.5 68.5v420c0 28 -8.83301 50.833 -26.5 68.5s-40.5 26.5 -68.5 26.5h-180c-28 0 -50.833 -8.83301 -68.5 -26.5s-26.5 -40.5 -26.5 -68.5v-420c0 -28 8.83301 -50.833 26.5 -68.5s40.5 -26.5 68.5 -26.5zM200 880h70v-100h-70
v100zM400 880h70v-100h-70v100z" />
    <glyph glyph-name="multiply" unicode="&#xd7;" horiz-adv-x="480" 
d="M240 360l150 150l40 -40l-150 -150l150 -150l-40 -40l-150 150l-150 -150l-40 40l150 150l-150 150l40 40z" />
    <glyph glyph-name="Oslash" unicode="&#xd8;" horiz-adv-x="670" 
d="M185 -50l-60.001 0.000976562v30l17 36c-41.333 27.333 -62 68.666 -62 123.999v420c0 46 14.5 82.5 43.5 109.5s69.5 40.5 121.5 40.5h180c15.333 0 28.333 -1.33301 39 -4l21 44h60v-30l-17 -37c41.333 -27.333 62 -68.333 62 -123v-420
c0 -46 -14.5 -82.5 -43.5 -109.5s-69.5 -40.5 -121.5 -40.5h-180c-15.333 0 -28.666 1.33301 -39.999 4zM149.999 560.001l-0.000976562 -420c0 -24 7 -44.667 21 -62l269 576c-1.33301 0 -3.66602 0.166992 -6.99902 0.5s-6 0.5 -8 0.5h-180
c-28 0 -50.833 -8.83301 -68.5 -26.5s-26.5 -40.5 -26.5 -68.5zM244.998 45.001h180c28 0 50.833 8.83301 68.5 26.5s26.5 40.5 26.5 68.5v420c0 24 -7 44.333 -21 61l-269 -575c2 -0.666992 7 -1 15 -1z" />
    <glyph glyph-name="Ugrave" unicode="&#xd9;" horiz-adv-x="690" 
d="M260 45h170c28 0 50.833 8.83301 68.5 26.5s26.5 40.5 26.5 68.5v560h70v-560c0 -46 -14.5 -82.5 -43.5 -109.5s-69.5 -40.5 -121.5 -40.5h-170c-52 0 -92.5 13.5 -121.5 40.5s-43.5 63.5 -43.5 109.5v560h70v-560c0 -28 8.83301 -50.833 26.5 -68.5
s40.5 -26.5 68.5 -26.5zM227 900h85l90 -160h-60z" />
    <glyph glyph-name="Uacute" unicode="&#xda;" horiz-adv-x="690" 
d="M260 45h170c28 0 50.833 8.83301 68.5 26.5s26.5 40.5 26.5 68.5v560h70v-560c0 -46 -14.5 -82.5 -43.5 -109.5s-69.5 -40.5 -121.5 -40.5h-170c-52 0 -92.5 13.5 -121.5 40.5s-43.5 63.5 -43.5 109.5v560h70v-560c0 -28 8.83301 -50.833 26.5 -68.5
s40.5 -26.5 68.5 -26.5zM387 900h85l-115 -160h-60z" />
    <glyph glyph-name="Ucircumflex" unicode="&#xdb;" horiz-adv-x="690" 
d="M260 45h170c28 0 50.833 8.83301 68.5 26.5s26.5 40.5 26.5 68.5v560h70v-560c0 -46 -14.5 -82.5 -43.5 -109.5s-69.5 -40.5 -121.5 -40.5h-170c-52 0 -92.5 13.5 -121.5 40.5s-43.5 63.5 -43.5 109.5v560h70v-560c0 -28 8.83301 -50.833 26.5 -68.5
s40.5 -26.5 68.5 -26.5zM245 760h-65l135 150h60l135 -150h-65l-100 105z" />
    <glyph glyph-name="Udieresis" unicode="&#xdc;" horiz-adv-x="690" 
d="M260 45h170c28 0 50.833 8.83301 68.5 26.5s26.5 40.5 26.5 68.5v560h70v-560c0 -46 -14.5 -82.5 -43.5 -109.5s-69.5 -40.5 -121.5 -40.5h-170c-52 0 -92.5 13.5 -121.5 40.5s-43.5 63.5 -43.5 109.5v560h70v-560c0 -28 8.83301 -50.833 26.5 -68.5
s40.5 -26.5 68.5 -26.5zM210 860h70v-100h-70v100zM410 860h70v-100h-70v100z" />
    <glyph glyph-name="Yacute" unicode="&#xdd;" horiz-adv-x="580" 
d="M85 700l202 -395h6l202 395h65v-35l-235 -445v-220h-70v220l-235 445v35h65zM332 900h85l-115 -160h-60z" />
    <glyph glyph-name="Thorn" unicode="&#xde;" horiz-adv-x="630" 
d="M95 700h70v-115h240c52 0 92.5 -13.5 121.5 -40.5s43.5 -63.5 43.5 -109.5v-180c0 -46 -14.5 -82.5 -43.5 -109.5s-69.5 -40.5 -121.5 -40.5h-240v-105h-70v700zM405 530h-240v-370h240c28 0 50.833 8.83301 68.5 26.5s26.5 40.5 26.5 68.5v180
c0 28 -8.83301 50.833 -26.5 68.5s-40.5 26.5 -68.5 26.5z" />
    <glyph glyph-name="germandbls" unicode="&#xdf;" horiz-adv-x="615" 
d="M475 565c0 -18 -5.66699 -35.4971 -17 -52.4971s-24 -31.167 -38 -42.5s-26.667 -24.333 -38 -39s-17 -28.334 -17 -41.001v-20c0 -16.667 7 -31 21 -43s31.167 -22.167 51.5 -30.5s40.5 -17.5 60.5 -27.5s37 -24.167 51 -42.5s21 -40.5 21 -66.5v-25
c0 -40.667 -13.167 -73.334 -39.5 -98.001s-63.166 -37 -110.499 -37h-140v55h140c22.667 0 41.667 7.66699 57 23s23 34.333 23 57v25c0 17.333 -7 32.333 -21 45s-31 23.334 -51 32.001s-40.167 18 -60.5 28s-37.5 23.833 -51.5 41.5s-21 38.834 -21 63.501v20
c0 18 5.66699 35.5 17 52.5s24 31.167 38 42.5s26.667 24.166 38 38.499s17 28.166 17 41.499c0 22.667 -7.66699 41.667 -23 57s-34.333 23 -57 23h-80c-28 0 -50.833 -8.83301 -68.5 -26.5s-26.5 -40.5 -26.5 -68.5v-550h-70v550c0 46 14.5 82.5 43.5 109.5
s69.5 40.5 121.5 40.5h80c47.333 0 84.166 -12.333 110.499 -37s39.5 -57.334 39.5 -98.001z" />
    <glyph glyph-name="agrave" unicode="&#xe0;" horiz-adv-x="570" 
d="M105 475v54.999h235c47.333 0 84.166 -12.333 110.499 -37s39.5 -57.334 39.5 -98.001v-395h-45l-10 70h-5c-5.33301 -14 -14 -27.333 -26 -40c-25.333 -26.667 -56.666 -40 -93.999 -40h-105c-47.333 0 -84.166 12.333 -110.499 37s-39.5 57.334 -39.5 98.001v40
c0 40.667 13.167 73.334 39.5 98.001s63.166 37 110.499 37h215v95c0 22.667 -7.66699 41.667 -23 57s-34.333 23 -57 23h-235zM420 244.999h-214.999c-22.667 0 -41.667 -7.66699 -57 -23s-23 -34.333 -23 -57v-40c0 -22.667 7.66699 -41.667 23 -57s34.333 -23 57 -23h105
c32 0 60.333 15.667 85 47c9.33301 12.667 17.666 28.667 24.999 48v105zM167.001 759.999h85l90 -160h-60z" />
    <glyph glyph-name="aacute" unicode="&#xe1;" horiz-adv-x="570" 
d="M105 475v54.999h235c47.333 0 84.166 -12.333 110.499 -37s39.5 -57.334 39.5 -98.001v-395h-45l-10 70h-5c-5.33301 -14 -14 -27.333 -26 -40c-25.333 -26.667 -56.666 -40 -93.999 -40h-105c-47.333 0 -84.166 12.333 -110.499 37s-39.5 57.334 -39.5 98.001v40
c0 40.667 13.167 73.334 39.5 98.001s63.166 37 110.499 37h215v95c0 22.667 -7.66699 41.667 -23 57s-34.333 23 -57 23h-235zM420 244.999h-214.999c-22.667 0 -41.667 -7.66699 -57 -23s-23 -34.333 -23 -57v-40c0 -22.667 7.66699 -41.667 23 -57s34.333 -23 57 -23h105
c32 0 60.333 15.667 85 47c9.33301 12.667 17.666 28.667 24.999 48v105zM327.001 759.999h85l-115 -160h-60z" />
    <glyph glyph-name="acircumflex" unicode="&#xe2;" horiz-adv-x="570" 
d="M105 475v54.999h235c47.333 0 84.166 -12.333 110.499 -37s39.5 -57.334 39.5 -98.001v-395h-45l-10 70h-5c-5.33301 -14 -14 -27.333 -26 -40c-25.333 -26.667 -56.666 -40 -93.999 -40h-105c-47.333 0 -84.166 12.333 -110.499 37s-39.5 57.334 -39.5 98.001v40
c0 40.667 13.167 73.334 39.5 98.001s63.166 37 110.499 37h215v95c0 22.667 -7.66699 41.667 -23 57s-34.333 23 -57 23h-235zM420 244.999h-214.999c-22.667 0 -41.667 -7.66699 -57 -23s-23 -34.333 -23 -57v-40c0 -22.667 7.66699 -41.667 23 -57s34.333 -23 57 -23h105
c32 0 60.333 15.667 85 47c9.33301 12.667 17.666 28.667 24.999 48v105zM185.001 599.999h-65l135 150h60l135 -150h-65l-100 105z" />
    <glyph glyph-name="atilde" unicode="&#xe3;" horiz-adv-x="570" 
d="M105 475v54.999h235c47.333 0 84.166 -12.333 110.499 -37s39.5 -57.334 39.5 -98.001v-395h-45l-10 70h-5c-5.33301 -14 -14 -27.333 -26 -40c-25.333 -26.667 -56.666 -40 -93.999 -40h-105c-47.333 0 -84.166 12.333 -110.499 37s-39.5 57.334 -39.5 98.001v40
c0 40.667 13.167 73.334 39.5 98.001s63.166 37 110.499 37h215v95c0 22.667 -7.66699 41.667 -23 57s-34.333 23 -57 23h-235zM420 244.999h-214.999c-22.667 0 -41.667 -7.66699 -57 -23s-23 -34.333 -23 -57v-40c0 -22.667 7.66699 -41.667 23 -57s34.333 -23 57 -23h105
c32 0 60.333 15.667 85 47c9.33301 12.667 17.666 28.667 24.999 48v105zM367.001 734.999h60.001v-75c0 -17.333 -5.66699 -31.666 -17 -42.999s-25.666 -17 -42.999 -17h-20c-12.667 0 -24 4 -34 12c-4.66699 2.66699 -10 7 -16 13l-45 40c-4 2.66699 -7 5 -9 7
c-9.33301 5.33301 -16.333 8 -21 8c-13.333 0 -20 -8.33301 -20 -25v-50h-60v75c0 17.333 5.66699 31.666 17 42.999s25.666 17 42.999 17h20c11.333 0 22.666 -4.33301 33.999 -13c6.66699 -4 12 -8 16 -12l45 -40l9 -8c6.66699 -4.66699 13.667 -7 21 -7
c13.333 0 20 8.33301 20 25v50z" />
    <glyph glyph-name="adieresis" unicode="&#xe4;" horiz-adv-x="570" 
d="M105 475v54.999h235c47.333 0 84.166 -12.333 110.499 -37s39.5 -57.334 39.5 -98.001v-395h-45l-10 70h-5c-5.33301 -14 -14 -27.333 -26 -40c-25.333 -26.667 -56.666 -40 -93.999 -40h-105c-47.333 0 -84.166 12.333 -110.499 37s-39.5 57.334 -39.5 98.001v40
c0 40.667 13.167 73.334 39.5 98.001s63.166 37 110.499 37h215v95c0 22.667 -7.66699 41.667 -23 57s-34.333 23 -57 23h-235zM420 244.999h-214.999c-22.667 0 -41.667 -7.66699 -57 -23s-23 -34.333 -23 -57v-40c0 -22.667 7.66699 -41.667 23 -57s34.333 -23 57 -23h105
c32 0 60.333 15.667 85 47c9.33301 12.667 17.666 28.667 24.999 48v105zM150.001 699.999h70v-100h-70v100zM350.001 699.999h70v-100h-70v100z" />
    <glyph glyph-name="aring" unicode="&#xe5;" horiz-adv-x="570" 
d="M105 475v54.999h235c47.333 0 84.166 -12.333 110.499 -37s39.5 -57.334 39.5 -98.001v-395h-45l-10 70h-5c-5.33301 -14 -14 -27.333 -26 -40c-25.333 -26.667 -56.666 -40 -93.999 -40h-105c-47.333 0 -84.166 12.333 -110.499 37s-39.5 57.334 -39.5 98.001v40
c0 40.667 13.167 73.334 39.5 98.001s63.166 37 110.499 37h215v95c0 22.667 -7.66699 41.667 -23 57s-34.333 23 -57 23h-235zM420 244.999h-214.999c-22.667 0 -41.667 -7.66699 -57 -23s-23 -34.333 -23 -57v-40c0 -22.667 7.66699 -41.667 23 -57s34.333 -23 57 -23h105
c32 0 60.333 15.667 85 47c9.33301 12.667 17.666 28.667 24.999 48v105zM307.001 594.999h-45c-24.667 0 -45 7.33301 -61 22s-24 32.334 -24 53.001v45c0 20.667 8 38.334 24 53.001s36.333 22 61 22h45c24.667 0 45 -7.33301 61 -22s24 -32.334 24 -53.001v-45
c0 -20.667 -8 -38.334 -24 -53.001s-36.333 -22 -61 -22zM302.001 749.999h-35c-10.667 0 -19.167 -3.33301 -25.5 -10s-9.5 -15 -9.5 -25v-45c0 -10 3.16699 -18.333 9.5 -25s14.833 -10 25.5 -10h35c10.667 0 19.167 3.33301 25.5 10s9.5 15 9.5 25v45
c0 10 -3.16699 18.333 -9.5 25s-14.833 10 -25.5 10z" />
    <glyph glyph-name="ae" unicode="&#xe6;" horiz-adv-x="915" 
d="M845 235l-354.997 -0.000976562v-100c0 -22.667 7.66699 -41.667 23 -57s34.333 -23 57 -23h255v-55h-255c-37.333 0 -69.333 13.333 -96 40c-12.667 12.667 -22.334 26 -29.001 40c-8 -17.333 -18 -32.333 -30 -45c-27.333 -30 -62.333 -45 -105 -45h-105
c-47.333 0 -84.166 12.333 -110.499 37s-39.5 57.334 -39.5 98.001v40c0 40.667 13.167 73.334 39.5 98.001s63.166 37 110.499 37h215v105c0 18 -8 34.167 -24 48.5s-34.667 21.5 -56 21.5h-235v55h235c30 0 57.667 -10 83 -30c11.333 -9.33301 20.333 -19.333 27 -30
c5.33301 10 14.666 21.667 27.999 35c26 23.333 56.667 35 92 35h125c47.333 0 84.166 -12.333 110.499 -37s39.5 -57.334 39.5 -98.001v-170zM420.003 244.999h-214.999c-22.667 0 -41.667 -7.66699 -57 -23s-23 -34.333 -23 -57v-40c0 -22.667 7.66699 -41.667 23 -57
s34.333 -23 57 -23h105c32 0 60.333 15.667 85 47c9.33301 12.667 17.666 28.667 24.999 48v105zM490.004 404.999v-115h285v115c0 22.667 -7.66699 41.667 -23 57s-34.333 23 -57 23h-125c-22.667 0 -41.667 -7.66699 -57 -23s-23 -34.333 -23 -57z" />
    <glyph glyph-name="ccedilla" unicode="&#xe7;" horiz-adv-x="505" 
d="M470 0l-188 -0.00195312v-40h35c25.333 0 45.833 -7.66699 61.5 -23s23.5 -34.333 23.5 -57v-20c0 -22.667 -7.83301 -41.667 -23.5 -57s-36.167 -23 -61.5 -23h-115v45h105c10 0 18.333 3.33301 25 10s10 15 10 25v20c0 10 -3.33301 18.333 -10 25s-15 10 -25 10h-75v85
h-12c-47.333 0 -84.166 12.333 -110.499 37s-39.5 57.334 -39.5 98.001v260c0 40.667 13.167 73.334 39.5 98.001s63.166 37 110.499 37h250v-35l-20 -20h-230c-22.667 0 -41.667 -7.66699 -57 -23s-23 -34.333 -23 -57v-260c0 -22.667 7.66699 -41.667 23 -57
s34.333 -23 57 -23h250v-55z" />
    <glyph glyph-name="egrave" unicode="&#xe8;" horiz-adv-x="565" 
d="M495 235l-354.999 -0.000976562v-100c0 -22.667 7.66699 -41.667 23 -57s34.333 -23 57 -23h255v-55h-255c-47.333 0 -84.166 12.333 -110.499 37s-39.5 57.334 -39.5 98.001v270c0 40.667 13.167 73.334 39.5 98.001s63.166 37 110.499 37h125
c47.333 0 84.166 -12.333 110.499 -37s39.5 -57.334 39.5 -98.001v-170zM140.001 404.999v-115h285v115c0 22.667 -7.66699 41.667 -23 57s-34.333 23 -57 23h-125c-22.667 0 -41.667 -7.66699 -57 -23s-23 -34.333 -23 -57zM155.001 759.999h85l90 -160h-60z" />
    <glyph glyph-name="eacute" unicode="&#xe9;" horiz-adv-x="565" 
d="M495 235l-354.999 -0.000976562v-100c0 -22.667 7.66699 -41.667 23 -57s34.333 -23 57 -23h255v-55h-255c-47.333 0 -84.166 12.333 -110.499 37s-39.5 57.334 -39.5 98.001v270c0 40.667 13.167 73.334 39.5 98.001s63.166 37 110.499 37h125
c47.333 0 84.166 -12.333 110.499 -37s39.5 -57.334 39.5 -98.001v-170zM140.001 404.999v-115h285v115c0 22.667 -7.66699 41.667 -23 57s-34.333 23 -57 23h-125c-22.667 0 -41.667 -7.66699 -57 -23s-23 -34.333 -23 -57zM325.001 759.999h85l-115 -160h-60z" />
    <glyph glyph-name="ecircumflex" unicode="&#xea;" horiz-adv-x="565" 
d="M495 235l-354.999 -0.000976562v-100c0 -22.667 7.66699 -41.667 23 -57s34.333 -23 57 -23h255v-55h-255c-47.333 0 -84.166 12.333 -110.499 37s-39.5 57.334 -39.5 98.001v270c0 40.667 13.167 73.334 39.5 98.001s63.166 37 110.499 37h125
c47.333 0 84.166 -12.333 110.499 -37s39.5 -57.334 39.5 -98.001v-170zM140.001 404.999v-115h285v115c0 22.667 -7.66699 41.667 -23 57s-34.333 23 -57 23h-125c-22.667 0 -41.667 -7.66699 -57 -23s-23 -34.333 -23 -57zM182.001 599.999h-65l135 150h60l135 -150h-65
l-100 105z" />
    <glyph glyph-name="edieresis" unicode="&#xeb;" horiz-adv-x="565" 
d="M495 235l-354.999 -0.000976562v-100c0 -22.667 7.66699 -41.667 23 -57s34.333 -23 57 -23h255v-55h-255c-47.333 0 -84.166 12.333 -110.499 37s-39.5 57.334 -39.5 98.001v270c0 40.667 13.167 73.334 39.5 98.001s63.166 37 110.499 37h125
c47.333 0 84.166 -12.333 110.499 -37s39.5 -57.334 39.5 -98.001v-170zM140.001 404.999v-115h285v115c0 22.667 -7.66699 41.667 -23 57s-34.333 23 -57 23h-125c-22.667 0 -41.667 -7.66699 -57 -23s-23 -34.333 -23 -57zM147.001 709.999h70v-100h-70v100z
M347.001 709.999h70v-100h-70v100z" />
    <glyph glyph-name="igrave" unicode="&#xec;" horiz-adv-x="230" 
d="M80 530h70v-530h-70v530zM-21 760h85l90 -160h-60z" />
    <glyph glyph-name="iacute" unicode="&#xed;" horiz-adv-x="230" 
d="M80 530h70v-530h-70v530zM168 760h85l-115 -160h-60z" />
    <glyph glyph-name="icircumflex" unicode="&#xee;" horiz-adv-x="230" 
d="M80 530h70v-530h-70v530zM16 600h-65l135 150h60l135 -150h-65l-100 105z" />
    <glyph glyph-name="idieresis" unicode="&#xef;" horiz-adv-x="230" 
d="M80 530h70v-530h-70v530zM-19 700h70v-100h-70v100zM181 700h70v-100h-70v100z" />
    <glyph glyph-name="eth" unicode="&#xf0;" horiz-adv-x="590" 
d="M290 795l59.9971 -10.001l-17 -80l32 -5c46.667 -8 83.334 -27 110.001 -57s40 -69.333 40 -118v-400c0 -40.667 -13.167 -73.334 -39.5 -98.001s-63.166 -37 -110.499 -37h-145c-47.333 0 -84.166 12.333 -110.499 37s-39.5 57.334 -39.5 98.001v220
c0 40.667 13.167 73.334 39.5 98.001s63.166 37 110.499 37h225v45c0 36 -8.16699 64 -24.5 84s-38.166 32 -65.499 36l-34 5l-21 -100l-60 10l21 100l-121 20l10 55l123 -20zM444.997 124.999v300h-225c-22.667 0 -41.667 -7.66699 -57 -23s-23 -34.333 -23 -57v-220
c0 -22.667 7.66699 -41.667 23 -57s34.333 -23 57 -23h145c22.667 0 41.667 7.66699 57 23s23 34.333 23 57z" />
    <glyph glyph-name="ntilde" unicode="&#xf1;" 
d="M150 390l0.00195312 -389.998h-70v530h45l10 -70h5c5.33301 14 14 27.333 26 40c25.333 26.667 56.666 40 93.999 40h110c47.333 0 84.166 -12.333 110.499 -37s39.5 -57.334 39.5 -98.001v-405h-70v405c0 22.667 -7.66699 41.667 -23 57s-34.333 23 -57 23h-110
c-34 0 -62.333 -16 -85 -48c-10 -12.667 -18.333 -28.334 -25 -47.001zM382.002 745.002h60.001v-75c0 -17.333 -5.66699 -31.666 -17 -42.999s-25.666 -17 -42.999 -17h-20c-12.667 0 -24 4 -34 12c-4.66699 2.66699 -10 7 -16 13l-45 40c-4 2.66699 -7 5 -9 7
c-9.33301 5.33301 -16.333 8 -21 8c-13.333 0 -20 -8.33301 -20 -25v-50h-60v75c0 17.333 5.66699 31.666 17 42.999s25.666 17 42.999 17h20c11.333 0 22.666 -4.33301 33.999 -13c6.66699 -4 12 -8 16 -12l45 -40l9 -8c6.66699 -4.66699 13.667 -7 21 -7
c13.333 0 20 8.33301 20 25v50z" />
    <glyph glyph-name="ograve" unicode="&#xf2;" horiz-adv-x="590" 
d="M370 -10h-150c-47.333 0 -84.166 12.333 -110.499 37s-39.5 57.334 -39.5 98.001v280c0 40.667 13.167 73.334 39.5 98.001s63.166 37 110.499 37h150c47.333 0 84.166 -12.333 110.499 -37s39.5 -57.334 39.5 -98.001v-280c0 -40.667 -13.167 -73.334 -39.5 -98.001
s-63.166 -37 -110.499 -37zM140 405v-280c0 -22.667 7.66699 -41.667 23 -57s34.333 -23 57 -23h150c22.667 0 41.667 7.66699 57 23s23 34.333 23 57v280c0 22.667 -7.66699 41.667 -23 57s-34.333 23 -57 23h-150c-22.667 0 -41.667 -7.66699 -57 -23s-23 -34.333 -23 -57
zM167 760h85l90 -160h-60z" />
    <glyph glyph-name="oacute" unicode="&#xf3;" horiz-adv-x="590" 
d="M370 -10h-150c-47.333 0 -84.166 12.333 -110.499 37s-39.5 57.334 -39.5 98.001v280c0 40.667 13.167 73.334 39.5 98.001s63.166 37 110.499 37h150c47.333 0 84.166 -12.333 110.499 -37s39.5 -57.334 39.5 -98.001v-280c0 -40.667 -13.167 -73.334 -39.5 -98.001
s-63.166 -37 -110.499 -37zM140 405v-280c0 -22.667 7.66699 -41.667 23 -57s34.333 -23 57 -23h150c22.667 0 41.667 7.66699 57 23s23 34.333 23 57v280c0 22.667 -7.66699 41.667 -23 57s-34.333 23 -57 23h-150c-22.667 0 -41.667 -7.66699 -57 -23s-23 -34.333 -23 -57
zM347 760h85l-115 -160h-60z" />
    <glyph glyph-name="ocircumflex" unicode="&#xf4;" horiz-adv-x="590" 
d="M370 -10h-150c-47.333 0 -84.166 12.333 -110.499 37s-39.5 57.334 -39.5 98.001v280c0 40.667 13.167 73.334 39.5 98.001s63.166 37 110.499 37h150c47.333 0 84.166 -12.333 110.499 -37s39.5 -57.334 39.5 -98.001v-280c0 -40.667 -13.167 -73.334 -39.5 -98.001
s-63.166 -37 -110.499 -37zM140 405v-280c0 -22.667 7.66699 -41.667 23 -57s34.333 -23 57 -23h150c22.667 0 41.667 7.66699 57 23s23 34.333 23 57v280c0 22.667 -7.66699 41.667 -23 57s-34.333 23 -57 23h-150c-22.667 0 -41.667 -7.66699 -57 -23s-23 -34.333 -23 -57
zM195 600h-65l135 150h60l135 -150h-65l-100 105z" />
    <glyph glyph-name="otilde" unicode="&#xf5;" horiz-adv-x="590" 
d="M370 -10h-150c-47.333 0 -84.166 12.333 -110.499 37s-39.5 57.334 -39.5 98.001v280c0 40.667 13.167 73.334 39.5 98.001s63.166 37 110.499 37h150c47.333 0 84.166 -12.333 110.499 -37s39.5 -57.334 39.5 -98.001v-280c0 -40.667 -13.167 -73.334 -39.5 -98.001
s-63.166 -37 -110.499 -37zM140 405v-280c0 -22.667 7.66699 -41.667 23 -57s34.333 -23 57 -23h150c22.667 0 41.667 7.66699 57 23s23 34.333 23 57v280c0 22.667 -7.66699 41.667 -23 57s-34.333 23 -57 23h-150c-22.667 0 -41.667 -7.66699 -57 -23s-23 -34.333 -23 -57
zM377 745h60.001v-75c0 -17.333 -5.66699 -31.666 -17 -42.999s-25.666 -17 -42.999 -17h-20c-12.667 0 -24 4 -34 12c-4.66699 2.66699 -10 7 -16 13l-45 40c-4 2.66699 -7 5 -9 7c-9.33301 5.33301 -16.333 8 -21 8c-13.333 0 -20 -8.33301 -20 -25v-50h-60v75
c0 17.333 5.66699 31.666 17 42.999s25.666 17 42.999 17h20c11.333 0 22.666 -4.33301 33.999 -13c6.66699 -4 12 -8 16 -12l45 -40l9 -8c6.66699 -4.66699 13.667 -7 21 -7c13.333 0 20 8.33301 20 25v50z" />
    <glyph glyph-name="odieresis" unicode="&#xf6;" horiz-adv-x="590" 
d="M370 -10h-150c-47.333 0 -84.166 12.333 -110.499 37s-39.5 57.334 -39.5 98.001v280c0 40.667 13.167 73.334 39.5 98.001s63.166 37 110.499 37h150c47.333 0 84.166 -12.333 110.499 -37s39.5 -57.334 39.5 -98.001v-280c0 -40.667 -13.167 -73.334 -39.5 -98.001
s-63.166 -37 -110.499 -37zM140 405v-280c0 -22.667 7.66699 -41.667 23 -57s34.333 -23 57 -23h150c22.667 0 41.667 7.66699 57 23s23 34.333 23 57v280c0 22.667 -7.66699 41.667 -23 57s-34.333 23 -57 23h-150c-22.667 0 -41.667 -7.66699 -57 -23s-23 -34.333 -23 -57
zM160 710h70v-100h-70v100zM360 710h70v-100h-70v100z" />
    <glyph glyph-name="divide" unicode="&#xf7;" horiz-adv-x="490" 
d="M450 350v-55h-410v55h410zM210 200h70v-105h-70v105zM210 550h70v-105h-70v105z" />
    <glyph glyph-name="oslash" unicode="&#xf8;" horiz-adv-x="590" 
d="M140 -50h-55.001v30l27 45c-28 24.667 -42 58 -42 100v280c0 40.667 13.167 73.334 39.5 98.001s63.166 37 110.499 37h150c16.667 0 33.667 -2.33301 51 -7l29 47h55v-30l-28 -45c28.667 -24.667 43 -58 43 -100v-280c0 -40.667 -13.167 -73.334 -39.5 -98.001
s-63.166 -37 -110.499 -37h-150c-17.333 0 -34.666 2.33301 -51.999 7zM449.999 125v280c0 13.333 -3.33301 26.333 -10 39l-241 -397c9.33301 -1.33301 16.333 -2 21 -2h150c22.667 0 41.667 7.66699 57 23s23 34.333 23 57zM139.999 405v-280c0 -15.333 3 -28.333 9 -39
l241 396c-6 2 -12.667 3 -20 3h-150c-22.667 0 -41.667 -7.66699 -57 -23s-23 -34.333 -23 -57z" />
    <glyph glyph-name="ugrave" unicode="&#xf9;" 
d="M450 140l-0.000976562 389.999h70v-530h-45l-10 70h-5c-5.33301 -14 -14 -27.333 -26 -40c-25.333 -26.667 -56.666 -40 -93.999 -40h-110c-47.333 0 -84.166 12.333 -110.499 37s-39.5 57.334 -39.5 98.001v405h70v-405c0 -22.667 7.66699 -41.667 23 -57
s34.333 -23 57 -23h110c32 0 60.333 15.667 85 47c9.33301 12.667 17.666 28.667 24.999 48zM181.999 739.999h85l90 -160h-60z" />
    <glyph glyph-name="uacute" unicode="&#xfa;" 
d="M450 140l-0.000976562 389.999h70v-530h-45l-10 70h-5c-5.33301 -14 -14 -27.333 -26 -40c-25.333 -26.667 -56.666 -40 -93.999 -40h-110c-47.333 0 -84.166 12.333 -110.499 37s-39.5 57.334 -39.5 98.001v405h70v-405c0 -22.667 7.66699 -41.667 23 -57
s34.333 -23 57 -23h110c32 0 60.333 15.667 85 47c9.33301 12.667 17.666 28.667 24.999 48zM341.999 739.999h85l-115 -160h-60z" />
    <glyph glyph-name="ucircumflex" unicode="&#xfb;" 
d="M450 140l-0.000976562 389.999h70v-530h-45l-10 70h-5c-5.33301 -14 -14 -27.333 -26 -40c-25.333 -26.667 -56.666 -40 -93.999 -40h-110c-47.333 0 -84.166 12.333 -110.499 37s-39.5 57.334 -39.5 98.001v405h70v-405c0 -22.667 7.66699 -41.667 23 -57
s34.333 -23 57 -23h110c32 0 60.333 15.667 85 47c9.33301 12.667 17.666 28.667 24.999 48zM209.999 599.999h-65l135 150h60l135 -150h-65l-100 105z" />
    <glyph glyph-name="udieresis" unicode="&#xfc;" 
d="M450 140l-0.000976562 389.999h70v-530h-45l-10 70h-5c-5.33301 -14 -14 -27.333 -26 -40c-25.333 -26.667 -56.666 -40 -93.999 -40h-110c-47.333 0 -84.166 12.333 -110.499 37s-39.5 57.334 -39.5 98.001v405h70v-405c0 -22.667 7.66699 -41.667 23 -57
s34.333 -23 57 -23h110c32 0 60.333 15.667 85 47c9.33301 12.667 17.666 28.667 24.999 48zM164.999 699.999h70v-100h-70v100zM364.999 699.999h70v-100h-70v100z" />
    <glyph glyph-name="yacute" unicode="&#xfd;" horiz-adv-x="535" 
d="M505 495l-198.999 -545c-30.667 -80 -84 -120 -160 -120h-50v55h50c19.333 0 36.666 6.16699 51.999 18.5s26.333 27.833 33 46.5l15 40v9l-216 496v35h65l186 -460h5l154 460h65v-35zM310.001 720h85l-115 -160h-60z" />
    <glyph glyph-name="thorn" unicode="&#xfe;" horiz-adv-x="590" 
d="M85 700l70 0.00195312v-170h215c47.333 0 84.166 -12.333 110.499 -37s39.5 -57.334 39.5 -98.001v-260c0 -40.667 -13.167 -73.334 -39.5 -98.001s-63.166 -37 -110.499 -37h-215v-170h-70v870zM155 475.002v-420h215c22.667 0 41.667 7.66699 57 23s23 34.333 23 57
v260c0 22.667 -7.66699 41.667 -23 57s-34.333 23 -57 23h-215z" />
    <glyph glyph-name="ydieresis" unicode="&#xff;" horiz-adv-x="535" 
d="M505 495l-198.999 -545c-30.667 -80 -84 -120 -160 -120h-50v55h50c19.333 0 36.666 6.16699 51.999 18.5s26.333 27.833 33 46.5l15 40v9l-216 496v35h65l186 -460h5l154 460h65v-35zM132.001 691h70v-100h-70v100zM332.001 691h70v-100h-70v100z" />
    <glyph glyph-name="Amacron" unicode="&#x100;" horiz-adv-x="625" 
d="M155 185l-65 -185h-65v35l240 665h95l240 -665v-35h-65l-65 185h-315zM455 240l-140 390h-5l-140 -390h285zM457 850v-55h-290v55h290z" />
    <glyph glyph-name="amacron" unicode="&#x101;" horiz-adv-x="570" 
d="M105 475v54.999h235c47.333 0 84.166 -12.333 110.499 -37s39.5 -57.334 39.5 -98.001v-395h-45l-10 70h-5c-5.33301 -14 -14 -27.333 -26 -40c-25.333 -26.667 -56.666 -40 -93.999 -40h-105c-47.333 0 -84.166 12.333 -110.499 37s-39.5 57.334 -39.5 98.001v40
c0 40.667 13.167 73.334 39.5 98.001s63.166 37 110.499 37h215v95c0 22.667 -7.66699 41.667 -23 57s-34.333 23 -57 23h-235zM420 244.999h-214.999c-22.667 0 -41.667 -7.66699 -57 -23s-23 -34.333 -23 -57v-40c0 -22.667 7.66699 -41.667 23 -57s34.333 -23 57 -23h105
c32 0 60.333 15.667 85 47c9.33301 12.667 17.666 28.667 24.999 48v105zM430.001 680.999v-55h-290v55h290z" />
    <glyph glyph-name="Abreve" unicode="&#x102;" horiz-adv-x="625" 
d="M155 185l-65 -185h-65v35l240 665h95l240 -665v-35h-65l-65 185h-315zM455 240l-140 390h-5l-140 -390h285zM352 770h-80.002c-32 0 -57.5 8.66699 -76.5 26s-28.5 40.333 -28.5 69v35h60v-35c0 -12.667 4.33301 -23.334 13 -32.001s19.334 -13 32.001 -13h80
c12.667 0 23.334 4.33301 32.001 13s13 19.334 13 32.001v35h60v-35c0 -28.667 -9.5 -51.667 -28.5 -69s-44.5 -26 -76.5 -26z" />
    <glyph glyph-name="abreve" unicode="&#x103;" horiz-adv-x="570" 
d="M105 475v54.999h235c47.333 0 84.166 -12.333 110.499 -37s39.5 -57.334 39.5 -98.001v-395h-45l-10 70h-5c-5.33301 -14 -14 -27.333 -26 -40c-25.333 -26.667 -56.666 -40 -93.999 -40h-105c-47.333 0 -84.166 12.333 -110.499 37s-39.5 57.334 -39.5 98.001v40
c0 40.667 13.167 73.334 39.5 98.001s63.166 37 110.499 37h215v95c0 22.667 -7.66699 41.667 -23 57s-34.333 23 -57 23h-235zM420 244.999h-214.999c-22.667 0 -41.667 -7.66699 -57 -23s-23 -34.333 -23 -57v-40c0 -22.667 7.66699 -41.667 23 -57s34.333 -23 57 -23h105
c32 0 60.333 15.667 85 47c9.33301 12.667 17.666 28.667 24.999 48v105zM325.001 599.999h-80.002c-32 0 -57.5 8.66699 -76.5 26s-28.5 40.333 -28.5 69v35h60v-35c0 -12.667 4.33301 -23.334 13 -32.001s19.334 -13 32.001 -13h80c12.667 0 23.334 4.33301 32.001 13
s13 19.334 13 32.001v35h60v-35c0 -28.667 -9.5 -51.667 -28.5 -69s-44.5 -26 -76.5 -26z" />
    <glyph glyph-name="Aogonek" unicode="&#x104;" horiz-adv-x="625" 
d="M155 185l-65.001 -185.001h-65v35l240 665h95l240 -665v-50c-16.667 -5.33301 -32.667 -13 -48 -23c-31.333 -20.667 -47 -44.667 -47 -72c0 -12.667 4.33301 -23.334 13 -32.001s19.334 -13 32.001 -13h80v-45h-80c-70 0 -105 30 -105 90c0 17.333 4.5 33.333 13.5 48
s20.333 26.334 34 35.001s24.167 14.834 31.5 18.501s14 6.5 20 8.5h-9l-65 185h-315zM454.999 239.999l-140 390h-5l-140 -390h285z" />
    <glyph glyph-name="aogonek" unicode="&#x105;" horiz-adv-x="570" 
d="M105 475l-0.00195312 55.001h235c47.333 0 84.166 -12.333 110.499 -37s39.5 -57.334 39.5 -98.001v-410c-16.667 -5.33301 -32.667 -13 -48 -23c-31.333 -20.667 -47 -44.667 -47 -72c0 -12.667 4.33301 -23.334 13 -32.001s19.334 -13 32.001 -13h80v-45h-80
c-70 0 -105 30 -105 90c0 31.333 16.667 59.666 50 84.999c14.667 10 31.334 18.333 50.001 25h10l-10 70h-5c-5.33301 -14 -14 -27.333 -26 -40c-25.333 -26.667 -56.666 -40 -93.999 -40h-105c-47.333 0 -84.166 12.333 -110.499 37s-39.5 57.334 -39.5 98.001v40
c0 40.667 13.167 73.334 39.5 98.001s63.166 37 110.499 37h215v95c0 22.667 -7.66699 41.667 -23 57s-34.333 23 -57 23h-235zM419.998 245.001h-214.999c-22.667 0 -41.667 -7.66699 -57 -23s-23 -34.333 -23 -57v-40c0 -22.667 7.66699 -41.667 23 -57s34.333 -23 57 -23
h105c32 0 60.333 15.667 85 47c9.33301 12.667 17.666 28.667 24.999 48v105z" />
    <glyph glyph-name="Cacute" unicode="&#x106;" horiz-adv-x="570" 
d="M80 150v400c0 46 14.5 82.5 43.5 109.5s69.5 40.5 121.5 40.5h290v-35l-20 -20h-270c-28 0 -50.833 -8.83301 -68.5 -26.5s-26.5 -40.5 -26.5 -68.5v-400c0 -28 8.83301 -50.833 26.5 -68.5s40.5 -26.5 68.5 -26.5h290v-55h-290c-52 0 -92.5 13.5 -121.5 40.5
s-43.5 63.5 -43.5 109.5zM367 940h85l-115 -160h-60z" />
    <glyph glyph-name="cacute" unicode="&#x107;" horiz-adv-x="505" 
d="M470 0l-250 -0.00195312c-47.333 0 -84.166 12.333 -110.499 37s-39.5 57.334 -39.5 98.001v260c0 40.667 13.167 73.334 39.5 98.001s63.166 37 110.499 37h250v-35l-20 -20h-230c-22.667 0 -41.667 -7.66699 -57 -23s-23 -34.333 -23 -57v-260
c0 -22.667 7.66699 -41.667 23 -57s34.333 -23 57 -23h250v-55zM325 759.998h85l-115 -160h-60z" />
    <glyph glyph-name="Ccircumflex" unicode="&#x108;" horiz-adv-x="570" 
d="M80 150v400c0 46 14.5 82.5 43.5 109.5s69.5 40.5 121.5 40.5h290v-35l-20 -20h-270c-28 0 -50.833 -8.83301 -68.5 -26.5s-26.5 -40.5 -26.5 -68.5v-400c0 -28 8.83301 -50.833 26.5 -68.5s40.5 -26.5 68.5 -26.5h290v-55h-290c-52 0 -92.5 13.5 -121.5 40.5
s-43.5 63.5 -43.5 109.5zM225 780h-65l135 150h60l135 -150h-65l-100 105z" />
    <glyph glyph-name="ccircumflex" unicode="&#x109;" horiz-adv-x="505" 
d="M470 0l-250 -0.00195312c-47.333 0 -84.166 12.333 -110.499 37s-39.5 57.334 -39.5 98.001v260c0 40.667 13.167 73.334 39.5 98.001s63.166 37 110.499 37h250v-35l-20 -20h-230c-22.667 0 -41.667 -7.66699 -57 -23s-23 -34.333 -23 -57v-260
c0 -22.667 7.66699 -41.667 23 -57s34.333 -23 57 -23h250v-55zM172 599.998h-65l135 150h60l135 -150h-65l-100 105z" />
    <glyph glyph-name="Cdotaccent" unicode="&#x10a;" horiz-adv-x="570" 
d="M80 150v400c0 46 14.5 82.5 43.5 109.5s69.5 40.5 121.5 40.5h290v-35l-20 -20h-270c-28 0 -50.833 -8.83301 -68.5 -26.5s-26.5 -40.5 -26.5 -68.5v-400c0 -28 8.83301 -50.833 26.5 -68.5s40.5 -26.5 68.5 -26.5h290v-55h-290c-52 0 -92.5 13.5 -121.5 40.5
s-43.5 63.5 -43.5 109.5zM290 870h70v-100h-70v100z" />
    <glyph glyph-name="cdotaccent" unicode="&#x10b;" horiz-adv-x="505" 
d="M470 0l-250 -0.00195312c-47.333 0 -84.166 12.333 -110.499 37s-39.5 57.334 -39.5 98.001v260c0 40.667 13.167 73.334 39.5 98.001s63.166 37 110.499 37h250v-35l-20 -20h-230c-22.667 0 -41.667 -7.66699 -57 -23s-23 -34.333 -23 -57v-260
c0 -22.667 7.66699 -41.667 23 -57s34.333 -23 57 -23h250v-55zM250 704.998h70v-100h-70v100z" />
    <glyph glyph-name="Ccaron" unicode="&#x10c;" horiz-adv-x="570" 
d="M80 150v400c0 46 14.5 82.5 43.5 109.5s69.5 40.5 121.5 40.5h290v-35l-20 -20h-270c-28 0 -50.833 -8.83301 -68.5 -26.5s-26.5 -40.5 -26.5 -68.5v-400c0 -28 8.83301 -50.833 26.5 -68.5s40.5 -26.5 68.5 -26.5h290v-55h-290c-52 0 -92.5 13.5 -121.5 40.5
s-43.5 63.5 -43.5 109.5zM150 920h65l100 -105l101 105h64l-135 -150h-60z" />
    <glyph glyph-name="ccaron" unicode="&#x10d;" horiz-adv-x="505" 
d="M470 0l-250 -0.00195312c-47.333 0 -84.166 12.333 -110.499 37s-39.5 57.334 -39.5 98.001v260c0 40.667 13.167 73.334 39.5 98.001s63.166 37 110.499 37h250v-35l-20 -20h-230c-22.667 0 -41.667 -7.66699 -57 -23s-23 -34.333 -23 -57v-260
c0 -22.667 7.66699 -41.667 23 -57s34.333 -23 57 -23h250v-55zM117 739.998h65l100 -105l101 105h64l-135 -150h-60z" />
    <glyph glyph-name="Dcaron" unicode="&#x10e;" horiz-adv-x="665" 
d="M95 0v700h325c52 0 92.5 -13.5 121.5 -40.5s43.5 -63.5 43.5 -109.5v-400c0 -46 -14.5 -82.5 -43.5 -109.5s-69.5 -40.5 -121.5 -40.5h-325zM165 645v-590h255c28 0 50.833 8.83301 68.5 26.5s26.5 40.5 26.5 68.5v400c0 28 -8.83301 50.833 -26.5 68.5
s-40.5 26.5 -68.5 26.5h-255zM147 920h65l100 -105l101 105h64l-135 -150h-60z" />
    <glyph glyph-name="dcaron" unicode="&#x10f;" horiz-adv-x="705" 
d="M505 0l-45.001 -0.00195312l-10 70h-5c-5.33301 -14 -14 -27.333 -26 -40c-25.333 -26.667 -56.666 -40 -93.999 -40h-105c-47.333 0 -84.166 12.333 -110.499 37s-39.5 57.334 -39.5 98.001v270c0 40.667 13.167 73.334 39.5 98.001s63.166 37 110.499 37h215v170h70
v-700zM434.999 139.998l0.000976562 335h-215c-22.667 0 -41.667 -7.66699 -57 -23s-23 -34.333 -23 -57v-270c0 -22.667 7.66699 -41.667 23 -57s34.333 -23 57 -23h105c32 0 60.333 15.667 85 47c9.33301 12.667 17.666 28.667 24.999 48zM595 699.998h70v-70l-35 -140
h-35v210z" />
    <glyph glyph-name="Dcroat" unicode="&#x110;" horiz-adv-x="665" 
d="M95 0v335h-75v55h75v310h325c52 0 92.5 -13.5 121.5 -40.5s43.5 -63.5 43.5 -109.5v-400c0 -46 -14.5 -82.5 -43.5 -109.5s-69.5 -40.5 -121.5 -40.5h-325zM320 390v-55h-155v-280h255c28 0 50.833 8.83301 68.5 26.5s26.5 40.5 26.5 68.5v400
c0 28 -8.83301 50.833 -26.5 68.5s-40.5 26.5 -68.5 26.5h-255v-255h155z" />
    <glyph glyph-name="dcroat" unicode="&#x111;" horiz-adv-x="590" 
d="M505 0l-45.001 -0.00195312l-10 70h-5c-5.33301 -14 -14 -27.333 -26 -40c-25.333 -26.667 -56.666 -40 -93.999 -40h-105c-47.333 0 -84.166 12.333 -110.499 37s-39.5 57.334 -39.5 98.001v190c0 40.667 13.167 73.334 39.5 98.001s63.166 37 110.499 37h215v95h-195
v55h195v100h70v-100h55v-55h-55v-545zM434.999 139.998l0.000976562 255h-215c-22.667 0 -41.667 -7.66699 -57 -23s-23 -34.333 -23 -57v-190c0 -22.667 7.66699 -41.667 23 -57s34.333 -23 57 -23h105c32 0 60.333 15.667 85 47c9.33301 12.667 17.666 28.667 24.999 48z
" />
    <glyph glyph-name="Emacron" unicode="&#x112;" horiz-adv-x="580" 
d="M95 0v700h450v-35l-20 -20h-360v-260h295v-55h-295v-275h380v-55h-450zM465 860v-55h-290v55h290z" />
    <glyph glyph-name="emacron" unicode="&#x113;" horiz-adv-x="565" 
d="M495 235l-354.999 -0.000976562v-100c0 -22.667 7.66699 -41.667 23 -57s34.333 -23 57 -23h255v-55h-255c-47.333 0 -84.166 12.333 -110.499 37s-39.5 57.334 -39.5 98.001v270c0 40.667 13.167 73.334 39.5 98.001s63.166 37 110.499 37h125
c47.333 0 84.166 -12.333 110.499 -37s39.5 -57.334 39.5 -98.001v-170zM140.001 404.999v-115h285v115c0 22.667 -7.66699 41.667 -23 57s-34.333 23 -57 23h-125c-22.667 0 -41.667 -7.66699 -57 -23s-23 -34.333 -23 -57zM427.001 680.999v-55h-290v55h290z" />
    <glyph glyph-name="Ebreve" unicode="&#x114;" horiz-adv-x="580" 
d="M95 0v700h450v-35l-20 -20h-360v-260h295v-55h-295v-275h380v-55h-450zM360 780h-80.002c-32 0 -57.5 8.66699 -76.5 26s-28.5 40.333 -28.5 69v35h60v-35c0 -12.667 4.33301 -23.334 13 -32.001s19.334 -13 32.001 -13h80c12.667 0 23.334 4.33301 32.001 13
s13 19.334 13 32.001v35h60v-35c0 -28.667 -9.5 -51.667 -28.5 -69s-44.5 -26 -76.5 -26z" />
    <glyph glyph-name="ebreve" unicode="&#x115;" horiz-adv-x="565" 
d="M495 235l-354.999 -0.000976562v-100c0 -22.667 7.66699 -41.667 23 -57s34.333 -23 57 -23h255v-55h-255c-47.333 0 -84.166 12.333 -110.499 37s-39.5 57.334 -39.5 98.001v270c0 40.667 13.167 73.334 39.5 98.001s63.166 37 110.499 37h125
c47.333 0 84.166 -12.333 110.499 -37s39.5 -57.334 39.5 -98.001v-170zM140.001 404.999v-115h285v115c0 22.667 -7.66699 41.667 -23 57s-34.333 23 -57 23h-125c-22.667 0 -41.667 -7.66699 -57 -23s-23 -34.333 -23 -57zM322.001 599.999h-80.002
c-32 0 -57.5 8.66699 -76.5 26s-28.5 40.333 -28.5 69v35h60v-35c0 -12.667 4.33301 -23.334 13 -32.001s19.334 -13 32.001 -13h80c12.667 0 23.334 4.33301 32.001 13s13 19.334 13 32.001v35h60v-35c0 -28.667 -9.5 -51.667 -28.5 -69s-44.5 -26 -76.5 -26z" />
    <glyph glyph-name="Edotaccent" unicode="&#x116;" horiz-adv-x="580" 
d="M95 0v700h450v-35l-20 -20h-360v-260h295v-55h-295v-275h380v-55h-450zM275 880h70v-100h-70v100z" />
    <glyph glyph-name="edotaccent" unicode="&#x117;" horiz-adv-x="565" 
d="M495 235l-354.999 -0.000976562v-100c0 -22.667 7.66699 -41.667 23 -57s34.333 -23 57 -23h255v-55h-255c-47.333 0 -84.166 12.333 -110.499 37s-39.5 57.334 -39.5 98.001v270c0 40.667 13.167 73.334 39.5 98.001s63.166 37 110.499 37h125
c47.333 0 84.166 -12.333 110.499 -37s39.5 -57.334 39.5 -98.001v-170zM140.001 404.999v-115h285v115c0 22.667 -7.66699 41.667 -23 57s-34.333 23 -57 23h-125c-22.667 0 -41.667 -7.66699 -57 -23s-23 -34.333 -23 -57zM247.001 709.999h70v-100h-70v100z" />
    <glyph glyph-name="Eogonek" unicode="&#x118;" horiz-adv-x="580" 
d="M95 0l-0.000976562 700h450v-35l-20 -20h-360v-260h295v-55h-295v-275h380v-55h-150c-20 -8.66699 -39.333 -19 -58 -31c-38 -24.667 -57 -51 -57 -79c0 -12.667 4.33301 -23.334 13 -32.001s19.334 -13 32.001 -13h80v-45h-80c-70 0 -105 30 -105 90
c0 17.333 4 33.333 12 48s18 26.334 30 35.001s21.667 15 29 19s13.333 6.66699 18 8h-214z" />
    <glyph glyph-name="eogonek" unicode="&#x119;" horiz-adv-x="565" 
d="M495 235l-355 -0.00292969v-100c0 -22.667 7.66699 -41.667 23 -57s34.333 -23 57 -23h255v-55h-120l5 -1c-17.333 -8 -34 -18 -50 -30c-33.333 -25.333 -50 -51.666 -50 -78.999c0 -12.667 4.33301 -23.334 13 -32.001s19.334 -13 32.001 -13h80v-45h-80
c-70 0 -105 30 -105 90c0 17.333 4.5 33.333 13.5 48s20.333 26.334 34 35.001s24.167 14.834 31.5 18.501s14 6.5 20 8.5h-79c-47.333 0 -84.166 12.333 -110.499 37s-39.5 57.334 -39.5 98.001v270c0 40.667 13.167 73.334 39.5 98.001s63.166 37 110.499 37h125
c47.333 0 84.166 -12.333 110.499 -37s39.5 -57.334 39.5 -98.001v-170zM140 404.997v-115h285v115c0 22.667 -7.66699 41.667 -23 57s-34.333 23 -57 23h-125c-22.667 0 -41.667 -7.66699 -57 -23s-23 -34.333 -23 -57z" />
    <glyph glyph-name="Ecaron" unicode="&#x11a;" horiz-adv-x="580" 
d="M95 0v700h450v-35l-20 -20h-360v-260h295v-55h-295v-275h380v-55h-450zM145 920h65l100 -105l101 105h64l-135 -150h-60z" />
    <glyph glyph-name="ecaron" unicode="&#x11b;" horiz-adv-x="565" 
d="M495 235l-354.999 -0.000976562v-100c0 -22.667 7.66699 -41.667 23 -57s34.333 -23 57 -23h255v-55h-255c-47.333 0 -84.166 12.333 -110.499 37s-39.5 57.334 -39.5 98.001v270c0 40.667 13.167 73.334 39.5 98.001s63.166 37 110.499 37h125
c47.333 0 84.166 -12.333 110.499 -37s39.5 -57.334 39.5 -98.001v-170zM140.001 404.999v-115h285v115c0 22.667 -7.66699 41.667 -23 57s-34.333 23 -57 23h-125c-22.667 0 -41.667 -7.66699 -57 -23s-23 -34.333 -23 -57zM117.001 739.999h65l100 -105l101 105h64
l-135 -150h-60z" />
    <glyph glyph-name="Gcircumflex" unicode="&#x11c;" horiz-adv-x="655" 
d="M80 150v400c0 46 14.5 82.5 43.5 109.5s69.5 40.5 121.5 40.5h295v-35l-20 -20h-275c-28 0 -50.833 -8.83301 -68.5 -26.5s-26.5 -40.5 -26.5 -68.5v-400c0 -28 8.83301 -50.833 26.5 -68.5s40.5 -26.5 68.5 -26.5h255v275h-170v55h240v-385h-325
c-52 0 -92.5 13.5 -121.5 40.5s-43.5 63.5 -43.5 109.5zM227 780h-65l135 150h60l135 -150h-65l-100 105z" />
    <glyph glyph-name="gcircumflex" unicode="&#x11d;" horiz-adv-x="575" 
d="M140 405v-70c0 -22.667 7.66699 -41.667 23 -57s34.333 -23 57 -23h135c22.667 0 41.667 7.66699 57 23s23 34.333 23 57v70c0 22.667 -7.66699 41.667 -23 57s-34.333 23 -57 23h-135c-22.667 0 -41.667 -7.66699 -57 -23s-23 -34.333 -23 -57zM170 125h219.998
c47.333 0 84.166 -12.333 110.499 -37s39.5 -57.334 39.5 -98.001v-25c0 -40.667 -13.167 -73.334 -39.5 -98.001s-63.166 -37 -110.499 -37h-205c-47.333 0 -84.166 12.333 -110.499 37s-39.5 57.334 -39.5 98.001v25c0 35.333 13.333 64.333 40 87
c12.667 10.667 26 18.334 40 23.001v5c-6 2 -11 5 -15 9c-10 8.66699 -15 20.667 -15 36v25c0 16.667 6.66699 30 20 40c4 2.66699 10.667 6 20 10v5c-9.33301 4 -18.666 11.333 -27.999 22c-18 19.333 -27 47 -27 83v70c0 40.667 13.167 73.334 39.5 98.001
s63.166 37 110.499 37h145l50 80h65v-30l-55 -55v-5c14.667 -6.66699 28 -16 40 -28c26.667 -26.667 40 -59 40 -97v-70c0 -40.667 -13.167 -73.334 -39.5 -98.001s-63.166 -37 -110.499 -37h-185c-16.667 0 -25 -8.33301 -25 -25v-25c0 -16.667 8.33301 -25 25 -25z
M389.998 70h-205c-22.667 0 -41.667 -7.66699 -57 -23s-23 -34.333 -23 -57v-25c0 -22.667 7.66699 -41.667 23 -57s34.333 -23 57 -23h205c22.667 0 41.667 7.66699 57 23s23 34.333 23 57v25c0 22.667 -7.66699 41.667 -23 57s-34.333 23 -57 23zM186.998 620h-65l135 150
h60l135 -150h-65l-100 105z" />
    <glyph glyph-name="Gbreve" unicode="&#x11e;" horiz-adv-x="655" 
d="M80 150v400c0 46 14.5 82.5 43.5 109.5s69.5 40.5 121.5 40.5h295v-35l-20 -20h-275c-28 0 -50.833 -8.83301 -68.5 -26.5s-26.5 -40.5 -26.5 -68.5v-400c0 -28 8.83301 -50.833 26.5 -68.5s40.5 -26.5 68.5 -26.5h255v275h-170v55h240v-385h-325
c-52 0 -92.5 13.5 -121.5 40.5s-43.5 63.5 -43.5 109.5zM367 780h-80.002c-32 0 -57.5 8.66699 -76.5 26s-28.5 40.333 -28.5 69v35h60v-35c0 -12.667 4.33301 -23.334 13 -32.001s19.334 -13 32.001 -13h80c12.667 0 23.334 4.33301 32.001 13s13 19.334 13 32.001v35h60
v-35c0 -28.667 -9.5 -51.667 -28.5 -69s-44.5 -26 -76.5 -26z" />
    <glyph glyph-name="gbreve" unicode="&#x11f;" horiz-adv-x="575" 
d="M140 405v-70c0 -22.667 7.66699 -41.667 23 -57s34.333 -23 57 -23h135c22.667 0 41.667 7.66699 57 23s23 34.333 23 57v70c0 22.667 -7.66699 41.667 -23 57s-34.333 23 -57 23h-135c-22.667 0 -41.667 -7.66699 -57 -23s-23 -34.333 -23 -57zM170 125h219.998
c47.333 0 84.166 -12.333 110.499 -37s39.5 -57.334 39.5 -98.001v-25c0 -40.667 -13.167 -73.334 -39.5 -98.001s-63.166 -37 -110.499 -37h-205c-47.333 0 -84.166 12.333 -110.499 37s-39.5 57.334 -39.5 98.001v25c0 35.333 13.333 64.333 40 87
c12.667 10.667 26 18.334 40 23.001v5c-6 2 -11 5 -15 9c-10 8.66699 -15 20.667 -15 36v25c0 16.667 6.66699 30 20 40c4 2.66699 10.667 6 20 10v5c-9.33301 4 -18.666 11.333 -27.999 22c-18 19.333 -27 47 -27 83v70c0 40.667 13.167 73.334 39.5 98.001
s63.166 37 110.499 37h145l50 80h65v-30l-55 -55v-5c14.667 -6.66699 28 -16 40 -28c26.667 -26.667 40 -59 40 -97v-70c0 -40.667 -13.167 -73.334 -39.5 -98.001s-63.166 -37 -110.499 -37h-185c-16.667 0 -25 -8.33301 -25 -25v-25c0 -16.667 8.33301 -25 25 -25z
M389.998 70h-205c-22.667 0 -41.667 -7.66699 -57 -23s-23 -34.333 -23 -57v-25c0 -22.667 7.66699 -41.667 23 -57s34.333 -23 57 -23h205c22.667 0 41.667 7.66699 57 23s23 34.333 23 57v25c0 22.667 -7.66699 41.667 -23 57s-34.333 23 -57 23zM324.998 615h-80.002
c-32 0 -57.5 8.66699 -76.5 26s-28.5 40.333 -28.5 69v35h60v-35c0 -12.667 4.33301 -23.334 13 -32.001s19.334 -13 32.001 -13h80c12.667 0 23.334 4.33301 32.001 13s13 19.334 13 32.001v35h60v-35c0 -28.667 -9.5 -51.667 -28.5 -69s-44.5 -26 -76.5 -26z" />
    <glyph glyph-name="Gdotaccent" unicode="&#x120;" horiz-adv-x="655" 
d="M80 150v400c0 46 14.5 82.5 43.5 109.5s69.5 40.5 121.5 40.5h295v-35l-20 -20h-275c-28 0 -50.833 -8.83301 -68.5 -26.5s-26.5 -40.5 -26.5 -68.5v-400c0 -28 8.83301 -50.833 26.5 -68.5s40.5 -26.5 68.5 -26.5h255v275h-170v55h240v-385h-325
c-52 0 -92.5 13.5 -121.5 40.5s-43.5 63.5 -43.5 109.5zM292 870h70v-100h-70v100z" />
    <glyph glyph-name="gdotaccent" unicode="&#x121;" horiz-adv-x="575" 
d="M140 405v-70c0 -22.667 7.66699 -41.667 23 -57s34.333 -23 57 -23h135c22.667 0 41.667 7.66699 57 23s23 34.333 23 57v70c0 22.667 -7.66699 41.667 -23 57s-34.333 23 -57 23h-135c-22.667 0 -41.667 -7.66699 -57 -23s-23 -34.333 -23 -57zM170 125h219.998
c47.333 0 84.166 -12.333 110.499 -37s39.5 -57.334 39.5 -98.001v-25c0 -40.667 -13.167 -73.334 -39.5 -98.001s-63.166 -37 -110.499 -37h-205c-47.333 0 -84.166 12.333 -110.499 37s-39.5 57.334 -39.5 98.001v25c0 35.333 13.333 64.333 40 87
c12.667 10.667 26 18.334 40 23.001v5c-6 2 -11 5 -15 9c-10 8.66699 -15 20.667 -15 36v25c0 16.667 6.66699 30 20 40c4 2.66699 10.667 6 20 10v5c-9.33301 4 -18.666 11.333 -27.999 22c-18 19.333 -27 47 -27 83v70c0 40.667 13.167 73.334 39.5 98.001
s63.166 37 110.499 37h145l50 80h65v-30l-55 -55v-5c14.667 -6.66699 28 -16 40 -28c26.667 -26.667 40 -59 40 -97v-70c0 -40.667 -13.167 -73.334 -39.5 -98.001s-63.166 -37 -110.499 -37h-185c-16.667 0 -25 -8.33301 -25 -25v-25c0 -16.667 8.33301 -25 25 -25z
M389.998 70h-205c-22.667 0 -41.667 -7.66699 -57 -23s-23 -34.333 -23 -57v-25c0 -22.667 7.66699 -41.667 23 -57s34.333 -23 57 -23h205c22.667 0 41.667 7.66699 57 23s23 34.333 23 57v25c0 22.667 -7.66699 41.667 -23 57s-34.333 23 -57 23zM249.998 720h70v-100h-70
v100z" />
    <glyph glyph-name="Gcommaaccent" unicode="&#x122;" horiz-adv-x="655" 
d="M80 150v400c0 46 14.5 82.5 43.5 109.5s69.5 40.5 121.5 40.5h295v-35l-20 -20h-275c-28 0 -50.833 -8.83301 -68.5 -26.5s-26.5 -40.5 -26.5 -68.5v-400c0 -28 8.83301 -50.833 26.5 -68.5s40.5 -26.5 68.5 -26.5h255v275h-170v55h240v-385h-325
c-52 0 -92.5 13.5 -121.5 40.5s-43.5 63.5 -43.5 109.5zM305 -50h65v-70l-30 -120h-35v190z" />
    <glyph glyph-name="gcommaaccent" unicode="&#x123;" horiz-adv-x="575" 
d="M140 405v-70c0 -22.667 7.66699 -41.667 23 -57s34.333 -23 57 -23h135c22.667 0 41.667 7.66699 57 23s23 34.333 23 57v70c0 22.667 -7.66699 41.667 -23 57s-34.333 23 -57 23h-135c-22.667 0 -41.667 -7.66699 -57 -23s-23 -34.333 -23 -57zM170 125h219.998
c47.333 0 84.166 -12.333 110.499 -37s39.5 -57.334 39.5 -98.001v-25c0 -40.667 -13.167 -73.334 -39.5 -98.001s-63.166 -37 -110.499 -37h-205c-47.333 0 -84.166 12.333 -110.499 37s-39.5 57.334 -39.5 98.001v25c0 35.333 13.333 64.333 40 87
c12.667 10.667 26 18.334 40 23.001v5c-6 2 -11 5 -15 9c-10 8.66699 -15 20.667 -15 36v25c0 16.667 6.66699 30 20 40c4 2.66699 10.667 6 20 10v5c-9.33301 4 -18.666 11.333 -27.999 22c-18 19.333 -27 47 -27 83v70c0 40.667 13.167 73.334 39.5 98.001
s63.166 37 110.499 37h145l50 80h65v-30l-55 -55v-5c14.667 -6.66699 28 -16 40 -28c26.667 -26.667 40 -59 40 -97v-70c0 -40.667 -13.167 -73.334 -39.5 -98.001s-63.166 -37 -110.499 -37h-185c-16.667 0 -25 -8.33301 -25 -25v-25c0 -16.667 8.33301 -25 25 -25z
M389.998 70h-205c-22.667 0 -41.667 -7.66699 -57 -23s-23 -34.333 -23 -57v-25c0 -22.667 7.66699 -41.667 23 -57s34.333 -23 57 -23h205c22.667 0 41.667 7.66699 57 23s23 34.333 23 57v25c0 22.667 -7.66699 41.667 -23 57s-34.333 23 -57 23zM316.998 610h-65v70
l30 120h35v-190z" />
    <glyph glyph-name="Hcircumflex" unicode="&#x124;" horiz-adv-x="680" 
d="M95 700h70v-320h350v320h70v-700h-70v325h-350v-325h-70v700zM240 770h-65l135 150h60l135 -150h-65l-100 105z" />
    <glyph glyph-name="hcircumflex" unicode="&#x125;" 
d="M155 475l0.000976562 -474.999h-70v700h70v-170h215c47.333 0 84.166 -12.333 110.499 -37s39.5 -57.334 39.5 -98.001v-395h-70v395c0 22.667 -7.66699 41.667 -23 57s-34.333 23 -57 23h-215zM21.001 750.001h-65l135 150h60l135 -150h-65l-100 105z" />
    <glyph glyph-name="Hbar" unicode="&#x126;" horiz-adv-x="680" 
d="M650 570v-55h-65v-515h-70v315h-350v-315h-70v515h-65v55h65v130h70v-130h350v130h70v-130h65zM165 370h350v145h-350v-145z" />
    <glyph glyph-name="hbar" unicode="&#x127;" horiz-adv-x="610" 
d="M170 375l0.000976562 -374.999h-70v530h-90v55h90l35 120h35v-120h180v-55h-180v-100h215c47.333 0 84.166 -12.333 110.499 -37s39.5 -57.334 39.5 -98.001v-295h-70v295c0 22.667 -7.66699 41.667 -23 57s-34.333 23 -57 23h-215z" />
    <glyph glyph-name="Itilde" unicode="&#x128;" horiz-adv-x="260" 
d="M95 700h70v-700h-70v700zM214 895h60v-75c0 -17.333 -5.66699 -31.666 -17 -42.999s-25.666 -17 -42.999 -17h-20c-12.667 0 -24 4 -34 12c-5.33301 2.66699 -10.666 7 -15.999 13l-45 40c-4 2.66699 -7 5 -9 7c-9.33301 5.33301 -16.333 8 -21 8
c-13.333 0 -20 -8.33301 -20 -25v-50h-60v75c0 17.333 5.66699 31.666 17 42.999s25.666 17 42.999 17h20c11.333 0 22.666 -4.33301 33.999 -13c6.66699 -4 12 -8 16 -12l45 -40l9 -8c6.66699 -4.66699 13.667 -7 21 -7c13.333 0 20 8.33301 20 25v50z" />
    <glyph glyph-name="itilde" unicode="&#x129;" horiz-adv-x="230" 
d="M80 530h70v-530h-70v530zM199 725l60.001 0.000976562v-75c0 -17.333 -5.66699 -31.666 -17 -42.999s-25.666 -17 -42.999 -17h-20c-12.667 0 -24 4 -34 12c-4.66699 3.33301 -10 7.66602 -16 12.999l-45 40c-4 2.66699 -7 5 -9 7c-9.33301 5.33301 -16.333 8 -21 8
c-13.333 0 -20 -8.33301 -20 -25v-50h-60v75c0 17.333 5.66699 31.666 17 42.999s25.666 17 42.999 17h20c11.333 0 22.666 -4.33301 33.999 -13c6.66699 -4 12 -8 16 -12l45 -40l9 -8c6.66699 -4.66699 13.667 -7 21 -7c13.333 0 20 8.33301 20 25v50z" />
    <glyph glyph-name="Imacron" unicode="&#x12a;" horiz-adv-x="260" 
d="M95 700h70v-700h-70v700zM276 850v-55h-290v55h290z" />
    <glyph glyph-name="imacron" unicode="&#x12b;" horiz-adv-x="230" 
d="M80 530h70v-530h-70v530zM261 681v-55h-290v55h290z" />
    <glyph glyph-name="Ibreve" unicode="&#x12c;" horiz-adv-x="260" 
d="M95 700h70v-700h-70v700zM171 770h-80.002c-32 0 -57.5 8.66699 -76.5 26s-28.5 40.333 -28.5 69v35h60v-35c0 -12.667 4.33301 -23.334 13 -32.001s19.334 -13 32.001 -13h80c12.667 0 23.334 4.33301 32.001 13s13 19.334 13 32.001v35h60v-35
c0 -28.667 -9.5 -51.667 -28.5 -69s-44.5 -26 -76.5 -26z" />
    <glyph glyph-name="ibreve" unicode="&#x12d;" horiz-adv-x="230" 
d="M80 530h70v-530h-70v530zM156 600h-80.002c-32 0 -57.5 8.66699 -76.5 26s-28.5 40.333 -28.5 69v35h60v-35c0 -12.667 4.33301 -23.334 13 -32.001s19.334 -13 32.001 -13h80c12.667 0 23.334 4.33301 32.001 13s13 19.334 13 32.001v35h60v-35
c0 -28.667 -9.5 -51.667 -28.5 -69s-44.5 -26 -76.5 -26z" />
    <glyph glyph-name="Iogonek" unicode="&#x12e;" horiz-adv-x="260" 
d="M95 700l69.999 -0.000976562v-715c-16.667 -5.33301 -32.667 -13 -48 -23c-31.333 -20.667 -47 -44.667 -47 -72c0 -12.667 4.33301 -23.334 13 -32.001s19.334 -13 32.001 -13h80v-45h-80c-70 0 -105 30 -105 90c0 17.333 4.5 33.333 13.5 48s20.333 26.334 34 35.001
s24.167 14.834 31.5 18.501s14 6.5 20 8.5h-14v700z" />
    <glyph glyph-name="iogonek" unicode="&#x12f;" horiz-adv-x="230" 
d="M80 530l69.999 -0.000976562v-545c-16.667 -5.33301 -32.667 -13 -48 -23c-31.333 -20.667 -47 -44.667 -47 -72c0 -12.667 4.33301 -23.334 13 -32.001s19.334 -13 32.001 -13h80v-45h-80c-70 0 -105 30 -105 90c0 17.333 4.5 33.333 13.5 48s20.333 26.334 34 35.001
s24.167 14.834 31.5 18.501s14 6.5 20 8.5h-14v530zM79.999 709.999h70v-100h-70v100z" />
    <glyph glyph-name="Idotaccent" unicode="&#x130;" horiz-adv-x="260" 
d="M95 700h70v-700h-70v700zM95 860h70v-100h-70v100z" />
    <glyph glyph-name="dotlessi" unicode="&#x131;" horiz-adv-x="230" 
d="M80 530h70v-530h-70v530z" />
    <glyph glyph-name="IJ" unicode="&#x132;" horiz-adv-x="775" 
d="M95 700h70v-700h-70v700zM515 -10h-245v55h245c28 0 50.833 8.83301 68.5 26.5s26.5 40.5 26.5 68.5v560h70v-560c0 -46 -14.5 -82.5 -43.5 -109.5s-69.5 -40.5 -121.5 -40.5z" />
    <glyph glyph-name="ij" unicode="&#x133;" horiz-adv-x="480" 
d="M80 530h70v-530h-70v530zM80 710h70v-100h-70v100zM250 -170l-95.001 0.000976562v55h95c22.667 0 41.667 7.66699 57 23s23 34.333 23 57v565h70v-565c0 -40.667 -13.167 -73.334 -39.5 -98.001s-63.166 -37 -110.499 -37zM329.999 710.001h70v-100h-70v100z" />
    <glyph glyph-name="Jcircumflex" unicode="&#x134;" horiz-adv-x="515" 
d="M255 -10h-245v55h245c28 0 50.833 8.83301 68.5 26.5s26.5 40.5 26.5 68.5v560h70v-560c0 -46 -14.5 -82.5 -43.5 -109.5s-69.5 -40.5 -121.5 -40.5zM287 760h-65l135 150h60l135 -150h-65l-100 105z" />
    <glyph glyph-name="jcircumflex" unicode="&#x135;" horiz-adv-x="250" 
d="M20 -170l-95.001 0.000976562v55h95c22.667 0 41.667 7.66699 57 23s23 34.333 23 57v565h70v-565c0 -40.667 -13.167 -73.334 -39.5 -98.001s-63.166 -37 -110.499 -37zM24.999 580.001h-65l135 150h60l135 -150h-65l-100 105z" />
    <glyph glyph-name="Kcommaaccent" unicode="&#x136;" horiz-adv-x="630" 
d="M335 380l170 320h65v-35l-175 -310l200 -320v-35h-65l-195 325h-170v-325h-70v700h70v-320h170zM302 -30h65v-70l-30 -120h-35v190z" />
    <glyph glyph-name="kcommaaccent" unicode="&#x137;" horiz-adv-x="555" 
d="M305 300l135 230h65v-35l-145 -220l160 -240v-35h-65l-150 245h-150v-245h-70v700h70v-400h150zM255 -30h65v-70l-30 -120h-35v190z" />
    <glyph glyph-name="Lacute" unicode="&#x139;" horiz-adv-x="545" 
d="M95 700h70v-645h370v-55h-440v700zM185 940h85l-115 -160h-60z" />
    <glyph glyph-name="lacute" unicode="&#x13a;" horiz-adv-x="290" 
d="M260 -10l-25.001 -0.000976562c-47.333 0 -84.166 12.333 -110.499 37s-39.5 57.334 -39.5 98.001v575h70v-575c0 -22.667 7.66699 -41.667 23 -57s34.333 -23 57 -23h25v-55zM176.999 939.999h85l-115 -160h-60z" />
    <glyph glyph-name="Lcommaaccent" unicode="&#x13b;" horiz-adv-x="545" 
d="M95 700h70v-645h370v-55h-440v700zM280 -69h65v-70l-30 -120h-35v190z" />
    <glyph glyph-name="lcommaaccent" unicode="&#x13c;" horiz-adv-x="290" 
d="M260 -10l-25.001 -0.000976562c-47.333 0 -84.166 12.333 -110.499 37s-39.5 57.334 -39.5 98.001v575h70v-575c0 -22.667 7.66699 -41.667 23 -57s34.333 -23 57 -23h25v-55zM141.999 -59.001h65v-70l-30 -120h-35v190z" />
    <glyph glyph-name="Lcaron" unicode="&#x13d;" horiz-adv-x="545" 
d="M95 700h70v-645h370v-55h-440v700zM270 700h70v-70l-35 -140h-35v210z" />
    <glyph glyph-name="lcaron" unicode="&#x13e;" horiz-adv-x="345" 
d="M260 -10l-25.001 -0.000976562c-47.333 0 -84.166 12.333 -110.499 37s-39.5 57.334 -39.5 98.001v575h70v-575c0 -22.667 7.66699 -41.667 23 -57s34.333 -23 57 -23h25v-55zM239.999 699.999h70v-70l-35 -140h-35v210z" />
    <glyph glyph-name="Ldot" unicode="&#x13f;" horiz-adv-x="545" 
d="M95 700h70v-645h370v-55h-440v700zM287 430h70v-105h-70v105z" />
    <glyph glyph-name="ldot" unicode="&#x140;" horiz-adv-x="360" 
d="M260 -10l-25.001 -0.000976562c-47.333 0 -84.166 12.333 -110.499 37s-39.5 57.334 -39.5 98.001v575h70v-575c0 -22.667 7.66699 -41.667 23 -57s34.333 -23 57 -23h25v-55zM254.999 414.999h70v-105h-70v105z" />
    <glyph glyph-name="Lslash" unicode="&#x141;" horiz-adv-x="545" 
d="M280 480v-75l-115 -69v-281h370v-55h-440v294l-65 -39v75l65 39v331h70v-289z" />
    <glyph glyph-name="lslash" unicode="&#x142;" horiz-adv-x="290" 
d="M250 480l-0.000976562 -75.001l-95 -65v-215c0 -22.667 7.66699 -41.667 23 -57s34.333 -23 57 -23h25v-55h-25c-47.333 0 -84.166 12.333 -110.499 37s-39.5 57.334 -39.5 98.001v167l-55 -37v75l55 37v333h70v-285z" />
    <glyph glyph-name="Nacute" unicode="&#x143;" horiz-adv-x="680" 
d="M585 0h-85l-340 605h-5l10 -145v-460h-70v700h85l340 -605h5l-10 145v460h70v-700zM382 920h85l-115 -160h-60z" />
    <glyph glyph-name="nacute" unicode="&#x144;" 
d="M150 390l0.00195312 -389.998h-70v530h45l10 -70h5c5.33301 14 14 27.333 26 40c25.333 26.667 56.666 40 93.999 40h110c47.333 0 84.166 -12.333 110.499 -37s39.5 -57.334 39.5 -98.001v-405h-70v405c0 22.667 -7.66699 41.667 -23 57s-34.333 23 -57 23h-110
c-34 0 -62.333 -16 -85 -48c-10 -12.667 -18.333 -28.334 -25 -47.001zM352.002 760.002h85l-115 -160h-60z" />
    <glyph glyph-name="Ncommaaccent" unicode="&#x145;" horiz-adv-x="680" 
d="M585 0h-85l-340 605h-5l10 -145v-460h-70v700h85l340 -605h5l-10 145v460h70v-700zM307 -30h65v-70l-30 -120h-35v190z" />
    <glyph glyph-name="ncommaaccent" unicode="&#x146;" 
d="M150 390l0.00195312 -389.998h-70v530h45l10 -70h5c5.33301 14 14 27.333 26 40c25.333 26.667 56.666 40 93.999 40h110c47.333 0 84.166 -12.333 110.499 -37s39.5 -57.334 39.5 -98.001v-405h-70v405c0 22.667 -7.66699 41.667 -23 57s-34.333 23 -57 23h-110
c-34 0 -62.333 -16 -85 -48c-10 -12.667 -18.333 -28.334 -25 -47.001zM267.002 -19.998h65v-70l-30 -120h-35v190z" />
    <glyph glyph-name="Ncaron" unicode="&#x147;" horiz-adv-x="680" 
d="M585 0h-85l-340 605h-5l10 -145v-460h-70v700h85l340 -605h5l-10 145v460h70v-700zM175 900h65l100 -105l101 105h64l-135 -150h-60z" />
    <glyph glyph-name="ncaron" unicode="&#x148;" 
d="M150 390l0.00195312 -389.998h-70v530h45l10 -70h5c5.33301 14 14 27.333 26 40c25.333 26.667 56.666 40 93.999 40h110c47.333 0 84.166 -12.333 110.499 -37s39.5 -57.334 39.5 -98.001v-405h-70v405c0 22.667 -7.66699 41.667 -23 57s-34.333 23 -57 23h-110
c-34 0 -62.333 -16 -85 -48c-10 -12.667 -18.333 -28.334 -25 -47.001zM135.002 740.002h65l100 -105l101 105h64l-135 -150h-60z" />
    <glyph glyph-name="Omacron" unicode="&#x14c;" horiz-adv-x="670" 
d="M425 -10h-180c-52 0 -92.5 13.5 -121.5 40.5s-43.5 63.5 -43.5 109.5v420c0 46 14.5 82.5 43.5 109.5s69.5 40.5 121.5 40.5h180c52 0 92.5 -13.5 121.5 -40.5s43.5 -63.5 43.5 -109.5v-420c0 -46 -14.5 -82.5 -43.5 -109.5s-69.5 -40.5 -121.5 -40.5zM245 45h180
c28 0 50.833 8.83301 68.5 26.5s26.5 40.5 26.5 68.5v420c0 28 -8.83301 50.833 -26.5 68.5s-40.5 26.5 -68.5 26.5h-180c-28 0 -50.833 -8.83301 -68.5 -26.5s-26.5 -40.5 -26.5 -68.5v-420c0 -28 8.83301 -50.833 26.5 -68.5s40.5 -26.5 68.5 -26.5zM480 860v-55h-290v55
h290z" />
    <glyph glyph-name="omacron" unicode="&#x14d;" horiz-adv-x="590" 
d="M370 -10h-150c-47.333 0 -84.166 12.333 -110.499 37s-39.5 57.334 -39.5 98.001v280c0 40.667 13.167 73.334 39.5 98.001s63.166 37 110.499 37h150c47.333 0 84.166 -12.333 110.499 -37s39.5 -57.334 39.5 -98.001v-280c0 -40.667 -13.167 -73.334 -39.5 -98.001
s-63.166 -37 -110.499 -37zM140 405v-280c0 -22.667 7.66699 -41.667 23 -57s34.333 -23 57 -23h150c22.667 0 41.667 7.66699 57 23s23 34.333 23 57v280c0 22.667 -7.66699 41.667 -23 57s-34.333 23 -57 23h-150c-22.667 0 -41.667 -7.66699 -57 -23s-23 -34.333 -23 -57
zM440 681v-55h-290v55h290z" />
    <glyph glyph-name="Obreve" unicode="&#x14e;" horiz-adv-x="670" 
d="M425 -10h-180c-52 0 -92.5 13.5 -121.5 40.5s-43.5 63.5 -43.5 109.5v420c0 46 14.5 82.5 43.5 109.5s69.5 40.5 121.5 40.5h180c52 0 92.5 -13.5 121.5 -40.5s43.5 -63.5 43.5 -109.5v-420c0 -46 -14.5 -82.5 -43.5 -109.5s-69.5 -40.5 -121.5 -40.5zM245 45h180
c28 0 50.833 8.83301 68.5 26.5s26.5 40.5 26.5 68.5v420c0 28 -8.83301 50.833 -26.5 68.5s-40.5 26.5 -68.5 26.5h-180c-28 0 -50.833 -8.83301 -68.5 -26.5s-26.5 -40.5 -26.5 -68.5v-420c0 -28 8.83301 -50.833 26.5 -68.5s40.5 -26.5 68.5 -26.5zM375 790h-80.002
c-32 0 -57.5 8.66699 -76.5 26s-28.5 40.333 -28.5 69v35h60v-35c0 -12.667 4.33301 -23.334 13 -32.001s19.334 -13 32.001 -13h80c12.667 0 23.334 4.33301 32.001 13s13 19.334 13 32.001v35h60v-35c0 -28.667 -9.5 -51.667 -28.5 -69s-44.5 -26 -76.5 -26z" />
    <glyph glyph-name="obreve" unicode="&#x14f;" horiz-adv-x="590" 
d="M370 -10h-150c-47.333 0 -84.166 12.333 -110.499 37s-39.5 57.334 -39.5 98.001v280c0 40.667 13.167 73.334 39.5 98.001s63.166 37 110.499 37h150c47.333 0 84.166 -12.333 110.499 -37s39.5 -57.334 39.5 -98.001v-280c0 -40.667 -13.167 -73.334 -39.5 -98.001
s-63.166 -37 -110.499 -37zM140 405v-280c0 -22.667 7.66699 -41.667 23 -57s34.333 -23 57 -23h150c22.667 0 41.667 7.66699 57 23s23 34.333 23 57v280c0 22.667 -7.66699 41.667 -23 57s-34.333 23 -57 23h-150c-22.667 0 -41.667 -7.66699 -57 -23s-23 -34.333 -23 -57
zM335 610h-80.002c-32 0 -57.5 8.66699 -76.5 26s-28.5 40.333 -28.5 69v35h60v-35c0 -12.667 4.33301 -23.334 13 -32.001s19.334 -13 32.001 -13h80c12.667 0 23.334 4.33301 32.001 13s13 19.334 13 32.001v35h60v-35c0 -28.667 -9.5 -51.667 -28.5 -69
s-44.5 -26 -76.5 -26z" />
    <glyph glyph-name="Ohungarumlaut" unicode="&#x150;" horiz-adv-x="670" 
d="M425 -10h-180c-52 0 -92.5 13.5 -121.5 40.5s-43.5 63.5 -43.5 109.5v420c0 46 14.5 82.5 43.5 109.5s69.5 40.5 121.5 40.5h180c52 0 92.5 -13.5 121.5 -40.5s43.5 -63.5 43.5 -109.5v-420c0 -46 -14.5 -82.5 -43.5 -109.5s-69.5 -40.5 -121.5 -40.5zM245 45h180
c28 0 50.833 8.83301 68.5 26.5s26.5 40.5 26.5 68.5v420c0 28 -8.83301 50.833 -26.5 68.5s-40.5 26.5 -68.5 26.5h-180c-28 0 -50.833 -8.83301 -68.5 -26.5s-26.5 -40.5 -26.5 -68.5v-420c0 -28 8.83301 -50.833 26.5 -68.5s40.5 -26.5 68.5 -26.5zM312 940h80l-115 -160
h-55zM467 940h80l-115 -160h-55z" />
    <glyph glyph-name="ohungarumlaut" unicode="&#x151;" horiz-adv-x="590" 
d="M370 -10h-150c-47.333 0 -84.166 12.333 -110.499 37s-39.5 57.334 -39.5 98.001v280c0 40.667 13.167 73.334 39.5 98.001s63.166 37 110.499 37h150c47.333 0 84.166 -12.333 110.499 -37s39.5 -57.334 39.5 -98.001v-280c0 -40.667 -13.167 -73.334 -39.5 -98.001
s-63.166 -37 -110.499 -37zM140 405v-280c0 -22.667 7.66699 -41.667 23 -57s34.333 -23 57 -23h150c22.667 0 41.667 7.66699 57 23s23 34.333 23 57v280c0 22.667 -7.66699 41.667 -23 57s-34.333 23 -57 23h-150c-22.667 0 -41.667 -7.66699 -57 -23s-23 -34.333 -23 -57
zM262 760h80l-115 -160h-55zM417 760h80l-115 -160h-55z" />
    <glyph glyph-name="OE" unicode="&#x152;" horiz-adv-x="960" 
d="M925 0h-680c-52 0 -92.5 13.5 -121.5 40.5s-43.5 63.5 -43.5 109.5v400c0 46 14.5 82.5 43.5 109.5s69.5 40.5 121.5 40.5h680v-35l-20 -20h-350v-260h285v-55h-285v-275h370v-55zM245 55h240v590h-240c-28 0 -50.833 -8.83301 -68.5 -26.5s-26.5 -40.5 -26.5 -68.5v-400
c0 -28 8.83301 -50.833 26.5 -68.5s40.5 -26.5 68.5 -26.5z" />
    <glyph glyph-name="oe" unicode="&#x153;" horiz-adv-x="945" 
d="M875 235l-354.998 -0.000976562v-105c0 -20 7.83301 -37.5 23.5 -52.5s34.5 -22.5 56.5 -22.5h255v-55h-255c-32.667 0 -60.334 9 -83.001 27c-11.333 8 -20.333 17.333 -27 28c-6.66699 -12 -16 -23 -28 -33c-25.333 -21.333 -56 -32 -92 -32h-150
c-47.333 0 -84.166 12.333 -110.499 37s-39.5 57.334 -39.5 98.001v280c0 40.667 13.167 73.334 39.5 98.001s63.166 37 110.499 37h150c33.333 0 63 -11 89 -33c9.33301 -7.33301 18 -18 26 -32c8 14 16.667 24.667 26 32c26 22 55.667 33 89 33h125
c47.333 0 84.166 -12.333 110.499 -37s39.5 -57.334 39.5 -98.001v-170zM140.002 404.999v-280c0 -22.667 7.66699 -41.667 23 -57s34.333 -23 57 -23h150c22.667 0 41.667 7.83301 57 23.5s23 36.167 23 61.5v275c0 22.667 -7.66699 41.667 -23 57s-34.333 23 -57 23h-150
c-22.667 0 -41.667 -7.66699 -57 -23s-23 -34.333 -23 -57zM520.002 404.999v-115h285v115c0 22.667 -7.66699 41.667 -23 57s-34.333 23 -57 23h-125c-22.667 0 -41.667 -7.66699 -57 -23s-23 -34.333 -23 -57z" />
    <glyph glyph-name="Racute" unicode="&#x154;" horiz-adv-x="650" 
d="M95 700h310c52 0 92.5 -13.5 121.5 -40.5s43.5 -63.5 43.5 -109.5v-120c0 -56.667 -23.333 -97.667 -70 -123c-22.667 -12 -46 -19.333 -70 -22l53 -79l63 -93.5l54 -77.5v-35h-65l-180 280h-190v-280h-70v700zM405 645h-240v-310h240c28 0 50.833 8.83301 68.5 26.5
s26.5 40.5 26.5 68.5v120c0 28 -8.83301 50.833 -26.5 68.5s-40.5 26.5 -68.5 26.5zM367 940h85l-115 -160h-60z" />
    <glyph glyph-name="racute" unicode="&#x155;" horiz-adv-x="430" 
d="M150 390l0.000976562 -389.999h-70v530h45l10 -70h5c5.33301 14 14 27.333 26 40c25.333 26.667 56.666 40 93.999 40h155v-55h-155c-34 0 -62.333 -16 -85 -48c-10 -12.667 -18.333 -28.334 -25 -47.001zM277.001 760.001h85l-115 -160h-60z" />
    <glyph glyph-name="Rcommaaccent" unicode="&#x156;" horiz-adv-x="650" 
d="M95 700h310c52 0 92.5 -13.5 121.5 -40.5s43.5 -63.5 43.5 -109.5v-120c0 -56.667 -23.333 -97.667 -70 -123c-22.667 -12 -46 -19.333 -70 -22l53 -79l63 -93.5l54 -77.5v-35h-65l-180 280h-190v-280h-70v700zM405 645h-240v-310h240c28 0 50.833 8.83301 68.5 26.5
s26.5 40.5 26.5 68.5v120c0 28 -8.83301 50.833 -26.5 68.5s-40.5 26.5 -68.5 26.5zM292 -30h65v-70l-30 -120h-35v190z" />
    <glyph glyph-name="rcommaaccent" unicode="&#x157;" horiz-adv-x="430" 
d="M150 390l0.000976562 -389.999h-70v530h45l10 -70h5c5.33301 14 14 27.333 26 40c25.333 26.667 56.666 40 93.999 40h155v-55h-155c-34 0 -62.333 -16 -85 -48c-10 -12.667 -18.333 -28.334 -25 -47.001zM82.001 -68.999h65v-70l-30 -120h-35v190z" />
    <glyph glyph-name="Rcaron" unicode="&#x158;" horiz-adv-x="650" 
d="M95 700h310c52 0 92.5 -13.5 121.5 -40.5s43.5 -63.5 43.5 -109.5v-120c0 -56.667 -23.333 -97.667 -70 -123c-22.667 -12 -46 -19.333 -70 -22l53 -79l63 -93.5l54 -77.5v-35h-65l-180 280h-190v-280h-70v700zM405 645h-240v-310h240c28 0 50.833 8.83301 68.5 26.5
s26.5 40.5 26.5 68.5v120c0 28 -8.83301 50.833 -26.5 68.5s-40.5 26.5 -68.5 26.5zM150 920h65l100 -105l101 105h64l-135 -150h-60z" />
    <glyph glyph-name="rcaron" unicode="&#x159;" horiz-adv-x="430" 
d="M150 390l0.000976562 -389.999h-70v530h45l10 -70h5c5.33301 14 14 27.333 26 40c25.333 26.667 56.666 40 93.999 40h155v-55h-155c-34 0 -62.333 -16 -85 -48c-10 -12.667 -18.333 -28.334 -25 -47.001zM70.001 740.001h65l100 -105l101 105h64l-135 -150h-60z" />
    <glyph glyph-name="Sacute" unicode="&#x15a;" horiz-adv-x="590" 
d="M125 550v-55c0 -22 6.66699 -40.167 20 -54.5s31.666 -24.5 54.999 -30.5l210 -50c83.333 -20 125 -68.333 125 -145v-65c0 -46 -14.5 -82.5 -43.5 -109.5s-69.5 -40.5 -121.5 -40.5h-315v55h315c28 0 50.833 8.83301 68.5 26.5s26.5 40.5 26.5 68.5v65
c0 22 -6.66699 40.167 -20 54.5s-31.666 24.5 -54.999 30.5l-210 50c-83.333 20 -125 68.333 -125 145v55c0 46 14.5 82.5 43.5 109.5s69.5 40.5 121.5 40.5h285v-35l-20 -20h-265c-28 0 -50.833 -8.83301 -68.5 -26.5s-26.5 -40.5 -26.5 -68.5zM327 940h85l-115 -160h-60z
" />
    <glyph glyph-name="sacute" unicode="&#x15b;" horiz-adv-x="515" 
d="M345 225l-195 30c-70 12 -105 52 -105 120v20c0 40.667 13.167 73.334 39.5 98.001s63.166 37 110.499 37h250v-35l-20 -20h-230c-22.667 0 -41.667 -7.66699 -57 -23s-23 -34.333 -23 -57v-20c0 -38 18.333 -59.667 55 -65l195 -30c70 -12 105 -52 105 -120v-25
c0 -40.667 -13.167 -73.334 -39.5 -98.001s-63.166 -37 -110.499 -37h-275v55h275c22.667 0 41.667 7.66699 57 23s23 34.333 23 57v25c0 38 -18.333 59.667 -55 65zM300 760h85l-115 -160h-60z" />
    <glyph glyph-name="Scircumflex" unicode="&#x15c;" horiz-adv-x="590" 
d="M125 550v-55c0 -22 6.66699 -40.167 20 -54.5s31.666 -24.5 54.999 -30.5l210 -50c83.333 -20 125 -68.333 125 -145v-65c0 -46 -14.5 -82.5 -43.5 -109.5s-69.5 -40.5 -121.5 -40.5h-315v55h315c28 0 50.833 8.83301 68.5 26.5s26.5 40.5 26.5 68.5v65
c0 22 -6.66699 40.167 -20 54.5s-31.666 24.5 -54.999 30.5l-210 50c-83.333 20 -125 68.333 -125 145v55c0 46 14.5 82.5 43.5 109.5s69.5 40.5 121.5 40.5h285v-35l-20 -20h-265c-28 0 -50.833 -8.83301 -68.5 -26.5s-26.5 -40.5 -26.5 -68.5zM195 770h-65l135 150h60
l135 -150h-65l-100 105z" />
    <glyph glyph-name="scircumflex" unicode="&#x15d;" horiz-adv-x="515" 
d="M345 225l-195 30c-70 12 -105 52 -105 120v20c0 40.667 13.167 73.334 39.5 98.001s63.166 37 110.499 37h250v-35l-20 -20h-230c-22.667 0 -41.667 -7.66699 -57 -23s-23 -34.333 -23 -57v-20c0 -38 18.333 -59.667 55 -65l195 -30c70 -12 105 -52 105 -120v-25
c0 -40.667 -13.167 -73.334 -39.5 -98.001s-63.166 -37 -110.499 -37h-275v55h275c22.667 0 41.667 7.66699 57 23s23 34.333 23 57v25c0 38 -18.333 59.667 -55 65zM157 600h-65l135 150h60l135 -150h-65l-100 105z" />
    <glyph glyph-name="Scedilla" unicode="&#x15e;" horiz-adv-x="590" 
d="M125 550v-55c0 -22 6.66699 -40.167 20 -54.5s31.666 -24.5 54.999 -30.5l210 -50c83.333 -20 125 -68.333 125 -145v-65c0 -46 -14.5 -82.5 -43.5 -109.5s-69.5 -40.5 -121.5 -40.5h-85v-40h35c25.333 0 45.833 -7.66699 61.5 -23s23.5 -34.333 23.5 -57v-20
c0 -22.667 -7.83301 -41.667 -23.5 -57s-36.167 -23 -61.5 -23h-115v45h105c10 0 18.333 3.33301 25 10s10 15 10 25v20c0 10 -3.33301 18.333 -10 25s-15 10 -25 10h-75v85h-180v55h315c28 0 50.833 8.83301 68.5 26.5s26.5 40.5 26.5 68.5v65
c0 22 -6.66699 40.167 -20 54.5s-31.666 24.5 -54.999 30.5l-210 50c-83.333 20 -125 68.333 -125 145v55c0 46 14.5 82.5 43.5 109.5s69.5 40.5 121.5 40.5h285v-35l-20 -20h-265c-28 0 -50.833 -8.83301 -68.5 -26.5s-26.5 -40.5 -26.5 -68.5z" />
    <glyph glyph-name="scedilla" unicode="&#x15f;" horiz-adv-x="515" 
d="M345 225l-195 30c-70 12 -105 52 -105 120v20c0 40.667 13.167 73.334 39.5 98.001s63.166 37 110.499 37h250v-35l-20 -20h-230c-22.667 0 -41.667 -7.66699 -57 -23s-23 -34.333 -23 -57v-20c0 -38 18.333 -59.667 55 -65l195 -30c70 -12 105 -52 105 -120v-25
c0 -40.667 -13.167 -73.334 -39.5 -98.001s-63.166 -37 -110.499 -37h-63v-40h35c25.333 0 45.833 -7.66699 61.5 -23s23.5 -34.333 23.5 -57v-20c0 -22.667 -7.83301 -41.667 -23.5 -57s-36.167 -23 -61.5 -23h-115v45h105c10 0 18.333 3.33301 25 10s10 15 10 25v20
c0 10 -3.33301 18.333 -10 25s-15 10 -25 10h-75v85h-162v55h275c22.667 0 41.667 7.66699 57 23s23 34.333 23 57v25c0 38 -18.333 59.667 -55 65z" />
    <glyph glyph-name="Scaron" unicode="&#x160;" horiz-adv-x="590" 
d="M125 550v-55c0 -22 6.66699 -40.167 20 -54.5s31.666 -24.5 54.999 -30.5l210 -50c83.333 -20 125 -68.333 125 -145v-65c0 -46 -14.5 -82.5 -43.5 -109.5s-69.5 -40.5 -121.5 -40.5h-315v55h315c28 0 50.833 8.83301 68.5 26.5s26.5 40.5 26.5 68.5v65
c0 22 -6.66699 40.167 -20 54.5s-31.666 24.5 -54.999 30.5l-210 50c-83.333 20 -125 68.333 -125 145v55c0 46 14.5 82.5 43.5 109.5s69.5 40.5 121.5 40.5h285v-35l-20 -20h-265c-28 0 -50.833 -8.83301 -68.5 -26.5s-26.5 -40.5 -26.5 -68.5zM130 920h65l100 -105
l101 105h64l-135 -150h-60z" />
    <glyph glyph-name="scaron" unicode="&#x161;" horiz-adv-x="515" 
d="M345 225l-195 30c-70 12 -105 52 -105 120v20c0 40.667 13.167 73.334 39.5 98.001s63.166 37 110.499 37h250v-35l-20 -20h-230c-22.667 0 -41.667 -7.66699 -57 -23s-23 -34.333 -23 -57v-20c0 -38 18.333 -59.667 55 -65l195 -30c70 -12 105 -52 105 -120v-25
c0 -40.667 -13.167 -73.334 -39.5 -98.001s-63.166 -37 -110.499 -37h-275v55h275c22.667 0 41.667 7.66699 57 23s23 34.333 23 57v25c0 38 -18.333 59.667 -55 65zM92 740h65l100 -105l101 105h64l-135 -150h-60z" />
    <glyph glyph-name="Tcommaaccent" unicode="&#x162;" horiz-adv-x="550" 
d="M310 645v-645h-70v645h-220v55h510v-35l-20 -20h-200zM242 -69h65v-70l-30 -120h-35v190z" />
    <glyph glyph-name="tcommaaccent" unicode="&#x163;" horiz-adv-x="425" 
d="M105 125l-0.000976562 349.999h-90v55h90l35 140h35v-140h160v-55h-160v-350c0 -22.667 7.66699 -41.667 23 -57s34.333 -23 57 -23h155v-55h-155c-47.333 0 -84.166 12.333 -110.499 37s-39.5 57.334 -39.5 98.001zM209.999 -69.001h65v-70l-30 -120h-35v190z" />
    <glyph glyph-name="Tcaron" unicode="&#x164;" horiz-adv-x="550" 
d="M310 645v-645h-70v645h-220v55h510v-35l-20 -20h-200zM110 920h65l100 -105l101 105h64l-135 -150h-60z" />
    <glyph glyph-name="tcaron" unicode="&#x165;" horiz-adv-x="495" 
d="M105 125l-0.000976562 349.999h-90v55h90l35 140h35v-140h160v-55h-160v-350c0 -22.667 7.66699 -41.667 23 -57s34.333 -23 57 -23h155v-55h-155c-47.333 0 -84.166 12.333 -110.499 37s-39.5 57.334 -39.5 98.001zM394.999 670.999h70v-70l-35 -140h-35v210z" />
    <glyph glyph-name="Tbar" unicode="&#x166;" horiz-adv-x="550" 
d="M310 645v-155h210v-55h-210v-435h-70v435h-210v55h210v155h-220v55h510v-35l-20 -20h-200z" />
    <glyph glyph-name="tbar" unicode="&#x167;" horiz-adv-x="425" 
d="M105 125l-0.000976562 199.999h-90v55h90v95h-90v55h90l35 140h35v-140h160v-55h-160v-95h150v-55h-150v-200c0 -22.667 7.66699 -41.667 23 -57s34.333 -23 57 -23h155v-55h-155c-47.333 0 -84.166 12.333 -110.499 37s-39.5 57.334 -39.5 98.001z" />
    <glyph glyph-name="Utilde" unicode="&#x168;" horiz-adv-x="690" 
d="M260 45h170c28 0 50.833 8.83301 68.5 26.5s26.5 40.5 26.5 68.5v560h70v-560c0 -46 -14.5 -82.5 -43.5 -109.5s-69.5 -40.5 -121.5 -40.5h-170c-52 0 -92.5 13.5 -121.5 40.5s-43.5 63.5 -43.5 109.5v560h70v-560c0 -28 8.83301 -50.833 26.5 -68.5
s40.5 -26.5 68.5 -26.5zM427 891h60.001v-75c0 -17.333 -5.66699 -31.666 -17 -42.999s-25.666 -17 -42.999 -17h-20c-12.667 0 -24 4 -34 12c-4.66699 2.66699 -10 7 -16 13l-45 40c-4 2.66699 -7 5 -9 7c-9.33301 5.33301 -16.333 8 -21 8c-13.333 0 -20 -8.33301 -20 -25
v-50h-60v75c0 17.333 5.66699 31.666 17 42.999s25.666 17 42.999 17h20c11.333 0 22.666 -4.33301 33.999 -13c6.66699 -4 12 -8 16 -12l45 -40l9 -8c6.66699 -4.66699 13.667 -7 21 -7c13.333 0 20 8.33301 20 25v50z" />
    <glyph glyph-name="utilde" unicode="&#x169;" 
d="M450 140l-0.000976562 389.999h70v-530h-45l-10 70h-5c-5.33301 -14 -14 -27.333 -26 -40c-25.333 -26.667 -56.666 -40 -93.999 -40h-110c-47.333 0 -84.166 12.333 -110.499 37s-39.5 57.334 -39.5 98.001v405h70v-405c0 -22.667 7.66699 -41.667 23 -57
s34.333 -23 57 -23h110c32 0 60.333 15.667 85 47c9.33301 12.667 17.666 28.667 24.999 48zM381.999 734.999h60.001v-75c0 -17.333 -5.66699 -31.666 -17 -42.999s-25.666 -17 -42.999 -17h-20c-12.667 0 -24 4 -34 12c-4.66699 2.66699 -10 7 -16 13l-45 40
c-4 2.66699 -7 5 -9 7c-9.33301 5.33301 -16.333 8 -21 8c-13.333 0 -20 -8.33301 -20 -25v-50h-60v75c0 17.333 5.66699 31.666 17 42.999s25.666 17 42.999 17h20c11.333 0 22.666 -4.33301 33.999 -13c6.66699 -4 12 -8 16 -12l45 -40l9 -8
c6.66699 -4.66699 13.667 -7 21 -7c13.333 0 20 8.33301 20 25v50z" />
    <glyph glyph-name="Umacron" unicode="&#x16a;" horiz-adv-x="690" 
d="M260 45h170c28 0 50.833 8.83301 68.5 26.5s26.5 40.5 26.5 68.5v560h70v-560c0 -46 -14.5 -82.5 -43.5 -109.5s-69.5 -40.5 -121.5 -40.5h-170c-52 0 -92.5 13.5 -121.5 40.5s-43.5 63.5 -43.5 109.5v560h70v-560c0 -28 8.83301 -50.833 26.5 -68.5
s40.5 -26.5 68.5 -26.5zM490 840v-55h-290v55h290z" />
    <glyph glyph-name="umacron" unicode="&#x16b;" 
d="M450 140l-0.000976562 389.999h70v-530h-45l-10 70h-5c-5.33301 -14 -14 -27.333 -26 -40c-25.333 -26.667 -56.666 -40 -93.999 -40h-110c-47.333 0 -84.166 12.333 -110.499 37s-39.5 57.334 -39.5 98.001v405h70v-405c0 -22.667 7.66699 -41.667 23 -57
s34.333 -23 57 -23h110c32 0 60.333 15.667 85 47c9.33301 12.667 17.666 28.667 24.999 48zM444.999 680.999v-55h-290v55h290z" />
    <glyph glyph-name="Ubreve" unicode="&#x16c;" horiz-adv-x="690" 
d="M260 45h170c28 0 50.833 8.83301 68.5 26.5s26.5 40.5 26.5 68.5v560h70v-560c0 -46 -14.5 -82.5 -43.5 -109.5s-69.5 -40.5 -121.5 -40.5h-170c-52 0 -92.5 13.5 -121.5 40.5s-43.5 63.5 -43.5 109.5v560h70v-560c0 -28 8.83301 -50.833 26.5 -68.5
s40.5 -26.5 68.5 -26.5zM385 750h-80.002c-32 0 -57.5 8.66699 -76.5 26s-28.5 40.333 -28.5 69v35h60v-35c0 -12.667 4.33301 -23.334 13 -32.001s19.334 -13 32.001 -13h80c12.667 0 23.334 4.33301 32.001 13s13 19.334 13 32.001v35h60v-35
c0 -28.667 -9.5 -51.667 -28.5 -69s-44.5 -26 -76.5 -26z" />
    <glyph glyph-name="ubreve" unicode="&#x16d;" 
d="M450 140l-0.000976562 389.999h70v-530h-45l-10 70h-5c-5.33301 -14 -14 -27.333 -26 -40c-25.333 -26.667 -56.666 -40 -93.999 -40h-110c-47.333 0 -84.166 12.333 -110.499 37s-39.5 57.334 -39.5 98.001v405h70v-405c0 -22.667 7.66699 -41.667 23 -57
s34.333 -23 57 -23h110c32 0 60.333 15.667 85 47c9.33301 12.667 17.666 28.667 24.999 48zM339.999 589.999h-80.002c-32 0 -57.5 8.66699 -76.5 26s-28.5 40.333 -28.5 69v35h60v-35c0 -12.667 4.33301 -23.334 13 -32.001s19.334 -13 32.001 -13h80
c12.667 0 23.334 4.33301 32.001 13s13 19.334 13 32.001v35h60v-35c0 -28.667 -9.5 -51.667 -28.5 -69s-44.5 -26 -76.5 -26z" />
    <glyph glyph-name="Uring" unicode="&#x16e;" horiz-adv-x="690" 
d="M260 45h170c28 0 50.833 8.83301 68.5 26.5s26.5 40.5 26.5 68.5v560h70v-560c0 -46 -14.5 -82.5 -43.5 -109.5s-69.5 -40.5 -121.5 -40.5h-170c-52 0 -92.5 13.5 -121.5 40.5s-43.5 63.5 -43.5 109.5v560h70v-560c0 -28 8.83301 -50.833 26.5 -68.5
s40.5 -26.5 68.5 -26.5zM367 715h-45c-24.667 0 -45 7.33301 -61 22s-24 32.334 -24 53.001v45c0 20.667 8 38.334 24 53.001s36.333 22 61 22h45c24.667 0 45 -7.33301 61 -22s24 -32.334 24 -53.001v-45c0 -20.667 -8 -38.334 -24 -53.001s-36.333 -22 -61 -22zM362 870
h-35c-10.667 0 -19.167 -3.33301 -25.5 -10s-9.5 -15 -9.5 -25v-45c0 -10 3.16699 -18.333 9.5 -25s14.833 -10 25.5 -10h35c10.667 0 19.167 3.33301 25.5 10s9.5 15 9.5 25v45c0 10 -3.16699 18.333 -9.5 25s-14.833 10 -25.5 10z" />
    <glyph glyph-name="uring" unicode="&#x16f;" 
d="M450 140l-0.000976562 389.999h70v-530h-45l-10 70h-5c-5.33301 -14 -14 -27.333 -26 -40c-25.333 -26.667 -56.666 -40 -93.999 -40h-110c-47.333 0 -84.166 12.333 -110.499 37s-39.5 57.334 -39.5 98.001v405h70v-405c0 -22.667 7.66699 -41.667 23 -57
s34.333 -23 57 -23h110c32 0 60.333 15.667 85 47c9.33301 12.667 17.666 28.667 24.999 48zM321.999 564.999h-45c-24.667 0 -45 7.33301 -61 22s-24 32.334 -24 53.001v45c0 20.667 8 38.334 24 53.001s36.333 22 61 22h45c24.667 0 45 -7.33301 61 -22
s24 -32.334 24 -53.001v-45c0 -20.667 -8 -38.334 -24 -53.001s-36.333 -22 -61 -22zM316.999 719.999h-35c-10.667 0 -19.167 -3.33301 -25.5 -10s-9.5 -15 -9.5 -25v-45c0 -10 3.16699 -18.333 9.5 -25s14.833 -10 25.5 -10h35c10.667 0 19.167 3.33301 25.5 10
s9.5 15 9.5 25v45c0 10 -3.16699 18.333 -9.5 25s-14.833 10 -25.5 10z" />
    <glyph glyph-name="Uhungarumlaut" unicode="&#x170;" horiz-adv-x="690" 
d="M260 45h170c28 0 50.833 8.83301 68.5 26.5s26.5 40.5 26.5 68.5v560h70v-560c0 -46 -14.5 -82.5 -43.5 -109.5s-69.5 -40.5 -121.5 -40.5h-170c-52 0 -92.5 13.5 -121.5 40.5s-43.5 63.5 -43.5 109.5v560h70v-560c0 -28 8.83301 -50.833 26.5 -68.5
s40.5 -26.5 68.5 -26.5zM317 920h80l-115 -160h-55zM472 920h80l-115 -160h-55z" />
    <glyph glyph-name="uhungarumlaut" unicode="&#x171;" 
d="M450 140l-0.000976562 389.999h70v-530h-45l-10 70h-5c-5.33301 -14 -14 -27.333 -26 -40c-25.333 -26.667 -56.666 -40 -93.999 -40h-110c-47.333 0 -84.166 12.333 -110.499 37s-39.5 57.334 -39.5 98.001v405h70v-405c0 -22.667 7.66699 -41.667 23 -57
s34.333 -23 57 -23h110c32 0 60.333 15.667 85 47c9.33301 12.667 17.666 28.667 24.999 48zM276.999 759.999h80l-115 -160h-55zM431.999 759.999h80l-115 -160h-55z" />
    <glyph glyph-name="Uogonek" unicode="&#x172;" horiz-adv-x="690" 
d="M260 45l169.997 0.00195312c28 0 50.833 8.83301 68.5 26.5s26.5 40.5 26.5 68.5v560h70v-560c0 -46 -14.5 -82.5 -43.5 -109.5s-69.5 -40.5 -121.5 -40.5h-13c-6.66699 -2.66699 -13.667 -6 -21 -10s-17.666 -10.333 -30.999 -19s-24.166 -19.334 -32.499 -32.001
s-12.5 -25.667 -12.5 -39c0 -12.667 4.33301 -23.334 13 -32.001s19.334 -13 32.001 -13h80v-45h-80c-70 0 -105 30 -105 90c0 44 25 77.333 75 100h-75c-52 0 -92.5 13.5 -121.5 40.5s-43.5 63.5 -43.5 109.5v560h70v-560c0 -28 8.83301 -50.833 26.5 -68.5
s40.5 -26.5 68.5 -26.5z" />
    <glyph glyph-name="uogonek" unicode="&#x173;" 
d="M450 140l-0.00292969 390.001h70v-545c-16.667 -5.33301 -32.667 -13 -48 -23c-31.333 -20.667 -47 -44.667 -47 -72c0 -12.667 4.33301 -23.334 13 -32.001s19.334 -13 32.001 -13h80v-45h-80c-70 0 -105 30 -105 90c0 31.333 16.667 59.666 50 84.999
c14.667 10 31.334 18.333 50.001 25h10l-10 70h-5c-5.33301 -14 -14 -27.333 -26 -40c-25.333 -26.667 -56.666 -40 -93.999 -40h-110c-47.333 0 -84.166 12.333 -110.499 37s-39.5 57.334 -39.5 98.001v405h70v-405c0 -22.667 7.66699 -41.667 23 -57s34.333 -23 57 -23
h110c32 0 60.333 15.667 85 47c9.33301 12.667 17.666 28.667 24.999 48z" />
    <glyph glyph-name="Wcircumflex" unicode="&#x174;" horiz-adv-x="925" 
d="M465 520h-5l-175 -520h-95l-150 665v35h65l135 -630h5l88 268l82 252h95l82 -252l88 -268h5l135 630h65v-35l-150 -665h-95zM362 690h-65l135 150h60l135 -150h-65l-100 105z" />
    <glyph glyph-name="wcircumflex" unicode="&#x175;" horiz-adv-x="795" 
d="M445 450l135 -380h5l105 460h65v-35l-125 -495h-90l-140 385h-5l-140 -385h-90l-125 495v35h65l105 -460h5l135 380h95zM297 550h-65l135 150h60l135 -150h-65l-100 105z" />
    <glyph glyph-name="Ycircumflex" unicode="&#x176;" horiz-adv-x="580" 
d="M85 700l202 -395h6l202 395h65v-35l-235 -445v-220h-70v220l-235 445v35h65zM190 760h-65l135 150h60l135 -150h-65l-100 105z" />
    <glyph glyph-name="ycircumflex" unicode="&#x177;" horiz-adv-x="535" 
d="M505 495l-198.999 -545c-30.667 -80 -84 -120 -160 -120h-50v55h50c19.333 0 36.666 6.16699 51.999 18.5s26.333 27.833 33 46.5l15 40v9l-216 496v35h65l186 -460h5l154 460h65v-35zM177.001 590h-65l135 150h60l135 -150h-65l-100 105z" />
    <glyph glyph-name="Ydieresis" unicode="&#x178;" horiz-adv-x="580" 
d="M85 700l202 -395h6l202 395h65v-35l-235 -445v-220h-70v220l-235 445v35h65zM155 850h70v-100h-70v100zM355 850h70v-100h-70v100z" />
    <glyph glyph-name="Zacute" unicode="&#x179;" horiz-adv-x="550" 
d="M520 55v-55h-490v50l390 590v5h-370l-20 20v35h480v-50l-390 -590v-5h400zM307 940h85l-115 -160h-60z" />
    <glyph glyph-name="zacute" unicode="&#x17a;" horiz-adv-x="490" 
d="M460 55v-55h-430v50l330 420v5h-310l-20 20v35h420v-50l-330 -420v-5h340zM297 760h85l-115 -160h-60z" />
    <glyph glyph-name="Zdotaccent" unicode="&#x17b;" horiz-adv-x="550" 
d="M520 55v-55h-490v50l390 590v5h-370l-20 20v35h480v-50l-390 -590v-5h400zM240 870h70v-100h-70v100z" />
    <glyph glyph-name="zdotaccent" unicode="&#x17c;" horiz-adv-x="490" 
d="M460 55v-55h-430v50l330 420v5h-310l-20 20v35h420v-50l-330 -420v-5h340zM210 700h70v-100h-70v100z" />
    <glyph glyph-name="Zcaron" unicode="&#x17d;" horiz-adv-x="550" 
d="M520 55v-55h-490v50l390 590v5h-370l-20 20v35h480v-50l-390 -590v-5h400zM100 920h65l100 -105l101 105h64l-135 -150h-60z" />
    <glyph glyph-name="zcaron" unicode="&#x17e;" horiz-adv-x="490" 
d="M460 55v-55h-430v50l330 420v5h-310l-20 20v35h420v-50l-330 -420v-5h340zM80 750h65l100 -105l101 105h64l-135 -150h-60z" />
    <glyph glyph-name="florin" unicode="&#x192;" horiz-adv-x="370" 
d="M0 -170h-50v55h50c22.667 0 41.667 7.66699 57 23s23 34.333 23 57v610c0 40.667 13.167 73.334 39.5 98.001s63.166 37 110.499 37h190v-35l-20 -20h-170c-22.667 0 -41.667 -7.66699 -57 -23s-23 -34.333 -23 -57v-125h180v-55h-180v-430
c0 -40.667 -13.167 -73.334 -39.5 -98.001s-63.166 -37 -110.499 -37z" />
    <glyph glyph-name="AEacute" unicode="&#x1fc;" horiz-adv-x="945" 
d="M180 225l-105 -225h-65v35l324 665h576v-35l-20 -20h-350v-260h285v-55h-285v-275h370v-55h-440v225h-290zM383 645l-173 -365h260v365h-87zM595 940h85l-115 -160h-60z" />
    <glyph glyph-name="aeacute" unicode="&#x1fd;" horiz-adv-x="915" 
d="M845 235l-354.997 -0.000976562v-100c0 -22.667 7.66699 -41.667 23 -57s34.333 -23 57 -23h255v-55h-255c-37.333 0 -69.333 13.333 -96 40c-12.667 12.667 -22.334 26 -29.001 40c-8 -17.333 -18 -32.333 -30 -45c-27.333 -30 -62.333 -45 -105 -45h-105
c-47.333 0 -84.166 12.333 -110.499 37s-39.5 57.334 -39.5 98.001v40c0 40.667 13.167 73.334 39.5 98.001s63.166 37 110.499 37h215v105c0 18 -8 34.167 -24 48.5s-34.667 21.5 -56 21.5h-235v55h235c30 0 57.667 -10 83 -30c11.333 -9.33301 20.333 -19.333 27 -30
c5.33301 10 14.666 21.667 27.999 35c26 23.333 56.667 35 92 35h125c47.333 0 84.166 -12.333 110.499 -37s39.5 -57.334 39.5 -98.001v-170zM420.003 244.999h-214.999c-22.667 0 -41.667 -7.66699 -57 -23s-23 -34.333 -23 -57v-40c0 -22.667 7.66699 -41.667 23 -57
s34.333 -23 57 -23h105c32 0 60.333 15.667 85 47c9.33301 12.667 17.666 28.667 24.999 48v105zM490.004 404.999v-115h285v115c0 22.667 -7.66699 41.667 -23 57s-34.333 23 -57 23h-125c-22.667 0 -41.667 -7.66699 -57 -23s-23 -34.333 -23 -57zM507.004 759.999h85
l-115 -160h-60z" />
    <glyph glyph-name="Oslashacute" unicode="&#x1fe;" horiz-adv-x="670" 
d="M185 -50l-60.001 0.000976562v30l17 36c-41.333 27.333 -62 68.666 -62 123.999v420c0 46 14.5 82.5 43.5 109.5s69.5 40.5 121.5 40.5h180c15.333 0 28.333 -1.33301 39 -4l21 44h60v-30l-17 -37c41.333 -27.333 62 -68.333 62 -123v-420
c0 -46 -14.5 -82.5 -43.5 -109.5s-69.5 -40.5 -121.5 -40.5h-180c-15.333 0 -28.666 1.33301 -39.999 4zM149.999 560.001l-0.000976562 -420c0 -24 7 -44.667 21 -62l269 576c-1.33301 0 -3.66602 0.166992 -6.99902 0.5s-6 0.5 -8 0.5h-180
c-28 0 -50.833 -8.83301 -68.5 -26.5s-26.5 -40.5 -26.5 -68.5zM244.998 45.001h180c28 0 50.833 8.83301 68.5 26.5s26.5 40.5 26.5 68.5v420c0 24 -7 44.333 -21 61l-269 -575c2 -0.666992 7 -1 15 -1zM376.998 940.001h85l-115 -160h-60z" />
    <glyph glyph-name="oslashacute" unicode="&#x1ff;" horiz-adv-x="590" 
d="M140 -50h-55.001v30l27 45c-28 24.667 -42 58 -42 100v280c0 40.667 13.167 73.334 39.5 98.001s63.166 37 110.499 37h150c16.667 0 33.667 -2.33301 51 -7l29 47h55v-30l-28 -45c28.667 -24.667 43 -58 43 -100v-280c0 -40.667 -13.167 -73.334 -39.5 -98.001
s-63.166 -37 -110.499 -37h-150c-17.333 0 -34.666 2.33301 -51.999 7zM449.999 125v280c0 13.333 -3.33301 26.333 -10 39l-241 -397c9.33301 -1.33301 16.333 -2 21 -2h150c22.667 0 41.667 7.66699 57 23s23 34.333 23 57zM139.999 405v-280c0 -15.333 3 -28.333 9 -39
l241 396c-6 2 -12.667 3 -20 3h-150c-22.667 0 -41.667 -7.66699 -57 -23s-23 -34.333 -23 -57zM346.999 760h85l-115 -160h-60z" />
    <glyph glyph-name="Scommaaccent" unicode="&#x218;" horiz-adv-x="590" 
d="M125 550v-55c0 -22 6.66699 -40.167 20 -54.5s31.666 -24.5 54.999 -30.5l210 -50c83.333 -20 125 -68.333 125 -145v-65c0 -46 -14.5 -82.5 -43.5 -109.5s-69.5 -40.5 -121.5 -40.5h-315v55h315c28 0 50.833 8.83301 68.5 26.5s26.5 40.5 26.5 68.5v65
c0 22 -6.66699 40.167 -20 54.5s-31.666 24.5 -54.999 30.5l-210 50c-83.333 20 -125 68.333 -125 145v55c0 46 14.5 82.5 43.5 109.5s69.5 40.5 121.5 40.5h285v-35l-20 -20h-265c-28 0 -50.833 -8.83301 -68.5 -26.5s-26.5 -40.5 -26.5 -68.5zM262 -59h65v-70l-30 -120
h-35v190z" />
    <glyph glyph-name="scommaaccent" unicode="&#x219;" horiz-adv-x="515" 
d="M345 225l-195 30c-70 12 -105 52 -105 120v20c0 40.667 13.167 73.334 39.5 98.001s63.166 37 110.499 37h250v-35l-20 -20h-230c-22.667 0 -41.667 -7.66699 -57 -23s-23 -34.333 -23 -57v-20c0 -38 18.333 -59.667 55 -65l195 -30c70 -12 105 -52 105 -120v-25
c0 -40.667 -13.167 -73.334 -39.5 -98.001s-63.166 -37 -110.499 -37h-275v55h275c22.667 0 41.667 7.66699 57 23s23 34.333 23 57v25c0 38 -18.333 59.667 -55 65zM215 -59h65v-70l-30 -120h-35v190z" />
    <glyph glyph-name="circumflex" unicode="&#x2c6;" horiz-adv-x="410" 
d="M105 550h-65l135 150h60l135 -150h-65l-100 105z" />
    <glyph glyph-name="caron" unicode="&#x2c7;" horiz-adv-x="410" 
d="M40 700h65l100 -105l101 105h64l-135 -150h-60z" />
    <glyph glyph-name="breve" unicode="&#x2d8;" horiz-adv-x="370" 
d="M225 570h-80.002c-32 0 -57.5 8.66699 -76.5 26s-28.5 40.333 -28.5 69v35h60v-35c0 -12.667 4.33301 -23.334 13 -32.001s19.334 -13 32.001 -13h80c12.667 0 23.334 4.33301 32.001 13s13 19.334 13 32.001v35h60v-35c0 -28.667 -9.5 -51.667 -28.5 -69
s-44.5 -26 -76.5 -26z" />
    <glyph glyph-name="dotaccent" unicode="&#x2d9;" horiz-adv-x="150" 
d="M40 700h70v-100h-70v100z" />
    <glyph glyph-name="ring" unicode="&#x2da;" horiz-adv-x="295" 
d="M170 505h-45c-24.667 0 -45 7.33301 -61 22s-24 32.334 -24 53.001v45c0 20.667 8 38.334 24 53.001s36.333 22 61 22h45c24.667 0 45 -7.33301 61 -22s24 -32.334 24 -53.001v-45c0 -20.667 -8 -38.334 -24 -53.001s-36.333 -22 -61 -22zM165 660h-35
c-10.667 0 -19.167 -3.33301 -25.5 -10s-9.5 -15 -9.5 -25v-45c0 -10 3.16699 -18.333 9.5 -25s14.833 -10 25.5 -10h35c10.667 0 19.167 3.33301 25.5 10s9.5 15 9.5 25v45c0 10 -3.16699 18.333 -9.5 25s-14.833 10 -25.5 10z" />
    <glyph glyph-name="ogonek" unicode="&#x2db;" horiz-adv-x="265" 
d="M140 0l54.998 0.00195312v-15c-16.667 -5.33301 -32.667 -13 -48 -23c-31.333 -20.667 -47 -44.667 -47 -72c0 -12.667 4.33301 -23.334 13 -32.001s19.334 -13 32.001 -13h80v-45h-80c-70 0 -105 30 -105 90c0 31.333 16.667 59.666 50 84.999
c14.667 10 31.334 18.333 50.001 25z" />
    <glyph glyph-name="tilde" unicode="&#x2dc;" horiz-adv-x="365" 
d="M265 695l60 0.000976562v-75c0 -17.333 -5.66699 -31.666 -17 -42.999s-25.666 -17 -42.999 -17h-20c-12.667 0 -24 4 -34 12c-5.33301 3.33301 -10.666 7.66602 -15.999 12.999l-45 40c-4 2.66699 -7 5 -9 7c-9.33301 5.33301 -16.333 8 -21 8
c-13.333 0 -20 -8.33301 -20 -25v-50h-60v75c0 17.333 5.66699 31.666 17 42.999s25.666 17 42.999 17h20c11.333 0 22.666 -4.33301 33.999 -13c6.66699 -4 12 -8 16 -12l45 -40l9 -8c6.66699 -4.66699 13.667 -7 21 -7c13.333 0 20 8.33301 20 25v50z" />
    <glyph glyph-name="hungarumlaut" unicode="&#x2dd;" horiz-adv-x="405" 
d="M130 700h80l-115 -160h-55zM285 700h80l-115 -160h-55z" />
    <glyph glyph-name="afii10023" unicode="&#x401;" horiz-adv-x="580" 
d="M95 0v700h450v-35l-20 -20h-360v-260h295v-55h-295v-275h380v-55h-450zM180 890h70v-100h-70v100zM390 890h70v-100h-70v100z" />
    <glyph glyph-name="afii10051" unicode="&#x402;" horiz-adv-x="675" 
d="M470 -10l-45.001 0.000976562v55h45c22.667 0 41.667 7.66699 57 23s23 34.333 23 57v160c0 28 -8.83301 50.833 -26.5 68.5s-40.5 26.5 -68.5 26.5h-245v-380h-70v645h-140v55h430v-35l-20 -20h-200v-210h245c52 0 92.5 -13.5 121.5 -40.5s43.5 -63.5 43.5 -109.5v-160
c0 -40.667 -13.167 -73.334 -39.5 -98.001s-63.166 -37 -110.499 -37z" />
    <glyph glyph-name="afii10052" unicode="&#x403;" horiz-adv-x="540" 
d="M360 930h85l-115 -160h-60zM165 0h-70v700h435v-35l-20 -20h-345v-645z" />
    <glyph glyph-name="afii10053" unicode="&#x404;" horiz-adv-x="570" 
d="M80 150v400c0 46 14.5 82.5 43.5 109.5s69.5 40.5 121.5 40.5h290v-35l-20 -20h-270c-28 0 -50.833 -8.83301 -68.5 -26.5s-26.5 -40.5 -26.5 -68.5v-170h270v-55h-270v-175c0 -28 8.83301 -50.833 26.5 -68.5s40.5 -26.5 68.5 -26.5h290v-55h-290
c-52 0 -92.5 13.5 -121.5 40.5s-43.5 63.5 -43.5 109.5z" />
    <glyph glyph-name="afii10054" unicode="&#x405;" horiz-adv-x="590" 
d="M125 550v-55c0 -22 6.66699 -40.167 20 -54.5s31.666 -24.5 54.999 -30.5l210 -50c83.333 -20 125 -68.333 125 -145v-65c0 -46 -14.5 -82.5 -43.5 -109.5s-69.5 -40.5 -121.5 -40.5h-315v55h315c28 0 50.833 8.83301 68.5 26.5s26.5 40.5 26.5 68.5v65
c0 22 -6.66699 40.167 -20 54.5s-31.666 24.5 -54.999 30.5l-210 50c-83.333 20 -125 68.333 -125 145v55c0 46 14.5 82.5 43.5 109.5s69.5 40.5 121.5 40.5h285v-35l-20 -20h-265c-28 0 -50.833 -8.83301 -68.5 -26.5s-26.5 -40.5 -26.5 -68.5z" />
    <glyph glyph-name="afii10055" unicode="&#x406;" horiz-adv-x="260" 
d="M95 700h70v-700h-70v700z" />
    <glyph glyph-name="afii10056" unicode="&#x407;" horiz-adv-x="290" 
d="M110 700h70v-700h-70v700zM10 865h70v-100h-70v100zM210 865h70v-100h-70v100z" />
    <glyph glyph-name="afii10057" unicode="&#x408;" horiz-adv-x="515" 
d="M255 -10h-245v55h245c28 0 50.833 8.83301 68.5 26.5s26.5 40.5 26.5 68.5v560h70v-560c0 -46 -14.5 -82.5 -43.5 -109.5s-69.5 -40.5 -121.5 -40.5z" />
    <glyph glyph-name="afii10058" unicode="&#x409;" horiz-adv-x="1000" 
d="M780 0l-295.002 0.000976562v645h-250l-45 -505c-4 -48.667 -19 -85.834 -45 -111.501s-62.667 -38.5 -110 -38.5h-20v55h20c22.667 0 41.834 8.5 57.501 25.5s24.834 40.167 27.501 69.5l50 560h385v-270h225c52 0 92.5 -13.5 121.5 -40.5s43.5 -63.5 43.5 -109.5v-130
c0 -46 -14.5 -82.5 -43.5 -109.5s-69.5 -40.5 -121.5 -40.5zM554.998 55.001h225c28 0 50.833 8.83301 68.5 26.5s26.5 40.5 26.5 68.5v130c0 28 -8.83301 50.833 -26.5 68.5s-40.5 26.5 -68.5 26.5h-225v-320z" />
    <glyph glyph-name="afii10059" unicode="&#x40a;" horiz-adv-x="1000" 
d="M780 0h-295v345h-320v-345h-70v700h70v-300h320v300h70v-300h225c52 0 92.5 -13.5 121.5 -40.5s43.5 -63.5 43.5 -109.5v-100c0 -46 -14.5 -82.5 -43.5 -109.5s-69.5 -40.5 -121.5 -40.5zM555 55h225c28 0 50.833 8.83301 68.5 26.5s26.5 40.5 26.5 68.5v100
c0 28 -8.83301 50.833 -26.5 68.5s-40.5 26.5 -68.5 26.5h-225v-290z" />
    <glyph glyph-name="afii10060" unicode="&#x40b;" horiz-adv-x="690" 
d="M210 645v-210h245c52 0 92.5 -13.5 121.5 -40.5s43.5 -63.5 43.5 -109.5v-285h-70v285c0 28 -8.83301 50.833 -26.5 68.5s-40.5 26.5 -68.5 26.5h-245v-380h-70v645h-140v55h430v-35l-20 -20h-200z" />
    <glyph glyph-name="afii10061" unicode="&#x40c;" horiz-adv-x="630" 
d="M370 910h85l-115 -160h-60zM335 380l170 320h65v-35l-175 -310l200 -320v-35h-65l-195 325h-170v-325h-70v700h70v-320h170z" />
    <glyph glyph-name="afii10062" unicode="&#x40e;" 
d="M355 760h-90.002c-32 0 -57.5 8.66699 -76.5 26s-28.5 40.333 -28.5 69v40h60v-40c0 -12.667 4.33301 -23.334 13 -32.001s19.334 -13 32.001 -13h90c12.667 0 23.334 4.33301 32.001 13s13 19.334 13 32.001v40h60v-40c0 -28.667 -9.5 -51.667 -28.5 -69
s-44.5 -26 -76.5 -26zM19.998 700h65l230 -470h5l195 470h65v-35l-230 -535c-40.667 -93.333 -101.667 -140 -183 -140h-57v55h57c23.333 0 43 6.83301 59 20.5s31 35.167 45 64.5l10 20l-261 515v35z" />
    <glyph glyph-name="afii10145" unicode="&#x40f;" horiz-adv-x="680" 
d="M300 0h-205v700h70v-645h350v645h70v-700h-205l-15 -140h-50z" />
    <glyph glyph-name="afii10017" unicode="&#x410;" horiz-adv-x="625" 
d="M155 185l-65 -185h-65v35l240 665h95l240 -665v-35h-65l-65 185h-315zM455 240l-140 390h-5l-140 -390h285z" />
    <glyph glyph-name="afii10018" unicode="&#x411;" horiz-adv-x="645" 
d="M420 0h-325v700h450v-35l-20 -20h-360v-215h255c52 0 92.5 -13.5 121.5 -40.5s43.5 -63.5 43.5 -109.5v-130c0 -46 -14.5 -82.5 -43.5 -109.5s-69.5 -40.5 -121.5 -40.5zM165 55h255c28 0 50.833 8.83301 68.5 26.5s26.5 40.5 26.5 68.5v130
c0 28 -8.83301 50.833 -26.5 68.5s-40.5 26.5 -68.5 26.5h-255v-320z" />
    <glyph glyph-name="afii10019" unicode="&#x412;" horiz-adv-x="650" 
d="M95 700l300 -0.000976562c52 0 92.5 -13.5 121.5 -40.5s43.5 -63.5 43.5 -109.5v-65c0 -39.333 -13.333 -70.333 -40 -93c-11.333 -9.33301 -24.666 -16.666 -39.999 -21.999v-5c21.333 -5.33301 39.666 -13 54.999 -23c36.667 -26 55 -60 55 -102v-90
c0 -46 -14.5 -82.5 -43.5 -109.5s-69.5 -40.5 -121.5 -40.5h-330v700zM165 54.999h260c28 0 50.833 8.83301 68.5 26.5s26.5 40.5 26.5 68.5v90c0 28 -8.83301 50.833 -26.5 68.5s-40.5 26.5 -68.5 26.5h-260v-280zM395 644.999h-230v-255h230
c28 0 50.833 8.83301 68.5 26.5s26.5 40.5 26.5 68.5v65c0 28 -8.83301 50.833 -26.5 68.5s-40.5 26.5 -68.5 26.5z" />
    <glyph glyph-name="afii10020" unicode="&#x413;" horiz-adv-x="540" 
d="M165 0h-70v700h435v-35l-20 -20h-345v-645z" />
    <glyph glyph-name="afii10021" unicode="&#x414;" horiz-adv-x="700" 
d="M175 700l400 -0.000976562v-645h100v-195h-55l-20 140h-525l-20 -140h-55v195h55c13.333 8.66699 24 17.334 32 26.001c22 22 34.667 48.333 38 79zM240 644.999l-44.999 -485c-2.66699 -28.667 -14.334 -54 -35.001 -76c-9.33301 -9.33301 -19.333 -17.333 -30 -24v-5
h375v590h-265z" />
    <glyph glyph-name="afii10022" unicode="&#x415;" horiz-adv-x="580" 
d="M95 0v700h450v-35l-20 -20h-360v-260h295v-55h-295v-275h380v-55h-450z" />
    <glyph glyph-name="afii10024" unicode="&#x416;" horiz-adv-x="960" 
d="M125 700l160 -320h160v320h70v-320h160l160 320h65v-35l-165 -310l190 -320v-35h-65l-185 325h-160v-325h-70v325h-160l-185 -325h-65v35l190 320l-165 310v35h65z" />
    <glyph glyph-name="afii10025" unicode="&#x417;" horiz-adv-x="565" 
d="M325 645h-264.999l-20 20v35h285c52 0 92.5 -13.5 121.5 -40.5s43.5 -63.5 43.5 -109.5v-70c0 -42 -16.667 -73.667 -50 -95c-16 -10 -32.667 -16.667 -50 -20v-5c19.333 -4 37.666 -11 54.999 -21c36.667 -26 55 -60.667 55 -104v-85c0 -46 -14.5 -82.5 -43.5 -109.5
s-69.5 -40.5 -121.5 -40.5h-310v55h310c28 0 50.833 8.83301 68.5 26.5s26.5 40.5 26.5 68.5v85c0 28 -8.83301 50.833 -26.5 68.5s-40.5 26.5 -68.5 26.5h-175v55h165c28 0 50.833 8.83301 68.5 26.5s26.5 40.5 26.5 68.5v70c0 28 -8.83301 50.833 -26.5 68.5
s-40.5 26.5 -68.5 26.5z" />
    <glyph glyph-name="afii10026" unicode="&#x418;" horiz-adv-x="680" 
d="M180 0h-85v700h70v-460l-10 -145h5l340 605h85v-700h-70v460l10 145h-5z" />
    <glyph glyph-name="afii10027" unicode="&#x419;" horiz-adv-x="680" 
d="M180 0h-85v700h70v-460l-10 -145h5l340 605h85v-700h-70v460l10 145h-5zM385 770h-90.002c-32 0 -57.5 8.66699 -76.5 26s-28.5 40.333 -28.5 69v40h60v-40c0 -12.667 4.33301 -23.334 13 -32.001s19.334 -13 32.001 -13h90c12.667 0 23.334 4.33301 32.001 13
s13 19.334 13 32.001v40h60v-40c0 -28.667 -9.5 -51.667 -28.5 -69s-44.5 -26 -76.5 -26z" />
    <glyph glyph-name="afii10028" unicode="&#x41a;" horiz-adv-x="630" 
d="M335 380l170 320h65v-35l-175 -310l200 -320v-35h-65l-195 325h-170v-325h-70v700h70v-320h170z" />
    <glyph glyph-name="afii10029" unicode="&#x41b;" horiz-adv-x="685" 
d="M170 700l419.998 0.000976562v-700h-70v645h-285l-45 -505c-4 -48.667 -19 -85.834 -45 -111.501s-62.667 -38.5 -110 -38.5h-20v55h20c22.667 0 41.834 8.5 57.501 25.5s24.834 40.167 27.501 69.5z" />
    <glyph glyph-name="afii10030" unicode="&#x41c;" horiz-adv-x="965" 
d="M530 85h-95l-215 540h-5l-80 -625h-65v35l90 665h100l220 -540h5l220 540h100l90 -665v-35h-65l-80 625h-5z" />
    <glyph glyph-name="afii10031" unicode="&#x41d;" horiz-adv-x="680" 
d="M95 700h70v-320h350v320h70v-700h-70v325h-350v-325h-70v700z" />
    <glyph glyph-name="afii10032" unicode="&#x41e;" horiz-adv-x="670" 
d="M425 -10h-180c-52 0 -92.5 13.5 -121.5 40.5s-43.5 63.5 -43.5 109.5v420c0 46 14.5 82.5 43.5 109.5s69.5 40.5 121.5 40.5h180c52 0 92.5 -13.5 121.5 -40.5s43.5 -63.5 43.5 -109.5v-420c0 -46 -14.5 -82.5 -43.5 -109.5s-69.5 -40.5 -121.5 -40.5zM245 45h180
c28 0 50.833 8.83301 68.5 26.5s26.5 40.5 26.5 68.5v420c0 28 -8.83301 50.833 -26.5 68.5s-40.5 26.5 -68.5 26.5h-180c-28 0 -50.833 -8.83301 -68.5 -26.5s-26.5 -40.5 -26.5 -68.5v-420c0 -28 8.83301 -50.833 26.5 -68.5s40.5 -26.5 68.5 -26.5z" />
    <glyph glyph-name="afii10033" unicode="&#x41f;" horiz-adv-x="680" 
d="M95 700h490v-700h-70v645h-350v-645h-70v700z" />
    <glyph glyph-name="afii10034" unicode="&#x420;" horiz-adv-x="630" 
d="M95 700h310c52 0 92.5 -13.5 121.5 -40.5s43.5 -63.5 43.5 -109.5v-160c0 -46 -14.5 -82.5 -43.5 -109.5s-69.5 -40.5 -121.5 -40.5h-240v-240h-70v700zM405 645h-240v-350h240c28 0 50.833 8.83301 68.5 26.5s26.5 40.5 26.5 68.5v160c0 28 -8.83301 50.833 -26.5 68.5
s-40.5 26.5 -68.5 26.5z" />
    <glyph glyph-name="afii10035" unicode="&#x421;" horiz-adv-x="570" 
d="M80 150v400c0 46 14.5 82.5 43.5 109.5s69.5 40.5 121.5 40.5h290v-35l-20 -20h-270c-28 0 -50.833 -8.83301 -68.5 -26.5s-26.5 -40.5 -26.5 -68.5v-400c0 -28 8.83301 -50.833 26.5 -68.5s40.5 -26.5 68.5 -26.5h290v-55h-290c-52 0 -92.5 13.5 -121.5 40.5
s-43.5 63.5 -43.5 109.5z" />
    <glyph glyph-name="afii10036" unicode="&#x422;" horiz-adv-x="550" 
d="M310 645v-645h-70v645h-220v55h510v-35l-20 -20h-200z" />
    <glyph glyph-name="afii10037" unicode="&#x423;" 
d="M20 700h65l230 -470h5l195 470h65v-35l-230 -535c-40.667 -93.333 -101.667 -140 -183 -140h-57v55h57c23.333 0 43 6.83301 59 20.5s31 35.167 45 64.5l10 20l-261 515v35z" />
    <glyph glyph-name="afii10038" unicode="&#x424;" horiz-adv-x="900" 
d="M65 200v310c0 46 14.5 82.5 43.5 109.5s69.5 40.5 121.5 40.5h185v90h70v-90h185c52 0 92.5 -13.5 121.5 -40.5s43.5 -63.5 43.5 -109.5v-310c0 -46 -14.5 -82.5 -43.5 -109.5s-69.5 -40.5 -121.5 -40.5h-185v-90h-70v90h-185c-52 0 -92.5 13.5 -121.5 40.5
s-43.5 63.5 -43.5 109.5zM135 510v-310c0 -28 8.83301 -50.833 26.5 -68.5s40.5 -26.5 68.5 -26.5h185v500h-185c-28 0 -50.833 -8.83301 -68.5 -26.5s-26.5 -40.5 -26.5 -68.5zM670 605h-185v-500h185c28 0 50.833 8.83301 68.5 26.5s26.5 40.5 26.5 68.5v310
c0 28 -8.83301 50.833 -26.5 68.5s-40.5 26.5 -68.5 26.5z" />
    <glyph glyph-name="afii10039" unicode="&#x425;" horiz-adv-x="595" 
d="M295 305l-200 -305h-65v35l220 315l-205 315v35h65l185 -300h5l185 300h65v-35l-205 -315l220 -315v-35h-65l-200 305h-5z" />
    <glyph glyph-name="afii10040" unicode="&#x426;" horiz-adv-x="700" 
d="M600 0h-505v700h70v-645h340v645h70v-645h100v-195h-55z" />
    <glyph glyph-name="afii10041" unicode="&#x427;" horiz-adv-x="645" 
d="M140 700v-285c0 -28 8.83301 -50.833 26.5 -68.5s40.5 -26.5 68.5 -26.5h245v380h70v-700h-70v265h-245c-52 0 -92.5 13.5 -121.5 40.5s-43.5 63.5 -43.5 109.5v285h70z" />
    <glyph glyph-name="afii10042" unicode="&#x428;" horiz-adv-x="1010" 
d="M915 0h-820v700h70v-645h305v645h70v-645h305v645h70v-700z" />
    <glyph glyph-name="afii10043" unicode="&#x429;" horiz-adv-x="1040" 
d="M940 0h-845v700h70v-645h305v645h70v-645h305v645h70v-645h100v-195h-55z" />
    <glyph glyph-name="afii10044" unicode="&#x42a;" horiz-adv-x="705" 
d="M485 0h-315v645h-170v55h240v-270h245c52 0 92.5 -13.5 121.5 -40.5s43.5 -63.5 43.5 -109.5v-130c0 -46 -14.5 -82.5 -43.5 -109.5s-69.5 -40.5 -121.5 -40.5zM240 55h245c28 0 50.833 8.83301 68.5 26.5s26.5 40.5 26.5 68.5v130c0 28 -8.83301 50.833 -26.5 68.5
s-40.5 26.5 -68.5 26.5h-245v-320z" />
    <glyph glyph-name="afii10045" unicode="&#x42b;" horiz-adv-x="900" 
d="M410 0h-315v700h70v-270h245c52 0 92.5 -13.5 121.5 -40.5s43.5 -63.5 43.5 -109.5v-130c0 -46 -14.5 -82.5 -43.5 -109.5s-69.5 -40.5 -121.5 -40.5zM165 55h245c28 0 50.833 8.83301 68.5 26.5s26.5 40.5 26.5 68.5v130c0 28 -8.83301 50.833 -26.5 68.5
s-40.5 26.5 -68.5 26.5h-245v-320zM735 700h70v-700h-70v700z" />
    <glyph glyph-name="afii10046" unicode="&#x42c;" horiz-adv-x="640" 
d="M420 0h-325v700h70v-270h255c52 0 92.5 -13.5 121.5 -40.5s43.5 -63.5 43.5 -109.5v-130c0 -46 -14.5 -82.5 -43.5 -109.5s-69.5 -40.5 -121.5 -40.5zM165 55h255c28 0 50.833 8.83301 68.5 26.5s26.5 40.5 26.5 68.5v130c0 28 -8.83301 50.833 -26.5 68.5
s-40.5 26.5 -68.5 26.5h-255v-320z" />
    <glyph glyph-name="afii10047" unicode="&#x42d;" horiz-adv-x="570" 
d="M490 550v-400c0 -46 -14.5 -82.5 -43.5 -109.5s-69.5 -40.5 -121.5 -40.5h-290v55h290c28 0 50.833 8.83301 68.5 26.5s26.5 40.5 26.5 68.5v175h-270v55h270v170c0 28 -8.83301 50.833 -26.5 68.5s-40.5 26.5 -68.5 26.5h-270l-20 20v35h290
c52 0 92.5 -13.5 121.5 -40.5s43.5 -63.5 43.5 -109.5z" />
    <glyph glyph-name="afii10048" unicode="&#x42e;" horiz-adv-x="915" 
d="M95 700h70v-320h180v180c0 46 14.5 82.5 43.5 109.5s69.5 40.5 121.5 40.5h160c52 0 92.5 -13.5 121.5 -40.5s43.5 -63.5 43.5 -109.5v-420c0 -46 -14.5 -82.5 -43.5 -109.5s-69.5 -40.5 -121.5 -40.5h-160c-52 0 -92.5 13.5 -121.5 40.5s-43.5 63.5 -43.5 109.5v185
h-180v-325h-70v700zM510 45h160c28 0 50.833 8.83301 68.5 26.5s26.5 40.5 26.5 68.5v420c0 28 -8.83301 50.833 -26.5 68.5s-40.5 26.5 -68.5 26.5h-160c-28 0 -50.833 -8.83301 -68.5 -26.5s-26.5 -40.5 -26.5 -68.5v-420c0 -28 8.83301 -50.833 26.5 -68.5
s40.5 -26.5 68.5 -26.5z" />
    <glyph glyph-name="afii10049" unicode="&#x42f;" horiz-adv-x="650" 
d="M235 700h320v-700h-70v280h-180l-185 -280h-65v35l175 250c-49.333 0 -88.333 13.333 -117 40s-43 61.667 -43 105v120c0 46 14.5 82.5 43.5 109.5s69.5 40.5 121.5 40.5zM485 645h-250c-28 0 -50.833 -8.83301 -68.5 -26.5s-26.5 -40.5 -26.5 -68.5v-120
c0 -28 8.83301 -50.833 26.5 -68.5s40.5 -26.5 68.5 -26.5h250v310z" />
    <glyph glyph-name="afii10065" unicode="&#x430;" horiz-adv-x="570" 
d="M105 475v54.999h235c47.333 0 84.166 -12.333 110.499 -37s39.5 -57.334 39.5 -98.001v-395h-45l-10 70h-5c-5.33301 -14 -14 -27.333 -26 -40c-25.333 -26.667 -56.666 -40 -93.999 -40h-105c-47.333 0 -84.166 12.333 -110.499 37s-39.5 57.334 -39.5 98.001v40
c0 40.667 13.167 73.334 39.5 98.001s63.166 37 110.499 37h215v95c0 22.667 -7.66699 41.667 -23 57s-34.333 23 -57 23h-235zM420 244.999h-214.999c-22.667 0 -41.667 -7.66699 -57 -23s-23 -34.333 -23 -57v-40c0 -22.667 7.66699 -41.667 23 -57s34.333 -23 57 -23h105
c32 0 60.333 15.667 85 47c9.33301 12.667 17.666 28.667 24.999 48v105z" />
    <glyph glyph-name="afii10066" unicode="&#x431;" horiz-adv-x="590" 
d="M145 525l-0.00292969 -44.999h225c47.333 0 84.166 -12.333 110.499 -37s39.5 -57.334 39.5 -98.001v-220c0 -40.667 -13.167 -73.334 -39.5 -98.001s-63.166 -37 -110.499 -37h-145c-47.333 0 -84.166 12.333 -110.499 37s-39.5 57.334 -39.5 98.001v400
c0 48.667 13.333 88 40 118s63.334 49 110.001 57l265 40l10 -55l-265 -40c-27.333 -4 -49.166 -16 -65.499 -36s-24.5 -48 -24.5 -84zM144.997 425.001v-300c0 -22.667 7.66699 -41.667 23 -57s34.333 -23 57 -23h145c22.667 0 41.667 7.66699 57 23s23 34.333 23 57v220
c0 22.667 -7.66699 41.667 -23 57s-34.333 23 -57 23h-225z" />
    <glyph glyph-name="afii10067" unicode="&#x432;" horiz-adv-x="570" 
d="M80 530l260 0.00195312c47.333 0 84.166 -12.333 110.499 -37s39.5 -57.334 39.5 -98.001v-19c0 -34 -12.667 -61 -38 -81c-8.66699 -7.33301 -21 -14 -37 -20v-5c18 -4.66699 34.667 -11.667 50 -21c33.333 -21.333 50 -51 50 -89v-25
c0 -40.667 -13.167 -73.334 -39.5 -98.001s-63.166 -37 -110.499 -37h-285v530zM150 55.002h215c22.667 0 41.667 7.66699 57 23s23 34.333 23 57v25c0 22.667 -7.66699 41.667 -23 57s-34.333 23 -57 23h-215v-185zM340 475.002h-190v-180h190
c22.667 0 41.667 7.66699 57 23s23 34.333 23 57v20c0 22.667 -7.66699 41.667 -23 57s-34.333 23 -57 23z" />
    <glyph glyph-name="afii10068" unicode="&#x433;" horiz-adv-x="460" 
d="M80 530h370v-35l-20 -20h-280v-475h-70v530z" />
    <glyph glyph-name="afii10069" unicode="&#x434;" horiz-adv-x="620" 
d="M150 530h354.999v-475h90v-185h-55l-20 130h-445l-20 -130h-55v185h40c8.66699 4.66699 20.334 13 35.001 25c24 20 37.333 43.333 40 70zM214.999 475l-30 -325c-2.66699 -26 -15 -48.667 -37 -68c-9.33301 -8 -20.333 -15.333 -33 -22v-5h320v420h-220z" />
    <glyph glyph-name="afii10070" unicode="&#x435;" horiz-adv-x="565" 
d="M495 235l-354.999 -0.000976562v-100c0 -22.667 7.66699 -41.667 23 -57s34.333 -23 57 -23h255v-55h-255c-47.333 0 -84.166 12.333 -110.499 37s-39.5 57.334 -39.5 98.001v270c0 40.667 13.167 73.334 39.5 98.001s63.166 37 110.499 37h125
c47.333 0 84.166 -12.333 110.499 -37s39.5 -57.334 39.5 -98.001v-170zM140.001 404.999v-115h285v115c0 22.667 -7.66699 41.667 -23 57s-34.333 23 -57 23h-125c-22.667 0 -41.667 -7.66699 -57 -23s-23 -34.333 -23 -57z" />
    <glyph glyph-name="afii10072" unicode="&#x436;" horiz-adv-x="830" 
d="M115 530l125 -235h140v235h70v-235h140l125 235h65v-35l-135 -225l150 -235v-35h-65l-140 240h-140v-240h-70v240h-140l-140 -240h-65v35l150 235l-135 225v35h65z" />
    <glyph glyph-name="afii10073" unicode="&#x437;" horiz-adv-x="505" 
d="M290 475l-230 0.00195312l-20 20v35h250c47.333 0 84.166 -12.333 110.499 -37s39.5 -57.334 39.5 -98.001v-19c0 -34.667 -15 -61.667 -45 -81c-11.333 -8 -26.333 -14.667 -45 -20v-5c18 -4.66699 34.667 -11.667 50 -21c33.333 -21.333 50 -51 50 -89v-25
c0 -40.667 -13.167 -73.334 -39.5 -98.001s-63.166 -37 -110.499 -37h-275v55h275c22.667 0 41.667 7.66699 57 23s23 34.333 23 57v25c0 22.667 -7.66699 41.667 -23 57s-34.333 23 -57 23h-157v55h147c22.667 0 41.667 7.66699 57 23s23 34.333 23 57v20
c0 22.667 -7.66699 41.667 -23 57s-34.333 23 -57 23z" />
    <glyph glyph-name="afii10074" unicode="&#x438;" 
d="M455 445l-295 -445h-80v530h70v-310l-10 -135h5l151 228l144 217h80v-530h-70v310l10 135h-5z" />
    <glyph glyph-name="afii10075" unicode="&#x439;" 
d="M455 445l-295 -445h-80v530h70v-310l-10 -135h5l151 228l144 217h80v-530h-70v310l10 135h-5zM340 600h-80.002c-32 0 -57.5 8.66699 -76.5 26s-28.5 40.333 -28.5 69v35h60v-35c0 -12.667 4.33301 -23.334 13 -32.001s19.334 -13 32.001 -13h80
c12.667 0 23.334 4.33301 32.001 13s13 19.334 13 32.001v35h60v-35c0 -28.667 -9.5 -51.667 -28.5 -69s-44.5 -26 -76.5 -26z" />
    <glyph glyph-name="afii10076" unicode="&#x43a;" horiz-adv-x="550" 
d="M300 295l135 235h65v-35l-145 -225l160 -235v-35h-65l-150 240h-150v-240h-70v530h70v-235h150z" />
    <glyph glyph-name="afii10077" unicode="&#x43b;" horiz-adv-x="590" 
d="M15 -10v55h20c20.667 0 37.667 7.33301 51 22s21.333 35.667 24 63l35 400h365v-530h-70v475h-230l-30 -345c-3.33301 -43.333 -17.833 -77.5 -43.5 -102.5s-59.5 -37.5 -101.5 -37.5h-20z" />
    <glyph glyph-name="afii10078" unicode="&#x43c;" horiz-adv-x="795" 
d="M445 60h-95l-165 395h-5l-60 -455h-65v35l70 495h100l170 -400h5l170 400h100l70 -495v-35h-65l-60 455h-5z" />
    <glyph glyph-name="afii10079" unicode="&#x43d;" 
d="M150 0h-70v530h70v-235h300v235h70v-530h-70v240h-300v-240z" />
    <glyph glyph-name="afii10080" unicode="&#x43e;" horiz-adv-x="590" 
d="M370 -10h-150c-47.333 0 -84.166 12.333 -110.499 37s-39.5 57.334 -39.5 98.001v280c0 40.667 13.167 73.334 39.5 98.001s63.166 37 110.499 37h150c47.333 0 84.166 -12.333 110.499 -37s39.5 -57.334 39.5 -98.001v-280c0 -40.667 -13.167 -73.334 -39.5 -98.001
s-63.166 -37 -110.499 -37zM140 405v-280c0 -22.667 7.66699 -41.667 23 -57s34.333 -23 57 -23h150c22.667 0 41.667 7.66699 57 23s23 34.333 23 57v280c0 22.667 -7.66699 41.667 -23 57s-34.333 23 -57 23h-150c-22.667 0 -41.667 -7.66699 -57 -23s-23 -34.333 -23 -57
z" />
    <glyph glyph-name="afii10081" unicode="&#x43f;" 
d="M150 0h-70v530h440v-530h-70v475h-300v-475z" />
    <glyph glyph-name="afii10082" unicode="&#x440;" horiz-adv-x="585" 
d="M80 530l45.001 0.00195312l10 -70h5c5.33301 14 14 27.333 26 40c25.333 26.667 56.666 40 93.999 40h105c47.333 0 84.166 -12.333 110.499 -37s39.5 -57.334 39.5 -98.001v-270c0 -40.667 -13.167 -73.334 -39.5 -98.001s-63.166 -37 -110.499 -37h-215v-170h-70v700z
M150.001 390.002v-334.999h215c22.667 0 41.667 7.66699 57 23s23 34.333 23 57v270c0 22.667 -7.66699 41.667 -23 57s-34.333 23 -57 23h-105c-34 0 -62.333 -16 -85 -48c-10 -12.667 -18.333 -28.334 -25 -47.001z" />
    <glyph glyph-name="afii10083" unicode="&#x441;" horiz-adv-x="505" 
d="M470 0l-250 -0.00195312c-47.333 0 -84.166 12.333 -110.499 37s-39.5 57.334 -39.5 98.001v260c0 40.667 13.167 73.334 39.5 98.001s63.166 37 110.499 37h250v-35l-20 -20h-230c-22.667 0 -41.667 -7.66699 -57 -23s-23 -34.333 -23 -57v-260
c0 -22.667 7.66699 -41.667 23 -57s34.333 -23 57 -23h250v-55z" />
    <glyph glyph-name="afii10084" unicode="&#x442;" horiz-adv-x="490" 
d="M20 530h450v-35l-20 -20h-170v-475h-70v475h-190v55z" />
    <glyph glyph-name="afii10085" unicode="&#x443;" horiz-adv-x="535" 
d="M505 495l-198.999 -545c-30.667 -80 -84 -120 -160 -120h-50v55h50c19.333 0 36.666 6.16699 51.999 18.5s26.333 27.833 33 46.5l15 40v9l-216 496v35h65l186 -460h5l154 460h65v-35z" />
    <glyph glyph-name="afii10086" unicode="&#x444;" horiz-adv-x="790" 
d="M720 395v-260c0 -40.667 -13.167 -73.334 -39.5 -98.001s-63.166 -37 -110.499 -37h-140v-170h-70v170h-140c-47.333 0 -84.166 12.333 -110.499 37s-39.5 57.334 -39.5 98.001v260c0 40.667 13.167 73.334 39.5 98.001s63.166 37 110.499 37h140v170h70v-170h140
c47.333 0 84.166 -12.333 110.499 -37s39.5 -57.334 39.5 -98.001zM430 475v-420h140c22.667 0 41.667 7.66699 57 23s23 34.333 23 57v260c0 22.667 -7.66699 41.667 -23 57s-34.333 23 -57 23h-140zM360 55v420h-140c-22.667 0 -41.667 -7.66699 -57 -23
s-23 -34.333 -23 -57v-260c0 -22.667 7.66699 -41.667 23 -57s34.333 -23 57 -23h140z" />
    <glyph glyph-name="afii10087" unicode="&#x445;" horiz-adv-x="515" 
d="M255 315h5l150 215h65v-35l-175 -230l185 -230v-35h-65l-160 215h-5l-160 -215h-65v35l185 230l-175 230v35h65z" />
    <glyph glyph-name="afii10088" unicode="&#x446;" horiz-adv-x="625" 
d="M80 530h70v-475h290v475h70v-475h90v-185h-55l-20 130h-445v530z" />
    <glyph glyph-name="afii10089" unicode="&#x447;" horiz-adv-x="570" 
d="M60 325l-0.000976562 204.999h70v-205c0 -22.667 7.66699 -41.667 23 -57s34.333 -23 57 -23h210v285h70v-530h-70v190h-210c-47.333 0 -84.166 12.333 -110.499 37s-39.5 57.334 -39.5 98.001z" />
    <glyph glyph-name="afii10090" unicode="&#x448;" horiz-adv-x="870" 
d="M400 530h70v-475h250v475h70v-530h-710v530h70v-475h250v475z" />
    <glyph glyph-name="afii10091" unicode="&#x449;" horiz-adv-x="905" 
d="M400 530h70v-475h250v475h70v-475h90v-185h-55l-20 130h-725v530h70v-475h250v475z" />
    <glyph glyph-name="afii10092" unicode="&#x44a;" horiz-adv-x="625" 
d="M575 205v-69.998c0 -40.667 -13.167 -73.334 -39.5 -98.001s-63.166 -37 -110.499 -37h-270v475h-155v55h225v-190h200c47.333 0 84.166 -12.333 110.499 -37s39.5 -57.334 39.5 -98.001zM505 135.002v70c0 22.667 -7.66699 41.667 -23 57s-34.333 23 -57 23h-200v-230
h200c22.667 0 41.667 7.66699 57 23s23 34.333 23 57z" />
    <glyph glyph-name="afii10093" unicode="&#x44b;" horiz-adv-x="775" 
d="M500 205v-69.998c0 -40.667 -13.167 -73.334 -39.5 -98.001s-63.166 -37 -110.499 -37h-270v530h70v-190h200c47.333 0 84.166 -12.333 110.499 -37s39.5 -57.334 39.5 -98.001zM430 135.002v70c0 22.667 -7.66699 41.667 -23 57s-34.333 23 -57 23h-200v-230h200
c22.667 0 41.667 7.66699 57 23s23 34.333 23 57zM695 0.00195312h-70v530h70v-530z" />
    <glyph glyph-name="afii10094" unicode="&#x44c;" horiz-adv-x="560" 
d="M510 205v-69.998c0 -40.667 -13.167 -73.334 -39.5 -98.001s-63.166 -37 -110.499 -37h-280v530h70v-190h210c47.333 0 84.166 -12.333 110.499 -37s39.5 -57.334 39.5 -98.001zM440 135.002v70c0 22.667 -7.66699 41.667 -23 57s-34.333 23 -57 23h-210v-230h210
c22.667 0 41.667 7.66699 57 23s23 34.333 23 57z" />
    <glyph glyph-name="afii10095" unicode="&#x44d;" horiz-adv-x="505" 
d="M285 0l-250 0.00195312v55h250c22.667 0 41.667 7.66699 57 23s23 34.333 23 57v105h-220v55h220v100c0 22.667 -7.66699 41.667 -23 57s-34.333 23 -57 23h-230l-20 20v35h250c47.333 0 84.166 -12.333 110.499 -37s39.5 -57.334 39.5 -98.001v-260
c0 -40.667 -13.167 -73.334 -39.5 -98.001s-63.166 -37 -110.499 -37z" />
    <glyph glyph-name="afii10096" unicode="&#x44e;" horiz-adv-x="805" 
d="M150 0h-70v530h70v-235h155v110c0 40.667 13.167 73.334 39.5 98.001s63.166 37 110.499 37h130c47.333 0 84.166 -12.333 110.499 -37s39.5 -57.334 39.5 -98.001v-280c0 -40.667 -13.167 -73.334 -39.5 -98.001s-63.166 -37 -110.499 -37h-130
c-47.333 0 -84.166 12.333 -110.499 37s-39.5 57.334 -39.5 98.001v115h-155v-240zM375 405v-280c0 -22.667 7.66699 -41.667 23 -57s34.333 -23 57 -23h130c22.667 0 41.667 7.66699 57 23s23 34.333 23 57v280c0 22.667 -7.66699 41.667 -23 57s-34.333 23 -57 23h-130
c-22.667 0 -41.667 -7.66699 -57 -23s-23 -34.333 -23 -57z" />
    <glyph glyph-name="afii10097" unicode="&#x44f;" horiz-adv-x="570" 
d="M65 335l0.000976562 59.999c0 40.667 13.167 73.334 39.5 98.001s63.166 37 110.499 37h275v-530h-70v200h-160l-150 -200h-65v35l145 170c-35.333 0 -65 12.333 -89 37s-36 55.667 -36 93zM135.001 394.999v-60c0 -22.667 7.66699 -41.667 23 -57s34.333 -23 57 -23h205
v220h-205c-22.667 0 -41.667 -7.66699 -57 -23s-23 -34.333 -23 -57z" />
    <glyph glyph-name="afii10071" unicode="&#x451;" horiz-adv-x="565" 
d="M495 235l-354.999 -0.000976562v-100c0 -22.667 7.66699 -41.667 23 -57s34.333 -23 57 -23h255v-55h-255c-47.333 0 -84.166 12.333 -110.499 37s-39.5 57.334 -39.5 98.001v270c0 40.667 13.167 73.334 39.5 98.001s63.166 37 110.499 37h125
c47.333 0 84.166 -12.333 110.499 -37s39.5 -57.334 39.5 -98.001v-170zM140.001 404.999v-115h285v115c0 22.667 -7.66699 41.667 -23 57s-34.333 23 -57 23h-125c-22.667 0 -41.667 -7.66699 -57 -23s-23 -34.333 -23 -57zM150.001 719.999h70v-100h-70v100z
M350.001 719.999h70v-100h-70v100z" />
    <glyph glyph-name="afii10099" unicode="&#x452;" horiz-adv-x="585" 
d="M385 -10l-25 0.00195312v55h25c22.667 0 41.667 7.66699 57 23s23 34.333 23 57v170c0 22.667 -7.66699 41.667 -23 57s-34.333 23 -57 23h-215v-375h-70v530h-90v55h90l35 120h35v-120h180v-55h-180v-100h215c47.333 0 84.166 -12.333 110.499 -37
s39.5 -57.334 39.5 -98.001v-170c0 -40.667 -13.167 -73.334 -39.5 -98.001s-63.166 -37 -110.499 -37z" />
    <glyph glyph-name="afii10100" unicode="&#x453;" horiz-adv-x="460" 
d="M307 760h85l-115 -160h-60zM80 530h370v-35l-20 -20h-280v-475h-70v530z" />
    <glyph glyph-name="afii10101" unicode="&#x454;" horiz-adv-x="505" 
d="M470 0l-250 -0.00195312c-47.333 0 -84.166 12.333 -110.499 37s-39.5 57.334 -39.5 98.001v260c0 40.667 13.167 73.334 39.5 98.001s63.166 37 110.499 37h250v-35l-20 -20h-230c-22.667 0 -41.667 -7.66699 -57 -23s-23 -34.333 -23 -57v-100h220v-55h-220v-105
c0 -22.667 7.66699 -41.667 23 -57s34.333 -23 57 -23h250v-55z" />
    <glyph glyph-name="afii10102" unicode="&#x455;" horiz-adv-x="515" 
d="M345 225l-195 30c-70 12 -105 52 -105 120v20c0 40.667 13.167 73.334 39.5 98.001s63.166 37 110.499 37h250v-35l-20 -20h-230c-22.667 0 -41.667 -7.66699 -57 -23s-23 -34.333 -23 -57v-20c0 -38 18.333 -59.667 55 -65l195 -30c70 -12 105 -52 105 -120v-25
c0 -40.667 -13.167 -73.334 -39.5 -98.001s-63.166 -37 -110.499 -37h-275v55h275c22.667 0 41.667 7.66699 57 23s23 34.333 23 57v25c0 38 -18.333 59.667 -55 65z" />
    <glyph glyph-name="afii10103" unicode="&#x456;" horiz-adv-x="230" 
d="M80 530h70v-530h-70v530zM80 710h70v-100h-70v100z" />
    <glyph glyph-name="afii10104" unicode="&#x457;" horiz-adv-x="290" 
d="M110 530h70v-530h-70v530zM10 710h70v-100h-70v100zM210 710h70v-100h-70v100z" />
    <glyph glyph-name="afii10105" unicode="&#x458;" horiz-adv-x="250" 
d="M20 -170l-95.001 0.000976562v55h95c22.667 0 41.667 7.66699 57 23s23 34.333 23 57v565h70v-565c0 -40.667 -13.167 -73.334 -39.5 -98.001s-63.166 -37 -110.499 -37zM99.999 710.001h70v-100h-70v100z" />
    <glyph glyph-name="afii10106" unicode="&#x459;" horiz-adv-x="875" 
d="M825 205v-69.998c0 -40.667 -13.167 -73.334 -39.5 -98.001s-63.166 -37 -110.499 -37h-260v475h-205l-30 -345c-3.33301 -43.333 -17.833 -77.5 -43.5 -102.5s-59.5 -37.5 -101.5 -37.5h-20v55h20c20.667 0 37.667 7.33301 51 22s21.333 35.667 24 63l35 400h340v-190
h190c47.333 0 84.166 -12.333 110.499 -37s39.5 -57.334 39.5 -98.001zM755 135.002v70c0 22.667 -7.66699 41.667 -23 57s-34.333 23 -57 23h-190v-230h190c22.667 0 41.667 7.66699 57 23s23 34.333 23 57z" />
    <glyph glyph-name="afii10107" unicode="&#x45a;" horiz-adv-x="890" 
d="M840 180v-44.998c0 -40.667 -13.167 -73.334 -39.5 -98.001s-63.166 -37 -110.499 -37h-260v260h-280v-260h-70v530h70v-215h280v215h70v-215h190c47.333 0 84.166 -12.333 110.499 -37s39.5 -57.334 39.5 -98.001zM770 135.002v45c0 22.667 -7.66699 41.667 -23 57
s-34.333 23 -57 23h-190v-205h190c22.667 0 41.667 7.66699 57 23s23 34.333 23 57z" />
    <glyph glyph-name="afii10108" unicode="&#x45b;" horiz-adv-x="610" 
d="M170 375l0.000976562 -374.999h-70v530h-90v55h90l35 120h35v-120h180v-55h-180v-100h215c47.333 0 84.166 -12.333 110.499 -37s39.5 -57.334 39.5 -98.001v-295h-70v295c0 22.667 -7.66699 41.667 -23 57s-34.333 23 -57 23h-215z" />
    <glyph glyph-name="afii10109" unicode="&#x45c;" horiz-adv-x="550" 
d="M300 295l135 235h65v-35l-145 -225l160 -235v-35h-65l-150 240h-150v-240h-70v530h70v-235h150zM335 750h85l-115 -160h-60z" />
    <glyph glyph-name="afii10110" unicode="&#x45e;" horiz-adv-x="535" 
d="M315 590h-80.002c-32 0 -57.5 8.66699 -76.5 26s-28.5 40.333 -28.5 69v35h60v-35c0 -12.667 4.33301 -23.334 13 -32.001s19.334 -13 32.001 -13h80c12.667 0 23.334 4.33301 32.001 13s13 19.334 13 32.001v35h60v-35c0 -28.667 -9.5 -51.667 -28.5 -69
s-44.5 -26 -76.5 -26zM504.998 495l-198.999 -545c-30.667 -80 -84 -120 -160 -120h-50v55h50c19.333 0 36.666 6.16699 51.999 18.5s26.333 27.833 33 46.5l15 40v9l-216 496v35h65l186 -460h5l154 460h65v-35z" />
    <glyph glyph-name="afii10193" unicode="&#x45f;" 
d="M80 530h70v-475h300v475h70v-530h-180l-15 -130h-50l-15 130h-180v530z" />
    <glyph glyph-name="uni0472" unicode="&#x472;" horiz-adv-x="670" 
d="M425 -10h-180c-52 0 -92.5 13.5 -121.5 40.5s-43.5 63.5 -43.5 109.5v420c0 46 14.5 82.5 43.5 109.5s69.5 40.5 121.5 40.5h180c52 0 92.5 -13.5 121.5 -40.5s43.5 -63.5 43.5 -109.5v-420c0 -46 -14.5 -82.5 -43.5 -109.5s-69.5 -40.5 -121.5 -40.5zM245 45h180
c28 0 50.833 8.83301 68.5 26.5s26.5 40.5 26.5 68.5v185h-370v-185c0 -28 8.83301 -50.833 26.5 -68.5s40.5 -26.5 68.5 -26.5zM150 560v-180h370v180c0 28 -8.83301 50.833 -26.5 68.5s-40.5 26.5 -68.5 26.5h-180c-28 0 -50.833 -8.83301 -68.5 -26.5
s-26.5 -40.5 -26.5 -68.5z" />
    <glyph glyph-name="uni0473" unicode="&#x473;" horiz-adv-x="590" 
d="M370 -10h-150c-47.333 0 -84.166 12.333 -110.499 37s-39.5 57.334 -39.5 98.001v280c0 40.667 13.167 73.334 39.5 98.001s63.166 37 110.499 37h150c47.333 0 84.166 -12.333 110.499 -37s39.5 -57.334 39.5 -98.001v-280c0 -40.667 -13.167 -73.334 -39.5 -98.001
s-63.166 -37 -110.499 -37zM140 405v-115h310v115c0 22.667 -7.66699 41.667 -23 57s-34.333 23 -57 23h-150c-22.667 0 -41.667 -7.66699 -57 -23s-23 -34.333 -23 -57zM140 235v-110c0 -22.667 7.66699 -41.667 23 -57s34.333 -23 57 -23h150
c22.667 0 41.667 7.66699 57 23s23 34.333 23 57v110h-310z" />
    <glyph glyph-name="afii10050" unicode="&#x490;" horiz-adv-x="530" 
d="M460 700l20 105h50v-160h-365v-645h-70v700h365z" />
    <glyph glyph-name="afii10098" unicode="&#x491;" horiz-adv-x="455" 
d="M455 475h-305v-475h-70v530h305l20 100h50v-155z" />
    <glyph glyph-name="uni0492" unicode="&#x492;" horiz-adv-x="540" 
d="M165 0h-70v335h-85v55h85v310h435v-35l-20 -20h-345v-255h195v-55h-195v-335z" />
    <glyph glyph-name="uni0493" unicode="&#x493;" horiz-adv-x="460" 
d="M325 290v-55h-175v-235h-70v235h-70v55h70v240h370v-35l-20 -20h-280v-185h175z" />
    <glyph glyph-name="uni0496" unicode="&#x496;" horiz-adv-x="980" 
d="M905 0h-45l-185 325h-160v-325h-70v325h-160l-185 -325h-65v35l190 320l-165 310v35h65l160 -320h160v320h70v-320h160l160 320h65v-35l-165 -310l178 -300h67v-195h-55z" />
    <glyph glyph-name="uni0497" unicode="&#x497;" horiz-adv-x="850" 
d="M775 0h-45l-140 240h-140v-240h-70v240h-140l-140 -240h-65v35l150 235l-135 225v35h65l125 -235h140v235h70v-235h140l125 235h65v-35l-135 -225l137 -215h68v-185h-55z" />
    <glyph glyph-name="uni0498" unicode="&#x498;" horiz-adv-x="565" 
d="M325 645h-264.999l-20 20v35h285c52 0 92.5 -13.5 121.5 -40.5s43.5 -63.5 43.5 -109.5v-70c0 -42 -16.667 -73.667 -50 -95c-16 -10 -32.667 -16.667 -50 -20v-5c19.333 -4 37.666 -11 54.999 -21c36.667 -26 55 -60.667 55 -104v-85c0 -46 -14.5 -82.5 -43.5 -109.5
s-69.5 -40.5 -121.5 -40.5v-70c0 -30.667 -9.83301 -55 -29.5 -73s-48.167 -27 -85.5 -27h-90v50h90c15.333 0 27.5 4.5 36.5 13.5s13.5 21.167 13.5 36.5v70h-245v55h310c28 0 50.833 8.83301 68.5 26.5s26.5 40.5 26.5 68.5v85c0 28 -8.83301 50.833 -26.5 68.5
s-40.5 26.5 -68.5 26.5h-175v55h165c28 0 50.833 8.83301 68.5 26.5s26.5 40.5 26.5 68.5v70c0 28 -8.83301 50.833 -26.5 68.5s-40.5 26.5 -68.5 26.5z" />
    <glyph glyph-name="uni0499" unicode="&#x499;" horiz-adv-x="505" 
d="M290 475l-230 0.00195312l-20 20v35h250c47.333 0 84.166 -12.333 110.499 -37s39.5 -57.334 39.5 -98.001v-19c0 -34.667 -15 -61.667 -45 -81c-11.333 -8 -26.333 -14.667 -45 -20v-5c18 -4.66699 34.667 -11.667 50 -21c33.333 -21.333 50 -51 50 -89v-25
c0 -40.667 -13.167 -73.334 -39.5 -98.001s-63.166 -37 -110.499 -37h-5v-60c0 -30.667 -9.83301 -55 -29.5 -73s-48.167 -27 -85.5 -27h-80v50h80c15.333 0 27.5 4.5 36.5 13.5s13.5 21.167 13.5 36.5v60h-205v55h275c22.667 0 41.667 7.66699 57 23s23 34.333 23 57v25
c0 22.667 -7.66699 41.667 -23 57s-34.333 23 -57 23h-157v55h147c22.667 0 41.667 7.66699 57 23s23 34.333 23 57v20c0 22.667 -7.66699 41.667 -23 57s-34.333 23 -57 23z" />
    <glyph glyph-name="uni049A" unicode="&#x49a;" horiz-adv-x="650" 
d="M575 0h-45l-195 325h-170v-325h-70v700h70v-320h170l170 320h65v-35l-175 -310l187 -300h68v-195h-55z" />
    <glyph glyph-name="uni049B" unicode="&#x49b;" horiz-adv-x="570" 
d="M495 0h-45l-150 240h-150v-240h-70v530h70v-235h150l135 235h65v-35l-145 -225l146 -215h69v-185h-55z" />
    <glyph glyph-name="uni049C" unicode="&#x49c;" horiz-adv-x="630" 
d="M285 470v-90h50l170 320h65v-35l-175 -310l200 -320v-35h-65l-195 325h-50v-95h-65v95h-55v-325h-70v700h70v-320h55v90h65z" />
    <glyph glyph-name="uni049D" unicode="&#x49d;" horiz-adv-x="550" 
d="M260 375v-80h40l135 235h65v-35l-145 -225l160 -235v-35h-65l-150 240h-40v-85h-65v85h-45v-240h-70v530h70v-235h45v80h65z" />
    <glyph glyph-name="uni04A0" unicode="&#x4a0;" horiz-adv-x="640" 
d="M175 700v-320h170l170 320h65v-35l-175 -310l200 -320v-35h-65l-195 325h-170v-325h-70v645h-95v55h165z" />
    <glyph glyph-name="uni04A1" unicode="&#x4a1;" horiz-adv-x="560" 
d="M160 530v-235h150l135 235h65v-35l-145 -225l160 -235v-35h-65l-150 240h-150v-240h-70v475h-80v55h150z" />
    <glyph glyph-name="uni04A2" unicode="&#x4a2;" horiz-adv-x="680" 
d="M585 0h-70v325h-350v-325h-70v700h70v-320h350v320h70v-645h75v-195h-55z" />
    <glyph glyph-name="uni04A3" unicode="&#x4a3;" 
d="M520 0h-70v240h-300v-240h-70v530h70v-235h300v235h70v-475h75v-185h-55z" />
    <glyph glyph-name="uni04AA" unicode="&#x4aa;" horiz-adv-x="570" 
d="M250 -70v70h-5c-52 0 -92.5 13.5 -121.5 40.5s-43.5 63.5 -43.5 109.5v400c0 46 14.5 82.5 43.5 109.5s69.5 40.5 121.5 40.5h290v-35l-20 -20h-270c-28 0 -50.833 -8.83301 -68.5 -26.5s-26.5 -40.5 -26.5 -68.5v-400c0 -28 8.83301 -50.833 26.5 -68.5
s40.5 -26.5 68.5 -26.5h290v-55h-220v-70c0 -15.333 4.5 -27.5 13.5 -36.5s21.167 -13.5 36.5 -13.5h90v-50h-90c-37.333 0 -65.833 9 -85.5 27s-29.5 42.333 -29.5 73z" />
    <glyph glyph-name="uni04AB" unicode="&#x4ab;" horiz-adv-x="505" 
d="M225 -60v59.998h-5c-47.333 0 -84.166 12.333 -110.499 37s-39.5 57.334 -39.5 98.001v260c0 40.667 13.167 73.334 39.5 98.001s63.166 37 110.499 37h250v-35l-20 -20h-230c-22.667 0 -41.667 -7.66699 -57 -23s-23 -34.333 -23 -57v-260
c0 -22.667 7.66699 -41.667 23 -57s34.333 -23 57 -23h250v-55h-180v-60c0 -15.333 4.5 -27.5 13.5 -36.5s21.167 -13.5 36.5 -13.5h80v-50h-80c-37.333 0 -65.833 9 -85.5 27s-29.5 42.333 -29.5 73z" />
    <glyph glyph-name="uni04AE" unicode="&#x4ae;" horiz-adv-x="580" 
d="M85 700l202 -395h6l202 395h65v-35l-235 -445v-220h-70v220l-235 445v35h65z" />
    <glyph glyph-name="uni04AF" unicode="&#x4af;" horiz-adv-x="545" 
d="M275 70l175 460h65v-35l-205 -495v-170h-75v170l-205 495v35h65l175 -460h5z" />
    <glyph glyph-name="uni04B0" unicode="&#x4b0;" horiz-adv-x="580" 
d="M455 220v-55h-130v-165h-70v165h-130v55h130l-235 445v35h65l202 -395h6l202 395h65v-35l-235 -445h130z" />
    <glyph glyph-name="uni04B1" unicode="&#x4b1;" horiz-adv-x="545" 
d="M420 0v-55h-110v-115h-75v115h-110v55h110l-205 495v35h65l175 -460h5l175 460h65v-35l-205 -495h110z" />
    <glyph glyph-name="uni04B2" unicode="&#x4b2;" horiz-adv-x="615" 
d="M540 0h-40l-200 305h-5l-200 -305h-65v35l220 315l-205 315v35h65l185 -300h5l185 300h65v-35l-205 -315l206 -295h64v-195h-55z" />
    <glyph glyph-name="uni04B3" unicode="&#x4b3;" horiz-adv-x="530" 
d="M455 0h-35l-160 215h-5l-160 -215h-65v35l185 230l-175 230v35h65l150 -215h5l150 215h65v-35l-175 -230l169 -210h61v-185h-55z" />
    <glyph glyph-name="uni04B8" unicode="&#x4b8;" horiz-adv-x="645" 
d="M345 405v-85h135v380h70v-700h-70v265h-135v-100h-65v100h-45c-52 0 -92.5 13.5 -121.5 40.5s-43.5 63.5 -43.5 109.5v285h70v-285c0 -28 8.83301 -50.833 26.5 -68.5s40.5 -26.5 68.5 -26.5h45v85h65z" />
    <glyph glyph-name="uni04B9" unicode="&#x4b9;" horiz-adv-x="570" 
d="M310 325l-0.000976562 -80.001h110v285h70v-530h-70v190h-110v-85h-65v85h-35c-47.333 0 -84.166 12.333 -110.499 37s-39.5 57.334 -39.5 98.001v205h70v-205c0 -22.667 7.66699 -41.667 23 -57s34.333 -23 57 -23h35v80h65z" />
    <glyph glyph-name="uni04BA" unicode="&#x4ba;" horiz-adv-x="645" 
d="M505 0v285c0 28 -8.83301 50.833 -26.5 68.5s-40.5 26.5 -68.5 26.5h-245v-380h-70v700h70v-265h245c52 0 92.5 -13.5 121.5 -40.5s43.5 -63.5 43.5 -109.5v-285h-70z" />
    <glyph glyph-name="uni04BB" unicode="&#x4bb;" 
d="M155 475l0.000976562 -474.999h-70v700h70v-170h215c47.333 0 84.166 -12.333 110.499 -37s39.5 -57.334 39.5 -98.001v-395h-70v395c0 22.667 -7.66699 41.667 -23 57s-34.333 23 -57 23h-215z" />
    <glyph glyph-name="uni04D8" unicode="&#x4d8;" horiz-adv-x="670" 
d="M80 385h440v165c0 28 -8.83301 50.833 -26.5 68.5s-40.5 26.5 -68.5 26.5h-305v55h305c52 0 92.5 -13.5 121.5 -40.5s43.5 -63.5 43.5 -109.5v-410c0 -46 -14.5 -82.5 -43.5 -109.5s-69.5 -40.5 -121.5 -40.5h-180c-52 0 -92.5 13.5 -121.5 40.5s-43.5 63.5 -43.5 109.5
v245zM245 45h180c28 0 50.833 8.83301 68.5 26.5s26.5 40.5 26.5 68.5v190h-370v-190c0 -28 8.83301 -50.833 26.5 -68.5s40.5 -26.5 68.5 -26.5z" />
    <glyph glyph-name="uni04D9" unicode="&#x4d9;" horiz-adv-x="565" 
d="M70 290l354.999 0.000976562v105c0 22.667 -7.66699 41.667 -23 57s-34.333 23 -57 23h-245v55h245c47.333 0 84.166 -12.333 110.499 -37s39.5 -57.334 39.5 -98.001v-270c0 -40.667 -13.167 -73.334 -39.5 -98.001s-63.166 -37 -110.499 -37h-125
c-47.333 0 -84.166 12.333 -110.499 37s-39.5 57.334 -39.5 98.001v165zM424.999 125.001v110h-285v-110c0 -22.667 7.66699 -41.667 23 -57s34.333 -23 57 -23h125c22.667 0 41.667 7.66699 57 23s23 34.333 23 57z" />
    <glyph glyph-name="Wgrave" unicode="&#x1e80;" horiz-adv-x="925" 
d="M465 520h-5l-175 -520h-95l-150 665v35h65l135 -630h5l88 268l82 252h95l82 -252l88 -268h5l135 630h65v-35l-150 -665h-95zM325 870h85l90 -160h-60z" />
    <glyph glyph-name="wgrave" unicode="&#x1e81;" horiz-adv-x="795" 
d="M445 450l135 -380h5l105 460h65v-35l-125 -495h-90l-140 385h-5l-140 -385h-90l-125 495v35h65l105 -460h5l135 380h95zM260 710h85l90 -160h-60z" />
    <glyph glyph-name="Wacute" unicode="&#x1e82;" horiz-adv-x="925" 
d="M465 520h-5l-175 -520h-95l-150 665v35h65l135 -630h5l88 268l82 252h95l82 -252l88 -268h5l135 630h65v-35l-150 -665h-95zM525 860h85l-115 -160h-60z" />
    <glyph glyph-name="wacute" unicode="&#x1e83;" horiz-adv-x="795" 
d="M445 450l135 -380h5l105 460h65v-35l-125 -495h-90l-140 385h-5l-140 -385h-90l-125 495v35h65l105 -460h5l135 380h95zM450 710h85l-115 -160h-60z" />
    <glyph glyph-name="Wdieresis" unicode="&#x1e84;" horiz-adv-x="925" 
d="M465 520h-5l-175 -520h-95l-150 665v35h65l135 -630h5l88 268l82 252h95l82 -252l88 -268h5l135 630h65v-35l-150 -665h-95zM327 820h70v-100h-70v100zM527 820h70v-100h-70v100z" />
    <glyph glyph-name="wdieresis" unicode="&#x1e85;" horiz-adv-x="795" 
d="M445 450l135 -380h5l105 460h65v-35l-125 -495h-90l-140 385h-5l-140 -385h-90l-125 495v35h65l105 -460h5l135 380h95zM262 661h70v-100h-70v100zM462 661h70v-100h-70v100z" />
    <glyph glyph-name="Ygrave" unicode="&#x1ef2;" horiz-adv-x="580" 
d="M85 700l202 -395h6l202 395h65v-35l-235 -445v-220h-70v220l-235 445v35h65zM152 900h85l90 -160h-60z" />
    <glyph glyph-name="ygrave" unicode="&#x1ef3;" horiz-adv-x="535" 
d="M505 495l-198.999 -545c-30.667 -80 -84 -120 -160 -120h-50v55h50c19.333 0 36.666 6.16699 51.999 18.5s26.333 27.833 33 46.5l15 40v9l-216 496v35h65l186 -460h5l154 460h65v-35zM150.001 720h85l90 -160h-60z" />
    <glyph glyph-name="endash" unicode="&#x2013;" horiz-adv-x="570" 
d="M530 330v-55h-490v55h490z" />
    <glyph glyph-name="emdash" unicode="&#x2014;" horiz-adv-x="835" 
d="M795 330v-55h-755v55h755z" />
    <glyph glyph-name="quoteleft" unicode="&#x2018;" horiz-adv-x="200" 
d="M135 490h-70v70l35 140h35v-210z" />
    <glyph glyph-name="quoteright" unicode="&#x2019;" horiz-adv-x="200" 
d="M65 700h70v-70l-35 -140h-35v210z" />
    <glyph glyph-name="quotesinglbase" unicode="&#x201a;" horiz-adv-x="200" 
d="M65 105h70v-70l-35 -140h-35v210z" />
    <glyph glyph-name="quotedblleft" unicode="&#x201c;" horiz-adv-x="355" 
d="M290 490h-70v70l35 140h35v-210zM135 490h-70v70l35 140h35v-210z" />
    <glyph glyph-name="quotedblright" unicode="&#x201d;" horiz-adv-x="355" 
d="M65 700h70v-70l-35 -140h-35v210zM220 700h70v-70l-35 -140h-35v210z" />
    <glyph glyph-name="quotedblbase" unicode="&#x201e;" horiz-adv-x="365" 
d="M65 105h70v-70l-35 -140h-35v210zM230 105h70v-70l-35 -140h-35v210z" />
    <glyph glyph-name="dagger" unicode="&#x2020;" horiz-adv-x="500" 
d="M225 700h50l10 -190h185v-55h-185v-625h-70v625h-185v55h185z" />
    <glyph glyph-name="daggerdbl" unicode="&#x2021;" horiz-adv-x="520" 
d="M285 -170h-50l-10 190h-185v55h185v380h-185v55h185l10 190h50l10 -190h185v-55h-185v-380h185v-55h-185z" />
    <glyph glyph-name="bullet" unicode="&#x2022;" horiz-adv-x="365" 
d="M130 290v45c0 7.33301 3.16699 14.166 9.5 20.499s13.166 9.5 20.499 9.5h45c7.33301 0 14.166 -3.16699 20.499 -9.5s9.5 -13.166 9.5 -20.499v-45c0 -7.33301 -3.16699 -14.166 -9.5 -20.499s-13.166 -9.5 -20.499 -9.5h-45c-7.33301 0 -14.166 3.16699 -20.499 9.5
s-9.5 13.166 -9.5 20.499z" />
    <glyph glyph-name="ellipsis" unicode="&#x2026;" horiz-adv-x="620" 
d="M65 105h70v-105h-70v105zM275 105h70v-105h-70v105zM485 105h70v-105h-70v105z" />
    <glyph glyph-name="perthousand" unicode="&#x2030;" horiz-adv-x="1175" 
d="M595 700h60v-30l-425 -670h-60v30zM280 470v140c0 15.333 -4.5 27.5 -13.5 36.5s-21.167 13.5 -36.5 13.5h-75c-15.333 0 -27.5 -4.5 -36.5 -13.5s-13.5 -21.167 -13.5 -36.5v-140c0 -15.333 4.5 -27.5 13.5 -36.5s21.167 -13.5 36.5 -13.5h75
c15.333 0 27.5 4.5 36.5 13.5s13.5 21.167 13.5 36.5zM345 610v-140c0 -30.667 -9.83301 -55 -29.5 -73s-48.167 -27 -85.5 -27h-75c-37.333 0 -65.833 9 -85.5 27s-29.5 42.333 -29.5 73v140c0 30.667 9.83301 55 29.5 73s48.167 27 85.5 27h75
c37.333 0 65.833 -9 85.5 -27s29.5 -42.333 29.5 -73zM710 90v140c0 15.333 -4.5 27.5 -13.5 36.5s-21.167 13.5 -36.5 13.5h-75c-15.333 0 -27.5 -4.5 -36.5 -13.5s-13.5 -21.167 -13.5 -36.5v-140c0 -15.333 4.5 -27.5 13.5 -36.5s21.167 -13.5 36.5 -13.5h75
c15.333 0 27.5 4.5 36.5 13.5s13.5 21.167 13.5 36.5zM775 230v-140c0 -30.667 -9.83301 -55 -29.5 -73s-48.167 -27 -85.5 -27h-75c-37.333 0 -65.833 9 -85.5 27s-29.5 42.333 -29.5 73v140c0 30.667 9.83301 55 29.5 73s48.167 27 85.5 27h75
c37.333 0 65.833 -9 85.5 -27s29.5 -42.333 29.5 -73zM1070 90v140c0 15.333 -4.5 27.5 -13.5 36.5s-21.167 13.5 -36.5 13.5h-75c-15.333 0 -27.5 -4.5 -36.5 -13.5s-13.5 -21.167 -13.5 -36.5v-140c0 -15.333 4.5 -27.5 13.5 -36.5s21.167 -13.5 36.5 -13.5h75
c15.333 0 27.5 4.5 36.5 13.5s13.5 21.167 13.5 36.5zM1135 230v-140c0 -30.667 -9.83301 -55 -29.5 -73s-48.167 -27 -85.5 -27h-75c-37.333 0 -65.833 9 -85.5 27s-29.5 42.333 -29.5 73v140c0 30.667 9.83301 55 29.5 73s48.167 27 85.5 27h75
c37.333 0 65.833 -9 85.5 -27s29.5 -42.333 29.5 -73z" />
    <glyph glyph-name="guilsinglleft" unicode="&#x2039;" horiz-adv-x="315" 
d="M185 40l-120 220l120 220h65v-35l-105 -185l105 -185v-35h-65z" />
    <glyph glyph-name="guilsinglright" unicode="&#x203a;" horiz-adv-x="315" 
d="M250 260l-120 -220h-65v35l105 185l-105 185v35h65z" />
    <glyph glyph-name="Euro" unicode="&#x20ac;" horiz-adv-x="605" 
d="M115 455v95c0 46 14.5 82.5 43.5 109.5s69.5 40.5 121.5 40.5h290v-35l-20 -20h-270c-28 0 -50.833 -8.83301 -68.5 -26.5s-26.5 -40.5 -26.5 -68.5v-95h272v-55h-272v-100h272v-55h-272v-95c0 -28 8.83301 -50.833 26.5 -68.5s40.5 -26.5 68.5 -26.5h290v-55h-290
c-52 0 -92.5 13.5 -121.5 40.5s-43.5 63.5 -43.5 109.5v95h-85v55h85v100h-85v55h85z" />
    <glyph glyph-name="afii61352" unicode="&#x2116;" horiz-adv-x="1040" 
d="M985 280v-55h-275v55h275zM585 0h-85l-340 605h-5l10 -145v-460h-70v700h85l340 -605h5l-10 145v460h70v-700zM935 470v140c0 15.333 -4.5 27.5 -13.5 36.5s-21.167 13.5 -36.5 13.5h-75c-15.333 0 -27.5 -4.5 -36.5 -13.5s-13.5 -21.167 -13.5 -36.5v-140
c0 -15.333 4.5 -27.5 13.5 -36.5s21.167 -13.5 36.5 -13.5h75c15.333 0 27.5 4.5 36.5 13.5s13.5 21.167 13.5 36.5zM1000 610v-140c0 -30.667 -9.83301 -55 -29.5 -73s-48.167 -27 -85.5 -27h-75c-37.333 0 -65.833 9 -85.5 27s-29.5 42.333 -29.5 73v140
c0 30.667 9.83301 55 29.5 73s48.167 27 85.5 27h75c37.333 0 65.833 -9 85.5 -27s29.5 -42.333 29.5 -73z" />
    <glyph glyph-name="trademark" unicode="&#x2122;" horiz-adv-x="850" 
d="M5 700h315v-35l-15 -15h-110v-280h-65v280h-125v50zM610 410h-75l-93 230h-5l-27 -270h-60v30l40 300h85l95 -230h5l95 230h85l40 -300v-30h-60l-27 270h-5z" />
    <glyph glyph-name=".null" horiz-adv-x="0" 
 />
    <glyph glyph-name="nonmarkingreturn" horiz-adv-x="333" 
 />
    <glyph glyph-name="commaaccent" horiz-adv-x="145" 
d="M40 -50h65v-70l-30 -120h-35v190z" />
    <glyph glyph-name="foundryicon" horiz-adv-x="1330" 
d="M200 265h-170l170 175v-175zM410 350c0 -25.333 -8.66699 -46.666 -26 -63.999s-38.666 -26 -63.999 -26s-46.666 8.66699 -63.999 26s-26 38.666 -26 63.999s8.66699 46.666 26 63.999s38.666 26 63.999 26s46.666 -8.66699 63.999 -26s26 -38.666 26 -63.999zM410 435
h180l-90 -175zM910 435v-155l-150 155h150zM745 265v155l150 -155h-150zM725 265h-180l90 175zM1105 435v-155l-150 155h150zM940 265v155l150 -155h-150zM1120 435h180l-90 -175z" />
    <glyph glyph-name=".ttfautohint" horiz-adv-x="1330" 
 />
    </font>
</defs>
</svg>
