<?xml version="1.0" standalone="no"?>
<!DOCTYPE svg PUBLIC "-//W3C//DTD SVG 1.1//EN" "http://www.w3.org/Graphics/SVG/1.1/DTD/svg11.dtd" >
<svg>
<metadata>
Created by FontForge 20090914 at Sun Feb 21 10:17:02 2021
 By www-data
Copyright (c) 2013 by Roman Ershov, Jovanny Lemonad. All rights reserved.
</metadata>
<defs>
<font id="Supermolot-BoldItalic" horiz-adv-x="690" >
  <font-face 
    font-family="Supermolot"
    font-weight="700"
    font-style="italic"
    font-stretch="normal"
    units-per-em="1000"
    panose-1="2 0 8 3 5 0 0 9 0 4"
    ascent="809"
    descent="-191"
    x-height="530"
    cap-height="700"
    bbox="-111 -275 1338 960.002"
    underline-thickness="50"
    underline-position="-150"
    unicode-range="U+0020-U+2122"
  />
<missing-glyph horiz-adv-x="740" 
d="M165 605h540l-80 -510h-540zM636 545h-420l-62 -390h420zM401 390l132 105l34 -40l-132 -105l98 -105l-46 -40l-98 105l-132 -105l-34 40l132 105l-98 105l46 40z" />
    <glyph glyph-name=".notdef" horiz-adv-x="740" 
d="M165 605h540l-80 -510h-540zM636 545h-420l-62 -390h420zM401 390l132 105l34 -40l-132 -105l98 -105l-46 -40l-98 105l-132 -105l-34 40l132 105l-98 105l46 40z" />
    <glyph glyph-name="space" unicode=" " horiz-adv-x="310" 
 />
    <glyph glyph-name="exclam" unicode="!" horiz-adv-x="330" 
d="M106 230l21 320l23 150h190l-23 -150l-81 -320h-130zM210 0h-150l23 150h150z" />
    <glyph glyph-name="quotedbl" unicode="&#x22;" horiz-adv-x="445" 
d="M115 475l-1 120l16 105h145l-16 -105l-39 -120h-105zM315 475l-1 120l16 105h145l-16 -105l-39 -120h-105z" />
    <glyph glyph-name="numbersign" unicode="#" horiz-adv-x="745" 
d="M60 0l47 145h-80l21 130h100l49 150h-90l20 130h105l48 145h175l-48 -145h105l48 145h175l-48 -145h80l-20 -130h-100l-49 -150h90l-21 -130h-105l-47 -145h-175l47 145h-105l-47 -145h-175zM372 425l-49 -150h100l49 150h-100z" />
    <glyph glyph-name="dollar" unicode="$" horiz-adv-x="600" 
d="M78 465l14 85c6.66699 42.667 27 78.334 61 107.001s74.667 43 122 43h25l15 90h160l-15 -90h155l-13 -85l-47 -45h-245c-10 0 -19 -3.33301 -27 -10s-12.667 -15 -14 -25l-8 -50c-4 -24.667 7 -39.667 33 -45l179 -40c35.333 -8.66699 62.5 -26.167 81.5 -52.5
s25.5 -58.833 19.5 -97.5l-16 -100c-6.66699 -42.667 -27 -78.334 -61 -107.001s-74.667 -43 -122 -43h-25l-15 -90h-160l15 90h-185l20 130h315c10 0 18.833 3.33301 26.5 10s12.5 15 14.5 25l10 65c4 24.667 -7 39.667 -33 45l-179 40
c-35.333 8.66699 -62.5 26.167 -81.5 52.5s-25.5 58.833 -19.5 97.5z" />
    <glyph glyph-name="percent" unicode="%" horiz-adv-x="885" 
d="M650 700h145l-9 -60l-501 -640h-145l9 60zM856 230l-22 -140c-4.66699 -28.667 -19.334 -52.5 -44.001 -71.5s-55.334 -28.5 -92.001 -28.5h-95c-36.667 0 -64.334 9.5 -83.001 28.5s-25.667 42.833 -21 71.5l22 140c4.66699 28.667 19.334 52.5 44.001 71.5
s55.334 28.5 92.001 28.5h95c36.667 0 64.334 -9.5 83.001 -28.5s25.667 -42.833 21 -71.5zM648 210l-15.999 -100c-2.66699 -20 5.66602 -30 24.999 -30h15c20.667 0 32.334 10 35.001 30l16 100c3.33301 20 -5 30 -25 30h-15c-20.667 0 -32.334 -10 -35.001 -30z
M436.001 610l-22 -140c-4.66699 -28.667 -19.334 -52.5 -44.001 -71.5s-55.334 -28.5 -92.001 -28.5h-95c-36.667 0 -64.334 9.5 -83.001 28.5s-25.667 42.833 -21 71.5l22 140c4.66699 28.667 19.334 52.5 44.001 71.5s55.334 28.5 92.001 28.5h95
c36.667 0 64.334 -9.5 83.001 -28.5s25.667 -42.833 21 -71.5zM228.001 590l-15.998 -100c-2.66699 -20 5.66602 -30 24.999 -30h15c20 0 31.667 10 35 30l16 100c3.33301 20 -5 30 -25 30h-15c-20.667 0 -32.334 -10 -35.001 -30z" />
    <glyph glyph-name="ampersand" unicode="&#x26;" 
d="M485 0l-42 55h-10c-11.333 -12.667 -23.333 -23.667 -36 -33c-30.667 -21.333 -63.667 -32 -99 -32h-130c-47.333 0 -83.5 14.167 -108.5 42.5s-34.167 64.166 -27.5 107.499l16 105c5.33301 33.333 24 62.5 56 87.5s68.333 37.5 109 37.5l2 10
c-12.667 9.33301 -22.667 19.666 -30 30.999c-20.667 27.333 -28 55.333 -22 84l9 55c6.66699 42.667 27 78.334 61 107.001s74.667 43 122 43h290l-13 -85l-47 -45h-195c-10 0 -19 -3.33301 -27 -10s-12.667 -15 -14 -25l-6 -40c-2.66699 -15.333 10 -40.666 38 -75.999
c10.667 -14.667 24.667 -31 42 -49l242 -305l-10 -65h-170zM378 150l-100.001 125c-30 0 -47 -13.333 -51 -40l-13 -80c-1.33301 -10 0.833984 -18.333 6.50098 -25s13.5 -10 23.5 -10h75c15.333 0 30 5 44 15c6 4 11 9 15 15z" />
    <glyph glyph-name="quotesingle" unicode="'" horiz-adv-x="245" 
d="M115 475l-1 121l16 104h145l-16 -105l-39 -120h-105z" />
    <glyph glyph-name="parenleft" unicode="(" horiz-adv-x="390" 
d="M257 -50h54.999l-21 -130h-110c-47.333 0 -83.5 14.167 -108.5 42.5s-34.167 64.166 -27.5 107.499l103 650c6.66699 42.667 27 78.334 61 107.001s74.667 43 122 43h110l-20 -130h-55c-10 0 -19 -3.33301 -27 -10s-12.667 -15 -14 -25l-98 -620
c-1.33301 -10 0.833984 -18.333 6.50098 -25s13.5 -10 23.5 -10z" />
    <glyph glyph-name="parenright" unicode=")" horiz-adv-x="390" 
d="M2 -50l54.998 0.00195312c10 0 18.833 3.33301 26.5 10s12.167 15 13.5 25l98 620c1.33301 10 -0.666992 18.333 -6 25s-13 10 -23 10h-55l20 130h110c46.667 0 82.834 -14.333 108.501 -43s35.167 -64.334 28.5 -107.001l-103 -650
c-6.66699 -42.667 -27.167 -78.334 -61.5 -107.001s-75.166 -43 -122.499 -43h-110z" />
    <glyph glyph-name="asterisk" unicode="*" horiz-adv-x="440" 
d="M340 700l-3 -115l113 20l9 -70l-106 -40l50 -95l-72 -45l-72 85l-98 -85l-58 45l80 95l-94 40l31 70l107 -20l33 115h80z" />
    <glyph glyph-name="plus" unicode="+" horiz-adv-x="510" 
d="M60 380h160l26 165h130l-26 -165h160l-21 -130h-160l-26 -165h-130l26 165h-160z" />
    <glyph glyph-name="comma" unicode="," horiz-adv-x="270" 
d="M185 35l-91 -135h-80l39 250h150z" />
    <glyph glyph-name="hyphen" unicode="-" horiz-adv-x="490" 
d="M60 380h430l-21 -130h-430z" />
    <glyph glyph-name="period" unicode="." horiz-adv-x="270" 
d="M180 0h-150l23 150h150z" />
    <glyph glyph-name="slash" unicode="/" horiz-adv-x="545" 
d="M605 695l-468 -745h-155l8 55l468 745h155z" />
    <glyph glyph-name="zero" unicode="0" horiz-adv-x="660" 
d="M269 120h100c10 0 18.833 3.33301 26.5 10s12.167 15 13.5 25l62 390c1.33301 10 -0.833984 18.333 -6.50098 25s-13.5 10 -23.5 10h-100c-10 0 -18.833 -3.33301 -26.5 -10s-12.167 -15 -13.5 -25l-62 -390c-1.33301 -10 0.833984 -18.333 6.50098 -25
s13.5 -10 23.5 -10zM403 -10h-209.999c-47.333 0 -83.5 14.167 -108.5 42.5s-34.167 64.166 -27.5 107.499l66 420c6.66699 42.667 27.167 78.334 61.5 107.001s75.166 43 122.499 43h210c48.667 0 85.167 -14.667 109.5 -44s33.166 -64.666 26.499 -105.999l-66 -420
c-6.66699 -42.667 -27.167 -78.334 -61.5 -107.001s-75.166 -43 -122.499 -43z" />
    <glyph glyph-name="one" unicode="1" horiz-adv-x="415" 
d="M86 640l194 60h130l-110 -700h-180l88 560h-135z" />
    <glyph glyph-name="two" unicode="2" horiz-adv-x="570" 
d="M235 130l284.999 0.000976562l-20 -130h-505l19 120l338 305c4.66699 3.33301 11.334 9.33301 20.001 18c13.333 13.333 21.333 25.666 24 36.999l8 56c1.33301 9.33301 -0.666992 17.333 -6 24s-13 10 -23 10h-240l-33 45l13 85h335
c46.667 0 82.834 -14.333 108.501 -43s35.167 -64.334 28.5 -107.001l-11 -70c-6 -30.667 -24.667 -63.667 -56 -99c-12.667 -15.333 -28.334 -30.666 -47.001 -45.999l-236 -195z" />
    <glyph glyph-name="three" unicode="3" horiz-adv-x="585" 
d="M366 420h55.001c47.333 0 83.5 -14.167 108.5 -42.5s34.167 -64.166 27.5 -107.499l-19 -120c-6.66699 -42.667 -27 -78.334 -61 -107.001s-74.667 -43 -122 -43h-350l20 130h295c10 0 18.833 3.33301 26.5 10s12.5 15 14.5 25l14 90
c1.33301 10 -0.833984 18.333 -6.50098 25s-13.5 10 -23.5 10h-195l19 120l204 150l2 10h-250l-33 45l13 85h500l-19 -120l-218 -150z" />
    <glyph glyph-name="four" unicode="4" horiz-adv-x="650" 
d="M510 0h-180l21 135h-340l19 120l350 445h240l-69 -435h90l-20 -130h-90zM414 505h-10l-176 -230l-2 -10h150z" />
    <glyph glyph-name="five" unicode="5" horiz-adv-x="620" 
d="M298 430h160.001c46.667 0 82.667 -14.167 108 -42.5s34.666 -64.166 27.999 -107.499l-21 -130c-6.66699 -42.667 -27.167 -78.334 -61.5 -107.001s-74.833 -43 -121.5 -43h-340l20 130h285c10 0 18.833 3.33301 26.5 10s12.5 15 14.5 25l15 100
c2 10 0.166992 18.333 -5.5 25s-13.5 10 -23.5 10h-285l63 400h475l-13 -85l-47 -45h-255z" />
    <glyph glyph-name="six" unicode="6" horiz-adv-x="635" 
d="M299 535l-16.002 -99.998h185c46.667 0 82.834 -14.333 108.501 -43s35.167 -64.334 28.5 -107.001l-23 -145c-6.66699 -42.667 -27.167 -78.334 -61.5 -107.001s-75.166 -43 -122.499 -43h-205c-47.333 0 -83.5 14.167 -108.5 42.5s-34.167 64.166 -27.5 107.499l65 410
c6.66699 42.667 27 78.334 61 107.001s74.667 43 122 43h335l-13 -85l-47 -45h-240c-10 0 -19 -3.33301 -27 -10s-12.667 -15 -14 -25zM268.998 120.002h94.999c10 0 18.833 3.33301 26.5 10s12.167 15 13.5 25l18 115c1.33301 10 -0.666992 18.333 -6 25s-13 10 -23 10
h-130l-24 -150c-1.33301 -10 0.833984 -18.333 6.50098 -25s13.5 -10 23.5 -10z" />
    <glyph glyph-name="seven" unicode="7" horiz-adv-x="540" 
d="M255 0h-180l11 70l302 490l2 10h-320l20 130h510l-19 -120z" />
    <glyph glyph-name="eight" unicode="8" horiz-adv-x="665" 
d="M418 -10l-234.998 -0.000976562c-47.333 0 -83.5 14.167 -108.5 42.5s-34.167 64.166 -27.5 107.499l19 120c6 37.333 29.667 66 71 86c16.667 8.66699 36.667 15 60 19l2 10c-18.667 4 -33.667 10.333 -45 19c-28.667 20.667 -39.667 49.334 -33 86.001l12 80
c6.66699 42.667 27.167 78.334 61.5 107.001s75.166 43 122.499 43h195c47.333 0 83.5 -14.167 108.5 -42.5s34.167 -64.166 27.5 -107.499l-12 -80c-6.66699 -38 -27.334 -66.667 -62.001 -86c-14 -8.66699 -30.667 -15 -50 -19l-2 -10
c21.333 -4 39.666 -10.333 54.999 -19c35.333 -19.333 50 -48 44 -86l-19 -120c-6.66699 -42.667 -27.167 -78.334 -61.5 -107.001s-75.166 -43 -122.499 -43zM411.002 294.999h-125c-10 0 -18.833 -3.33301 -26.5 -10s-12.167 -15 -13.5 -25l-17 -105
c-1.33301 -10 0.833984 -18.333 6.50098 -25s13.5 -10 23.5 -10h125c10 0 18.833 3.33301 26.5 10s12.167 15 13.5 25l17 105c1.33301 10 -0.833984 18.333 -6.50098 25s-13.5 10 -23.5 10zM436.002 579.999h-85c-10 0 -18.833 -3.33301 -26.5 -10s-12.167 -15 -13.5 -25
l-14 -85c-1.33301 -10 0.833984 -18.333 6.50098 -25s13.5 -10 23.5 -10h85c10 0 18.833 3.33301 26.5 10s12.167 15 13.5 25l14 85c1.33301 10 -0.833984 18.333 -6.50098 25s-13.5 10 -23.5 10z" />
    <glyph glyph-name="nine" unicode="9" horiz-adv-x="635" 
d="M386 165l14.001 90h-185c-47.333 0 -83.5 14.167 -108.5 42.5s-34.167 64.166 -27.5 107.499l24 155c6.66699 42.667 27.167 78.334 61.5 107.001s75.166 43 122.499 43h205c47.333 0 83.5 -14.167 108.5 -42.5s34.167 -64.166 27.5 -107.499l-65 -410
c-6.66699 -42.667 -27.167 -78.334 -61.5 -107.001s-74.833 -43 -121.5 -43h-335l20 130h280c10 0 18.833 3.33301 26.5 10s12.5 15 14.5 25zM416.001 580h-94.999c-10 0 -18.833 -3.33301 -26.5 -10s-12.167 -15 -13.5 -25l-20 -125c-1.33301 -10 0.666992 -18.333 6 -25
s13 -10 23 -10h130l26 160c1.33301 10 -0.833984 18.333 -6.50098 25s-13.5 10 -23.5 10z" />
    <glyph glyph-name="colon" unicode=":" horiz-adv-x="260" 
d="M175 0h-150l23 150h150zM235 380h-150l23 150h150z" />
    <glyph glyph-name="semicolon" unicode=";" horiz-adv-x="270" 
d="M240 380h-150l23 150h150zM185 35l-91 -135h-80l39 250h150z" />
    <glyph glyph-name="less" unicode="&#x3c;" horiz-adv-x="540" 
d="M83 335l451 200l-24 -150l-273 -115l-1 -10l236 -115l-23 -150l-389 200z" />
    <glyph glyph-name="equal" unicode="=" horiz-adv-x="530" 
d="M87 490h450l-20 -130h-450zM51 260h450l-21 -130h-450z" />
    <glyph glyph-name="greater" unicode="&#x3e;" horiz-adv-x="540" 
d="M114 535l389 -200l-23 -140l-451 -200l23 150l274 115l1 10l-237 115z" />
    <glyph glyph-name="question" unicode="?" horiz-adv-x="535" 
d="M265 0h-150l23 150h150zM361 485l7.99902 50.002c1.33301 10 -0.666992 18.333 -6 25s-13 10 -23 10h-230l-33 45l13 85h325c46.667 0 82.834 -14.333 108.501 -43s35.167 -64.334 28.5 -107.001l-14 -85c-7.33301 -48.667 -31 -82 -71 -100l-118 -55
c-12 -6 -20.833 -11.833 -26.5 -17.5s-9.16699 -13.167 -10.5 -22.5l-6 -40h-160l11 70c9.33301 49.333 33 82.666 71 99.999l97 45c21.333 10 33.333 23.333 36 40z" />
    <glyph glyph-name="at" unicode="@" horiz-adv-x="910" 
d="M540 510l174.998 -0.000976562l11 65c1.33301 10 -0.833984 18.333 -6.50098 25s-13.5 10 -23.5 10h-360c-10 0 -18.833 -3.33301 -26.5 -10s-12.167 -15 -13.5 -25l-72 -450c-1.33301 -10 0.833984 -18.333 6.50098 -25s13.5 -10 23.5 -10h545l-19 -120h-590
c-47.333 0 -83.5 14.167 -108.5 42.5s-34.167 64.166 -27.5 107.499l72 460c6.66699 42.667 27.167 78.334 61.5 107.001s75.166 43 122.499 43h450c47.333 0 83.5 -14.167 108.5 -42.5s34.167 -64.166 27.5 -107.499l-61 -390h-110l-17 55h-10
c-7.33301 -13.333 -15.666 -24.333 -24.999 -33c-25.333 -21.333 -53.666 -32 -84.999 -32h-100c-44.667 0 -78.834 13.167 -102.501 39.5s-32.167 59.833 -25.5 100.5l8 50c6.66699 40.667 25.834 74.167 57.501 100.5s69.834 39.5 114.501 39.5zM537.998 369.999
l-6.00098 -40.002c-1.33301 -7.33301 0.666992 -14.166 6 -20.499s11.666 -9.5 18.999 -9.5h80c16 0 29 5.66699 39 17c5.33301 4.66699 9.33301 10.667 12 18l10 65h-125c-7.33301 0 -14.666 -3.16699 -21.999 -9.5s-11.666 -13.166 -12.999 -20.499z" />
    <glyph glyph-name="A" unicode="A" 
d="M455 0l-12 150h-210l-58 -150h-180l11 70l299 630h240l101 -630l-11 -70h-180zM429 280l-24 260h-10l-106 -260h140z" />
    <glyph glyph-name="B" unicode="B" horiz-adv-x="685" 
d="M160 700l364.999 0.00195312c46.667 0 82.834 -14.333 108.501 -43s35.167 -64.334 28.5 -107.001l-13 -80c-6 -38 -26.333 -66.667 -61 -86c-14 -8.66699 -31 -15 -51 -19l-1 -10c22 -4 41 -10.333 57 -19c36.667 -20 52 -48.667 46 -86l-16 -100
c-6.66699 -42.667 -27.167 -78.334 -61.5 -107.001s-74.833 -43 -121.5 -43h-390zM249.999 130.002h155c10 0 18.833 3.33301 26.5 10s12.5 15 14.5 25l13 85c1.33301 10 -0.666992 18.333 -6 25s-13 10 -23 10h-155zM449.999 570.002h-130l-25 -155h130
c10 0 19 3.33301 27 10s12.667 15 14 25l13 85c1.33301 10 -0.666992 18.333 -6 25s-13 10 -23 10z" />
    <glyph glyph-name="C" unicode="C" horiz-adv-x="605" 
d="M270 130l290.001 -0.00195312l-20 -130h-345c-46.667 0 -82.834 14.333 -108.501 43s-35.167 64.334 -28.5 107.001l64 400c6.66699 42.667 27 78.334 61 107.001s74.667 43 122 43h345l-13 -85l-47 -45h-250c-10 0 -19 -3.33301 -27 -10s-12.667 -15 -14 -25l-58 -370
c-2 -10 -0.166992 -18.333 5.5 -25s13.5 -10 23.5 -10z" />
    <glyph glyph-name="D" unicode="D" 
d="M435 0l-385.001 0.00195312l110 700h385c46.667 0 82.834 -14.333 108.501 -43s35.167 -64.334 28.5 -107.001l-64 -400c-6.66699 -42.667 -27 -78.334 -61 -107.001s-74.667 -43 -122 -43zM469.999 570.002h-150l-70 -440h150c10 0 18.833 3.33301 26.5 10
s12.5 15 14.5 25l58 370c1.33301 10 -0.666992 18.333 -6 25s-13 10 -23 10z" />
    <glyph glyph-name="E" unicode="E" horiz-adv-x="615" 
d="M660 700l-13 -85l-47 -45h-280l-24 -150h230l-21 -130h-230l-25 -160h320l-20 -130h-500l110 700h500z" />
    <glyph glyph-name="F" unicode="F" horiz-adv-x="600" 
d="M660 700l-13 -85l-47 -45h-280l-29 -180h230l-20 -130h-230l-41 -260h-180l110 700h500z" />
    <glyph glyph-name="G" unicode="G" horiz-adv-x="665" 
d="M360 415l275.001 -0.00195312l-65 -415h-375c-46.667 0 -82.834 14.333 -108.501 43s-35.167 64.334 -28.5 107.001l64 400c6.66699 42.667 27 78.334 61 107.001s74.667 43 122 43h354l-13 -85l-47 -45h-259c-10 0 -19 -3.33301 -27 -10s-12.667 -15 -14 -25l-58 -370
c-2 -10 -0.166992 -18.333 5.5 -25s13.5 -10 23.5 -10h150l25 155h-105z" />
    <glyph glyph-name="H" unicode="H" horiz-adv-x="710" 
d="M230 0h-180l110 700h180l-45 -285h190l45 285h180l-110 -700h-180l45 285h-190z" />
    <glyph glyph-name="I" unicode="I" horiz-adv-x="340" 
d="M230 0h-180l110 700h180z" />
    <glyph glyph-name="J" unicode="J" horiz-adv-x="545" 
d="M273 -10l-295.001 0.000976562l21 130h240c10 0 18.833 3.33301 26.5 10s12.167 15 13.5 25l86 545h180l-88 -560c-6.66699 -42.667 -27.167 -78.334 -61.5 -107.001s-75.166 -43 -122.499 -43z" />
    <glyph glyph-name="K" unicode="K" horiz-adv-x="680" 
d="M230 0h-180l110 700h180l-45 -285h85l155 285h180l-11 -70l-183 -275l110 -285l-11 -70h-180l-80 285h-85z" />
    <glyph glyph-name="L" unicode="L" horiz-adv-x="570" 
d="M530 0h-480l110 700h180l-90 -570h300z" />
    <glyph glyph-name="M" unicode="M" horiz-adv-x="990" 
d="M583 85h-210l-52 400h-10l-111 -485h-180l11 70l184 630h225l64 -420h10l196 420h225l-14 -630l-11 -70h-180l41 485h-10z" />
    <glyph glyph-name="N" unicode="N" horiz-adv-x="710" 
d="M710 700l-110 -700h-195l-131 440h-10l-3 -240l-31 -200h-180l110 700h195l131 -440h10l3 240l31 200h180z" />
    <glyph glyph-name="O" unicode="O" 
d="M269 120h130c10 0 18.833 3.33301 26.5 10s12.167 15 13.5 25l62 390c1.33301 10 -0.833984 18.333 -6.50098 25s-13.5 10 -23.5 10h-130c-10 0 -18.833 -3.33301 -26.5 -10s-12.167 -15 -13.5 -25l-62 -390c-1.33301 -10 0.833984 -18.333 6.50098 -25
s13.5 -10 23.5 -10zM433 -10h-239.999c-47.333 0 -83.5 14.167 -108.5 42.5s-34.167 64.166 -27.5 107.499l66 420c6.66699 42.667 27.167 78.334 61.5 107.001s75.166 43 122.499 43h240c48.667 0 85.167 -14.667 109.5 -44s33.166 -64.666 26.499 -105.999l-66 -420
c-6.66699 -42.667 -27.167 -78.334 -61.5 -107.001s-75.166 -43 -122.499 -43z" />
    <glyph glyph-name="P" unicode="P" horiz-adv-x="665" 
d="M230 0l-180 0.000976562l110 700h380c48.667 0 85.167 -14.5 109.5 -43.5s33.5 -64.5 27.5 -106.5l-30 -185c-6.66699 -42.667 -27.167 -78.334 -61.5 -107.001s-74.833 -43 -121.5 -43h-200zM465 570.001h-145l-36 -225h145c10 0 19 3.33301 27 10s12.667 15 14 25
l24 155c1.33301 10 -0.666992 18.333 -6 25s-13 10 -23 10z" />
    <glyph glyph-name="Q" unicode="Q" 
d="M253 -10h-59.999c-47.333 0 -83.5 14.167 -108.5 42.5s-34.167 64.166 -27.5 107.499l66 420c6.66699 42.667 27.167 78.334 61.5 107.001s75.166 43 122.499 43h240c48.667 0 85.167 -14.667 109.5 -44s33.166 -64.666 26.499 -105.999l-66 -420
c-6.66699 -42.667 -27.167 -78.334 -61.5 -107.001s-75.166 -43 -122.499 -43h-40l59 -70l-10 -60h-155zM269.001 120h130c10 0 18.833 3.33301 26.5 10s12.167 15 13.5 25l62 390c1.33301 10 -0.833984 18.333 -6.50098 25s-13.5 10 -23.5 10h-130
c-10 0 -18.833 -3.33301 -26.5 -10s-12.167 -15 -13.5 -25l-62 -390c-1.33301 -10 0.833984 -18.333 6.50098 -25s13.5 -10 23.5 -10z" />
    <glyph glyph-name="R" unicode="R" horiz-adv-x="695" 
d="M230 0h-180.001l110 700h380c48.667 0 85.167 -14.5 109.5 -43.5s33.5 -64.5 27.5 -106.5l-24 -150c-7.33301 -44.667 -30.666 -80.334 -69.999 -107.001c-16 -11.333 -35 -20.666 -57 -27.999l105 -195l-11 -70h-180l-96 250h-75zM464.999 570h-145l-30 -190h145
c10 0 18.833 3.33301 26.5 10s12.167 15 13.5 25l19 120c1.33301 10 -0.666992 18.333 -6 25s-13 10 -23 10z" />
    <glyph glyph-name="S" unicode="S" horiz-adv-x="600" 
d="M78 465l14 85c6.66699 42.667 27 78.334 61 107.001s74.667 43 122 43h340l-13 -85l-47 -45h-245c-10 0 -19 -3.33301 -27 -10s-12.667 -15 -14 -25l-8 -50c-4 -24.667 7 -39.667 33 -45l179 -40c35.333 -8.66699 62.5 -26.167 81.5 -52.5s25.5 -58.833 19.5 -97.5
l-16 -100c-6.66699 -42.667 -27 -78.334 -61 -107.001s-74.667 -43 -122 -43h-370l20 130h315c10 0 18.833 3.33301 26.5 10s12.5 15 14.5 25l10 65c4 24.667 -7 39.667 -33 45l-179 40c-35.333 8.66699 -62.5 26.167 -81.5 52.5s-25.5 58.833 -19.5 97.5z" />
    <glyph glyph-name="T" unicode="T" horiz-adv-x="600" 
d="M75 570l20 130h570l-13 -85l-47 -45h-155l-90 -570h-180l90 570h-195z" />
    <glyph glyph-name="U" unicode="U" horiz-adv-x="720" 
d="M448 -10l-240.002 0.00195312c-47.333 0 -83.5 14.167 -108.5 42.5s-34.167 64.166 -27.5 107.499l88 560h180l-86 -545c-1.33301 -10 0.833984 -18.333 6.50098 -25s13.5 -10 23.5 -10h130c10 0 18.833 3.33301 26.5 10s12.167 15 13.5 25l86 545h180l-88 -560
c-6.66699 -42.667 -27.167 -78.334 -61.5 -107.001s-75.166 -43 -122.499 -43z" />
    <glyph glyph-name="V" unicode="V" horiz-adv-x="670" 
d="M335 160l210 540h180l-11 -70l-289 -630h-240l-91 630l11 70h180l40 -540h10z" />
    <glyph glyph-name="W" unicode="W" horiz-adv-x="980" 
d="M658 590l31 -375h10l146 485h180l-11 -70l-224 -630h-225l-38 395h-10l-162 -395h-225l-26 630l11 70h180l-6 -485h10l149 375h210z" />
    <glyph glyph-name="X" unicode="X" horiz-adv-x="650" 
d="M331 265l-156 -265h-180l11 70l215 285l-112 275l11 70h180l58 -265h10l142 265h180l-11 -70l-198 -275l125 -285l-11 -70h-180l-74 265h-10z" />
    <glyph glyph-name="Y" unicode="Y" horiz-adv-x="650" 
d="M530 700h180l-11 -70l-282 -425l-32 -205h-180l32 205l-148 425l11 70h180l68 -330h10z" />
    <glyph glyph-name="Z" unicode="Z" horiz-adv-x="600" 
d="M235 130h320l-20 -130h-530l19 125l379 435l2 10h-270l-33 45l13 85h520l-19 -125l-379 -435z" />
    <glyph glyph-name="bracketleft" unicode="[" horiz-adv-x="390" 
d="M331 640l-109 -690h90l-21 -130h-270l150 950h270l-20 -130h-90z" />
    <glyph glyph-name="backslash" unicode="\" horiz-adv-x="545" 
d="M332 -50l-232 745l8 55h155l232 -745l-8 -55h-155z" />
    <glyph glyph-name="bracketright" unicode="]" horiz-adv-x="390" 
d="M92 -50l109 690h-90l20 130h270l-150 -950h-270l21 130h90z" />
    <glyph glyph-name="asciicircum" unicode="^" horiz-adv-x="470" 
d="M192 455h-140l198 245h130l122 -245h-140l-60 130h-10z" />
    <glyph glyph-name="underscore" unicode="_" horiz-adv-x="470" 
d="M-27 -40h450l-20 -130h-449z" />
    <glyph glyph-name="grave" unicode="`" horiz-adv-x="310" 
d="M110 700h175l50 -160h-130z" />
    <glyph glyph-name="a" unicode="a" horiz-adv-x="625" 
d="M288 -10h-116c-44.667 0 -78.834 13.167 -102.501 39.5s-32.167 59.833 -25.5 100.5l41 260c6.66699 40.667 25.834 74.167 57.501 100.5s69.834 39.5 114.501 39.5h356l-83 -530h-110l-15 65h-5c-8 -16 -16.667 -28.667 -26 -38
c-24.667 -24.667 -53.334 -37 -86.001 -37zM241 110l91.001 -0.00195312c15.333 0 28 5.66699 38 17c5.33301 4.66699 9.33301 10.667 12 18l42 265h-136c-7.33301 0 -14.5 -3.16699 -21.5 -9.5s-11.167 -13.166 -12.5 -20.499l-38 -240
c-1.33301 -7.33301 0.666992 -14.166 6 -20.499s11.666 -9.5 18.999 -9.5z" />
    <glyph glyph-name="b" unicode="b" horiz-adv-x="625" 
d="M298 530h175.001c44.667 0 78.834 -13.167 102.501 -39.5s32.167 -59.833 25.5 -100.5l-39 -250c-6.66699 -40.667 -25.834 -74.167 -57.501 -100.5s-69.834 -39.5 -114.501 -39.5h-345l110 700h170zM393.001 150l37.001 230.002
c1.33301 7.33301 -0.833984 14.166 -6.50098 20.499s-12.167 9.5 -19.5 9.5h-125l-45 -290h125c7.33301 0 14.5 3.16699 21.5 9.5s11.167 13.166 12.5 20.499z" />
    <glyph glyph-name="c" unicode="c" horiz-adv-x="540" 
d="M244 120l249.998 -0.00195312l-19 -120h-300c-44.667 0 -78.834 13.167 -102.501 39.5s-32.167 59.833 -25.5 100.5l39 250c6.66699 40.667 25.834 74.167 57.501 100.5s69.834 39.5 114.501 39.5h300l-11 -75l-48 -45h-210c-7.33301 0 -14.5 -3.16699 -21.5 -9.5
s-11.167 -13.166 -12.5 -20.499l-37 -230c-1.33301 -7.33301 0.833984 -14.166 6.50098 -20.499s12.167 -9.5 19.5 -9.5z" />
    <glyph glyph-name="d" unicode="d" horiz-adv-x="625" 
d="M258 530h175l27 170h170l-110 -700h-110l-15 65h-5c-8 -16 -16.667 -28.667 -26 -38c-24.667 -24.667 -53.334 -37 -86.001 -37h-105c-44.667 0 -78.834 13.167 -102.501 39.5s-32.167 59.833 -25.5 100.5l41 260c6.66699 40.667 25.834 74.167 57.501 100.5
s69.834 39.5 114.501 39.5zM255 380l-37.999 -240.002c-1.33301 -7.33301 0.666992 -14.166 6 -20.499s11.666 -9.5 18.999 -9.5h80c15.333 0 28 5.66699 38 17c5.33301 4.66699 9.33301 10.667 12 18l42 265h-125c-7.33301 0 -14.5 -3.16699 -21.5 -9.5
s-11.167 -13.166 -12.5 -20.499z" />
    <glyph glyph-name="e" unicode="e" horiz-adv-x="595" 
d="M395 195l-170.003 -0.000976562l-7 -45c-1.33301 -7.33301 0.833984 -14.166 6.50098 -20.499s12.167 -9.5 19.5 -9.5h265l-19 -120h-315c-44.667 0 -78.834 13.167 -102.501 39.5s-32.167 59.833 -25.5 100.5l41 260c6.66699 40.667 25.834 74.167 57.501 100.5
s69.834 39.5 114.501 39.5h190c44.667 0 78.834 -13.167 102.501 -39.5s32.167 -59.833 25.5 -100.5l-10 -65c-6.66699 -40.667 -26 -74.167 -58 -100.5s-70.333 -39.5 -115 -39.5zM397.997 339.999l7.99707 50.001c1.33301 7.33301 -0.666992 14.166 -6 20.499
s-11.666 9.5 -18.999 9.5h-90c-7.33301 0 -14.666 -3.16699 -21.999 -9.5s-11.666 -13.166 -12.999 -20.499l-12 -80h120c7.33301 0 14.5 3.16699 21.5 9.5s11.167 13.166 12.5 20.499z" />
    <glyph glyph-name="f" unicode="f" horiz-adv-x="465" 
d="M41 -20l93.998 590c6.66699 40.667 25.834 74.167 57.501 100.5s69.834 39.5 114.501 39.5h255l-12 -75l-47 -45h-165c-7.33301 0 -14.666 -3.16699 -21.999 -9.5s-11.666 -13.166 -12.999 -20.499l-16 -105h170l-19 -120h-170l-58 -365
c-6.66699 -40.667 -25.834 -74.167 -57.501 -100.5s-69.834 -39.5 -114.501 -39.5h-123l20 120h72c7.33301 0 14.5 3.16699 21.5 9.5s11.167 13.166 12.5 20.499z" />
    <glyph glyph-name="g" unicode="g" horiz-adv-x="615" 
d="M52 -50l260.001 0.000976562c7.33301 0 14.5 3.16699 21.5 9.5s11.167 13.166 12.5 20.499l8 50h-175c-44.667 0 -78.834 13.167 -102.501 39.5s-32.167 59.833 -25.5 100.5l35 220c6.66699 40.667 25.834 74.167 57.501 100.5s69.834 39.5 114.501 39.5h345l-88 -560
c-6.66699 -40.667 -25.834 -74.167 -57.501 -100.5s-69.834 -39.5 -114.501 -39.5h-310zM255.001 380.001l-31.999 -200.002c-1.33301 -7.33301 0.666992 -14.166 6 -20.499s11.666 -9.5 18.999 -9.5h125l41 260h-125c-7.33301 0 -14.5 -3.16699 -21.5 -9.5
s-11.167 -13.166 -12.5 -20.499z" />
    <glyph glyph-name="h" unicode="h" horiz-adv-x="635" 
d="M298 530l175 0.000976562c44.667 0 78.834 -13.167 102.501 -39.5s32.167 -59.833 25.5 -100.5l-61 -390h-170l60 380c1.33301 7.33301 -0.833984 14.166 -6.50098 20.499s-12.167 9.5 -19.5 9.5h-125l-64 -410h-170l110 700h170z" />
    <glyph glyph-name="i" unicode="i" horiz-adv-x="300" 
d="M288 530l-83 -530h-170l83 530h170zM296 580h-170l23 140h170z" />
    <glyph glyph-name="j" unicode="j" horiz-adv-x="320" 
d="M-92 -50l109.002 0.000976562c7.33301 0 14.5 3.16699 21.5 9.5s11.167 13.166 12.5 20.499l87 550h170l-88 -560c-6.66699 -40.667 -25.834 -74.167 -57.501 -100.5s-69.834 -39.5 -114.501 -39.5h-159zM316.002 580.001h-170l23 140h170z" />
    <glyph glyph-name="k" unicode="k" horiz-adv-x="610" 
d="M325 700l-59 -375h69l113 205h170l-10 -65l-146 -195l98 -205l-10 -65h-170l-64 205h-69l-32 -205h-170l110 700h170z" />
    <glyph glyph-name="l" unicode="l" horiz-adv-x="360" 
d="M262 110l45.002 -0.000976562l-19 -120h-95c-44.667 0 -78.834 13.167 -102.501 39.5s-32.167 59.833 -25.5 100.5l90 570h170l-88 -560c-1.33301 -7.33301 0.666992 -14.166 6 -20.499s11.666 -9.5 18.999 -9.5z" />
    <glyph glyph-name="m" unicode="m" horiz-adv-x="930" 
d="M581 390l-61.0068 -389.999h-170l61 390c1.33301 7.33301 -0.666992 14.166 -6 20.499s-11.666 9.5 -18.999 9.5h-70c-15.333 0 -28.333 -6 -39 -18c-4.66699 -4.66699 -8.66699 -10.334 -12 -17.001l-60 -385h-170l83 530h110l15 -65h5
c8.66699 16 17.334 28.333 26.001 37c25.333 25.333 54 38 86 38h95c33.333 0 58 -12.667 74 -38c7.33301 -11.333 12 -23.666 14 -36.999h5c8.66699 16 17.334 28.333 26.001 37c25.333 25.333 54 38 86 38h110c44.667 0 78.834 -13.167 102.501 -39.5
s32.167 -59.833 25.5 -100.5l-63 -400h-170l61 390c1.33301 7.33301 -0.666992 14.166 -6 20.499s-11.666 9.5 -18.999 9.5h-85c-7.33301 0 -14.666 -3.16699 -21.999 -9.5s-11.666 -13.166 -12.999 -20.499z" />
    <glyph glyph-name="n" unicode="n" horiz-adv-x="635" 
d="M360 540l114.997 0.00195312c44.667 0 78.834 -13.167 102.501 -39.5s32.167 -59.833 25.5 -100.5l-63 -400h-170l61 390c1.33301 7.33301 -0.666992 14.166 -6 20.499s-11.666 9.5 -18.999 9.5h-90c-15.333 0 -28.333 -6 -39 -18
c-4.66699 -4.66699 -8.66699 -10.334 -12 -17.001l-60 -385h-170l83 530h110l15 -65h5c8.66699 16 17.334 28.333 26.001 37c25.333 25.333 54 38 86 38z" />
    <glyph glyph-name="o" unicode="o" horiz-adv-x="625" 
d="M603 400l-43 -270c-6.66699 -40.667 -25.834 -74.167 -57.501 -100.5s-69.834 -39.5 -114.501 -39.5h-215c-44.667 0 -78.834 13.167 -102.501 39.5s-32.167 59.833 -25.5 100.5l43 270c6.66699 40.667 25.834 74.167 57.501 100.5s69.834 39.5 114.501 39.5h215
c44.667 0 78.834 -13.167 102.501 -39.5s32.167 -59.833 25.5 -100.5zM242 110h115c7.33301 0 14.666 3.16699 21.999 9.5s11.666 13.166 12.999 20.499l39 250c1.33301 7.33301 -0.666992 14.166 -6 20.499s-11.666 9.5 -18.999 9.5h-115
c-7.33301 0 -14.666 -3.16699 -21.999 -9.5s-11.666 -13.166 -12.999 -20.499l-39 -250c-1.33301 -7.33301 0.666992 -14.166 6 -20.499s11.666 -9.5 18.999 -9.5z" />
    <glyph glyph-name="p" unicode="p" horiz-adv-x="615" 
d="M380 0h-175l-27 -170h-170l110 700h110l15 -65h5c8.66699 16 17.334 28.333 26.001 37c25.333 25.333 54 38 86 38h105c44.667 0 78.834 -13.167 102.501 -39.5s32.167 -59.833 25.5 -100.5l-41 -260c-6.66699 -40.667 -25.834 -74.167 -57.501 -100.5
s-69.834 -39.5 -114.501 -39.5zM383 150l37.999 240.003c1.33301 7.33301 -0.666992 14.166 -6 20.499s-11.666 9.5 -18.999 9.5h-80c-15.333 0 -28.333 -6 -39 -18c-4.66699 -4.66699 -8.66699 -10.334 -12 -17.001l-41 -265h125c7.33301 0 14.5 3.16699 21.5 9.5
s11.167 13.166 12.5 20.499z" />
    <glyph glyph-name="q" unicode="q" horiz-adv-x="615" 
d="M350 0h-175.001c-44.667 0 -78.834 13.167 -102.501 39.5s-32.167 59.833 -25.5 100.5l39 250c6.66699 40.667 25.834 74.167 57.501 100.5s69.834 39.5 114.501 39.5h345l-110 -700h-170zM254.999 380l-37.001 -230.002
c-1.33301 -7.33301 0.833984 -14.166 6.50098 -20.499s12.167 -9.5 19.5 -9.5h125l45 290h-125c-7.33301 0 -14.5 -3.16699 -21.5 -9.5s-11.167 -13.166 -12.5 -20.499z" />
    <glyph glyph-name="r" unicode="r" horiz-adv-x="470" 
d="M360 540h150l-19 -120h-175c-15.333 0 -28.333 -6 -39 -18c-4.66699 -4.66699 -8.66699 -10.334 -12 -17.001l-60 -385h-170l83 530h110l16 -60h5c6 12.667 14.333 24.334 25 35.001c26 23.333 54.667 35 86 35z" />
    <glyph glyph-name="s" unicode="s" horiz-adv-x="545" 
d="M332 145l4.00098 20c2 16 -6.66699 26 -26 30l-165 30c-28 6 -50.333 20.667 -67 44s-22.334 52 -17.001 86l6 40c6.66699 40.667 24.834 73.334 54.501 98.001s66.834 37 111.501 37h300l-11 -75l-48 -45h-210c-16.667 0 -26.334 -8.33301 -29.001 -25l-2 -15
c-2 -16 6.33301 -26 25 -30l166 -30c28 -6 50.333 -20.667 67 -44s22.334 -52 17.001 -86l-7 -45c-6.66699 -40.667 -24.834 -73.334 -54.501 -98.001s-66.834 -37 -111.501 -37h-330l19 120h280c16.667 0 26 8.33301 28 25z" />
    <glyph glyph-name="t" unicode="t" horiz-adv-x="465" 
d="M277 110l160.002 -0.000976562l-19 -120h-210c-44.667 0 -78.834 13.167 -102.501 39.5s-32.167 59.833 -25.5 100.5l44 280h-70l19 120h80l83 140h100l-23 -140h135l-19 -120h-135l-42 -270c-1.33301 -7.33301 0.666992 -14.166 6 -20.499s11.666 -9.5 18.999 -9.5z" />
    <glyph glyph-name="u" unicode="u" horiz-adv-x="635" 
d="M298 -10l-114.997 -0.000976562c-44.667 0 -78.834 13.167 -102.501 39.5s-32.167 59.833 -25.5 100.5l63 400h170l-61 -390c-1.33301 -7.33301 0.666992 -14.166 6 -20.499s11.666 -9.5 18.999 -9.5h90c15.333 0 28 5.66699 38 17c5.33301 4.66699 9.33301 10.667 12 18
l61 385h170l-83 -530h-110l-15 65h-5c-8 -16 -16.667 -28.667 -26 -38c-24.667 -24.667 -53.334 -37 -86.001 -37z" />
    <glyph glyph-name="v" unicode="v" horiz-adv-x="600" 
d="M375 0h-210l-92 465l10 65h170l34 -385h10l156 385h170l-10 -65z" />
    <glyph glyph-name="w" unicode="w" horiz-adv-x="840" 
d="M439 280h-10l-119 -280h-205l-27 465l10 65h170l-8 -340h10l112 265h180l28 -265h10l98 340h170l-10 -65l-173 -465h-205z" />
    <glyph glyph-name="x" unicode="x" horiz-adv-x="570" 
d="M305 350h10l103 180h170l-10 -65l-162 -200l109 -200l-10 -65h-170l-56 185h-10l-114 -185h-170l10 65l171 200l-98 200l10 65h170z" />
    <glyph glyph-name="y" unicode="y" horiz-adv-x="580" 
d="M603 465l-266 -515.001c-18 -33.333 -43.167 -61.666 -75.5 -84.999s-68.5 -35 -108.5 -35h-115l19 120h80c25.333 0 42.333 13.333 51 40l2 10l-127 465l10 65h170l47 -370h10l143 370h170z" />
    <glyph glyph-name="z" unicode="z" horiz-adv-x="525" 
d="M313 400l1 10h-210l-32 45l11 75h455l-18 -115l-295 -285l-1 -10h260l-19 -120h-465l18 115z" />
    <glyph glyph-name="braceleft" unicode="{" horiz-adv-x="425" 
d="M293 180l-31.002 -195.001c-1.33301 -10 0.833984 -18.333 6.50098 -25s13.5 -10 23.5 -10h55l-21 -130h-110c-47.333 0 -83.5 14.167 -108.5 42.5s-34.167 64.166 -27.5 107.499l33 210c2 12.667 -0.666992 23.334 -8 32.001s-17.333 13 -30 13h-30l22 140h30
c12.667 0 24 4.33301 34 13s16 19.334 18 32.001l34 210c6.66699 42.667 27.167 78.334 61.5 107.001s74.833 43 121.5 43h110l-20 -130h-55c-10 0 -19 -3.33301 -27 -10s-12.667 -15 -14 -25l-31 -195c-6 -37.333 -27.333 -67 -64 -89
c-17.333 -9.33301 -35 -16.333 -53 -21l-2 -10c18.667 -5.33301 34.334 -12.333 47.001 -21c30 -20.667 42 -50.334 36 -89.001z" />
    <glyph glyph-name="bar" unicode="|" horiz-adv-x="340" 
d="M351 770l-155 -980h-180l155 980h180z" />
    <glyph glyph-name="braceright" unicode="}" horiz-adv-x="425" 
d="M97 -15l30.998 195.002c6 38.667 27.333 68.334 64 89.001c16 8.66699 33.667 15.667 53 21l2 10c-18 4.66699 -33.667 11.667 -47 21c-30 20.667 -42 50.334 -36 89.001l31 195c1.33301 10 -0.666992 18.333 -6 25s-13 10 -23 10h-55l20 130h110
c46.667 0 82.834 -14.333 108.501 -43s35.167 -64.334 28.5 -107.001l-34 -210c-2 -12.667 0.666992 -23.334 8 -32.001s17.333 -13 30 -13h30l-22 -140h-30c-12.667 0 -24 -4.33301 -34 -13s-16 -19.334 -18 -32.001l-33 -210
c-6.66699 -42.667 -27.167 -78.334 -61.5 -107.001s-75.166 -43 -122.499 -43h-110l21 130h55c10 0 18.833 3.33301 26.5 10s12.167 15 13.5 25z" />
    <glyph glyph-name="asciitilde" unicode="~" horiz-adv-x="525" 
d="M518 435l-22.998 -145c-3.33301 -22.667 -13.833 -41.667 -31.5 -57s-37.834 -23 -60.501 -23h-50c-19.333 0 -36.666 5 -51.999 15c-7.33301 4 -13.333 9 -18 15l-56 60l-7 7c-5.33301 5.33301 -9 8 -11 8c-6.66699 0 -10.334 -3.33301 -11.001 -10l-14 -85h-135l23 145
c3.33301 22.667 14 41.667 32 57s38.333 23 61 23h50c17.333 0 34.666 -5 51.999 -15c7.33301 -5.33301 13.333 -10.333 18 -15l56 -60l7 -8c4.66699 -4.66699 8 -7 10 -7c7.33301 0 11.333 3.33301 12 10l13 85h135z" />
    <glyph glyph-name="nbspace" unicode="&#xa0;" horiz-adv-x="310" 
 />
    <glyph glyph-name="exclamdown" unicode="&#xa1;" horiz-adv-x="330" 
d="M210 -20l-21 320h130l81 -320l23 -150h-190zM143 530h150l23 -150h-150z" />
    <glyph glyph-name="cent" unicode="&#xa2;" horiz-adv-x="540" 
d="M455 600l-12.002 -70.002h115l-11 -75l-48 -45h-210c-7.33301 0 -14.5 -3.16699 -21.5 -9.5s-11.167 -13.166 -12.5 -20.499l-37 -230c-1.33301 -7.33301 0.833984 -14.166 6.50098 -20.499s12.167 -9.5 19.5 -9.5h250l-19 -120h-115l-12 -70h-180l12 70h-5
c-44.667 0 -78.834 13.167 -102.501 39.5s-32.167 59.833 -25.5 100.5l39 250c6.66699 40.667 25.834 74.167 57.501 100.5s69.834 39.5 114.501 39.5h5l12 70h180z" />
    <glyph glyph-name="sterling" unicode="&#xa3;" horiz-adv-x="585" 
d="M129 220l16.999 104.999h-60l19 120h60l20 125c5.33301 40 24.166 73.333 56.499 100s70.833 40 115.5 40h250l-12 -75l-47 -45h-160c-7.33301 0 -14.666 -3.16699 -21.999 -9.5s-11.666 -13.166 -12.999 -20.499l-18 -115h135l-19 -120h-135l-17 -105
c-4 -26.667 -16.333 -47.667 -37 -63c-10 -7.33301 -20 -13 -30 -17l-2 -10h315l-20 -130h-525l20 130h30c14 6.66699 26 14 36 22c24.667 19.333 39 42 43 68z" />
    <glyph glyph-name="currency" unicode="&#xa4;" 
d="M39 215l69.999 0.000976562l9 60h-70l17 110h70l50 315h380c48.667 0 85.167 -14.5 109.5 -43.5s33.5 -64.5 27.5 -106.5l-20 -125c-6.66699 -42.667 -27.167 -78.334 -61.5 -107.001s-75.166 -43 -122.499 -43h-200l-9 -60h245l-18 -110h-245l-16 -105h-180l16 105h-70z
M489.999 570.001h-145l-30 -185h145c10 0 19 3.33301 27 10s12.667 15 14 25l18 115c1.33301 10 -0.666992 18.333 -6 25s-13 10 -23 10z" />
    <glyph glyph-name="yen" unicode="&#xa5;" horiz-adv-x="650" 
d="M520 360h67l-19 -120h-128l-23 -35l-2 -15h145l-19 -120h-145l-11 -70h-180l11 70h-145l19 120h145l2 15l-12 35h-127l19 120h66l-94 270l11 70h180l68 -330h10l172 330h180l-11 -70z" />
    <glyph glyph-name="brokenbar" unicode="&#xa6;" horiz-adv-x="340" 
d="M196 -210h-180l65 410h180zM351 770l-64 -410h-180l64 410h180z" />
    <glyph glyph-name="section" unicode="&#xa7;" horiz-adv-x="585" 
d="M374 215l14 90c3.33301 16.667 -3.33398 26.667 -20.001 30l-93 15c-10 0 -18.833 -3.33301 -26.5 -10s-12.5 -15 -14.5 -25l-14 -90c-3.33301 -16.667 3.33398 -26.667 20.001 -30l93 -15c10 0 18.833 3.33301 26.5 10s12.5 15 14.5 25zM48 210l16 99.998
c4 31.333 20.333 55.666 49 72.999c13.333 8 26.666 13.667 39.999 17l1 10c-11.333 4 -21.333 9.66699 -30 17c-19.333 16.667 -26 41 -20 73l9 60c6.66699 40.667 25.834 74.167 57.501 100.5s69.834 39.5 114.501 39.5h300l-12 -75l-47 -45h-210
c-7.33301 0 -14.5 -3.16699 -21.5 -9.5s-11.167 -13.166 -12.5 -20.499l-8 -50c-1.33301 -7.33301 0.5 -13.833 5.5 -19.5s11.5 -9.16699 19.5 -10.5l161 -25c32 -5.33301 58 -20.166 78 -44.499s27.333 -51.166 22 -80.499l-15 -95
c-5.33301 -31.333 -21 -55.666 -47 -72.999c-13.333 -8 -25.666 -13.667 -36.999 -17l-2 -10c12 -4 22.667 -9.66699 32 -17c21.333 -18.667 29.333 -43 24 -73l-10 -65c-6.66699 -40.667 -25.834 -74.167 -57.501 -100.5s-69.834 -39.5 -114.501 -39.5h-335l19 120h285
c7.33301 0 14.5 3.16699 21.5 9.5s11.167 13.166 12.5 20.499l8 50c1.33301 7.33301 -0.5 13.833 -5.5 19.5s-11.5 9.16699 -19.5 10.5l-171 25c-32 4 -57.833 18.333 -77.5 43s-27.167 52 -22.5 82z" />
    <glyph glyph-name="dieresis" unicode="&#xa8;" horiz-adv-x="430" 
d="M238 560h-150l22 140h150zM458 560h-150l22 140h150z" />
    <glyph glyph-name="copyright" unicode="&#xa9;" horiz-adv-x="985" 
d="M671 460h-150.002c-19.333 0 -30.666 -10 -33.999 -30l-26 -160c-3.33301 -20 5.33398 -30 26.001 -30h180l-16 -100h-220c-42 0 -72.5 10.5 -91.5 31.5s-25.5 50.5 -19.5 88.5l28 180c6 38 21.833 67.5 47.5 88.5s59.5 31.5 101.5 31.5h220l-10 -65zM980.998 580
l-72 -460c-6.66699 -42.667 -27.167 -78.334 -61.5 -107.001s-75.166 -43 -122.499 -43h-535c-47.333 0 -83.5 14.167 -108.5 42.5s-34.167 64.166 -27.5 107.499l72 460c6.66699 42.667 27.167 78.334 61.5 107.001s75.166 43 122.499 43h535
c47.333 0 83.5 -14.167 108.5 -42.5s34.167 -64.166 27.5 -107.499zM295.998 575l-72 -450c-1.33301 -10 0.833984 -18.333 6.50098 -25s13.5 -10 23.5 -10h445c10 0 18.833 3.33301 26.5 10s12.167 15 13.5 25l72 450c1.33301 10 -0.833984 18.333 -6.50098 25
s-13.5 10 -23.5 10h-445c-10 0 -18.833 -3.33301 -26.5 -10s-12.167 -15 -13.5 -25z" />
    <glyph glyph-name="ordfeminine" unicode="&#xaa;" horiz-adv-x="410" 
d="M320 415h-5.00195c-4 -6 -10.667 -13.667 -20 -23c-17.333 -14.667 -36.333 -22 -57 -22h-60c-36 0 -62.333 10 -79 30s-23 44.667 -19 74s17.333 53.333 40 72s52.334 28 89.001 28h101l4 21c2.66699 20 -6 30 -26 30h-140l14 85h175c36.667 0 64.334 -9.5 83.001 -28.5
s25.667 -42.833 21 -71.5l-36 -230h-73zM199.998 474c-4 -19.333 2.66797 -28.999 20.001 -28.999h30c12 0 22.167 3 30.5 9s13.166 13 14.499 21l4 29h-71c-9.33301 0 -16 -2.33301 -20 -7s-6.66699 -12.334 -8 -23.001z" />
    <glyph glyph-name="guillemotleft" unicode="&#xab;" horiz-adv-x="590" 
d="M76 260l132 205h130l-9 -55l-98 -150l51 -150l-9 -55h-130zM306 260l132 205h130l-9 -55l-98 -150l51 -150l-9 -55h-130z" />
    <glyph glyph-name="logicalnot" unicode="&#xac;" horiz-adv-x="510" 
d="M71 450h450l-37 -230h-145l16 100h-305z" />
    <glyph glyph-name="uni00AD" unicode="&#xad;" horiz-adv-x="490" 
d="M60 380h430l-21 -130h-430z" />
    <glyph glyph-name="registered" unicode="&#xae;" horiz-adv-x="985" 
d="M981 580l-72 -460c-6.66699 -42.667 -27.167 -78.334 -61.5 -107.001s-75.166 -43 -122.499 -43h-535c-47.333 0 -83.5 14.167 -108.5 42.5s-34.167 64.166 -27.5 107.499l72 460c6.66699 42.667 27.167 78.334 61.5 107.001s75.166 43 122.499 43h535
c47.333 0 83.5 -14.167 108.5 -42.5s34.167 -64.166 27.5 -107.499zM296 575l-72 -450c-1.33301 -10 0.833984 -18.333 6.50098 -25s13.5 -10 23.5 -10h445c10 0 18.833 3.33301 26.5 10s12.167 15 13.5 25l72 450c1.33301 10 -0.833984 18.333 -6.50098 25
s-13.5 10 -23.5 10h-445c-10 0 -18.833 -3.33301 -26.5 -10s-12.167 -15 -13.5 -25zM437 140l-139.999 -0.000976562l66 420h250c42 0 72.5 -10.5 91.5 -31.5s25.5 -50.5 19.5 -88.5l-6 -40c-5.33301 -31.333 -21 -56.666 -47 -75.999
c-10.667 -6.66699 -23.334 -13 -38.001 -19l67 -110l-8 -55h-140l-48 140h-45zM558.001 464.999h-70l-14 -90h70c19.333 0 31 10 35 30l4 30c4 20 -4.33301 30 -25 30z" />
    <glyph glyph-name="macron" unicode="&#xaf;" horiz-adv-x="415" 
d="M450 700l-17 -110h-325l17 110h325z" />
    <glyph glyph-name="degree" unicode="&#xb0;" horiz-adv-x="435" 
d="M456 610l-22 -140c-4.66699 -28.667 -19.334 -52.5 -44.001 -71.5s-55.334 -28.5 -92.001 -28.5h-105c-36.667 0 -64.334 9.5 -83.001 28.5s-25.667 42.833 -21 71.5l22 140c4.66699 28.667 19.334 52.5 44.001 71.5s55.334 28.5 92.001 28.5h105
c36.667 0 64.334 -9.5 83.001 -28.5s25.667 -42.833 21 -71.5zM238 590l-15.998 -100c-2.66699 -20 5.66602 -30 24.999 -30h25c20 0 31.667 10 35 30l16 100c3.33301 20 -5 30 -25 30h-25c-20.667 0 -32.334 -10 -35.001 -30z" />
    <glyph glyph-name="plusminus" unicode="&#xb1;" horiz-adv-x="530" 
d="M82 460h160l26 165h130l-26 -165h160l-20 -130h-160l-22 -140h160l-21 -130h-450l21 130h160l22 140h-160z" />
    <glyph glyph-name="twosuperior" unicode="&#xb2;" horiz-adv-x="360" 
d="M353 370l-290.002 0.000976562l13 80l156 100l11 9c8 8 12.333 15 13 21c4 20 -4.33301 30 -25 30h-120l14 90h160c36.667 0 64.334 -9.5 83.001 -28.5s26 -42.833 22 -71.5c-4 -22.667 -18.667 -45.334 -44 -68.001c-9.33301 -8.66699 -21.666 -17.667 -36.999 -27
l-60 -35l-2 -10h120z" />
    <glyph glyph-name="threesuperior" unicode="&#xb3;" horiz-adv-x="360" 
d="M369 470l-1.99902 -10.002c-4 -23.333 -17.833 -44.166 -41.5 -62.499s-51.167 -27.5 -82.5 -27.5h-180l13 80h130c19.333 0 31 10 35 30c3.33301 20 -5.33398 30 -26.001 30h-75l8 50l93 50l2 10h-140l12 80h275l-12 -80l-105 -60c32.667 0 58 -8.16699 76 -24.5
s24.667 -38.166 20 -65.499z" />
    <glyph glyph-name="acute" unicode="&#xb4;" horiz-adv-x="310" 
d="M185 700h175l-145 -160h-130z" />
    <glyph glyph-name="mu" unicode="&#xb5;" horiz-adv-x="635" 
d="M298 -10l-48.998 -0.000976562c-8.66699 0 -17.667 3.33301 -27 10c-5.33301 4 -9 7.33301 -11 10h-5l-28 -180h-170l110 700h170l-61 -390c-1.33301 -7.33301 0.666992 -14.166 6 -20.499s11.666 -9.5 18.999 -9.5h90c15.333 0 28 5.66699 38 17
c5.33301 4.66699 9.33301 10.667 12 18l61 385h170l-83 -530h-110l-15 65h-5c-8 -16 -16.667 -28.667 -26 -38c-24.667 -24.667 -53.334 -37 -86.001 -37z" />
    <glyph glyph-name="paragraph" unicode="&#xb6;" horiz-adv-x="670" 
d="M270 700h454.999l-20 -130h-80l-117 -740h-150l117 740h-55l-117 -740h-150l76 480h-20c-44.667 0 -78.834 13.167 -102.501 39.5s-32.167 59.833 -25.5 100.5l17 110c6.66699 40.667 25.834 74.167 57.501 100.5s69.834 39.5 114.501 39.5z" />
    <glyph glyph-name="periodcentered" unicode="&#xb7;" horiz-adv-x="310" 
d="M243 275h-150l24 150h150z" />
    <glyph glyph-name="cedilla" unicode="&#xb8;" horiz-adv-x="306" 
d="M-3 -115l19 115h95l-6 -35h40c28 0 49.5 -8.5 64.5 -25.5s20.5 -38.5 16.5 -64.5l-5 -31c-4 -24.667 -16.333 -45.667 -37 -63s-44.667 -26 -72 -26h-150l11 80h101c16 0 25.667 8.33301 29 25c1.33301 7.33301 0 13.333 -4 18s-9.66699 7 -17 7h-85z" />
    <glyph glyph-name="onesuperior" unicode="&#xb9;" horiz-adv-x="270" 
d="M171 610h-70l11 70l103 20h100l-52 -330h-130z" />
    <glyph glyph-name="ordmasculine" unicode="&#xba;" horiz-adv-x="405" 
d="M436 610l-22 -140c-4.66699 -28.667 -19.334 -52.5 -44.001 -71.5s-55.334 -28.5 -92.001 -28.5h-95c-36.667 0 -64.334 9.5 -83.001 28.5s-25.667 42.833 -21 71.5l22 140c4.66699 28.667 19.334 52.5 44.001 71.5s55.334 28.5 92.001 28.5h95
c36.667 0 64.334 -9.5 83.001 -28.5s25.667 -42.833 21 -71.5zM228 590l-15.998 -100c-2.66699 -20 5.66602 -30 24.999 -30h15c20 0 31.667 10 35 30l16 100c3.33301 20 -5 30 -25 30h-15c-20.667 0 -32.334 -10 -35.001 -30z" />
    <glyph glyph-name="guillemotright" unicode="&#xbb;" horiz-adv-x="590" 
d="M468 465l68 -205l-133 -205h-130l9 55l99 150l-52 150l9 55h130zM238 465l68 -205l-133 -205h-130l9 55l99 150l-52 150l9 55h130z" />
    <glyph glyph-name="onequarter" unicode="&#xbc;" horiz-adv-x="816" 
d="M606 700h145l-9 -60l-501 -640h-145l9 60zM171 610h-70l11 70l103 20h100l-52 -330h-130zM628 330h135l-33 -205h40l-12 -80h-40l-7 -45h-120l7 45h-175l11 70zM551 130l-1 -5h60l13 80h-5z" />
    <glyph glyph-name="onehalf" unicode="&#xbd;" horiz-adv-x="841" 
d="M606 700h145l-9 -60l-501 -640h-145l9 60zM171 610h-70l11 70l103 20h100l-52 -330h-130zM776 0h-290.003l12 80l156 100l11 9c6.66699 6.66699 11.334 13.667 14.001 21c3.33301 20 -5 30 -25 30h-120l14 90h160c36.667 0 64.334 -9.5 83.001 -28.5
s25.667 -42.833 21 -71.5c-4 -23.333 -18.333 -46 -43 -68c-9.33301 -8.66699 -21.666 -17.667 -36.999 -27l-61 -35l-1 -10h120z" />
    <glyph glyph-name="threequarters" unicode="&#xbe;" horiz-adv-x="855" 
d="M645 700h145l-9 -60l-501 -640h-145l9 60zM667 330h135l-33 -205h40l-12 -80h-40l-7 -45h-120l7 45h-175l11 70zM590 130l-1 -5h60l13 80h-5zM369 470l-1.99902 -10.002c-4 -23.333 -17.833 -44.166 -41.5 -62.499s-51.167 -27.5 -82.5 -27.5h-180l13 80h130
c19.333 0 31 10 35 30c3.33301 20 -5.33398 30 -26.001 30h-75l8 50l93 50l2 10h-140l12 80h275l-12 -80l-105 -60c32.667 0 58 -8.16699 76 -24.5s24.667 -38.166 20 -65.499z" />
    <glyph glyph-name="questiondown" unicode="&#xbf;" horiz-adv-x="505" 
d="M353 530h150l-23 -150h-150zM257 45l-7.99902 -50.002c-1.33301 -10 0.666992 -18.333 6 -25s13 -10 23 -10h230l33 -45l-13 -85h-325c-46.667 0 -82.834 14.333 -108.501 43s-35.167 64.334 -28.5 107.001l14 85c7.33301 48.667 31 82 71 100l118 55
c12 6 20.833 11.833 26.5 17.5s9.16699 13.167 10.5 22.5l6 40h160l-11 -70c-9.33301 -49.333 -33 -82.666 -71 -99.999l-97 -45c-21.333 -10 -33.333 -23.333 -36 -40z" />
    <glyph glyph-name="Agrave" unicode="&#xc0;" 
d="M455 0l-12 150h-210l-58 -150h-180l11 70l299 630h240l101 -630l-11 -70h-180zM429 280l-24 260h-10l-106 -260h140zM286 930h175l50 -160h-130z" />
    <glyph glyph-name="Aacute" unicode="&#xc1;" 
d="M455 0l-12 150h-210l-58 -150h-180l11 70l299 630h240l101 -630l-11 -70h-180zM429 280l-24 260h-10l-106 -260h140zM471 930h175l-145 -160h-130z" />
    <glyph glyph-name="Acircumflex" unicode="&#xc2;" 
d="M455 0l-12 150h-210l-58 -150h-180l11 70l299 630h240l101 -630l-11 -70h-180zM429 280l-24 260h-10l-106 -260h140zM371 770h-135l148 150h150l102 -150h-135l-54 70z" />
    <glyph glyph-name="Atilde" unicode="&#xc3;" 
d="M455 0l-12 150h-210l-58 -150h-180l11 70l299 630h240l101 -630l-11 -70h-180zM429 280l-24 260h-10l-106 -260h140zM270 765l15 95.001c3.33301 20 13 36.667 29 50s35 20 57 20h15c8.66699 0 19.667 -4.33301 33 -13c6 -3.33301 12 -7.33301 18 -12l41 -30
c2.66699 -2.66699 5 -4.33398 7 -5.00098c5.33301 -3.33301 9 -5 11 -5c6.66699 0 10.667 5 12 15l8 45h110l-15 -95c-3.33301 -20 -13.166 -36.667 -29.499 -50s-35.5 -20 -57.5 -20h-15c-9.33301 0 -20.333 4 -33 12c-4 2 -10 6.33301 -18 13l-40 30l-7 5
c-4.66699 3.33301 -8.33398 5 -11.001 5c-6.66699 0 -11 -5 -13 -15l-7 -45h-110z" />
    <glyph glyph-name="Adieresis" unicode="&#xc4;" 
d="M455 0l-12 150h-210l-58 -150h-180l11 70l299 630h240l101 -630l-11 -70h-180zM429 280l-24 260h-10l-106 -260h140zM401 770h-150l22 140h150zM621 770h-150l22 140h150z" />
    <glyph glyph-name="Aring" unicode="&#xc5;" 
d="M455 0l-12 150h-210l-58 -150h-180l11 70l293 617c-2 10 -2 21 0 33l6 40c4 26 16.167 47.5 36.5 64.5s44.5 25.5 72.5 25.5h70c28 0 49.5 -8.5 64.5 -25.5s20.5 -38.5 16.5 -64.5l-6 -40c-2 -12 -6 -23 -12 -33l99 -617l-11 -70h-180zM429 280l-24 260h-10l-106 -260
h140zM448 780l-19.998 -0.000976562c-14 0 -21.667 -6.66699 -23 -20l-6 -40c-3.33301 -13.333 2 -20 16 -20h22c11.333 0.666992 18.666 7.33398 21.999 20.001l6 40c1.33301 13.333 -4.33398 20 -17.001 20z" />
    <glyph glyph-name="AE" unicode="&#xc6;" horiz-adv-x="1005" 
d="M1050 700l-13 -85l-47 -45h-275l-24 -150h225l-21 -130h-225l-25 -160h315l-20 -130h-495l28 180h-220l-93 -180h-175l11 70l374 630h680zM465 570l-141 -260h170l41 260h-70z" />
    <glyph glyph-name="Ccedilla" unicode="&#xc7;" horiz-adv-x="605" 
d="M270 130l290.001 -0.00195312l-20 -130h-220l-6 -35h40c28 0 49.5 -8.5 64.5 -25.5s20.5 -38.5 16.5 -64.5l-5 -31c-4 -24.667 -16.333 -45.667 -37 -63s-44.667 -26 -72 -26h-151l12 80h101c16 0 25.667 8.33301 29 25c1.33301 7.33301 0 13.333 -4 18s-9.66699 7 -17 7
h-85l19 115h-30c-46.667 0 -82.834 14.333 -108.501 43s-35.167 64.334 -28.5 107.001l64 400c6.66699 42.667 27 78.334 61 107.001s74.667 43 122 43h345l-13 -85l-47 -45h-250c-10 0 -19 -3.33301 -27 -10s-12.667 -15 -14 -25l-58 -370
c-2 -10 -0.166992 -18.333 5.5 -25s13.5 -10 23.5 -10z" />
    <glyph glyph-name="Egrave" unicode="&#xc8;" horiz-adv-x="615" 
d="M660 700l-13 -85l-47 -45h-280l-24 -150h230l-21 -130h-230l-25 -160h320l-20 -130h-500l110 700h500zM278 930h175l50 -160h-130z" />
    <glyph glyph-name="Eacute" unicode="&#xc9;" horiz-adv-x="615" 
d="M660 700l-13 -85l-47 -45h-280l-24 -150h230l-21 -130h-230l-25 -160h320l-20 -130h-500l110 700h500zM423 930h175l-145 -160h-130z" />
    <glyph glyph-name="Ecircumflex" unicode="&#xca;" horiz-adv-x="615" 
d="M660 700l-13 -85l-47 -45h-280l-24 -150h230l-21 -130h-230l-25 -160h320l-20 -130h-500l110 700h500zM353 770h-135l148 150h150l102 -150h-135l-54 70z" />
    <glyph glyph-name="Edieresis" unicode="&#xcb;" horiz-adv-x="615" 
d="M660 700l-13 -85l-47 -45h-280l-24 -150h230l-21 -130h-230l-25 -160h320l-20 -130h-500l110 700h500zM383 770h-150l22 140h150zM603 770h-150l22 140h150z" />
    <glyph glyph-name="Igrave" unicode="&#xcc;" horiz-adv-x="340" 
d="M230 0h-180l110 700h180zM111 930h175l50 -160h-130z" />
    <glyph glyph-name="Iacute" unicode="&#xcd;" horiz-adv-x="340" 
d="M230 0h-180l110 700h180zM286 930h175l-145 -160h-130z" />
    <glyph glyph-name="Icircumflex" unicode="&#xce;" horiz-adv-x="340" 
d="M230 0h-180l110 700h180zM198 770h-135l148 150h150l102 -150h-135l-54 70z" />
    <glyph glyph-name="Idieresis" unicode="&#xcf;" horiz-adv-x="340" 
d="M230 0h-180l110 700h180zM228 770h-150l22 140h150zM448 770h-150l22 140h150z" />
    <glyph glyph-name="Eth" unicode="&#xd0;" 
d="M435 0l-385.001 0.00195312l47 300h-60l17 110h60l46 290h385c46.667 0 82.834 -14.333 108.501 -43s35.167 -64.334 28.5 -107.001l-64 -400c-6.66699 -42.667 -27 -78.334 -61 -107.001s-74.667 -43 -122 -43zM469.999 570.002h-150l-26 -160h115l-17 -110h-115
l-27 -170h150c10 0 18.833 3.33301 26.5 10s12.5 15 14.5 25l58 370c1.33301 10 -0.666992 18.333 -6 25s-13 10 -23 10z" />
    <glyph glyph-name="Ntilde" unicode="&#xd1;" horiz-adv-x="710" 
d="M710 700l-110 -700h-195l-131 440h-10l-3 -240l-31 -200h-180l110 700h195l131 -440h10l3 240l31 200h180zM282 775l15 95.001c3.33301 20 13 36.667 29 50s35 20 57 20h15c8.66699 0 19.667 -4.33301 33 -13c6 -3.33301 12 -7.33301 18 -12l41 -30
c2.66699 -2.66699 5 -4.33398 7 -5.00098c5.33301 -3.33301 9 -5 11 -5c6.66699 0 10.667 5 12 15l8 45h110l-15 -95c-3.33301 -20 -13.166 -36.667 -29.499 -50s-35.5 -20 -57.5 -20h-15c-9.33301 0 -20.333 4 -33 12c-4 2 -10 6.33301 -18 13l-40 30l-7 5
c-4.66699 3.33301 -8.33398 5 -11.001 5c-6.66699 0 -11 -5 -13 -15l-7 -45h-110z" />
    <glyph glyph-name="Ograve" unicode="&#xd2;" 
d="M269 120h130c10 0 18.833 3.33301 26.5 10s12.167 15 13.5 25l62 390c1.33301 10 -0.833984 18.333 -6.50098 25s-13.5 10 -23.5 10h-130c-10 0 -18.833 -3.33301 -26.5 -10s-12.167 -15 -13.5 -25l-62 -390c-1.33301 -10 0.833984 -18.333 6.50098 -25
s13.5 -10 23.5 -10zM433 -10h-239.999c-47.333 0 -83.5 14.167 -108.5 42.5s-34.167 64.166 -27.5 107.499l66 420c6.66699 42.667 27.167 78.334 61.5 107.001s75.166 43 122.499 43h240c48.667 0 85.167 -14.667 109.5 -44s33.166 -64.666 26.499 -105.999l-66 -420
c-6.66699 -42.667 -27.167 -78.334 -61.5 -107.001s-75.166 -43 -122.499 -43zM296.001 930h175l50 -160h-130z" />
    <glyph glyph-name="Oacute" unicode="&#xd3;" 
d="M269 120h130c10 0 18.833 3.33301 26.5 10s12.167 15 13.5 25l62 390c1.33301 10 -0.833984 18.333 -6.50098 25s-13.5 10 -23.5 10h-130c-10 0 -18.833 -3.33301 -26.5 -10s-12.167 -15 -13.5 -25l-62 -390c-1.33301 -10 0.833984 -18.333 6.50098 -25
s13.5 -10 23.5 -10zM433 -10h-239.999c-47.333 0 -83.5 14.167 -108.5 42.5s-34.167 64.166 -27.5 107.499l66 420c6.66699 42.667 27.167 78.334 61.5 107.001s75.166 43 122.499 43h240c48.667 0 85.167 -14.667 109.5 -44s33.166 -64.666 26.499 -105.999l-66 -420
c-6.66699 -42.667 -27.167 -78.334 -61.5 -107.001s-75.166 -43 -122.499 -43zM471.001 930h175l-145 -160h-130z" />
    <glyph glyph-name="Ocircumflex" unicode="&#xd4;" 
d="M269 120h130c10 0 18.833 3.33301 26.5 10s12.167 15 13.5 25l62 390c1.33301 10 -0.833984 18.333 -6.50098 25s-13.5 10 -23.5 10h-130c-10 0 -18.833 -3.33301 -26.5 -10s-12.167 -15 -13.5 -25l-62 -390c-1.33301 -10 0.833984 -18.333 6.50098 -25
s13.5 -10 23.5 -10zM433 -10h-239.999c-47.333 0 -83.5 14.167 -108.5 42.5s-34.167 64.166 -27.5 107.499l66 420c6.66699 42.667 27.167 78.334 61.5 107.001s75.166 43 122.499 43h240c48.667 0 85.167 -14.667 109.5 -44s33.166 -64.666 26.499 -105.999l-66 -420
c-6.66699 -42.667 -27.167 -78.334 -61.5 -107.001s-75.166 -43 -122.499 -43zM371.001 770h-135l148 150h150l102 -150h-135l-54 70z" />
    <glyph glyph-name="Otilde" unicode="&#xd5;" 
d="M269 120h130c10 0 18.833 3.33301 26.5 10s12.167 15 13.5 25l62 390c1.33301 10 -0.833984 18.333 -6.50098 25s-13.5 10 -23.5 10h-130c-10 0 -18.833 -3.33301 -26.5 -10s-12.167 -15 -13.5 -25l-62 -390c-1.33301 -10 0.833984 -18.333 6.50098 -25
s13.5 -10 23.5 -10zM433 -10h-239.999c-47.333 0 -83.5 14.167 -108.5 42.5s-34.167 64.166 -27.5 107.499l66 420c6.66699 42.667 27.167 78.334 61.5 107.001s75.166 43 122.499 43h240c48.667 0 85.167 -14.667 109.5 -44s33.166 -64.666 26.499 -105.999l-66 -420
c-6.66699 -42.667 -27.167 -78.334 -61.5 -107.001s-75.166 -43 -122.499 -43zM272.001 775l15 95.001c3.33301 20 13 36.667 29 50s35 20 57 20h15c8.66699 0 19.667 -4.33301 33 -13c6 -3.33301 12 -7.33301 18 -12l41 -30c2.66699 -2.66699 5 -4.33398 7 -5.00098
c5.33301 -3.33301 9 -5 11 -5c6.66699 0 10.667 5 12 15l8 45h110l-15 -95c-3.33301 -20 -13.166 -36.667 -29.499 -50s-35.5 -20 -57.5 -20h-15c-9.33301 0 -20.333 4 -33 12c-4 2 -10 6.33301 -18 13l-40 30l-7 5c-4.66699 3.33301 -8.33398 5 -11.001 5
c-6.66699 0 -11 -5 -13 -15l-7 -45h-110z" />
    <glyph glyph-name="Odieresis" unicode="&#xd6;" 
d="M269 120h130c10 0 18.833 3.33301 26.5 10s12.167 15 13.5 25l62 390c1.33301 10 -0.833984 18.333 -6.50098 25s-13.5 10 -23.5 10h-130c-10 0 -18.833 -3.33301 -26.5 -10s-12.167 -15 -13.5 -25l-62 -390c-1.33301 -10 0.833984 -18.333 6.50098 -25
s13.5 -10 23.5 -10zM433 -10h-239.999c-47.333 0 -83.5 14.167 -108.5 42.5s-34.167 64.166 -27.5 107.499l66 420c6.66699 42.667 27.167 78.334 61.5 107.001s75.166 43 122.499 43h240c48.667 0 85.167 -14.667 109.5 -44s33.166 -64.666 26.499 -105.999l-66 -420
c-6.66699 -42.667 -27.167 -78.334 -61.5 -107.001s-75.166 -43 -122.499 -43zM401.001 770h-150l22 140h150zM621.001 770h-150l22 140h150z" />
    <glyph glyph-name="multiply" unicode="&#xd7;" horiz-adv-x="510" 
d="M259 215l-144 -120l-75 95l143 115l-107 115l105 95l106 -120l144 120l75 -95l-143 -115l107 -115l-105 -95z" />
    <glyph glyph-name="Oslash" unicode="&#xd8;" 
d="M697 695l-31 -42c17.333 -27.333 23 -58.333 17 -93l-66 -420c-6.66699 -42.667 -27.167 -78.334 -61.5 -107.001s-75.166 -43 -122.499 -43h-240h-6l-28 -40h-125l8 55l31 43c-16.667 25.333 -22 56 -16 92l66 420c6.66699 42.667 27.167 78.334 61.5 107.001
s75.166 43 122.499 43h240h4l29 40h125zM272 120h127c10 0 18.833 3.33301 26.5 10s12.167 15 13.5 25l42 265zM301 545l-42 -263l208 298h-126c-10 0 -18.833 -3.33301 -26.5 -10s-12.167 -15 -13.5 -25z" />
    <glyph glyph-name="Ugrave" unicode="&#xd9;" horiz-adv-x="720" 
d="M448 -10l-240.002 0.00195312c-47.333 0 -83.5 14.167 -108.5 42.5s-34.167 64.166 -27.5 107.499l88 560h180l-86 -545c-1.33301 -10 0.833984 -18.333 6.50098 -25s13.5 -10 23.5 -10h130c10 0 18.833 3.33301 26.5 10s12.167 15 13.5 25l86 545h180l-88 -560
c-6.66699 -42.667 -27.167 -78.334 -61.5 -107.001s-75.166 -43 -122.499 -43zM310.998 930.002h175l50 -160h-130z" />
    <glyph glyph-name="Uacute" unicode="&#xda;" horiz-adv-x="720" 
d="M448 -10l-240.002 0.00195312c-47.333 0 -83.5 14.167 -108.5 42.5s-34.167 64.166 -27.5 107.499l88 560h180l-86 -545c-1.33301 -10 0.833984 -18.333 6.50098 -25s13.5 -10 23.5 -10h130c10 0 18.833 3.33301 26.5 10s12.167 15 13.5 25l86 545h180l-88 -560
c-6.66699 -42.667 -27.167 -78.334 -61.5 -107.001s-75.166 -43 -122.499 -43zM475.998 930.002h175l-145 -160h-130z" />
    <glyph glyph-name="Ucircumflex" unicode="&#xdb;" horiz-adv-x="720" 
d="M448 -10l-240.002 0.00195312c-47.333 0 -83.5 14.167 -108.5 42.5s-34.167 64.166 -27.5 107.499l88 560h180l-86 -545c-1.33301 -10 0.833984 -18.333 6.50098 -25s13.5 -10 23.5 -10h130c10 0 18.833 3.33301 26.5 10s12.167 15 13.5 25l86 545h180l-88 -560
c-6.66699 -42.667 -27.167 -78.334 -61.5 -107.001s-75.166 -43 -122.499 -43zM385.998 770.002h-135l148 150h150l102 -150h-135l-54 70z" />
    <glyph glyph-name="Udieresis" unicode="&#xdc;" horiz-adv-x="720" 
d="M448 -10l-240.002 0.00195312c-47.333 0 -83.5 14.167 -108.5 42.5s-34.167 64.166 -27.5 107.499l88 560h180l-86 -545c-1.33301 -10 0.833984 -18.333 6.50098 -25s13.5 -10 23.5 -10h130c10 0 18.833 3.33301 26.5 10s12.167 15 13.5 25l86 545h180l-88 -560
c-6.66699 -42.667 -27.167 -78.334 -61.5 -107.001s-75.166 -43 -122.499 -43zM415.998 770.002h-150l22 140h150zM635.998 770.002h-150l22 140h150z" />
    <glyph glyph-name="Yacute" unicode="&#xdd;" horiz-adv-x="650" 
d="M530 700h180l-11 -70l-282 -425l-32 -205h-180l32 205l-148 425l11 70h180l68 -330h10zM438 910h175l-145 -160h-130z" />
    <glyph glyph-name="Thorn" unicode="&#xde;" horiz-adv-x="665" 
d="M230 0l-180 0.000976562l110 700h180l-15 -100h200c48.667 0 85 -14.5 109 -43.5s33 -64.5 27 -106.5l-33 -205c-6.66699 -42.667 -27 -78.334 -61 -107.001s-74.667 -43 -122 -43h-200zM449 470.001h-145l-39 -245h145c10 0 19 3.33301 27 10s12.667 15 14 25l27 175
c2 10 0.166992 18.333 -5.5 25s-13.5 10 -23.5 10z" />
    <glyph glyph-name="germandbls" unicode="&#xdf;" horiz-adv-x="670" 
d="M599 565c-3.33301 -22.667 -10.3311 -42.8311 -20.998 -60.498s-21.5 -31.334 -32.5 -41.001s-21.5 -21.334 -31.5 -35.001s-16.333 -28.167 -19 -43.5l-2 -15c-2 -14.667 1.83301 -27.834 11.5 -39.501s22.167 -21.834 37.5 -30.501s30.5 -18 45.5 -28
s27 -22.833 36 -38.5s12.167 -33.5 9.5 -53.5l-7 -45c-6.66699 -40.667 -24.834 -73.334 -54.501 -98.001s-66.834 -37 -111.501 -37h-195l19 120h145c16.667 0 26 8.33301 28 25l4 20c2 14 -4.5 27.333 -19.5 40s-31.5 23.834 -49.5 33.501s-33.667 25.5 -47 47.5
s-17.666 48.333 -12.999 79l3 20c4.66699 28.667 14.167 52.834 28.5 72.501s28 36.834 41 51.501s20.5 30 22.5 46c1.33301 7.33301 0 13.333 -4 18s-9.66699 7 -17 7h-70c-10 0 -18.833 -3.33301 -26.5 -10s-12.167 -15 -13.5 -25l-86 -545h-170l87 550
c6.66699 42.667 27.167 78.334 61.5 107.001s74.833 43 121.5 43h165c44.667 0 78.167 -12.333 100.5 -37s30.166 -57.334 23.499 -98.001z" />
    <glyph glyph-name="agrave" unicode="&#xe0;" horiz-adv-x="625" 
d="M288 -10h-116c-44.667 0 -78.834 13.167 -102.501 39.5s-32.167 59.833 -25.5 100.5l41 260c6.66699 40.667 25.834 74.167 57.501 100.5s69.834 39.5 114.501 39.5h356l-83 -530h-110l-15 65h-5c-8 -16 -16.667 -28.667 -26 -38
c-24.667 -24.667 -53.334 -37 -86.001 -37zM241 110l91.001 -0.00195312c15.333 0 28 5.66699 38 17c5.33301 4.66699 9.33301 10.667 12 18l42 265h-136c-7.33301 0 -14.5 -3.16699 -21.5 -9.5s-11.167 -13.166 -12.5 -20.499l-38 -240
c-1.33301 -7.33301 0.666992 -14.166 6 -20.499s11.666 -9.5 18.999 -9.5zM257.001 779.998h175l50 -160h-130z" />
    <glyph glyph-name="aacute" unicode="&#xe1;" horiz-adv-x="625" 
d="M288 -10h-116c-44.667 0 -78.834 13.167 -102.501 39.5s-32.167 59.833 -25.5 100.5l41 260c6.66699 40.667 25.834 74.167 57.501 100.5s69.834 39.5 114.501 39.5h356l-83 -530h-110l-15 65h-5c-8 -16 -16.667 -28.667 -26 -38
c-24.667 -24.667 -53.334 -37 -86.001 -37zM241 110l91.001 -0.00195312c15.333 0 28 5.66699 38 17c5.33301 4.66699 9.33301 10.667 12 18l42 265h-136c-7.33301 0 -14.5 -3.16699 -21.5 -9.5s-11.167 -13.166 -12.5 -20.499l-38 -240
c-1.33301 -7.33301 0.666992 -14.166 6 -20.499s11.666 -9.5 18.999 -9.5zM422.001 779.998h175l-145 -160h-130z" />
    <glyph glyph-name="acircumflex" unicode="&#xe2;" horiz-adv-x="625" 
d="M288 -10h-116c-44.667 0 -78.834 13.167 -102.501 39.5s-32.167 59.833 -25.5 100.5l41 260c6.66699 40.667 25.834 74.167 57.501 100.5s69.834 39.5 114.501 39.5h356l-83 -530h-110l-15 65h-5c-8 -16 -16.667 -28.667 -26 -38
c-24.667 -24.667 -53.334 -37 -86.001 -37zM241 110l91.001 -0.00195312c15.333 0 28 5.66699 38 17c5.33301 4.66699 9.33301 10.667 12 18l42 265h-136c-7.33301 0 -14.5 -3.16699 -21.5 -9.5s-11.167 -13.166 -12.5 -20.499l-38 -240
c-1.33301 -7.33301 0.666992 -14.166 6 -20.499s11.666 -9.5 18.999 -9.5zM333.001 619.998h-135l148 150h150l102 -150h-135l-54 70z" />
    <glyph glyph-name="atilde" unicode="&#xe3;" horiz-adv-x="625" 
d="M288 -10h-116c-44.667 0 -78.834 13.167 -102.501 39.5s-32.167 59.833 -25.5 100.5l41 260c6.66699 40.667 25.834 74.167 57.501 100.5s69.834 39.5 114.501 39.5h356l-83 -530h-110l-15 65h-5c-8 -16 -16.667 -28.667 -26 -38
c-24.667 -24.667 -53.334 -37 -86.001 -37zM241 110l91.001 -0.00195312c15.333 0 28 5.66699 38 17c5.33301 4.66699 9.33301 10.667 12 18l42 265h-136c-7.33301 0 -14.5 -3.16699 -21.5 -9.5s-11.167 -13.166 -12.5 -20.499l-38 -240
c-1.33301 -7.33301 0.666992 -14.166 6 -20.499s11.666 -9.5 18.999 -9.5zM221.001 614.998l15 95.001c3.33301 20 13 36.667 29 50s35 20 57 20h15c8.66699 0 19.667 -4.33301 33 -13c6 -3.33301 12 -7.33301 18 -12l41 -30c2.66699 -2.66699 5 -4.33398 7 -5.00098
c5.33301 -3.33301 9 -5 11 -5c7.33301 0 11.333 5 12 15l8 45h110l-15 -95c-3.33301 -20 -13.166 -36.667 -29.499 -50s-35.5 -20 -57.5 -20h-15c-9.33301 0 -20.333 4 -33 12c-4 2 -10 6.33301 -18 13l-40 30l-7 5c-4.66699 3.33301 -8.33398 5 -11.001 5
c-6.66699 0 -11 -5 -13 -15l-7 -45h-110z" />
    <glyph glyph-name="adieresis" unicode="&#xe4;" horiz-adv-x="625" 
d="M288 -10h-116c-44.667 0 -78.834 13.167 -102.501 39.5s-32.167 59.833 -25.5 100.5l41 260c6.66699 40.667 25.834 74.167 57.501 100.5s69.834 39.5 114.501 39.5h356l-83 -530h-110l-15 65h-5c-8 -16 -16.667 -28.667 -26 -38
c-24.667 -24.667 -53.334 -37 -86.001 -37zM241 110l91.001 -0.00195312c15.333 0 28 5.66699 38 17c5.33301 4.66699 9.33301 10.667 12 18l42 265h-136c-7.33301 0 -14.5 -3.16699 -21.5 -9.5s-11.167 -13.166 -12.5 -20.499l-38 -240
c-1.33301 -7.33301 0.666992 -14.166 6 -20.499s11.666 -9.5 18.999 -9.5zM362.001 619.998h-150l22 140h150zM582.001 619.998h-150l22 140h150z" />
    <glyph glyph-name="aring" unicode="&#xe5;" horiz-adv-x="625" 
d="M288 -10h-116c-44.667 0 -78.834 13.167 -102.501 39.5s-32.167 59.833 -25.5 100.5l41 260c6.66699 40.667 25.834 74.167 57.501 100.5s69.834 39.5 114.501 39.5h356l-83 -530h-110l-15 65h-5c-8 -16 -16.667 -28.667 -26 -38
c-24.667 -24.667 -53.334 -37 -86.001 -37zM241 110l91.001 -0.00195312c15.333 0 28 5.66699 38 17c5.33301 4.66699 9.33301 10.667 12 18l42 265h-136c-7.33301 0 -14.5 -3.16699 -21.5 -9.5s-11.167 -13.166 -12.5 -20.499l-38 -240
c-1.33301 -7.33301 0.666992 -14.166 6 -20.499s11.666 -9.5 18.999 -9.5zM416.001 579.998h-70c-28 0 -49.5 8.5 -64.5 25.5s-20.5 38.5 -16.5 64.5l6 40c4 26 16.167 47.5 36.5 64.5s44.5 25.5 72.5 25.5h70c28 0 49.5 -8.5 64.5 -25.5s20.5 -38.5 16.5 -64.5l-6 -40
c-4 -26 -16.167 -47.5 -36.5 -64.5s-44.5 -25.5 -72.5 -25.5zM414.001 729.998h-20c-12 0 -19.667 -6.66699 -23 -20l-6 -40c-3.33301 -13.333 2.33398 -20 17.001 -20h20c12 0 19.667 6.66699 23 20l6 40c3.33301 13.333 -2.33398 20 -17.001 20z" />
    <glyph glyph-name="ae" unicode="&#xe6;" horiz-adv-x="920" 
d="M564 120l264.998 0.000976562l-19 -120h-315c-28 0 -50 11.667 -66 35c-6.66699 9.33301 -12.667 21 -18 35c-8.66699 -14 -19.667 -27.333 -33 -40c-30.667 -26.667 -65.667 -40 -105 -40h-115c-44.667 0 -78.834 13.167 -102.501 39.5s-32.167 59.833 -25.5 100.5l8 50
c6.66699 40.667 25.834 74.167 57.501 100.5s69.834 39.5 114.501 39.5h185l11 68c0 7.33301 -2.5 13.666 -7.5 18.999s-11.167 8 -18.5 8h-250l19 120h270c23.333 0 44 -11 62 -33c6.66699 -8.66699 12.667 -19.334 18 -32.001c7.33301 12 16.666 23.667 27.999 35
c26 23.333 50.333 35 73 35h170c44.667 0 78.834 -13.167 102.501 -39.5s32.167 -59.833 25.5 -100.5l-31 -195h-320l-9 -55c-1.33301 -7.33301 0.833984 -14.166 6.50098 -20.499s12.167 -9.5 19.5 -9.5zM207.998 180.001l-6 -40
c-1.33301 -7.33301 0.666992 -14.166 6 -20.499s11.666 -9.5 18.999 -9.5h90c9.33301 0 18.166 2.66699 26.499 8s14.333 10.666 18 15.999s5.5 8.66602 5.5 9.99902l11 66h-135c-7.33301 0 -14.666 -3.16699 -21.999 -9.5s-11.666 -13.166 -12.999 -20.499z
M575.998 390.001l-11.0029 -70h150l11 70c1.33301 7.33301 -0.666992 14.166 -6 20.499s-11.666 9.5 -18.999 9.5h-90c-7.33301 0 -14.666 -3.16699 -21.999 -9.5s-11.666 -13.166 -12.999 -20.499z" />
    <glyph glyph-name="ccedilla" unicode="&#xe7;" horiz-adv-x="540" 
d="M244 120l249.998 -0.00195312l-19 -120h-197l-6 -35h40c28 0 49.5 -8.5 64.5 -25.5s20.5 -38.5 16.5 -64.5l-5 -31c-4 -24.667 -16.333 -45.667 -37 -63s-44.667 -26 -72 -26h-151l12 80h101c16 0 25.667 8.33301 29 25c1.33301 7.33301 0 13.333 -4 18s-9.66699 7 -17 7
h-85l19 115h-8c-44.667 0 -78.834 13.167 -102.501 39.5s-32.167 59.833 -25.5 100.5l39 250c6.66699 40.667 25.834 74.167 57.501 100.5s69.834 39.5 114.501 39.5h300l-11 -75l-48 -45h-210c-7.33301 0 -14.5 -3.16699 -21.5 -9.5s-11.167 -13.166 -12.5 -20.499
l-37 -230c-1.33301 -7.33301 0.833984 -14.166 6.50098 -20.499s12.167 -9.5 19.5 -9.5z" />
    <glyph glyph-name="egrave" unicode="&#xe8;" horiz-adv-x="595" 
d="M395 195l-170.003 -0.000976562l-7 -45c-1.33301 -7.33301 0.833984 -14.166 6.50098 -20.499s12.167 -9.5 19.5 -9.5h265l-19 -120h-315c-44.667 0 -78.834 13.167 -102.501 39.5s-32.167 59.833 -25.5 100.5l41 260c6.66699 40.667 25.834 74.167 57.501 100.5
s69.834 39.5 114.501 39.5h190c44.667 0 78.834 -13.167 102.501 -39.5s32.167 -59.833 25.5 -100.5l-10 -65c-6.66699 -40.667 -26 -74.167 -58 -100.5s-70.333 -39.5 -115 -39.5zM397.997 339.999l7.99707 50.001c1.33301 7.33301 -0.666992 14.166 -6 20.499
s-11.666 9.5 -18.999 9.5h-90c-7.33301 0 -14.666 -3.16699 -21.999 -9.5s-11.666 -13.166 -12.999 -20.499l-12 -80h120c7.33301 0 14.5 3.16699 21.5 9.5s11.167 13.166 12.5 20.499zM235.994 770h175l50 -160h-130z" />
    <glyph glyph-name="eacute" unicode="&#xe9;" horiz-adv-x="595" 
d="M395 195l-170.003 -0.000976562l-7 -45c-1.33301 -7.33301 0.833984 -14.166 6.50098 -20.499s12.167 -9.5 19.5 -9.5h265l-19 -120h-315c-44.667 0 -78.834 13.167 -102.501 39.5s-32.167 59.833 -25.5 100.5l41 260c6.66699 40.667 25.834 74.167 57.501 100.5
s69.834 39.5 114.501 39.5h190c44.667 0 78.834 -13.167 102.501 -39.5s32.167 -59.833 25.5 -100.5l-10 -65c-6.66699 -40.667 -26 -74.167 -58 -100.5s-70.333 -39.5 -115 -39.5zM397.997 339.999l7.99707 50.001c1.33301 7.33301 -0.666992 14.166 -6 20.499
s-11.666 9.5 -18.999 9.5h-90c-7.33301 0 -14.666 -3.16699 -21.999 -9.5s-11.666 -13.166 -12.999 -20.499l-12 -80h120c7.33301 0 14.5 3.16699 21.5 9.5s11.167 13.166 12.5 20.499zM390.994 770h175l-145 -160h-130z" />
    <glyph glyph-name="ecircumflex" unicode="&#xea;" horiz-adv-x="595" 
d="M395 195l-170.003 -0.000976562l-7 -45c-1.33301 -7.33301 0.833984 -14.166 6.50098 -20.499s12.167 -9.5 19.5 -9.5h265l-19 -120h-315c-44.667 0 -78.834 13.167 -102.501 39.5s-32.167 59.833 -25.5 100.5l41 260c6.66699 40.667 25.834 74.167 57.501 100.5
s69.834 39.5 114.501 39.5h190c44.667 0 78.834 -13.167 102.501 -39.5s32.167 -59.833 25.5 -100.5l-10 -65c-6.66699 -40.667 -26 -74.167 -58 -100.5s-70.333 -39.5 -115 -39.5zM397.997 339.999l7.99707 50.001c1.33301 7.33301 -0.666992 14.166 -6 20.499
s-11.666 9.5 -18.999 9.5h-90c-7.33301 0 -14.666 -3.16699 -21.999 -9.5s-11.666 -13.166 -12.999 -20.499l-12 -80h120c7.33301 0 14.5 3.16699 21.5 9.5s11.167 13.166 12.5 20.499zM300.994 610h-135l148 150h150l102 -150h-135l-54 70z" />
    <glyph glyph-name="edieresis" unicode="&#xeb;" horiz-adv-x="595" 
d="M395 195l-170.003 -0.000976562l-7 -45c-1.33301 -7.33301 0.833984 -14.166 6.50098 -20.499s12.167 -9.5 19.5 -9.5h265l-19 -120h-315c-44.667 0 -78.834 13.167 -102.501 39.5s-32.167 59.833 -25.5 100.5l41 260c6.66699 40.667 25.834 74.167 57.501 100.5
s69.834 39.5 114.501 39.5h190c44.667 0 78.834 -13.167 102.501 -39.5s32.167 -59.833 25.5 -100.5l-10 -65c-6.66699 -40.667 -26 -74.167 -58 -100.5s-70.333 -39.5 -115 -39.5zM397.997 339.999l7.99707 50.001c1.33301 7.33301 -0.666992 14.166 -6 20.499
s-11.666 9.5 -18.999 9.5h-90c-7.33301 0 -14.666 -3.16699 -21.999 -9.5s-11.666 -13.166 -12.999 -20.499l-12 -80h120c7.33301 0 14.5 3.16699 21.5 9.5s11.167 13.166 12.5 20.499zM329.994 610h-150l22 140h150zM549.994 610h-150l22 140h150z" />
    <glyph glyph-name="igrave" unicode="&#xec;" horiz-adv-x="300" 
d="M288 530l-83 -530h-170l83 530h170zM58 770h175l50 -160h-130z" />
    <glyph glyph-name="iacute" unicode="&#xed;" horiz-adv-x="300" 
d="M288 530l-83 -530h-170l83 530h170zM242 780h175l-145 -160h-130z" />
    <glyph glyph-name="icircumflex" unicode="&#xee;" horiz-adv-x="300" 
d="M288 530l-83 -530h-170l83 530h170zM153 610h-135l148 150h150l102 -150h-135l-54 70z" />
    <glyph glyph-name="idieresis" unicode="&#xef;" horiz-adv-x="300" 
d="M288 530l-83 -530h-170l83 530h170zM182 610h-150l22 140h150zM402 610h-150l22 140h150z" />
    <glyph glyph-name="eth" unicode="&#xf0;" horiz-adv-x="630" 
d="M447 775l-19.999 -65.001l39 -5c56 -7.33301 96.667 -25.166 122 -53.499s34.333 -65.5 27 -111.5l-65 -410c-6.66699 -40.667 -25.834 -74.167 -57.501 -100.5s-69.834 -39.5 -114.501 -39.5h-205c-44.667 0 -78.834 13.167 -102.501 39.5s-32.167 59.833 -25.5 100.5
l31 195c6.66699 40.667 25.834 74.167 57.501 100.5s69.834 39.5 114.501 39.5h185l12 75c2.66699 19.333 -7 31 -29 35l-30 5l-22 -75l-127 15l22 75l-94 10l41 130l93 -10l21 65zM414.001 344.999l-134.999 -0.000976562c-7.33301 0 -14.666 -3.16699 -21.999 -9.5
s-11.666 -13.166 -12.999 -20.499l-27 -175c-1.33301 -7.33301 0.666992 -14.166 6 -20.499s11.666 -9.5 18.999 -9.5h105c7.33301 0 14.666 3.16699 21.999 9.5s11.666 13.166 12.999 20.499z" />
    <glyph glyph-name="ntilde" unicode="&#xf1;" horiz-adv-x="635" 
d="M360 540l114.997 0.00195312c44.667 0 78.834 -13.167 102.501 -39.5s32.167 -59.833 25.5 -100.5l-63 -400h-170l61 390c1.33301 7.33301 -0.666992 14.166 -6 20.499s-11.666 9.5 -18.999 9.5h-90c-15.333 0 -28.333 -6 -39 -18
c-4.66699 -4.66699 -8.66699 -10.334 -12 -17.001l-60 -385h-170l83 530h110l15 -65h5c8.66699 16 17.334 28.333 26.001 37c25.333 25.333 54 38 86 38zM219.997 625.002l15 95.001c3.33301 20 13 36.667 29 50s35 20 57 20h15c8.66699 0 19.667 -4.33301 33 -13
c6 -3.33301 12 -7.33301 18 -12l41 -30c2.66699 -2.66699 5 -4.33398 7 -5.00098c5.33301 -3.33301 9 -5 11 -5c6.66699 0 10.667 5 12 15l8 45h110l-15 -95c-3.33301 -20 -13.166 -36.667 -29.499 -50s-35.5 -20 -57.5 -20h-15c-9.33301 0 -20.333 4 -33 12
c-4 2 -10 6.33301 -18 13l-40 30l-7 5c-4.66699 3.33301 -8.33398 5 -11.001 5c-6.66699 0 -11 -5 -13 -15l-7 -45h-110z" />
    <glyph glyph-name="ograve" unicode="&#xf2;" horiz-adv-x="625" 
d="M603 400l-43 -270c-6.66699 -40.667 -25.834 -74.167 -57.501 -100.5s-69.834 -39.5 -114.501 -39.5h-215c-44.667 0 -78.834 13.167 -102.501 39.5s-32.167 59.833 -25.5 100.5l43 270c6.66699 40.667 25.834 74.167 57.501 100.5s69.834 39.5 114.501 39.5h215
c44.667 0 78.834 -13.167 102.501 -39.5s32.167 -59.833 25.5 -100.5zM242 110h115c7.33301 0 14.666 3.16699 21.999 9.5s11.666 13.166 12.999 20.499l39 250c1.33301 7.33301 -0.666992 14.166 -6 20.499s-11.666 9.5 -18.999 9.5h-115
c-7.33301 0 -14.666 -3.16699 -21.999 -9.5s-11.666 -13.166 -12.999 -20.499l-39 -250c-1.33301 -7.33301 0.666992 -14.166 6 -20.499s11.666 -9.5 18.999 -9.5zM228 770h175l50 -160h-130z" />
    <glyph glyph-name="oacute" unicode="&#xf3;" horiz-adv-x="625" 
d="M603 400l-43 -270c-6.66699 -40.667 -25.834 -74.167 -57.501 -100.5s-69.834 -39.5 -114.501 -39.5h-215c-44.667 0 -78.834 13.167 -102.501 39.5s-32.167 59.833 -25.5 100.5l43 270c6.66699 40.667 25.834 74.167 57.501 100.5s69.834 39.5 114.501 39.5h215
c44.667 0 78.834 -13.167 102.501 -39.5s32.167 -59.833 25.5 -100.5zM242 110h115c7.33301 0 14.666 3.16699 21.999 9.5s11.666 13.166 12.999 20.499l39 250c1.33301 7.33301 -0.666992 14.166 -6 20.499s-11.666 9.5 -18.999 9.5h-115
c-7.33301 0 -14.666 -3.16699 -21.999 -9.5s-11.666 -13.166 -12.999 -20.499l-39 -250c-1.33301 -7.33301 0.666992 -14.166 6 -20.499s11.666 -9.5 18.999 -9.5zM403 770h175l-145 -160h-130z" />
    <glyph glyph-name="ocircumflex" unicode="&#xf4;" horiz-adv-x="625" 
d="M603 400l-43 -270c-6.66699 -40.667 -25.834 -74.167 -57.501 -100.5s-69.834 -39.5 -114.501 -39.5h-215c-44.667 0 -78.834 13.167 -102.501 39.5s-32.167 59.833 -25.5 100.5l43 270c6.66699 40.667 25.834 74.167 57.501 100.5s69.834 39.5 114.501 39.5h215
c44.667 0 78.834 -13.167 102.501 -39.5s32.167 -59.833 25.5 -100.5zM242 110h115c7.33301 0 14.666 3.16699 21.999 9.5s11.666 13.166 12.999 20.499l39 250c1.33301 7.33301 -0.666992 14.166 -6 20.499s-11.666 9.5 -18.999 9.5h-115
c-7.33301 0 -14.666 -3.16699 -21.999 -9.5s-11.666 -13.166 -12.999 -20.499l-39 -250c-1.33301 -7.33301 0.666992 -14.166 6 -20.499s11.666 -9.5 18.999 -9.5zM313 610h-135l148 150h150l102 -150h-135l-54 70z" />
    <glyph glyph-name="otilde" unicode="&#xf5;" horiz-adv-x="625" 
d="M603 400l-43 -270c-6.66699 -40.667 -25.834 -74.167 -57.501 -100.5s-69.834 -39.5 -114.501 -39.5h-215c-44.667 0 -78.834 13.167 -102.501 39.5s-32.167 59.833 -25.5 100.5l43 270c6.66699 40.667 25.834 74.167 57.501 100.5s69.834 39.5 114.501 39.5h215
c44.667 0 78.834 -13.167 102.501 -39.5s32.167 -59.833 25.5 -100.5zM242 110h115c7.33301 0 14.666 3.16699 21.999 9.5s11.666 13.166 12.999 20.499l39 250c1.33301 7.33301 -0.666992 14.166 -6 20.499s-11.666 9.5 -18.999 9.5h-115
c-7.33301 0 -14.666 -3.16699 -21.999 -9.5s-11.666 -13.166 -12.999 -20.499l-39 -250c-1.33301 -7.33301 0.666992 -14.166 6 -20.499s11.666 -9.5 18.999 -9.5zM212 605l15 95.001c3.33301 20 13 36.667 29 50s35 20 57 20h15c8.66699 0 19.667 -4.33301 33 -13
c6 -3.33301 12 -7.33301 18 -12l41 -30c2.66699 -2.66699 5 -4.33398 7 -5.00098c5.33301 -3.33301 9 -5 11 -5c6.66699 0 10.667 5 12 15l8 45h110l-15 -95c-3.33301 -20 -13.166 -36.667 -29.499 -50s-35.5 -20 -57.5 -20h-15c-9.33301 0 -20.333 4 -33 12
c-4 2 -10 6.33301 -18 13l-40 30l-7 5c-4.66699 3.33301 -8.33398 5 -11.001 5c-6.66699 0 -11 -5 -13 -15l-7 -45h-110z" />
    <glyph glyph-name="odieresis" unicode="&#xf6;" horiz-adv-x="625" 
d="M603 400l-43 -270c-6.66699 -40.667 -25.834 -74.167 -57.501 -100.5s-69.834 -39.5 -114.501 -39.5h-215c-44.667 0 -78.834 13.167 -102.501 39.5s-32.167 59.833 -25.5 100.5l43 270c6.66699 40.667 25.834 74.167 57.501 100.5s69.834 39.5 114.501 39.5h215
c44.667 0 78.834 -13.167 102.501 -39.5s32.167 -59.833 25.5 -100.5zM242 110h115c7.33301 0 14.666 3.16699 21.999 9.5s11.666 13.166 12.999 20.499l39 250c1.33301 7.33301 -0.666992 14.166 -6 20.499s-11.666 9.5 -18.999 9.5h-115
c-7.33301 0 -14.666 -3.16699 -21.999 -9.5s-11.666 -13.166 -12.999 -20.499l-39 -250c-1.33301 -7.33301 0.666992 -14.166 6 -20.499s11.666 -9.5 18.999 -9.5zM342 610h-150l22 140h150zM562 610h-150l22 140h150z" />
    <glyph glyph-name="divide" unicode="&#xf7;" horiz-adv-x="490" 
d="M60 380h430l-21 -130h-430zM299 60h-150l22 140h150zM358 430h-150l22 140h150z" />
    <glyph glyph-name="oslash" unicode="&#xf8;" horiz-adv-x="625" 
d="M589 535l-20 -27.999c30 -26.667 41.333 -62.334 34 -107.001l-43 -270c-6.66699 -40.667 -25.834 -74.167 -57.501 -100.5s-69.834 -39.5 -114.501 -39.5h-193l-28 -40h-115l7 45l19 27c-29.333 26 -40.333 62 -33 108l43 270
c6.66699 40.667 25.834 74.167 57.501 100.5s69.834 39.5 114.501 39.5h192l29 40h115zM272 110.001l85.002 0.000976562c7.33301 0 14.666 3.16699 21.999 9.5s11.666 13.166 12.999 20.499l28 176zM256.002 390.002l-28.002 -176.001l147 206h-84
c-7.33301 0 -14.666 -3.16699 -21.999 -9.5s-11.666 -13.166 -12.999 -20.499z" />
    <glyph glyph-name="ugrave" unicode="&#xf9;" horiz-adv-x="635" 
d="M298 -10l-114.997 -0.000976562c-44.667 0 -78.834 13.167 -102.501 39.5s-32.167 59.833 -25.5 100.5l63 400h170l-61 -390c-1.33301 -7.33301 0.666992 -14.166 6 -20.499s11.666 -9.5 18.999 -9.5h90c15.333 0 28 5.66699 38 17c5.33301 4.66699 9.33301 10.667 12 18
l61 385h170l-83 -530h-110l-15 65h-5c-8 -16 -16.667 -28.667 -26 -38c-24.667 -24.667 -53.334 -37 -86.001 -37zM241.003 759.999h175l50 -160h-130z" />
    <glyph glyph-name="uacute" unicode="&#xfa;" horiz-adv-x="635" 
d="M298 -10l-114.997 -0.000976562c-44.667 0 -78.834 13.167 -102.501 39.5s-32.167 59.833 -25.5 100.5l63 400h170l-61 -390c-1.33301 -7.33301 0.666992 -14.166 6 -20.499s11.666 -9.5 18.999 -9.5h90c15.333 0 28 5.66699 38 17c5.33301 4.66699 9.33301 10.667 12 18
l61 385h170l-83 -530h-110l-15 65h-5c-8 -16 -16.667 -28.667 -26 -38c-24.667 -24.667 -53.334 -37 -86.001 -37zM404.003 749.999h175l-145 -160h-130z" />
    <glyph glyph-name="ucircumflex" unicode="&#xfb;" horiz-adv-x="635" 
d="M298 -10l-114.997 -0.000976562c-44.667 0 -78.834 13.167 -102.501 39.5s-32.167 59.833 -25.5 100.5l63 400h170l-61 -390c-1.33301 -7.33301 0.666992 -14.166 6 -20.499s11.666 -9.5 18.999 -9.5h90c15.333 0 28 5.66699 38 17c5.33301 4.66699 9.33301 10.667 12 18
l61 385h170l-83 -530h-110l-15 65h-5c-8 -16 -16.667 -28.667 -26 -38c-24.667 -24.667 -53.334 -37 -86.001 -37zM328.003 609.999h-135l148 150h150l102 -150h-135l-54 70z" />
    <glyph glyph-name="udieresis" unicode="&#xfc;" horiz-adv-x="635" 
d="M298 -10l-114.997 -0.000976562c-44.667 0 -78.834 13.167 -102.501 39.5s-32.167 59.833 -25.5 100.5l63 400h170l-61 -390c-1.33301 -7.33301 0.666992 -14.166 6 -20.499s11.666 -9.5 18.999 -9.5h90c15.333 0 28 5.66699 38 17c5.33301 4.66699 9.33301 10.667 12 18
l61 385h170l-83 -530h-110l-15 65h-5c-8 -16 -16.667 -28.667 -26 -38c-24.667 -24.667 -53.334 -37 -86.001 -37zM347.003 609.999h-150l22 140h150zM567.003 609.999h-150l22 140h150z" />
    <glyph glyph-name="yacute" unicode="&#xfd;" horiz-adv-x="580" 
d="M603 465l-266 -515.001c-18 -33.333 -43.167 -61.666 -75.5 -84.999s-68.5 -35 -108.5 -35h-115l19 120h80c25.333 0 42.333 13.333 51 40l2 10l-127 465l10 65h170l47 -370h10l143 370h170zM381 769.999h175l-145 -160h-130z" />
    <glyph glyph-name="thorn" unicode="&#xfe;" horiz-adv-x="625" 
d="M298 530h175.001c44.667 0 78.834 -13.167 102.501 -39.5s32.167 -59.833 25.5 -100.5l-39 -250c-6.66699 -40.667 -25.834 -74.167 -57.501 -100.5s-69.834 -39.5 -114.501 -39.5h-175l-27 -170h-170l137 870h170zM393.001 150l37.001 230.002
c1.33301 7.33301 -0.833984 14.166 -6.50098 20.499s-12.167 9.5 -19.5 9.5h-125l-45 -290h125c7.33301 0 14.5 3.16699 21.5 9.5s11.167 13.166 12.5 20.499z" />
    <glyph glyph-name="ydieresis" unicode="&#xff;" horiz-adv-x="580" 
d="M603 465l-266 -515.001c-18 -33.333 -43.167 -61.666 -75.5 -84.999s-68.5 -35 -108.5 -35h-115l19 120h80c25.333 0 42.333 13.333 51 40l2 10l-127 465l10 65h170l47 -370h10l143 370h170zM320 609.999h-150l22 140h150zM540 609.999h-150l22 140h150z" />
    <glyph glyph-name="Amacron" unicode="&#x100;" 
d="M455 0l-12 150h-210l-58 -150h-180l11 70l299 630h240l101 -630l-11 -70h-180zM429 280l-24 260h-10l-106 -260h140zM617 890l-17 -110h-325l17 110h325z" />
    <glyph glyph-name="amacron" unicode="&#x101;" horiz-adv-x="625" 
d="M288 -10h-116c-44.667 0 -78.834 13.167 -102.501 39.5s-32.167 59.833 -25.5 100.5l41 260c6.66699 40.667 25.834 74.167 57.501 100.5s69.834 39.5 114.501 39.5h356l-83 -530h-110l-15 65h-5c-8 -16 -16.667 -28.667 -26 -38
c-24.667 -24.667 -53.334 -37 -86.001 -37zM241 110l91.001 -0.00195312c15.333 0 28 5.66699 38 17c5.33301 4.66699 9.33301 10.667 12 18l42 265h-136c-7.33301 0 -14.5 -3.16699 -21.5 -9.5s-11.167 -13.166 -12.5 -20.499l-38 -240
c-1.33301 -7.33301 0.666992 -14.166 6 -20.499s11.666 -9.5 18.999 -9.5zM565.001 719.998l-17 -110h-325l17 110h325z" />
    <glyph glyph-name="Abreve" unicode="&#x102;" 
d="M455 0l-12 150h-210l-58 -150h-180l11 70l299 630h240l101 -630l-11 -70h-180zM429 280l-24 260h-10l-106 -260h140zM516 770h-160c-28 0 -48.667 8 -62 24s-18 38 -14 66l11 70h120l-7 -45c-2 -16.667 5 -25 21 -25h50c16 0 25.667 8.33301 29 25l7 45h120l-11 -70
c-4 -28 -15.333 -50 -34 -66s-42 -24 -70 -24z" />
    <glyph glyph-name="abreve" unicode="&#x103;" horiz-adv-x="625" 
d="M288 -10h-116c-44.667 0 -78.834 13.167 -102.501 39.5s-32.167 59.833 -25.5 100.5l41 260c6.66699 40.667 25.834 74.167 57.501 100.5s69.834 39.5 114.501 39.5h356l-83 -530h-110l-15 65h-5c-8 -16 -16.667 -28.667 -26 -38
c-24.667 -24.667 -53.334 -37 -86.001 -37zM241 110l91.001 -0.00195312c15.333 0 28 5.66699 38 17c5.33301 4.66699 9.33301 10.667 12 18l42 265h-136c-7.33301 0 -14.5 -3.16699 -21.5 -9.5s-11.167 -13.166 -12.5 -20.499l-38 -240
c-1.33301 -7.33301 0.666992 -14.166 6 -20.499s11.666 -9.5 18.999 -9.5zM466.001 609.998h-160c-28 0 -48.667 8 -62 24s-18 38 -14 66l11 70h120l-7 -45c-2 -16.667 5 -25 21 -25h50c16 0 25.667 8.33301 29 25l7 45h120l-11 -70c-4 -28 -15.333 -50 -34 -66
s-42 -24 -70 -24z" />
    <glyph glyph-name="Aogonek" unicode="&#x104;" 
d="M455 0l-12 150h-210l-58 -150h-180l11 70l299 630h240l101 -630l-15 -95c-22 -5.33301 -40.667 -11.666 -56 -18.999c-38.667 -20 -60 -43.667 -64 -71c-2 -16.667 5 -25 21 -25h80l-12 -80h-90c-46.667 0 -79.667 9.16699 -99 27.5s-26 44.166 -20 77.499
s29 62.333 69 87c20 12.667 40 22 60 28h-65zM429 280l-24 260h-10l-106 -260h140z" />
    <glyph glyph-name="aogonek" unicode="&#x105;" horiz-adv-x="625" 
d="M288 -10h-116c-44.667 0 -78.834 13.167 -102.501 39.5s-32.167 59.833 -25.5 100.5l43 270c6.66699 40.667 25.834 74.167 57.501 100.5s69.834 39.5 114.501 39.5h356l-89 -565c-22 -5.33301 -40.667 -11.666 -56 -18.999c-38.667 -20 -60 -43.667 -64 -71
c-2 -16.667 5 -25 21 -25h80l-12 -80h-90c-46.667 0 -79.667 9.16699 -99 27.5s-26 44.166 -20 77.499s29 62.333 69 87c20 12.667 40 22 60 28h5l-15 65h-5c-8 -16 -16.667 -28.667 -26 -38c-24.667 -24.667 -53.334 -37 -86.001 -37zM241 110l90.999 -0.00195312
c15.333 0 28 5.66699 38 17c5.33301 4.66699 9.33301 10.667 12 18l44 275h-136c-7.33301 0 -14.666 -3.16699 -21.999 -9.5s-11.666 -13.166 -12.999 -20.499l-39 -250c-1.33301 -7.33301 0.666992 -14.166 6 -20.499s11.666 -9.5 18.999 -9.5z" />
    <glyph glyph-name="Cacute" unicode="&#x106;" horiz-adv-x="605" 
d="M270 130l290.001 -0.00195312l-20 -130h-345c-46.667 0 -82.834 14.333 -108.501 43s-35.167 64.334 -28.5 107.001l64 400c6.66699 42.667 27 78.334 61 107.001s74.667 43 122 43h345l-13 -85l-47 -45h-250c-10 0 -19 -3.33301 -27 -10s-12.667 -15 -14 -25l-58 -370
c-2 -10 -0.166992 -18.333 5.5 -25s13.5 -10 23.5 -10zM458.001 929.998h175l-145 -160h-130z" />
    <glyph glyph-name="cacute" unicode="&#x107;" horiz-adv-x="540" 
d="M244 120l249.998 -0.00195312l-19 -120h-300c-44.667 0 -78.834 13.167 -102.501 39.5s-32.167 59.833 -25.5 100.5l39 250c6.66699 40.667 25.834 74.167 57.501 100.5s69.834 39.5 114.501 39.5h300l-11 -75l-48 -45h-210c-7.33301 0 -14.5 -3.16699 -21.5 -9.5
s-11.167 -13.166 -12.5 -20.499l-37 -230c-1.33301 -7.33301 0.833984 -14.166 6.50098 -20.499s12.167 -9.5 19.5 -9.5zM390.998 769.998h175l-145 -160h-130z" />
    <glyph glyph-name="Ccircumflex" unicode="&#x108;" horiz-adv-x="605" 
d="M270 130l290.001 -0.00195312l-20 -130h-345c-46.667 0 -82.834 14.333 -108.501 43s-35.167 64.334 -28.5 107.001l64 400c6.66699 42.667 27 78.334 61 107.001s74.667 43 122 43h345l-13 -85l-47 -45h-250c-10 0 -19 -3.33301 -27 -10s-12.667 -15 -14 -25l-58 -370
c-2 -10 -0.166992 -18.333 5.5 -25s13.5 -10 23.5 -10zM348.001 769.998h-135l148 150h150l102 -150h-135l-54 70z" />
    <glyph glyph-name="ccircumflex" unicode="&#x109;" horiz-adv-x="540" 
d="M244 120l249.998 -0.00195312l-19 -120h-300c-44.667 0 -78.834 13.167 -102.501 39.5s-32.167 59.833 -25.5 100.5l39 250c6.66699 40.667 25.834 74.167 57.501 100.5s69.834 39.5 114.501 39.5h300l-11 -75l-48 -45h-210c-7.33301 0 -14.5 -3.16699 -21.5 -9.5
s-11.167 -13.166 -12.5 -20.499l-37 -230c-1.33301 -7.33301 0.833984 -14.166 6.50098 -20.499s12.167 -9.5 19.5 -9.5zM288.998 599.998h-135l148 150h150l102 -150h-135l-54 70z" />
    <glyph glyph-name="Cdotaccent" unicode="&#x10a;" horiz-adv-x="605" 
d="M270 130l290.001 -0.00195312l-20 -130h-345c-46.667 0 -82.834 14.333 -108.501 43s-35.167 64.334 -28.5 107.001l64 400c6.66699 42.667 27 78.334 61 107.001s74.667 43 122 43h345l-13 -85l-47 -45h-250c-10 0 -19 -3.33301 -27 -10s-12.667 -15 -14 -25l-58 -370
c-2 -10 -0.166992 -18.333 5.5 -25s13.5 -10 23.5 -10zM508.001 769.998h-170l22 140h170z" />
    <glyph glyph-name="cdotaccent" unicode="&#x10b;" horiz-adv-x="540" 
d="M244 120l249.998 -0.00195312l-19 -120h-300c-44.667 0 -78.834 13.167 -102.501 39.5s-32.167 59.833 -25.5 100.5l39 250c6.66699 40.667 25.834 74.167 57.501 100.5s69.834 39.5 114.501 39.5h300l-11 -75l-48 -45h-210c-7.33301 0 -14.5 -3.16699 -21.5 -9.5
s-11.167 -13.166 -12.5 -20.499l-37 -230c-1.33301 -7.33301 0.833984 -14.166 6.50098 -20.499s12.167 -9.5 19.5 -9.5zM449.998 609.998h-170l22 140h170z" />
    <glyph glyph-name="Ccaron" unicode="&#x10c;" horiz-adv-x="605" 
d="M270 130l290.001 -0.00195312l-20 -130h-345c-46.667 0 -82.834 14.333 -108.501 43s-35.167 64.334 -28.5 107.001l64 400c6.66699 42.667 27 78.334 61 107.001s74.667 43 122 43h345l-13 -85l-47 -45h-250c-10 0 -19 -3.33301 -27 -10s-12.667 -15 -14 -25l-58 -370
c-2 -10 -0.166992 -18.333 5.5 -25s13.5 -10 23.5 -10zM246.001 919.998h135l54 -70l76 70h135l-148 -150h-150z" />
    <glyph glyph-name="ccaron" unicode="&#x10d;" horiz-adv-x="540" 
d="M244 120l249.998 -0.00195312l-19 -120h-300c-44.667 0 -78.834 13.167 -102.501 39.5s-32.167 59.833 -25.5 100.5l39 250c6.66699 40.667 25.834 74.167 57.501 100.5s69.834 39.5 114.501 39.5h300l-11 -75l-48 -45h-210c-7.33301 0 -14.5 -3.16699 -21.5 -9.5
s-11.167 -13.166 -12.5 -20.499l-37 -230c-1.33301 -7.33301 0.833984 -14.166 6.50098 -20.499s12.167 -9.5 19.5 -9.5zM176.998 749.998h135l54 -70l76 70h135l-148 -150h-150z" />
    <glyph glyph-name="Dcaron" unicode="&#x10e;" 
d="M435 0l-385.001 0.00195312l110 700h385c46.667 0 82.834 -14.333 108.501 -43s35.167 -64.334 28.5 -107.001l-64 -400c-6.66699 -42.667 -27 -78.334 -61 -107.001s-74.667 -43 -122 -43zM469.999 570.002h-150l-70 -440h150c10 0 18.833 3.33301 26.5 10
s12.5 15 14.5 25l58 370c1.33301 10 -0.666992 18.333 -6 25s-13 10 -23 10zM247.999 910.002h135l54 -70l76 70h135l-148 -150h-150z" />
    <glyph glyph-name="dcaron" unicode="&#x10f;" horiz-adv-x="795" 
d="M258 530h175l27 170h170l-110 -700h-110l-15 65h-5c-8 -16 -16.667 -28.667 -26 -38c-24.667 -24.667 -53.334 -37 -86.001 -37h-105c-44.667 0 -78.834 13.167 -102.501 39.5s-32.167 59.833 -25.5 100.5l41 260c6.66699 40.667 25.834 74.167 57.501 100.5
s69.834 39.5 114.501 39.5zM255 380l-37.999 -240.002c-1.33301 -7.33301 0.666992 -14.166 6 -20.499s11.666 -9.5 18.999 -9.5h80c15.333 0 28 5.66699 38 17c5.33301 4.66699 9.33301 10.667 12 18l42 265h-125c-7.33301 0 -14.5 -3.16699 -21.5 -9.5
s-11.167 -13.166 -12.5 -20.499zM847.001 584.998l-91 -135h-80l39 250h150z" />
    <glyph glyph-name="Dcroat" unicode="&#x110;" 
d="M435 0l-385.001 0.00195312l47 300h-60l17 110h60l46 290h385c46.667 0 82.834 -14.333 108.501 -43s35.167 -64.334 28.5 -107.001l-64 -400c-6.66699 -42.667 -27 -78.334 -61 -107.001s-74.667 -43 -122 -43zM469.999 570.002h-150l-26 -160h115l-17 -110h-115
l-27 -170h150c10 0 18.833 3.33301 26.5 10s12.5 15 14.5 25l58 370c1.33301 10 -0.666992 18.333 -6 25s-13 10 -23 10z" />
    <glyph glyph-name="dcroat" unicode="&#x111;" horiz-adv-x="625" 
d="M286 610h160.003l14 90h170l-14 -90h60l-16 -100h-60l-80 -510h-110l-15 65h-5c-8 -16 -16.667 -28.667 -26 -38c-24.667 -24.667 -53.334 -37 -86.001 -37h-105c-44.667 0 -78.834 13.167 -102.501 39.5s-32.167 59.833 -25.5 100.5l29 180
c5.33301 40 24.166 73.333 56.499 100s70.833 40 115.5 40h175l9 60h-160zM242.003 300l-25.001 -160.002c-1.33301 -7.33301 0.666992 -14.166 6 -20.499s11.666 -9.5 18.999 -9.5h80c15.333 0 28 5.66699 38 17c5.33301 4.66699 9.33301 10.667 12 18l30 185h-125
c-7.33301 0 -14.666 -3.16699 -21.999 -9.5s-11.666 -13.166 -12.999 -20.499z" />
    <glyph glyph-name="Emacron" unicode="&#x112;" horiz-adv-x="615" 
d="M660 700l-13 -85l-47 -45h-280l-24 -150h230l-21 -130h-230l-25 -160h320l-20 -130h-500l110 700h500zM610 890l-17 -110h-325l17 110h325z" />
    <glyph glyph-name="emacron" unicode="&#x113;" horiz-adv-x="595" 
d="M395 195l-170.003 -0.000976562l-7 -45c-1.33301 -7.33301 0.833984 -14.166 6.50098 -20.499s12.167 -9.5 19.5 -9.5h265l-19 -120h-315c-44.667 0 -78.834 13.167 -102.501 39.5s-32.167 59.833 -25.5 100.5l41 260c6.66699 40.667 25.834 74.167 57.501 100.5
s69.834 39.5 114.501 39.5h190c44.667 0 78.834 -13.167 102.501 -39.5s32.167 -59.833 25.5 -100.5l-10 -65c-6.66699 -40.667 -26 -74.167 -58 -100.5s-70.333 -39.5 -115 -39.5zM397.997 339.999l7.99707 50.001c1.33301 7.33301 -0.666992 14.166 -6 20.499
s-11.666 9.5 -18.999 9.5h-90c-7.33301 0 -14.666 -3.16699 -21.999 -9.5s-11.666 -13.166 -12.999 -20.499l-12 -80h120c7.33301 0 14.5 3.16699 21.5 9.5s11.167 13.166 12.5 20.499zM555.994 730l-17 -110h-325l17 110h325z" />
    <glyph glyph-name="Ebreve" unicode="&#x114;" horiz-adv-x="615" 
d="M660 700l-13 -85l-47 -45h-280l-24 -150h230l-21 -130h-230l-25 -160h320l-20 -130h-500l110 700h500zM498 770h-160c-28 0 -48.667 8 -62 24s-18 38 -14 66l11 70h120l-7 -45c-2 -16.667 5 -25 21 -25h50c16 0 25.667 8.33301 29 25l7 45h120l-11 -70
c-4 -28 -15.333 -50 -34 -66s-42 -24 -70 -24z" />
    <glyph glyph-name="ebreve" unicode="&#x115;" horiz-adv-x="595" 
d="M395 195l-170.003 -0.000976562l-7 -45c-1.33301 -7.33301 0.833984 -14.166 6.50098 -20.499s12.167 -9.5 19.5 -9.5h265l-19 -120h-315c-44.667 0 -78.834 13.167 -102.501 39.5s-32.167 59.833 -25.5 100.5l41 260c6.66699 40.667 25.834 74.167 57.501 100.5
s69.834 39.5 114.501 39.5h190c44.667 0 78.834 -13.167 102.501 -39.5s32.167 -59.833 25.5 -100.5l-10 -65c-6.66699 -40.667 -26 -74.167 -58 -100.5s-70.333 -39.5 -115 -39.5zM397.997 339.999l7.99707 50.001c1.33301 7.33301 -0.666992 14.166 -6 20.499
s-11.666 9.5 -18.999 9.5h-90c-7.33301 0 -14.666 -3.16699 -21.999 -9.5s-11.666 -13.166 -12.999 -20.499l-12 -80h120c7.33301 0 14.5 3.16699 21.5 9.5s11.167 13.166 12.5 20.499zM445.994 610h-160c-28 0 -48.667 8 -62 24s-18 38 -14 66l11 70h120l-7 -45
c-2 -16.667 5 -25 21 -25h50c16 0 25.667 8.33301 29 25l7 45h120l-11 -70c-4 -28 -15.333 -50 -34 -66s-42 -24 -70 -24z" />
    <glyph glyph-name="Edotaccent" unicode="&#x116;" horiz-adv-x="615" 
d="M660 700l-13 -85l-47 -45h-280l-24 -150h230l-21 -130h-230l-25 -160h320l-20 -130h-500l110 700h500zM513 770h-170l22 140h170z" />
    <glyph glyph-name="edotaccent" unicode="&#x117;" horiz-adv-x="595" 
d="M395 195l-170.003 -0.000976562l-7 -45c-1.33301 -7.33301 0.833984 -14.166 6.50098 -20.499s12.167 -9.5 19.5 -9.5h265l-19 -120h-315c-44.667 0 -78.834 13.167 -102.501 39.5s-32.167 59.833 -25.5 100.5l41 260c6.66699 40.667 25.834 74.167 57.501 100.5
s69.834 39.5 114.501 39.5h190c44.667 0 78.834 -13.167 102.501 -39.5s32.167 -59.833 25.5 -100.5l-10 -65c-6.66699 -40.667 -26 -74.167 -58 -100.5s-70.333 -39.5 -115 -39.5zM397.997 339.999l7.99707 50.001c1.33301 7.33301 -0.666992 14.166 -6 20.499
s-11.666 9.5 -18.999 9.5h-90c-7.33301 0 -14.666 -3.16699 -21.999 -9.5s-11.666 -13.166 -12.999 -20.499l-12 -80h120c7.33301 0 14.5 3.16699 21.5 9.5s11.167 13.166 12.5 20.499zM449.994 610h-170l22 140h170z" />
    <glyph glyph-name="Eogonek" unicode="&#x118;" horiz-adv-x="615" 
d="M660 700l-12.999 -84.999l-47 -45h-280l-24 -150h230l-21 -130h-230l-25 -160h320l-20 -130h-140c-24.667 -8.66699 -47.334 -19 -68.001 -31c-46.667 -26.667 -72 -54.667 -76 -84c-2 -16.667 5 -25 21 -25h80l-12 -80h-90c-46.667 0 -79.667 9.16699 -99 27.5
s-26 44.166 -20 77.499s29 62.333 69 87c20 12.667 40 22 60 28h-225l110 700h500z" />
    <glyph glyph-name="eogonek" unicode="&#x119;" horiz-adv-x="595" 
d="M395 195h-170.002l-7 -45c-1.33301 -7.33301 0.833984 -14.166 6.50098 -20.499s12.167 -9.5 19.5 -9.5h265l-19 -120h-125l9 -1c-22.667 -8.66699 -43.334 -19 -62.001 -31c-43.333 -27.333 -67 -55 -71 -83c-2 -16.667 5 -25 21 -25h80l-12 -80h-90
c-46.667 0 -79.667 9.16699 -99 27.5s-26 44.166 -20 77.499s29 62.333 69 87c20 12.667 40 22 60 28h-75c-44.667 0 -78.834 13.167 -102.501 39.5s-32.167 59.833 -25.5 100.5l41 260c6.66699 40.667 25.834 74.167 57.501 100.5s69.834 39.5 114.501 39.5h190
c44.667 0 78.834 -13.167 102.501 -39.5s32.167 -59.833 25.5 -100.5l-10 -65c-6.66699 -40.667 -26 -74.167 -58 -100.5s-70.333 -39.5 -115 -39.5zM397.998 340l7.99707 50.001c1.33301 7.33301 -0.666992 14.166 -6 20.499s-11.666 9.5 -18.999 9.5h-90
c-7.33301 0 -14.666 -3.16699 -21.999 -9.5s-11.666 -13.166 -12.999 -20.499l-12 -80h120c7.33301 0 14.5 3.16699 21.5 9.5s11.167 13.166 12.5 20.499z" />
    <glyph glyph-name="Ecaron" unicode="&#x11a;" horiz-adv-x="615" 
d="M660 700l-13 -85l-47 -45h-280l-24 -150h230l-21 -130h-230l-25 -160h320l-20 -130h-500l110 700h500zM240 910h135l54 -70l76 70h135l-148 -150h-150z" />
    <glyph glyph-name="ecaron" unicode="&#x11b;" horiz-adv-x="595" 
d="M395 195l-170.003 -0.000976562l-7 -45c-1.33301 -7.33301 0.833984 -14.166 6.50098 -20.499s12.167 -9.5 19.5 -9.5h265l-19 -120h-315c-44.667 0 -78.834 13.167 -102.501 39.5s-32.167 59.833 -25.5 100.5l41 260c6.66699 40.667 25.834 74.167 57.501 100.5
s69.834 39.5 114.501 39.5h190c44.667 0 78.834 -13.167 102.501 -39.5s32.167 -59.833 25.5 -100.5l-10 -65c-6.66699 -40.667 -26 -74.167 -58 -100.5s-70.333 -39.5 -115 -39.5zM397.997 339.999l7.99707 50.001c1.33301 7.33301 -0.666992 14.166 -6 20.499
s-11.666 9.5 -18.999 9.5h-90c-7.33301 0 -14.666 -3.16699 -21.999 -9.5s-11.666 -13.166 -12.999 -20.499l-12 -80h120c7.33301 0 14.5 3.16699 21.5 9.5s11.167 13.166 12.5 20.499zM188.994 760h135l54 -70l76 70h135l-148 -150h-150z" />
    <glyph glyph-name="Gcircumflex" unicode="&#x11c;" horiz-adv-x="665" 
d="M360 415l275.001 -0.00195312l-65 -415h-375c-46.667 0 -82.834 14.333 -108.501 43s-35.167 64.334 -28.5 107.001l64 400c6.66699 42.667 27 78.334 61 107.001s74.667 43 122 43h354l-13 -85l-47 -45h-259c-10 0 -19 -3.33301 -27 -10s-12.667 -15 -14 -25l-58 -370
c-2 -10 -0.166992 -18.333 5.5 -25s13.5 -10 23.5 -10h150l25 155h-105zM358.001 769.998h-135l148 150h150l102 -150h-135l-54 70z" />
    <glyph glyph-name="gcircumflex" unicode="&#x11d;" horiz-adv-x="615" 
d="M52 -50l260.001 0.000976562c7.33301 0 14.5 3.16699 21.5 9.5s11.167 13.166 12.5 20.499l8 50h-175c-44.667 0 -78.834 13.167 -102.501 39.5s-32.167 59.833 -25.5 100.5l35 220c6.66699 40.667 25.834 74.167 57.501 100.5s69.834 39.5 114.501 39.5h345l-88 -560
c-6.66699 -40.667 -25.834 -74.167 -57.501 -100.5s-69.834 -39.5 -114.501 -39.5h-310zM255.001 380.001l-31.999 -200.002c-1.33301 -7.33301 0.666992 -14.166 6 -20.499s11.666 -9.5 18.999 -9.5h125l41 260h-125c-7.33301 0 -14.5 -3.16699 -21.5 -9.5
s-11.167 -13.166 -12.5 -20.499zM328.002 589.999h-135l148 150h150l102 -150h-135l-54 70z" />
    <glyph glyph-name="Gbreve" unicode="&#x11e;" horiz-adv-x="665" 
d="M360 415l275.001 -0.00195312l-65 -415h-375c-46.667 0 -82.834 14.333 -108.501 43s-35.167 64.334 -28.5 107.001l64 400c6.66699 42.667 27 78.334 61 107.001s74.667 43 122 43h354l-13 -85l-47 -45h-259c-10 0 -19 -3.33301 -27 -10s-12.667 -15 -14 -25l-58 -370
c-2 -10 -0.166992 -18.333 5.5 -25s13.5 -10 23.5 -10h150l25 155h-105zM513.001 769.998h-160c-28 0 -48.667 8 -62 24s-18 38 -14 66l11 70h120l-7 -45c-2 -16.667 5 -25 21 -25h50c16 0 25.667 8.33301 29 25l7 45h120l-11 -70c-4 -28 -15.333 -50 -34 -66
s-42 -24 -70 -24z" />
    <glyph glyph-name="gbreve" unicode="&#x11f;" horiz-adv-x="615" 
d="M52 -50l260.001 0.000976562c7.33301 0 14.5 3.16699 21.5 9.5s11.167 13.166 12.5 20.499l8 50h-175c-44.667 0 -78.834 13.167 -102.501 39.5s-32.167 59.833 -25.5 100.5l35 220c6.66699 40.667 25.834 74.167 57.501 100.5s69.834 39.5 114.501 39.5h345l-88 -560
c-6.66699 -40.667 -25.834 -74.167 -57.501 -100.5s-69.834 -39.5 -114.501 -39.5h-310zM255.001 380.001l-31.999 -200.002c-1.33301 -7.33301 0.666992 -14.166 6 -20.499s11.666 -9.5 18.999 -9.5h125l41 260h-125c-7.33301 0 -14.5 -3.16699 -21.5 -9.5
s-11.167 -13.166 -12.5 -20.499zM452.002 589.999h-160c-28 0 -48.667 8 -62 24s-18 38 -14 66l11 70h120l-7 -45c-2 -16.667 5 -25 21 -25h50c16 0 25.667 8.33301 29 25l7 45h120l-11 -70c-4 -28 -15.333 -50 -34 -66s-42 -24 -70 -24z" />
    <glyph glyph-name="Gdotaccent" unicode="&#x120;" horiz-adv-x="665" 
d="M360 415l275.001 -0.00195312l-65 -415h-375c-46.667 0 -82.834 14.333 -108.501 43s-35.167 64.334 -28.5 107.001l64 400c6.66699 42.667 27 78.334 61 107.001s74.667 43 122 43h354l-13 -85l-47 -45h-259c-10 0 -19 -3.33301 -27 -10s-12.667 -15 -14 -25l-58 -370
c-2 -10 -0.166992 -18.333 5.5 -25s13.5 -10 23.5 -10h150l25 155h-105zM518.001 769.998h-170l22 140h170z" />
    <glyph glyph-name="gdotaccent" unicode="&#x121;" horiz-adv-x="615" 
d="M52 -50l260.001 0.000976562c7.33301 0 14.5 3.16699 21.5 9.5s11.167 13.166 12.5 20.499l8 50h-175c-44.667 0 -78.834 13.167 -102.501 39.5s-32.167 59.833 -25.5 100.5l35 220c6.66699 40.667 25.834 74.167 57.501 100.5s69.834 39.5 114.501 39.5h345l-88 -560
c-6.66699 -40.667 -25.834 -74.167 -57.501 -100.5s-69.834 -39.5 -114.501 -39.5h-310zM255.001 380.001l-31.999 -200.002c-1.33301 -7.33301 0.666992 -14.166 6 -20.499s11.666 -9.5 18.999 -9.5h125l41 260h-125c-7.33301 0 -14.5 -3.16699 -21.5 -9.5
s-11.167 -13.166 -12.5 -20.499zM469.002 599.999h-170l22 140h170z" />
    <glyph glyph-name="Gcommaaccent" unicode="&#x122;" horiz-adv-x="665" 
d="M360 415l275.001 -0.00195312l-65 -415h-375c-46.667 0 -82.834 14.333 -108.501 43s-35.167 64.334 -28.5 107.001l64 400c6.66699 42.667 27 78.334 61 107.001s74.667 43 122 43h354l-13 -85l-47 -45h-259c-10 0 -19 -3.33301 -27 -10s-12.667 -15 -14 -25l-58 -370
c-2 -10 -0.166992 -18.333 5.5 -25s13.5 -10 23.5 -10h150l25 155h-105zM354.001 -171.002l-73 -85h-79l31 200h140z" />
    <glyph glyph-name="gcommaaccent" unicode="&#x123;" horiz-adv-x="615" 
d="M52 -50l260.001 0.000976562c7.33301 0 14.5 3.16699 21.5 9.5s11.167 13.166 12.5 20.499l8 50h-175c-44.667 0 -78.834 13.167 -102.501 39.5s-32.167 59.833 -25.5 100.5l35 220c6.66699 40.667 25.834 74.167 57.501 100.5s69.834 39.5 114.501 39.5h345l-88 -560
c-6.66699 -40.667 -25.834 -74.167 -57.501 -100.5s-69.834 -39.5 -114.501 -39.5h-310zM255.001 380.001l-31.999 -200.002c-1.33301 -7.33301 0.666992 -14.166 6 -20.499s11.666 -9.5 18.999 -9.5h125l41 260h-125c-7.33301 0 -14.5 -3.16699 -21.5 -9.5
s-11.167 -13.166 -12.5 -20.499zM390.002 708.999l73 85h79l-31 -200h-140z" />
    <glyph glyph-name="Hcircumflex" unicode="&#x124;" horiz-adv-x="710" 
d="M230 0h-180l110 700h180l-45 -285h190l45 285h180l-110 -700h-180l45 285h-190zM380 760h-135l148 150h150l102 -150h-135l-54 70z" />
    <glyph glyph-name="hcircumflex" unicode="&#x125;" horiz-adv-x="635" 
d="M298 530l175 0.000976562c44.667 0 78.834 -13.167 102.501 -39.5s32.167 -59.833 25.5 -100.5l-61 -390h-170l60 380c1.33301 7.33301 -0.833984 14.166 -6.50098 20.499s-12.167 9.5 -19.5 9.5h-125l-64 -410h-170l110 700h170zM192 750.001h-135l148 150h150l102 -150
h-135l-54 70z" />
    <glyph glyph-name="Hbar" unicode="&#x126;" horiz-adv-x="710" 
d="M230 0h-180l74 470h-60l17 110h60l19 120h180l-19 -120h190l19 120h180l-19 -120h60l-17 -110h-60l-74 -470h-180l38 245h-190zM289 375h190l15 95h-190z" />
    <glyph glyph-name="hbar" unicode="&#x127;" horiz-adv-x="650" 
d="M303 430l175 0.000976562c44.667 0 78.667 -13.167 102 -39.5s31.666 -59.833 24.999 -100.5l-45 -290h-170l44 280c1.33301 7.33301 -0.666992 14.166 -6 20.499s-11.666 9.5 -18.999 9.5h-125l-49 -310h-170l77 490h-70l19 120h80l64 90h110l-14 -90h145l-19 -120h-145
z" />
    <glyph glyph-name="Itilde" unicode="&#x128;" horiz-adv-x="340" 
d="M230 0h-180l110 700h180zM95 765l15 95.001c3.33301 20 13 36.667 29 50s35 20 57 20h15c8.66699 0 19.667 -4.33301 33 -13c6 -3.33301 12 -7.33301 18 -12l41 -30c2.66699 -2.66699 5 -4.33398 7 -5.00098c5.33301 -3.33301 9 -5 11 -5c7.33301 0 11.333 5 12 15l8 45
h110l-15 -95c-3.33301 -20 -13.166 -36.667 -29.499 -50s-35.5 -20 -57.5 -20h-15c-9.33301 0 -20.333 4 -33 12c-4 2 -10 6.33301 -18 13l-40 30l-7 5c-4.66699 3.33301 -8.33398 5 -11.001 5c-6.66699 0 -11 -5 -13 -15l-7 -45h-110z" />
    <glyph glyph-name="itilde" unicode="&#x129;" horiz-adv-x="300" 
d="M288 530l-83 -530h-170l83 530h170zM52 605l15 95.001c3.33301 20 13 36.667 29 50s35 20 57 20h15c8.66699 0 19.667 -4.33301 33 -13c6 -3.33301 12 -7.33301 18 -12l41 -30c2.66699 -2.66699 5 -4.33398 7 -5.00098c5.33301 -3.33301 9 -5 11 -5
c6.66699 0 10.667 5 12 15l8 45h110l-15 -95c-3.33301 -20 -13.166 -36.667 -29.499 -50s-35.5 -20 -57.5 -20h-15c-9.33301 0 -20.333 4 -33 12c-4 2 -10 6.33301 -18 13l-40 30l-7 5c-4.66699 3.33301 -8.33398 5 -11.001 5c-6.66699 0 -11 -5 -13 -15l-7 -45h-110z" />
    <glyph glyph-name="Imacron" unicode="&#x12a;" horiz-adv-x="340" 
d="M230 0h-180l110 700h180zM445 890l-17 -110h-325l17 110h325z" />
    <glyph glyph-name="imacron" unicode="&#x12b;" horiz-adv-x="300" 
d="M288 530l-83 -530h-170l83 530h170zM398 720l-17 -110h-325l17 110h325z" />
    <glyph glyph-name="Ibreve" unicode="&#x12c;" horiz-adv-x="340" 
d="M230 0h-180l110 700h180zM341 770h-160c-28 0 -48.667 8 -62 24s-18 38 -14 66l11 70h120l-7 -45c-2 -16.667 5 -25 21 -25h50c16 0 25.667 8.33301 29 25l7 45h120l-11 -70c-4 -28 -15.333 -50 -34 -66s-42 -24 -70 -24z" />
    <glyph glyph-name="ibreve" unicode="&#x12d;" horiz-adv-x="300" 
d="M288 530l-83 -530h-170l83 530h170zM298 610h-160c-28 0 -48.667 8 -62 24s-18 38 -14 66l11 70h120l-7 -45c-2 -16.667 5 -25 21 -25h50c16 0 25.667 8.33301 29 25l7 45h120l-11 -70c-4 -28 -15.333 -50 -34 -66s-42 -24 -70 -24z" />
    <glyph glyph-name="Iogonek" unicode="&#x12e;" horiz-adv-x="340" 
d="M115 0h-65l110 700h180l-114 -725c-22 -5.33301 -40.667 -11.666 -56 -18.999c-38.667 -20 -60 -43.667 -64 -71c-2 -16.667 5 -25 21 -25h80l-12 -80h-90c-46.667 0 -79.667 9.16699 -99 27.5s-26 44.166 -20 77.499s29 62.333 69 87c20 12.667 40 22 60 28z" />
    <glyph glyph-name="iogonek" unicode="&#x12f;" horiz-adv-x="300" 
d="M288 530l-83 -530.001h-3l-4 -25c-22 -5.33301 -40.667 -11.666 -56 -18.999c-38.667 -20 -60 -43.667 -64 -71c-2 -16.667 5 -25 21 -25h80l-12 -80h-90c-46.667 0 -79.5 9 -98.5 27s-25.5 44 -19.5 78s28.667 63 68 87c18.667 12 38.667 21.333 60 28h-52l83 530h170z
M296 579.999h-170l23 140h170z" />
    <glyph glyph-name="Idotaccent" unicode="&#x130;" horiz-adv-x="340" 
d="M230 0h-180l110 700h180zM346 770h-170l22 140h170z" />
    <glyph glyph-name="dotlessi" unicode="&#x131;" horiz-adv-x="300" 
d="M288 530l-83 -530h-170l83 530h170z" />
    <glyph glyph-name="IJ" unicode="&#x132;" horiz-adv-x="885" 
d="M230 0h-180l110 700h180zM613 -10l-295.001 0.000976562l21 130h240c10 0 18.833 3.33301 26.5 10s12.167 15 13.5 25l86 545h180l-88 -560c-6.66699 -42.667 -27.167 -78.334 -61.5 -107.001s-75.166 -43 -122.499 -43z" />
    <glyph glyph-name="ij" unicode="&#x133;" horiz-adv-x="620" 
d="M288 530l-83 -530h-170l83 530h170zM296 580h-170l23 140h170zM208 -50l109.002 0.000976562c7.33301 0 14.5 3.16699 21.5 9.5s11.167 13.166 12.5 20.499l87 550h170l-88 -560c-6.66699 -40.667 -25.834 -74.167 -57.501 -100.5s-69.834 -39.5 -114.501 -39.5h-159z
M616.002 580.001h-170l23 140h170z" />
    <glyph glyph-name="Jcircumflex" unicode="&#x134;" horiz-adv-x="545" 
d="M273 -10l-295.001 0.000976562l21 130h240c10 0 18.833 3.33301 26.5 10s12.167 15 13.5 25l86 545h180l-88 -560c-6.66699 -42.667 -27.167 -78.334 -61.5 -107.001s-75.166 -43 -122.499 -43zM396.999 760.001h-135l148 150h150l102 -150h-135l-54 70z" />
    <glyph glyph-name="jcircumflex" unicode="&#x135;" horiz-adv-x="320" 
d="M-92 -50l109.002 0.000976562c7.33301 0 14.5 3.16699 21.5 9.5s11.167 13.166 12.5 20.499l87 550h170l-88 -560c-6.66699 -40.667 -25.834 -74.167 -57.501 -100.5s-69.834 -39.5 -114.501 -39.5h-159zM170.002 600.001h-135l148 150h150l102 -150h-135l-54 70z" />
    <glyph glyph-name="Kcommaaccent" unicode="&#x136;" horiz-adv-x="680" 
d="M230 0h-180l110 700h180l-45 -285h85l155 285h180l-11 -70l-183 -275l110 -285l-11 -70h-180l-80 285h-85zM365 -151l-73 -85h-79l31 200h140z" />
    <glyph glyph-name="kcommaaccent" unicode="&#x137;" horiz-adv-x="610" 
d="M325 700l-59 -375h69l113 205h170l-10 -65l-146 -195l98 -205l-10 -65h-170l-64 205h-69l-32 -205h-170l110 700h170zM340 -151l-73 -85h-79l31 200h140z" />
    <glyph glyph-name="Lacute" unicode="&#x139;" horiz-adv-x="570" 
d="M530 0h-480l110 700h180l-90 -570h300zM291 930h175l-145 -160h-130z" />
    <glyph glyph-name="lacute" unicode="&#x13a;" horiz-adv-x="360" 
d="M262 110l45.002 -0.000976562l-19 -120h-95c-44.667 0 -78.834 13.167 -102.501 39.5s-32.167 59.833 -25.5 100.5l90 570h170l-88 -560c-1.33301 -7.33301 0.666992 -14.166 6 -20.499s11.666 -9.5 18.999 -9.5zM278.002 939.999h175l-145 -160h-130z" />
    <glyph glyph-name="Lcommaaccent" unicode="&#x13b;" horiz-adv-x="570" 
d="M530 0h-480l110 700h180l-90 -570h300zM325 -180l-73 -85h-79l31 200h140z" />
    <glyph glyph-name="lcommaaccent" unicode="&#x13c;" horiz-adv-x="360" 
d="M262 110l45.002 -0.000976562l-19 -120h-95c-44.667 0 -78.834 13.167 -102.501 39.5s-32.167 59.833 -25.5 100.5l90 570h170l-88 -560c-1.33301 -7.33301 0.666992 -14.166 6 -20.499s11.666 -9.5 18.999 -9.5zM220.002 -180.001l-73 -85h-79l31 200h140z" />
    <glyph glyph-name="Lcaron" unicode="&#x13d;" horiz-adv-x="570" 
d="M530 0h-480l110 700h180l-90 -570h300zM562 585l-91 -135h-80l39 250h150z" />
    <glyph glyph-name="lcaron" unicode="&#x13e;" horiz-adv-x="475" 
d="M262 110l45.002 -0.000976562l-19 -120h-95c-44.667 0 -78.834 13.167 -102.501 39.5s-32.167 59.833 -25.5 100.5l90 570h170l-88 -560c-1.33301 -7.33301 0.666992 -14.166 6 -20.499s11.666 -9.5 18.999 -9.5zM527.002 584.999l-91 -135h-80l39 250h150z" />
    <glyph glyph-name="Ldot" unicode="&#x13f;" horiz-adv-x="570" 
d="M530 0h-480l110 700h180l-90 -570h300zM510 325h-150l24 150h150z" />
    <glyph glyph-name="ldot" unicode="&#x140;" horiz-adv-x="510" 
d="M262 110l45.002 -0.000976562l-19 -120h-95c-44.667 0 -78.834 13.167 -102.501 39.5s-32.167 59.833 -25.5 100.5l90 570h170l-88 -560c-1.33301 -7.33301 0.666992 -14.166 6 -20.499s11.666 -9.5 18.999 -9.5zM488.002 279.999h-150l24 150h150z" />
    <glyph glyph-name="Lslash" unicode="&#x141;" horiz-adv-x="570" 
d="M40 350l69 28l51 322h180l-38 -244l107 44l-22 -140l-107 -44l-30 -186h300l-20 -130h-480l37 238l-69 -28z" />
    <glyph glyph-name="lslash" unicode="&#x142;" horiz-adv-x="360" 
d="M262 110l45.002 -0.000976562l-19 -120h-95c-44.667 0 -78.834 13.167 -102.501 39.5s-32.167 59.833 -25.5 100.5l17 106l-64 -26l22 140l64 26l51 324h170l-39 -248l91 38l-22 -140l-91 -38l-27 -172c-1.33301 -7.33301 0.666992 -14.166 6 -20.499
s11.666 -9.5 18.999 -9.5z" />
    <glyph glyph-name="Nacute" unicode="&#x143;" horiz-adv-x="710" 
d="M710 700l-110 -700h-195l-131 440h-10l-3 -240l-31 -200h-180l110 700h195l131 -440h10l3 240l31 200h180zM461 930h175l-145 -160h-130z" />
    <glyph glyph-name="nacute" unicode="&#x144;" horiz-adv-x="635" 
d="M360 540l114.997 0.00195312c44.667 0 78.834 -13.167 102.501 -39.5s32.167 -59.833 25.5 -100.5l-63 -400h-170l61 390c1.33301 7.33301 -0.666992 14.166 -6 20.499s-11.666 9.5 -18.999 9.5h-90c-15.333 0 -28.333 -6 -39 -18
c-4.66699 -4.66699 -8.66699 -10.334 -12 -17.001l-60 -385h-170l83 530h110l15 -65h5c8.66699 16 17.334 28.333 26.001 37c25.333 25.333 54 38 86 38zM417.997 770.002h175l-145 -160h-130z" />
    <glyph glyph-name="Ncommaaccent" unicode="&#x145;" horiz-adv-x="710" 
d="M710 700l-110 -700h-195l-131 440h-10l-3 -240l-31 -200h-180l110 700h195l131 -440h10l3 240l31 200h180zM370 -151l-73 -85h-79l31 200h140z" />
    <glyph glyph-name="ncommaaccent" unicode="&#x146;" horiz-adv-x="635" 
d="M360 540l114.997 0.00195312c44.667 0 78.834 -13.167 102.501 -39.5s32.167 -59.833 25.5 -100.5l-63 -400h-170l61 390c1.33301 7.33301 -0.666992 14.166 -6 20.499s-11.666 9.5 -18.999 9.5h-90c-15.333 0 -28.333 -6 -39 -18
c-4.66699 -4.66699 -8.66699 -10.334 -12 -17.001l-60 -385h-170l83 530h110l15 -65h5c8.66699 16 17.334 28.333 26.001 37c25.333 25.333 54 38 86 38zM329.997 -160.998l-73 -85h-79l31 200h140z" />
    <glyph glyph-name="Ncaron" unicode="&#x147;" horiz-adv-x="710" 
d="M710 700l-110 -700h-195l-131 440h-10l-3 -240l-31 -200h-180l110 700h195l131 -440h10l3 240l31 200h180zM269 920h135l54 -70l76 70h135l-148 -150h-150z" />
    <glyph glyph-name="ncaron" unicode="&#x148;" horiz-adv-x="635" 
d="M360 540l114.997 0.00195312c44.667 0 78.834 -13.167 102.501 -39.5s32.167 -59.833 25.5 -100.5l-63 -400h-170l61 390c1.33301 7.33301 -0.666992 14.166 -6 20.499s-11.666 9.5 -18.999 9.5h-90c-15.333 0 -28.333 -6 -39 -18
c-4.66699 -4.66699 -8.66699 -10.334 -12 -17.001l-60 -385h-170l83 530h110l15 -65h5c8.66699 16 17.334 28.333 26.001 37c25.333 25.333 54 38 86 38zM205.997 760.002h135l54 -70l76 70h135l-148 -150h-150z" />
    <glyph glyph-name="Omacron" unicode="&#x14c;" 
d="M269 120h130c10 0 18.833 3.33301 26.5 10s12.167 15 13.5 25l62 390c1.33301 10 -0.833984 18.333 -6.50098 25s-13.5 10 -23.5 10h-130c-10 0 -18.833 -3.33301 -26.5 -10s-12.167 -15 -13.5 -25l-62 -390c-1.33301 -10 0.833984 -18.333 6.50098 -25
s13.5 -10 23.5 -10zM433 -10h-239.999c-47.333 0 -83.5 14.167 -108.5 42.5s-34.167 64.166 -27.5 107.499l66 420c6.66699 42.667 27.167 78.334 61.5 107.001s75.166 43 122.499 43h240c48.667 0 85.167 -14.667 109.5 -44s33.166 -64.666 26.499 -105.999l-66 -420
c-6.66699 -42.667 -27.167 -78.334 -61.5 -107.001s-75.166 -43 -122.499 -43zM617.001 890l-17 -110h-325l17 110h325z" />
    <glyph glyph-name="omacron" unicode="&#x14d;" horiz-adv-x="625" 
d="M603 400l-43 -270c-6.66699 -40.667 -25.834 -74.167 -57.501 -100.5s-69.834 -39.5 -114.501 -39.5h-215c-44.667 0 -78.834 13.167 -102.501 39.5s-32.167 59.833 -25.5 100.5l43 270c6.66699 40.667 25.834 74.167 57.501 100.5s69.834 39.5 114.501 39.5h215
c44.667 0 78.834 -13.167 102.501 -39.5s32.167 -59.833 25.5 -100.5zM242 110h115c7.33301 0 14.666 3.16699 21.999 9.5s11.666 13.166 12.999 20.499l39 250c1.33301 7.33301 -0.666992 14.166 -6 20.499s-11.666 9.5 -18.999 9.5h-115
c-7.33301 0 -14.666 -3.16699 -21.999 -9.5s-11.666 -13.166 -12.999 -20.499l-39 -250c-1.33301 -7.33301 0.666992 -14.166 6 -20.499s11.666 -9.5 18.999 -9.5zM559 730l-17 -110h-325l17 110h325z" />
    <glyph glyph-name="Obreve" unicode="&#x14e;" 
d="M269 120h130c10 0 18.833 3.33301 26.5 10s12.167 15 13.5 25l62 390c1.33301 10 -0.833984 18.333 -6.50098 25s-13.5 10 -23.5 10h-130c-10 0 -18.833 -3.33301 -26.5 -10s-12.167 -15 -13.5 -25l-62 -390c-1.33301 -10 0.833984 -18.333 6.50098 -25
s13.5 -10 23.5 -10zM433 -10h-239.999c-47.333 0 -83.5 14.167 -108.5 42.5s-34.167 64.166 -27.5 107.499l66 420c6.66699 42.667 27.167 78.334 61.5 107.001s75.166 43 122.499 43h240c48.667 0 85.167 -14.667 109.5 -44s33.166 -64.666 26.499 -105.999l-66 -420
c-6.66699 -42.667 -27.167 -78.334 -61.5 -107.001s-75.166 -43 -122.499 -43zM516.001 770h-160c-28 0 -48.667 8 -62 24s-18 38 -14 66l11 70h120l-7 -45c-2 -16.667 5 -25 21 -25h50c16 0 25.667 8.33301 29 25l7 45h120l-11 -70c-4 -28 -15.333 -50 -34 -66
s-42 -24 -70 -24z" />
    <glyph glyph-name="obreve" unicode="&#x14f;" horiz-adv-x="625" 
d="M603 400l-43 -270c-6.66699 -40.667 -25.834 -74.167 -57.501 -100.5s-69.834 -39.5 -114.501 -39.5h-215c-44.667 0 -78.834 13.167 -102.501 39.5s-32.167 59.833 -25.5 100.5l43 270c6.66699 40.667 25.834 74.167 57.501 100.5s69.834 39.5 114.501 39.5h215
c44.667 0 78.834 -13.167 102.501 -39.5s32.167 -59.833 25.5 -100.5zM242 110h115c7.33301 0 14.666 3.16699 21.999 9.5s11.666 13.166 12.999 20.499l39 250c1.33301 7.33301 -0.666992 14.166 -6 20.499s-11.666 9.5 -18.999 9.5h-115
c-7.33301 0 -14.666 -3.16699 -21.999 -9.5s-11.666 -13.166 -12.999 -20.499l-39 -250c-1.33301 -7.33301 0.666992 -14.166 6 -20.499s11.666 -9.5 18.999 -9.5zM458 610h-160c-28 0 -48.667 8 -62 24s-18 38 -14 66l11 70h120l-7 -45c-2 -16.667 5 -25 21 -25h50
c16 0 25.667 8.33301 29 25l7 45h120l-11 -70c-4 -28 -15.333 -50 -34 -66s-42 -24 -70 -24z" />
    <glyph glyph-name="Ohungarumlaut" unicode="&#x150;" 
d="M269 120h130c10 0 18.833 3.33301 26.5 10s12.167 15 13.5 25l62 390c1.33301 10 -0.833984 18.333 -6.50098 25s-13.5 10 -23.5 10h-130c-10 0 -18.833 -3.33301 -26.5 -10s-12.167 -15 -13.5 -25l-62 -390c-1.33301 -10 0.833984 -18.333 6.50098 -25
s13.5 -10 23.5 -10zM433 -10h-239.999c-47.333 0 -83.5 14.167 -108.5 42.5s-34.167 64.166 -27.5 107.499l66 420c6.66699 42.667 27.167 78.334 61.5 107.001s75.166 43 122.499 43h240c48.667 0 85.167 -14.667 109.5 -44s33.166 -64.666 26.499 -105.999l-66 -420
c-6.66699 -42.667 -27.167 -78.334 -61.5 -107.001s-75.166 -43 -122.499 -43zM378.001 940h145l-135 -160h-110zM578.001 940h145l-135 -160h-110z" />
    <glyph glyph-name="ohungarumlaut" unicode="&#x151;" horiz-adv-x="625" 
d="M603 400l-43 -270c-6.66699 -40.667 -25.834 -74.167 -57.501 -100.5s-69.834 -39.5 -114.501 -39.5h-215c-44.667 0 -78.834 13.167 -102.501 39.5s-32.167 59.833 -25.5 100.5l43 270c6.66699 40.667 25.834 74.167 57.501 100.5s69.834 39.5 114.501 39.5h215
c44.667 0 78.834 -13.167 102.501 -39.5s32.167 -59.833 25.5 -100.5zM242 110h115c7.33301 0 14.666 3.16699 21.999 9.5s11.666 13.166 12.999 20.499l39 250c1.33301 7.33301 -0.666992 14.166 -6 20.499s-11.666 9.5 -18.999 9.5h-115
c-7.33301 0 -14.666 -3.16699 -21.999 -9.5s-11.666 -13.166 -12.999 -20.499l-39 -250c-1.33301 -7.33301 0.666992 -14.166 6 -20.499s11.666 -9.5 18.999 -9.5zM308 770h145l-135 -160h-110zM508 770h145l-135 -160h-110z" />
    <glyph glyph-name="OE" unicode="&#x152;" horiz-adv-x="965" 
d="M1010 700l-12.999 -85.002l-47 -45h-280l-24 -150h230l-21 -130h-230l-25 -160h320l-20 -130h-705c-46.667 0 -82.834 14.333 -108.501 43s-35.167 64.334 -28.5 107.001l64 400c6.66699 42.667 27 78.334 61 107.001s74.667 43 122 43h705zM490.001 569.998h-150
c-10 0 -19 -3.33301 -27 -10s-12.667 -15 -14 -25l-58 -370c-2 -10 -0.166992 -18.333 5.5 -25s13.5 -10 23.5 -10h150z" />
    <glyph glyph-name="oe" unicode="&#x153;" horiz-adv-x="945" 
d="M589 120l264.997 -0.000976562l-19 -120h-305c-18 0 -33.667 6.66699 -47 20c-4.66699 4 -10.334 10.667 -17.001 20c-9.33301 -10.667 -18.333 -19 -27 -25c-22 -16.667 -45.667 -25 -71 -25h-195c-44.667 0 -78.834 13.167 -102.501 39.5s-32.167 59.833 -25.5 100.5
l43 270c6.66699 40.667 25.834 74.167 57.501 100.5s69.834 39.5 114.501 39.5h195c20 0 39 -8.33301 57 -25c6.66699 -6.66699 13.334 -15 20.001 -25c12 12 21.333 20.333 28 25c23.333 16.667 45 25 65 25h170c44.667 0 78.834 -13.167 102.501 -39.5
s32.167 -59.833 25.5 -100.5l-31 -195h-320l-9 -55c-1.33301 -7.33301 0.833984 -14.166 6.50098 -20.499s12.167 -9.5 19.5 -9.5zM241.997 109.999h115c7.33301 0 14.666 3.16699 21.999 9.5s11.666 13.166 12.999 20.499l39 250
c1.33301 7.33301 -0.666992 14.166 -6 20.499s-11.666 9.5 -18.999 9.5h-115c-7.33301 0 -14.666 -3.16699 -21.999 -9.5s-11.666 -13.166 -12.999 -20.499l-39 -250c-1.33301 -7.33301 0.666992 -14.166 6 -20.499s11.666 -9.5 18.999 -9.5zM600.997 389.999l-11.0029 -70
h150l11 70c1.33301 7.33301 -0.666992 14.166 -6 20.499s-11.666 9.5 -18.999 9.5h-90c-7.33301 0 -14.666 -3.16699 -21.999 -9.5s-11.666 -13.166 -12.999 -20.499z" />
    <glyph glyph-name="Racute" unicode="&#x154;" horiz-adv-x="695" 
d="M230 0h-180.001l110 700h380c48.667 0 85.167 -14.5 109.5 -43.5s33.5 -64.5 27.5 -106.5l-24 -150c-7.33301 -44.667 -30.666 -80.334 -69.999 -107.001c-16 -11.333 -35 -20.666 -57 -27.999l105 -195l-11 -70h-180l-96 250h-75zM464.999 570h-145l-30 -190h145
c10 0 18.833 3.33301 26.5 10s12.167 15 13.5 25l19 120c1.33301 10 -0.666992 18.333 -6 25s-13 10 -23 10zM452.999 930h175l-145 -160h-130z" />
    <glyph glyph-name="racute" unicode="&#x155;" horiz-adv-x="470" 
d="M360 540h150l-19 -120h-175c-15.333 0 -28.333 -6 -39 -18c-4.66699 -4.66699 -8.66699 -10.334 -12 -17.001l-60 -385h-170l83 530h110l16 -60h5c6 12.667 14.333 24.334 25 35.001c26 23.333 54.667 35 86 35zM346 770h175l-145 -160h-130z" />
    <glyph glyph-name="Rcommaaccent" unicode="&#x156;" horiz-adv-x="695" 
d="M230 0h-180.001l110 700h380c48.667 0 85.167 -14.5 109.5 -43.5s33.5 -64.5 27.5 -106.5l-24 -150c-7.33301 -44.667 -30.666 -80.334 -69.999 -107.001c-16 -11.333 -35 -20.666 -57 -27.999l105 -195l-11 -70h-180l-96 250h-75zM464.999 570h-145l-30 -190h145
c10 0 18.833 3.33301 26.5 10s12.167 15 13.5 25l19 120c1.33301 10 -0.666992 18.333 -6 25s-13 10 -23 10zM361.999 -151l-73 -85h-79l31 200h140z" />
    <glyph glyph-name="rcommaaccent" unicode="&#x157;" horiz-adv-x="470" 
d="M360 540h150l-19 -120h-175c-15.333 0 -28.333 -6 -39 -18c-4.66699 -4.66699 -8.66699 -10.334 -12 -17.001l-60 -385h-170l83 530h110l16 -60h5c6 12.667 14.333 24.334 25 35.001c26 23.333 54.667 35 86 35zM155 -180l-73 -85h-79l31 200h140z" />
    <glyph glyph-name="Rcaron" unicode="&#x158;" horiz-adv-x="695" 
d="M230 0h-180.001l110 700h380c48.667 0 85.167 -14.5 109.5 -43.5s33.5 -64.5 27.5 -106.5l-24 -150c-7.33301 -44.667 -30.666 -80.334 -69.999 -107.001c-16 -11.333 -35 -20.666 -57 -27.999l105 -195l-11 -70h-180l-96 250h-75zM464.999 570h-145l-30 -190h145
c10 0 18.833 3.33301 26.5 10s12.167 15 13.5 25l19 120c1.33301 10 -0.666992 18.333 -6 25s-13 10 -23 10zM239.999 910h135l54 -70l76 70h135l-148 -150h-150z" />
    <glyph glyph-name="rcaron" unicode="&#x159;" horiz-adv-x="470" 
d="M360 540h150l-19 -120h-175c-15.333 0 -28.333 -6 -39 -18c-4.66699 -4.66699 -8.66699 -10.334 -12 -17.001l-60 -385h-170l83 530h110l16 -60h5c6 12.667 14.333 24.334 25 35.001c26 23.333 54.667 35 86 35zM144 760h135l54 -70l76 70h135l-148 -150h-150z" />
    <glyph glyph-name="Sacute" unicode="&#x15a;" horiz-adv-x="600" 
d="M78 465l14 85c6.66699 42.667 27 78.334 61 107.001s74.667 43 122 43h340l-13 -85l-47 -45h-245c-10 0 -19 -3.33301 -27 -10s-12.667 -15 -14 -25l-8 -50c-4 -24.667 7 -39.667 33 -45l179 -40c35.333 -8.66699 62.5 -26.167 81.5 -52.5s25.5 -58.833 19.5 -97.5
l-16 -100c-6.66699 -42.667 -27 -78.334 -61 -107.001s-74.667 -43 -122 -43h-370l20 130h315c10 0 18.833 3.33301 26.5 10s12.5 15 14.5 25l10 65c4 24.667 -7 39.667 -33 45l-179 40c-35.333 8.66699 -62.5 26.167 -81.5 52.5s-25.5 58.833 -19.5 97.5zM416 930h175
l-145 -160h-130z" />
    <glyph glyph-name="sacute" unicode="&#x15b;" horiz-adv-x="545" 
d="M332 145l4.00098 20c2 16 -6.66699 26 -26 30l-165 30c-28 6 -50.333 20.667 -67 44s-22.334 52 -17.001 86l6 40c6.66699 40.667 24.834 73.334 54.501 98.001s66.834 37 111.501 37h300l-11 -75l-48 -45h-210c-16.667 0 -26.334 -8.33301 -29.001 -25l-2 -15
c-2 -16 6.33301 -26 25 -30l166 -30c28 -6 50.333 -20.667 67 -44s22.334 -52 17.001 -86l-7 -45c-6.66699 -40.667 -24.834 -73.334 -54.501 -98.001s-66.834 -37 -111.501 -37h-330l19 120h280c16.667 0 26 8.33301 28 25zM363.001 770h175l-145 -160h-130z" />
    <glyph glyph-name="Scircumflex" unicode="&#x15c;" horiz-adv-x="600" 
d="M78 465l14 85c6.66699 42.667 27 78.334 61 107.001s74.667 43 122 43h340l-13 -85l-47 -45h-245c-10 0 -19 -3.33301 -27 -10s-12.667 -15 -14 -25l-8 -50c-4 -24.667 7 -39.667 33 -45l179 -40c35.333 -8.66699 62.5 -26.167 81.5 -52.5s25.5 -58.833 19.5 -97.5
l-16 -100c-6.66699 -42.667 -27 -78.334 -61 -107.001s-74.667 -43 -122 -43h-370l20 130h315c10 0 18.833 3.33301 26.5 10s12.5 15 14.5 25l10 65c4 24.667 -7 39.667 -33 45l-179 40c-35.333 8.66699 -62.5 26.167 -81.5 52.5s-25.5 58.833 -19.5 97.5zM326 770h-135
l148 150h150l102 -150h-135l-54 70z" />
    <glyph glyph-name="scircumflex" unicode="&#x15d;" horiz-adv-x="545" 
d="M332 145l4.00098 20c2 16 -6.66699 26 -26 30l-165 30c-28 6 -50.333 20.667 -67 44s-22.334 52 -17.001 86l6 40c6.66699 40.667 24.834 73.334 54.501 98.001s66.834 37 111.501 37h300l-11 -75l-48 -45h-210c-16.667 0 -26.334 -8.33301 -29.001 -25l-2 -15
c-2 -16 6.33301 -26 25 -30l166 -30c28 -6 50.333 -20.667 67 -44s22.334 -52 17.001 -86l-7 -45c-6.66699 -40.667 -24.834 -73.334 -54.501 -98.001s-66.834 -37 -111.501 -37h-330l19 120h280c16.667 0 26 8.33301 28 25zM271.001 600h-135l148 150h150l102 -150h-135
l-54 70z" />
    <glyph glyph-name="Scedilla" unicode="&#x15e;" horiz-adv-x="600" 
d="M78 465l14 85c6.66699 42.667 27 78.334 61 107.001s74.667 43 122 43h340l-13 -85l-47 -45h-245c-10 0 -19 -3.33301 -27 -10s-12.667 -15 -14 -25l-8 -50c-4 -24.667 7 -39.667 33 -45l179 -40c35.333 -8.66699 62.5 -26.167 81.5 -52.5s25.5 -58.833 19.5 -97.5
l-16 -100c-6.66699 -42.667 -27 -78.334 -61 -107.001s-74.667 -43 -122 -43h-107l-6 -35h40c28 0 49.5 -8.5 64.5 -25.5s20.5 -38.5 16.5 -64.5l-5 -31c-4 -24.667 -16.333 -45.667 -37 -63s-44.667 -26 -72 -26h-151l12 80h101c16 0 25.667 8.33301 29 25
c1.33301 7.33301 0 13.333 -4 18s-9.66699 7 -17 7h-85l19 115h-168l20 130h315c10 0 18.833 3.33301 26.5 10s12.5 15 14.5 25l10 65c4 24.667 -7 39.667 -33 45l-179 40c-35.333 8.66699 -62.5 26.167 -81.5 52.5s-25.5 58.833 -19.5 97.5z" />
    <glyph glyph-name="scedilla" unicode="&#x15f;" horiz-adv-x="545" 
d="M332 145l4.00098 20c2 16 -6.66699 26 -26 30l-165 30c-28 6 -50.333 20.667 -67 44s-22.334 52 -17.001 86l6 40c6.66699 40.667 24.834 73.334 54.501 98.001s66.834 37 111.501 37h300l-11 -75l-48 -45h-210c-16.667 0 -26.334 -8.33301 -29.001 -25l-2 -15
c-2 -16 6.33301 -26 25 -30l166 -30c28 -6 50.333 -20.667 67 -44s22.334 -52 17.001 -86l-7 -45c-6.66699 -40.667 -24.834 -73.334 -54.501 -98.001s-66.834 -37 -111.501 -37h-85l-6 -35h40c28 0 49.5 -8.5 64.5 -25.5s20.5 -38.5 16.5 -64.5l-5 -31
c-4 -24.667 -16.333 -45.667 -37 -63s-44.667 -26 -72 -26h-151l12 80h101c16 0 25.667 8.33301 29 25c1.33301 7.33301 0 13.333 -4 18s-9.66699 7 -17 7h-85l19 115h-150l19 120h280c16.667 0 26 8.33301 28 25z" />
    <glyph glyph-name="Scaron" unicode="&#x160;" horiz-adv-x="600" 
d="M78 465l14 85c6.66699 42.667 27 78.334 61 107.001s74.667 43 122 43h340l-13 -85l-47 -45h-245c-10 0 -19 -3.33301 -27 -10s-12.667 -15 -14 -25l-8 -50c-4 -24.667 7 -39.667 33 -45l179 -40c35.333 -8.66699 62.5 -26.167 81.5 -52.5s25.5 -58.833 19.5 -97.5
l-16 -100c-6.66699 -42.667 -27 -78.334 -61 -107.001s-74.667 -43 -122 -43h-370l20 130h315c10 0 18.833 3.33301 26.5 10s12.5 15 14.5 25l10 65c4 24.667 -7 39.667 -33 45l-179 40c-35.333 8.66699 -62.5 26.167 -81.5 52.5s-25.5 58.833 -19.5 97.5zM214 920h135
l54 -70l76 70h135l-148 -150h-150z" />
    <glyph glyph-name="scaron" unicode="&#x161;" horiz-adv-x="545" 
d="M332 145l4.00098 20c2 16 -6.66699 26 -26 30l-165 30c-28 6 -50.333 20.667 -67 44s-22.334 52 -17.001 86l6 40c6.66699 40.667 24.834 73.334 54.501 98.001s66.834 37 111.501 37h300l-11 -75l-48 -45h-210c-16.667 0 -26.334 -8.33301 -29.001 -25l-2 -15
c-2 -16 6.33301 -26 25 -30l166 -30c28 -6 50.333 -20.667 67 -44s22.334 -52 17.001 -86l-7 -45c-6.66699 -40.667 -24.834 -73.334 -54.501 -98.001s-66.834 -37 -111.501 -37h-330l19 120h280c16.667 0 26 8.33301 28 25zM159.001 750h135l54 -70l76 70h135l-148 -150
h-150z" />
    <glyph glyph-name="Tcommaaccent" unicode="&#x162;" horiz-adv-x="600" 
d="M75 570l20 130h570l-13 -85l-47 -45h-155l-90 -570h-180l90 570h-195zM308 -190l-73 -85h-79l31 200h140z" />
    <glyph glyph-name="tcommaaccent" unicode="&#x163;" horiz-adv-x="465" 
d="M277 110l160.002 -0.000976562l-19 -120h-210c-44.667 0 -78.834 13.167 -102.501 39.5s-32.167 59.833 -25.5 100.5l44 280h-70l19 120h80l83 140h100l-23 -140h135l-19 -120h-135l-42 -270c-1.33301 -7.33301 0.666992 -14.166 6 -20.499s11.666 -9.5 18.999 -9.5z
M282.002 -180.001l-73 -85h-79l31 200h140z" />
    <glyph glyph-name="Tcaron" unicode="&#x164;" horiz-adv-x="600" 
d="M75 570l20 130h570l-13 -85l-47 -45h-155l-90 -570h-180l90 570h-195zM213 910h135l54 -70l76 70h135l-148 -150h-150z" />
    <glyph glyph-name="tcaron" unicode="&#x165;" horiz-adv-x="600" 
d="M277 110l160.002 -0.000976562l-19 -120h-210c-44.667 0 -78.834 13.167 -102.501 39.5s-32.167 59.833 -25.5 100.5l44 280h-70l19 120h80l83 140h100l-23 -140h135l-19 -120h-135l-42 -270c-1.33301 -7.33301 0.666992 -14.166 6 -20.499s11.666 -9.5 18.999 -9.5z
M647.002 555.999l-91 -135h-80l39 250h150z" />
    <glyph glyph-name="Tbar" unicode="&#x166;" horiz-adv-x="600" 
d="M75 570l20 130h570l-13 -85l-47 -45h-155l-18 -110h174l-17 -110h-174l-55 -350h-180l55 350h-175l17 110h175l18 110h-195z" />
    <glyph glyph-name="tbar" unicode="&#x167;" horiz-adv-x="465" 
d="M277 110l160.002 -0.000976562l-19 -120h-210c-44.667 0 -78.834 13.167 -102.501 39.5s-32.167 59.833 -25.5 100.5l18 110h-70l17 110h70l9 60h-70l19 120h80l83 140h100l-23 -140h135l-19 -120h-135l-9 -60h135l-17 -110h-135l-16 -100
c-1.33301 -7.33301 0.666992 -14.166 6 -20.499s11.666 -9.5 18.999 -9.5z" />
    <glyph glyph-name="Utilde" unicode="&#x168;" horiz-adv-x="720" 
d="M448 -10l-240.002 0.00195312c-47.333 0 -83.5 14.167 -108.5 42.5s-34.167 64.166 -27.5 107.499l88 560h180l-86 -545c-1.33301 -10 0.833984 -18.333 6.50098 -25s13.5 -10 23.5 -10h130c10 0 18.833 3.33301 26.5 10s12.167 15 13.5 25l86 545h180l-88 -560
c-6.66699 -42.667 -27.167 -78.334 -61.5 -107.001s-75.166 -43 -122.499 -43zM286.998 775.002l15 95.001c3.33301 20 13 36.667 29 50s35 20 57 20h15c8.66699 0 19.667 -4.33301 33 -13c6 -3.33301 12 -7.33301 18 -12l41 -30c2.66699 -2.66699 5 -4.33398 7 -5.00098
c5.33301 -3.33301 9 -5 11 -5c7.33301 0 11.333 5 12 15l8 45h110l-15 -95c-3.33301 -20 -13.166 -36.667 -29.499 -50s-35.5 -20 -57.5 -20h-15c-9.33301 0 -20.333 4 -33 12c-4 2 -10 6.33301 -18 13l-40 30l-7 5c-4.66699 3.33301 -8.33398 5 -11.001 5
c-6.66699 0 -11 -5 -13 -15l-7 -45h-110z" />
    <glyph glyph-name="utilde" unicode="&#x169;" horiz-adv-x="635" 
d="M298 -10l-114.997 -0.000976562c-44.667 0 -78.834 13.167 -102.501 39.5s-32.167 59.833 -25.5 100.5l63 400h170l-61 -390c-1.33301 -7.33301 0.666992 -14.166 6 -20.499s11.666 -9.5 18.999 -9.5h90c15.333 0 28 5.66699 38 17c5.33301 4.66699 9.33301 10.667 12 18
l61 385h170l-83 -530h-110l-15 65h-5c-8 -16 -16.667 -28.667 -26 -38c-24.667 -24.667 -53.334 -37 -86.001 -37zM217.003 604.999l15 95.001c3.33301 20 13 36.667 29 50s35 20 57 20h15c8.66699 0 19.667 -4.33301 33 -13c6 -3.33301 12 -7.33301 18 -12l41 -30
c2.66699 -2.66699 5 -4.33398 7 -5.00098c5.33301 -3.33301 9 -5 11 -5c7.33301 0 11.333 5 12 15l8 45h110l-15 -95c-3.33301 -20 -13.166 -36.667 -29.499 -50s-35.5 -20 -57.5 -20h-15c-9.33301 0 -20.333 4 -33 12c-4 2 -10 6.33301 -18 13l-40 30l-7 5
c-4.66699 3.33301 -8.33398 5 -11.001 5c-6.66699 0 -11 -5 -13 -15l-7 -45h-110z" />
    <glyph glyph-name="Umacron" unicode="&#x16a;" horiz-adv-x="720" 
d="M448 -10l-240.002 0.00195312c-47.333 0 -83.5 14.167 -108.5 42.5s-34.167 64.166 -27.5 107.499l88 560h180l-86 -545c-1.33301 -10 0.833984 -18.333 6.50098 -25s13.5 -10 23.5 -10h130c10 0 18.833 3.33301 26.5 10s12.167 15 13.5 25l86 545h180l-88 -560
c-6.66699 -42.667 -27.167 -78.334 -61.5 -107.001s-75.166 -43 -122.499 -43zM631.998 890.002l-17 -110h-325l17 110h325z" />
    <glyph glyph-name="umacron" unicode="&#x16b;" horiz-adv-x="635" 
d="M298 -10l-114.997 -0.000976562c-44.667 0 -78.834 13.167 -102.501 39.5s-32.167 59.833 -25.5 100.5l63 400h170l-61 -390c-1.33301 -7.33301 0.666992 -14.166 6 -20.499s11.666 -9.5 18.999 -9.5h90c15.333 0 28 5.66699 38 17c5.33301 4.66699 9.33301 10.667 12 18
l61 385h170l-83 -530h-110l-15 65h-5c-8 -16 -16.667 -28.667 -26 -38c-24.667 -24.667 -53.334 -37 -86.001 -37zM563.003 719.999l-17 -110h-325l17 110h325z" />
    <glyph glyph-name="Ubreve" unicode="&#x16c;" horiz-adv-x="720" 
d="M448 -10l-240.002 0.00195312c-47.333 0 -83.5 14.167 -108.5 42.5s-34.167 64.166 -27.5 107.499l88 560h180l-86 -545c-1.33301 -10 0.833984 -18.333 6.50098 -25s13.5 -10 23.5 -10h130c10 0 18.833 3.33301 26.5 10s12.167 15 13.5 25l86 545h180l-88 -560
c-6.66699 -42.667 -27.167 -78.334 -61.5 -107.001s-75.166 -43 -122.499 -43zM532.998 780.002h-160c-28 0 -48.667 8 -62 24s-18 38 -14 66l11 70h120l-7 -45c-2 -16.667 5 -25 21 -25h50c16 0 25.667 8.33301 29 25l7 45h120l-11 -70c-4 -28 -15.333 -50 -34 -66
s-42 -24 -70 -24z" />
    <glyph glyph-name="ubreve" unicode="&#x16d;" horiz-adv-x="635" 
d="M298 -10l-114.997 -0.000976562c-44.667 0 -78.834 13.167 -102.501 39.5s-32.167 59.833 -25.5 100.5l63 400h170l-61 -390c-1.33301 -7.33301 0.666992 -14.166 6 -20.499s11.666 -9.5 18.999 -9.5h90c15.333 0 28 5.66699 38 17c5.33301 4.66699 9.33301 10.667 12 18
l61 385h170l-83 -530h-110l-15 65h-5c-8 -16 -16.667 -28.667 -26 -38c-24.667 -24.667 -53.334 -37 -86.001 -37zM461.003 599.999h-160c-28 0 -48.667 8 -62 24s-18 38 -14 66l11 70h120l-7 -45c-2 -16.667 5 -25 21 -25h50c16 0 25.667 8.33301 29 25l7 45h120l-11 -70
c-4 -28 -15.333 -50 -34 -66s-42 -24 -70 -24z" />
    <glyph glyph-name="Uring" unicode="&#x16e;" horiz-adv-x="720" 
d="M448 -10l-240.002 0.00195312c-47.333 0 -83.5 14.167 -108.5 42.5s-34.167 64.166 -27.5 107.499l88 560h180l-86 -545c-1.33301 -10 0.833984 -18.333 6.50098 -25s13.5 -10 23.5 -10h130c10 0 18.833 3.33301 26.5 10s12.167 15 13.5 25l86 545h180l-88 -560
c-6.66699 -42.667 -27.167 -78.334 -61.5 -107.001s-75.166 -43 -122.499 -43zM481.998 740.002h-70c-28 0 -49.5 8.5 -64.5 25.5s-20.5 38.5 -16.5 64.5l6 40c4 26 16.167 47.5 36.5 64.5s44.5 25.5 72.5 25.5h70c28 0 49.5 -8.5 64.5 -25.5s20.5 -38.5 16.5 -64.5l-6 -40
c-4 -26 -16.167 -47.5 -36.5 -64.5s-44.5 -25.5 -72.5 -25.5zM479.998 890.002h-20c-12 0 -19.667 -6.66699 -23 -20l-6 -40c-3.33301 -13.333 2.33398 -20 17.001 -20h20c12 0 19.667 6.66699 23 20l6 40c3.33301 13.333 -2.33398 20 -17.001 20z" />
    <glyph glyph-name="uring" unicode="&#x16f;" horiz-adv-x="635" 
d="M298 -10l-114.997 -0.000976562c-44.667 0 -78.834 13.167 -102.501 39.5s-32.167 59.833 -25.5 100.5l63 400h170l-61 -390c-1.33301 -7.33301 0.666992 -14.166 6 -20.499s11.666 -9.5 18.999 -9.5h90c15.333 0 28 5.66699 38 17c5.33301 4.66699 9.33301 10.667 12 18
l61 385h170l-83 -530h-110l-15 65h-5c-8 -16 -16.667 -28.667 -26 -38c-24.667 -24.667 -53.334 -37 -86.001 -37zM412.003 569.999h-70c-28 0 -49.5 8.5 -64.5 25.5s-20.5 38.5 -16.5 64.5l6 40c4 26 16.167 47.5 36.5 64.5s44.5 25.5 72.5 25.5h70
c28 0 49.5 -8.5 64.5 -25.5s20.5 -38.5 16.5 -64.5l-6 -40c-4 -26 -16.167 -47.5 -36.5 -64.5s-44.5 -25.5 -72.5 -25.5zM410.003 719.999h-20c-12 0 -19.667 -6.66699 -23 -20l-6 -40c-3.33301 -13.333 2.33398 -20 17.001 -20h20c12 0 19.667 6.66699 23 20l6 40
c3.33301 13.333 -2.33398 20 -17.001 20z" />
    <glyph glyph-name="Uhungarumlaut" unicode="&#x170;" horiz-adv-x="720" 
d="M448 -10l-240.002 0.00195312c-47.333 0 -83.5 14.167 -108.5 42.5s-34.167 64.166 -27.5 107.499l88 560h180l-86 -545c-1.33301 -10 0.833984 -18.333 6.50098 -25s13.5 -10 23.5 -10h130c10 0 18.833 3.33301 26.5 10s12.167 15 13.5 25l86 545h180l-88 -560
c-6.66699 -42.667 -27.167 -78.334 -61.5 -107.001s-75.166 -43 -122.499 -43zM382.998 940.002h145l-135 -160h-110zM582.998 940.002h145l-135 -160h-110z" />
    <glyph glyph-name="uhungarumlaut" unicode="&#x171;" horiz-adv-x="635" 
d="M298 -10l-114.997 -0.000976562c-44.667 0 -78.834 13.167 -102.501 39.5s-32.167 59.833 -25.5 100.5l63 400h170l-61 -390c-1.33301 -7.33301 0.666992 -14.166 6 -20.499s11.666 -9.5 18.999 -9.5h90c15.333 0 28 5.66699 38 17c5.33301 4.66699 9.33301 10.667 12 18
l61 385h170l-83 -530h-110l-15 65h-5c-8 -16 -16.667 -28.667 -26 -38c-24.667 -24.667 -53.334 -37 -86.001 -37zM313.003 769.999h145l-135 -160h-110zM513.003 769.999h145l-135 -160h-110z" />
    <glyph glyph-name="Uogonek" unicode="&#x172;" horiz-adv-x="720" 
d="M448 -10l-22.002 0.00292969c-68 -30 -104.667 -65 -110 -105c-2 -16.667 5 -25 21 -25h80l-12 -80h-90c-46.667 0 -79.667 9.16699 -99 27.5s-26 44.166 -20 77.499c6 41.333 40 76.333 102 105h-90c-47.333 0 -83.5 14.167 -108.5 42.5s-34.167 64.166 -27.5 107.499
l88 560h180l-86 -545c-1.33301 -10 0.833984 -18.333 6.50098 -25s13.5 -10 23.5 -10h130c10 0 18.833 3.33301 26.5 10s12.167 15 13.5 25l86 545h180l-88 -560c-6.66699 -42.667 -27.167 -78.334 -61.5 -107.001s-75.166 -43 -122.499 -43z" />
    <glyph glyph-name="uogonek" unicode="&#x173;" horiz-adv-x="635" 
d="M298 -10l-114.997 -0.000976562c-44.667 0 -78.834 13.167 -102.501 39.5s-32.167 59.833 -25.5 100.5l63 400h170l-61 -390c-1.33301 -7.33301 0.666992 -14.166 6 -20.499s11.666 -9.5 18.999 -9.5h90c15.333 0 28 5.66699 38 17c5.33301 4.66699 9.33301 10.667 12 18
l61 385h170l-87 -555c-22 -5.33301 -40.667 -11.666 -56 -18.999c-38.667 -20 -60 -43.667 -64 -71c-2 -16.667 5 -25 21 -25h80l-12 -80h-90c-46.667 0 -79.667 9.16699 -99 27.5s-26 44.166 -20 77.499s29 62.333 69 87c20 12.667 40 22 60 28h5l-15 65h-5
c-8 -16 -16.667 -28.667 -26 -38c-24.667 -24.667 -53.334 -37 -86.001 -37z" />
    <glyph glyph-name="Wcircumflex" unicode="&#x174;" horiz-adv-x="980" 
d="M658 590l31 -375h10l146 485h180l-11 -70l-224 -630h-225l-38 395h-10l-162 -395h-225l-26 630l11 70h180l-6 -485h10l149 375h210zM505 700h-135l148 150h150l102 -150h-135l-54 70z" />
    <glyph glyph-name="wcircumflex" unicode="&#x175;" horiz-adv-x="840" 
d="M439 280h-10l-119 -280h-205l-27 465l10 65h170l-8 -340h10l112 265h180l28 -265h10l98 340h170l-10 -65l-173 -465h-205zM413 560h-135l148 150h150l102 -150h-135l-54 70z" />
    <glyph glyph-name="Ycircumflex" unicode="&#x176;" horiz-adv-x="650" 
d="M530 700h180l-11 -70l-282 -425l-32 -205h-180l32 205l-148 425l11 70h180l68 -330h10zM351 770h-135l148 150h150l102 -150h-135l-54 70z" />
    <glyph glyph-name="ycircumflex" unicode="&#x177;" horiz-adv-x="580" 
d="M603 465l-266 -515.001c-18 -33.333 -43.167 -61.666 -75.5 -84.999s-68.5 -35 -108.5 -35h-115l19 120h80c25.333 0 42.333 13.333 51 40l2 10l-127 465l10 65h170l47 -370h10l143 370h170zM291 609.999h-135l148 150h150l102 -150h-135l-54 70z" />
    <glyph glyph-name="Ydieresis" unicode="&#x178;" horiz-adv-x="650" 
d="M530 700h180l-11 -70l-282 -425l-32 -205h-180l32 205l-148 425l11 70h180l68 -330h10zM381 770h-150l22 140h150zM601 770h-150l22 140h150z" />
    <glyph glyph-name="Zacute" unicode="&#x179;" horiz-adv-x="600" 
d="M235 130h320l-20 -130h-530l19 125l379 435l2 10h-270l-33 45l13 85h520l-19 -125l-379 -435zM416 930h175l-145 -160h-130z" />
    <glyph glyph-name="zacute" unicode="&#x17a;" horiz-adv-x="525" 
d="M313 400l1 10h-210l-32 45l11 75h455l-18 -115l-295 -285l-1 -10h260l-19 -120h-465l18 115zM353 770h175l-145 -160h-130z" />
    <glyph glyph-name="Zdotaccent" unicode="&#x17b;" horiz-adv-x="600" 
d="M235 130h320l-20 -130h-530l19 125l379 435l2 10h-270l-33 45l13 85h520l-19 -125l-379 -435zM476 770h-170l22 140h170z" />
    <glyph glyph-name="zdotaccent" unicode="&#x17c;" horiz-adv-x="525" 
d="M313 400l1 10h-210l-32 45l11 75h455l-18 -115l-295 -285l-1 -10h260l-19 -120h-465l18 115zM412 610h-170l22 140h170z" />
    <glyph glyph-name="Zcaron" unicode="&#x17d;" horiz-adv-x="600" 
d="M235 130h320l-20 -130h-530l19 125l379 435l2 10h-270l-33 45l13 85h520l-19 -125l-379 -435zM214 920h135l54 -70l76 70h135l-148 -150h-150z" />
    <glyph glyph-name="zcaron" unicode="&#x17e;" horiz-adv-x="525" 
d="M313 400l1 10h-210l-32 45l11 75h455l-18 -115l-295 -285l-1 -10h260l-19 -120h-465l18 115zM151 760h135l54 -70l76 70h135l-148 -150h-150z" />
    <glyph glyph-name="florin" unicode="&#x192;" horiz-adv-x="440" 
d="M-82 -50h89.001c7.33301 0 14.5 3.16699 21.5 9.5s11.167 13.166 12.5 20.499l94 590c5.33301 40 24.166 73.333 56.499 100s70.833 40 115.5 40h255l-12 -75l-47 -45h-165c-7.33301 0 -14.666 -3.16699 -21.999 -9.5s-11.666 -13.166 -12.999 -20.499l-16 -105h160
l-19 -120h-160l-58 -365c-6.66699 -40.667 -25.834 -74.167 -57.501 -100.5s-69.834 -39.5 -114.501 -39.5h-139z" />
    <glyph glyph-name="AEacute" unicode="&#x1fc;" horiz-adv-x="1005" 
d="M1050 700l-13 -85l-47 -45h-275l-24 -150h225l-21 -130h-225l-25 -160h315l-20 -130h-495l28 180h-220l-93 -180h-175l11 70l374 630h680zM465 570l-141 -260h170l41 260h-70zM686 930h175l-145 -160h-130z" />
    <glyph glyph-name="aeacute" unicode="&#x1fd;" horiz-adv-x="920" 
d="M564 120l264.998 0.000976562l-19 -120h-315c-28 0 -50 11.667 -66 35c-6.66699 9.33301 -12.667 21 -18 35c-8.66699 -14 -19.667 -27.333 -33 -40c-30.667 -26.667 -65.667 -40 -105 -40h-115c-44.667 0 -78.834 13.167 -102.501 39.5s-32.167 59.833 -25.5 100.5l8 50
c6.66699 40.667 25.834 74.167 57.501 100.5s69.834 39.5 114.501 39.5h185l11 68c0 7.33301 -2.5 13.666 -7.5 18.999s-11.167 8 -18.5 8h-250l19 120h270c23.333 0 44 -11 62 -33c6.66699 -8.66699 12.667 -19.334 18 -32.001c7.33301 12 16.666 23.667 27.999 35
c26 23.333 50.333 35 73 35h170c44.667 0 78.834 -13.167 102.501 -39.5s32.167 -59.833 25.5 -100.5l-31 -195h-320l-9 -55c-1.33301 -7.33301 0.833984 -14.166 6.50098 -20.499s12.167 -9.5 19.5 -9.5zM207.998 180.001l-6 -40
c-1.33301 -7.33301 0.666992 -14.166 6 -20.499s11.666 -9.5 18.999 -9.5h90c9.33301 0 18.166 2.66699 26.499 8s14.333 10.666 18 15.999s5.5 8.66602 5.5 9.99902l11 66h-135c-7.33301 0 -14.666 -3.16699 -21.999 -9.5s-11.666 -13.166 -12.999 -20.499z
M575.998 390.001l-11.0029 -70h150l11 70c1.33301 7.33301 -0.666992 14.166 -6 20.499s-11.666 9.5 -18.999 9.5h-90c-7.33301 0 -14.666 -3.16699 -21.999 -9.5s-11.666 -13.166 -12.999 -20.499zM561.995 780.001h175l-145 -160h-130z" />
    <glyph glyph-name="Oslashacute" unicode="&#x1fe;" 
d="M697 695l-31 -42c17.333 -27.333 23 -58.333 17 -93l-66 -420c-6.66699 -42.667 -27.167 -78.334 -61.5 -107.001s-75.166 -43 -122.499 -43h-240h-6l-28 -40h-125l8 55l31 43c-16.667 25.333 -22 56 -16 92l66 420c6.66699 42.667 27.167 78.334 61.5 107.001
s75.166 43 122.499 43h240h4l29 40h125zM272 120h127c10 0 18.833 3.33301 26.5 10s12.167 15 13.5 25l42 265zM301 545l-42 -263l208 298h-126c-10 0 -18.833 -3.33301 -26.5 -10s-12.167 -15 -13.5 -25zM451 930h175l-145 -160h-130z" />
    <glyph glyph-name="oslashacute" unicode="&#x1ff;" horiz-adv-x="625" 
d="M589 535l-20 -27.999c30 -26.667 41.333 -62.334 34 -107.001l-43 -270c-6.66699 -40.667 -25.834 -74.167 -57.501 -100.5s-69.834 -39.5 -114.501 -39.5h-193l-28 -40h-115l7 45l19 27c-29.333 26 -40.333 62 -33 108l43 270
c6.66699 40.667 25.834 74.167 57.501 100.5s69.834 39.5 114.501 39.5h192l29 40h115zM272 110.001l85.002 0.000976562c7.33301 0 14.666 3.16699 21.999 9.5s11.666 13.166 12.999 20.499l28 176zM256.002 390.002l-28.002 -176.001l147 206h-84
c-7.33301 0 -14.666 -3.16699 -21.999 -9.5s-11.666 -13.166 -12.999 -20.499zM403 770.001h175l-145 -160h-130z" />
    <glyph glyph-name="Scommaaccent" unicode="&#x218;" horiz-adv-x="600" 
d="M78 465l14 85c6.66699 42.667 27 78.334 61 107.001s74.667 43 122 43h340l-13 -85l-47 -45h-245c-10 0 -19 -3.33301 -27 -10s-12.667 -15 -14 -25l-8 -50c-4 -24.667 7 -39.667 33 -45l179 -40c35.333 -8.66699 62.5 -26.167 81.5 -52.5s25.5 -58.833 19.5 -97.5
l-16 -100c-6.66699 -42.667 -27 -78.334 -61 -107.001s-74.667 -43 -122 -43h-370l20 130h315c10 0 18.833 3.33301 26.5 10s12.5 15 14.5 25l10 65c4 24.667 -7 39.667 -33 45l-179 40c-35.333 8.66699 -62.5 26.167 -81.5 52.5s-25.5 58.833 -19.5 97.5zM309 -171l-73 -85
h-79l31 200h140z" />
    <glyph glyph-name="scommaaccent" unicode="&#x219;" horiz-adv-x="545" 
d="M332 145l4.00098 20c2 16 -6.66699 26 -26 30l-165 30c-28 6 -50.333 20.667 -67 44s-22.334 52 -17.001 86l6 40c6.66699 40.667 24.834 73.334 54.501 98.001s66.834 37 111.501 37h300l-11 -75l-48 -45h-210c-16.667 0 -26.334 -8.33301 -29.001 -25l-2 -15
c-2 -16 6.33301 -26 25 -30l166 -30c28 -6 50.333 -20.667 67 -44s22.334 -52 17.001 -86l-7 -45c-6.66699 -40.667 -24.834 -73.334 -54.501 -98.001s-66.834 -37 -111.501 -37h-330l19 120h280c16.667 0 26 8.33301 28 25zM272.001 -180l-73 -85h-79l31 200h140z" />
    <glyph glyph-name="circumflex" unicode="&#x2c6;" horiz-adv-x="460" 
d="M222 550h-135l148 150h150l102 -150h-135l-54 70z" />
    <glyph glyph-name="caron" unicode="&#x2c7;" horiz-adv-x="460" 
d="M110 700h135l54 -70l76 70h135l-148 -150h-150z" />
    <glyph glyph-name="breve" unicode="&#x2d8;" horiz-adv-x="400" 
d="M335 540h-160c-28 0 -48.667 8 -62 24s-18 38 -14 66l11 70h120l-7 -45c-2 -16.667 5 -25 21 -25h50c16 0 25.667 8.33301 29 25l7 45h120l-11 -70c-4 -28 -15.333 -50 -34 -66s-42 -24 -70 -24z" />
    <glyph glyph-name="dotaccent" unicode="&#x2d9;" horiz-adv-x="230" 
d="M258 560h-170l22 140h170z" />
    <glyph glyph-name="ring" unicode="&#x2da;" horiz-adv-x="320" 
d="M241 480h-70c-28 0 -49.5 8.5 -64.5 25.5s-20.5 38.5 -16.5 64.5l6 40c4 26 16.167 47.5 36.5 64.5s44.5 25.5 72.5 25.5h70c28 0 49.5 -8.5 64.5 -25.5s20.5 -38.5 16.5 -64.5l-6 -40c-4 -26 -16.167 -47.5 -36.5 -64.5s-44.5 -25.5 -72.5 -25.5zM239 630h-20
c-12 0 -19.667 -6.66699 -23 -20l-6 -40c-3.33301 -13.333 2.33398 -20 17.001 -20h20c12 0 19.667 6.66699 23 20l6 40c3.33301 13.333 -2.33398 20 -17.001 20z" />
    <glyph glyph-name="ogonek" unicode="&#x2db;" horiz-adv-x="295" 
d="M110 0h115l-4 -25c-22 -5.33301 -40.667 -11.666 -56 -18.999c-38.667 -20 -60 -43.667 -64 -71c-2 -16.667 5 -25 21 -25h80l-12 -80h-90c-46.667 0 -79.667 9.16699 -99 27.5s-26 44.166 -20 77.499s29 62.333 69 87c20 12.667 40 22 60 28z" />
    <glyph glyph-name="tilde" unicode="&#x2dc;" horiz-adv-x="385" 
d="M84 535l15 95.001c3.33301 20 13 36.667 29 50s35 20 57 20h15c8.66699 0 19.667 -4.33301 33 -13c6 -3.33301 12 -7.33301 18 -12l41 -30c2.66699 -2.66699 5 -4.33398 7 -5.00098c5.33301 -3.33301 9 -5 11 -5c6.66699 0 10.667 5 12 15l8 45h110l-15 -95
c-3.33301 -20 -13.166 -36.667 -29.499 -50s-35.5 -20 -57.5 -20h-15c-9.33301 0 -20.333 4 -33 12c-4 2 -10 6.33301 -18 13l-40 30l-7 5c-4.66699 3.33301 -8.33398 5 -11.001 5c-6.66699 0 -11 -5 -13 -15l-7 -45h-110z" />
    <glyph glyph-name="hungarumlaut" unicode="&#x2dd;" horiz-adv-x="480" 
d="M185 700h145l-135 -160h-110zM385 700h145l-135 -160h-110z" />
    <glyph glyph-name="afii10023" unicode="&#x401;" horiz-adv-x="615" 
d="M660 700l-13 -85l-47 -45h-280l-24 -150h230l-21 -130h-230l-25 -160h320l-20 -130h-500l110 700h500zM387 775h-160l22 140h160zM617 775h-160l22 140h160z" />
    <glyph glyph-name="afii10051" unicode="&#x402;" horiz-adv-x="705" 
d="M466 -20h-80l21 130h25c10 0 18.833 3.33301 26.5 10s12.167 15 13.5 25l22 135c1.33301 10 -0.833984 18.333 -6.50098 25s-13.5 10 -23.5 10h-145l-49 -315h-180l90 570h-110l20 130h470l-13 -85l-47 -45h-140l-20 -125h200c47.333 0 83.5 -14.167 108.5 -42.5
s34.167 -64.166 27.5 -107.499l-26 -165c-6.66699 -42.667 -27.167 -78.334 -61.5 -107.001s-75.166 -43 -122.499 -43z" />
    <glyph glyph-name="afii10052" unicode="&#x403;" horiz-adv-x="575" 
d="M432 930h175l-146 -160h-130zM50 0l110 700h485l-13 -85l-47 -45h-265l-90 -570h-180z" />
    <glyph glyph-name="afii10053" unicode="&#x404;" horiz-adv-x="605" 
d="M270 130l290.001 -0.00195312l-20 -130h-345c-46.667 0 -82.834 14.333 -108.501 43s-35.167 64.334 -28.5 107.001l64 400c6.66699 42.667 27 78.334 61 107.001s74.667 43 122 43h345l-13 -85l-47 -45h-250c-10 0 -19 -3.33301 -27 -10s-12.667 -15 -14 -25l-19 -120
h215l-20 -130h-215l-19 -120c-2 -10 -0.166992 -18.333 5.5 -25s13.5 -10 23.5 -10z" />
    <glyph glyph-name="afii10054" unicode="&#x405;" horiz-adv-x="600" 
d="M78 465l14 85c6.66699 42.667 27 78.334 61 107.001s74.667 43 122 43h340l-13 -85l-47 -45h-245c-10 0 -19 -3.33301 -27 -10s-12.667 -15 -14 -25l-8 -50c-4 -24.667 7 -39.667 33 -45l179 -40c35.333 -8.66699 62.5 -26.167 81.5 -52.5s25.5 -58.833 19.5 -97.5
l-16 -100c-6.66699 -42.667 -27 -78.334 -61 -107.001s-74.667 -43 -122 -43h-370l20 130h315c10 0 18.833 3.33301 26.5 10s12.5 15 14.5 25l10 65c4 24.667 -7 39.667 -33 45l-179 40c-35.333 8.66699 -62.5 26.167 -81.5 52.5s-25.5 58.833 -19.5 97.5z" />
    <glyph glyph-name="afii10055" unicode="&#x406;" horiz-adv-x="340" 
d="M230 0h-180l110 700h180z" />
    <glyph glyph-name="afii10056" unicode="&#x407;" horiz-adv-x="370" 
d="M245 0h-180l110 700h180zM243 780h-160l22 140h160zM473 780h-160l22 140h160z" />
    <glyph glyph-name="afii10057" unicode="&#x408;" horiz-adv-x="545" 
d="M273 -10l-295.001 0.000976562l21 130h240c10 0 18.833 3.33301 26.5 10s12.167 15 13.5 25l86 545h180l-88 -560c-6.66699 -42.667 -27.167 -78.334 -61.5 -107.001s-75.166 -43 -122.499 -43z" />
    <glyph glyph-name="afii10058" unicode="&#x409;" horiz-adv-x="1000" 
d="M-1 120l45.001 -0.000976562c10 0 19.5 4.16699 28.5 12.5s14.833 17.5 17.5 27.5l135 540h465l-39 -250h180c46.667 0 82.667 -14.167 108 -42.5s34.666 -64.166 27.999 -107.499l-24 -150c-6.66699 -42 -26.667 -77.5 -60 -106.5s-74.333 -43.5 -123 -43.5h-360l90 570
h-125l-100 -410c-14 -57.333 -40.167 -100 -78.5 -128s-92.833 -42 -163.5 -42h-45zM600.001 129.999h125.001c10 0 18.833 3.33301 26.5 10s12.5 15 14.5 25l19 120c1.33301 10 -0.833984 18.333 -6.50098 25s-13.5 10 -23.5 10h-125z" />
    <glyph glyph-name="afii10059" unicode="&#x40a;" horiz-adv-x="1000" 
d="M230 0l-180 -0.000976562l110 700h180l-42 -265h170l42 265h180l-41 -260h180c47.333 0 83.5 -14.167 108.5 -42.5s34.167 -64.166 27.5 -107.499l-22 -140c-6.66699 -42 -26.667 -77.5 -60 -106.5s-74.333 -43.5 -123 -43.5h-360l48 305h-170zM600 129.999h125
c10 0 18.833 3.33301 26.5 10s12.5 15 14.5 25l17 110c1.33301 10 -0.666992 18.333 -6 25s-13 10 -23 10h-125z" />
    <glyph glyph-name="afii10060" unicode="&#x40b;" horiz-adv-x="720" 
d="M70 570l20.001 129.999h470l-13 -85l-47 -45h-140l-20 -125h200c47.333 0 83.5 -14.167 108.5 -42.5s34.167 -64.166 27.5 -107.499l-46 -295h-180l44 280c1.33301 10 -0.833984 18.333 -6.50098 25s-13.5 10 -23.5 10h-145l-49 -315h-180l90 570h-110z" />
    <glyph glyph-name="afii10061" unicode="&#x40c;" horiz-adv-x="680" 
d="M462 930h175l-146 -160h-130zM230 0h-180l110 700h180l-45 -285h85l155 285h180l-11 -70l-183 -275l110 -285l-11 -70h-180l-80 285h-85z" />
    <glyph glyph-name="afii10062" unicode="&#x40e;" horiz-adv-x="645" 
d="M500 760h-160c-28 0 -48.833 8 -62.5 24s-18.167 38 -13.5 66l11 70h120l-7 -45c-2 -16.667 5 -25 21 -25h50c16 0 25.667 8.33301 29 25l7 45h120l-11 -70c-4.66699 -28 -16.167 -50 -34.5 -66s-41.5 -24 -69.5 -24zM100 700h180.001l75 -380h10l160 380h180l-11 -70
l-271 -480c-30 -54 -64.5 -94.167 -103.5 -120.5s-89.5 -39.5 -151.5 -39.5h-80l21 130h80c19.333 0 35.666 10 48.999 30l7 10l-156 470z" />
    <glyph glyph-name="afii10145" unicode="&#x40f;" horiz-adv-x="710" 
d="M600 0h-185l-52 -135h-120l-8 135h-185l110 700h180l-90 -570h190l90 570h180z" />
    <glyph glyph-name="afii10017" unicode="&#x410;" 
d="M455 0l-12 150h-210l-58 -150h-180l11 70l299 630h240l101 -630l-11 -70h-180zM429 280l-24 260h-10l-106 -260h140z" />
    <glyph glyph-name="afii10018" unicode="&#x411;" horiz-adv-x="680" 
d="M50 0l109.999 700.001h500l-13 -85l-47 -45h-280l-22 -135h200c46.667 0 82.834 -14.333 108.501 -43s35.167 -64.334 28.5 -107.001l-22 -135c-6.66699 -42 -26.667 -77.5 -60 -106.5s-74.333 -43.5 -123 -43.5h-380zM249.999 130.001h145c10 0 18.833 3.33301 26.5 10
s12.5 15 14.5 25l16 105c1.33301 10 -0.666992 18.333 -6 25s-13 10 -23 10h-145z" />
    <glyph glyph-name="afii10019" unicode="&#x412;" horiz-adv-x="685" 
d="M160 700l364.999 0.00195312c46.667 0 82.834 -14.333 108.501 -43s35.167 -64.334 28.5 -107.001l-13 -80c-6 -38 -26.333 -66.667 -61 -86c-14 -8.66699 -31 -15 -51 -19l-1 -10c22 -4 41 -10.333 57 -19c36.667 -20 52 -48.667 46 -86l-16 -100
c-6.66699 -42.667 -27.167 -78.334 -61.5 -107.001s-74.833 -43 -121.5 -43h-390zM249.999 130.002h155c10 0 18.833 3.33301 26.5 10s12.5 15 14.5 25l13 85c1.33301 10 -0.666992 18.333 -6 25s-13 10 -23 10h-155zM449.999 570.002h-130l-25 -155h130
c10 0 19 3.33301 27 10s12.667 15 14 25l13 85c1.33301 10 -0.666992 18.333 -6 25s-13 10 -23 10z" />
    <glyph glyph-name="afii10020" unicode="&#x413;" horiz-adv-x="575" 
d="M50 0l110 700h485l-13 -85l-47 -45h-265l-90 -570h-180z" />
    <glyph glyph-name="afii10021" unicode="&#x414;" horiz-adv-x="760" 
d="M145 0l-52 -135h-134l41 265h55c12 6 23.333 13.333 34 22c24 18.667 39 41.334 45 68.001c18.667 67.333 40.5 153.166 65.5 257.499s43.5 178.5 55.5 222.5h470l-90 -570h90l-42 -265h-135l-8 135h-395zM400 570l-86 -350c-6 -25.333 -20.667 -46.333 -44 -63
c-12 -8 -23 -13.667 -33 -17l-2 -10h220l70 440h-125z" />
    <glyph glyph-name="afii10022" unicode="&#x415;" horiz-adv-x="615" 
d="M660 700l-13 -85l-47 -45h-280l-24 -150h230l-21 -130h-230l-25 -160h320l-20 -130h-500l110 700h500z" />
    <glyph glyph-name="afii10024" unicode="&#x416;" horiz-adv-x="1000" 
d="M560 0h-180l45 285h-80l-165 -285h-180l11 70l195 285l-92 275l11 70h180l60 -285h80l45 285h180l-45 -285h80l150 285h180l-11 -70l-178 -275l105 -285l-11 -70h-180l-75 285h-80z" />
    <glyph glyph-name="afii10025" unicode="&#x417;" horiz-adv-x="615" 
d="M395 570l-260.001 0.00195312l-33 45l13 85h355c46.667 0 82.834 -14.333 108.501 -43s35.167 -64.334 28.5 -107.001l-13 -80c-6 -37.333 -28 -66 -66 -86c-16 -8.66699 -34.667 -15 -56 -19l-1 -10c22 -4 40 -10.333 54 -19c35.333 -19.333 50 -48 44 -86l-16 -100
c-6.66699 -42.667 -27.167 -78.334 -61.5 -107.001s-74.833 -43 -121.5 -43h-370l20 130h315c10 0 18.833 3.33301 26.5 10s12.5 15 14.5 25l13 85c1.33301 10 -0.666992 18.333 -6 25s-13 10 -23 10h-185l20 130h175c10 0 19 3.33301 27 10s12.667 15 14 25l13 85
c1.33301 10 -0.666992 18.333 -6 25s-13 10 -23 10z" />
    <glyph glyph-name="afii10026" unicode="&#x418;" horiz-adv-x="710" 
d="M710 700l-110 -700h-180l36 230l63 210h-10l-284 -440h-175l110 700h180l-36 -230l-63 -210h10l284 440h175z" />
    <glyph glyph-name="afii10027" unicode="&#x419;" horiz-adv-x="710" 
d="M710 700l-110 -700h-180l36 230l63 210h-10l-284 -440h-175l110 700h180l-36 -230l-63 -210h10l284 440h175zM525 760h-160c-28 0 -48.833 8 -62.5 24s-18.167 38 -13.5 66l11 70h120l-7 -45c-2 -16.667 5 -25 21 -25h50c16 0 25.667 8.33301 29 25l7 45h120l-11 -70
c-4.66699 -28 -16.167 -50 -34.5 -66s-41.5 -24 -69.5 -24z" />
    <glyph glyph-name="afii10028" unicode="&#x41a;" horiz-adv-x="680" 
d="M230 0h-180l110 700h180l-45 -285h85l155 285h180l-11 -70l-183 -275l110 -285l-11 -70h-180l-80 285h-85z" />
    <glyph glyph-name="afii10029" unicode="&#x41b;" horiz-adv-x="715" 
d="M-1 120h45c10 0 19.5 4.16699 28.5 12.5s14.833 17.5 17.5 27.5l135 540h490l-110 -700h-180l90 570h-150l-100 -410c-14 -57.333 -40.167 -100 -78.5 -128s-92.833 -42 -163.5 -42h-45z" />
    <glyph glyph-name="afii10030" unicode="&#x41c;" horiz-adv-x="990" 
d="M583 85h-210l-52 400h-10l-111 -485h-180l11 70l184 630h225l64 -420h10l196 420h225l-14 -630l-11 -70h-180l41 485h-10z" />
    <glyph glyph-name="afii10031" unicode="&#x41d;" horiz-adv-x="720" 
d="M235 0h-180l110 700h180l-45 -285h190l45 285h180l-110 -700h-180l45 285h-190z" />
    <glyph glyph-name="afii10032" unicode="&#x41e;" 
d="M269 120h130c10 0 18.833 3.33301 26.5 10s12.167 15 13.5 25l62 390c1.33301 10 -0.833984 18.333 -6.50098 25s-13.5 10 -23.5 10h-130c-10 0 -18.833 -3.33301 -26.5 -10s-12.167 -15 -13.5 -25l-62 -390c-1.33301 -10 0.833984 -18.333 6.50098 -25
s13.5 -10 23.5 -10zM433 -10h-239.999c-47.333 0 -83.5 14.167 -108.5 42.5s-34.167 64.166 -27.5 107.499l66 420c6.66699 42.667 27.167 78.334 61.5 107.001s75.166 43 122.499 43h240c48.667 0 85.167 -14.667 109.5 -44s33.166 -64.666 26.499 -105.999l-66 -420
c-6.66699 -42.667 -27.167 -78.334 -61.5 -107.001s-75.166 -43 -122.499 -43z" />
    <glyph glyph-name="afii10033" unicode="&#x41f;" horiz-adv-x="710" 
d="M230 0h-180l110 700h550l-110 -700h-180l90 570h-190z" />
    <glyph glyph-name="afii10034" unicode="&#x420;" horiz-adv-x="665" 
d="M230 0l-180 0.000976562l110 700h380c48.667 0 85.167 -14.5 109.5 -43.5s33.5 -64.5 27.5 -106.5l-30 -185c-6.66699 -42.667 -27.167 -78.334 -61.5 -107.001s-74.833 -43 -121.5 -43h-200zM465 570.001h-145l-36 -225h145c10 0 19 3.33301 27 10s12.667 15 14 25
l24 155c1.33301 10 -0.666992 18.333 -6 25s-13 10 -23 10z" />
    <glyph glyph-name="afii10035" unicode="&#x421;" horiz-adv-x="605" 
d="M270 130l290.001 -0.00195312l-20 -130h-345c-46.667 0 -82.834 14.333 -108.501 43s-35.167 64.334 -28.5 107.001l64 400c6.66699 42.667 27 78.334 61 107.001s74.667 43 122 43h345l-13 -85l-47 -45h-250c-10 0 -19 -3.33301 -27 -10s-12.667 -15 -14 -25l-58 -370
c-2 -10 -0.166992 -18.333 5.5 -25s13.5 -10 23.5 -10z" />
    <glyph glyph-name="afii10036" unicode="&#x422;" horiz-adv-x="600" 
d="M75 570l20 130h570l-13 -85l-47 -45h-155l-90 -570h-180l90 570h-195z" />
    <glyph glyph-name="afii10037" unicode="&#x423;" horiz-adv-x="645" 
d="M100 700h180.001l75 -380h10l160 380h180l-11 -70l-271 -480c-30 -54 -64.5 -94.167 -103.5 -120.5s-89.5 -39.5 -151.5 -39.5h-80l21 130h80c19.333 0 35.666 10 48.999 30l7 10l-156 470z" />
    <glyph glyph-name="afii10038" unicode="&#x424;" horiz-adv-x="960" 
d="M354 -35l12.001 75h-170c-47.333 0 -83.5 14.167 -108.5 42.5s-34.167 64.166 -27.5 107.499l52 330c6.66699 42.667 27.167 78.334 61.5 107.001s75.166 43 122.499 43h170l11 75h180l-11 -75h170c46.667 0 82.667 -14.167 108 -42.5s34.666 -64.166 27.999 -107.499
l-52 -330c-6.66699 -42.667 -27.167 -78.334 -61.5 -107.001s-75.166 -43 -122.499 -43h-170l-12 -75h-180zM271.001 170h115l59 370h-115c-10 0 -18.833 -3.33301 -26.5 -10s-12.5 -15 -14.5 -25l-47 -300c-1.33301 -10 0.666992 -18.333 6 -25s13 -10 23 -10zM566.001 170
h115c10 0 19 3.33301 27 10s12.667 15 14 25l47 300c2 10 0.166992 18.333 -5.5 25s-13.5 10 -23.5 10h-115z" />
    <glyph glyph-name="afii10039" unicode="&#x425;" horiz-adv-x="650" 
d="M331 265l-156 -265h-180l11 70l215 285l-112 275l11 70h180l58 -265h10l142 265h180l-11 -70l-198 -275l125 -285l-11 -70h-180l-74 265h-10z" />
    <glyph glyph-name="afii10040" unicode="&#x426;" horiz-adv-x="735" 
d="M515 0h-465l110 700h180l-90 -570h180l90 570h180l-90 -570h90l-42 -265h-135z" />
    <glyph glyph-name="afii10041" unicode="&#x427;" horiz-adv-x="680" 
d="M90 385l50.001 314.999h180l-47 -300c-1.33301 -10 0.666992 -18.333 6 -25s13 -10 23 -10h145l53 335h180l-110 -700h-180l37 235h-200c-46.667 0 -82.834 14.333 -108.501 43s-35.167 64.334 -28.5 107.001z" />
    <glyph glyph-name="afii10042" unicode="&#x428;" horiz-adv-x="1050" 
d="M515 700h180l-90 -570h175l90 570h180l-110 -700h-890l110 700h180l-90 -570h175z" />
    <glyph glyph-name="afii10043" unicode="&#x429;" horiz-adv-x="1085" 
d="M515 700h180l-90 -570h175l90 570h180l-90 -570h90l-42 -265h-135l-8 135h-815l110 700h180l-90 -570h175z" />
    <glyph glyph-name="afii10044" unicode="&#x42a;" horiz-adv-x="725" 
d="M70 570l19.999 130.001h315l-38 -240h190c46.667 0 82.834 -14.333 108.501 -43s35.167 -64.334 28.5 -107.001l-26 -160c-6.66699 -42 -26.667 -77.5 -60 -106.5s-74.333 -43.5 -123 -43.5h-370l90 570h-135zM314.999 130.001h135c10 0 18.833 3.33301 26.5 10
s12.5 15 14.5 25l20 130c1.33301 10 -0.666992 18.333 -6 25s-13 10 -23 10h-135z" />
    <glyph glyph-name="afii10045" unicode="&#x42b;" horiz-adv-x="970" 
d="M160 700l179.999 0.000976562l-38 -240h190c46.667 0 82.834 -14.333 108.501 -43s35.167 -64.334 28.5 -107.001l-26 -160c-6.66699 -42 -26.667 -77.5 -60 -106.5s-74.333 -43.5 -123 -43.5h-370zM249.999 130.001h135c10 0 18.833 3.33301 26.5 10s12.5 15 14.5 25
l20 130c1.33301 10 -0.666992 18.333 -6 25s-13 10 -23 10h-135zM859.999 0.000976562h-180l110 700h180z" />
    <glyph glyph-name="afii10046" unicode="&#x42c;" horiz-adv-x="670" 
d="M160 700l179.999 0.000976562l-38 -240h200c46.667 0 82.834 -14.333 108.501 -43s35.167 -64.334 28.5 -107.001l-26 -160c-6.66699 -42 -26.667 -77.5 -60 -106.5s-74.333 -43.5 -123 -43.5h-380zM249.999 130.001h145c10 0 18.833 3.33301 26.5 10s12.5 15 14.5 25
l20 130c1.33301 10 -0.666992 18.333 -6 25s-13 10 -23 10h-145z" />
    <glyph glyph-name="afii10047" unicode="&#x42d;" horiz-adv-x="605" 
d="M25 130l289.999 0.00195312c10 0 18.833 3.33301 26.5 10s12.5 15 14.5 25l19 120h-215l20 130h215l19 120c1.33301 10 -0.666992 18.333 -6 25s-13 10 -23 10h-250l-33 45l13 85h345c46.667 0 82.834 -14.333 108.501 -43s35.167 -64.334 28.5 -107.001l-64 -400
c-6.66699 -42.667 -27.167 -78.334 -61.5 -107.001s-74.833 -43 -121.5 -43h-345z" />
    <glyph glyph-name="afii10048" unicode="&#x42e;" horiz-adv-x="980" 
d="M230 0h-179.999l110 700h180l-45 -285h105l23 145c6.66699 42.667 27.167 78.334 61.5 107.001s75.166 43 122.499 43h230c48.667 0 85.167 -14.667 109.5 -44s33.166 -64.666 26.499 -105.999l-66 -420c-6.66699 -42.667 -27.167 -78.334 -61.5 -107.001
s-75.166 -43 -122.499 -43h-230c-47.333 0 -83.5 14.167 -108.5 42.5s-34.167 64.166 -27.5 107.499l23 145h-105zM569.001 120h120c10 0 18.833 3.33301 26.5 10s12.167 15 13.5 25l62 390c1.33301 10 -0.833984 18.333 -6.50098 25s-13.5 10 -23.5 10h-120
c-10 0 -18.833 -3.33301 -26.5 -10s-12.167 -15 -13.5 -25l-62 -390c-1.33301 -10 0.833984 -18.333 6.50098 -25s13.5 -10 23.5 -10z" />
    <glyph glyph-name="afii10049" unicode="&#x42f;" horiz-adv-x="685" 
d="M575 0h-180l39 250h-80l-159 -250h-180l11 70l166 200c-20 6 -37.667 14.667 -53 26c-34.667 24.667 -48.334 59.334 -41.001 104.001l24 150c6 41.333 25.833 76.666 59.5 105.999s74.834 44 123.501 44h380zM485 570h-145.001c-10 0 -19 -3.33301 -27 -10
s-12.667 -15 -14 -25l-19 -120c-1.33301 -10 0.833984 -18.333 6.50098 -25s13.5 -10 23.5 -10h145z" />
    <glyph glyph-name="afii10065" unicode="&#x430;" horiz-adv-x="625" 
d="M288 -10h-116c-44.667 0 -78.834 13.167 -102.501 39.5s-32.167 59.833 -25.5 100.5l41 260c6.66699 40.667 25.834 74.167 57.501 100.5s69.834 39.5 114.501 39.5h356l-83 -530h-110l-15 65h-5c-8 -16 -16.667 -28.667 -26 -38
c-24.667 -24.667 -53.334 -37 -86.001 -37zM241 110l91.001 -0.00195312c15.333 0 28 5.66699 38 17c5.33301 4.66699 9.33301 10.667 12 18l42 265h-136c-7.33301 0 -14.5 -3.16699 -21.5 -9.5s-11.167 -13.166 -12.5 -20.499l-38 -240
c-1.33301 -7.33301 0.666992 -14.166 6 -20.499s11.666 -9.5 18.999 -9.5z" />
    <glyph glyph-name="afii10066" unicode="&#x431;" horiz-adv-x="630" 
d="M401 355l-134.998 0.000976562l-34 -215c-1.33301 -7.33301 0.666992 -14.166 6 -20.499s11.666 -9.5 18.999 -9.5h105c7.33301 0 14.666 3.16699 21.999 9.5s11.666 13.166 12.999 20.499l29 185c1.33301 7.33301 -0.666992 14.166 -6 20.499s-11.666 9.5 -18.999 9.5z
M598.002 335.001l-32.9971 -204.998c-6.66699 -40.667 -25.834 -74.167 -57.501 -100.5s-69.834 -39.5 -114.501 -39.5h-205c-44.667 0 -78.834 13.167 -102.501 39.5s-32.167 59.833 -25.5 100.5l65 410c7.33301 46 28.166 83.167 62.499 111.5s80.5 46.166 138.5 53.499
l296 35l-1 -130l-285 -35c-24 -2.66699 -37.667 -14.334 -41 -35.001l-10 -65h185c45.333 0 79.333 -13.167 102 -39.5s31.334 -59.833 26.001 -100.5z" />
    <glyph glyph-name="afii10067" unicode="&#x432;" horiz-adv-x="610" 
d="M35 0l83 529.999h325c44.667 0 78.834 -13.167 102.501 -39.5s32.167 -59.833 25.5 -100.5l-4 -25c-5.33301 -31.333 -23.333 -55.666 -54 -72.999c-14 -7.33301 -29 -13 -45 -17l-2 -10c18.667 -4 35.334 -9.66699 50.001 -17c33.333 -18 47 -42.333 41 -73l-5 -35
c-6.66699 -40.667 -25.834 -74.167 -57.501 -100.5s-69.834 -39.5 -114.501 -39.5h-345zM224 119.999l124.999 0.00195312c7.33301 0 14.5 3.16699 21.5 9.5s11.167 13.166 12.5 20.499l6 35c1.33301 7.33301 -0.666992 14.166 -6 20.499s-11.666 9.5 -18.999 9.5h-125z
M373.999 410.001l-104.997 0.00195312l-13 -85h105c7.33301 0 14.666 3.16699 21.999 9.5s11.666 13.166 12.999 20.499l4 25c1.33301 7.33301 -0.833984 14.166 -6.50098 20.499s-12.167 9.5 -19.5 9.5z" />
    <glyph glyph-name="afii10068" unicode="&#x433;" horiz-adv-x="550" 
d="M205 160l-3 -15c-2 -16.667 5.33301 -25 22 -25h260l-19 -120h-310c-44.667 -0 -78.167 12.333 -100.5 37s-30.166 57.334 -23.499 98.001l6 40c5.33301 34 20.166 62.667 44.499 86s51.5 38 81.5 44l170 30c20.667 4 32 14 34 30l3 20c1.33301 7.33301 0 13.333 -4 18
s-9.66699 7 -17 7h-205l-32 45l11 75h295c44.667 0 78.167 -12.333 100.5 -37s30.166 -57.334 23.499 -98.001l-7 -45c-5.33301 -34 -20.166 -62.667 -44.499 -86s-51.5 -38 -81.5 -44l-169 -30c-21.333 -4 -33 -14 -35 -30z" />
    <glyph glyph-name="afii10069" unicode="&#x434;" horiz-adv-x="630" 
d="M416 355l-134.999 -0.000976562c-7.33301 0 -14.666 -3.16699 -21.999 -9.5s-11.666 -13.166 -12.999 -20.499l-29 -185c-1.33301 -7.33301 0.666992 -14.166 6 -20.499s11.666 -9.5 18.999 -9.5h105c7.33301 0 14.666 3.16699 21.999 9.5s11.666 13.166 12.999 20.499z
M45.001 129.999l33.0039 204.998c5.33301 40 24.166 73.333 56.499 100s70.833 40 115.5 40h185l10 65c2.66699 20.667 -7 32.334 -29 35.001l-255 35l41 130l264 -35c56 -7.33301 96.667 -25.166 122 -53.499s34.333 -65.5 27 -111.5l-65 -410
c-6.66699 -40.667 -25.834 -74.167 -57.501 -100.5s-69.834 -39.5 -114.501 -39.5h-205c-44.667 0 -78.834 13.167 -102.501 39.5s-32.167 59.833 -25.5 100.5z" />
    <glyph glyph-name="afii10070" unicode="&#x435;" horiz-adv-x="595" 
d="M395 195l-170.003 -0.000976562l-7 -45c-1.33301 -7.33301 0.833984 -14.166 6.50098 -20.499s12.167 -9.5 19.5 -9.5h265l-19 -120h-315c-44.667 0 -78.834 13.167 -102.501 39.5s-32.167 59.833 -25.5 100.5l41 260c6.66699 40.667 25.834 74.167 57.501 100.5
s69.834 39.5 114.501 39.5h190c44.667 0 78.834 -13.167 102.501 -39.5s32.167 -59.833 25.5 -100.5l-10 -65c-6.66699 -40.667 -26 -74.167 -58 -100.5s-70.333 -39.5 -115 -39.5zM397.997 339.999l7.99707 50.001c1.33301 7.33301 -0.666992 14.166 -6 20.499
s-11.666 9.5 -18.999 9.5h-90c-7.33301 0 -14.666 -3.16699 -21.999 -9.5s-11.666 -13.166 -12.999 -20.499l-12 -80h120c7.33301 0 14.5 3.16699 21.5 9.5s11.167 13.166 12.5 20.499z" />
    <glyph glyph-name="afii10072" unicode="&#x436;" horiz-adv-x="880" 
d="M375 320l33 210h170l-33 -210h64l109 210h170l-10 -65l-142 -200l94 -200l-10 -65h-170l-60 200h-64l-31 -200h-170l31 200h-64l-122 -200h-170l10 65l156 200l-78 200l10 65h170l43 -210h64z" />
    <glyph glyph-name="afii10073" unicode="&#x437;" horiz-adv-x="550" 
d="M324 410l-214.998 0.00390625l-32 45l11 75h305c44.667 0 78.834 -13.167 102.501 -39.5s32.167 -59.833 25.5 -100.5l-4 -25c-6 -32.667 -25.667 -57 -59 -73c-16 -7.33301 -32.667 -13 -50 -17l-2 -10c18.667 -4 35.334 -9.66699 50.001 -17
c33.333 -18 47 -42.333 41 -73l-5 -35c-6.66699 -40.667 -25.834 -74.167 -57.501 -100.5s-69.834 -39.5 -114.501 -39.5h-320l19 120h270c7.33301 0 14.5 3.16699 21.5 9.5s11.167 13.166 12.5 20.499l4 25c1.33301 7.33301 -0.666992 14.166 -6 20.499
s-11.666 9.5 -18.999 9.5h-150l19 120h140c7.33301 0 14.666 3.16699 21.999 9.5s11.666 13.166 12.999 20.499l4 25c1.33301 7.33301 -0.833984 14.166 -6.50098 20.499s-12.167 9.5 -19.5 9.5z" />
    <glyph glyph-name="afii10074" unicode="&#x438;" horiz-adv-x="635" 
d="M298 -10l-114.997 -0.000976562c-44.667 0 -78.834 13.167 -102.501 39.5s-32.167 59.833 -25.5 100.5l63 400h170l-61 -390c-1.33301 -7.33301 0.666992 -14.166 6 -20.499s11.666 -9.5 18.999 -9.5h90c15.333 0 28 5.66699 38 17c5.33301 4.66699 9.33301 10.667 12 18
l61 385h170l-83 -530h-110l-15 65h-5c-8 -16 -16.667 -28.667 -26 -38c-24.667 -24.667 -53.334 -37 -86.001 -37z" />
    <glyph glyph-name="afii10075" unicode="&#x439;" horiz-adv-x="635" 
d="M464 595h-160c-28 0 -48.833 8 -62.5 24s-18.167 38 -13.5 66l11 70h120l-7 -45c-2 -16.667 5 -25 21 -25h50c16 0 25.667 8.33301 29 25l7 45h120l-11 -70c-4.66699 -28 -16.167 -50 -34.5 -66s-41.5 -24 -69.5 -24zM298 -10l-114.997 -0.000976562
c-44.667 0 -78.834 13.167 -102.501 39.5s-32.167 59.833 -25.5 100.5l63 400h170l-61 -390c-1.33301 -7.33301 0.666992 -14.166 6 -20.499s11.666 -9.5 18.999 -9.5h90c15.333 0 28 5.66699 38 17c5.33301 4.66699 9.33301 10.667 12 18l61 385h170l-83 -530h-110l-15 65
h-5c-8 -16 -16.667 -28.667 -26 -38c-24.667 -24.667 -53.334 -37 -86.001 -37z" />
    <glyph glyph-name="afii10076" unicode="&#x43a;" horiz-adv-x="600" 
d="M288 530l-33 -210h69l114 210h170l-10 -65l-147 -200l99 -200l-10 -65h-170l-65 200h-69l-31 -200h-170l83 530h170z" />
    <glyph glyph-name="afii10077" unicode="&#x43b;" horiz-adv-x="630" 
d="M178 530h439.999l-83 -530h-170l64 410h-115l-75 -290c-10 -36 -30.5 -66.667 -61.5 -92s-65.833 -38 -104.5 -38h-95l19 120h35c10 0 19.333 3.33301 28 10s14.334 15 17.001 25z" />
    <glyph glyph-name="afii10078" unicode="&#x43c;" horiz-adv-x="830" 
d="M480 65h-170l-43 265h-10l-72 -330h-170l10 65l143 465h195l55 -290h10l145 290h195l-3 -465l-10 -65h-170l32 330h-10z" />
    <glyph glyph-name="afii10079" unicode="&#x43d;" horiz-adv-x="635" 
d="M288 530l-31 -200h165l31 200h170l-83 -530h-170l33 210h-165l-33 -210h-170l83 530h170z" />
    <glyph glyph-name="afii10080" unicode="&#x43e;" horiz-adv-x="625" 
d="M603 400l-43 -270c-6.66699 -40.667 -25.834 -74.167 -57.501 -100.5s-69.834 -39.5 -114.501 -39.5h-215c-44.667 0 -78.834 13.167 -102.501 39.5s-32.167 59.833 -25.5 100.5l43 270c6.66699 40.667 25.834 74.167 57.501 100.5s69.834 39.5 114.501 39.5h215
c44.667 0 78.834 -13.167 102.501 -39.5s32.167 -59.833 25.5 -100.5zM242 110h115c7.33301 0 14.666 3.16699 21.999 9.5s11.666 13.166 12.999 20.499l39 250c1.33301 7.33301 -0.666992 14.166 -6 20.499s-11.666 9.5 -18.999 9.5h-115
c-7.33301 0 -14.666 -3.16699 -21.999 -9.5s-11.666 -13.166 -12.999 -20.499l-39 -250c-1.33301 -7.33301 0.666992 -14.166 6 -20.499s11.666 -9.5 18.999 -9.5z" />
    <glyph glyph-name="afii10081" unicode="&#x43f;" horiz-adv-x="635" 
d="M360 540l114.997 0.00195312c44.667 0 78.834 -13.167 102.501 -39.5s32.167 -59.833 25.5 -100.5l-63 -400h-170l61 390c1.33301 7.33301 -0.666992 14.166 -6 20.499s-11.666 9.5 -18.999 9.5h-90c-15.333 0 -28.333 -6 -39 -18
c-4.66699 -4.66699 -8.66699 -10.334 -12 -17.001l-60 -385h-170l83 530h110l15 -65h5c8.66699 16 17.334 28.333 26.001 37c25.333 25.333 54 38 86 38z" />
    <glyph glyph-name="afii10082" unicode="&#x440;" horiz-adv-x="615" 
d="M380 0h-175l-27 -170h-170l110 700h110l15 -65h5c8.66699 16 17.334 28.333 26.001 37c25.333 25.333 54 38 86 38h105c44.667 0 78.834 -13.167 102.501 -39.5s32.167 -59.833 25.5 -100.5l-41 -260c-6.66699 -40.667 -25.834 -74.167 -57.501 -100.5
s-69.834 -39.5 -114.501 -39.5zM383 150l37.999 240.003c1.33301 7.33301 -0.666992 14.166 -6 20.499s-11.666 9.5 -18.999 9.5h-80c-15.333 0 -28.333 -6 -39 -18c-4.66699 -4.66699 -8.66699 -10.334 -12 -17.001l-41 -265h125c7.33301 0 14.5 3.16699 21.5 9.5
s11.167 13.166 12.5 20.499z" />
    <glyph glyph-name="afii10083" unicode="&#x441;" horiz-adv-x="540" 
d="M244 120l249.998 -0.00195312l-19 -120h-300c-44.667 0 -78.834 13.167 -102.501 39.5s-32.167 59.833 -25.5 100.5l39 250c6.66699 40.667 25.834 74.167 57.501 100.5s69.834 39.5 114.501 39.5h300l-11 -75l-48 -45h-210c-7.33301 0 -14.5 -3.16699 -21.5 -9.5
s-11.167 -13.166 -12.5 -20.499l-37 -230c-1.33301 -7.33301 0.833984 -14.166 6.50098 -20.499s12.167 -9.5 19.5 -9.5z" />
    <glyph glyph-name="afii10084" unicode="&#x442;" horiz-adv-x="930" 
d="M581 390l-61.0068 -389.999h-170l61 390c1.33301 7.33301 -0.666992 14.166 -6 20.499s-11.666 9.5 -18.999 9.5h-70c-15.333 0 -28.333 -6 -39 -18c-4.66699 -4.66699 -8.66699 -10.334 -12 -17.001l-60 -385h-170l83 530h110l15 -65h5
c8.66699 16 17.334 28.333 26.001 37c25.333 25.333 54 38 86 38h95c33.333 0 58 -12.667 74 -38c7.33301 -11.333 12 -23.666 14 -36.999h5c8.66699 16 17.334 28.333 26.001 37c25.333 25.333 54 38 86 38h110c44.667 0 78.834 -13.167 102.501 -39.5
s32.167 -59.833 25.5 -100.5l-63 -400h-170l61 390c1.33301 7.33301 -0.666992 14.166 -6 20.499s-11.666 9.5 -18.999 9.5h-85c-7.33301 0 -14.666 -3.16699 -21.999 -9.5s-11.666 -13.166 -12.999 -20.499z" />
    <glyph glyph-name="afii10085" unicode="&#x443;" horiz-adv-x="580" 
d="M603 465l-266 -515.001c-18 -33.333 -43.167 -61.666 -75.5 -84.999s-68.5 -35 -108.5 -35h-115l19 120h80c25.333 0 42.333 13.333 51 40l2 10l-127 465l10 65h170l47 -370h10l143 370h170z" />
    <glyph glyph-name="afii10086" unicode="&#x444;" horiz-adv-x="820" 
d="M295 0h-120c-44.667 0 -78.834 13.167 -102.501 39.5s-32.167 59.833 -25.5 100.5l39 250c6.66699 40.667 25.834 74.167 57.501 100.5s69.834 39.5 114.501 39.5h120l27 170h170l-27 -170h120c44.667 0 78.834 -13.167 102.501 -39.5s32.167 -59.833 25.5 -100.5
l-39 -250c-6.66699 -40.667 -25.834 -74.167 -57.501 -100.5s-69.834 -39.5 -114.501 -39.5h-120l-27 -170h-170zM255 380l-37.001 -230.002c-1.33301 -7.33301 0.833984 -14.166 6.50098 -20.499s12.167 -9.5 19.5 -9.5h70l45 290h-70
c-7.33301 0 -14.5 -3.16699 -21.5 -9.5s-11.167 -13.166 -12.5 -20.499zM587.999 149.998l37.001 230.002c1.33301 7.33301 -0.833984 14.166 -6.50098 20.499s-12.167 9.5 -19.5 9.5h-70l-45 -290h70c7.33301 0 14.5 3.16699 21.5 9.5s11.167 13.166 12.5 20.499z" />
    <glyph glyph-name="afii10087" unicode="&#x445;" horiz-adv-x="570" 
d="M305 350h10l103 180h170l-10 -65l-162 -200l109 -200l-10 -65h-170l-56 185h-10l-114 -185h-170l10 65l171 200l-98 200l10 65h170z" />
    <glyph glyph-name="afii10088" unicode="&#x446;" horiz-adv-x="665" 
d="M613 530l-58.9951 -375.002c-4 -23.333 6 -35 30 -35h50l-39 -245h-130l-5 125c-12.667 2.66699 -24.334 10.334 -35.001 23.001s-17.334 26.667 -20.001 42h-5c-8 -16 -16.667 -28.667 -26 -38c-24.667 -24.667 -53.334 -37 -86.001 -37h-105
c-44.667 0 -78.834 13.167 -102.501 39.5s-32.167 59.833 -25.5 100.5l63 400h170l-61 -390c-1.33301 -7.33301 0.666992 -14.166 6 -20.499s11.666 -9.5 18.999 -9.5h80c15.333 0 28 5.66699 38 17c5.33301 4.66699 9.33301 10.667 12 18l61 385h170z" />
    <glyph glyph-name="afii10089" unicode="&#x447;" horiz-adv-x="605" 
d="M63 305l35 224.999h170l-34 -215c-1.33301 -7.33301 0.833984 -14.166 6.50098 -20.499s12.167 -9.5 19.5 -9.5h125l38 245h170l-83 -530h-170l26 165h-175c-44.667 0 -78.834 13.167 -102.501 39.5s-32.167 59.833 -25.5 100.5z" />
    <glyph glyph-name="afii10090" unicode="&#x448;" horiz-adv-x="910" 
d="M362 140l61.0068 389.999h170l-61 -390c-1.33301 -7.33301 0.666992 -14.166 6 -20.499s11.666 -9.5 18.999 -9.5h60c15.333 0 28 5.66699 38 17c4.66699 4.66699 8.66699 10.667 12 18l61 385h170l-83 -530h-110l-15 65h-5c-8 -16 -16.667 -28.667 -26 -38
c-24.667 -24.667 -53.334 -37 -86.001 -37h-85c-34 0 -58.667 12.333 -74 37c-7.33301 11.333 -12 24 -14 38h-5c-8 -16 -16.667 -28.667 -26 -38c-24.667 -24.667 -53.334 -37 -86.001 -37h-100c-44.667 0 -78.834 13.167 -102.501 39.5s-32.167 59.833 -25.5 100.5l63 400
h170l-61 -390c-1.33301 -7.33301 0.666992 -14.166 6 -20.499s11.666 -9.5 18.999 -9.5h75c7.33301 0 14.666 3.16699 21.999 9.5s11.666 13.166 12.999 20.499z" />
    <glyph glyph-name="afii10091" unicode="&#x449;" horiz-adv-x="950" 
d="M362 140l61.0088 389.998h170l-61 -390c-1.33301 -7.33301 0.666992 -14.166 6 -20.499s11.666 -9.5 18.999 -9.5h60c15.333 0 28 5.66699 38 17c4.66699 4.66699 8.66699 10.667 12 18l61 385h170l-59 -375c-4 -23.333 6 -35 30 -35h50l-39 -245h-130l-5 125
c-12.667 2.66699 -24.334 10.334 -35.001 23.001s-17.334 26.667 -20.001 42h-5c-8 -16 -16.667 -28.667 -26 -38c-24.667 -24.667 -53.334 -37 -86.001 -37h-85c-34 0 -58.667 12.333 -74 37c-7.33301 11.333 -12 24 -14 38h-5c-8 -16 -16.667 -28.667 -26 -38
c-24.667 -24.667 -53.334 -37 -86.001 -37h-100c-44.667 0 -78.834 13.167 -102.501 39.5s-32.167 59.833 -25.5 100.5l63 400h170l-61 -390c-1.33301 -7.33301 0.666992 -14.166 6 -20.499s11.666 -9.5 18.999 -9.5h75c7.33301 0 14.666 3.16699 21.999 9.5
s11.666 13.166 12.999 20.499z" />
    <glyph glyph-name="afii10092" unicode="&#x44a;" horiz-adv-x="645" 
d="M353 530l-25.9971 -170h155c44.667 0 78.667 -13.167 102 -39.5s31.666 -59.833 24.999 -100.5l-12 -80c-6.66699 -40.667 -25.834 -74.167 -57.501 -100.5s-69.834 -39.5 -114.501 -39.5h-325l64 410h-120l19 120h290zM413.003 240l-105.001 0.00195312l-19 -120h105
c7.33301 0 14.5 3.16699 21.5 9.5s11.167 13.166 12.5 20.499l10 60c1.33301 7.33301 -0.666992 14.166 -6 20.499s-11.666 9.5 -18.999 9.5z" />
    <glyph glyph-name="afii10093" unicode="&#x44b;" horiz-adv-x="855" 
d="M760 0h-170l84 535h170zM288 530l-25.9971 -170h155c44.667 0 78.667 -13.167 102 -39.5s31.666 -59.833 24.999 -100.5l-12 -80c-6.66699 -40.667 -25.834 -74.167 -57.501 -100.5s-69.834 -39.5 -114.501 -39.5h-325l83 530h170zM348.003 240l-105.001 0.00195312
l-19 -120h105c7.33301 0 14.5 3.16699 21.5 9.5s11.167 13.166 12.5 20.499l10 60c1.33301 7.33301 -0.666992 14.166 -6 20.499s-11.666 9.5 -18.999 9.5z" />
    <glyph glyph-name="afii10094" unicode="&#x44c;" horiz-adv-x="590" 
d="M288 530l-25.9971 -170h165c44.667 0 78.667 -13.167 102 -39.5s31.666 -59.833 24.999 -100.5l-12 -80c-6.66699 -40.667 -25.834 -74.167 -57.501 -100.5s-69.834 -39.5 -114.501 -39.5h-335l83 530h170zM358.003 240l-115.001 0.00195312l-19 -120h115
c7.33301 0 14.5 3.16699 21.5 9.5s11.167 13.166 12.5 20.499l10 60c1.33301 7.33301 -0.666992 14.166 -6 20.499s-11.666 9.5 -18.999 9.5z" />
    <glyph glyph-name="afii10095" unicode="&#x44d;" horiz-adv-x="540" 
d="M24 120l250.002 0.00195312c7.33301 0 14.5 3.16699 21.5 9.5s11.167 13.166 12.5 20.499l9 55h-175l19 120h175l9 55c1.33301 7.33301 -0.833984 14.166 -6.50098 20.499s-12.167 9.5 -19.5 9.5h-210l-32 45l11 75h300c44.667 0 78.834 -13.167 102.501 -39.5
s32.167 -59.833 25.5 -100.5l-39 -250c-6.66699 -40.667 -25.834 -74.167 -57.501 -100.5s-69.834 -39.5 -114.501 -39.5h-300z" />
    <glyph glyph-name="afii10096" unicode="&#x44e;" horiz-adv-x="880" 
d="M288 530l-31 -200h95l11 70c6.66699 40.667 25.834 74.167 57.501 100.5s69.834 39.5 114.501 39.5h195c44.667 0 78.834 -13.167 102.501 -39.5s32.167 -59.833 25.5 -100.5l-43 -270c-6.66699 -40.667 -25.834 -74.167 -57.501 -100.5s-69.834 -39.5 -114.501 -39.5
h-195c-44.667 0 -78.834 13.167 -102.501 39.5s-32.167 59.833 -25.5 100.5l13 80h-95l-33 -210h-170l83 530h170zM517 110h95c7.33301 0 14.666 3.16699 21.999 9.5s11.666 13.166 12.999 20.499l39 250c1.33301 7.33301 -0.666992 14.166 -6 20.499
s-11.666 9.5 -18.999 9.5h-95c-7.33301 0 -14.666 -3.16699 -21.999 -9.5s-11.666 -13.166 -12.999 -20.499l-39 -250c-1.33301 -7.33301 0.666992 -14.166 6 -20.499s11.666 -9.5 18.999 -9.5z" />
    <glyph glyph-name="afii10097" unicode="&#x44f;" horiz-adv-x="610" 
d="M345 0l27.998 180h-70l-118 -180h-170l10 65l136 135c-2.66699 0.666992 -6.16699 1.66699 -10.5 3s-11.833 4.83301 -22.5 10.5s-19.667 12.5 -27 20.5s-13.333 19.667 -18 35s-5.66699 32.333 -3 51l11 70c6.66699 40.667 25.834 74.167 57.501 100.5
s69.834 39.5 114.501 39.5h335l-83 -530h-170zM276.998 300l115.001 -0.00195312l17 110h-115c-7.33301 0 -14.5 -3.16699 -21.5 -9.5s-11.167 -13.166 -12.5 -20.499l-8 -50c-1.33301 -7.33301 0.666992 -14.166 6 -20.499s11.666 -9.5 18.999 -9.5z" />
    <glyph glyph-name="afii10071" unicode="&#x451;" horiz-adv-x="595" 
d="M330 600h-160l22 140h160zM560 600h-160l22 140h160zM395 195l-170.003 -0.000976562l-7 -45c-1.33301 -7.33301 0.833984 -14.166 6.50098 -20.499s12.167 -9.5 19.5 -9.5h265l-19 -120h-315c-44.667 0 -78.834 13.167 -102.501 39.5s-32.167 59.833 -25.5 100.5l41 260
c6.66699 40.667 25.834 74.167 57.501 100.5s69.834 39.5 114.501 39.5h190c44.667 0 78.834 -13.167 102.501 -39.5s32.167 -59.833 25.5 -100.5l-10 -65c-6.66699 -40.667 -26 -74.167 -58 -100.5s-70.333 -39.5 -115 -39.5zM397.997 339.999l7.99707 50.001
c1.33301 7.33301 -0.666992 14.166 -6 20.499s-11.666 9.5 -18.999 9.5h-90c-7.33301 0 -14.666 -3.16699 -21.999 -9.5s-11.666 -13.166 -12.999 -20.499l-12 -80h120c7.33301 0 14.5 3.16699 21.5 9.5s11.167 13.166 12.5 20.499z" />
    <glyph glyph-name="afii10099" unicode="&#x452;" horiz-adv-x="645" 
d="M347 110l30.0039 0.00195312c7.33301 0 14.666 3.16699 21.999 9.5s11.666 13.166 12.999 20.499l22 140c1.33301 7.33301 -0.666992 14.166 -6 20.499s-11.666 9.5 -18.999 9.5h-125l-49 -310h-170l77 490h-70l19 120h80l64 90h110l-14 -90h145l-19 -120h-145l-9 -60
h175c44.667 0 78.667 -13.167 102 -39.5s31.666 -59.833 24.999 -100.5l-25 -160c-6.66699 -40.667 -25.834 -74.167 -57.501 -100.5s-69.834 -39.5 -114.501 -39.5h-80z" />
    <glyph glyph-name="afii10100" unicode="&#x453;" horiz-adv-x="550" 
d="M385 760h175l-145 -160h-130zM205 160l-3 -15c-2 -16.667 5.33301 -25 22 -25h260l-19 -120h-310c-44.667 -0 -78.167 12.333 -100.5 37s-30.166 57.334 -23.499 98.001l6 40c5.33301 34 20.166 62.667 44.499 86s51.5 38 81.5 44l170 30c20.667 4 32 14 34 30l3 20
c1.33301 7.33301 0 13.333 -4 18s-9.66699 7 -17 7h-205l-32 45l11 75h295c44.667 0 78.167 -12.333 100.5 -37s30.166 -57.334 23.499 -98.001l-7 -45c-5.33301 -34 -20.166 -62.667 -44.499 -86s-51.5 -38 -81.5 -44l-169 -30c-21.333 -4 -33 -14 -35 -30z" />
    <glyph glyph-name="afii10101" unicode="&#x454;" horiz-adv-x="540" 
d="M244 120l249.998 -0.00195312l-19 -120h-300c-44.667 0 -78.834 13.167 -102.501 39.5s-32.167 59.833 -25.5 100.5l39 250c6.66699 40.667 25.834 74.167 57.501 100.5s69.834 39.5 114.501 39.5h300l-11 -75l-48 -45h-210c-7.33301 0 -14.5 -3.16699 -21.5 -9.5
s-11.167 -13.166 -12.5 -20.499l-9 -55h175l-19 -120h-175l-9 -55c-1.33301 -7.33301 0.833984 -14.166 6.50098 -20.499s12.167 -9.5 19.5 -9.5z" />
    <glyph glyph-name="afii10102" unicode="&#x455;" horiz-adv-x="545" 
d="M332 145l4.00098 20c2 16 -6.66699 26 -26 30l-165 30c-28 6 -50.333 20.667 -67 44s-22.334 52 -17.001 86l6 40c6.66699 40.667 24.834 73.334 54.501 98.001s66.834 37 111.501 37h300l-11 -75l-48 -45h-210c-16.667 0 -26.334 -8.33301 -29.001 -25l-2 -15
c-2 -16 6.33301 -26 25 -30l166 -30c28 -6 50.333 -20.667 67 -44s22.334 -52 17.001 -86l-7 -45c-6.66699 -40.667 -24.834 -73.334 -54.501 -98.001s-66.834 -37 -111.501 -37h-330l19 120h280c16.667 0 26 8.33301 28 25z" />
    <glyph glyph-name="afii10103" unicode="&#x456;" horiz-adv-x="300" 
d="M288 530l-83 -530h-170l83 530h170zM296 580h-170l23 140h170z" />
    <glyph glyph-name="afii10104" unicode="&#x457;" horiz-adv-x="370" 
d="M323 530l-83 -530h-170l83 530h170zM211 580h-160l23 140h160zM441 580h-160l23 140h160z" />
    <glyph glyph-name="afii10105" unicode="&#x458;" horiz-adv-x="320" 
d="M-92 -50l109.002 0.000976562c7.33301 0 14.5 3.16699 21.5 9.5s11.167 13.166 12.5 20.499l87 550h170l-88 -560c-6.66699 -40.667 -25.834 -74.167 -57.501 -100.5s-69.834 -39.5 -114.501 -39.5h-159zM316.002 580.001h-170l23 140h170z" />
    <glyph glyph-name="afii10106" unicode="&#x459;" horiz-adv-x="890" 
d="M178 530h420l-28 -180h155c45.333 0 79.333 -13.167 102 -39.5s31.334 -59.833 26.001 -100.5l-11 -70c-6.66699 -40.667 -25.834 -74.167 -57.501 -100.5s-69.834 -39.5 -114.501 -39.5h-325l64 410h-95l-75 -290c-10 -36 -30.5 -66.667 -61.5 -92
s-65.833 -38 -104.5 -38h-95l19 120h35c10 0 19.333 3.33301 28 10s14.334 15 17.001 25zM656 230l-105.001 0.00195312l-17 -110h105c7.33301 0 14.5 3.16699 21.5 9.5s11.167 13.166 12.5 20.499l8 50c1.33301 7.33301 -0.666992 14.166 -6 20.499
s-11.666 9.5 -18.999 9.5z" />
    <glyph glyph-name="afii10107" unicode="&#x45a;" horiz-adv-x="895" 
d="M288 530l-29.999 -190h145l30 190h170l-30 -190h155c44.667 0 78.834 -13.167 102.501 -39.5s32.167 -59.833 25.5 -100.5l-9 -60c-6.66699 -40.667 -25.834 -74.167 -57.501 -100.5s-69.834 -39.5 -114.501 -39.5h-325l34 220h-145l-34 -220h-170l83 530h170z
M659.001 220l-104.999 0.00195312l-15 -100h105c7.33301 0 14.5 3.16699 21.5 9.5s11.167 13.166 12.5 20.499l7 40c1.33301 7.33301 -0.833984 14.166 -6.50098 20.499s-12.167 9.5 -19.5 9.5z" />
    <glyph glyph-name="afii10108" unicode="&#x45b;" horiz-adv-x="650" 
d="M303 430l175 0.000976562c44.667 0 78.667 -13.167 102 -39.5s31.666 -59.833 24.999 -100.5l-45 -290h-170l44 280c1.33301 7.33301 -0.666992 14.166 -6 20.499s-11.666 9.5 -18.999 9.5h-125l-49 -310h-170l77 490h-70l19 120h80l64 90h110l-14 -90h145l-19 -120h-145
z" />
    <glyph glyph-name="afii10109" unicode="&#x45c;" horiz-adv-x="600" 
d="M390 760h175l-145 -160h-130zM288 530l-33 -210h69l114 210h170l-10 -65l-147 -200l99 -200l-10 -65h-170l-65 200h-69l-31 -200h-170l83 530h170z" />
    <glyph glyph-name="afii10110" unicode="&#x45e;" horiz-adv-x="580" 
d="M433 590h-160c-28 0 -48.833 8 -62.5 24s-18.167 38 -13.5 66l11 70h120l-7 -45c-2 -16.667 5 -25 21 -25h50c16 0 25.667 8.33301 29 25l7 45h120l-11 -70c-4.66699 -28 -16.167 -50 -34.5 -66s-41.5 -24 -69.5 -24zM603 465l-266 -515.001
c-18 -33.333 -43.167 -61.666 -75.5 -84.999s-68.5 -35 -108.5 -35h-115l19 120h80c25.333 0 42.333 13.333 51 40l2 10l-127 465l10 65h170l47 -370h10l143 370h170z" />
    <glyph glyph-name="afii10193" unicode="&#x45f;" horiz-adv-x="635" 
d="M540 0h-165l-45 -125h-125l-5 125h-165l83 530h170l-64 -410h165l64 410h170z" />
    <glyph glyph-name="uni0472" unicode="&#x472;" 
d="M433 -10h-239.999c-47.333 0 -83.5 14.167 -108.5 42.5s-34.167 64.166 -27.5 107.499l66 420c6.66699 42.667 27.167 78.334 61.5 107.001s75.166 43 122.499 43h240c48.667 0 85.167 -14.667 109.5 -44s33.166 -64.666 26.499 -105.999l-66 -420
c-6.66699 -42.667 -27.167 -78.334 -61.5 -107.001s-75.166 -43 -122.499 -43zM301.001 545l-21.999 -135h200l22 135c1.33301 10 -0.833984 18.333 -6.50098 25s-13.5 10 -23.5 10h-130c-10 0 -18.833 -3.33301 -26.5 -10s-12.167 -15 -13.5 -25zM269.002 120h129.999
c10 0 18.833 3.33301 26.5 10s12.167 15 13.5 25l20 125h-200l-20 -125c-1.33301 -10 0.833984 -18.333 6.50098 -25s13.5 -10 23.5 -10z" />
    <glyph glyph-name="uni0473" unicode="&#x473;" horiz-adv-x="625" 
d="M603 400l-43 -270c-6.66699 -40.667 -25.834 -74.167 -57.501 -100.5s-69.834 -39.5 -114.501 -39.5h-215c-44.667 0 -78.834 13.167 -102.501 39.5s-32.167 59.833 -25.5 100.5l43 270c6.66699 40.667 25.834 74.167 57.501 100.5s69.834 39.5 114.501 39.5h215
c44.667 0 78.834 -13.167 102.501 -39.5s32.167 -59.833 25.5 -100.5zM242 110h115.003c7.33301 0 14.666 3.16699 21.999 9.5s11.666 13.166 12.999 20.499l11 70h-175l-11 -70c-1.33301 -7.33301 0.666992 -14.166 6 -20.499s11.666 -9.5 18.999 -9.5zM256.003 390
l-11.0029 -70h175l11 70c1.33301 7.33301 -0.666992 14.166 -6 20.499s-11.666 9.5 -18.999 9.5h-115c-7.33301 0 -14.666 -3.16699 -21.999 -9.5s-11.666 -13.166 -12.999 -20.499z" />
    <glyph glyph-name="afii10050" unicode="&#x490;" horiz-adv-x="575" 
d="M660 790l-35 -220h-305l-90 -570h-180l110 700h325l45 90h130z" />
    <glyph glyph-name="afii10098" unicode="&#x491;" horiz-adv-x="500" 
d="M35 0l83 530h265l44 85h130l-33 -205h-255l-64 -410h-170z" />
    <glyph glyph-name="uni0492" unicode="&#x492;" horiz-adv-x="575" 
d="M43 400h70l47 300h485l-13 -85l-47 -45h-265l-27 -170h180l-21 -130h-180l-42 -270h-180l42 270h-70z" />
    <glyph glyph-name="uni0493" unicode="&#x493;" horiz-adv-x="500" 
d="M27 300h55l36 230h425l-11 -75l-48 -45h-215l-17 -110h135l-19 -120h-135l-28 -180h-170l28 180h-55z" />
    <glyph glyph-name="uni0496" unicode="&#x496;" horiz-adv-x="1005" 
d="M810 0h-50l-75 285h-80l-45 -285h-180l45 285h-80l-165 -285h-180l11 70l195 285l-92 275l11 70h180l60 -285h80l45 285h180l-45 -285h80l150 285h180l-11 -70l-178 -275l82 -225h67l-42 -265h-135z" />
    <glyph glyph-name="uni0497" unicode="&#x497;" horiz-adv-x="890" 
d="M700 0h-50l-60 200h-64l-31 -200h-170l31 200h-64l-122 -200h-170l10 65l156 200l-78 200l10 65h170l43 -210h64l33 210h170l-33 -210h64l109 210h170l-10 -65l-142 -200l68 -145h75l-39 -245h-135z" />
    <glyph glyph-name="uni0498" unicode="&#x498;" horiz-adv-x="615" 
d="M186 -180l-104.999 0.00195312l14 90h65c20 0 31.667 10 35 30l10 60h-205l20 130h315c10 0 18.833 3.33301 26.5 10s12.5 15 14.5 25l13 85c1.33301 10 -0.666992 18.333 -6 25s-13 10 -23 10h-185l20 130h175c10 0 19 3.33301 27 10s12.667 15 14 25l13 85
c1.33301 10 -0.666992 18.333 -6 25s-13 10 -23 10h-260l-33 45l13 85h355c46.667 0 82.834 -14.333 108.501 -43s35.167 -64.334 28.5 -107.001l-13 -80c-6 -37.333 -28 -66 -66 -86c-16 -8.66699 -34.667 -15 -56 -19l-1 -10c22 -4 40 -10.333 54 -19
c35.333 -19.333 50 -48 44 -86l-16 -100c-6.66699 -42.667 -27.167 -78.334 -61.5 -107.001s-74.833 -43 -121.5 -43h-35l-13 -80c-4.66699 -28.667 -19.334 -52.5 -44.001 -71.5s-55.334 -28.5 -92.001 -28.5z" />
    <glyph glyph-name="uni0499" unicode="&#x499;" horiz-adv-x="550" 
d="M163 -170l-94.999 0.00390625l14 90h55c19.333 0 31 10 35 30l8 50h-180l19 120h270c7.33301 0 14.5 3.16699 21.5 9.5s11.167 13.166 12.5 20.499l4 25c1.33301 7.33301 -0.666992 14.166 -6 20.499s-11.666 9.5 -18.999 9.5h-150l19 120h140
c7.33301 0 14.666 3.16699 21.999 9.5s11.666 13.166 12.999 20.499l4 25c1.33301 7.33301 -0.833984 14.166 -6.50098 20.499s-12.167 9.5 -19.5 9.5h-215l-32 45l11 75h305c44.667 0 78.834 -13.167 102.501 -39.5s32.167 -59.833 25.5 -100.5l-4 -25
c-6 -32.667 -25.667 -57 -59 -73c-16 -7.33301 -32.667 -13 -50 -17l-2 -10c18.667 -4 35.334 -9.66699 50.001 -17c33.333 -18 47 -42.333 41 -73l-5 -35c-6.66699 -40.667 -25.834 -74.167 -57.501 -100.5s-69.834 -39.5 -114.501 -39.5h-10l-12 -70
c-4 -28.667 -18.167 -52.5 -42.5 -71.5s-55.166 -28.5 -92.499 -28.5z" />
    <glyph glyph-name="uni049A" unicode="&#x49a;" horiz-adv-x="685" 
d="M490 0h-50l-80 285h-85l-45 -285h-180l110 700h180l-45 -285h85l155 285h180l-11 -70l-183 -275l86 -225h68l-42 -265h-135z" />
    <glyph glyph-name="uni049B" unicode="&#x49b;" horiz-adv-x="610" 
d="M420 0h-50l-65 200h-69l-31 -200h-170l83 530h170l-33 -210h69l114 210h170l-10 -65l-147 -200l72 -145h76l-39 -245h-135z" />
    <glyph glyph-name="uni049C" unicode="&#x49c;" horiz-adv-x="680" 
d="M346 200h-65l14 85h-20l-45 -285h-180l110 700h180l-45 -285h20l14 85h65l-14 -85h10l145 285h180l-11 -70l-173 -275l100 -285l-11 -70h-180l-70 285h-10z" />
    <glyph glyph-name="uni049D" unicode="&#x49d;" horiz-adv-x="600" 
d="M294 120h-55l12 80h-15l-31 -200h-170l83 530h170l-33 -210h15l13 80h55l-13 -80h9l104 210h170l-10 -65l-137 -200l89 -200l-10 -65h-170l-55 200h-9z" />
    <glyph glyph-name="uni04A0" unicode="&#x4a0;" 
d="M90 700h260l-45 -285h85l155 285h180l-11 -70l-183 -275l110 -285l-11 -70h-180l-80 285h-85l-45 -285h-180l90 570h-80z" />
    <glyph glyph-name="uni04A1" unicode="&#x4a1;" horiz-adv-x="610" 
d="M63 530h235l-33 -210h69l114 210h170l-10 -65l-147 -200l99 -200l-10 -65h-170l-65 200h-69l-31 -200h-170l63 400h-65z" />
    <glyph glyph-name="uni04A2" unicode="&#x4a2;" horiz-adv-x="720" 
d="M505 0h-80l45 285h-190l-45 -285h-180l110 700h180l-45 -285h190l45 285h180l-90 -570h65l-42 -265h-135z" />
    <glyph glyph-name="uni04A3" unicode="&#x4a3;" horiz-adv-x="635" 
d="M435 0h-65l33 210h-165l-33 -210h-170l83 530h170l-31 -200h165l31 200h170l-64 -410h55l-39 -245h-135z" />
    <glyph glyph-name="uni04AA" unicode="&#x4aa;" horiz-adv-x="605" 
d="M406 -180l-104.997 -0.00195312c-36.667 0 -64.334 9.5 -83.001 28.5s-25.667 42.833 -21 71.5l13 80h-15c-46.667 0 -82.834 14.333 -108.501 43s-35.167 64.334 -28.5 107.001l64 400c6.66699 42.667 27 78.334 61 107.001s74.667 43 122 43h345l-13 -85l-47 -45h-250
c-10 0 -19 -3.33301 -27 -10s-12.667 -15 -14 -25l-58 -370c-2 -10 -0.166992 -18.333 5.5 -25s13.5 -10 23.5 -10h290l-20 -130h-200l-10 -60c-2.66699 -20 5.66602 -30 24.999 -30h65z" />
    <glyph glyph-name="uni04AB" unicode="&#x4ab;" horiz-adv-x="540" 
d="M373 -170l-95.001 -0.00195312c-36.667 0 -64.334 9.5 -83.001 28.5s-26 42.833 -22 71.5l12 70h-10c-44.667 0 -78.834 13.167 -102.501 39.5s-32.167 59.833 -25.5 100.5l39 250c6.66699 40.667 25.834 74.167 57.501 100.5s69.834 39.5 114.501 39.5h300l-11 -75
l-48 -45h-210c-7.33301 0 -14.5 -3.16699 -21.5 -9.5s-11.167 -13.166 -12.5 -20.499l-37 -230c-1.33301 -7.33301 0.833984 -14.166 6.50098 -20.499s12.167 -9.5 19.5 -9.5h250l-19 -120h-160l-8 -50c-4 -20 4.33301 -30 25 -30h55z" />
    <glyph glyph-name="uni04AE" unicode="&#x4ae;" horiz-adv-x="650" 
d="M530 700h180l-11 -70l-282 -425l-32 -205h-180l32 205l-148 425l11 70h180l68 -330h10z" />
    <glyph glyph-name="uni04AF" unicode="&#x4af;" horiz-adv-x="600" 
d="M353 -10l-25 -160h-170l25 160l-110 475l10 65h170l34 -385h10l156 385h170l-10 -65z" />
    <glyph glyph-name="uni04B0" unicode="&#x4b0;" horiz-adv-x="650" 
d="M131 260h87l-129 370l11 70h180l68 -330h10l172 330h180l-11 -70l-245 -370h87l-21 -130h-115l-20 -130h-180l20 130h-115z" />
    <glyph glyph-name="uni04B1" unicode="&#x4b1;" horiz-adv-x="600" 
d="M79 60h87l-93 405l10 65h170l34 -385h10l156 385h170l-10 -65l-222 -405h88l-21 -130h-115l-15 -100h-170l15 100h-115z" />
    <glyph glyph-name="uni04B2" unicode="&#x4b2;" horiz-adv-x="665" 
d="M470 0h-55l-74 265h-10l-156 -265h-180l11 70l215 285l-112 275l11 70h180l58 -265h10l142 265h180l-11 -70l-198 -275l98 -225h76l-42 -265h-135z" />
    <glyph glyph-name="uni04B3" unicode="&#x4b3;" horiz-adv-x="585" 
d="M395 0h-50l-56 185h-10l-114 -185h-170l10 65l171 200l-98 200l10 65h170l47 -180h10l103 180h170l-10 -65l-162 -200l79 -145h79l-39 -245h-135z" />
    <glyph glyph-name="uni04B8" unicode="&#x4b8;" horiz-adv-x="680" 
d="M374 155l-99.999 -0.000976562l13 80h-60c-46.667 0 -82.834 14.333 -108.501 43s-35.167 64.334 -28.5 107.001l50 315h180l-47 -300c-1.33301 -10 0.666992 -18.333 6 -25s13 -10 23 -10h5l15 90h100l-15 -90h40l53 335h180l-110 -700h-180l37 235h-40z" />
    <glyph glyph-name="uni04B9" unicode="&#x4b9;" horiz-adv-x="605" 
d="M328 85l-100 -0.000976562l13 80h-50c-44.667 0 -78.834 13.167 -102.501 39.5s-32.167 59.833 -25.5 100.5l35 225h170l-34 -215c-1.33301 -7.33301 0.833984 -14.166 6.50098 -20.499s12.167 -9.5 19.5 -9.5l12 80h100l-12 -80h25l38 245h170l-83 -530h-170l26 165h-25
z" />
    <glyph glyph-name="uni04BA" unicode="&#x4ba;" horiz-adv-x="680" 
d="M639 315l-49 -315.001h-180l47 300c1.33301 10 -0.666992 18.333 -6 25s-13 10 -23 10h-145l-53 -335h-180l110 700h180l-37 -235h200c47.333 0 83.5 -14.167 108.5 -42.5s34.167 -64.166 27.5 -107.499z" />
    <glyph glyph-name="uni04BB" unicode="&#x4bb;" horiz-adv-x="635" 
d="M298 530l175 0.000976562c44.667 0 78.834 -13.167 102.501 -39.5s32.167 -59.833 25.5 -100.5l-61 -390h-170l60 380c1.33301 7.33301 -0.833984 14.166 -6.50098 20.499s-12.167 9.5 -19.5 9.5h-125l-64 -410h-170l110 700h170z" />
    <glyph glyph-name="uni04D8" unicode="&#x4d8;" 
d="M433 -10l-240.001 0.00195312c-47.333 0 -83.5 14.167 -108.5 42.5s-34.167 64.166 -27.5 107.499l44 280h380l18 115c1.33301 10 -0.666992 18.333 -6 25s-13 10 -23 10h-310l20 130h365c48.667 0 85.167 -14.5 109.5 -43.5s33.5 -64.5 27.5 -106.5l-65 -410
c-6.66699 -42.667 -27.167 -78.334 -61.5 -107.001s-75.166 -43 -122.499 -43zM268.999 120.002h129.999c10 0 18.833 3.33301 26.5 10s12.167 15 13.5 25l21 135h-200l-21 -135c-1.33301 -10 0.833984 -18.333 6.50098 -25s13.5 -10 23.5 -10z" />
    <glyph glyph-name="uni04D9" unicode="&#x4d9;" horiz-adv-x="600" 
d="M379 410l-254.997 0.000976562l19 120h305c44.667 0 78.834 -13.167 102.501 -39.5s32.167 -59.833 25.5 -100.5l-41 -260c-6.66699 -40.667 -25.834 -74.167 -57.501 -100.5s-69.834 -39.5 -114.501 -39.5h-190c-44.667 0 -78.834 13.167 -102.501 39.5
s-32.167 59.833 -25.5 100.5l30 190h320l10 60c1.33301 7.33301 -0.833984 14.166 -6.50098 20.499s-12.167 9.5 -19.5 9.5zM367.003 140.001l10.0029 65h-150l-10 -65c-1.33301 -7.33301 0.666992 -14.166 6 -20.499s11.666 -9.5 18.999 -9.5h90
c7.33301 0 14.666 3.16699 21.999 9.5s11.666 13.166 12.999 20.499z" />
    <glyph glyph-name="Wgrave" unicode="&#x1e80;" horiz-adv-x="980" 
d="M658 590l31 -375h10l146 485h180l-11 -70l-224 -630h-225l-38 395h-10l-162 -395h-225l-26 630l11 70h180l-6 -485h10l149 375h210zM420 860h175l50 -160h-130z" />
    <glyph glyph-name="wgrave" unicode="&#x1e81;" horiz-adv-x="840" 
d="M439 280h-10l-119 -280h-205l-27 465l10 65h170l-8 -340h10l112 265h180l28 -265h10l98 340h170l-10 -65l-173 -465h-205zM325 700h175l50 -160h-130z" />
    <glyph glyph-name="Wacute" unicode="&#x1e82;" horiz-adv-x="980" 
d="M658 590l31 -375h10l146 485h180l-11 -70l-224 -630h-225l-38 395h-10l-162 -395h-225l-26 630l11 70h180l-6 -485h10l149 375h210zM596 870h175l-145 -160h-130z" />
    <glyph glyph-name="wacute" unicode="&#x1e83;" horiz-adv-x="840" 
d="M439 280h-10l-119 -280h-205l-27 465l10 65h170l-8 -340h10l112 265h180l28 -265h10l98 340h170l-10 -65l-173 -465h-205zM500 700h175l-145 -160h-130z" />
    <glyph glyph-name="Wdieresis" unicode="&#x1e84;" horiz-adv-x="980" 
d="M658 590l31 -375h10l146 485h180l-11 -70l-224 -630h-225l-38 395h-10l-162 -395h-225l-26 630l11 70h180l-6 -485h10l149 375h210zM536 710h-150l22 140h150zM756 710h-150l22 140h150z" />
    <glyph glyph-name="wdieresis" unicode="&#x1e85;" horiz-adv-x="840" 
d="M439 280h-10l-119 -280h-205l-27 465l10 65h170l-8 -340h10l112 265h180l28 -265h10l98 340h170l-10 -65l-173 -465h-205zM443 560h-150l22 140h150zM663 560h-150l22 140h150z" />
    <glyph glyph-name="Ygrave" unicode="&#x1ef2;" horiz-adv-x="650" 
d="M530 700h180l-11 -70l-282 -425l-32 -205h-180l32 205l-148 425l11 70h180l68 -330h10zM274 920h175l50 -160h-130z" />
    <glyph glyph-name="ygrave" unicode="&#x1ef3;" horiz-adv-x="580" 
d="M603 465l-266 -515.001c-18 -33.333 -43.167 -61.666 -75.5 -84.999s-68.5 -35 -108.5 -35h-115l19 120h80c25.333 0 42.333 13.333 51 40l2 10l-127 465l10 65h170l47 -370h10l143 370h170zM206 769.999h175l50 -160h-130z" />
    <glyph glyph-name="endash" unicode="&#x2013;" horiz-adv-x="600" 
d="M57 360h540l-19 -120h-540z" />
    <glyph glyph-name="emdash" unicode="&#x2014;" horiz-adv-x="875" 
d="M57 360h815l-19 -120h-815z" />
    <glyph glyph-name="quoteleft" unicode="&#x2018;" horiz-adv-x="270" 
d="M119 565l91 135h80l-39 -250h-150z" />
    <glyph glyph-name="quoteright" unicode="&#x2019;" horiz-adv-x="270" 
d="M272 585l-91 -135h-80l39 250h150z" />
    <glyph glyph-name="quotesinglbase" unicode="&#x201a;" horiz-adv-x="270" 
d="M185 35l-91 -135h-80l39 250h150z" />
    <glyph glyph-name="quotedblleft" unicode="&#x201c;" horiz-adv-x="480" 
d="M329 565l91 135h80l-39 -250h-150zM119 565l91 135h80l-39 -250h-150z" />
    <glyph glyph-name="quotedblright" unicode="&#x201d;" horiz-adv-x="480" 
d="M272 585l-91 -135h-80l39 250h150zM482 585l-91 -135h-80l39 250h150z" />
    <glyph glyph-name="quotedblbase" unicode="&#x201e;" horiz-adv-x="480" 
d="M185 35l-91 -135h-80l39 250h150zM395 35l-91 -135h-80l39 250h150z" />
    <glyph glyph-name="dagger" unicode="&#x2020;" horiz-adv-x="550" 
d="M238 530l52 170h130l-2 -170h160l-20 -130h-160l-90 -570h-180l90 570h-160l20 130h160z" />
    <glyph glyph-name="daggerdbl" unicode="&#x2021;" horiz-adv-x="570" 
d="M163 -170l2 170h-160l20 130h160l43 270h-160l20 130h160l52 170h130l-2 -170h160l-20 -130h-160l-43 -270h160l-20 -130h-160l-52 -170h-130z" />
    <glyph glyph-name="bullet" unicode="&#x2022;" horiz-adv-x="450" 
d="M344 345l-11 -70c-2.66699 -15.333 -10.167 -28.333 -22.5 -39s-26.166 -16 -41.499 -16h-80c-15.333 0 -27.5 5.33301 -36.5 16s-12.167 23.667 -9.5 39l11 70c2.66699 15.333 10.167 28.333 22.5 39s26.166 16 41.499 16h80c15.333 0 27.5 -5.33301 36.5 -16
s12.167 -23.667 9.5 -39z" />
    <glyph glyph-name="ellipsis" unicode="&#x2026;" horiz-adv-x="800" 
d="M180 0h-150l23 150h150zM445 0h-150l23 150h150zM710 0h-150l23 150h150z" />
    <glyph glyph-name="perthousand" unicode="&#x2030;" horiz-adv-x="1255" 
d="M650 700h145l-9 -60l-501 -640h-145l9 60zM856 230l-22 -140c-4.66699 -28.667 -19.334 -52.5 -44.001 -71.5s-55.334 -28.5 -92.001 -28.5h-95c-36.667 0 -64.334 9.5 -83.001 28.5s-25.667 42.833 -21 71.5l22 140c4.66699 28.667 19.334 52.5 44.001 71.5
s55.334 28.5 92.001 28.5h95c36.667 0 64.334 -9.5 83.001 -28.5s25.667 -42.833 21 -71.5zM648 210l-15.999 -100c-2.66699 -20 5.66602 -30 24.999 -30h15c20.667 0 32.334 10 35.001 30l16 100c3.33301 20 -5 30 -25 30h-15c-20.667 0 -32.334 -10 -35.001 -30z
M436.001 610l-22 -140c-4.66699 -28.667 -19.334 -52.5 -44.001 -71.5s-55.334 -28.5 -92.001 -28.5h-95c-36.667 0 -64.334 9.5 -83.001 28.5s-25.667 42.833 -21 71.5l22 140c4.66699 28.667 19.334 52.5 44.001 71.5s55.334 28.5 92.001 28.5h95
c36.667 0 64.334 -9.5 83.001 -28.5s25.667 -42.833 21 -71.5zM228.001 590l-15.998 -100c-2.66699 -20 5.66602 -30 24.999 -30h15c20 0 31.667 10 35 30l16 100c3.33301 20 -5 30 -25 30h-15c-20.667 0 -32.334 -10 -35.001 -30zM1226 230l-22 -140
c-4.66699 -28.667 -19.334 -52.5 -44.001 -71.5s-55.334 -28.5 -92.001 -28.5h-95c-36.667 0 -64.334 9.5 -83.001 28.5s-25.667 42.833 -21 71.5l22 140c4.66699 28.667 19.334 52.5 44.001 71.5s55.334 28.5 92.001 28.5h95c36.667 0 64.334 -9.5 83.001 -28.5
s25.667 -42.833 21 -71.5zM1018 210l-15.998 -100c-2.66699 -20 5.66602 -30 24.999 -30h15c20 0 31.667 10 35 30l16 100c3.33301 20 -5 30 -25 30h-15c-20.667 0 -32.334 -10 -35.001 -30z" />
    <glyph glyph-name="guilsinglleft" unicode="&#x2039;" horiz-adv-x="385" 
d="M76 260l155 220h135l-9 -55l-121 -165l69 -165l-9 -55h-135z" />
    <glyph glyph-name="guilsinglright" unicode="&#x203a;" horiz-adv-x="385" 
d="M246 480l85 -220l-155 -220h-135l9 55l121 165l-69 165l9 55h135z" />
    <glyph glyph-name="Euro" unicode="&#x20ac;" horiz-adv-x="635" 
d="M50 320l70.001 -0.00195312l10 60h-70l16 100h70l11 70c6.66699 42.667 27.167 78.334 61.5 107.001s74.833 43 121.5 43h340l-13 -85l-47 -45h-245c-10 0 -19 -3.33301 -27 -10s-12.667 -15 -14 -25l-8 -55h200l-16 -100h-200l-10 -60h200l-16 -100h-200l-8 -55
c-2 -10 -0.166992 -18.333 5.5 -25s13.5 -10 23.5 -10h285l-20 -130h-340c-46.667 0 -82.834 14.333 -108.501 43s-35.167 64.334 -28.5 107.001l11 70h-70z" />
    <glyph glyph-name="afii61352" unicode="&#x2116;" horiz-adv-x="1085" 
d="M735 290h305l-18 -115h-305zM710 700l-110 -700h-195l-131 440h-10l-3 -240l-31 -200h-180l110 700h195l131 -440h10l3 240l31 200h180zM1106 610l-22 -140c-4.66699 -28.667 -19.334 -52.5 -44.001 -71.5s-55.334 -28.5 -92.001 -28.5h-95
c-36.667 0 -64.334 9.5 -83.001 28.5s-25.667 42.833 -21 71.5l22 140c4.66699 28.667 19.334 52.5 44.001 71.5s55.334 28.5 92.001 28.5h95c36.667 0 64.334 -9.5 83.001 -28.5s25.667 -42.833 21 -71.5zM898 590l-15.998 -100c-2.66699 -20 5.66602 -30 24.999 -30h15
c20 0 31.667 10 35 30l16 100c3.33301 20 -5 30 -25 30h-15c-20.667 0 -32.334 -10 -35.001 -30z" />
    <glyph glyph-name="trademark" unicode="&#x2122;" horiz-adv-x="905" 
d="M76 610l14 90h340l-9 -62l-30 -28h-80l-38 -240h-130l38 240h-105zM694 410h-105l-24 160h-5l-32 -200h-130l7 45l85 285h140l28 -175h5l82 175h140l-5 -285l-7 -45h-130l32 200h-5z" />
    <glyph glyph-name=".null" horiz-adv-x="0" 
 />
    <glyph glyph-name="nonmarkingreturn" horiz-adv-x="333" 
 />
    <glyph glyph-name="commaaccent" horiz-adv-x="200" 
d="M112 -171l-73 -85h-79l31 200h140z" />
    <glyph glyph-name="foundryicon" horiz-adv-x="1330" 
d="M211 265h-170l198 175zM435 350c-4 -25.333 -16 -46.666 -36 -63.999s-42.667 -26 -68 -26s-45.333 8.66699 -60 26s-20 38.666 -16 63.999s16 46.666 36 63.999s42.667 26 68 26s45.333 -8.66699 60 -26s20 -38.666 16 -63.999zM448 435h180l-117 -175zM948 435
l-24 -155l-126 155h150zM756 265l25 155l125 -155h-150zM736 265h-180l118 175zM1143 435l-24 -155l-126 155h150zM951 265l25 155l125 -155h-150zM1158 435h180l-117 -175z" />
    <glyph glyph-name=".ttfautohint" horiz-adv-x="930" 
 />
    </font>
</defs>
</svg>
