<?xml version="1.0" standalone="no"?>
<!DOCTYPE svg PUBLIC "-//W3C//DTD SVG 1.1//EN" "http://www.w3.org/Graphics/SVG/1.1/DTD/svg11.dtd" >
<svg>
<metadata>
Created by FontForge 20090914 at Sun Feb 21 10:16:49 2021
 By www-data
Copyright (c) 2013 by Roman Ershov, Jovanny Lemonad. All rights reserved.
</metadata>
<defs>
<font id="Supermolot-Bold" horiz-adv-x="600" >
  <font-face 
    font-family="Supermolot"
    font-weight="700"
    font-stretch="normal"
    units-per-em="1000"
    panose-1="2 0 8 3 5 0 0 2 0 4"
    ascent="809"
    descent="-191"
    x-height="530"
    cap-height="700"
    bbox="-55 -275 1300 960"
    underline-thickness="50"
    underline-position="-150"
    unicode-range="U+0020-U+2122"
  />
<missing-glyph horiz-adv-x="740" 
d="M100 605h540v-510h-540v510zM580 545h-420v-390h420v390zM370 390l115 105l40 -40l-115 -105l115 -105l-40 -40l-115 105l-115 -105l-40 40l115 105l-115 105l40 40z" />
    <glyph glyph-name=".notdef" horiz-adv-x="740" 
d="M100 605h540v-510h-540v510zM580 545h-420v-390h420v390zM370 390l115 105l40 -40l-115 -105l115 -105l-40 -40l-115 105l-115 -105l-40 40l115 105l-115 105l40 40z" />
    <glyph glyph-name="space" unicode=" " horiz-adv-x="310" 
 />
    <glyph glyph-name="exclam" unicode="!" horiz-adv-x="330" 
d="M100 230l-30 320v150h190v-150l-30 -320h-130zM240 0h-150v150h150v-150z" />
    <glyph glyph-name="quotedbl" unicode="&#x22;" horiz-adv-x="445" 
d="M70 475l-20 120v105h145v-105l-20 -120h-105zM270 475l-20 120v105h145v-105l-20 -120h-105z" />
    <glyph glyph-name="numbersign" unicode="#" horiz-adv-x="745" 
d="M90 0l25 145h-80v130h100l25 150h-90v130h105l25 145h175l-25 -145h105l25 145h175l-25 -145h80v-130h-100l-25 -150h90v-130h-105l-25 -145h-175l25 145h-105l-25 -145h-175zM335 425l-25 -150h100l25 150h-100z" />
    <glyph glyph-name="dollar" unicode="$" 
d="M35 465v85c0 43.333 14.833 79.166 44.5 107.499s68.167 42.5 115.5 42.5h25v90h160v-90h155v-85l-40 -45h-245c-10 0 -18.333 -3.33301 -25 -10s-10 -15 -10 -25v-50c0 -25.333 13.333 -40.333 40 -45l185 -40c36.667 -8.66699 66.667 -26.167 90 -52.5
s35 -58.833 35 -97.5v-100c0 -43.333 -14.833 -79.166 -44.5 -107.499s-68.167 -42.5 -115.5 -42.5h-25v-90h-160v90h-185v130h315c10 0 18.333 3.33301 25 10s10 15 10 25v65c0 25.333 -13.333 40.333 -40 45l-185 40c-36.667 8.66699 -66.667 26.167 -90 52.5
s-35 58.833 -35 97.5z" />
    <glyph glyph-name="percent" unicode="%" horiz-adv-x="885" 
d="M570 700h145v-60l-400 -640h-145v60zM850 230v-140c0 -28.667 -10.833 -52.5 -32.5 -71.5s-50.834 -28.5 -87.501 -28.5h-95c-36.667 0 -65.834 9.5 -87.501 28.5s-32.5 42.833 -32.5 71.5v140c0 28.667 10.833 52.5 32.5 71.5s50.834 28.5 87.501 28.5h95
c36.667 0 65.834 -9.5 87.501 -28.5s32.5 -42.833 32.5 -71.5zM645 210v-100c0 -20 10 -30 30 -30h15c20 0 30 10 30 30v100c0 20 -10 30 -30 30h-15c-20 0 -30 -10 -30 -30zM370 610v-140c0 -28.667 -10.833 -52.5 -32.5 -71.5s-50.834 -28.5 -87.501 -28.5h-95
c-36.667 0 -65.834 9.5 -87.501 28.5s-32.5 42.833 -32.5 71.5v140c0 28.667 10.833 52.5 32.5 71.5s50.834 28.5 87.501 28.5h95c36.667 0 65.834 -9.5 87.501 -28.5s32.5 -42.833 32.5 -71.5zM165 590v-100c0 -20 10 -30 30 -30h15c20 0 30 10 30 30v100
c0 20 -10 30 -30 30h-15c-20 0 -30 -10 -30 -30z" />
    <glyph glyph-name="ampersand" unicode="&#x26;" horiz-adv-x="690" 
d="M515 0l-50.001 55.001h-10c-9.33301 -13.333 -19.666 -24.333 -30.999 -33c-28 -21.333 -59.333 -32 -94 -32h-130c-47.333 0 -85.833 14.167 -115.5 42.5s-44.5 64.166 -44.5 107.499v105c0 33.333 13.833 62.5 41.5 87.5s62.167 37.5 103.5 37.5v10
c-14.667 10 -26.334 20.333 -35.001 31c-23.333 24.667 -35 52.667 -35 84v55c0 43.333 14.833 79.166 44.5 107.499s68.167 42.5 115.5 42.5h290v-85l-40 -45h-195c-10 0 -18.333 -3.33301 -25 -10s-10 -15 -10 -25v-40c0 -14.667 16.667 -40 50 -76
c16.667 -17.333 33.334 -33.666 50.001 -48.999l290 -305v-65h-170zM384.999 150.001l-120 125c-30 0 -45 -13.333 -45 -40v-80c0 -10 3.33301 -18.333 10 -25s15 -10 25 -10h75c16.667 0 30.667 5 42 15c6 4.66699 10.333 9.66699 13 15z" />
    <glyph glyph-name="quotesingle" unicode="'" horiz-adv-x="245" 
d="M70 475l-20 121v104h145v-105l-20 -120h-105z" />
    <glyph glyph-name="parenleft" unicode="(" horiz-adv-x="390" 
d="M295 -50l55 0.00195312v-130h-110c-47.333 0 -85.833 14.167 -115.5 42.5s-44.5 64.166 -44.5 107.499v650c0 43.333 14.833 79.166 44.5 107.499s68.167 42.5 115.5 42.5h110v-130h-55c-10 0 -18.333 -3.33301 -25 -10s-10 -15 -10 -25v-620
c0 -10 3.33301 -18.333 10 -25s15 -10 25 -10z" />
    <glyph glyph-name="parenright" unicode=")" horiz-adv-x="390" 
d="M40 -50l55 -0.00195312c10 0 18.333 3.33301 25 10s10 15 10 25v620c0 10 -3.33301 18.333 -10 25s-15 10 -25 10h-55v130h110c47.333 0 85.833 -14.167 115.5 -42.5s44.5 -64.166 44.5 -107.499v-650c0 -43.333 -14.833 -79.166 -44.5 -107.499
s-68.167 -42.5 -115.5 -42.5h-110v130z" />
    <glyph glyph-name="asterisk" unicode="*" horiz-adv-x="440" 
d="M260 700l15 -115l110 20l20 -70l-100 -40l65 -95l-65 -45l-85 85l-85 -85l-65 45l65 95l-100 40l20 70l110 -20l15 115h80z" />
    <glyph glyph-name="plus" unicode="+" horiz-adv-x="510" 
d="M30 380h160v165h130v-165h160v-130h-160v-165h-130v165h-160v130z" />
    <glyph glyph-name="comma" unicode="," horiz-adv-x="270" 
d="M210 35l-70 -135h-80v250h150v-115z" />
    <glyph glyph-name="hyphen" unicode="-" horiz-adv-x="490" 
d="M30 380h430v-130h-430v130z" />
    <glyph glyph-name="period" unicode="." horiz-adv-x="270" 
d="M210 0h-150v150h150v-150z" />
    <glyph glyph-name="slash" unicode="/" horiz-adv-x="545" 
d="M525 695l-350 -745h-155v55l350 745h155v-55z" />
    <glyph glyph-name="zero" unicode="0" horiz-adv-x="660" 
d="M280 120h100c10 0 18.333 3.33301 25 10s10 15 10 25v390c0 10 -3.33301 18.333 -10 25s-15 10 -25 10h-100c-10 0 -18.333 -3.33301 -25 -10s-10 -15 -10 -25v-390c0 -10 3.33301 -18.333 10 -25s15 -10 25 -10zM435 -10h-210c-47.333 0 -85.833 14.167 -115.5 42.5
s-44.5 64.166 -44.5 107.499v420c0 43.333 14.833 79.166 44.5 107.499s68.167 42.5 115.5 42.5h210c48.667 0 87.5 -14.667 116.5 -44s43.5 -64.666 43.5 -105.999v-420c0 -43.333 -14.833 -79.166 -44.5 -107.499s-68.167 -42.5 -115.5 -42.5z" />
    <glyph glyph-name="one" unicode="1" horiz-adv-x="415" 
d="M15 640l185 60h130v-700h-180v560h-135v80z" />
    <glyph glyph-name="two" unicode="2" horiz-adv-x="570" 
d="M245 130l284.999 -0.000976562v-130h-505v120l290 305c6.66699 6 12.334 12 17.001 18c12 14.667 18 27 18 37v56c0 9.33301 -3.33301 17.333 -10 24s-15 10 -25 10h-240l-40 45v85h335c47.333 0 85.833 -14.167 115.5 -42.5s44.5 -64.166 44.5 -107.499v-70
c0 -30 -13.333 -63 -40 -99c-12 -16.667 -25.333 -32 -40 -46l-205 -195v-10z" />
    <glyph glyph-name="three" unicode="3" horiz-adv-x="585" 
d="M330 420l55 -0.00195312c47.333 0 85.833 -14.167 115.5 -42.5s44.5 -64.166 44.5 -107.499v-120c0 -43.333 -14.833 -79.166 -44.5 -107.499s-68.167 -42.5 -115.5 -42.5h-350v130h295c10 0 18.333 3.33301 25 10s10 15 10 25v90c0 10 -3.33301 18.333 -10 25
s-15 10 -25 10h-195v120l180 150v10h-250l-40 45v85h500v-120l-195 -150v-10z" />
    <glyph glyph-name="four" unicode="4" horiz-adv-x="650" 
d="M540 0h-180v135h-340v120l280 445h240v-435h90v-130h-90v-135zM365 505h-10l-140 -230v-10h150v240z" />
    <glyph glyph-name="five" unicode="5" horiz-adv-x="620" 
d="M260 430l160 -0.00195312c47.333 0 85.833 -14.167 115.5 -42.5s44.5 -64.166 44.5 -107.499v-130c0 -43.333 -14.833 -79.166 -44.5 -107.499s-68.167 -42.5 -115.5 -42.5h-340v130h285c10 0 18.333 3.33301 25 10s10 15 10 25v100c0 10 -3.33301 18.333 -10 25
s-15 10 -25 10h-285v400h475v-85l-40 -45h-255v-140z" />
    <glyph glyph-name="six" unicode="6" horiz-adv-x="635" 
d="M245 535v-100h185c47.333 0 85.833 -14.167 115.5 -42.5s44.5 -64.166 44.5 -107.499v-145c0 -43.333 -14.833 -79.166 -44.5 -107.499s-68.167 -42.5 -115.5 -42.5h-205c-47.333 0 -85.833 14.167 -115.5 42.5s-44.5 64.166 -44.5 107.499v410
c0 43.333 14.833 79.166 44.5 107.499s68.167 42.5 115.5 42.5h335v-85l-40 -45h-240c-10 0 -18.333 -3.33301 -25 -10s-10 -15 -10 -25zM280 120h95c10 0 18.333 3.33301 25 10s10 15 10 25v115c0 10 -3.33301 18.333 -10 25s-15 10 -25 10h-130v-150
c0 -10 3.33301 -18.333 10 -25s15 -10 25 -10z" />
    <glyph glyph-name="seven" unicode="7" horiz-adv-x="540" 
d="M285 0h-180v70l225 490v10h-320v130h510v-120z" />
    <glyph glyph-name="eight" unicode="8" horiz-adv-x="665" 
d="M450 -10h-234.998c-47.333 0 -85.833 14.167 -115.5 42.5s-44.5 64.166 -44.5 107.499v120c0 38 19 66.667 57 86c15.333 8 34.666 14.333 57.999 19v10c-18.667 4 -34.667 10.333 -48 19c-31.333 19.333 -47 48 -47 86v80c0 43.333 14.833 79.166 44.5 107.499
s68.167 42.5 115.5 42.5h195c47.333 0 85.833 -14.167 115.5 -42.5s44.5 -64.166 44.5 -107.499v-80c0 -37.333 -16 -66 -48 -86c-12.667 -8.66699 -28.334 -15 -47.001 -19v-10c22 -4 41 -10.333 57 -19c38.667 -20 58 -48.667 58 -86v-120
c0 -43.333 -14.833 -79.166 -44.5 -107.499s-68.167 -42.5 -115.5 -42.5zM395.002 295h-125c-10 0 -18.333 -3.33301 -25 -10s-10 -15 -10 -25v-105c0 -10 3.33301 -18.333 10 -25s15 -10 25 -10h125c10 0 18.333 3.33301 25 10s10 15 10 25v105
c0 10 -3.33301 18.333 -10 25s-15 10 -25 10zM375.002 580h-85c-10 0 -18.333 -3.33301 -25 -10s-10 -15 -10 -25v-85c0 -10 3.33301 -18.333 10 -25s15 -10 25 -10h85c10 0 18.333 3.33301 25 10s10 15 10 25v85c0 10 -3.33301 18.333 -10 25s-15 10 -25 10z" />
    <glyph glyph-name="nine" unicode="9" horiz-adv-x="635" 
d="M390 165v90h-185c-47.333 0 -85.833 14.167 -115.5 42.5s-44.5 64.166 -44.5 107.499v155c0 43.333 14.833 79.166 44.5 107.499s68.167 42.5 115.5 42.5h205c47.333 0 85.833 -14.167 115.5 -42.5s44.5 -64.166 44.5 -107.499v-410
c0 -43.333 -14.833 -79.166 -44.5 -107.499s-68.167 -42.5 -115.5 -42.5h-335v130h280c10 0 18.333 3.33301 25 10s10 15 10 25zM355 580h-95c-10 0 -18.333 -3.33301 -25 -10s-10 -15 -10 -25v-125c0 -10 3.33301 -18.333 10 -25s15 -10 25 -10h130v160
c0 10 -3.33301 18.333 -10 25s-15 10 -25 10z" />
    <glyph glyph-name="colon" unicode=":" horiz-adv-x="260" 
d="M205 0h-150v150h150v-150zM205 380h-150v150h150v-150z" />
    <glyph glyph-name="semicolon" unicode=";" horiz-adv-x="270" 
d="M210 380h-150v150h150v-150zM210 35l-70 -135h-80v250h150v-115z" />
    <glyph glyph-name="less" unicode="&#x3c;" horiz-adv-x="540" 
d="M60 335l420 200v-150l-255 -115v-10l255 -115v-150l-420 200v140z" />
    <glyph glyph-name="equal" unicode="=" horiz-adv-x="530" 
d="M40 490h450v-130h-450v130zM40 260h450v-130h-450v130z" />
    <glyph glyph-name="greater" unicode="&#x3e;" horiz-adv-x="540" 
d="M60 535l420 -200v-140l-420 -200v150l255 115v10l-255 115v150z" />
    <glyph glyph-name="question" unicode="?" horiz-adv-x="535" 
d="M295 0h-150v150h150v-150zM315 485v49.999c0 10 -3.33301 18.333 -10 25s-15 10 -25 10h-230l-40 45v85h325c47.333 0 85.833 -14.167 115.5 -42.5s44.5 -64.166 44.5 -107.499v-85c0 -48.667 -18.333 -82 -55 -100l-110 -55c-20 -10.667 -30 -24 -30 -40v-40h-160v70
c0 48.667 18.333 82 55 100l90 45c20 10.667 30 24 30 40z" />
    <glyph glyph-name="at" unicode="@" horiz-adv-x="910" 
d="M490 510l175 0.000976562v65c0 10 -3.33301 18.333 -10 25s-15 10 -25 10h-360c-10 0 -18.333 -3.33301 -25 -10s-10 -15 -10 -25v-450c0 -10 3.33301 -18.333 10 -25s15 -10 25 -10h545v-120h-590c-47.333 0 -85.833 14.167 -115.5 42.5s-44.5 64.166 -44.5 107.499v460
c0 43.333 14.833 79.166 44.5 107.499s68.167 42.5 115.5 42.5h450c47.333 0 85.833 -14.167 115.5 -42.5s44.5 -64.166 44.5 -107.499v-390h-110l-25 55h-10c-5.33301 -14 -12 -25 -20 -33c-20 -21.333 -46.667 -32 -80 -32h-100c-44.667 0 -80.834 13.167 -108.501 39.5
s-41.5 59.833 -41.5 100.5v50c0 40.667 13.833 74.167 41.5 100.5s63.834 39.5 108.501 39.5zM510 370.001v-40.002c0 -7.33301 3.16699 -14.166 9.5 -20.499s13.166 -9.5 20.499 -9.5h80c15.333 0 27.333 5.66699 36 17c4 4.66699 7 10.667 9 18v65h-125
c-7.33301 0 -14.166 -3.16699 -20.499 -9.5s-9.5 -13.166 -9.5 -20.499z" />
    <glyph glyph-name="A" unicode="A" horiz-adv-x="690" 
d="M485 0l-35 150h-210l-35 -150h-180v70l200 630h240l200 -630v-70h-180zM415 280l-65 260h-10l-65 -260h140z" />
    <glyph glyph-name="B" unicode="B" horiz-adv-x="685" 
d="M80 700l365.001 -0.00195312c47.333 0 85.833 -14.167 115.5 -42.5s44.5 -64.166 44.5 -107.499v-80c0 -37.333 -16 -66 -48 -86c-12.667 -8.66699 -28.334 -15 -47.001 -19v-10c24 -4 44 -10.333 60 -19c40 -19.333 60 -48 60 -86v-100
c0 -43.333 -14.833 -79.166 -44.5 -107.499s-68.167 -42.5 -115.5 -42.5h-390v700zM260.001 129.998h155c10 0 18.333 3.33301 25 10s10 15 10 25v85c0 10 -3.33301 18.333 -10 25s-15 10 -25 10h-155v-155zM390.001 569.998h-130v-155h130c10 0 18.333 3.33301 25 10
s10 15 10 25v85c0 10 -3.33301 18.333 -10 25s-15 10 -25 10z" />
    <glyph glyph-name="C" unicode="C" horiz-adv-x="605" 
d="M280 130l290 0.00195312v-130h-345c-47.333 0 -85.833 14.167 -115.5 42.5s-44.5 64.166 -44.5 107.499v400c0 43.333 14.833 79.166 44.5 107.499s68.167 42.5 115.5 42.5h345v-85l-40 -45h-250c-10 0 -18.333 -3.33301 -25 -10s-10 -15 -10 -25v-370
c0 -10 3.33301 -18.333 10 -25s15 -10 25 -10z" />
    <glyph glyph-name="D" unicode="D" horiz-adv-x="690" 
d="M465 0l-385 -0.00195312v700h385c47.333 0 85.833 -14.167 115.5 -42.5s44.5 -64.166 44.5 -107.499v-400c0 -43.333 -14.833 -79.166 -44.5 -107.499s-68.167 -42.5 -115.5 -42.5zM410 569.998h-150v-440h150c10 0 18.333 3.33301 25 10s10 15 10 25v370
c0 10 -3.33301 18.333 -10 25s-15 10 -25 10z" />
    <glyph glyph-name="E" unicode="E" horiz-adv-x="615" 
d="M580 700v-85l-40 -45h-280v-150h230v-130h-230v-160h320v-130h-500v700h500z" />
    <glyph glyph-name="F" unicode="F" 
d="M580 700v-85l-40 -45h-280v-180h230v-130h-230v-260h-180v700h500z" />
    <glyph glyph-name="G" unicode="G" horiz-adv-x="665" 
d="M325 415l275 0.00195312v-415h-375c-47.333 0 -85.833 14.167 -115.5 42.5s-44.5 64.166 -44.5 107.499v400c0 43.333 14.833 79.166 44.5 107.499s68.167 42.5 115.5 42.5h354v-85l-40 -45h-259c-10 0 -18.333 -3.33301 -25 -10s-10 -15 -10 -25v-370
c0 -10 3.33301 -18.333 10 -25s15 -10 25 -10h150v155h-105v130z" />
    <glyph glyph-name="H" unicode="H" horiz-adv-x="710" 
d="M260 0h-180v700h180v-285h190v285h180v-700h-180v285h-190v-285z" />
    <glyph glyph-name="I" unicode="I" horiz-adv-x="340" 
d="M260 0h-180v700h180v-700z" />
    <glyph glyph-name="J" unicode="J" horiz-adv-x="545" 
d="M305 -10l-295 -0.000976562v130h240c10 0 18.333 3.33301 25 10s10 15 10 25v545h180v-560c0 -43.333 -14.833 -79.166 -44.5 -107.499s-68.167 -42.5 -115.5 -42.5z" />
    <glyph glyph-name="K" unicode="K" horiz-adv-x="680" 
d="M260 0h-180v700h180v-285h85l110 285h180v-70l-140 -275l155 -285v-70h-180l-125 285h-85v-285z" />
    <glyph glyph-name="L" unicode="L" horiz-adv-x="570" 
d="M560 0h-480v700h180v-570h300v-130z" />
    <glyph glyph-name="M" unicode="M" horiz-adv-x="990" 
d="M600 85h-210l-115 400h-10l-35 -485h-180v70l85 630h225l130 -420h10l130 420h225l85 -630v-70h-180l-35 485h-10z" />
    <glyph glyph-name="N" unicode="N" horiz-adv-x="710" 
d="M630 700v-700h-195l-200 440h-10l35 -240v-200h-180v700h195l200 -440h10l-35 240v200h180z" />
    <glyph glyph-name="O" unicode="O" horiz-adv-x="690" 
d="M280 120h130c10 0 18.333 3.33301 25 10s10 15 10 25v390c0 10 -3.33301 18.333 -10 25s-15 10 -25 10h-130c-10 0 -18.333 -3.33301 -25 -10s-10 -15 -10 -25v-390c0 -10 3.33301 -18.333 10 -25s15 -10 25 -10zM465 -10h-240c-47.333 0 -85.833 14.167 -115.5 42.5
s-44.5 64.166 -44.5 107.499v420c0 43.333 14.833 79.166 44.5 107.499s68.167 42.5 115.5 42.5h240c48.667 0 87.5 -14.667 116.5 -44s43.5 -64.666 43.5 -105.999v-420c0 -43.333 -14.833 -79.166 -44.5 -107.499s-68.167 -42.5 -115.5 -42.5z" />
    <glyph glyph-name="P" unicode="P" horiz-adv-x="665" 
d="M260 0l-180 -0.00195312v700h380c48 0 86.667 -14.667 116 -44s44 -64.666 44 -105.999v-185c0 -43.333 -14.833 -79.166 -44.5 -107.499s-68.167 -42.5 -115.5 -42.5h-200v-215zM405 569.998h-145v-225h145c10 0 18.333 3.33301 25 10s10 15 10 25v155
c0 10 -3.33301 18.333 -10 25s-15 10 -25 10z" />
    <glyph glyph-name="Q" unicode="Q" horiz-adv-x="690" 
d="M285 -10h-60c-47.333 0 -85.833 14.167 -115.5 42.5s-44.5 64.166 -44.5 107.499v420c0 43.333 14.833 79.166 44.5 107.499s68.167 42.5 115.5 42.5h240c48.667 0 87.5 -14.667 116.5 -44s43.5 -64.666 43.5 -105.999v-420c0 -43.333 -14.833 -79.166 -44.5 -107.499
s-68.167 -42.5 -115.5 -42.5h-40l70 -70v-60h-155zM280 120h130c10 0 18.333 3.33301 25 10s10 15 10 25v390c0 10 -3.33301 18.333 -10 25s-15 10 -25 10h-130c-10 0 -18.333 -3.33301 -25 -10s-10 -15 -10 -25v-390c0 -10 3.33301 -18.333 10 -25s15 -10 25 -10z" />
    <glyph glyph-name="R" unicode="R" horiz-adv-x="695" 
d="M260 0l-180.001 -0.000976562v700h380c48 0 86.667 -14.667 116 -44s44 -64.666 44 -105.999v-150c0 -44 -17.667 -79.667 -53 -107c-13.333 -10.667 -30.666 -20 -51.999 -28l135 -195v-70h-180l-135 250h-75v-250zM404.999 569.999h-145v-190h145
c10 0 18.333 3.33301 25 10s10 15 10 25v120c0 10 -3.33301 18.333 -10 25s-15 10 -25 10z" />
    <glyph glyph-name="S" unicode="S" 
d="M35 465v85c0 43.333 14.833 79.166 44.5 107.499s68.167 42.5 115.5 42.5h340v-85l-40 -45h-245c-10 0 -18.333 -3.33301 -25 -10s-10 -15 -10 -25v-50c0 -25.333 13.333 -40.333 40 -45l185 -40c36.667 -8.66699 66.667 -26.167 90 -52.5s35 -58.833 35 -97.5v-100
c0 -43.333 -14.833 -79.166 -44.5 -107.499s-68.167 -42.5 -115.5 -42.5h-370v130h315c10 0 18.333 3.33301 25 10s10 15 10 25v65c0 25.333 -13.333 40.333 -40 45l-185 40c-36.667 8.66699 -66.667 26.167 -90 52.5s-35 58.833 -35 97.5z" />
    <glyph glyph-name="T" unicode="T" 
d="M15 570v130h570v-85l-40 -45h-155v-570h-180v570h-195z" />
    <glyph glyph-name="U" unicode="U" horiz-adv-x="720" 
d="M480 -10h-240c-47.333 0 -85.833 14.167 -115.5 42.5s-44.5 64.166 -44.5 107.499v560h180v-545c0 -10 3.33301 -18.333 10 -25s15 -10 25 -10h130c10 0 18.333 3.33301 25 10s10 15 10 25v545h180v-560c0 -43.333 -14.833 -79.166 -44.5 -107.499
s-68.167 -42.5 -115.5 -42.5z" />
    <glyph glyph-name="V" unicode="V" horiz-adv-x="670" 
d="M340 160l125 540h180v-70l-190 -630h-240l-190 630v70h180l125 -540h10z" />
    <glyph glyph-name="W" unicode="W" horiz-adv-x="980" 
d="M595 590l90 -375h10l70 485h180v-70l-125 -630h-225l-100 395h-10l-100 -395h-225l-125 630v70h180l70 -485h10l90 375h210z" />
    <glyph glyph-name="X" unicode="X" horiz-adv-x="650" 
d="M320 265l-115 -265h-180v70l170 285l-155 275v70h180l100 -265h10l100 265h180v-70l-155 -275l170 -285v-70h-180l-115 265h-10z" />
    <glyph glyph-name="Y" unicode="Y" horiz-adv-x="650" 
d="M450 700h180v-70l-215 -425v-205h-180v205l-215 425v70h180l120 -330h10z" />
    <glyph glyph-name="Z" unicode="Z" 
d="M245 130h320v-130h-530v125l310 435v10h-270l-40 45v85h520v-125l-310 -435v-10z" />
    <glyph glyph-name="bracketleft" unicode="[" horiz-adv-x="390" 
d="M260 640v-690h90v-130h-270v950h270v-130h-90z" />
    <glyph glyph-name="backslash" unicode="\" horiz-adv-x="545" 
d="M370 -50l-350 745v55h155l350 -745v-55h-155z" />
    <glyph glyph-name="bracketright" unicode="]" horiz-adv-x="390" 
d="M130 -50v690h-90v130h270v-950h-270v130h90z" />
    <glyph glyph-name="asciicircum" unicode="^" horiz-adv-x="470" 
d="M150 455h-140l160 245h130l160 -245h-140l-80 130h-10z" />
    <glyph glyph-name="underscore" unicode="_" horiz-adv-x="470" 
d="M10 -40h450v-130h-450v130z" />
    <glyph glyph-name="grave" unicode="`" horiz-adv-x="310" 
d="M30 700h175l75 -160h-130z" />
    <glyph glyph-name="a" unicode="a" horiz-adv-x="610" 
d="M190 320l184.998 0.000976562v65c0 7.33301 -3.16699 14.166 -9.5 20.499s-13.166 9.5 -20.499 9.5h-250v120h300c44.667 0 80.834 -13.167 108.501 -39.5s41.5 -59.833 41.5 -100.5v-395h-110l-25 65h-5c-6 -16 -12.667 -28.667 -20 -38
c-19.333 -24.667 -46 -37 -80 -37h-115c-44.667 0 -80.834 13.167 -108.501 39.5s-41.5 59.833 -41.5 100.5v50c0 40.667 13.833 74.167 41.5 100.5s63.834 39.5 108.501 39.5zM209.998 180.001v-40.002c0 -7.33301 3.16699 -14.166 9.5 -20.499s13.166 -9.5 20.499 -9.5h90
c15.333 0 27.333 5.66699 36 17c4 4.66699 7 10.667 9 18v65h-135c-7.33301 0 -14.166 -3.16699 -20.499 -9.5s-9.5 -13.166 -9.5 -20.499z" />
    <glyph glyph-name="b" unicode="b" horiz-adv-x="625" 
d="M245 530h175c44.667 0 80.834 -13.167 108.501 -39.5s41.5 -59.833 41.5 -100.5v-250c0 -40.667 -13.833 -74.167 -41.5 -100.5s-63.834 -39.5 -108.501 -39.5h-345v700h170v-170zM400 150v230.002c0 7.33301 -3.16699 14.166 -9.5 20.499s-13.166 9.5 -20.499 9.5h-125
v-290h125c7.33301 0 14.166 3.16699 20.499 9.5s9.5 13.166 9.5 20.499z" />
    <glyph glyph-name="c" unicode="c" horiz-adv-x="540" 
d="M255 120l250 -0.00195312v-120h-300c-44.667 0 -80.834 13.167 -108.501 39.5s-41.5 59.833 -41.5 100.5v250c0 40.667 13.833 74.167 41.5 100.5s63.834 39.5 108.501 39.5h300v-75l-40 -45h-210c-7.33301 0 -14.166 -3.16699 -20.499 -9.5s-9.5 -13.166 -9.5 -20.499
v-230c0 -7.33301 3.16699 -14.166 9.5 -20.499s13.166 -9.5 20.499 -9.5z" />
    <glyph glyph-name="d" unicode="d" horiz-adv-x="625" 
d="M205 530h175v170h170v-700h-110l-25 65h-5c-6 -16 -12.667 -28.667 -20 -38c-19.333 -24.667 -46 -37 -80 -37h-105c-44.667 0 -80.834 13.167 -108.501 39.5s-41.5 59.833 -41.5 100.5v260c0 40.667 13.833 74.167 41.5 100.5s63.834 39.5 108.501 39.5zM225 380
v-240.002c0 -7.33301 3.16699 -14.166 9.5 -20.499s13.166 -9.5 20.499 -9.5h80c15.333 0 27.333 5.66699 36 17c4 4.66699 7 10.667 9 18v265h-125c-7.33301 0 -14.166 -3.16699 -20.499 -9.5s-9.5 -13.166 -9.5 -20.499z" />
    <glyph glyph-name="e" unicode="e" 
d="M255 120l265 -0.000976562v-120h-315c-44.667 0 -80.834 13.167 -108.501 39.5s-41.5 59.833 -41.5 100.5v260c0 40.667 13.833 74.167 41.5 100.5s63.834 39.5 108.501 39.5h190c44.667 0 80.834 -13.167 108.501 -39.5s41.5 -59.833 41.5 -100.5v-195h-320v-55
c0 -7.33301 3.16699 -14.166 9.5 -20.499s13.166 -9.5 20.499 -9.5zM225 389.999l-0.00195312 -70h150v70c0 7.33301 -3.16699 14.166 -9.5 20.499s-13.166 9.5 -20.499 9.5h-90c-7.33301 0 -14.166 -3.16699 -20.499 -9.5s-9.5 -13.166 -9.5 -20.499z" />
    <glyph glyph-name="f" unicode="f" horiz-adv-x="465" 
d="M440 590l-165.002 -0.000976562c-7.33301 0 -14.166 -3.16699 -20.499 -9.5s-9.5 -13.166 -9.5 -20.499v-105h170v-120h-170v-335h-170v570c0 40.667 13.833 74.167 41.5 100.5s63.834 39.5 108.501 39.5h255v-75z" />
    <glyph glyph-name="g" unicode="g" horiz-adv-x="620" 
d="M225 405v-75c0 -7.33301 3.16699 -14.166 9.5 -20.499s13.166 -9.5 20.499 -9.5h105c7.33301 0 14.166 3.16699 20.499 9.5s9.5 13.166 9.5 20.499v75c0 7.33301 -3.16699 14.166 -9.5 20.499s-13.166 9.5 -20.499 9.5h-105c-7.33301 0 -14.166 -3.16699 -20.499 -9.5
s-9.5 -13.166 -9.5 -20.499zM395 30h-175c-7.33301 0 -14.166 -3.16699 -20.499 -9.5s-9.5 -13.166 -9.5 -20.499v-30c0 -7.33301 3.16699 -14.166 9.5 -20.499s13.166 -9.5 20.499 -9.5h175c7.33301 0 14.166 3.16699 20.499 9.5s9.5 13.166 9.5 20.499v30
c0 7.33301 -3.16699 14.166 -9.5 20.499s-13.166 9.5 -20.499 9.5zM125 100l0.000976562 5.00293c-7.33301 2 -13.333 5.33301 -18 10c-11.333 8.66699 -17 22 -17 40v20c0 16.667 5.66699 30 17 40c4 3.33301 10 6.66602 18 9.99902v5c-11.333 4 -21.333 10 -30 18
c-20 20 -30 47.333 -30 82v75c0 40.667 13.833 74.167 41.5 100.5s63.834 39.5 108.501 39.5h150l25 75h125v-60l-45 -30v-5c14.667 -4.66699 28 -12.667 40 -24c26.667 -25.333 40 -57.333 40 -96v-75c0 -40.667 -13.833 -74.167 -41.5 -100.5
s-63.834 -39.5 -108.501 -39.5h-161c-2.66699 0 -5.66699 -1.33301 -9 -4s-5 -6.33398 -5 -11.001v-20c0 -10 5 -15 15 -15h195c44.667 0 80.834 -13.167 108.501 -39.5s41.5 -59.833 41.5 -100.5v-30c0 -40.667 -13.833 -74.167 -41.5 -100.5s-63.834 -39.5 -108.501 -39.5
h-255c-44.667 0 -80.834 13.167 -108.501 39.5s-41.5 59.833 -41.5 100.5v30c0 35.333 15.667 62.666 47 81.999c14 8 30 14 48 18z" />
    <glyph glyph-name="h" unicode="h" horiz-adv-x="635" 
d="M245 530l174.998 0.000976562c44.667 0 80.834 -13.167 108.501 -39.5s41.5 -59.833 41.5 -100.5v-390h-170v380c0 7.33301 -3.16699 14.166 -9.5 20.499s-13.166 9.5 -20.499 9.5h-125v-410h-170v700h170v-170z" />
    <glyph glyph-name="i" unicode="i" horiz-adv-x="300" 
d="M235 530v-530h-170v530h170zM235 580h-170v140h170v-140z" />
    <glyph glyph-name="j" unicode="j" horiz-adv-x="320" 
d="M-55 -50l110.002 0.000976562c7.33301 0 14.166 3.16699 20.499 9.5s9.5 13.166 9.5 20.499v550h170v-560c0 -40.667 -13.833 -74.167 -41.5 -100.5s-63.834 -39.5 -108.501 -39.5h-160v120zM255.002 580.001h-170v140h170v-140z" />
    <glyph glyph-name="k" unicode="k" horiz-adv-x="610" 
d="M245 700v-375h69l81 205h170v-65l-115 -195l130 -205v-65h-170l-96 205h-69v-205h-170v700h170z" />
    <glyph glyph-name="l" unicode="l" horiz-adv-x="360" 
d="M275 110l45.002 -0.000976562v-120h-95c-44.667 0 -80.834 13.167 -108.501 39.5s-41.5 59.833 -41.5 100.5v570h170v-560c0 -7.33301 3.16699 -14.166 9.5 -20.499s13.166 -9.5 20.499 -9.5z" />
    <glyph glyph-name="m" unicode="m" horiz-adv-x="930" 
d="M550 390l-0.00390625 -389.998h-170v390c0 7.33301 -3.16699 14.166 -9.5 20.499s-13.166 9.5 -20.499 9.5h-70c-14.667 0 -26.667 -6 -36 -18c-4 -4.66699 -7 -10.334 -9 -17.001v-385h-170v530h110l25 -65h5c6 16 12.667 28.333 20 37c20 25.333 46.667 38 80 38h95
c33.333 0 60 -12.667 80 -38c7.33301 -8.66699 14 -21 20 -37h5c6 16 12.667 28.333 20 37c20 25.333 46.667 38 80 38h110c44.667 0 80.834 -13.167 108.501 -39.5s41.5 -59.833 41.5 -100.5v-400h-170v390c0 7.33301 -3.16699 14.166 -9.5 20.499s-13.166 9.5 -20.499 9.5
h-85c-7.33301 0 -14.166 -3.16699 -20.499 -9.5s-9.5 -13.166 -9.5 -20.499z" />
    <glyph glyph-name="n" unicode="n" horiz-adv-x="635" 
d="M305 540l114.998 0.00195312c44.667 0 80.834 -13.167 108.501 -39.5s41.5 -59.833 41.5 -100.5v-400h-170v390c0 7.33301 -3.16699 14.166 -9.5 20.499s-13.166 9.5 -20.499 9.5h-90c-14.667 0 -26.667 -6 -36 -18c-4 -4.66699 -7 -10.334 -9 -17.001v-385h-170v530h110
l25 -65h5c6 16 12.667 28.333 20 37c20 25.333 46.667 38 80 38z" />
    <glyph glyph-name="o" unicode="o" horiz-adv-x="625" 
d="M570 400v-270c0 -40.667 -13.833 -74.167 -41.5 -100.5s-63.834 -39.5 -108.501 -39.5h-215c-44.667 0 -80.834 13.167 -108.501 39.5s-41.5 59.833 -41.5 100.5v270c0 40.667 13.833 74.167 41.5 100.5s63.834 39.5 108.501 39.5h215
c44.667 0 80.834 -13.167 108.501 -39.5s41.5 -59.833 41.5 -100.5zM255 110h115c7.33301 0 14.166 3.16699 20.499 9.5s9.5 13.166 9.5 20.499v250c0 7.33301 -3.16699 14.166 -9.5 20.499s-13.166 9.5 -20.499 9.5h-115c-7.33301 0 -14.166 -3.16699 -20.499 -9.5
s-9.5 -13.166 -9.5 -20.499v-250c0 -7.33301 3.16699 -14.166 9.5 -20.499s13.166 -9.5 20.499 -9.5z" />
    <glyph glyph-name="p" unicode="p" horiz-adv-x="615" 
d="M410 0h-175v-170h-170v700h110l25 -65h5c6 16 12.667 28.333 20 37c20 25.333 46.667 38 80 38h105c44.667 0 80.834 -13.167 108.501 -39.5s41.5 -59.833 41.5 -100.5v-260c0 -40.667 -13.833 -74.167 -41.5 -100.5s-63.834 -39.5 -108.501 -39.5zM390 150v240.003
c0 7.33301 -3.16699 14.166 -9.5 20.499s-13.166 9.5 -20.499 9.5h-80c-14.667 0 -26.667 -6 -36 -18c-4 -4.66699 -7 -10.334 -9 -17.001v-265h125c7.33301 0 14.166 3.16699 20.499 9.5s9.5 13.166 9.5 20.499z" />
    <glyph glyph-name="q" unicode="q" horiz-adv-x="615" 
d="M380 0h-175c-44.667 0 -80.834 13.167 -108.501 39.5s-41.5 59.833 -41.5 100.5v250c0 40.667 13.833 74.167 41.5 100.5s63.834 39.5 108.501 39.5h345v-700h-170v170zM225 380v-230.002c0 -7.33301 3.16699 -14.166 9.5 -20.499s13.166 -9.5 20.499 -9.5h125v290h-125
c-7.33301 0 -14.166 -3.16699 -20.499 -9.5s-9.5 -13.166 -9.5 -20.499z" />
    <glyph glyph-name="r" unicode="r" horiz-adv-x="470" 
d="M305 540l149.999 0.000976562v-120h-175c-14.667 0 -26.667 -6 -36 -18c-4 -4.66699 -7 -10.334 -9 -17.001v-385h-170v530h110l25 -60h5c5.33301 13.333 12 25 20 35c20.667 23.333 47.334 35 80.001 35z" />
    <glyph glyph-name="s" unicode="s" horiz-adv-x="545" 
d="M340 145v20c0 16 -10 26 -30 30l-170 30c-29.333 6 -54.166 20.667 -74.499 44s-30.5 52 -30.5 86v40c0 40.667 13 73.334 39 98.001s61.333 37 106 37h300v-75l-40 -45h-210c-16.667 0 -25 -8.33301 -25 -25v-15c0 -16 10 -26 30 -30l170 -30
c29.333 -6 54.166 -20.667 74.499 -44s30.5 -52 30.5 -86v-45c0 -40.667 -13 -73.334 -39 -98.001s-61.333 -37 -106 -37h-330v120h280c16.667 0 25 8.33301 25 25z" />
    <glyph glyph-name="t" unicode="t" horiz-adv-x="465" 
d="M290 110l160.002 -0.000976562v-120h-210c-44.667 0 -80.834 13.167 -108.501 39.5s-41.5 59.833 -41.5 100.5v280h-70v120h80l60 140h100v-140h135v-120h-135v-270c0 -7.33301 3.16699 -14.166 9.5 -20.499s13.166 -9.5 20.499 -9.5z" />
    <glyph glyph-name="u" unicode="u" horiz-adv-x="635" 
d="M330 -10l-114.998 -0.000976562c-44.667 0 -80.834 13.167 -108.501 39.5s-41.5 59.833 -41.5 100.5v400h170v-390c0 -7.33301 3.16699 -14.166 9.5 -20.499s13.166 -9.5 20.499 -9.5h90c15.333 0 27.333 5.66699 36 17c4 4.66699 7 10.667 9 18v385h170v-530h-110
l-25 65h-5c-6 -16 -12.667 -28.667 -20 -38c-19.333 -24.667 -46 -37 -80 -37z" />
    <glyph glyph-name="v" unicode="v" 
d="M405 0h-210l-165 465v65h170l95 -385h10l95 385h170v-65z" />
    <glyph glyph-name="w" unicode="w" horiz-adv-x="840" 
d="M425 280h-10l-75 -280h-205l-100 465v65h170l45 -340h10l70 265h180l70 -265h10l45 340h170v-65l-100 -465h-205z" />
    <glyph glyph-name="x" unicode="x" horiz-adv-x="570" 
d="M280 350h10l75 180h170v-65l-130 -200l140 -200v-65h-170l-85 185h-10l-85 -185h-170v65l140 200l-130 200v65h170z" />
    <glyph glyph-name="y" unicode="y" horiz-adv-x="580" 
d="M560 465l-185 -515.001c-11.333 -33.333 -31.833 -61.666 -61.5 -84.999s-64.167 -35 -103.5 -35h-115v120h80c25.333 0 40.333 13.333 45 40v10l-200 465v65h170l105 -370h10l85 370h170v-65z" />
    <glyph glyph-name="z" unicode="z" horiz-adv-x="525" 
d="M280 400v10h-210l-40 45v75h455v-115l-250 -285v-10h260v-120h-465v115z" />
    <glyph glyph-name="braceleft" unicode="{" horiz-adv-x="425" 
d="M295 180v-195c0 -10 3.33301 -18.333 10 -25s15 -10 25 -10h55v-130h-110c-47.333 0 -85.833 14.167 -115.5 42.5s-44.5 64.166 -44.5 107.499v210c0 12.667 -4.33301 23.334 -13 32.001s-19.334 13 -32.001 13h-30v140h30c12.667 0 23.334 4.33301 32.001 13
s13 19.334 13 32.001v210c0 43.333 14.833 79.166 44.5 107.499s68.167 42.5 115.5 42.5h110v-130h-55c-10 0 -18.333 -3.33301 -25 -10s-10 -15 -10 -25v-195c0 -38 -16.667 -67.667 -50 -89c-15.333 -9.33301 -32 -16.333 -50 -21v-10c18 -4.66699 34.667 -11.667 50 -21
c33.333 -21.333 50 -51 50 -89z" />
    <glyph glyph-name="bar" unicode="|" horiz-adv-x="340" 
d="M260 770v-980h-180v980h180z" />
    <glyph glyph-name="braceright" unicode="}" horiz-adv-x="425" 
d="M130 -15v195c0 38 16.667 67.667 50 89c15.333 9.33301 32 16.333 50 21v10c-18 4.66699 -34.667 11.667 -50 21c-33.333 21.333 -50 51 -50 89v195c0 10 -3.33301 18.333 -10 25s-15 10 -25 10h-55v130h110c47.333 0 85.833 -14.167 115.5 -42.5
s44.5 -64.166 44.5 -107.499v-210c0 -12.667 4.33301 -23.334 13 -32.001s19.334 -13 32.001 -13h30v-140h-30c-12.667 0 -23.334 -4.33301 -32.001 -13s-13 -19.334 -13 -32.001v-210c0 -43.333 -14.833 -79.166 -44.5 -107.499s-68.167 -42.5 -115.5 -42.5h-110v130h55
c10 0 18.333 3.33301 25 10s10 15 10 25z" />
    <glyph glyph-name="asciitilde" unicode="~" horiz-adv-x="525" 
d="M480 435v-145c0 -22.667 -7.66699 -41.667 -23 -57s-34.333 -23 -57 -23h-50c-20 0 -38 5 -54 15c-6.66699 4 -13.667 9 -21 15l-65 60l-8 7c-5.33301 5.33301 -9.33301 8 -12 8c-6.66699 0 -10 -3.33301 -10 -10v-85h-135v145c0 22.667 7.66699 41.667 23 57
s34.333 23 57 23h50c17.333 0 35.333 -5 54 -15l21 -15l65 -60l8 -8c4.66699 -4.66699 8.66699 -7 12 -7c6.66699 0 10 3.33301 10 10v85h135z" />
    <glyph glyph-name="nbspace" unicode="&#xa0;" horiz-adv-x="310" 
 />
    <glyph glyph-name="exclamdown" unicode="&#xa1;" horiz-adv-x="330" 
d="M70 -20l30 320h130l30 -320v-150h-190v150zM90 530h150v-150h-150v150z" />
    <glyph glyph-name="cent" unicode="&#xa2;" horiz-adv-x="540" 
d="M390 600v-70.002h115v-75l-40 -45h-210c-7.33301 0 -14.166 -3.16699 -20.499 -9.5s-9.5 -13.166 -9.5 -20.499v-230c0 -7.33301 3.16699 -14.166 9.5 -20.499s13.166 -9.5 20.499 -9.5h250v-120h-115v-70h-180v70h-5c-44.667 0 -80.834 13.167 -108.501 39.5
s-41.5 59.833 -41.5 100.5v250c0 40.667 13.833 74.167 41.5 100.5s63.834 39.5 108.501 39.5h5v70h180z" />
    <glyph glyph-name="sterling" unicode="&#xa3;" horiz-adv-x="585" 
d="M125 220l-0.00195312 104.998h-60v120h60v125c0 40.667 13.833 74.167 41.5 100.5s63.834 39.5 108.501 39.5h250v-75l-40 -45h-160c-7.33301 0 -14.166 -3.16699 -20.499 -9.5s-9.5 -13.166 -9.5 -20.499v-115h135v-120h-135v-105c0 -27.333 -9.33301 -48.333 -28 -63
c-8.66699 -7.33301 -17.667 -13 -27 -17v-10h315v-130h-525v130h30c13.333 6.66699 24 14 32 22c22 20.667 33 43.334 33 68.001z" />
    <glyph glyph-name="currency" unicode="&#xa4;" horiz-adv-x="690" 
d="M35 215l70 -0.00195312v60h-70v110h70v315h380c48.667 0 87.5 -14.667 116.5 -44s43.5 -64.666 43.5 -105.999v-125c0 -43.333 -14.833 -79.166 -44.5 -107.499s-68.167 -42.5 -115.5 -42.5h-200v-60h245v-110h-245v-105h-180v105h-70v110zM430 569.998h-145v-185h145
c10 0 18.333 3.33301 25 10s10 15 10 25v115c0 10 -3.33301 18.333 -10 25s-15 10 -25 10z" />
    <glyph glyph-name="yen" unicode="&#xa5;" horiz-adv-x="650" 
d="M493 360h67v-120h-128l-17 -35v-15h145v-120h-145v-70h-180v70h-145v120h145v15l-18 35h-127v120h66l-136 270v70h180l120 -330h10l120 330h180v-70z" />
    <glyph glyph-name="brokenbar" unicode="&#xa6;" horiz-adv-x="340" 
d="M260 -210h-180v410h180v-410zM260 770v-410h-180v410h180z" />
    <glyph glyph-name="section" unicode="&#xa7;" horiz-adv-x="585" 
d="M370 215v90c0 16.667 -8.33301 26.667 -25 30l-95 15c-10 0 -18.333 -3.33301 -25 -10s-10 -15 -10 -25v-90c0 -16.667 8.33301 -26.667 25 -30l95 -15c10 0 18.333 3.33301 25 10s10 15 10 25zM45 210v99.999c0 32 12.333 56.333 37 73c12 7.33301 24.667 13 38 17v10
c-12 4 -23 9.66699 -33 17c-21.333 17.333 -32 41.666 -32 72.999v60c0 40.667 13.833 74.167 41.5 100.5s63.834 39.5 108.501 39.5h300v-75l-40 -45h-210c-7.33301 0 -14.166 -3.16699 -20.499 -9.5s-9.5 -13.166 -9.5 -20.499v-50c0 -7.33301 3 -13.833 9 -19.5
s13 -9.16699 21 -10.5l165 -25c32.667 -5.33301 60.834 -20.166 84.501 -44.499s35.5 -51.166 35.5 -80.499v-95c0 -30.667 -11.667 -55 -35 -73c-12.667 -8 -24.334 -13.667 -35.001 -17v-10c10.667 -3.33301 22.334 -9 35.001 -17c23.333 -18 35 -42.333 35 -73v-65
c0 -40.667 -13.833 -74.167 -41.5 -100.5s-63.834 -39.5 -108.501 -39.5h-335v120h285c7.33301 0 14.166 3.16699 20.499 9.5s9.5 13.166 9.5 20.499v50c0 7.33301 -3 13.833 -9 19.5s-13 9.16699 -21 10.5l-175 25c-32.667 4 -60.834 18.333 -84.501 43s-35.5 52 -35.5 82z
" />
    <glyph glyph-name="dieresis" unicode="&#xa8;" horiz-adv-x="430" 
d="M180 560h-150v140h150v-140zM400 560h-150v140h150v-140z" />
    <glyph glyph-name="copyright" unicode="&#xa9;" horiz-adv-x="985" 
d="M629 460h-150c-20 0 -30 -10 -30 -30v-160c0 -20 10 -30 30 -30h180v-100h-220c-42 0 -74.167 10.5 -96.5 31.5s-33.5 50.5 -33.5 88.5v180c0 38 11.167 67.5 33.5 88.5s54.5 31.5 96.5 31.5h220v-65zM920 580v-460c0 -43.333 -14.833 -79.166 -44.5 -107.499
s-68.167 -42.5 -115.5 -42.5h-535c-47.333 0 -85.833 14.167 -115.5 42.5s-44.5 64.166 -44.5 107.499v460c0 43.333 14.833 79.166 44.5 107.499s68.167 42.5 115.5 42.5h535c47.333 0 85.833 -14.167 115.5 -42.5s44.5 -64.166 44.5 -107.499zM235 575v-450
c0 -10 3.33301 -18.333 10 -25s15 -10 25 -10h445c10 0 18.333 3.33301 25 10s10 15 10 25v450c0 10 -3.33301 18.333 -10 25s-15 10 -25 10h-445c-10 0 -18.333 -3.33301 -25 -10s-10 -15 -10 -25z" />
    <glyph glyph-name="ordfeminine" unicode="&#xaa;" horiz-adv-x="410" 
d="M285 415l-5.00195 0.000976562c-4 -8.66699 -9.33301 -16.334 -16 -23.001c-14.667 -14.667 -32.667 -22 -54 -22h-60c-36 0 -64.167 10 -84.5 30s-30.5 44.667 -30.5 74s9.83301 53.333 29.5 72s47.834 28 84.501 28h101v21c0 20 -10 30 -30 30h-140v85h175
c36.667 0 65.834 -9.5 87.501 -28.5s32.5 -42.833 32.5 -71.5v-230h-73zM154.998 474.001c0 -10.667 1.83203 -18.166 5.49902 -22.499s10.167 -6.5 19.5 -6.5h30c12 0 21.667 3 29 9s11 13 11 21v29h-71c-9.33301 0 -15.666 -2.33301 -18.999 -7s-5 -12.334 -5 -23.001z
" />
    <glyph glyph-name="guillemotleft" unicode="&#xab;" horiz-adv-x="590" 
d="M65 260l100 205h130v-55l-75 -150l75 -150v-55h-130zM295 260l100 205h130v-55l-75 -150l75 -150v-55h-130z" />
    <glyph glyph-name="logicalnot" unicode="&#xac;" horiz-adv-x="510" 
d="M30 450h450v-230h-145v100h-305v130z" />
    <glyph glyph-name="uni00AD" unicode="&#xad;" horiz-adv-x="490" 
d="M30 380h430v-130h-430v130z" />
    <glyph glyph-name="registered" unicode="&#xae;" horiz-adv-x="985" 
d="M920 580v-460c0 -43.333 -14.833 -79.166 -44.5 -107.499s-68.167 -42.5 -115.5 -42.5h-535c-47.333 0 -85.833 14.167 -115.5 42.5s-44.5 64.166 -44.5 107.499v460c0 43.333 14.833 79.166 44.5 107.499s68.167 42.5 115.5 42.5h535
c47.333 0 85.833 -14.167 115.5 -42.5s44.5 -64.166 44.5 -107.499zM235 575v-450c0 -10 3.33301 -18.333 10 -25s15 -10 25 -10h445c10 0 18.333 3.33301 25 10s10 15 10 25v450c0 10 -3.33301 18.333 -10 25s-15 10 -25 10h-445c-10 0 -18.333 -3.33301 -25 -10
s-10 -15 -10 -25zM445 140h-139.999v420h250c42 0 74.167 -10.5 96.5 -31.5s33.5 -50.5 33.5 -88.5v-40c0 -30 -11.667 -55.333 -35 -76c-10.667 -8 -22.334 -14.333 -35.001 -19l85 -110v-55h-140l-70 140h-45v-140zM515.001 465h-70v-90h70c20 0 30 10 30 30v30
c0 20 -10 30 -30 30z" />
    <glyph glyph-name="macron" unicode="&#xaf;" horiz-adv-x="415" 
d="M370 700v-110h-325v110h325z" />
    <glyph glyph-name="degree" unicode="&#xb0;" horiz-adv-x="435" 
d="M390 610v-140c0 -28.667 -10.833 -52.5 -32.5 -71.5s-50.834 -28.5 -87.501 -28.5h-105c-36.667 0 -65.834 9.5 -87.501 28.5s-32.5 42.833 -32.5 71.5v140c0 28.667 10.833 52.5 32.5 71.5s50.834 28.5 87.501 28.5h105c36.667 0 65.834 -9.5 87.501 -28.5
s32.5 -42.833 32.5 -71.5zM175 590v-100c0 -20 10 -30 30 -30h25c20 0 30 10 30 30v100c0 20 -10 30 -30 30h-25c-20 0 -30 -10 -30 -30z" />
    <glyph glyph-name="plusminus" unicode="&#xb1;" horiz-adv-x="530" 
d="M40 460h160v165h130v-165h160v-130h-160v-140h160v-130h-450v130h160v140h-160v130z" />
    <glyph glyph-name="twosuperior" unicode="&#xb2;" horiz-adv-x="360" 
d="M325 370h-290v80l140 100l10 9c6.66699 9.33301 10 16.333 10 21c0 20 -10 30 -30 30h-120v90h160c36.667 0 65.834 -9.5 87.501 -28.5s32.5 -42.833 32.5 -71.5c0 -22 -11 -44.667 -33 -68c-8.66699 -9.33301 -19.334 -18.333 -32.001 -27l-55 -35v-10h120v-90z" />
    <glyph glyph-name="threesuperior" unicode="&#xb3;" horiz-adv-x="360" 
d="M325 470v-10.001c0 -23.333 -10.5 -44.166 -31.5 -62.499s-47.167 -27.5 -78.5 -27.5h-180v80h130c20 0 30 10 30 30s-10 30 -30 30h-75v50l85 50v10h-140v80h275v-80l-95 -60c32.667 0 59.167 -8 79.5 -24s30.5 -38 30.5 -66z" />
    <glyph glyph-name="acute" unicode="&#xb4;" horiz-adv-x="310" 
d="M105 700h175l-120 -160h-130z" />
    <glyph glyph-name="mu" unicode="&#xb5;" horiz-adv-x="635" 
d="M330 -10l-48.999 -0.000976562c-8 0 -17.333 3.33301 -28 10c-4.66699 2.66699 -9 6 -13 10h-5v-180h-170v700h170v-390c0 -7.33301 3.16699 -14.166 9.5 -20.499s13.166 -9.5 20.499 -9.5h90c15.333 0 27.333 5.66699 36 17c4 4.66699 7 10.667 9 18v385h170v-530h-110
l-25 65h-5c-6 -16 -12.667 -28.667 -20 -38c-19.333 -24.667 -46 -37 -80 -37z" />
    <glyph glyph-name="paragraph" unicode="&#xb6;" horiz-adv-x="670" 
d="M190 700h455v-130h-80v-740h-150v740h-55v-740h-150v480h-20c-44.667 0 -80.834 13.167 -108.501 39.5s-41.5 59.833 -41.5 100.5v110c0 40.667 13.833 74.167 41.5 100.5s63.834 39.5 108.501 39.5z" />
    <glyph glyph-name="periodcentered" unicode="&#xb7;" horiz-adv-x="310" 
d="M230 275h-150v150h150v-150z" />
    <glyph glyph-name="cedilla" unicode="&#xb8;" horiz-adv-x="306" 
d="M46 -115v115h95v-35h40c28 0 50.833 -8.5 68.5 -25.5s26.5 -38.5 26.5 -64.5v-31c0 -24.667 -9 -45.667 -27 -63s-40.667 -26 -68 -26h-151v80h101c16.667 0 25 8.33301 25 25s-8.33301 25 -25 25h-85z" />
    <glyph glyph-name="onesuperior" unicode="&#xb9;" horiz-adv-x="270" 
d="M105 610h-70v70l100 20h100v-330h-130v240z" />
    <glyph glyph-name="ordmasculine" unicode="&#xba;" horiz-adv-x="405" 
d="M370 610v-140c0 -28.667 -10.833 -52.5 -32.5 -71.5s-50.834 -28.5 -87.501 -28.5h-95c-36.667 0 -65.834 9.5 -87.501 28.5s-32.5 42.833 -32.5 71.5v140c0 28.667 10.833 52.5 32.5 71.5s50.834 28.5 87.501 28.5h95c36.667 0 65.834 -9.5 87.501 -28.5
s32.5 -42.833 32.5 -71.5zM165 590v-100c0 -20 10 -30 30 -30h15c20 0 30 10 30 30v100c0 20 -10 30 -30 30h-15c-20 0 -30 -10 -30 -30z" />
    <glyph glyph-name="guillemotright" unicode="&#xbb;" horiz-adv-x="590" 
d="M425 465l100 -205l-100 -205h-130v55l75 150l-75 150v55h130zM195 465l100 -205l-100 -205h-130v55l75 150l-75 150v55h130z" />
    <glyph glyph-name="onequarter" unicode="&#xbc;" horiz-adv-x="816" 
d="M526 700h145v-60l-400 -640h-145v60zM105 610h-70v70l100 20h100v-330h-130v240zM606 330h135v-205h40v-80h-40v-45h-120v45h-175v70zM561 130v-5h60v80h-5z" />
    <glyph glyph-name="onehalf" unicode="&#xbd;" horiz-adv-x="841" 
d="M526 700h145v-60l-400 -640h-145v60zM105 610h-70v70l100 20h100v-330h-130v240zM806 0h-290v80l140 100l10 9c6.66699 9.33301 10 16.333 10 21c0 20 -10 30 -30 30h-120v90h160c36.667 0 65.834 -9.5 87.501 -28.5s32.5 -42.833 32.5 -71.5c0 -22 -11 -44.667 -33 -68
c-8.66699 -9.33301 -19.334 -18.333 -32.001 -27l-55 -35v-10h120v-90z" />
    <glyph glyph-name="threequarters" unicode="&#xbe;" horiz-adv-x="855" 
d="M565 700h145v-60l-400 -640h-145v60zM645 330h135v-205h40v-80h-40v-45h-120v45h-175v70zM600 130v-5h60v80h-5zM325 470v-10.001c0 -23.333 -10.5 -44.166 -31.5 -62.499s-47.167 -27.5 -78.5 -27.5h-180v80h130c20 0 30 10 30 30s-10 30 -30 30h-75v50l85 50v10h-140
v80h275v-80l-95 -60c32.667 0 59.167 -8 79.5 -24s30.5 -38 30.5 -66z" />
    <glyph glyph-name="questiondown" unicode="&#xbf;" horiz-adv-x="505" 
d="M240 530h150v-150h-150v150zM220 45v-50c0 -10 3.33301 -18.333 10 -25s15 -10 25 -10h230l40 -45v-85h-325c-47.333 0 -85.833 14.167 -115.5 42.5s-44.5 64.166 -44.5 107.499v85c0 48.667 18.333 82 55 100l110 55c20 10.667 30 24 30 40v40h160v-70
c0 -48.667 -18.333 -82 -55 -100l-90 -45c-20 -11.333 -30 -24.666 -30 -39.999z" />
    <glyph glyph-name="Agrave" unicode="&#xc0;" horiz-adv-x="690" 
d="M485 0l-35 150h-210l-35 -150h-180v70l200 630h240l200 -630v-70h-180zM415 280l-65 260h-10l-65 -260h140zM170 930h175l75 -160h-130z" />
    <glyph glyph-name="Aacute" unicode="&#xc1;" horiz-adv-x="690" 
d="M485 0l-35 150h-210l-35 -150h-180v70l200 630h240l200 -630v-70h-180zM415 280l-65 260h-10l-65 -260h140zM355 930h175l-120 -160h-130z" />
    <glyph glyph-name="Acircumflex" unicode="&#xc2;" horiz-adv-x="690" 
d="M485 0l-35 150h-210l-35 -150h-180v70l200 630h240l200 -630v-70h-180zM415 280l-65 260h-10l-65 -260h140zM280 770h-135l125 150h150l125 -150h-135l-65 70z" />
    <glyph glyph-name="Atilde" unicode="&#xc3;" horiz-adv-x="690" 
d="M485 0l-35 150h-210l-35 -150h-180v70l200 630h240l200 -630v-70h-180zM415 280l-65 260h-10l-65 -260h140zM180 765l0.000976562 95.001c0 20 7 36.667 21 50s32 20 54 20h15c10 0 21.667 -4.33301 35 -13c5.33301 -2 12 -6 20 -12l45 -30
c4.66699 -3.33301 7.33398 -5 8.00098 -5c5.33301 -3.33301 9.33301 -5 12 -5c6.66699 0 10 5 10 15v45h110v-95c0 -20 -7 -36.667 -21 -50s-32 -20 -54 -20h-15c-10.667 0 -22.334 4 -35.001 12c-3.33301 1.33301 -10 5.66602 -20 12.999l-45 30
c-0.666992 0 -3.33398 1.66699 -8.00098 5s-8.66699 5 -12 5c-6.66699 0 -10 -5 -10 -15v-45h-110z" />
    <glyph glyph-name="Adieresis" unicode="&#xc4;" horiz-adv-x="690" 
d="M485 0l-35 150h-210l-35 -150h-180v70l200 630h240l200 -630v-70h-180zM415 280l-65 260h-10l-65 -260h140zM310 770h-150v140h150v-140zM530 770h-150v140h150v-140z" />
    <glyph glyph-name="Aring" unicode="&#xc5;" horiz-adv-x="690" 
d="M485 0l-35 150h-210l-35 -150h-180v70l196 617c-4 10 -6 21 -6 33v40c0 26 8.83301 47.5 26.5 64.5s40.5 25.5 68.5 25.5h70c28 0 50.833 -8.5 68.5 -25.5s26.5 -38.5 26.5 -64.5v-40c0 -12 -2 -23 -6 -33l196 -617v-70h-180zM415 280l-65 260h-10l-65 -260h140zM355 780
l-20 -0.000976562c-13.333 0 -20 -6.66699 -20 -20v-40c0 -13.333 6.66699 -20 20 -20h22c12 0.666992 18 7.33398 18 20.001v40c0 13.333 -6.66699 20 -20 20z" />
    <glyph glyph-name="AE" unicode="&#xc6;" horiz-adv-x="1005" 
d="M970 700v-85l-40 -45h-275v-150h225v-130h-225v-160h315v-130h-495v180h-220l-65 -180h-175v70l275 630h680zM405 570l-100 -260h170v260h-70z" />
    <glyph glyph-name="Ccedilla" unicode="&#xc7;" horiz-adv-x="605" 
d="M280 130l290 0.00195312v-130h-220v-35h40c28 0 50.833 -8.5 68.5 -25.5s26.5 -38.5 26.5 -64.5v-31c0 -24.667 -9 -45.667 -27 -63s-40.667 -26 -68 -26h-151v80h101c16.667 0 25 8.33301 25 25s-8.33301 25 -25 25h-85v115h-30c-47.333 0 -85.833 14.167 -115.5 42.5
s-44.5 64.166 -44.5 107.499v400c0 43.333 14.833 79.166 44.5 107.499s68.167 42.5 115.5 42.5h345v-85l-40 -45h-250c-10 0 -18.333 -3.33301 -25 -10s-10 -15 -10 -25v-370c0 -10 3.33301 -18.333 10 -25s15 -10 25 -10z" />
    <glyph glyph-name="Egrave" unicode="&#xc8;" horiz-adv-x="615" 
d="M580 700v-85l-40 -45h-280v-150h230v-130h-230v-160h320v-130h-500v700h500zM162 930h175l75 -160h-130z" />
    <glyph glyph-name="Eacute" unicode="&#xc9;" horiz-adv-x="615" 
d="M580 700v-85l-40 -45h-280v-150h230v-130h-230v-160h320v-130h-500v700h500zM307 930h175l-120 -160h-130z" />
    <glyph glyph-name="Ecircumflex" unicode="&#xca;" horiz-adv-x="615" 
d="M580 700v-85l-40 -45h-280v-150h230v-130h-230v-160h320v-130h-500v700h500zM262 770h-135l125 150h150l125 -150h-135l-65 70z" />
    <glyph glyph-name="Edieresis" unicode="&#xcb;" horiz-adv-x="615" 
d="M580 700v-85l-40 -45h-280v-150h230v-130h-230v-160h320v-130h-500v700h500zM292 770h-150v140h150v-140zM512 770h-150v140h150v-140z" />
    <glyph glyph-name="Igrave" unicode="&#xcc;" horiz-adv-x="340" 
d="M260 0h-180v700h180v-700zM-4 930h175l75 -160h-130z" />
    <glyph glyph-name="Iacute" unicode="&#xcd;" horiz-adv-x="340" 
d="M260 0h-180v700h180v-700zM170 930h175l-120 -160h-130z" />
    <glyph glyph-name="Icircumflex" unicode="&#xce;" horiz-adv-x="340" 
d="M260 0h-180v700h180v-700zM106 770h-135l125 150h150l125 -150h-135l-65 70z" />
    <glyph glyph-name="Idieresis" unicode="&#xcf;" horiz-adv-x="340" 
d="M260 0h-180v700h180v-700zM136 770h-150v140h150v-140zM356 770h-150v140h150v-140z" />
    <glyph glyph-name="Eth" unicode="&#xd0;" horiz-adv-x="690" 
d="M465 0l-385 -0.00195312v300h-60v110h60v290h385c47.333 0 85.833 -14.167 115.5 -42.5s44.5 -64.166 44.5 -107.499v-400c0 -43.333 -14.833 -79.166 -44.5 -107.499s-68.167 -42.5 -115.5 -42.5zM410 569.998h-150v-160h115v-110h-115v-170h150
c10 0 18.333 3.33301 25 10s10 15 10 25v370c0 10 -3.33301 18.333 -10 25s-15 10 -25 10z" />
    <glyph glyph-name="Ntilde" unicode="&#xd1;" horiz-adv-x="710" 
d="M630 700v-700h-195l-200 440h-10l35 -240v-200h-180v700h195l200 -440h10l-35 240v200h180zM190 775l0.00195312 95.001c0 20 7 36.667 21 50s32 20 54 20h15c10 0 21.667 -4.33301 35 -13c5.33301 -2 12 -6 20 -12l45 -30c4.66699 -3.33301 7.33398 -5 8.00098 -5
c5.33301 -3.33301 9.33301 -5 12 -5c6.66699 0 10 5 10 15v45h110v-95c0 -20 -7 -36.667 -21 -50s-32 -20 -54 -20h-15c-10.667 0 -22.334 4 -35.001 12c-2.66699 1.33301 -9.33398 5.66602 -20.001 12.999l-45 30c-0.666992 0 -3.33398 1.66699 -8.00098 5
s-8.66699 5 -12 5c-6.66699 0 -10 -5 -10 -15v-45h-110z" />
    <glyph glyph-name="Ograve" unicode="&#xd2;" horiz-adv-x="690" 
d="M280 120h130c10 0 18.333 3.33301 25 10s10 15 10 25v390c0 10 -3.33301 18.333 -10 25s-15 10 -25 10h-130c-10 0 -18.333 -3.33301 -25 -10s-10 -15 -10 -25v-390c0 -10 3.33301 -18.333 10 -25s15 -10 25 -10zM465 -10h-240c-47.333 0 -85.833 14.167 -115.5 42.5
s-44.5 64.166 -44.5 107.499v420c0 43.333 14.833 79.166 44.5 107.499s68.167 42.5 115.5 42.5h240c48.667 0 87.5 -14.667 116.5 -44s43.5 -64.666 43.5 -105.999v-420c0 -43.333 -14.833 -79.166 -44.5 -107.499s-68.167 -42.5 -115.5 -42.5zM180 930h175l75 -160h-130z
" />
    <glyph glyph-name="Oacute" unicode="&#xd3;" horiz-adv-x="690" 
d="M280 120h130c10 0 18.333 3.33301 25 10s10 15 10 25v390c0 10 -3.33301 18.333 -10 25s-15 10 -25 10h-130c-10 0 -18.333 -3.33301 -25 -10s-10 -15 -10 -25v-390c0 -10 3.33301 -18.333 10 -25s15 -10 25 -10zM465 -10h-240c-47.333 0 -85.833 14.167 -115.5 42.5
s-44.5 64.166 -44.5 107.499v420c0 43.333 14.833 79.166 44.5 107.499s68.167 42.5 115.5 42.5h240c48.667 0 87.5 -14.667 116.5 -44s43.5 -64.666 43.5 -105.999v-420c0 -43.333 -14.833 -79.166 -44.5 -107.499s-68.167 -42.5 -115.5 -42.5zM355 930h175l-120 -160h-130
z" />
    <glyph glyph-name="Ocircumflex" unicode="&#xd4;" horiz-adv-x="690" 
d="M280 120h130c10 0 18.333 3.33301 25 10s10 15 10 25v390c0 10 -3.33301 18.333 -10 25s-15 10 -25 10h-130c-10 0 -18.333 -3.33301 -25 -10s-10 -15 -10 -25v-390c0 -10 3.33301 -18.333 10 -25s15 -10 25 -10zM465 -10h-240c-47.333 0 -85.833 14.167 -115.5 42.5
s-44.5 64.166 -44.5 107.499v420c0 43.333 14.833 79.166 44.5 107.499s68.167 42.5 115.5 42.5h240c48.667 0 87.5 -14.667 116.5 -44s43.5 -64.666 43.5 -105.999v-420c0 -43.333 -14.833 -79.166 -44.5 -107.499s-68.167 -42.5 -115.5 -42.5zM280 770h-135l125 150h150
l125 -150h-135l-65 70z" />
    <glyph glyph-name="Otilde" unicode="&#xd5;" horiz-adv-x="690" 
d="M280 120h130c10 0 18.333 3.33301 25 10s10 15 10 25v390c0 10 -3.33301 18.333 -10 25s-15 10 -25 10h-130c-10 0 -18.333 -3.33301 -25 -10s-10 -15 -10 -25v-390c0 -10 3.33301 -18.333 10 -25s15 -10 25 -10zM465 -10h-240c-47.333 0 -85.833 14.167 -115.5 42.5
s-44.5 64.166 -44.5 107.499v420c0 43.333 14.833 79.166 44.5 107.499s68.167 42.5 115.5 42.5h240c48.667 0 87.5 -14.667 116.5 -44s43.5 -64.666 43.5 -105.999v-420c0 -43.333 -14.833 -79.166 -44.5 -107.499s-68.167 -42.5 -115.5 -42.5zM180 775l0.000976562 95.001
c0 20 7 36.667 21 50s32 20 54 20h15c10 0 21.667 -4.33301 35 -13c5.33301 -2 12 -6 20 -12l45 -30c4.66699 -3.33301 7.33398 -5 8.00098 -5c5.33301 -3.33301 9.33301 -5 12 -5c6.66699 0 10 5 10 15v45h110v-95c0 -20 -7 -36.667 -21 -50s-32 -20 -54 -20h-15
c-10.667 0 -22.334 4 -35.001 12c-3.33301 1.33301 -10 5.66602 -20 12.999l-45 30c-0.666992 0 -3.33398 1.66699 -8.00098 5s-8.66699 5 -12 5c-6.66699 0 -10 -5 -10 -15v-45h-110z" />
    <glyph glyph-name="Odieresis" unicode="&#xd6;" horiz-adv-x="690" 
d="M280 120h130c10 0 18.333 3.33301 25 10s10 15 10 25v390c0 10 -3.33301 18.333 -10 25s-15 10 -25 10h-130c-10 0 -18.333 -3.33301 -25 -10s-10 -15 -10 -25v-390c0 -10 3.33301 -18.333 10 -25s15 -10 25 -10zM465 -10h-240c-47.333 0 -85.833 14.167 -115.5 42.5
s-44.5 64.166 -44.5 107.499v420c0 43.333 14.833 79.166 44.5 107.499s68.167 42.5 115.5 42.5h240c48.667 0 87.5 -14.667 116.5 -44s43.5 -64.666 43.5 -105.999v-420c0 -43.333 -14.833 -79.166 -44.5 -107.499s-68.167 -42.5 -115.5 -42.5zM310 770h-150v140h150v-140z
M530 770h-150v140h150v-140z" />
    <glyph glyph-name="multiply" unicode="&#xd7;" horiz-adv-x="510" 
d="M255 215l-125 -120l-90 95l125 115l-125 115l90 95l125 -120l125 120l90 -95l-125 -115l125 -115l-90 -95z" />
    <glyph glyph-name="Oslash" unicode="&#xd8;" horiz-adv-x="690" 
d="M617 695l-24 -42c21.333 -27.333 32 -58.333 32 -93v-420c0 -43.333 -14.833 -79.166 -44.5 -107.499s-68.167 -42.5 -115.5 -42.5h-240h-6l-22 -40h-125v55l24 43c-20.667 25.333 -31 56 -31 92v420c0 43.333 14.833 79.166 44.5 107.499s68.167 42.5 115.5 42.5h240h4
l23 40h125v-55zM283 120h127c10 0 18.333 3.33301 25 10s10 15 10 25v265zM245 545v-263l161 298h-126c-10 0 -18.333 -3.33301 -25 -10s-10 -15 -10 -25z" />
    <glyph glyph-name="Ugrave" unicode="&#xd9;" horiz-adv-x="720" 
d="M480 -10h-240c-47.333 0 -85.833 14.167 -115.5 42.5s-44.5 64.166 -44.5 107.499v560h180v-545c0 -10 3.33301 -18.333 10 -25s15 -10 25 -10h130c10 0 18.333 3.33301 25 10s10 15 10 25v545h180v-560c0 -43.333 -14.833 -79.166 -44.5 -107.499
s-68.167 -42.5 -115.5 -42.5zM195 930h175l75 -160h-130z" />
    <glyph glyph-name="Uacute" unicode="&#xda;" horiz-adv-x="720" 
d="M480 -10h-240c-47.333 0 -85.833 14.167 -115.5 42.5s-44.5 64.166 -44.5 107.499v560h180v-545c0 -10 3.33301 -18.333 10 -25s15 -10 25 -10h130c10 0 18.333 3.33301 25 10s10 15 10 25v545h180v-560c0 -43.333 -14.833 -79.166 -44.5 -107.499
s-68.167 -42.5 -115.5 -42.5zM360 930h175l-120 -160h-130z" />
    <glyph glyph-name="Ucircumflex" unicode="&#xdb;" horiz-adv-x="720" 
d="M480 -10h-240c-47.333 0 -85.833 14.167 -115.5 42.5s-44.5 64.166 -44.5 107.499v560h180v-545c0 -10 3.33301 -18.333 10 -25s15 -10 25 -10h130c10 0 18.333 3.33301 25 10s10 15 10 25v545h180v-560c0 -43.333 -14.833 -79.166 -44.5 -107.499
s-68.167 -42.5 -115.5 -42.5zM295 770h-135l125 150h150l125 -150h-135l-65 70z" />
    <glyph glyph-name="Udieresis" unicode="&#xdc;" horiz-adv-x="720" 
d="M480 -10h-240c-47.333 0 -85.833 14.167 -115.5 42.5s-44.5 64.166 -44.5 107.499v560h180v-545c0 -10 3.33301 -18.333 10 -25s15 -10 25 -10h130c10 0 18.333 3.33301 25 10s10 15 10 25v545h180v-560c0 -43.333 -14.833 -79.166 -44.5 -107.499
s-68.167 -42.5 -115.5 -42.5zM325 770h-150v140h150v-140zM545 770h-150v140h150v-140z" />
    <glyph glyph-name="Yacute" unicode="&#xdd;" horiz-adv-x="650" 
d="M450 700h180v-70l-215 -425v-205h-180v205l-215 425v70h180l120 -330h10zM325 910h175l-120 -160h-130z" />
    <glyph glyph-name="Thorn" unicode="&#xde;" horiz-adv-x="665" 
d="M260 0l-180 -0.00195312v700h180v-100h200c48 0 86.667 -14.667 116 -44s44 -64.666 44 -105.999v-205c0 -43.333 -14.833 -79.166 -44.5 -107.499s-68.167 -42.5 -115.5 -42.5h-200v-95zM405 469.998h-145v-245h145c10 0 18.333 3.33301 25 10s10 15 10 25v175
c0 10 -3.33301 18.333 -10 25s-15 10 -25 10z" />
    <glyph glyph-name="germandbls" unicode="&#xdf;" horiz-adv-x="670" 
d="M540 565c0 -28.667 -6.33594 -52.998 -19.0029 -72.998s-25.167 -38.167 -37.5 -54.5s-18.5 -33.833 -18.5 -52.5v-15c0 -14.667 5.83301 -27.834 17.5 -39.501s25.834 -21.834 42.501 -30.501s33.334 -18 50.001 -28s30.834 -22.833 42.501 -38.5s17.5 -33.5 17.5 -53.5
v-45c0 -40.667 -13 -73.334 -39 -98.001s-61.333 -37 -106 -37h-195v120h145c16.667 0 25 8.33301 25 25v20c0 14 -8.33301 27.333 -25 40s-35 23.834 -55 33.501s-38.333 25.5 -55 47.5s-25 48.333 -25 79v20c0 28.667 5.5 52.834 16.5 72.501s21.833 36.834 32.5 51.501
s16 30 16 46c0 16.667 -8.33301 25 -25 25h-70c-10 0 -18.333 -3.33301 -25 -10s-10 -15 -10 -25v-545h-170v550c0 43.333 14.833 79.166 44.5 107.499s68.167 42.5 115.5 42.5h165c44.667 0 80 -12.333 106 -37s39 -57.334 39 -98.001z" />
    <glyph glyph-name="agrave" unicode="&#xe0;" horiz-adv-x="610" 
d="M190 320l184.998 0.000976562v65c0 7.33301 -3.16699 14.166 -9.5 20.499s-13.166 9.5 -20.499 9.5h-250v120h300c44.667 0 80.834 -13.167 108.501 -39.5s41.5 -59.833 41.5 -100.5v-395h-110l-25 65h-5c-6 -16 -12.667 -28.667 -20 -38
c-19.333 -24.667 -46 -37 -80 -37h-115c-44.667 0 -80.834 13.167 -108.501 39.5s-41.5 59.833 -41.5 100.5v50c0 40.667 13.833 74.167 41.5 100.5s63.834 39.5 108.501 39.5zM209.998 180.001v-40.002c0 -7.33301 3.16699 -14.166 9.5 -20.499s13.166 -9.5 20.499 -9.5h90
c15.333 0 27.333 5.66699 36 17c4 4.66699 7 10.667 9 18v65h-135c-7.33301 0 -14.166 -3.16699 -20.499 -9.5s-9.5 -13.166 -9.5 -20.499zM149.998 779.999h175l75 -160h-130z" />
    <glyph glyph-name="aacute" unicode="&#xe1;" horiz-adv-x="610" 
d="M190 320l184.998 0.000976562v65c0 7.33301 -3.16699 14.166 -9.5 20.499s-13.166 9.5 -20.499 9.5h-250v120h300c44.667 0 80.834 -13.167 108.501 -39.5s41.5 -59.833 41.5 -100.5v-395h-110l-25 65h-5c-6 -16 -12.667 -28.667 -20 -38
c-19.333 -24.667 -46 -37 -80 -37h-115c-44.667 0 -80.834 13.167 -108.501 39.5s-41.5 59.833 -41.5 100.5v50c0 40.667 13.833 74.167 41.5 100.5s63.834 39.5 108.501 39.5zM209.998 180.001v-40.002c0 -7.33301 3.16699 -14.166 9.5 -20.499s13.166 -9.5 20.499 -9.5h90
c15.333 0 27.333 5.66699 36 17c4 4.66699 7 10.667 9 18v65h-135c-7.33301 0 -14.166 -3.16699 -20.499 -9.5s-9.5 -13.166 -9.5 -20.499zM314.998 779.999h175l-120 -160h-130z" />
    <glyph glyph-name="acircumflex" unicode="&#xe2;" horiz-adv-x="610" 
d="M190 320l184.998 0.000976562v65c0 7.33301 -3.16699 14.166 -9.5 20.499s-13.166 9.5 -20.499 9.5h-250v120h300c44.667 0 80.834 -13.167 108.501 -39.5s41.5 -59.833 41.5 -100.5v-395h-110l-25 65h-5c-6 -16 -12.667 -28.667 -20 -38
c-19.333 -24.667 -46 -37 -80 -37h-115c-44.667 0 -80.834 13.167 -108.501 39.5s-41.5 59.833 -41.5 100.5v50c0 40.667 13.833 74.167 41.5 100.5s63.834 39.5 108.501 39.5zM209.998 180.001v-40.002c0 -7.33301 3.16699 -14.166 9.5 -20.499s13.166 -9.5 20.499 -9.5h90
c15.333 0 27.333 5.66699 36 17c4 4.66699 7 10.667 9 18v65h-135c-7.33301 0 -14.166 -3.16699 -20.499 -9.5s-9.5 -13.166 -9.5 -20.499zM249.998 619.999h-135l125 150h150l125 -150h-135l-65 70z" />
    <glyph glyph-name="atilde" unicode="&#xe3;" horiz-adv-x="610" 
d="M190 320l184.998 0.000976562v65c0 7.33301 -3.16699 14.166 -9.5 20.499s-13.166 9.5 -20.499 9.5h-250v120h300c44.667 0 80.834 -13.167 108.501 -39.5s41.5 -59.833 41.5 -100.5v-395h-110l-25 65h-5c-6 -16 -12.667 -28.667 -20 -38
c-19.333 -24.667 -46 -37 -80 -37h-115c-44.667 0 -80.834 13.167 -108.501 39.5s-41.5 59.833 -41.5 100.5v50c0 40.667 13.833 74.167 41.5 100.5s63.834 39.5 108.501 39.5zM209.998 180.001v-40.002c0 -7.33301 3.16699 -14.166 9.5 -20.499s13.166 -9.5 20.499 -9.5h90
c15.333 0 27.333 5.66699 36 17c4 4.66699 7 10.667 9 18v65h-135c-7.33301 0 -14.166 -3.16699 -20.499 -9.5s-9.5 -13.166 -9.5 -20.499zM139.998 614.999l0.000976562 95.001c0 20 7 36.667 21 50s32 20 54 20h15c10 0 21.667 -4.33301 35 -13c5.33301 -2 12 -6 20 -12
l45 -30c4.66699 -3.33301 7.33398 -5 8.00098 -5c5.33301 -3.33301 9.33301 -5 12 -5c6.66699 0 10 5 10 15v45h110v-95c0 -20 -7 -36.667 -21 -50s-32 -20 -54 -20h-15c-10.667 0 -22.334 4 -35.001 12c-3.33301 1.33301 -10 5.66602 -20 12.999l-45 30
c-0.666992 0 -3.33398 1.66699 -8.00098 5s-8.66699 5 -12 5c-6.66699 0 -10 -5 -10 -15v-45h-110z" />
    <glyph glyph-name="adieresis" unicode="&#xe4;" horiz-adv-x="610" 
d="M190 320l184.998 0.000976562v65c0 7.33301 -3.16699 14.166 -9.5 20.499s-13.166 9.5 -20.499 9.5h-250v120h300c44.667 0 80.834 -13.167 108.501 -39.5s41.5 -59.833 41.5 -100.5v-395h-110l-25 65h-5c-6 -16 -12.667 -28.667 -20 -38
c-19.333 -24.667 -46 -37 -80 -37h-115c-44.667 0 -80.834 13.167 -108.501 39.5s-41.5 59.833 -41.5 100.5v50c0 40.667 13.833 74.167 41.5 100.5s63.834 39.5 108.501 39.5zM209.998 180.001v-40.002c0 -7.33301 3.16699 -14.166 9.5 -20.499s13.166 -9.5 20.499 -9.5h90
c15.333 0 27.333 5.66699 36 17c4 4.66699 7 10.667 9 18v65h-135c-7.33301 0 -14.166 -3.16699 -20.499 -9.5s-9.5 -13.166 -9.5 -20.499zM279.998 619.999h-150v140h150v-140zM499.998 619.999h-150v140h150v-140z" />
    <glyph glyph-name="aring" unicode="&#xe5;" horiz-adv-x="610" 
d="M190 320l184.998 0.000976562v65c0 7.33301 -3.16699 14.166 -9.5 20.499s-13.166 9.5 -20.499 9.5h-250v120h300c44.667 0 80.834 -13.167 108.501 -39.5s41.5 -59.833 41.5 -100.5v-395h-110l-25 65h-5c-6 -16 -12.667 -28.667 -20 -38
c-19.333 -24.667 -46 -37 -80 -37h-115c-44.667 0 -80.834 13.167 -108.501 39.5s-41.5 59.833 -41.5 100.5v50c0 40.667 13.833 74.167 41.5 100.5s63.834 39.5 108.501 39.5zM209.998 180.001v-40.002c0 -7.33301 3.16699 -14.166 9.5 -20.499s13.166 -9.5 20.499 -9.5h90
c15.333 0 27.333 5.66699 36 17c4 4.66699 7 10.667 9 18v65h-135c-7.33301 0 -14.166 -3.16699 -20.499 -9.5s-9.5 -13.166 -9.5 -20.499zM339.998 579.999h-70c-28 0 -50.833 8.5 -68.5 25.5s-26.5 38.5 -26.5 64.5v40c0 26 8.83301 47.5 26.5 64.5s40.5 25.5 68.5 25.5
h70c28 0 50.833 -8.5 68.5 -25.5s26.5 -38.5 26.5 -64.5v-40c0 -26 -8.83301 -47.5 -26.5 -64.5s-40.5 -25.5 -68.5 -25.5zM314.998 729.999h-20c-13.333 0 -20 -6.66699 -20 -20v-40c0 -13.333 6.66699 -20 20 -20h20c13.333 0 20 6.66699 20 20v40
c0 13.333 -6.66699 20 -20 20z" />
    <glyph glyph-name="ae" unicode="&#xe6;" horiz-adv-x="920" 
d="M575 120l264.998 -0.00195312v-120h-315c-28.667 0 -52.667 11.667 -72 35c-9.33301 10.667 -17 22.334 -23 35.001c-6.66699 -14 -15.667 -27.333 -27 -40c-25.333 -26.667 -58 -40 -98 -40h-115c-44.667 0 -80.834 13.167 -108.501 39.5s-41.5 59.833 -41.5 100.5v50
c0 40.667 13.833 74.167 41.5 100.5s63.834 39.5 108.501 39.5h185v68c-1.33301 8 -4.83301 14.5 -10.5 19.5s-12.167 7.5 -19.5 7.5h-250v120h270c24 0 46.333 -11 67 -33c6.66699 -6.66699 14.334 -17.334 23.001 -32.001c6 12.667 13.333 24.334 22 35.001
c20.667 23.333 43.334 35 68.001 35h170c44.667 0 80.834 -13.167 108.501 -39.5s41.5 -59.833 41.5 -100.5v-195h-320v-55c0 -7.33301 3.16699 -14.166 9.5 -20.499s13.166 -9.5 20.499 -9.5zM209.998 179.998l-0.000976562 -40.002
c0 -7.33301 3.16699 -14.166 9.5 -20.499s13.166 -9.5 20.499 -9.5h90c9.33301 0 17.833 2.66699 25.5 8s12.834 10.5 15.501 15.5s4 8.5 4 10.5v66h-135c-7.33301 0 -14.166 -3.16699 -20.499 -9.5s-9.5 -13.166 -9.5 -20.499zM544.997 389.996l-0.00195312 -70h150v70
c0 7.33301 -3.16699 14.166 -9.5 20.499s-13.166 9.5 -20.499 9.5h-90c-7.33301 0 -14.166 -3.16699 -20.499 -9.5s-9.5 -13.166 -9.5 -20.499z" />
    <glyph glyph-name="ccedilla" unicode="&#xe7;" horiz-adv-x="540" 
d="M255 120l250 -0.00195312v-120h-197v-35h40c28 0 50.833 -8.5 68.5 -25.5s26.5 -38.5 26.5 -64.5v-31c0 -24.667 -9 -45.667 -27 -63s-40.667 -26 -68 -26h-151v80h101c16.667 0 25 8.33301 25 25s-8.33301 25 -25 25h-85v115h-8c-44.667 0 -80.834 13.167 -108.501 39.5
s-41.5 59.833 -41.5 100.5v250c0 40.667 13.833 74.167 41.5 100.5s63.834 39.5 108.501 39.5h300v-75l-40 -45h-210c-7.33301 0 -14.166 -3.16699 -20.499 -9.5s-9.5 -13.166 -9.5 -20.499v-230c0 -7.33301 3.16699 -14.166 9.5 -20.499s13.166 -9.5 20.499 -9.5z" />
    <glyph glyph-name="egrave" unicode="&#xe8;" 
d="M255 120l265 -0.000976562v-120h-315c-44.667 0 -80.834 13.167 -108.501 39.5s-41.5 59.833 -41.5 100.5v260c0 40.667 13.833 74.167 41.5 100.5s63.834 39.5 108.501 39.5h190c44.667 0 80.834 -13.167 108.501 -39.5s41.5 -59.833 41.5 -100.5v-195h-320v-55
c0 -7.33301 3.16699 -14.166 9.5 -20.499s13.166 -9.5 20.499 -9.5zM225 389.999l-0.00195312 -70h150v70c0 7.33301 -3.16699 14.166 -9.5 20.499s-13.166 9.5 -20.499 9.5h-90c-7.33301 0 -14.166 -3.16699 -20.499 -9.5s-9.5 -13.166 -9.5 -20.499zM144.998 769.999h175
l75 -160h-130z" />
    <glyph glyph-name="eacute" unicode="&#xe9;" 
d="M255 120l265 -0.000976562v-120h-315c-44.667 0 -80.834 13.167 -108.501 39.5s-41.5 59.833 -41.5 100.5v260c0 40.667 13.833 74.167 41.5 100.5s63.834 39.5 108.501 39.5h190c44.667 0 80.834 -13.167 108.501 -39.5s41.5 -59.833 41.5 -100.5v-195h-320v-55
c0 -7.33301 3.16699 -14.166 9.5 -20.499s13.166 -9.5 20.499 -9.5zM225 389.999l-0.00195312 -70h150v70c0 7.33301 -3.16699 14.166 -9.5 20.499s-13.166 9.5 -20.499 9.5h-90c-7.33301 0 -14.166 -3.16699 -20.499 -9.5s-9.5 -13.166 -9.5 -20.499zM299.998 769.999h175
l-120 -160h-130z" />
    <glyph glyph-name="ecircumflex" unicode="&#xea;" 
d="M255 120l265 -0.000976562v-120h-315c-44.667 0 -80.834 13.167 -108.501 39.5s-41.5 59.833 -41.5 100.5v260c0 40.667 13.833 74.167 41.5 100.5s63.834 39.5 108.501 39.5h190c44.667 0 80.834 -13.167 108.501 -39.5s41.5 -59.833 41.5 -100.5v-195h-320v-55
c0 -7.33301 3.16699 -14.166 9.5 -20.499s13.166 -9.5 20.499 -9.5zM225 389.999l-0.00195312 -70h150v70c0 7.33301 -3.16699 14.166 -9.5 20.499s-13.166 9.5 -20.499 9.5h-90c-7.33301 0 -14.166 -3.16699 -20.499 -9.5s-9.5 -13.166 -9.5 -20.499zM234.998 609.999h-135
l125 150h150l125 -150h-135l-65 70z" />
    <glyph glyph-name="edieresis" unicode="&#xeb;" 
d="M255 120l265 -0.000976562v-120h-315c-44.667 0 -80.834 13.167 -108.501 39.5s-41.5 59.833 -41.5 100.5v260c0 40.667 13.833 74.167 41.5 100.5s63.834 39.5 108.501 39.5h190c44.667 0 80.834 -13.167 108.501 -39.5s41.5 -59.833 41.5 -100.5v-195h-320v-55
c0 -7.33301 3.16699 -14.166 9.5 -20.499s13.166 -9.5 20.499 -9.5zM225 389.999l-0.00195312 -70h150v70c0 7.33301 -3.16699 14.166 -9.5 20.499s-13.166 9.5 -20.499 9.5h-90c-7.33301 0 -14.166 -3.16699 -20.499 -9.5s-9.5 -13.166 -9.5 -20.499zM264.998 609.999h-150
v140h150v-140zM484.998 609.999h-150v140h150v-140z" />
    <glyph glyph-name="igrave" unicode="&#xec;" horiz-adv-x="300" 
d="M235 530v-530h-170v530h170zM-34 770h175l75 -160h-130z" />
    <glyph glyph-name="iacute" unicode="&#xed;" horiz-adv-x="300" 
d="M235 530v-530h-170v530h170zM150 780h175l-120 -160h-130z" />
    <glyph glyph-name="icircumflex" unicode="&#xee;" horiz-adv-x="300" 
d="M235 530v-530h-170v530h170zM86 610h-135l125 150h150l125 -150h-135l-65 70z" />
    <glyph glyph-name="idieresis" unicode="&#xef;" horiz-adv-x="300" 
d="M235 530v-530h-170v530h170zM116 610h-150v140h150v-140zM336 610h-150v140h150v-140z" />
    <glyph glyph-name="eth" unicode="&#xf0;" horiz-adv-x="630" 
d="M355 775l-9.99902 -65.001l40 -5c57.333 -7.33301 100.833 -25.166 130.5 -53.499s44.5 -65.5 44.5 -111.5v-410c0 -40.667 -13.833 -74.167 -41.5 -100.5s-63.834 -39.5 -108.501 -39.5h-205c-44.667 0 -80.834 13.167 -108.501 39.5s-41.5 59.833 -41.5 100.5v195
c0 40.667 13.833 74.167 41.5 100.5s63.834 39.5 108.501 39.5h185v75c0 19.333 -11.667 31 -35 35l-30 5l-10 -75l-130 15l10 75l-95 10l20 130l95 -10l10 65zM390.001 344.999l-134.999 -0.000976562c-7.33301 0 -14.166 -3.16699 -20.499 -9.5s-9.5 -13.166 -9.5 -20.499
v-175c0 -7.33301 3.16699 -14.166 9.5 -20.499s13.166 -9.5 20.499 -9.5h105c7.33301 0 14.166 3.16699 20.499 9.5s9.5 13.166 9.5 20.499v205z" />
    <glyph glyph-name="ntilde" unicode="&#xf1;" horiz-adv-x="635" 
d="M305 540l114.998 0.00195312c44.667 0 80.834 -13.167 108.501 -39.5s41.5 -59.833 41.5 -100.5v-400h-170v390c0 7.33301 -3.16699 14.166 -9.5 20.499s-13.166 9.5 -20.499 9.5h-90c-14.667 0 -26.667 -6 -36 -18c-4 -4.66699 -7 -10.334 -9 -17.001v-385h-170v530h110
l25 -65h5c6 16 12.667 28.333 20 37c20 25.333 46.667 38 80 38zM151.998 625.002l0.000976562 95.001c0 20 7 36.667 21 50s32 20 54 20h15c10 0 21.667 -4.33301 35 -13c5.33301 -2 12 -6 20 -12l45 -30c4.66699 -3.33301 7.33398 -5 8.00098 -5
c5.33301 -3.33301 9.33301 -5 12 -5c6.66699 0 10 5 10 15v45h110v-95c0 -20 -7 -36.667 -21 -50s-32 -20 -54 -20h-15c-10.667 0 -22.334 4 -35.001 12c-3.33301 1.33301 -10 5.66602 -20 12.999l-45 30c-0.666992 0 -3.33398 1.66699 -8.00098 5s-8.66699 5 -12 5
c-6.66699 0 -10 -5 -10 -15v-45h-110z" />
    <glyph glyph-name="ograve" unicode="&#xf2;" horiz-adv-x="625" 
d="M570 400v-270c0 -40.667 -13.833 -74.167 -41.5 -100.5s-63.834 -39.5 -108.501 -39.5h-215c-44.667 0 -80.834 13.167 -108.501 39.5s-41.5 59.833 -41.5 100.5v270c0 40.667 13.833 74.167 41.5 100.5s63.834 39.5 108.501 39.5h215
c44.667 0 80.834 -13.167 108.501 -39.5s41.5 -59.833 41.5 -100.5zM255 110h115c7.33301 0 14.166 3.16699 20.499 9.5s9.5 13.166 9.5 20.499v250c0 7.33301 -3.16699 14.166 -9.5 20.499s-13.166 9.5 -20.499 9.5h-115c-7.33301 0 -14.166 -3.16699 -20.499 -9.5
s-9.5 -13.166 -9.5 -20.499v-250c0 -7.33301 3.16699 -14.166 9.5 -20.499s13.166 -9.5 20.499 -9.5zM137 770h175l75 -160h-130z" />
    <glyph glyph-name="oacute" unicode="&#xf3;" horiz-adv-x="625" 
d="M570 400v-270c0 -40.667 -13.833 -74.167 -41.5 -100.5s-63.834 -39.5 -108.501 -39.5h-215c-44.667 0 -80.834 13.167 -108.501 39.5s-41.5 59.833 -41.5 100.5v270c0 40.667 13.833 74.167 41.5 100.5s63.834 39.5 108.501 39.5h215
c44.667 0 80.834 -13.167 108.501 -39.5s41.5 -59.833 41.5 -100.5zM255 110h115c7.33301 0 14.166 3.16699 20.499 9.5s9.5 13.166 9.5 20.499v250c0 7.33301 -3.16699 14.166 -9.5 20.499s-13.166 9.5 -20.499 9.5h-115c-7.33301 0 -14.166 -3.16699 -20.499 -9.5
s-9.5 -13.166 -9.5 -20.499v-250c0 -7.33301 3.16699 -14.166 9.5 -20.499s13.166 -9.5 20.499 -9.5zM312 770h175l-120 -160h-130z" />
    <glyph glyph-name="ocircumflex" unicode="&#xf4;" horiz-adv-x="625" 
d="M570 400v-270c0 -40.667 -13.833 -74.167 -41.5 -100.5s-63.834 -39.5 -108.501 -39.5h-215c-44.667 0 -80.834 13.167 -108.501 39.5s-41.5 59.833 -41.5 100.5v270c0 40.667 13.833 74.167 41.5 100.5s63.834 39.5 108.501 39.5h215
c44.667 0 80.834 -13.167 108.501 -39.5s41.5 -59.833 41.5 -100.5zM255 110h115c7.33301 0 14.166 3.16699 20.499 9.5s9.5 13.166 9.5 20.499v250c0 7.33301 -3.16699 14.166 -9.5 20.499s-13.166 9.5 -20.499 9.5h-115c-7.33301 0 -14.166 -3.16699 -20.499 -9.5
s-9.5 -13.166 -9.5 -20.499v-250c0 -7.33301 3.16699 -14.166 9.5 -20.499s13.166 -9.5 20.499 -9.5zM247 610h-135l125 150h150l125 -150h-135l-65 70z" />
    <glyph glyph-name="otilde" unicode="&#xf5;" horiz-adv-x="625" 
d="M570 400v-270c0 -40.667 -13.833 -74.167 -41.5 -100.5s-63.834 -39.5 -108.501 -39.5h-215c-44.667 0 -80.834 13.167 -108.501 39.5s-41.5 59.833 -41.5 100.5v270c0 40.667 13.833 74.167 41.5 100.5s63.834 39.5 108.501 39.5h215
c44.667 0 80.834 -13.167 108.501 -39.5s41.5 -59.833 41.5 -100.5zM255 110h115c7.33301 0 14.166 3.16699 20.499 9.5s9.5 13.166 9.5 20.499v250c0 7.33301 -3.16699 14.166 -9.5 20.499s-13.166 9.5 -20.499 9.5h-115c-7.33301 0 -14.166 -3.16699 -20.499 -9.5
s-9.5 -13.166 -9.5 -20.499v-250c0 -7.33301 3.16699 -14.166 9.5 -20.499s13.166 -9.5 20.499 -9.5zM147 605l0.000976562 95.001c0 20 7 36.667 21 50s32 20 54 20h15c10 0 21.667 -4.33301 35 -13c5.33301 -2 12 -6 20 -12l45 -30
c4.66699 -3.33301 7.33398 -5 8.00098 -5c5.33301 -3.33301 9.33301 -5 12 -5c6.66699 0 10 5 10 15v45h110v-95c0 -20 -7 -36.667 -21 -50s-32 -20 -54 -20h-15c-10.667 0 -22.334 4 -35.001 12c-3.33301 1.33301 -10 5.66602 -20 12.999l-45 30
c-0.666992 0 -3.33398 1.66699 -8.00098 5s-8.66699 5 -12 5c-6.66699 0 -10 -5 -10 -15v-45h-110z" />
    <glyph glyph-name="odieresis" unicode="&#xf6;" horiz-adv-x="625" 
d="M570 400v-270c0 -40.667 -13.833 -74.167 -41.5 -100.5s-63.834 -39.5 -108.501 -39.5h-215c-44.667 0 -80.834 13.167 -108.501 39.5s-41.5 59.833 -41.5 100.5v270c0 40.667 13.833 74.167 41.5 100.5s63.834 39.5 108.501 39.5h215
c44.667 0 80.834 -13.167 108.501 -39.5s41.5 -59.833 41.5 -100.5zM255 110h115c7.33301 0 14.166 3.16699 20.499 9.5s9.5 13.166 9.5 20.499v250c0 7.33301 -3.16699 14.166 -9.5 20.499s-13.166 9.5 -20.499 9.5h-115c-7.33301 0 -14.166 -3.16699 -20.499 -9.5
s-9.5 -13.166 -9.5 -20.499v-250c0 -7.33301 3.16699 -14.166 9.5 -20.499s13.166 -9.5 20.499 -9.5zM277 610h-150v140h150v-140zM497 610h-150v140h150v-140z" />
    <glyph glyph-name="divide" unicode="&#xf7;" horiz-adv-x="490" 
d="M30 380h430v-130h-430v130zM320 60h-150v140h150v-140zM320 430h-150v140h150v-140z" />
    <glyph glyph-name="oslash" unicode="&#xf8;" horiz-adv-x="625" 
d="M535 535l-16 -27.999c34 -26.667 51 -62.334 51 -107.001v-270c0 -40.667 -13.833 -74.167 -41.5 -100.5s-63.834 -39.5 -108.501 -39.5h-193l-22 -40h-115v45l15 27c-33.333 26 -50 62 -50 108v270c0 40.667 13.833 74.167 41.5 100.5s63.834 39.5 108.501 39.5h192
l23 40h115v-45zM285 110.001l85.001 0.000976562c7.33301 0 14.166 3.16699 20.499 9.5s9.5 13.166 9.5 20.499v176zM225.001 390.002l-0.000976562 -176.001l114 206h-84c-7.33301 0 -14.166 -3.16699 -20.499 -9.5s-9.5 -13.166 -9.5 -20.499z" />
    <glyph glyph-name="ugrave" unicode="&#xf9;" horiz-adv-x="635" 
d="M330 -10l-114.998 -0.000976562c-44.667 0 -80.834 13.167 -108.501 39.5s-41.5 59.833 -41.5 100.5v400h170v-390c0 -7.33301 3.16699 -14.166 9.5 -20.499s13.166 -9.5 20.499 -9.5h90c15.333 0 27.333 5.66699 36 17c4 4.66699 7 10.667 9 18v385h170v-530h-110
l-25 65h-5c-6 -16 -12.667 -28.667 -20 -38c-19.333 -24.667 -46 -37 -80 -37zM152.002 759.999h175l75 -160h-130z" />
    <glyph glyph-name="uacute" unicode="&#xfa;" horiz-adv-x="635" 
d="M330 -10l-114.998 -0.000976562c-44.667 0 -80.834 13.167 -108.501 39.5s-41.5 59.833 -41.5 100.5v400h170v-390c0 -7.33301 3.16699 -14.166 9.5 -20.499s13.166 -9.5 20.499 -9.5h90c15.333 0 27.333 5.66699 36 17c4 4.66699 7 10.667 9 18v385h170v-530h-110
l-25 65h-5c-6 -16 -12.667 -28.667 -20 -38c-19.333 -24.667 -46 -37 -80 -37zM317.002 749.999h175l-120 -160h-130z" />
    <glyph glyph-name="ucircumflex" unicode="&#xfb;" horiz-adv-x="635" 
d="M330 -10l-114.998 -0.000976562c-44.667 0 -80.834 13.167 -108.501 39.5s-41.5 59.833 -41.5 100.5v400h170v-390c0 -7.33301 3.16699 -14.166 9.5 -20.499s13.166 -9.5 20.499 -9.5h90c15.333 0 27.333 5.66699 36 17c4 4.66699 7 10.667 9 18v385h170v-530h-110
l-25 65h-5c-6 -16 -12.667 -28.667 -20 -38c-19.333 -24.667 -46 -37 -80 -37zM262.002 609.999h-135l125 150h150l125 -150h-135l-65 70z" />
    <glyph glyph-name="udieresis" unicode="&#xfc;" horiz-adv-x="635" 
d="M330 -10l-114.998 -0.000976562c-44.667 0 -80.834 13.167 -108.501 39.5s-41.5 59.833 -41.5 100.5v400h170v-390c0 -7.33301 3.16699 -14.166 9.5 -20.499s13.166 -9.5 20.499 -9.5h90c15.333 0 27.333 5.66699 36 17c4 4.66699 7 10.667 9 18v385h170v-530h-110
l-25 65h-5c-6 -16 -12.667 -28.667 -20 -38c-19.333 -24.667 -46 -37 -80 -37zM282.002 609.999h-150v140h150v-140zM502.002 609.999h-150v140h150v-140z" />
    <glyph glyph-name="yacute" unicode="&#xfd;" horiz-adv-x="580" 
d="M560 465l-185 -515.001c-11.333 -33.333 -31.833 -61.666 -61.5 -84.999s-64.167 -35 -103.5 -35h-115v120h80c25.333 0 40.333 13.333 45 40v10l-200 465v65h170l105 -370h10l85 370h170v-65zM290 769.999h175l-120 -160h-130z" />
    <glyph glyph-name="thorn" unicode="&#xfe;" horiz-adv-x="625" 
d="M245 530h175c44.667 0 80.834 -13.167 108.501 -39.5s41.5 -59.833 41.5 -100.5v-250c0 -40.667 -13.833 -74.167 -41.5 -100.5s-63.834 -39.5 -108.501 -39.5h-175v-170h-170v870h170v-170zM400 150v230.002c0 7.33301 -3.16699 14.166 -9.5 20.499
s-13.166 9.5 -20.499 9.5h-125v-290h125c7.33301 0 14.166 3.16699 20.499 9.5s9.5 13.166 9.5 20.499z" />
    <glyph glyph-name="ydieresis" unicode="&#xff;" horiz-adv-x="580" 
d="M560 465l-185 -515.001c-11.333 -33.333 -31.833 -61.666 -61.5 -84.999s-64.167 -35 -103.5 -35h-115v120h80c25.333 0 40.333 13.333 45 40v10l-200 465v65h170l105 -370h10l85 370h170v-65zM255 609.999h-150v140h150v-140zM475 609.999h-150v140h150v-140z" />
    <glyph glyph-name="Amacron" unicode="&#x100;" horiz-adv-x="690" 
d="M485 0l-35 150h-210l-35 -150h-180v70l200 630h240l200 -630v-70h-180zM415 280l-65 260h-10l-65 -260h140zM507 890v-110h-325v110h325z" />
    <glyph glyph-name="amacron" unicode="&#x101;" horiz-adv-x="610" 
d="M190 320l184.998 0.000976562v65c0 7.33301 -3.16699 14.166 -9.5 20.499s-13.166 9.5 -20.499 9.5h-250v120h300c44.667 0 80.834 -13.167 108.501 -39.5s41.5 -59.833 41.5 -100.5v-395h-110l-25 65h-5c-6 -16 -12.667 -28.667 -20 -38
c-19.333 -24.667 -46 -37 -80 -37h-115c-44.667 0 -80.834 13.167 -108.501 39.5s-41.5 59.833 -41.5 100.5v50c0 40.667 13.833 74.167 41.5 100.5s63.834 39.5 108.501 39.5zM209.998 180.001v-40.002c0 -7.33301 3.16699 -14.166 9.5 -20.499s13.166 -9.5 20.499 -9.5h90
c15.333 0 27.333 5.66699 36 17c4 4.66699 7 10.667 9 18v65h-135c-7.33301 0 -14.166 -3.16699 -20.499 -9.5s-9.5 -13.166 -9.5 -20.499zM466.998 719.999v-110h-325v110h325z" />
    <glyph glyph-name="Abreve" unicode="&#x102;" horiz-adv-x="690" 
d="M485 0l-35 150h-210l-35 -150h-180v70l200 630h240l200 -630v-70h-180zM415 280l-65 260h-10l-65 -260h140zM425 770h-160c-28 0 -50 8 -66 24s-24 38 -24 66v70h120v-45c0 -16.667 8.33301 -25 25 -25h50c16.667 0 25 8.33301 25 25v45h120v-70c0 -28 -8 -50 -24 -66
s-38 -24 -66 -24z" />
    <glyph glyph-name="abreve" unicode="&#x103;" horiz-adv-x="610" 
d="M190 320l184.998 0.000976562v65c0 7.33301 -3.16699 14.166 -9.5 20.499s-13.166 9.5 -20.499 9.5h-250v120h300c44.667 0 80.834 -13.167 108.501 -39.5s41.5 -59.833 41.5 -100.5v-395h-110l-25 65h-5c-6 -16 -12.667 -28.667 -20 -38
c-19.333 -24.667 -46 -37 -80 -37h-115c-44.667 0 -80.834 13.167 -108.501 39.5s-41.5 59.833 -41.5 100.5v50c0 40.667 13.833 74.167 41.5 100.5s63.834 39.5 108.501 39.5zM209.998 180.001v-40.002c0 -7.33301 3.16699 -14.166 9.5 -20.499s13.166 -9.5 20.499 -9.5h90
c15.333 0 27.333 5.66699 36 17c4 4.66699 7 10.667 9 18v65h-135c-7.33301 0 -14.166 -3.16699 -20.499 -9.5s-9.5 -13.166 -9.5 -20.499zM384.998 609.999h-160c-28 0 -50 8 -66 24s-24 38 -24 66v70h120v-45c0 -16.667 8.33301 -25 25 -25h50c16.667 0 25 8.33301 25 25
v45h120v-70c0 -28 -8 -50 -24 -66s-38 -24 -66 -24z" />
    <glyph glyph-name="Aogonek" unicode="&#x104;" horiz-adv-x="690" 
d="M485 0l-35 149.999h-210l-35 -150h-180v70l200 630h240l200 -630v-95c-22 -5.33301 -39.667 -11.666 -53 -18.999c-34.667 -19.333 -52 -43 -52 -71c0 -16.667 8.33301 -25 25 -25h80v-80h-90c-90 0 -135 35 -135 105c0 33.333 18.333 62.333 55 87
c18 12.667 36.333 22 55 28h-65zM415 279.999l-65 260h-10l-65 -260h140z" />
    <glyph glyph-name="aogonek" unicode="&#x105;" horiz-adv-x="610" 
d="M430 0h4.99805l-25 65h-5c-6 -16 -12.667 -28.667 -20 -38c-19.333 -24.667 -46 -37 -80 -37h-115c-44.667 0 -80.834 13.167 -108.501 39.5s-41.5 59.833 -41.5 100.5v50c0 40.667 13.833 74.167 41.5 100.5s63.834 39.5 108.501 39.5h185v65
c0 7.33301 -3.16699 14.166 -9.5 20.499s-13.166 9.5 -20.499 9.5h-250v120h300c44.667 0 80.834 -13.167 108.501 -39.5s41.5 -59.833 41.5 -100.5v-420c-22 -5.33301 -39.667 -11.666 -53 -18.999c-34.667 -19.333 -52 -43 -52 -71c0 -16.667 8.33301 -25 25 -25h80v-80
h-90c-90 0 -135 35 -135 105c0 33.333 18.333 62.333 55 87c18 12.667 36.333 22 55 28zM209.998 180v-40.002c0 -7.33301 3.16699 -14.166 9.5 -20.499s13.166 -9.5 20.499 -9.5h90c15.333 0 27.333 5.66699 36 17c4 4.66699 7 10.667 9 18v65h-135
c-7.33301 0 -14.166 -3.16699 -20.499 -9.5s-9.5 -13.166 -9.5 -20.499z" />
    <glyph glyph-name="Cacute" unicode="&#x106;" horiz-adv-x="605" 
d="M280 130l290 0.00195312v-130h-345c-47.333 0 -85.833 14.167 -115.5 42.5s-44.5 64.166 -44.5 107.499v400c0 43.333 14.833 79.166 44.5 107.499s68.167 42.5 115.5 42.5h345v-85l-40 -45h-250c-10 0 -18.333 -3.33301 -25 -10s-10 -15 -10 -25v-370
c0 -10 3.33301 -18.333 10 -25s15 -10 25 -10zM342 930.002h175l-120 -160h-130z" />
    <glyph glyph-name="cacute" unicode="&#x107;" horiz-adv-x="540" 
d="M255 120l250 -0.00195312v-120h-300c-44.667 0 -80.834 13.167 -108.501 39.5s-41.5 59.833 -41.5 100.5v250c0 40.667 13.833 74.167 41.5 100.5s63.834 39.5 108.501 39.5h300v-75l-40 -45h-210c-7.33301 0 -14.166 -3.16699 -20.499 -9.5s-9.5 -13.166 -9.5 -20.499
v-230c0 -7.33301 3.16699 -14.166 9.5 -20.499s13.166 -9.5 20.499 -9.5zM300 769.998h175l-120 -160h-130z" />
    <glyph glyph-name="Ccircumflex" unicode="&#x108;" horiz-adv-x="605" 
d="M280 130l290 0.00195312v-130h-345c-47.333 0 -85.833 14.167 -115.5 42.5s-44.5 64.166 -44.5 107.499v400c0 43.333 14.833 79.166 44.5 107.499s68.167 42.5 115.5 42.5h345v-85l-40 -45h-250c-10 0 -18.333 -3.33301 -25 -10s-10 -15 -10 -25v-370
c0 -10 3.33301 -18.333 10 -25s15 -10 25 -10zM257 770.002h-135l125 150h150l125 -150h-135l-65 70z" />
    <glyph glyph-name="ccircumflex" unicode="&#x109;" horiz-adv-x="540" 
d="M255 120l250 -0.00195312v-120h-300c-44.667 0 -80.834 13.167 -108.501 39.5s-41.5 59.833 -41.5 100.5v250c0 40.667 13.833 74.167 41.5 100.5s63.834 39.5 108.501 39.5h300v-75l-40 -45h-210c-7.33301 0 -14.166 -3.16699 -20.499 -9.5s-9.5 -13.166 -9.5 -20.499
v-230c0 -7.33301 3.16699 -14.166 9.5 -20.499s13.166 -9.5 20.499 -9.5zM225 599.998h-135l125 150h150l125 -150h-135l-65 70z" />
    <glyph glyph-name="Cdotaccent" unicode="&#x10a;" horiz-adv-x="605" 
d="M280 130l290 0.00195312v-130h-345c-47.333 0 -85.833 14.167 -115.5 42.5s-44.5 64.166 -44.5 107.499v400c0 43.333 14.833 79.166 44.5 107.499s68.167 42.5 115.5 42.5h345v-85l-40 -45h-250c-10 0 -18.333 -3.33301 -25 -10s-10 -15 -10 -25v-370
c0 -10 3.33301 -18.333 10 -25s15 -10 25 -10zM417 770.002h-170v140h170v-140z" />
    <glyph glyph-name="cdotaccent" unicode="&#x10b;" horiz-adv-x="540" 
d="M255 120l250 -0.00195312v-120h-300c-44.667 0 -80.834 13.167 -108.501 39.5s-41.5 59.833 -41.5 100.5v250c0 40.667 13.833 74.167 41.5 100.5s63.834 39.5 108.501 39.5h300v-75l-40 -45h-210c-7.33301 0 -14.166 -3.16699 -20.499 -9.5s-9.5 -13.166 -9.5 -20.499
v-230c0 -7.33301 3.16699 -14.166 9.5 -20.499s13.166 -9.5 20.499 -9.5zM385 609.998h-170v140h170v-140z" />
    <glyph glyph-name="Ccaron" unicode="&#x10c;" horiz-adv-x="605" 
d="M280 130l290 0.00195312v-130h-345c-47.333 0 -85.833 14.167 -115.5 42.5s-44.5 64.166 -44.5 107.499v400c0 43.333 14.833 79.166 44.5 107.499s68.167 42.5 115.5 42.5h345v-85l-40 -45h-250c-10 0 -18.333 -3.33301 -25 -10s-10 -15 -10 -25v-370
c0 -10 3.33301 -18.333 10 -25s15 -10 25 -10zM132 920.002h135l65 -70l65 70h135l-125 -150h-150z" />
    <glyph glyph-name="ccaron" unicode="&#x10d;" horiz-adv-x="540" 
d="M255 120l250 -0.00195312v-120h-300c-44.667 0 -80.834 13.167 -108.501 39.5s-41.5 59.833 -41.5 100.5v250c0 40.667 13.833 74.167 41.5 100.5s63.834 39.5 108.501 39.5h300v-75l-40 -45h-210c-7.33301 0 -14.166 -3.16699 -20.499 -9.5s-9.5 -13.166 -9.5 -20.499
v-230c0 -7.33301 3.16699 -14.166 9.5 -20.499s13.166 -9.5 20.499 -9.5zM90 749.998h135l65 -70l65 70h135l-125 -150h-150z" />
    <glyph glyph-name="Dcaron" unicode="&#x10e;" horiz-adv-x="690" 
d="M465 0l-385 -0.00195312v700h385c47.333 0 85.833 -14.167 115.5 -42.5s44.5 -64.166 44.5 -107.499v-400c0 -43.333 -14.833 -79.166 -44.5 -107.499s-68.167 -42.5 -115.5 -42.5zM410 569.998h-150v-440h150c10 0 18.333 3.33301 25 10s10 15 10 25v370
c0 10 -3.33301 18.333 -10 25s-15 10 -25 10zM135 909.998h135l65 -70l65 70h135l-125 -150h-150z" />
    <glyph glyph-name="dcaron" unicode="&#x10f;" horiz-adv-x="795" 
d="M205 530h175v170h170v-700h-110l-25 65h-5c-6 -16 -12.667 -28.667 -20 -38c-19.333 -24.667 -46 -37 -80 -37h-105c-44.667 0 -80.834 13.167 -108.501 39.5s-41.5 59.833 -41.5 100.5v260c0 40.667 13.833 74.167 41.5 100.5s63.834 39.5 108.501 39.5zM225 380
v-240.002c0 -7.33301 3.16699 -14.166 9.5 -20.499s13.166 -9.5 20.499 -9.5h80c15.333 0 27.333 5.66699 36 17c4 4.66699 7 10.667 9 18v265h-125c-7.33301 0 -14.166 -3.16699 -20.499 -9.5s-9.5 -13.166 -9.5 -20.499zM785 584.998l-70 -135h-80v250h150v-115z" />
    <glyph glyph-name="Dcroat" unicode="&#x110;" horiz-adv-x="690" 
d="M465 0l-385 -0.00195312v300h-60v110h60v290h385c47.333 0 85.833 -14.167 115.5 -42.5s44.5 -64.166 44.5 -107.499v-400c0 -43.333 -14.833 -79.166 -44.5 -107.499s-68.167 -42.5 -115.5 -42.5zM410 569.998h-150v-160h115v-110h-115v-170h150
c10 0 18.333 3.33301 25 10s10 15 10 25v370c0 10 -3.33301 18.333 -10 25s-15 10 -25 10z" />
    <glyph glyph-name="dcroat" unicode="&#x111;" horiz-adv-x="625" 
d="M220 610h160v90h170v-90h60v-100h-60v-510h-110l-25 65h-5c-6 -16 -12.667 -28.667 -20 -38c-19.333 -24.667 -46 -37 -80 -37h-105c-44.667 0 -80.834 13.167 -108.501 39.5s-41.5 59.833 -41.5 100.5v180c0 40.667 13.833 74.167 41.5 100.5s63.834 39.5 108.501 39.5
h175v60h-160v100zM225 300v-160.002c0 -7.33301 3.16699 -14.166 9.5 -20.499s13.166 -9.5 20.499 -9.5h80c15.333 0 27.333 5.66699 36 17c4 4.66699 7 10.667 9 18v185h-125c-7.33301 0 -14.166 -3.16699 -20.499 -9.5s-9.5 -13.166 -9.5 -20.499z" />
    <glyph glyph-name="Emacron" unicode="&#x112;" horiz-adv-x="615" 
d="M580 700v-85l-40 -45h-280v-150h230v-130h-230v-160h320v-130h-500v700h500zM500 890v-110h-325v110h325z" />
    <glyph glyph-name="emacron" unicode="&#x113;" 
d="M255 120l265 -0.000976562v-120h-315c-44.667 0 -80.834 13.167 -108.501 39.5s-41.5 59.833 -41.5 100.5v260c0 40.667 13.833 74.167 41.5 100.5s63.834 39.5 108.501 39.5h190c44.667 0 80.834 -13.167 108.501 -39.5s41.5 -59.833 41.5 -100.5v-195h-320v-55
c0 -7.33301 3.16699 -14.166 9.5 -20.499s13.166 -9.5 20.499 -9.5zM225 389.999l-0.00195312 -70h150v70c0 7.33301 -3.16699 14.166 -9.5 20.499s-13.166 9.5 -20.499 9.5h-90c-7.33301 0 -14.166 -3.16699 -20.499 -9.5s-9.5 -13.166 -9.5 -20.499zM471.998 729.999v-110
h-325v110h325z" />
    <glyph glyph-name="Ebreve" unicode="&#x114;" horiz-adv-x="615" 
d="M580 700v-85l-40 -45h-280v-150h230v-130h-230v-160h320v-130h-500v700h500zM407 770h-160c-28 0 -50 8 -66 24s-24 38 -24 66v70h120v-45c0 -16.667 8.33301 -25 25 -25h50c16.667 0 25 8.33301 25 25v45h120v-70c0 -28 -8 -50 -24 -66s-38 -24 -66 -24z" />
    <glyph glyph-name="ebreve" unicode="&#x115;" 
d="M255 120l265 -0.000976562v-120h-315c-44.667 0 -80.834 13.167 -108.501 39.5s-41.5 59.833 -41.5 100.5v260c0 40.667 13.833 74.167 41.5 100.5s63.834 39.5 108.501 39.5h190c44.667 0 80.834 -13.167 108.501 -39.5s41.5 -59.833 41.5 -100.5v-195h-320v-55
c0 -7.33301 3.16699 -14.166 9.5 -20.499s13.166 -9.5 20.499 -9.5zM225 389.999l-0.00195312 -70h150v70c0 7.33301 -3.16699 14.166 -9.5 20.499s-13.166 9.5 -20.499 9.5h-90c-7.33301 0 -14.166 -3.16699 -20.499 -9.5s-9.5 -13.166 -9.5 -20.499zM379.998 609.999h-160
c-28 0 -50 8 -66 24s-24 38 -24 66v70h120v-45c0 -16.667 8.33301 -25 25 -25h50c16.667 0 25 8.33301 25 25v45h120v-70c0 -28 -8 -50 -24 -66s-38 -24 -66 -24z" />
    <glyph glyph-name="Edotaccent" unicode="&#x116;" horiz-adv-x="615" 
d="M580 700v-85l-40 -45h-280v-150h230v-130h-230v-160h320v-130h-500v700h500zM422 770h-170v140h170v-140z" />
    <glyph glyph-name="edotaccent" unicode="&#x117;" 
d="M255 120l265 -0.000976562v-120h-315c-44.667 0 -80.834 13.167 -108.501 39.5s-41.5 59.833 -41.5 100.5v260c0 40.667 13.833 74.167 41.5 100.5s63.834 39.5 108.501 39.5h190c44.667 0 80.834 -13.167 108.501 -39.5s41.5 -59.833 41.5 -100.5v-195h-320v-55
c0 -7.33301 3.16699 -14.166 9.5 -20.499s13.166 -9.5 20.499 -9.5zM225 389.999l-0.00195312 -70h150v70c0 7.33301 -3.16699 14.166 -9.5 20.499s-13.166 9.5 -20.499 9.5h-90c-7.33301 0 -14.166 -3.16699 -20.499 -9.5s-9.5 -13.166 -9.5 -20.499zM384.998 609.999h-170
v140h170v-140z" />
    <glyph glyph-name="Eogonek" unicode="&#x118;" horiz-adv-x="615" 
d="M580 700v-85.001l-40 -45h-280v-150h230v-130h-230v-160h320v-130h-140c-25.333 -9.33301 -46.333 -19.666 -63 -30.999c-41.333 -26.667 -62 -54.667 -62 -84c0 -16.667 8.33301 -25 25 -25h80v-80h-90c-90 0 -135 35 -135 105c0 33.333 18.333 62.333 55 87
c18 12.667 36.333 22 55 28h-225v700h500z" />
    <glyph glyph-name="eogonek" unicode="&#x119;" 
d="M255 120l265 -0.000976562v-120h-125l10 -1c-24 -10 -43.333 -20.333 -58 -31c-38 -26 -57 -53.667 -57 -83c0 -16.667 8.33301 -25 25 -25h80v-80h-90c-90 0 -135 35 -135 105c0 33.333 18.333 62.333 55 87c18 12.667 36.333 22 55 28h-75
c-44.667 0 -80.834 13.167 -108.501 39.5s-41.5 59.833 -41.5 100.5v260c0 40.667 13.833 74.167 41.5 100.5s63.834 39.5 108.501 39.5h190c44.667 0 80.834 -13.167 108.501 -39.5s41.5 -59.833 41.5 -100.5v-195h-320v-55c0 -7.33301 3.16699 -14.166 9.5 -20.499
s13.166 -9.5 20.499 -9.5zM225 389.999l-0.00195312 -70h150v70c0 7.33301 -3.16699 14.166 -9.5 20.499s-13.166 9.5 -20.499 9.5h-90c-7.33301 0 -14.166 -3.16699 -20.499 -9.5s-9.5 -13.166 -9.5 -20.499z" />
    <glyph glyph-name="Ecaron" unicode="&#x11a;" horiz-adv-x="615" 
d="M580 700v-85l-40 -45h-280v-150h230v-130h-230v-160h320v-130h-500v700h500zM127 910h135l65 -70l65 70h135l-125 -150h-150z" />
    <glyph glyph-name="ecaron" unicode="&#x11b;" 
d="M255 120l265 -0.000976562v-120h-315c-44.667 0 -80.834 13.167 -108.501 39.5s-41.5 59.833 -41.5 100.5v260c0 40.667 13.833 74.167 41.5 100.5s63.834 39.5 108.501 39.5h190c44.667 0 80.834 -13.167 108.501 -39.5s41.5 -59.833 41.5 -100.5v-195h-320v-55
c0 -7.33301 3.16699 -14.166 9.5 -20.499s13.166 -9.5 20.499 -9.5zM225 389.999l-0.00195312 -70h150v70c0 7.33301 -3.16699 14.166 -9.5 20.499s-13.166 9.5 -20.499 9.5h-90c-7.33301 0 -14.166 -3.16699 -20.499 -9.5s-9.5 -13.166 -9.5 -20.499zM99.998 759.999h135
l65 -70l65 70h135l-125 -150h-150z" />
    <glyph glyph-name="Gcircumflex" unicode="&#x11c;" horiz-adv-x="665" 
d="M325 415l275 0.00195312v-415h-375c-47.333 0 -85.833 14.167 -115.5 42.5s-44.5 64.166 -44.5 107.499v400c0 43.333 14.833 79.166 44.5 107.499s68.167 42.5 115.5 42.5h354v-85l-40 -45h-259c-10 0 -18.333 -3.33301 -25 -10s-10 -15 -10 -25v-370
c0 -10 3.33301 -18.333 10 -25s15 -10 25 -10h150v155h-105v130zM267 770.002h-135l125 150h150l125 -150h-135l-65 70z" />
    <glyph glyph-name="gcircumflex" unicode="&#x11d;" horiz-adv-x="620" 
d="M225 405v-75c0 -7.33301 3.16699 -14.166 9.5 -20.499s13.166 -9.5 20.499 -9.5h105c7.33301 0 14.166 3.16699 20.499 9.5s9.5 13.166 9.5 20.499v75c0 7.33301 -3.16699 14.166 -9.5 20.499s-13.166 9.5 -20.499 9.5h-105c-7.33301 0 -14.166 -3.16699 -20.499 -9.5
s-9.5 -13.166 -9.5 -20.499zM395 30h-175c-7.33301 0 -14.166 -3.16699 -20.499 -9.5s-9.5 -13.166 -9.5 -20.499v-30c0 -7.33301 3.16699 -14.166 9.5 -20.499s13.166 -9.5 20.499 -9.5h175c7.33301 0 14.166 3.16699 20.499 9.5s9.5 13.166 9.5 20.499v30
c0 7.33301 -3.16699 14.166 -9.5 20.499s-13.166 9.5 -20.499 9.5zM125 100l0.000976562 5.00293c-7.33301 2 -13.333 5.33301 -18 10c-11.333 8.66699 -17 22 -17 40v20c0 16.667 5.66699 30 17 40c4 3.33301 10 6.66602 18 9.99902v5c-11.333 4 -21.333 10 -30 18
c-20 20 -30 47.333 -30 82v75c0 40.667 13.833 74.167 41.5 100.5s63.834 39.5 108.501 39.5h150l25 75h125v-60l-45 -30v-5c14.667 -4.66699 28 -12.667 40 -24c26.667 -25.333 40 -57.333 40 -96v-75c0 -40.667 -13.833 -74.167 -41.5 -100.5
s-63.834 -39.5 -108.501 -39.5h-161c-2.66699 0 -5.66699 -1.33301 -9 -4s-5 -6.33398 -5 -11.001v-20c0 -10 5 -15 15 -15h195c44.667 0 80.834 -13.167 108.501 -39.5s41.5 -59.833 41.5 -100.5v-30c0 -40.667 -13.833 -74.167 -41.5 -100.5s-63.834 -39.5 -108.501 -39.5
h-255c-44.667 0 -80.834 13.167 -108.501 39.5s-41.5 59.833 -41.5 100.5v30c0 35.333 15.667 62.666 47 81.999c14 8 30 14 48 18zM265.001 620.003h-135l125 150h150l125 -150h-135l-65 70z" />
    <glyph glyph-name="Gbreve" unicode="&#x11e;" horiz-adv-x="665" 
d="M325 415l275 0.00195312v-415h-375c-47.333 0 -85.833 14.167 -115.5 42.5s-44.5 64.166 -44.5 107.499v400c0 43.333 14.833 79.166 44.5 107.499s68.167 42.5 115.5 42.5h354v-85l-40 -45h-259c-10 0 -18.333 -3.33301 -25 -10s-10 -15 -10 -25v-370
c0 -10 3.33301 -18.333 10 -25s15 -10 25 -10h150v155h-105v130zM422 770.002h-160c-28 0 -50 8 -66 24s-24 38 -24 66v70h120v-45c0 -16.667 8.33301 -25 25 -25h50c16.667 0 25 8.33301 25 25v45h120v-70c0 -28 -8 -50 -24 -66s-38 -24 -66 -24z" />
    <glyph glyph-name="gbreve" unicode="&#x11f;" horiz-adv-x="620" 
d="M225 405v-75c0 -7.33301 3.16699 -14.166 9.5 -20.499s13.166 -9.5 20.499 -9.5h105c7.33301 0 14.166 3.16699 20.499 9.5s9.5 13.166 9.5 20.499v75c0 7.33301 -3.16699 14.166 -9.5 20.499s-13.166 9.5 -20.499 9.5h-105c-7.33301 0 -14.166 -3.16699 -20.499 -9.5
s-9.5 -13.166 -9.5 -20.499zM395 30h-175c-7.33301 0 -14.166 -3.16699 -20.499 -9.5s-9.5 -13.166 -9.5 -20.499v-30c0 -7.33301 3.16699 -14.166 9.5 -20.499s13.166 -9.5 20.499 -9.5h175c7.33301 0 14.166 3.16699 20.499 9.5s9.5 13.166 9.5 20.499v30
c0 7.33301 -3.16699 14.166 -9.5 20.499s-13.166 9.5 -20.499 9.5zM125 100l0.000976562 5.00293c-7.33301 2 -13.333 5.33301 -18 10c-11.333 8.66699 -17 22 -17 40v20c0 16.667 5.66699 30 17 40c4 3.33301 10 6.66602 18 9.99902v5c-11.333 4 -21.333 10 -30 18
c-20 20 -30 47.333 -30 82v75c0 40.667 13.833 74.167 41.5 100.5s63.834 39.5 108.501 39.5h150l25 75h125v-60l-45 -30v-5c14.667 -4.66699 28 -12.667 40 -24c26.667 -25.333 40 -57.333 40 -96v-75c0 -40.667 -13.833 -74.167 -41.5 -100.5
s-63.834 -39.5 -108.501 -39.5h-161c-2.66699 0 -5.66699 -1.33301 -9 -4s-5 -6.33398 -5 -11.001v-20c0 -10 5 -15 15 -15h195c44.667 0 80.834 -13.167 108.501 -39.5s41.5 -59.833 41.5 -100.5v-30c0 -40.667 -13.833 -74.167 -41.5 -100.5s-63.834 -39.5 -108.501 -39.5
h-255c-44.667 0 -80.834 13.167 -108.501 39.5s-41.5 59.833 -41.5 100.5v30c0 35.333 15.667 62.666 47 81.999c14 8 30 14 48 18zM380.001 610.003h-160c-28 0 -50 8 -66 24s-24 38 -24 66v70h120v-45c0 -16.667 8.33301 -25 25 -25h50c16.667 0 25 8.33301 25 25v45h120
v-70c0 -28 -8 -50 -24 -66s-38 -24 -66 -24z" />
    <glyph glyph-name="Gdotaccent" unicode="&#x120;" horiz-adv-x="665" 
d="M325 415l275 0.00195312v-415h-375c-47.333 0 -85.833 14.167 -115.5 42.5s-44.5 64.166 -44.5 107.499v400c0 43.333 14.833 79.166 44.5 107.499s68.167 42.5 115.5 42.5h354v-85l-40 -45h-259c-10 0 -18.333 -3.33301 -25 -10s-10 -15 -10 -25v-370
c0 -10 3.33301 -18.333 10 -25s15 -10 25 -10h150v155h-105v130zM427 770.002h-170v140h170v-140z" />
    <glyph glyph-name="gdotaccent" unicode="&#x121;" horiz-adv-x="620" 
d="M225 405v-75c0 -7.33301 3.16699 -14.166 9.5 -20.499s13.166 -9.5 20.499 -9.5h105c7.33301 0 14.166 3.16699 20.499 9.5s9.5 13.166 9.5 20.499v75c0 7.33301 -3.16699 14.166 -9.5 20.499s-13.166 9.5 -20.499 9.5h-105c-7.33301 0 -14.166 -3.16699 -20.499 -9.5
s-9.5 -13.166 -9.5 -20.499zM395 30h-175c-7.33301 0 -14.166 -3.16699 -20.499 -9.5s-9.5 -13.166 -9.5 -20.499v-30c0 -7.33301 3.16699 -14.166 9.5 -20.499s13.166 -9.5 20.499 -9.5h175c7.33301 0 14.166 3.16699 20.499 9.5s9.5 13.166 9.5 20.499v30
c0 7.33301 -3.16699 14.166 -9.5 20.499s-13.166 9.5 -20.499 9.5zM125 100l0.000976562 5.00293c-7.33301 2 -13.333 5.33301 -18 10c-11.333 8.66699 -17 22 -17 40v20c0 16.667 5.66699 30 17 40c4 3.33301 10 6.66602 18 9.99902v5c-11.333 4 -21.333 10 -30 18
c-20 20 -30 47.333 -30 82v75c0 40.667 13.833 74.167 41.5 100.5s63.834 39.5 108.501 39.5h150l25 75h125v-60l-45 -30v-5c14.667 -4.66699 28 -12.667 40 -24c26.667 -25.333 40 -57.333 40 -96v-75c0 -40.667 -13.833 -74.167 -41.5 -100.5
s-63.834 -39.5 -108.501 -39.5h-161c-2.66699 0 -5.66699 -1.33301 -9 -4s-5 -6.33398 -5 -11.001v-20c0 -10 5 -15 15 -15h195c44.667 0 80.834 -13.167 108.501 -39.5s41.5 -59.833 41.5 -100.5v-30c0 -40.667 -13.833 -74.167 -41.5 -100.5s-63.834 -39.5 -108.501 -39.5
h-255c-44.667 0 -80.834 13.167 -108.501 39.5s-41.5 59.833 -41.5 100.5v30c0 35.333 15.667 62.666 47 81.999c14 8 30 14 48 18zM395.001 630.003h-170v140h170v-140z" />
    <glyph glyph-name="Gcommaaccent" unicode="&#x122;" horiz-adv-x="665" 
d="M325 415l275 0.00195312v-415h-375c-47.333 0 -85.833 14.167 -115.5 42.5s-44.5 64.166 -44.5 107.499v400c0 43.333 14.833 79.166 44.5 107.499s68.167 42.5 115.5 42.5h354v-85l-40 -45h-259c-10 0 -18.333 -3.33301 -25 -10s-10 -15 -10 -25v-370
c0 -10 3.33301 -18.333 10 -25s15 -10 25 -10h150v155h-105v130zM412 -170.998l-60 -85h-80v200h140v-115z" />
    <glyph glyph-name="gcommaaccent" unicode="&#x123;" horiz-adv-x="620" 
d="M225 405v-75c0 -7.33301 3.16699 -14.166 9.5 -20.499s13.166 -9.5 20.499 -9.5h105c7.33301 0 14.166 3.16699 20.499 9.5s9.5 13.166 9.5 20.499v75c0 7.33301 -3.16699 14.166 -9.5 20.499s-13.166 9.5 -20.499 9.5h-105c-7.33301 0 -14.166 -3.16699 -20.499 -9.5
s-9.5 -13.166 -9.5 -20.499zM395 30h-175c-7.33301 0 -14.166 -3.16699 -20.499 -9.5s-9.5 -13.166 -9.5 -20.499v-30c0 -7.33301 3.16699 -14.166 9.5 -20.499s13.166 -9.5 20.499 -9.5h175c7.33301 0 14.166 3.16699 20.499 9.5s9.5 13.166 9.5 20.499v30
c0 7.33301 -3.16699 14.166 -9.5 20.499s-13.166 9.5 -20.499 9.5zM125 100l0.000976562 5.00293c-7.33301 2 -13.333 5.33301 -18 10c-11.333 8.66699 -17 22 -17 40v20c0 16.667 5.66699 30 17 40c4 3.33301 10 6.66602 18 9.99902v5c-11.333 4 -21.333 10 -30 18
c-20 20 -30 47.333 -30 82v75c0 40.667 13.833 74.167 41.5 100.5s63.834 39.5 108.501 39.5h150l25 75h125v-60l-45 -30v-5c14.667 -4.66699 28 -12.667 40 -24c26.667 -25.333 40 -57.333 40 -96v-75c0 -40.667 -13.833 -74.167 -41.5 -100.5
s-63.834 -39.5 -108.501 -39.5h-161c-2.66699 0 -5.66699 -1.33301 -9 -4s-5 -6.33398 -5 -11.001v-20c0 -10 5 -15 15 -15h195c44.667 0 80.834 -13.167 108.501 -39.5s41.5 -59.833 41.5 -100.5v-30c0 -40.667 -13.833 -74.167 -41.5 -100.5s-63.834 -39.5 -108.501 -39.5
h-255c-44.667 0 -80.834 13.167 -108.501 39.5s-41.5 59.833 -41.5 100.5v30c0 35.333 15.667 62.666 47 81.999c14 8 30 14 48 18zM227.001 739.003l60 85h80v-200h-140v115z" />
    <glyph glyph-name="Hcircumflex" unicode="&#x124;" horiz-adv-x="710" 
d="M260 0h-180v700h180v-285h190v285h180v-700h-180v285h-190v-285zM290 760h-135l125 150h150l125 -150h-135l-65 70z" />
    <glyph glyph-name="hcircumflex" unicode="&#x125;" horiz-adv-x="635" 
d="M245 530l174.998 0.000976562c44.667 0 80.834 -13.167 108.501 -39.5s41.5 -59.833 41.5 -100.5v-390h-170v380c0 7.33301 -3.16699 14.166 -9.5 20.499s-13.166 9.5 -20.499 9.5h-125v-410h-170v700h170v-170zM102.998 750.001h-135l125 150h150l125 -150h-135l-65 70z
" />
    <glyph glyph-name="Hbar" unicode="&#x126;" horiz-adv-x="710" 
d="M260 0h-180v470h-60v110h60v120h180v-120h190v120h180v-120h60v-110h-60v-470h-180v245h-190v-245zM260 375h190v95h-190v-95z" />
    <glyph glyph-name="hbar" unicode="&#x127;" horiz-adv-x="650" 
d="M265 430l174.998 0.000976562c44.667 0 80.834 -13.167 108.501 -39.5s41.5 -59.833 41.5 -100.5v-290h-170v280c0 7.33301 -3.16699 14.166 -9.5 20.499s-13.166 9.5 -20.499 9.5h-125v-310h-170v490h-70v120h80l50 90h110v-90h145v-120h-145v-60z" />
    <glyph glyph-name="Itilde" unicode="&#x128;" horiz-adv-x="340" 
d="M260 0h-180v700h180v-700zM6 765l0.000976562 95.001c0 20 7 36.667 21 50s32 20 54 20h15c10 0 21.667 -4.33301 35 -13c5.33301 -2 12 -6 20 -12l45 -30c4.66699 -3.33301 7.33398 -5 8.00098 -5c5.33301 -3.33301 9.33301 -5 12 -5c6.66699 0 10 5 10 15v45h110v-95
c0 -20 -7 -36.667 -21 -50s-32 -20 -54 -20h-15c-10.667 0 -22.334 4 -35.001 12c-3.33301 1.33301 -10 5.66602 -20 12.999l-45 30c-0.666992 0 -3.33398 1.66699 -8.00098 5s-8.66699 5 -12 5c-6.66699 0 -10 -5 -10 -15v-45h-110z" />
    <glyph glyph-name="itilde" unicode="&#x129;" horiz-adv-x="300" 
d="M235 530v-530h-170v530h170zM-14 605l0.000976562 95.001c0 20 7 36.667 21 50s32 20 54 20h15c10 0 21.667 -4.33301 35 -13c5.33301 -2 12 -6 20 -12l45 -30c4.66699 -3.33301 7.33398 -5 8.00098 -5c5.33301 -3.33301 9.33301 -5 12 -5c6.66699 0 10 5 10 15v45h110
v-95c0 -20 -7 -36.667 -21 -50s-32 -20 -54 -20h-15c-10.667 0 -22.334 4 -35.001 12c-3.33301 1.33301 -10 5.66602 -20 12.999l-45 30c-0.666992 0 -3.33398 1.66699 -8.00098 5s-8.66699 5 -12 5c-6.66699 0 -10 -5 -10 -15v-45h-110z" />
    <glyph glyph-name="Imacron" unicode="&#x12a;" horiz-adv-x="340" 
d="M260 0h-180v700h180v-700zM334 890v-110h-325v110h325z" />
    <glyph glyph-name="imacron" unicode="&#x12b;" horiz-adv-x="300" 
d="M235 530v-530h-170v530h170zM314 720v-110h-325v110h325z" />
    <glyph glyph-name="Ibreve" unicode="&#x12c;" horiz-adv-x="340" 
d="M260 0h-180v700h180v-700zM251 770h-160c-28 0 -50 8 -66 24s-24 38 -24 66v70h120v-45c0 -16.667 8.33301 -25 25 -25h50c16.667 0 25 8.33301 25 25v45h120v-70c0 -28 -8 -50 -24 -66s-38 -24 -66 -24z" />
    <glyph glyph-name="ibreve" unicode="&#x12d;" horiz-adv-x="300" 
d="M235 530v-530h-170v530h170zM231 610h-160c-28 0 -50 8 -66 24s-24 38 -24 66v70h120v-45c0 -16.667 8.33301 -25 25 -25h50c16.667 0 25 8.33301 25 25v45h120v-70c0 -28 -8 -50 -24 -66s-38 -24 -66 -24z" />
    <glyph glyph-name="Iogonek" unicode="&#x12e;" horiz-adv-x="340" 
d="M145 0l-65 -0.000976562v700h180v-725c-22 -5.33301 -39.667 -11.666 -53 -18.999c-34.667 -19.333 -52 -43 -52 -71c0 -16.667 8.33301 -25 25 -25h80v-80h-90c-90 0 -135 35 -135 105c0 33.333 18.333 62.333 55 87c18 12.667 36.333 22 55 28z" />
    <glyph glyph-name="iogonek" unicode="&#x12f;" horiz-adv-x="300" 
d="M235 530v-530.001h-3v-25c-22 -5.33301 -39.667 -11.666 -53 -18.999c-34.667 -19.333 -52 -43 -52 -71c0 -16.667 8.33301 -25 25 -25h80v-80h-90c-90 0 -135 35 -135 105c0 33.333 18.333 62.333 55 87c18 12.667 36.333 22 55 28h-52v530h170zM235 579.999h-170v140
h170v-140z" />
    <glyph glyph-name="Idotaccent" unicode="&#x130;" horiz-adv-x="340" 
d="M260 0h-180v700h180v-700zM255 770h-170v140h170v-140z" />
    <glyph glyph-name="dotlessi" unicode="&#x131;" horiz-adv-x="300" 
d="M235 530v-530h-170v530h170z" />
    <glyph glyph-name="IJ" unicode="&#x132;" horiz-adv-x="885" 
d="M260 0h-180v700h180v-700zM645 -10l-295 -0.000976562v130h240c10 0 18.333 3.33301 25 10s10 15 10 25v545h180v-560c0 -43.333 -14.833 -79.166 -44.5 -107.499s-68.167 -42.5 -115.5 -42.5z" />
    <glyph glyph-name="ij" unicode="&#x133;" horiz-adv-x="620" 
d="M235 530v-530h-170v530h170zM235 580h-170v140h170v-140zM245 -50l110.002 0.000976562c7.33301 0 14.166 3.16699 20.499 9.5s9.5 13.166 9.5 20.499v550h170v-560c0 -40.667 -13.833 -74.167 -41.5 -100.5s-63.834 -39.5 -108.501 -39.5h-160v120zM555.002 580.001
h-170v140h170v-140z" />
    <glyph glyph-name="Jcircumflex" unicode="&#x134;" horiz-adv-x="545" 
d="M305 -10l-295 -0.000976562v130h240c10 0 18.333 3.33301 25 10s10 15 10 25v545h180v-560c0 -43.333 -14.833 -79.166 -44.5 -107.499s-68.167 -42.5 -115.5 -42.5zM307 759.999h-135l125 150h150l125 -150h-135l-65 70z" />
    <glyph glyph-name="jcircumflex" unicode="&#x135;" horiz-adv-x="320" 
d="M-55 -50l110.002 0.000976562c7.33301 0 14.166 3.16699 20.499 9.5s9.5 13.166 9.5 20.499v550h170v-560c0 -40.667 -13.833 -74.167 -41.5 -100.5s-63.834 -39.5 -108.501 -39.5h-160v120zM105.002 600.001h-135l125 150h150l125 -150h-135l-65 70z" />
    <glyph glyph-name="Kcommaaccent" unicode="&#x136;" horiz-adv-x="680" 
d="M260 0h-180v700h180v-285h85l110 285h180v-70l-140 -275l155 -285v-70h-180l-125 285h-85v-285zM420 -151l-60 -85h-80v200h140v-115z" />
    <glyph glyph-name="kcommaaccent" unicode="&#x137;" horiz-adv-x="610" 
d="M245 700v-375h69l81 205h170v-65l-115 -195l130 -205v-65h-170l-96 205h-69v-205h-170v700h170zM395 -151l-60 -85h-80v200h140v-115z" />
    <glyph glyph-name="Lacute" unicode="&#x139;" horiz-adv-x="570" 
d="M560 0h-480v700h180v-570h300v-130zM175 930h175l-120 -160h-130z" />
    <glyph glyph-name="lacute" unicode="&#x13a;" horiz-adv-x="360" 
d="M275 110l45.002 -0.000976562v-120h-95c-44.667 0 -80.834 13.167 -108.501 39.5s-41.5 59.833 -41.5 100.5v570h170v-560c0 -7.33301 3.16699 -14.166 9.5 -20.499s13.166 -9.5 20.499 -9.5zM160.002 939.999h175l-120 -160h-130z" />
    <glyph glyph-name="Lcommaaccent" unicode="&#x13b;" horiz-adv-x="570" 
d="M560 0h-480v700h180v-570h300v-130zM385 -180l-60 -85h-80v200h140v-115z" />
    <glyph glyph-name="lcommaaccent" unicode="&#x13c;" horiz-adv-x="360" 
d="M275 110l45.002 -0.000976562v-120h-95c-44.667 0 -80.834 13.167 -108.501 39.5s-41.5 59.833 -41.5 100.5v570h170v-560c0 -7.33301 3.16699 -14.166 9.5 -20.499s13.166 -9.5 20.499 -9.5zM280.002 -180.001l-60 -85h-80v200h140v-115z" />
    <glyph glyph-name="Lcaron" unicode="&#x13d;" horiz-adv-x="570" 
d="M560 0h-480v700h180v-570h300v-130zM500 585l-70 -135h-80v250h150v-115z" />
    <glyph glyph-name="lcaron" unicode="&#x13e;" horiz-adv-x="475" 
d="M275 110l45.002 -0.000976562v-120h-95c-44.667 0 -80.834 13.167 -108.501 39.5s-41.5 59.833 -41.5 100.5v570h170v-560c0 -7.33301 3.16699 -14.166 9.5 -20.499s13.166 -9.5 20.499 -9.5zM465.002 584.999l-70 -135h-80v250h150v-115z" />
    <glyph glyph-name="Ldot" unicode="&#x13f;" horiz-adv-x="570" 
d="M560 0h-480v700h180v-570h300v-130zM490 325h-150v150h150v-150z" />
    <glyph glyph-name="ldot" unicode="&#x140;" horiz-adv-x="510" 
d="M275 110l45.002 -0.000976562v-120h-95c-44.667 0 -80.834 13.167 -108.501 39.5s-41.5 59.833 -41.5 100.5v570h170v-560c0 -7.33301 3.16699 -14.166 9.5 -20.499s13.166 -9.5 20.499 -9.5zM475.002 279.999h-150v150h150v-150z" />
    <glyph glyph-name="Lslash" unicode="&#x141;" horiz-adv-x="570" 
d="M15 350l65 28v322h180v-244l100 44v-140l-100 -44v-186h300v-130h-480v238l-65 -28v140z" />
    <glyph glyph-name="lslash" unicode="&#x142;" horiz-adv-x="360" 
d="M275 110l45.002 -0.000976562v-120h-95c-44.667 0 -80.834 13.167 -108.501 39.5s-41.5 59.833 -41.5 100.5v106l-60 -26v140l60 26v324h170v-248l85 38v-140l-85 -38v-172c0 -7.33301 3.16699 -14.166 9.5 -20.499s13.166 -9.5 20.499 -9.5z" />
    <glyph glyph-name="Nacute" unicode="&#x143;" horiz-adv-x="710" 
d="M630 700v-700h-195l-200 440h-10l35 -240v-200h-180v700h195l200 -440h10l-35 240v200h180zM345 930h175l-120 -160h-130z" />
    <glyph glyph-name="nacute" unicode="&#x144;" horiz-adv-x="635" 
d="M305 540l114.998 0.00195312c44.667 0 80.834 -13.167 108.501 -39.5s41.5 -59.833 41.5 -100.5v-400h-170v390c0 7.33301 -3.16699 14.166 -9.5 20.499s-13.166 9.5 -20.499 9.5h-90c-14.667 0 -26.667 -6 -36 -18c-4 -4.66699 -7 -10.334 -9 -17.001v-385h-170v530h110
l25 -65h5c6 16 12.667 28.333 20 37c20 25.333 46.667 38 80 38zM326.998 770.002h175l-120 -160h-130z" />
    <glyph glyph-name="Ncommaaccent" unicode="&#x145;" horiz-adv-x="710" 
d="M630 700v-700h-195l-200 440h-10l35 -240v-200h-180v700h195l200 -440h10l-35 240v200h180zM425 -151l-60 -85h-80v200h140v-115z" />
    <glyph glyph-name="ncommaaccent" unicode="&#x146;" horiz-adv-x="635" 
d="M305 540l114.998 0.00195312c44.667 0 80.834 -13.167 108.501 -39.5s41.5 -59.833 41.5 -100.5v-400h-170v390c0 7.33301 -3.16699 14.166 -9.5 20.499s-13.166 9.5 -20.499 9.5h-90c-14.667 0 -26.667 -6 -36 -18c-4 -4.66699 -7 -10.334 -9 -17.001v-385h-170v530h110
l25 -65h5c6 16 12.667 28.333 20 37c20 25.333 46.667 38 80 38zM386.998 -160.998l-60 -85h-80v200h140v-115z" />
    <glyph glyph-name="Ncaron" unicode="&#x147;" horiz-adv-x="710" 
d="M630 700v-700h-195l-200 440h-10l35 -240v-200h-180v700h195l200 -440h10l-35 240v200h180zM155 920h135l65 -70l65 70h135l-125 -150h-150z" />
    <glyph glyph-name="ncaron" unicode="&#x148;" horiz-adv-x="635" 
d="M305 540l114.998 0.00195312c44.667 0 80.834 -13.167 108.501 -39.5s41.5 -59.833 41.5 -100.5v-400h-170v390c0 7.33301 -3.16699 14.166 -9.5 20.499s-13.166 9.5 -20.499 9.5h-90c-14.667 0 -26.667 -6 -36 -18c-4 -4.66699 -7 -10.334 -9 -17.001v-385h-170v530h110
l25 -65h5c6 16 12.667 28.333 20 37c20 25.333 46.667 38 80 38zM116.998 760.002h135l65 -70l65 70h135l-125 -150h-150z" />
    <glyph glyph-name="Omacron" unicode="&#x14c;" horiz-adv-x="690" 
d="M280 120h130c10 0 18.333 3.33301 25 10s10 15 10 25v390c0 10 -3.33301 18.333 -10 25s-15 10 -25 10h-130c-10 0 -18.333 -3.33301 -25 -10s-10 -15 -10 -25v-390c0 -10 3.33301 -18.333 10 -25s15 -10 25 -10zM465 -10h-240c-47.333 0 -85.833 14.167 -115.5 42.5
s-44.5 64.166 -44.5 107.499v420c0 43.333 14.833 79.166 44.5 107.499s68.167 42.5 115.5 42.5h240c48.667 0 87.5 -14.667 116.5 -44s43.5 -64.666 43.5 -105.999v-420c0 -43.333 -14.833 -79.166 -44.5 -107.499s-68.167 -42.5 -115.5 -42.5zM507 890v-110h-325v110h325z
" />
    <glyph glyph-name="omacron" unicode="&#x14d;" horiz-adv-x="625" 
d="M570 400v-270c0 -40.667 -13.833 -74.167 -41.5 -100.5s-63.834 -39.5 -108.501 -39.5h-215c-44.667 0 -80.834 13.167 -108.501 39.5s-41.5 59.833 -41.5 100.5v270c0 40.667 13.833 74.167 41.5 100.5s63.834 39.5 108.501 39.5h215
c44.667 0 80.834 -13.167 108.501 -39.5s41.5 -59.833 41.5 -100.5zM255 110h115c7.33301 0 14.166 3.16699 20.499 9.5s9.5 13.166 9.5 20.499v250c0 7.33301 -3.16699 14.166 -9.5 20.499s-13.166 9.5 -20.499 9.5h-115c-7.33301 0 -14.166 -3.16699 -20.499 -9.5
s-9.5 -13.166 -9.5 -20.499v-250c0 -7.33301 3.16699 -14.166 9.5 -20.499s13.166 -9.5 20.499 -9.5zM475 730v-110h-325v110h325z" />
    <glyph glyph-name="Obreve" unicode="&#x14e;" horiz-adv-x="690" 
d="M280 120h130c10 0 18.333 3.33301 25 10s10 15 10 25v390c0 10 -3.33301 18.333 -10 25s-15 10 -25 10h-130c-10 0 -18.333 -3.33301 -25 -10s-10 -15 -10 -25v-390c0 -10 3.33301 -18.333 10 -25s15 -10 25 -10zM465 -10h-240c-47.333 0 -85.833 14.167 -115.5 42.5
s-44.5 64.166 -44.5 107.499v420c0 43.333 14.833 79.166 44.5 107.499s68.167 42.5 115.5 42.5h240c48.667 0 87.5 -14.667 116.5 -44s43.5 -64.666 43.5 -105.999v-420c0 -43.333 -14.833 -79.166 -44.5 -107.499s-68.167 -42.5 -115.5 -42.5zM425 770h-160
c-28 0 -50 8 -66 24s-24 38 -24 66v70h120v-45c0 -16.667 8.33301 -25 25 -25h50c16.667 0 25 8.33301 25 25v45h120v-70c0 -28 -8 -50 -24 -66s-38 -24 -66 -24z" />
    <glyph glyph-name="obreve" unicode="&#x14f;" horiz-adv-x="625" 
d="M570 400v-270c0 -40.667 -13.833 -74.167 -41.5 -100.5s-63.834 -39.5 -108.501 -39.5h-215c-44.667 0 -80.834 13.167 -108.501 39.5s-41.5 59.833 -41.5 100.5v270c0 40.667 13.833 74.167 41.5 100.5s63.834 39.5 108.501 39.5h215
c44.667 0 80.834 -13.167 108.501 -39.5s41.5 -59.833 41.5 -100.5zM255 110h115c7.33301 0 14.166 3.16699 20.499 9.5s9.5 13.166 9.5 20.499v250c0 7.33301 -3.16699 14.166 -9.5 20.499s-13.166 9.5 -20.499 9.5h-115c-7.33301 0 -14.166 -3.16699 -20.499 -9.5
s-9.5 -13.166 -9.5 -20.499v-250c0 -7.33301 3.16699 -14.166 9.5 -20.499s13.166 -9.5 20.499 -9.5zM392 610h-160c-28 0 -50 8 -66 24s-24 38 -24 66v70h120v-45c0 -16.667 8.33301 -25 25 -25h50c16.667 0 25 8.33301 25 25v45h120v-70c0 -28 -8 -50 -24 -66
s-38 -24 -66 -24z" />
    <glyph glyph-name="Ohungarumlaut" unicode="&#x150;" horiz-adv-x="690" 
d="M280 120h130c10 0 18.333 3.33301 25 10s10 15 10 25v390c0 10 -3.33301 18.333 -10 25s-15 10 -25 10h-130c-10 0 -18.333 -3.33301 -25 -10s-10 -15 -10 -25v-390c0 -10 3.33301 -18.333 10 -25s15 -10 25 -10zM465 -10h-240c-47.333 0 -85.833 14.167 -115.5 42.5
s-44.5 64.166 -44.5 107.499v420c0 43.333 14.833 79.166 44.5 107.499s68.167 42.5 115.5 42.5h240c48.667 0 87.5 -14.667 116.5 -44s43.5 -64.666 43.5 -105.999v-420c0 -43.333 -14.833 -79.166 -44.5 -107.499s-68.167 -42.5 -115.5 -42.5zM260 940h145l-110 -160h-110
zM460 940h145l-110 -160h-110z" />
    <glyph glyph-name="ohungarumlaut" unicode="&#x151;" horiz-adv-x="625" 
d="M570 400v-270c0 -40.667 -13.833 -74.167 -41.5 -100.5s-63.834 -39.5 -108.501 -39.5h-215c-44.667 0 -80.834 13.167 -108.501 39.5s-41.5 59.833 -41.5 100.5v270c0 40.667 13.833 74.167 41.5 100.5s63.834 39.5 108.501 39.5h215
c44.667 0 80.834 -13.167 108.501 -39.5s41.5 -59.833 41.5 -100.5zM255 110h115c7.33301 0 14.166 3.16699 20.499 9.5s9.5 13.166 9.5 20.499v250c0 7.33301 -3.16699 14.166 -9.5 20.499s-13.166 9.5 -20.499 9.5h-115c-7.33301 0 -14.166 -3.16699 -20.499 -9.5
s-9.5 -13.166 -9.5 -20.499v-250c0 -7.33301 3.16699 -14.166 9.5 -20.499s13.166 -9.5 20.499 -9.5zM217 770h145l-110 -160h-110zM417 770h145l-110 -160h-110z" />
    <glyph glyph-name="OE" unicode="&#x152;" horiz-adv-x="965" 
d="M930 700v-84.998l-40 -45h-280v-150h230v-130h-230v-160h320v-130h-705c-47.333 0 -85.833 14.167 -115.5 42.5s-44.5 64.166 -44.5 107.499v400c0 43.333 14.833 79.166 44.5 107.499s68.167 42.5 115.5 42.5h705zM430 570.002h-150c-10 0 -18.333 -3.33301 -25 -10
s-10 -15 -10 -25v-370c0 -10 3.33301 -18.333 10 -25s15 -10 25 -10h150v440z" />
    <glyph glyph-name="oe" unicode="&#x153;" horiz-adv-x="945" 
d="M600 120l265 -0.000976562v-120h-305c-18.667 0 -35.334 6.66699 -50.001 20c-7.33301 6 -14 12.667 -20 20c-9.33301 -12 -17 -20.333 -23 -25c-19.333 -16.667 -41.666 -25 -66.999 -25h-195c-44.667 0 -80.834 13.167 -108.501 39.5s-41.5 59.833 -41.5 100.5v270
c0 40.667 13.833 74.167 41.5 100.5s63.834 39.5 108.501 39.5h195c20 0 40.333 -8.33301 61 -25c8 -6 16 -14.333 24 -25c8 10.667 16 19 24 25c20.667 16.667 41 25 61 25h170c44.667 0 80.834 -13.167 108.501 -39.5s41.5 -59.833 41.5 -100.5v-195h-320v-55
c0 -7.33301 3.16699 -14.166 9.5 -20.499s13.166 -9.5 20.499 -9.5zM255 109.999h115c7.33301 0 14.166 3.16699 20.499 9.5s9.5 13.166 9.5 20.499v250c0 7.33301 -3.16699 14.166 -9.5 20.499s-13.166 9.5 -20.499 9.5h-115c-7.33301 0 -14.166 -3.16699 -20.499 -9.5
s-9.5 -13.166 -9.5 -20.499v-250c0 -7.33301 3.16699 -14.166 9.5 -20.499s13.166 -9.5 20.499 -9.5zM570 389.999l-0.00195312 -70h150v70c0 7.33301 -3.16699 14.166 -9.5 20.499s-13.166 9.5 -20.499 9.5h-90c-7.33301 0 -14.166 -3.16699 -20.499 -9.5
s-9.5 -13.166 -9.5 -20.499z" />
    <glyph glyph-name="Racute" unicode="&#x154;" horiz-adv-x="695" 
d="M260 0l-180.001 -0.000976562v700h380c48 0 86.667 -14.667 116 -44s44 -64.666 44 -105.999v-150c0 -44 -17.667 -79.667 -53 -107c-13.333 -10.667 -30.666 -20 -51.999 -28l135 -195v-70h-180l-135 250h-75v-250zM404.999 569.999h-145v-190h145
c10 0 18.333 3.33301 25 10s10 15 10 25v120c0 10 -3.33301 18.333 -10 25s-15 10 -25 10zM336.999 929.999h175l-120 -160h-130z" />
    <glyph glyph-name="racute" unicode="&#x155;" horiz-adv-x="470" 
d="M305 540l149.999 0.000976562v-120h-175c-14.667 0 -26.667 -6 -36 -18c-4 -4.66699 -7 -10.334 -9 -17.001v-385h-170v530h110l25 -60h5c5.33301 13.333 12 25 20 35c20.667 23.333 47.334 35 80.001 35zM254.999 770.001h175l-120 -160h-130z" />
    <glyph glyph-name="Rcommaaccent" unicode="&#x156;" horiz-adv-x="695" 
d="M260 0l-180.001 -0.000976562v700h380c48 0 86.667 -14.667 116 -44s44 -64.666 44 -105.999v-150c0 -44 -17.667 -79.667 -53 -107c-13.333 -10.667 -30.666 -20 -51.999 -28l135 -195v-70h-180l-135 250h-75v-250zM404.999 569.999h-145v-190h145
c10 0 18.333 3.33301 25 10s10 15 10 25v120c0 10 -3.33301 18.333 -10 25s-15 10 -25 10zM416.999 -151.001l-60 -85h-80v200h140v-115z" />
    <glyph glyph-name="rcommaaccent" unicode="&#x157;" horiz-adv-x="470" 
d="M305 540l149.999 0.000976562v-120h-175c-14.667 0 -26.667 -6 -36 -18c-4 -4.66699 -7 -10.334 -9 -17.001v-385h-170v530h110l25 -60h5c5.33301 13.333 12 25 20 35c20.667 23.333 47.334 35 80.001 35zM214.999 -179.999l-60 -85h-80v200h140v-115z" />
    <glyph glyph-name="Rcaron" unicode="&#x158;" horiz-adv-x="695" 
d="M260 0l-180.001 -0.000976562v700h380c48 0 86.667 -14.667 116 -44s44 -64.666 44 -105.999v-150c0 -44 -17.667 -79.667 -53 -107c-13.333 -10.667 -30.666 -20 -51.999 -28l135 -195v-70h-180l-135 250h-75v-250zM404.999 569.999h-145v-190h145
c10 0 18.333 3.33301 25 10s10 15 10 25v120c0 10 -3.33301 18.333 -10 25s-15 10 -25 10zM126.999 909.999h135l65 -70l65 70h135l-125 -150h-150z" />
    <glyph glyph-name="rcaron" unicode="&#x159;" horiz-adv-x="470" 
d="M305 540l149.999 0.000976562v-120h-175c-14.667 0 -26.667 -6 -36 -18c-4 -4.66699 -7 -10.334 -9 -17.001v-385h-170v530h110l25 -60h5c5.33301 13.333 12 25 20 35c20.667 23.333 47.334 35 80.001 35zM54.999 760.001h135l65 -70l65 70h135l-125 -150h-150z" />
    <glyph glyph-name="Sacute" unicode="&#x15a;" 
d="M35 465v85c0 43.333 14.833 79.166 44.5 107.499s68.167 42.5 115.5 42.5h340v-85l-40 -45h-245c-10 0 -18.333 -3.33301 -25 -10s-10 -15 -10 -25v-50c0 -25.333 13.333 -40.333 40 -45l185 -40c36.667 -8.66699 66.667 -26.167 90 -52.5s35 -58.833 35 -97.5v-100
c0 -43.333 -14.833 -79.166 -44.5 -107.499s-68.167 -42.5 -115.5 -42.5h-370v130h315c10 0 18.333 3.33301 25 10s10 15 10 25v65c0 25.333 -13.333 40.333 -40 45l-185 40c-36.667 8.66699 -66.667 26.167 -90 52.5s-35 58.833 -35 97.5zM300 930h175l-120 -160h-130z" />
    <glyph glyph-name="sacute" unicode="&#x15b;" horiz-adv-x="545" 
d="M340 145v20c0 16 -10 26 -30 30l-170 30c-29.333 6 -54.166 20.667 -74.499 44s-30.5 52 -30.5 86v40c0 40.667 13 73.334 39 98.001s61.333 37 106 37h300v-75l-40 -45h-210c-16.667 0 -25 -8.33301 -25 -25v-15c0 -16 10 -26 30 -30l170 -30
c29.333 -6 54.166 -20.667 74.499 -44s30.5 -52 30.5 -86v-45c0 -40.667 -13 -73.334 -39 -98.001s-61.333 -37 -106 -37h-330v120h280c16.667 0 25 8.33301 25 25zM272 770h175l-120 -160h-130z" />
    <glyph glyph-name="Scircumflex" unicode="&#x15c;" 
d="M35 465v85c0 43.333 14.833 79.166 44.5 107.499s68.167 42.5 115.5 42.5h340v-85l-40 -45h-245c-10 0 -18.333 -3.33301 -25 -10s-10 -15 -10 -25v-50c0 -25.333 13.333 -40.333 40 -45l185 -40c36.667 -8.66699 66.667 -26.167 90 -52.5s35 -58.833 35 -97.5v-100
c0 -43.333 -14.833 -79.166 -44.5 -107.499s-68.167 -42.5 -115.5 -42.5h-370v130h315c10 0 18.333 3.33301 25 10s10 15 10 25v65c0 25.333 -13.333 40.333 -40 45l-185 40c-36.667 8.66699 -66.667 26.167 -90 52.5s-35 58.833 -35 97.5zM235 770h-135l125 150h150
l125 -150h-135l-65 70z" />
    <glyph glyph-name="scircumflex" unicode="&#x15d;" horiz-adv-x="545" 
d="M340 145v20c0 16 -10 26 -30 30l-170 30c-29.333 6 -54.166 20.667 -74.499 44s-30.5 52 -30.5 86v40c0 40.667 13 73.334 39 98.001s61.333 37 106 37h300v-75l-40 -45h-210c-16.667 0 -25 -8.33301 -25 -25v-15c0 -16 10 -26 30 -30l170 -30
c29.333 -6 54.166 -20.667 74.499 -44s30.5 -52 30.5 -86v-45c0 -40.667 -13 -73.334 -39 -98.001s-61.333 -37 -106 -37h-330v120h280c16.667 0 25 8.33301 25 25zM207 600h-135l125 150h150l125 -150h-135l-65 70z" />
    <glyph glyph-name="Scedilla" unicode="&#x15e;" 
d="M35 465v85c0 43.333 14.833 79.166 44.5 107.499s68.167 42.5 115.5 42.5h340v-85l-40 -45h-245c-10 0 -18.333 -3.33301 -25 -10s-10 -15 -10 -25v-50c0 -25.333 13.333 -40.333 40 -45l185 -40c36.667 -8.66699 66.667 -26.167 90 -52.5s35 -58.833 35 -97.5v-100
c0 -43.333 -14.833 -79.166 -44.5 -107.499s-68.167 -42.5 -115.5 -42.5h-107v-35h40c28 0 50.833 -8.5 68.5 -25.5s26.5 -38.5 26.5 -64.5v-31c0 -24.667 -9 -45.667 -27 -63s-40.667 -26 -68 -26h-151v80h101c16.667 0 25 8.33301 25 25s-8.33301 25 -25 25h-85v115h-168
v130h315c10 0 18.333 3.33301 25 10s10 15 10 25v65c0 25.333 -13.333 40.333 -40 45l-185 40c-36.667 8.66699 -66.667 26.167 -90 52.5s-35 58.833 -35 97.5z" />
    <glyph glyph-name="scedilla" unicode="&#x15f;" horiz-adv-x="545" 
d="M340 145v20c0 16 -10 26 -30 30l-170 30c-29.333 6 -54.166 20.667 -74.499 44s-30.5 52 -30.5 86v40c0 40.667 13 73.334 39 98.001s61.333 37 106 37h300v-75l-40 -45h-210c-16.667 0 -25 -8.33301 -25 -25v-15c0 -16 10 -26 30 -30l170 -30
c29.333 -6 54.166 -20.667 74.499 -44s30.5 -52 30.5 -86v-45c0 -40.667 -13 -73.334 -39 -98.001s-61.333 -37 -106 -37h-85v-35h40c28 0 50.833 -8.5 68.5 -25.5s26.5 -38.5 26.5 -64.5v-31c0 -24.667 -9 -45.667 -27 -63s-40.667 -26 -68 -26h-151v80h101
c16.667 0 25 8.33301 25 25s-8.33301 25 -25 25h-85v115h-150v120h280c16.667 0 25 8.33301 25 25z" />
    <glyph glyph-name="Scaron" unicode="&#x160;" 
d="M35 465v85c0 43.333 14.833 79.166 44.5 107.499s68.167 42.5 115.5 42.5h340v-85l-40 -45h-245c-10 0 -18.333 -3.33301 -25 -10s-10 -15 -10 -25v-50c0 -25.333 13.333 -40.333 40 -45l185 -40c36.667 -8.66699 66.667 -26.167 90 -52.5s35 -58.833 35 -97.5v-100
c0 -43.333 -14.833 -79.166 -44.5 -107.499s-68.167 -42.5 -115.5 -42.5h-370v130h315c10 0 18.333 3.33301 25 10s10 15 10 25v65c0 25.333 -13.333 40.333 -40 45l-185 40c-36.667 8.66699 -66.667 26.167 -90 52.5s-35 58.833 -35 97.5zM100 920h135l65 -70l65 70h135
l-125 -150h-150z" />
    <glyph glyph-name="scaron" unicode="&#x161;" horiz-adv-x="545" 
d="M340 145v20c0 16 -10 26 -30 30l-170 30c-29.333 6 -54.166 20.667 -74.499 44s-30.5 52 -30.5 86v40c0 40.667 13 73.334 39 98.001s61.333 37 106 37h300v-75l-40 -45h-210c-16.667 0 -25 -8.33301 -25 -25v-15c0 -16 10 -26 30 -30l170 -30
c29.333 -6 54.166 -20.667 74.499 -44s30.5 -52 30.5 -86v-45c0 -40.667 -13 -73.334 -39 -98.001s-61.333 -37 -106 -37h-330v120h280c16.667 0 25 8.33301 25 25zM72 750h135l65 -70l65 70h135l-125 -150h-150z" />
    <glyph glyph-name="Tcommaaccent" unicode="&#x162;" 
d="M15 570v130h570v-85l-40 -45h-155v-570h-180v570h-195zM370 -190l-60 -85h-80v200h140v-115z" />
    <glyph glyph-name="tcommaaccent" unicode="&#x163;" horiz-adv-x="465" 
d="M290 110l160.002 -0.000976562v-120h-210c-44.667 0 -80.834 13.167 -108.501 39.5s-41.5 59.833 -41.5 100.5v280h-70v120h80l60 140h100v-140h135v-120h-135v-270c0 -7.33301 3.16699 -14.166 9.5 -20.499s13.166 -9.5 20.499 -9.5zM342.002 -180.001l-60 -85h-80v200
h140v-115z" />
    <glyph glyph-name="Tcaron" unicode="&#x164;" 
d="M15 570v130h570v-85l-40 -45h-155v-570h-180v570h-195zM100 910h135l65 -70l65 70h135l-125 -150h-150z" />
    <glyph glyph-name="tcaron" unicode="&#x165;" 
d="M290 110l160.002 -0.000976562v-120h-210c-44.667 0 -80.834 13.167 -108.501 39.5s-41.5 59.833 -41.5 100.5v280h-70v120h80l60 140h100v-140h135v-120h-135v-270c0 -7.33301 3.16699 -14.166 9.5 -20.499s13.166 -9.5 20.499 -9.5zM590.002 555.999l-70 -135h-80v250
h150v-115z" />
    <glyph glyph-name="Tbar" unicode="&#x166;" 
d="M15 570v130h570v-85l-40 -45h-155v-110h174v-110h-174v-350h-180v350h-175v110h175v110h-195z" />
    <glyph glyph-name="tbar" unicode="&#x167;" horiz-adv-x="465" 
d="M290 110l160.002 -0.000976562v-120h-210c-44.667 0 -80.834 13.167 -108.501 39.5s-41.5 59.833 -41.5 100.5v110h-70v110h70v60h-70v120h80l60 140h100v-140h135v-120h-135v-60h135v-110h-135v-100c0 -7.33301 3.16699 -14.166 9.5 -20.499s13.166 -9.5 20.499 -9.5z
" />
    <glyph glyph-name="Utilde" unicode="&#x168;" horiz-adv-x="720" 
d="M480 -10h-240c-47.333 0 -85.833 14.167 -115.5 42.5s-44.5 64.166 -44.5 107.499v560h180v-545c0 -10 3.33301 -18.333 10 -25s15 -10 25 -10h130c10 0 18.333 3.33301 25 10s10 15 10 25v545h180v-560c0 -43.333 -14.833 -79.166 -44.5 -107.499
s-68.167 -42.5 -115.5 -42.5zM195 775l0.000976562 95.001c0 20 7 36.667 21 50s32 20 54 20h15c10 0 21.667 -4.33301 35 -13c5.33301 -2 12 -6 20 -12l45 -30c4.66699 -3.33301 7.33398 -5 8.00098 -5c5.33301 -3.33301 9.33301 -5 12 -5c6.66699 0 10 5 10 15v45h110v-95
c0 -20 -7 -36.667 -21 -50s-32 -20 -54 -20h-15c-10.667 0 -22.334 4 -35.001 12c-3.33301 1.33301 -10 5.66602 -20 12.999l-45 30c-0.666992 0 -3.33398 1.66699 -8.00098 5s-8.66699 5 -12 5c-6.66699 0 -10 -5 -10 -15v-45h-110z" />
    <glyph glyph-name="utilde" unicode="&#x169;" horiz-adv-x="635" 
d="M330 -10l-114.998 -0.000976562c-44.667 0 -80.834 13.167 -108.501 39.5s-41.5 59.833 -41.5 100.5v400h170v-390c0 -7.33301 3.16699 -14.166 9.5 -20.499s13.166 -9.5 20.499 -9.5h90c15.333 0 27.333 5.66699 36 17c4 4.66699 7 10.667 9 18v385h170v-530h-110
l-25 65h-5c-6 -16 -12.667 -28.667 -20 -38c-19.333 -24.667 -46 -37 -80 -37zM152.002 604.999l0.000976562 95.001c0 20 7 36.667 21 50s32 20 54 20h15c10 0 21.667 -4.33301 35 -13c5.33301 -2 12 -6 20 -12l45 -30c4.66699 -3.33301 7.33398 -5 8.00098 -5
c5.33301 -3.33301 9.33301 -5 12 -5c6.66699 0 10 5 10 15v45h110v-95c0 -20 -7 -36.667 -21 -50s-32 -20 -54 -20h-15c-10.667 0 -22.334 4 -35.001 12c-3.33301 1.33301 -10 5.66602 -20 12.999l-45 30c-0.666992 0 -3.33398 1.66699 -8.00098 5s-8.66699 5 -12 5
c-6.66699 0 -10 -5 -10 -15v-45h-110z" />
    <glyph glyph-name="Umacron" unicode="&#x16a;" horiz-adv-x="720" 
d="M480 -10h-240c-47.333 0 -85.833 14.167 -115.5 42.5s-44.5 64.166 -44.5 107.499v560h180v-545c0 -10 3.33301 -18.333 10 -25s15 -10 25 -10h130c10 0 18.333 3.33301 25 10s10 15 10 25v545h180v-560c0 -43.333 -14.833 -79.166 -44.5 -107.499
s-68.167 -42.5 -115.5 -42.5zM522 890v-110h-325v110h325z" />
    <glyph glyph-name="umacron" unicode="&#x16b;" horiz-adv-x="635" 
d="M330 -10l-114.998 -0.000976562c-44.667 0 -80.834 13.167 -108.501 39.5s-41.5 59.833 -41.5 100.5v400h170v-390c0 -7.33301 3.16699 -14.166 9.5 -20.499s13.166 -9.5 20.499 -9.5h90c15.333 0 27.333 5.66699 36 17c4 4.66699 7 10.667 9 18v385h170v-530h-110
l-25 65h-5c-6 -16 -12.667 -28.667 -20 -38c-19.333 -24.667 -46 -37 -80 -37zM480.002 719.999v-110h-325v110h325z" />
    <glyph glyph-name="Ubreve" unicode="&#x16c;" horiz-adv-x="720" 
d="M480 -10h-240c-47.333 0 -85.833 14.167 -115.5 42.5s-44.5 64.166 -44.5 107.499v560h180v-545c0 -10 3.33301 -18.333 10 -25s15 -10 25 -10h130c10 0 18.333 3.33301 25 10s10 15 10 25v545h180v-560c0 -43.333 -14.833 -79.166 -44.5 -107.499
s-68.167 -42.5 -115.5 -42.5zM440 780h-160c-28 0 -50 8 -66 24s-24 38 -24 66v70h120v-45c0 -16.667 8.33301 -25 25 -25h50c16.667 0 25 8.33301 25 25v45h120v-70c0 -28 -8 -50 -24 -66s-38 -24 -66 -24z" />
    <glyph glyph-name="ubreve" unicode="&#x16d;" horiz-adv-x="635" 
d="M330 -10l-114.998 -0.000976562c-44.667 0 -80.834 13.167 -108.501 39.5s-41.5 59.833 -41.5 100.5v400h170v-390c0 -7.33301 3.16699 -14.166 9.5 -20.499s13.166 -9.5 20.499 -9.5h90c15.333 0 27.333 5.66699 36 17c4 4.66699 7 10.667 9 18v385h170v-530h-110
l-25 65h-5c-6 -16 -12.667 -28.667 -20 -38c-19.333 -24.667 -46 -37 -80 -37zM397.002 599.999h-160c-28 0 -50 8 -66 24s-24 38 -24 66v70h120v-45c0 -16.667 8.33301 -25 25 -25h50c16.667 0 25 8.33301 25 25v45h120v-70c0 -28 -8 -50 -24 -66s-38 -24 -66 -24z" />
    <glyph glyph-name="Uring" unicode="&#x16e;" horiz-adv-x="720" 
d="M480 -10h-240c-47.333 0 -85.833 14.167 -115.5 42.5s-44.5 64.166 -44.5 107.499v560h180v-545c0 -10 3.33301 -18.333 10 -25s15 -10 25 -10h130c10 0 18.333 3.33301 25 10s10 15 10 25v545h180v-560c0 -43.333 -14.833 -79.166 -44.5 -107.499
s-68.167 -42.5 -115.5 -42.5zM395 740h-70c-28 0 -50.833 8.5 -68.5 25.5s-26.5 38.5 -26.5 64.5v40c0 26 8.83301 47.5 26.5 64.5s40.5 25.5 68.5 25.5h70c28 0 50.833 -8.5 68.5 -25.5s26.5 -38.5 26.5 -64.5v-40c0 -26 -8.83301 -47.5 -26.5 -64.5
s-40.5 -25.5 -68.5 -25.5zM370 890h-20c-13.333 0 -20 -6.66699 -20 -20v-40c0 -13.333 6.66699 -20 20 -20h20c13.333 0 20 6.66699 20 20v40c0 13.333 -6.66699 20 -20 20z" />
    <glyph glyph-name="uring" unicode="&#x16f;" horiz-adv-x="635" 
d="M330 -10l-114.998 -0.000976562c-44.667 0 -80.834 13.167 -108.501 39.5s-41.5 59.833 -41.5 100.5v400h170v-390c0 -7.33301 3.16699 -14.166 9.5 -20.499s13.166 -9.5 20.499 -9.5h90c15.333 0 27.333 5.66699 36 17c4 4.66699 7 10.667 9 18v385h170v-530h-110
l-25 65h-5c-6 -16 -12.667 -28.667 -20 -38c-19.333 -24.667 -46 -37 -80 -37zM352.002 569.999h-70c-28 0 -50.833 8.5 -68.5 25.5s-26.5 38.5 -26.5 64.5v40c0 26 8.83301 47.5 26.5 64.5s40.5 25.5 68.5 25.5h70c28 0 50.833 -8.5 68.5 -25.5s26.5 -38.5 26.5 -64.5v-40
c0 -26 -8.83301 -47.5 -26.5 -64.5s-40.5 -25.5 -68.5 -25.5zM327.002 719.999h-20c-13.333 0 -20 -6.66699 -20 -20v-40c0 -13.333 6.66699 -20 20 -20h20c13.333 0 20 6.66699 20 20v40c0 13.333 -6.66699 20 -20 20z" />
    <glyph glyph-name="Uhungarumlaut" unicode="&#x170;" horiz-adv-x="720" 
d="M480 -10h-240c-47.333 0 -85.833 14.167 -115.5 42.5s-44.5 64.166 -44.5 107.499v560h180v-545c0 -10 3.33301 -18.333 10 -25s15 -10 25 -10h130c10 0 18.333 3.33301 25 10s10 15 10 25v545h180v-560c0 -43.333 -14.833 -79.166 -44.5 -107.499
s-68.167 -42.5 -115.5 -42.5zM265 940h145l-110 -160h-110zM465 940h145l-110 -160h-110z" />
    <glyph glyph-name="uhungarumlaut" unicode="&#x171;" horiz-adv-x="635" 
d="M330 -10l-114.998 -0.000976562c-44.667 0 -80.834 13.167 -108.501 39.5s-41.5 59.833 -41.5 100.5v400h170v-390c0 -7.33301 3.16699 -14.166 9.5 -20.499s13.166 -9.5 20.499 -9.5h90c15.333 0 27.333 5.66699 36 17c4 4.66699 7 10.667 9 18v385h170v-530h-110
l-25 65h-5c-6 -16 -12.667 -28.667 -20 -38c-19.333 -24.667 -46 -37 -80 -37zM222.002 769.999h145l-110 -160h-110zM422.002 769.999h145l-110 -160h-110z" />
    <glyph glyph-name="Uogonek" unicode="&#x172;" horiz-adv-x="720" 
d="M480 -10h-22c-62 -32 -93 -67 -93 -105c0 -16.667 8.33301 -25 25 -25h80v-80h-90c-90 0 -135 35 -135 105c0 42.667 28.333 77.667 85 105h-90c-47.333 0 -85.833 14.167 -115.5 42.5s-44.5 64.166 -44.5 107.499v560h180v-545c0 -10 3.33301 -18.333 10 -25
s15 -10 25 -10h130c10 0 18.333 3.33301 25 10s10 15 10 25v545h180v-560c0 -43.333 -14.833 -79.166 -44.5 -107.499s-68.167 -42.5 -115.5 -42.5z" />
    <glyph glyph-name="uogonek" unicode="&#x173;" horiz-adv-x="635" 
d="M330 -10l-114.998 -0.00195312c-44.667 0 -80.834 13.167 -108.501 39.5s-41.5 59.833 -41.5 100.5v400h170v-390c0 -7.33301 3.16699 -14.166 9.5 -20.499s13.166 -9.5 20.499 -9.5h90c15.333 0 27.333 5.66699 36 17c4 4.66699 7 10.667 9 18v385h170v-555
c-22 -5.33301 -39.667 -11.666 -53 -18.999c-34.667 -19.333 -52 -43 -52 -71c0 -16.667 8.33301 -25 25 -25h80v-80h-90c-90 0 -135 35 -135 105c0 33.333 18.333 62.333 55 87c18 12.667 36.333 22 55 28h5l-25 65h-5c-6 -16 -12.667 -28.667 -20 -38
c-19.333 -24.667 -46 -37 -80 -37z" />
    <glyph glyph-name="Wcircumflex" unicode="&#x174;" horiz-adv-x="980" 
d="M595 590l90 -375h10l70 485h180v-70l-125 -630h-225l-100 395h-10l-100 -395h-225l-125 630v70h180l70 -485h10l90 375h210zM425 700h-135l125 150h150l125 -150h-135l-65 70z" />
    <glyph glyph-name="wcircumflex" unicode="&#x175;" horiz-adv-x="840" 
d="M425 280h-10l-75 -280h-205l-100 465v65h170l45 -340h10l70 265h180l70 -265h10l45 340h170v-65l-100 -465h-205zM355 560h-135l125 150h150l125 -150h-135l-65 70z" />
    <glyph glyph-name="Ycircumflex" unicode="&#x176;" horiz-adv-x="650" 
d="M450 700h180v-70l-215 -425v-205h-180v205l-215 425v70h180l120 -330h10zM260 770h-135l125 150h150l125 -150h-135l-65 70z" />
    <glyph glyph-name="ycircumflex" unicode="&#x177;" horiz-adv-x="580" 
d="M560 465l-185 -515.001c-11.333 -33.333 -31.833 -61.666 -61.5 -84.999s-64.167 -35 -103.5 -35h-115v120h80c25.333 0 40.333 13.333 45 40v10l-200 465v65h170l105 -370h10l85 370h170v-65zM225 609.999h-135l125 150h150l125 -150h-135l-65 70z" />
    <glyph glyph-name="Ydieresis" unicode="&#x178;" horiz-adv-x="650" 
d="M450 700h180v-70l-215 -425v-205h-180v205l-215 425v70h180l120 -330h10zM290 770h-150v140h150v-140zM510 770h-150v140h150v-140z" />
    <glyph glyph-name="Zacute" unicode="&#x179;" 
d="M245 130h320v-130h-530v125l310 435v10h-270l-40 45v85h520v-125l-310 -435v-10zM300 930h175l-120 -160h-130z" />
    <glyph glyph-name="zacute" unicode="&#x17a;" horiz-adv-x="525" 
d="M280 400v10h-210l-40 45v75h455v-115l-250 -285v-10h260v-120h-465v115zM262 770h175l-120 -160h-130z" />
    <glyph glyph-name="Zdotaccent" unicode="&#x17b;" 
d="M245 130h320v-130h-530v125l310 435v10h-270l-40 45v85h520v-125l-310 -435v-10zM385 770h-170v140h170v-140z" />
    <glyph glyph-name="zdotaccent" unicode="&#x17c;" horiz-adv-x="525" 
d="M280 400v10h-210l-40 45v75h455v-115l-250 -285v-10h260v-120h-465v115zM347 610h-170v140h170v-140z" />
    <glyph glyph-name="Zcaron" unicode="&#x17d;" 
d="M245 130h320v-130h-530v125l310 435v10h-270l-40 45v85h520v-125l-310 -435v-10zM100 920h135l65 -70l65 70h135l-125 -150h-150z" />
    <glyph glyph-name="zcaron" unicode="&#x17e;" horiz-adv-x="525" 
d="M280 400v10h-210l-40 45v75h455v-115l-250 -285v-10h260v-120h-465v115zM62 760h135l65 -70l65 70h135l-125 -150h-150z" />
    <glyph glyph-name="florin" unicode="&#x192;" horiz-adv-x="440" 
d="M-45 -50h90c7.33301 0 14.166 3.16699 20.499 9.5s9.5 13.166 9.5 20.499v590c0 40.667 13.833 74.167 41.5 100.5s63.834 39.5 108.501 39.5h255v-75l-40 -45h-165c-7.33301 0 -14.166 -3.16699 -20.499 -9.5s-9.5 -13.166 -9.5 -20.499v-105h160v-120h-160v-365
c0 -40.667 -13.833 -74.167 -41.5 -100.5s-63.834 -39.5 -108.501 -39.5h-140v120z" />
    <glyph glyph-name="AEacute" unicode="&#x1fc;" horiz-adv-x="1005" 
d="M970 700v-85l-40 -45h-275v-150h225v-130h-225v-160h315v-130h-495v180h-220l-65 -180h-175v70l275 630h680zM405 570l-100 -260h170v260h-70zM570 930h175l-120 -160h-130z" />
    <glyph glyph-name="aeacute" unicode="&#x1fd;" horiz-adv-x="920" 
d="M575 120l264.998 -0.00195312v-120h-315c-28.667 0 -52.667 11.667 -72 35c-9.33301 10.667 -17 22.334 -23 35.001c-6.66699 -14 -15.667 -27.333 -27 -40c-25.333 -26.667 -58 -40 -98 -40h-115c-44.667 0 -80.834 13.167 -108.501 39.5s-41.5 59.833 -41.5 100.5v50
c0 40.667 13.833 74.167 41.5 100.5s63.834 39.5 108.501 39.5h185v68c-1.33301 8 -4.83301 14.5 -10.5 19.5s-12.167 7.5 -19.5 7.5h-250v120h270c24 0 46.333 -11 67 -33c6.66699 -6.66699 14.334 -17.334 23.001 -32.001c6 12.667 13.333 24.334 22 35.001
c20.667 23.333 43.334 35 68.001 35h170c44.667 0 80.834 -13.167 108.501 -39.5s41.5 -59.833 41.5 -100.5v-195h-320v-55c0 -7.33301 3.16699 -14.166 9.5 -20.499s13.166 -9.5 20.499 -9.5zM209.998 179.998l-0.000976562 -40.002
c0 -7.33301 3.16699 -14.166 9.5 -20.499s13.166 -9.5 20.499 -9.5h90c9.33301 0 17.833 2.66699 25.5 8s12.834 10.5 15.501 15.5s4 8.5 4 10.5v66h-135c-7.33301 0 -14.166 -3.16699 -20.499 -9.5s-9.5 -13.166 -9.5 -20.499zM544.997 389.996l-0.00195312 -70h150v70
c0 7.33301 -3.16699 14.166 -9.5 20.499s-13.166 9.5 -20.499 9.5h-90c-7.33301 0 -14.166 -3.16699 -20.499 -9.5s-9.5 -13.166 -9.5 -20.499zM469.995 779.996h175l-120 -160h-130z" />
    <glyph glyph-name="Oslashacute" unicode="&#x1fe;" horiz-adv-x="690" 
d="M617 695l-24 -42c21.333 -27.333 32 -58.333 32 -93v-420c0 -43.333 -14.833 -79.166 -44.5 -107.499s-68.167 -42.5 -115.5 -42.5h-240h-6l-22 -40h-125v55l24 43c-20.667 25.333 -31 56 -31 92v420c0 43.333 14.833 79.166 44.5 107.499s68.167 42.5 115.5 42.5h240h4
l23 40h125v-55zM283 120h127c10 0 18.333 3.33301 25 10s10 15 10 25v265zM245 545v-263l161 298h-126c-10 0 -18.333 -3.33301 -25 -10s-10 -15 -10 -25zM335 930h175l-120 -160h-130z" />
    <glyph glyph-name="oslashacute" unicode="&#x1ff;" horiz-adv-x="625" 
d="M535 535l-16 -27.999c34 -26.667 51 -62.334 51 -107.001v-270c0 -40.667 -13.833 -74.167 -41.5 -100.5s-63.834 -39.5 -108.501 -39.5h-193l-22 -40h-115v45l15 27c-33.333 26 -50 62 -50 108v270c0 40.667 13.833 74.167 41.5 100.5s63.834 39.5 108.501 39.5h192
l23 40h115v-45zM285 110.001l85.001 0.000976562c7.33301 0 14.166 3.16699 20.499 9.5s9.5 13.166 9.5 20.499v176zM225.001 390.002l-0.000976562 -176.001l114 206h-84c-7.33301 0 -14.166 -3.16699 -20.499 -9.5s-9.5 -13.166 -9.5 -20.499zM312 770.001h175l-120 -160
h-130z" />
    <glyph glyph-name="Scommaaccent" unicode="&#x218;" 
d="M35 465v85c0 43.333 14.833 79.166 44.5 107.499s68.167 42.5 115.5 42.5h340v-85l-40 -45h-245c-10 0 -18.333 -3.33301 -25 -10s-10 -15 -10 -25v-50c0 -25.333 13.333 -40.333 40 -45l185 -40c36.667 -8.66699 66.667 -26.167 90 -52.5s35 -58.833 35 -97.5v-100
c0 -43.333 -14.833 -79.166 -44.5 -107.499s-68.167 -42.5 -115.5 -42.5h-370v130h315c10 0 18.333 3.33301 25 10s10 15 10 25v65c0 25.333 -13.333 40.333 -40 45l-185 40c-36.667 8.66699 -66.667 26.167 -90 52.5s-35 58.833 -35 97.5zM367 -171l-60 -85h-80v200h140
v-115z" />
    <glyph glyph-name="scommaaccent" unicode="&#x219;" horiz-adv-x="545" 
d="M340 145v20c0 16 -10 26 -30 30l-170 30c-29.333 6 -54.166 20.667 -74.499 44s-30.5 52 -30.5 86v40c0 40.667 13 73.334 39 98.001s61.333 37 106 37h300v-75l-40 -45h-210c-16.667 0 -25 -8.33301 -25 -25v-15c0 -16 10 -26 30 -30l170 -30
c29.333 -6 54.166 -20.667 74.499 -44s30.5 -52 30.5 -86v-45c0 -40.667 -13 -73.334 -39 -98.001s-61.333 -37 -106 -37h-330v120h280c16.667 0 25 8.33301 25 25zM332 -180l-60 -85h-80v200h140v-115z" />
    <glyph glyph-name="circumflex" unicode="&#x2c6;" horiz-adv-x="460" 
d="M165 550h-135l125 150h150l125 -150h-135l-65 70z" />
    <glyph glyph-name="caron" unicode="&#x2c7;" horiz-adv-x="460" 
d="M30 700h135l65 -70l65 70h135l-125 -150h-150z" />
    <glyph glyph-name="breve" unicode="&#x2d8;" horiz-adv-x="400" 
d="M280 540h-160c-28 0 -50 8 -66 24s-24 38 -24 66v70h120v-45c0 -16.667 8.33301 -25 25 -25h50c16.667 0 25 8.33301 25 25v45h120v-70c0 -28 -8 -50 -24 -66s-38 -24 -66 -24z" />
    <glyph glyph-name="dotaccent" unicode="&#x2d9;" horiz-adv-x="230" 
d="M200 560h-170v140h170v-140z" />
    <glyph glyph-name="ring" unicode="&#x2da;" horiz-adv-x="320" 
d="M195 480h-70c-28 0 -50.833 8.5 -68.5 25.5s-26.5 38.5 -26.5 64.5v40c0 26 8.83301 47.5 26.5 64.5s40.5 25.5 68.5 25.5h70c28 0 50.833 -8.5 68.5 -25.5s26.5 -38.5 26.5 -64.5v-40c0 -26 -8.83301 -47.5 -26.5 -64.5s-40.5 -25.5 -68.5 -25.5zM170 630h-20
c-13.333 0 -20 -6.66699 -20 -20v-40c0 -13.333 6.66699 -20 20 -20h20c13.333 0 20 6.66699 20 20v40c0 13.333 -6.66699 20 -20 20z" />
    <glyph glyph-name="ogonek" unicode="&#x2db;" horiz-adv-x="295" 
d="M140 0l115 -0.000976562v-25c-22 -5.33301 -39.667 -11.666 -53 -18.999c-34.667 -19.333 -52 -43 -52 -71c0 -16.667 8.33301 -25 25 -25h80v-80h-90c-90 0 -135 35 -135 105c0 33.333 18.333 62.333 55 87c18 12.667 36.333 22 55 28z" />
    <glyph glyph-name="tilde" unicode="&#x2dc;" horiz-adv-x="385" 
d="M30 535l0.00195312 95.001c0 20 7 36.667 21 50s32 20 54 20h15c10 0 21.667 -4.33301 35 -13c5.33301 -2 12 -6 20 -12l45 -30c4.66699 -3.33301 7.33398 -5 8.00098 -5c5.33301 -3.33301 9.33301 -5 12 -5c6.66699 0 10 5 10 15v45h110v-95c0 -20 -7 -36.667 -21 -50
s-32 -20 -54 -20h-15c-10.667 0 -22.334 4 -35.001 12c-2.66699 1.33301 -9.33398 5.66602 -20.001 12.999l-45 30c-0.666992 0 -3.33398 1.66699 -8.00098 5s-8.66699 5 -12 5c-6.66699 0 -10 -5 -10 -15v-45h-110z" />
    <glyph glyph-name="hungarumlaut" unicode="&#x2dd;" horiz-adv-x="480" 
d="M105 700h145l-110 -160h-110zM305 700h145l-110 -160h-110z" />
    <glyph glyph-name="afii10023" unicode="&#x401;" horiz-adv-x="615" 
d="M580 700v-85l-40 -45h-280v-150h230v-130h-230v-160h320v-130h-500v700h500zM295 775h-160v140h160v-140zM525 775h-160v140h160v-140z" />
    <glyph glyph-name="afii10051" unicode="&#x402;" horiz-adv-x="705" 
d="M500 -20l-80 -0.00195312v130h25c10 0 18.333 3.33301 25 10s10 15 10 25v135c0 10 -3.33301 18.333 -10 25s-15 10 -25 10h-145v-315h-180v570h-110v130h470v-85l-40 -45h-140v-125h200c47.333 0 85.833 -14.167 115.5 -42.5s44.5 -64.166 44.5 -107.499v-165
c0 -43.333 -14.833 -79.166 -44.5 -107.499s-68.167 -42.5 -115.5 -42.5z" />
    <glyph glyph-name="afii10052" unicode="&#x403;" horiz-adv-x="575" 
d="M315 930h175l-120 -160h-130zM80 0v700h485v-85l-40 -45h-265v-570h-180z" />
    <glyph glyph-name="afii10053" unicode="&#x404;" horiz-adv-x="605" 
d="M280 130l290 0.00195312v-130h-345c-47.333 0 -85.833 14.167 -115.5 42.5s-44.5 64.166 -44.5 107.499v400c0 43.333 14.833 79.166 44.5 107.499s68.167 42.5 115.5 42.5h345v-85l-40 -45h-250c-10 0 -18.333 -3.33301 -25 -10s-10 -15 -10 -25v-120h215v-130h-215
v-120c0 -10 3.33301 -18.333 10 -25s15 -10 25 -10z" />
    <glyph glyph-name="afii10054" unicode="&#x405;" 
d="M35 465v85c0 43.333 14.833 79.166 44.5 107.499s68.167 42.5 115.5 42.5h340v-85l-40 -45h-245c-10 0 -18.333 -3.33301 -25 -10s-10 -15 -10 -25v-50c0 -25.333 13.333 -40.333 40 -45l185 -40c36.667 -8.66699 66.667 -26.167 90 -52.5s35 -58.833 35 -97.5v-100
c0 -43.333 -14.833 -79.166 -44.5 -107.499s-68.167 -42.5 -115.5 -42.5h-370v130h315c10 0 18.333 3.33301 25 10s10 15 10 25v65c0 25.333 -13.333 40.333 -40 45l-185 40c-36.667 8.66699 -66.667 26.167 -90 52.5s-35 58.833 -35 97.5z" />
    <glyph glyph-name="afii10055" unicode="&#x406;" horiz-adv-x="340" 
d="M260 0h-180v700h180v-700z" />
    <glyph glyph-name="afii10056" unicode="&#x407;" horiz-adv-x="370" 
d="M275 0h-180v700h180v-700zM150 780h-160v140h160v-140zM380 780h-160v140h160v-140z" />
    <glyph glyph-name="afii10057" unicode="&#x408;" horiz-adv-x="545" 
d="M305 -10l-295 -0.000976562v130h240c10 0 18.333 3.33301 25 10s10 15 10 25v545h180v-560c0 -43.333 -14.833 -79.166 -44.5 -107.499s-68.167 -42.5 -115.5 -42.5z" />
    <glyph glyph-name="afii10058" unicode="&#x409;" horiz-adv-x="1000" 
d="M10 120l45 -0.00195312c10 0 18.833 4 26.5 12s12.167 17.333 13.5 28l50 540h465v-250h180c47.333 0 85.833 -14.167 115.5 -42.5s44.5 -64.166 44.5 -107.499v-150c0 -41.333 -14.667 -76.666 -44 -105.999s-68 -44 -116 -44h-360v570h-125l-35 -410
c-4.66699 -56.667 -24 -99.167 -58 -127.5s-86.333 -42.5 -157 -42.5h-45v130zM610 129.998h125c10 0 18.333 3.33301 25 10s10 15 10 25v120c0 10 -3.33301 18.333 -10 25s-15 10 -25 10h-125v-190z" />
    <glyph glyph-name="afii10059" unicode="&#x40a;" horiz-adv-x="1000" 
d="M260 0l-180 -0.00195312v700h180v-265h170v265h180v-260h180c47.333 0 85.833 -14.167 115.5 -42.5s44.5 -64.166 44.5 -107.499v-140c0 -41.333 -14.667 -76.666 -44 -105.999s-68 -44 -116 -44h-360v305h-170v-305zM610 129.998h125c10 0 18.333 3.33301 25 10
s10 15 10 25v110c0 10 -3.33301 18.333 -10 25s-15 10 -25 10h-125v-180z" />
    <glyph glyph-name="afii10060" unicode="&#x40b;" horiz-adv-x="720" 
d="M10 570v129.999h470v-85l-40 -45h-140v-125h200c47.333 0 85.833 -14.167 115.5 -42.5s44.5 -64.166 44.5 -107.499v-295h-180v280c0 10 -3.33301 18.333 -10 25s-15 10 -25 10h-145v-315h-180v570h-110z" />
    <glyph glyph-name="afii10061" unicode="&#x40c;" horiz-adv-x="680" 
d="M345 930h175l-120 -160h-130zM260 0h-180v700h180v-285h85l110 285h180v-70l-140 -275l155 -285v-70h-180l-125 285h-85v-285z" />
    <glyph glyph-name="afii10062" unicode="&#x40e;" horiz-adv-x="645" 
d="M410 760h-160c-28 0 -50 8 -66 24s-24 38 -24 66v70h120v-45c0 -16.667 8.33301 -25 25 -25h50c16.667 0 25 8.33301 25 25v45h120v-70c0 -28 -8 -50 -24 -66s-38 -24 -66 -24zM20 700l179.998 -0.000976562l135 -380h10l100 380h180v-70l-195 -480
c-21.333 -53.333 -49.666 -93.333 -84.999 -120s-83.666 -40 -144.999 -40h-80v130h80c12 0 21 2.33301 27 7s12 12.334 18 23.001l5 10l-230 470v70z" />
    <glyph glyph-name="afii10145" unicode="&#x40f;" horiz-adv-x="710" 
d="M630 0h-185l-30 -135h-120l-30 135h-185v700h180v-570h190v570h180v-700z" />
    <glyph glyph-name="afii10017" unicode="&#x410;" horiz-adv-x="690" 
d="M485 0l-35 150h-210l-35 -150h-180v70l200 630h240l200 -630v-70h-180zM415 280l-65 260h-10l-65 -260h140z" />
    <glyph glyph-name="afii10018" unicode="&#x411;" horiz-adv-x="680" 
d="M80 0v699.998h500v-85l-40 -45h-280v-135h200c47.333 0 85.833 -14.167 115.5 -42.5s44.5 -64.166 44.5 -107.499v-135c0 -41.333 -14.667 -76.666 -44 -105.999s-68 -44 -116 -44h-380zM260 129.998h145c10 0 18.333 3.33301 25 10s10 15 10 25v105
c0 10 -3.33301 18.333 -10 25s-15 10 -25 10h-145v-175z" />
    <glyph glyph-name="afii10019" unicode="&#x412;" horiz-adv-x="685" 
d="M80 700l365.001 -0.00195312c47.333 0 85.833 -14.167 115.5 -42.5s44.5 -64.166 44.5 -107.499v-80c0 -37.333 -16 -66 -48 -86c-12.667 -8.66699 -28.334 -15 -47.001 -19v-10c24 -4 44 -10.333 60 -19c40 -19.333 60 -48 60 -86v-100
c0 -43.333 -14.833 -79.166 -44.5 -107.499s-68.167 -42.5 -115.5 -42.5h-390v700zM260.001 129.998h155c10 0 18.333 3.33301 25 10s10 15 10 25v85c0 10 -3.33301 18.333 -10 25s-15 10 -25 10h-155v-155zM390.001 569.998h-130v-155h130c10 0 18.333 3.33301 25 10
s10 15 10 25v85c0 10 -3.33301 18.333 -10 25s-15 10 -25 10z" />
    <glyph glyph-name="afii10020" unicode="&#x413;" horiz-adv-x="575" 
d="M80 0v700h485v-85l-40 -45h-265v-570h-180z" />
    <glyph glyph-name="afii10021" unicode="&#x414;" horiz-adv-x="760" 
d="M175 0l-29.998 -134.999h-135v265h55c13.333 7.33301 23.666 14.666 30.999 21.999c20 18.667 31.333 41.334 34 68.001c6 60 13.667 142.167 23 246.5s16.666 182.166 21.999 233.499h470v-570h90v-265h-135l-30 135h-395zM340.002 570.001l-30.001 -350
c-2.66699 -26.667 -14 -47.667 -34 -63c-9.33301 -7.33301 -19.666 -13 -30.999 -17v-10h220v440h-125z" />
    <glyph glyph-name="afii10022" unicode="&#x415;" horiz-adv-x="615" 
d="M580 700v-85l-40 -45h-280v-150h230v-130h-230v-160h320v-130h-500v700h500z" />
    <glyph glyph-name="afii10024" unicode="&#x416;" horiz-adv-x="1000" 
d="M590 0h-180v285h-80l-120 -285h-180v70l150 285l-135 275v70h180l105 -285h80v285h180v-285h80l105 285h180v-70l-135 -275l150 -285v-70h-180l-120 285h-80v-285z" />
    <glyph glyph-name="afii10025" unicode="&#x417;" horiz-adv-x="615" 
d="M335 570l-260 -0.00195312l-40 45v85h355c47.333 0 85.833 -14.167 115.5 -42.5s44.5 -64.166 44.5 -107.499v-80c0 -38 -17.667 -66.667 -53 -86c-14 -8 -31.333 -14.333 -52 -19v-10c22 -4 41 -10.333 57 -19c38.667 -20 58 -48.667 58 -86v-100
c0 -43.333 -14.833 -79.166 -44.5 -107.499s-68.167 -42.5 -115.5 -42.5h-370v130h315c10 0 18.333 3.33301 25 10s10 15 10 25v85c0 10 -3.33301 18.333 -10 25s-15 10 -25 10h-185v130h175c10 0 18.333 3.33301 25 10s10 15 10 25v85c0 10 -3.33301 18.333 -10 25
s-15 10 -25 10z" />
    <glyph glyph-name="afii10026" unicode="&#x418;" horiz-adv-x="710" 
d="M630 700v-700h-180v230l30 210h-10l-215 -440h-175v700h180v-230l-30 -210h10l215 440h175z" />
    <glyph glyph-name="afii10027" unicode="&#x419;" horiz-adv-x="710" 
d="M630 700v-700h-180v230l30 210h-10l-215 -440h-175v700h180v-230l-30 -210h10l215 440h175zM435 760h-160c-28 0 -50 8 -66 24s-24 38 -24 66v70h120v-45c0 -16.667 8.33301 -25 25 -25h50c16.667 0 25 8.33301 25 25v45h120v-70c0 -28 -8 -50 -24 -66s-38 -24 -66 -24z
" />
    <glyph glyph-name="afii10028" unicode="&#x41a;" horiz-adv-x="680" 
d="M260 0h-180v700h180v-285h85l110 285h180v-70l-140 -275l155 -285v-70h-180l-125 285h-85v-285z" />
    <glyph glyph-name="afii10029" unicode="&#x41b;" horiz-adv-x="715" 
d="M10 120h45c10 0 18.833 4 26.5 12s12.167 17.333 13.5 28l50 540h490v-700h-180v570h-150l-35 -410c-4.66699 -56.667 -24 -99.167 -58 -127.5s-86.333 -42.5 -157 -42.5h-45v130z" />
    <glyph glyph-name="afii10030" unicode="&#x41c;" horiz-adv-x="990" 
d="M600 85h-210l-115 400h-10l-35 -485h-180v70l85 630h225l130 -420h10l130 420h225l85 -630v-70h-180l-35 485h-10z" />
    <glyph glyph-name="afii10031" unicode="&#x41d;" horiz-adv-x="720" 
d="M265 0h-180v700h180v-285h190v285h180v-700h-180v285h-190v-285z" />
    <glyph glyph-name="afii10032" unicode="&#x41e;" horiz-adv-x="690" 
d="M280 120h130c10 0 18.333 3.33301 25 10s10 15 10 25v390c0 10 -3.33301 18.333 -10 25s-15 10 -25 10h-130c-10 0 -18.333 -3.33301 -25 -10s-10 -15 -10 -25v-390c0 -10 3.33301 -18.333 10 -25s15 -10 25 -10zM465 -10h-240c-47.333 0 -85.833 14.167 -115.5 42.5
s-44.5 64.166 -44.5 107.499v420c0 43.333 14.833 79.166 44.5 107.499s68.167 42.5 115.5 42.5h240c48.667 0 87.5 -14.667 116.5 -44s43.5 -64.666 43.5 -105.999v-420c0 -43.333 -14.833 -79.166 -44.5 -107.499s-68.167 -42.5 -115.5 -42.5z" />
    <glyph glyph-name="afii10033" unicode="&#x41f;" horiz-adv-x="710" 
d="M260 0h-180v700h550v-700h-180v570h-190v-570z" />
    <glyph glyph-name="afii10034" unicode="&#x420;" horiz-adv-x="665" 
d="M260 0l-180 -0.00195312v700h380c48 0 86.667 -14.667 116 -44s44 -64.666 44 -105.999v-185c0 -43.333 -14.833 -79.166 -44.5 -107.499s-68.167 -42.5 -115.5 -42.5h-200v-215zM405 569.998h-145v-225h145c10 0 18.333 3.33301 25 10s10 15 10 25v155
c0 10 -3.33301 18.333 -10 25s-15 10 -25 10z" />
    <glyph glyph-name="afii10035" unicode="&#x421;" horiz-adv-x="605" 
d="M280 130l290 0.00195312v-130h-345c-47.333 0 -85.833 14.167 -115.5 42.5s-44.5 64.166 -44.5 107.499v400c0 43.333 14.833 79.166 44.5 107.499s68.167 42.5 115.5 42.5h345v-85l-40 -45h-250c-10 0 -18.333 -3.33301 -25 -10s-10 -15 -10 -25v-370
c0 -10 3.33301 -18.333 10 -25s15 -10 25 -10z" />
    <glyph glyph-name="afii10036" unicode="&#x422;" 
d="M15 570v130h570v-85l-40 -45h-155v-570h-180v570h-195z" />
    <glyph glyph-name="afii10037" unicode="&#x423;" horiz-adv-x="645" 
d="M20 700l179.998 -0.000976562l135 -380h10l100 380h180v-70l-195 -480c-21.333 -53.333 -49.666 -93.333 -84.999 -120s-83.666 -40 -144.999 -40h-80v130h80c12 0 21 2.33301 27 7s12 12.334 18 23.001l5 10l-230 470v70z" />
    <glyph glyph-name="afii10038" unicode="&#x424;" horiz-adv-x="960" 
d="M390 -35v75h-170c-47.333 0 -85.833 14.167 -115.5 42.5s-44.5 64.166 -44.5 107.499v330c0 43.333 14.833 79.166 44.5 107.499s68.167 42.5 115.5 42.5h170v75h180v-75h170c47.333 0 85.833 -14.167 115.5 -42.5s44.5 -64.166 44.5 -107.499v-330
c0 -43.333 -14.833 -79.166 -44.5 -107.499s-68.167 -42.5 -115.5 -42.5h-170v-75h-180zM275 170h115v370h-115c-10 0 -18.333 -3.33301 -25 -10s-10 -15 -10 -25v-300c0 -10 3.33301 -18.333 10 -25s15 -10 25 -10zM570 170h115c10 0 18.333 3.33301 25 10s10 15 10 25v300
c0 10 -3.33301 18.333 -10 25s-15 10 -25 10h-115v-370z" />
    <glyph glyph-name="afii10039" unicode="&#x425;" horiz-adv-x="650" 
d="M320 265l-115 -265h-180v70l170 285l-155 275v70h180l100 -265h10l100 265h180v-70l-155 -275l170 -285v-70h-180l-115 265h-10z" />
    <glyph glyph-name="afii10040" unicode="&#x426;" horiz-adv-x="735" 
d="M545 0h-465v700h180v-570h180v570h180v-570h90v-265h-135z" />
    <glyph glyph-name="afii10041" unicode="&#x427;" horiz-adv-x="680" 
d="M60 385v315.001h180v-300c0 -10 3.33301 -18.333 10 -25s15 -10 25 -10h145v335h180v-700h-180v235h-200c-47.333 0 -85.833 14.167 -115.5 42.5s-44.5 64.166 -44.5 107.499z" />
    <glyph glyph-name="afii10042" unicode="&#x428;" horiz-adv-x="1050" 
d="M435 700h180v-570h175v570h180v-700h-890v700h180v-570h175v570z" />
    <glyph glyph-name="afii10043" unicode="&#x429;" horiz-adv-x="1085" 
d="M435 700h180v-570h175v570h180v-570h90v-265h-135l-30 135h-815v700h180v-570h175v570z" />
    <glyph glyph-name="afii10044" unicode="&#x42a;" horiz-adv-x="725" 
d="M10 570v129.998h315v-240h190c47.333 0 85.833 -14.167 115.5 -42.5s44.5 -64.166 44.5 -107.499v-160c0 -41.333 -14.5 -76.666 -43.5 -105.999s-67.833 -44 -116.5 -44h-370v570h-135zM325 129.998h135c10 0 18.333 3.33301 25 10s10 15 10 25v130
c0 10 -3.33301 18.333 -10 25s-15 10 -25 10h-135v-200z" />
    <glyph glyph-name="afii10045" unicode="&#x42b;" horiz-adv-x="970" 
d="M80 700l180 -0.00195312v-240h190c47.333 0 85.833 -14.167 115.5 -42.5s44.5 -64.166 44.5 -107.499v-160c0 -41.333 -14.667 -76.666 -44 -105.999s-68 -44 -116 -44h-370v700zM260 129.998h135c10 0 18.333 3.33301 25 10s10 15 10 25v130
c0 10 -3.33301 18.333 -10 25s-15 10 -25 10h-135v-200zM890 -0.00195312h-180v700h180v-700z" />
    <glyph glyph-name="afii10046" unicode="&#x42c;" horiz-adv-x="670" 
d="M80 700l180 -0.00195312v-240h200c47.333 0 85.833 -14.167 115.5 -42.5s44.5 -64.166 44.5 -107.499v-160c0 -41.333 -14.667 -76.666 -44 -105.999s-68 -44 -116 -44h-380v700zM260 129.998h145c10 0 18.333 3.33301 25 10s10 15 10 25v130
c0 10 -3.33301 18.333 -10 25s-15 10 -25 10h-145v-200z" />
    <glyph glyph-name="afii10047" unicode="&#x42d;" horiz-adv-x="605" 
d="M35 130l290 -0.00195312c10 0 18.333 3.33301 25 10s10 15 10 25v120h-215v130h215v120c0 10 -3.33301 18.333 -10 25s-15 10 -25 10h-250l-40 45v85h345c47.333 0 85.833 -14.167 115.5 -42.5s44.5 -64.166 44.5 -107.499v-400
c0 -43.333 -14.833 -79.166 -44.5 -107.499s-68.167 -42.5 -115.5 -42.5h-345v130z" />
    <glyph glyph-name="afii10048" unicode="&#x42e;" horiz-adv-x="980" 
d="M260 0h-180v700h180v-285h105v145c0 43.333 14.833 79.166 44.5 107.499s68.167 42.5 115.5 42.5h230c48.667 0 87.5 -14.667 116.5 -44s43.5 -64.666 43.5 -105.999v-420c0 -43.333 -14.833 -79.166 -44.5 -107.499s-68.167 -42.5 -115.5 -42.5h-230
c-47.333 0 -85.833 14.167 -115.5 42.5s-44.5 64.166 -44.5 107.499v145h-105v-285zM580 120h120c10 0 18.333 3.33301 25 10s10 15 10 25v390c0 10 -3.33301 18.333 -10 25s-15 10 -25 10h-120c-10 0 -18.333 -3.33301 -25 -10s-10 -15 -10 -25v-390
c0 -10 3.33301 -18.333 10 -25s15 -10 25 -10z" />
    <glyph glyph-name="afii10049" unicode="&#x42f;" horiz-adv-x="685" 
d="M605 0h-180.001v250h-80l-120 -250h-180v70l135 200c-21.333 6 -40.666 14.667 -57.999 26c-38 24.667 -57 59.334 -57 104.001v150c0 41.333 14.5 76.666 43.5 105.999s67.833 44 116.5 44h380v-700zM424.999 570h-145c-10 0 -18.333 -3.33301 -25 -10s-10 -15 -10 -25
v-120c0 -10 3.33301 -18.333 10 -25s15 -10 25 -10h145v190z" />
    <glyph glyph-name="afii10065" unicode="&#x430;" horiz-adv-x="610" 
d="M190 320l184.998 0.000976562v65c0 7.33301 -3.16699 14.166 -9.5 20.499s-13.166 9.5 -20.499 9.5h-250v120h300c44.667 0 80.834 -13.167 108.501 -39.5s41.5 -59.833 41.5 -100.5v-395h-110l-25 65h-5c-6 -16 -12.667 -28.667 -20 -38
c-19.333 -24.667 -46 -37 -80 -37h-115c-44.667 0 -80.834 13.167 -108.501 39.5s-41.5 59.833 -41.5 100.5v50c0 40.667 13.833 74.167 41.5 100.5s63.834 39.5 108.501 39.5zM209.998 180.001v-40.002c0 -7.33301 3.16699 -14.166 9.5 -20.499s13.166 -9.5 20.499 -9.5h90
c15.333 0 27.333 5.66699 36 17c4 4.66699 7 10.667 9 18v65h-135c-7.33301 0 -14.166 -3.16699 -20.499 -9.5s-9.5 -13.166 -9.5 -20.499z" />
    <glyph glyph-name="afii10066" unicode="&#x431;" horiz-adv-x="630" 
d="M375 355l-134.999 0.000976562v-215c0 -7.33301 3.16699 -14.166 9.5 -20.499s13.166 -9.5 20.499 -9.5h105c7.33301 0 14.166 3.16699 20.499 9.5s9.5 13.166 9.5 20.499v185c0 7.33301 -3.16699 14.166 -9.5 20.499s-13.166 9.5 -20.499 9.5zM575.001 335.001
l0.000976562 -204.999c0 -40.667 -13.833 -74.167 -41.5 -100.5s-63.834 -39.5 -108.501 -39.5h-205c-44.667 0 -80.834 13.167 -108.501 39.5s-41.5 59.833 -41.5 100.5v410c0 46 14.833 83.167 44.5 111.5s73.167 46.166 130.5 53.499l290 35l20 -130l-280 -35
c-23.333 -3.33301 -35 -15 -35 -35v-65h185c44.667 0 80.834 -13.167 108.501 -39.5s41.5 -59.833 41.5 -100.5z" />
    <glyph glyph-name="afii10067" unicode="&#x432;" horiz-adv-x="610" 
d="M65 0v529.999h325c44.667 0 80.834 -13.167 108.501 -39.5s41.5 -59.833 41.5 -100.5v-25c0 -30.667 -14.333 -55 -43 -73c-12.667 -7.33301 -26.667 -13 -42 -17v-10c18.667 -4 36 -9.66699 52 -17c35.333 -17.333 53 -41.666 53 -72.999v-35
c0 -40.667 -13.833 -74.167 -41.5 -100.5s-63.834 -39.5 -108.501 -39.5h-345zM235 119.999l125 0.00195312c7.33301 0 14.166 3.16699 20.499 9.5s9.5 13.166 9.5 20.499v35c0 7.33301 -3.16699 14.166 -9.5 20.499s-13.166 9.5 -20.499 9.5h-125v-95zM340 410.001
l-105 0.00195312v-85h105c7.33301 0 14.166 3.16699 20.499 9.5s9.5 13.166 9.5 20.499v25c0 7.33301 -3.16699 14.166 -9.5 20.499s-13.166 9.5 -20.499 9.5z" />
    <glyph glyph-name="afii10068" unicode="&#x433;" horiz-adv-x="500" 
d="M65 0v530h425v-75l-40 -45h-215v-410h-170z" />
    <glyph glyph-name="afii10069" unicode="&#x434;" horiz-adv-x="685" 
d="M500 0l-330.001 -0.000976562l-25 -125h-135v245h50c10 5.33301 19.333 12.333 28 21c18.667 18.667 29.334 38.334 32.001 59.001l35 330h420v-410h85v-245h-135zM224.999 119.999h180.001v290h-105l-15 -210c-2.66699 -22 -13.334 -40 -32.001 -54
c-8.66699 -6.66699 -18 -12 -28 -16v-10z" />
    <glyph glyph-name="afii10070" unicode="&#x435;" 
d="M255 120l265 -0.000976562v-120h-315c-44.667 0 -80.834 13.167 -108.501 39.5s-41.5 59.833 -41.5 100.5v260c0 40.667 13.833 74.167 41.5 100.5s63.834 39.5 108.501 39.5h190c44.667 0 80.834 -13.167 108.501 -39.5s41.5 -59.833 41.5 -100.5v-195h-320v-55
c0 -7.33301 3.16699 -14.166 9.5 -20.499s13.166 -9.5 20.499 -9.5zM225 389.999l-0.00195312 -70h150v70c0 7.33301 -3.16699 14.166 -9.5 20.499s-13.166 9.5 -20.499 9.5h-90c-7.33301 0 -14.166 -3.16699 -20.499 -9.5s-9.5 -13.166 -9.5 -20.499z" />
    <glyph glyph-name="afii10072" unicode="&#x436;" horiz-adv-x="880" 
d="M355 320v210h170v-210h64l76 210h170v-65l-110 -200l125 -200v-65h-170l-91 200h-64v-200h-170v200h-64l-91 -200h-170v65l125 200l-110 200v65h170l76 -210h64z" />
    <glyph glyph-name="afii10073" unicode="&#x437;" horiz-adv-x="550" 
d="M290 410l-214.999 0.00195312l-40 45v75h305c44.667 0 80.834 -13.167 108.501 -39.5s41.5 -59.833 41.5 -100.5v-25c0 -31.333 -16 -55.666 -48 -72.999c-14.667 -7.33301 -30.334 -13 -47.001 -17v-10c18.667 -4 36 -9.66699 52 -17
c35.333 -17.333 53 -41.666 53 -72.999v-35c0 -40.667 -13.833 -74.167 -41.5 -100.5s-63.834 -39.5 -108.501 -39.5h-320v120h270c7.33301 0 14.166 3.16699 20.499 9.5s9.5 13.166 9.5 20.499v25c0 7.33301 -3.16699 14.166 -9.5 20.499s-13.166 9.5 -20.499 9.5h-150v120
h140c7.33301 0 14.166 3.16699 20.499 9.5s9.5 13.166 9.5 20.499v25c0 7.33301 -3.16699 14.166 -9.5 20.499s-13.166 9.5 -20.499 9.5z" />
    <glyph glyph-name="afii10074" unicode="&#x438;" horiz-adv-x="635" 
d="M415 310l-185 -310h-165v530h170v-150l-25 -160h10l185 310h165v-530h-170v150l25 160h-10z" />
    <glyph glyph-name="afii10075" unicode="&#x439;" horiz-adv-x="635" 
d="M415 310l-185 -310h-165v530h170v-150l-25 -160h10l185 310h165v-530h-170v150l25 160h-10zM400 595h-160c-28 0 -50 8 -66 24s-24 38 -24 66v70h120v-45c0 -16.667 8.33301 -25 25 -25h50c16.667 0 25 8.33301 25 25v45h120v-70c0 -28 -8 -50 -24 -66s-38 -24 -66 -24z
" />
    <glyph glyph-name="afii10076" unicode="&#x43a;" 
d="M235 530v-210h69l81 210h170v-65l-115 -200l130 -200v-65h-170l-96 200h-69v-200h-170v530h170z" />
    <glyph glyph-name="afii10077" unicode="&#x43b;" horiz-adv-x="630" 
d="M125 530h440.002v-530h-170v410h-115l-30 -290c-2.66699 -35.333 -17.834 -65.833 -45.501 -91.5s-60.834 -38.5 -99.501 -38.5h-95v120h35c10 0 18.833 3.33301 26.5 10s12.167 15 13.5 25z" />
    <glyph glyph-name="afii10078" unicode="&#x43c;" horiz-adv-x="830" 
d="M500 65h-170l-85 265h-10l-20 -330h-170v65l70 465h195l100 -290h10l100 290h195l70 -465v-65h-170l-20 330h-10z" />
    <glyph glyph-name="afii10079" unicode="&#x43d;" horiz-adv-x="635" 
d="M235 530v-200h165v200h170v-530h-170v210h-165v-210h-170v530h170z" />
    <glyph glyph-name="afii10080" unicode="&#x43e;" horiz-adv-x="625" 
d="M570 400v-270c0 -40.667 -13.833 -74.167 -41.5 -100.5s-63.834 -39.5 -108.501 -39.5h-215c-44.667 0 -80.834 13.167 -108.501 39.5s-41.5 59.833 -41.5 100.5v270c0 40.667 13.833 74.167 41.5 100.5s63.834 39.5 108.501 39.5h215
c44.667 0 80.834 -13.167 108.501 -39.5s41.5 -59.833 41.5 -100.5zM255 110h115c7.33301 0 14.166 3.16699 20.499 9.5s9.5 13.166 9.5 20.499v250c0 7.33301 -3.16699 14.166 -9.5 20.499s-13.166 9.5 -20.499 9.5h-115c-7.33301 0 -14.166 -3.16699 -20.499 -9.5
s-9.5 -13.166 -9.5 -20.499v-250c0 -7.33301 3.16699 -14.166 9.5 -20.499s13.166 -9.5 20.499 -9.5z" />
    <glyph glyph-name="afii10081" unicode="&#x43f;" horiz-adv-x="635" 
d="M65 530h505v-530h-170v410h-165v-410h-170v530z" />
    <glyph glyph-name="afii10082" unicode="&#x440;" horiz-adv-x="615" 
d="M410 0h-175v-170h-170v700h110l25 -65h5c6 16 12.667 28.333 20 37c20 25.333 46.667 38 80 38h105c44.667 0 80.834 -13.167 108.501 -39.5s41.5 -59.833 41.5 -100.5v-260c0 -40.667 -13.833 -74.167 -41.5 -100.5s-63.834 -39.5 -108.501 -39.5zM390 150v240.003
c0 7.33301 -3.16699 14.166 -9.5 20.499s-13.166 9.5 -20.499 9.5h-80c-14.667 0 -26.667 -6 -36 -18c-4 -4.66699 -7 -10.334 -9 -17.001v-265h125c7.33301 0 14.166 3.16699 20.499 9.5s9.5 13.166 9.5 20.499z" />
    <glyph glyph-name="afii10083" unicode="&#x441;" horiz-adv-x="540" 
d="M255 120l250 -0.00195312v-120h-300c-44.667 0 -80.834 13.167 -108.501 39.5s-41.5 59.833 -41.5 100.5v250c0 40.667 13.833 74.167 41.5 100.5s63.834 39.5 108.501 39.5h300v-75l-40 -45h-210c-7.33301 0 -14.166 -3.16699 -20.499 -9.5s-9.5 -13.166 -9.5 -20.499
v-230c0 -7.33301 3.16699 -14.166 9.5 -20.499s13.166 -9.5 20.499 -9.5z" />
    <glyph glyph-name="afii10084" unicode="&#x442;" horiz-adv-x="530" 
d="M15 410v120h500v-75l-40 -45h-125v-410h-170v410h-165z" />
    <glyph glyph-name="afii10085" unicode="&#x443;" horiz-adv-x="580" 
d="M560 465l-185 -515.001c-11.333 -33.333 -31.833 -61.666 -61.5 -84.999s-64.167 -35 -103.5 -35h-115v120h80c25.333 0 40.333 13.333 45 40v10l-200 465v65h170l105 -370h10l85 370h170v-65z" />
    <glyph glyph-name="afii10086" unicode="&#x444;" horiz-adv-x="820" 
d="M325 0h-120c-44.667 0 -80.834 13.167 -108.501 39.5s-41.5 59.833 -41.5 100.5v250c0 40.667 13.833 74.167 41.5 100.5s63.834 39.5 108.501 39.5h120v170h170v-170h120c44.667 0 80.834 -13.167 108.501 -39.5s41.5 -59.833 41.5 -100.5v-250
c0 -40.667 -13.833 -74.167 -41.5 -100.5s-63.834 -39.5 -108.501 -39.5h-120v-170h-170v170zM225 380v-230.002c0 -7.33301 3.16699 -14.166 9.5 -20.499s13.166 -9.5 20.499 -9.5h70v290h-70c-7.33301 0 -14.166 -3.16699 -20.499 -9.5s-9.5 -13.166 -9.5 -20.499z
M595 149.998v230.002c0 7.33301 -3.16699 14.166 -9.5 20.499s-13.166 9.5 -20.499 9.5h-70v-290h70c7.33301 0 14.166 3.16699 20.499 9.5s9.5 13.166 9.5 20.499z" />
    <glyph glyph-name="afii10087" unicode="&#x445;" horiz-adv-x="570" 
d="M280 350h10l75 180h170v-65l-130 -200l140 -200v-65h-170l-85 185h-10l-85 -185h-170v65l140 200l-130 200v65h170z" />
    <glyph glyph-name="afii10088" unicode="&#x446;" horiz-adv-x="670" 
d="M485 0h-420v530h170v-410h155v410h170v-410h85v-245h-135z" />
    <glyph glyph-name="afii10089" unicode="&#x447;" horiz-adv-x="605" 
d="M45 305l0.00195312 224.999h170v-215c0 -7.33301 3.16699 -14.166 9.5 -20.499s13.166 -9.5 20.499 -9.5h125v245h170v-530h-170v165h-175c-44.667 0 -80.834 13.167 -108.501 39.5s-41.5 59.833 -41.5 100.5z" />
    <glyph glyph-name="afii10090" unicode="&#x448;" horiz-adv-x="910" 
d="M845 0h-780v530h170v-410h135v410h170v-410h135v410h170v-530z" />
    <glyph glyph-name="afii10091" unicode="&#x449;" horiz-adv-x="955" 
d="M770 0h-705v530h170v-410h135v410h170v-410h135v410h170v-410h85v-245h-135z" />
    <glyph glyph-name="afii10092" unicode="&#x44a;" horiz-adv-x="645" 
d="M300 530v-170h155c44.667 0 80.834 -13.167 108.501 -39.5s41.5 -59.833 41.5 -100.5v-80c0 -40.667 -13.833 -74.167 -41.5 -100.5s-63.834 -39.5 -108.501 -39.5h-325v410h-120v120h290zM405 240l-105 0.00195312v-120h105c7.33301 0 14.166 3.16699 20.499 9.5
s9.5 13.166 9.5 20.499v60c0 7.33301 -3.16699 14.166 -9.5 20.499s-13.166 9.5 -20.499 9.5z" />
    <glyph glyph-name="afii10093" unicode="&#x44b;" horiz-adv-x="855" 
d="M790 0h-170v535h170v-535zM235 530v-170h155c44.667 0 80.834 -13.167 108.501 -39.5s41.5 -59.833 41.5 -100.5v-80c0 -40.667 -13.833 -74.167 -41.5 -100.5s-63.834 -39.5 -108.501 -39.5h-325v530h170zM340 240l-105 0.00195312v-120h105
c7.33301 0 14.166 3.16699 20.499 9.5s9.5 13.166 9.5 20.499v60c0 7.33301 -3.16699 14.166 -9.5 20.499s-13.166 9.5 -20.499 9.5z" />
    <glyph glyph-name="afii10094" unicode="&#x44c;" horiz-adv-x="590" 
d="M235 530v-170h165c44.667 0 80.834 -13.167 108.501 -39.5s41.5 -59.833 41.5 -100.5v-80c0 -40.667 -13.833 -74.167 -41.5 -100.5s-63.834 -39.5 -108.501 -39.5h-335v530h170zM350 240l-115 0.00195312v-120h115c7.33301 0 14.166 3.16699 20.499 9.5
s9.5 13.166 9.5 20.499v60c0 7.33301 -3.16699 14.166 -9.5 20.499s-13.166 9.5 -20.499 9.5z" />
    <glyph glyph-name="afii10095" unicode="&#x44d;" horiz-adv-x="540" 
d="M35 120l250 0.00195312c7.33301 0 14.166 3.16699 20.499 9.5s9.5 13.166 9.5 20.499v55h-175v120h175v55c0 7.33301 -3.16699 14.166 -9.5 20.499s-13.166 9.5 -20.499 9.5h-210l-40 45v75h300c44.667 0 80.834 -13.167 108.501 -39.5s41.5 -59.833 41.5 -100.5v-250
c0 -40.667 -13.833 -74.167 -41.5 -100.5s-63.834 -39.5 -108.501 -39.5h-300v120z" />
    <glyph glyph-name="afii10096" unicode="&#x44e;" horiz-adv-x="880" 
d="M235 530v-200h95v70c0 40.667 13.833 74.167 41.5 100.5s63.834 39.5 108.501 39.5h195c44.667 0 80.834 -13.167 108.501 -39.5s41.5 -59.833 41.5 -100.5v-270c0 -40.667 -13.833 -74.167 -41.5 -100.5s-63.834 -39.5 -108.501 -39.5h-195
c-44.667 0 -80.834 13.167 -108.501 39.5s-41.5 59.833 -41.5 100.5v80h-95v-210h-170v530h170zM530 110h95c7.33301 0 14.166 3.16699 20.499 9.5s9.5 13.166 9.5 20.499v250c0 7.33301 -3.16699 14.166 -9.5 20.499s-13.166 9.5 -20.499 9.5h-95
c-7.33301 0 -14.166 -3.16699 -20.499 -9.5s-9.5 -13.166 -9.5 -20.499v-250c0 -7.33301 3.16699 -14.166 9.5 -20.499s13.166 -9.5 20.499 -9.5z" />
    <glyph glyph-name="afii10097" unicode="&#x44f;" horiz-adv-x="610" 
d="M375 0l-0.00195312 179.999h-70l-90 -180h-170v65l115 135c-1.33301 0 -5 0.833008 -11 2.5s-14.167 5.33398 -24.5 11.001s-20.166 12.667 -29.499 21s-17.5 20 -24.5 35s-10.5 31.833 -10.5 50.5v70c0 40.667 13.833 74.167 41.5 100.5s63.834 39.5 108.501 39.5h335
v-530h-170zM259.998 299.999l115 -0.00195312v110h-115c-7.33301 0 -14.166 -3.16699 -20.499 -9.5s-9.5 -13.166 -9.5 -20.499v-50c0 -7.33301 3.16699 -14.166 9.5 -20.499s13.166 -9.5 20.499 -9.5z" />
    <glyph glyph-name="afii10071" unicode="&#x451;" 
d="M265 600h-160v140h160v-140zM495 600h-160v140h160v-140zM255 120l265 -0.000976562v-120h-315c-44.667 0 -80.834 13.167 -108.501 39.5s-41.5 59.833 -41.5 100.5v260c0 40.667 13.833 74.167 41.5 100.5s63.834 39.5 108.501 39.5h190
c44.667 0 80.834 -13.167 108.501 -39.5s41.5 -59.833 41.5 -100.5v-195h-320v-55c0 -7.33301 3.16699 -14.166 9.5 -20.499s13.166 -9.5 20.499 -9.5zM225 389.999l-0.00195312 -70h150v70c0 7.33301 -3.16699 14.166 -9.5 20.499s-13.166 9.5 -20.499 9.5h-90
c-7.33301 0 -14.166 -3.16699 -20.499 -9.5s-9.5 -13.166 -9.5 -20.499z" />
    <glyph glyph-name="afii10099" unicode="&#x452;" horiz-adv-x="645" 
d="M360 110l30 0.00195312c7.33301 0 14.166 3.16699 20.499 9.5s9.5 13.166 9.5 20.499v140c0 7.33301 -3.16699 14.166 -9.5 20.499s-13.166 9.5 -20.499 9.5h-125v-310h-170v490h-70v120h80l50 90h110v-90h145v-120h-145v-60h175c44.667 0 80.834 -13.167 108.501 -39.5
s41.5 -59.833 41.5 -100.5v-160c0 -40.667 -13.833 -74.167 -41.5 -100.5s-63.834 -39.5 -108.501 -39.5h-80v120z" />
    <glyph glyph-name="afii10100" unicode="&#x453;" horiz-adv-x="500" 
d="M280 760h175l-120 -160h-130zM65 0v530h425v-75l-40 -45h-215v-410h-170z" />
    <glyph glyph-name="afii10101" unicode="&#x454;" horiz-adv-x="540" 
d="M255 120l250 -0.00195312v-120h-300c-44.667 0 -80.834 13.167 -108.501 39.5s-41.5 59.833 -41.5 100.5v250c0 40.667 13.833 74.167 41.5 100.5s63.834 39.5 108.501 39.5h300v-75l-40 -45h-210c-7.33301 0 -14.166 -3.16699 -20.499 -9.5s-9.5 -13.166 -9.5 -20.499
v-55h175v-120h-175v-55c0 -7.33301 3.16699 -14.166 9.5 -20.499s13.166 -9.5 20.499 -9.5z" />
    <glyph glyph-name="afii10102" unicode="&#x455;" horiz-adv-x="545" 
d="M340 145v20c0 16 -10 26 -30 30l-170 30c-29.333 6 -54.166 20.667 -74.499 44s-30.5 52 -30.5 86v40c0 40.667 13 73.334 39 98.001s61.333 37 106 37h300v-75l-40 -45h-210c-16.667 0 -25 -8.33301 -25 -25v-15c0 -16 10 -26 30 -30l170 -30
c29.333 -6 54.166 -20.667 74.499 -44s30.5 -52 30.5 -86v-45c0 -40.667 -13 -73.334 -39 -98.001s-61.333 -37 -106 -37h-330v120h280c16.667 0 25 8.33301 25 25z" />
    <glyph glyph-name="afii10103" unicode="&#x456;" horiz-adv-x="300" 
d="M235 530v-530h-170v530h170zM235 580h-170v140h170v-140z" />
    <glyph glyph-name="afii10104" unicode="&#x457;" horiz-adv-x="370" 
d="M270 530v-530h-170v530h170zM150 580h-160v140h160v-140zM380 580h-160v140h160v-140z" />
    <glyph glyph-name="afii10105" unicode="&#x458;" horiz-adv-x="320" 
d="M-55 -50l110.002 0.000976562c7.33301 0 14.166 3.16699 20.499 9.5s9.5 13.166 9.5 20.499v550h170v-560c0 -40.667 -13.833 -74.167 -41.5 -100.5s-63.834 -39.5 -108.501 -39.5h-160v120zM255.002 580.001h-170v140h170v-140z" />
    <glyph glyph-name="afii10106" unicode="&#x459;" horiz-adv-x="890" 
d="M125 530h420.002v-180h155c44.667 0 80.834 -13.167 108.501 -39.5s41.5 -59.833 41.5 -100.5v-70c0 -40.667 -13.833 -74.167 -41.5 -100.5s-63.834 -39.5 -108.501 -39.5h-325v410h-95l-30 -290c-2.66699 -35.333 -17.834 -65.833 -45.501 -91.5
s-60.834 -38.5 -99.501 -38.5h-95v120h35c10 0 18.833 3.33301 26.5 10s12.167 15 13.5 25zM650.002 230l-105 0.00195312v-110h105c7.33301 0 14.166 3.16699 20.499 9.5s9.5 13.166 9.5 20.499v50c0 7.33301 -3.16699 14.166 -9.5 20.499s-13.166 9.5 -20.499 9.5z" />
    <glyph glyph-name="afii10107" unicode="&#x45a;" horiz-adv-x="895" 
d="M235 530v-190h145v190h170v-190h155c44.667 0 80.834 -13.167 108.501 -39.5s41.5 -59.833 41.5 -100.5v-60c0 -40.667 -13.833 -74.167 -41.5 -100.5s-63.834 -39.5 -108.501 -39.5h-325v220h-145v-220h-170v530h170zM655 220l-105 0.00195312v-100h105
c7.33301 0 14.166 3.16699 20.499 9.5s9.5 13.166 9.5 20.499v40c0 7.33301 -3.16699 14.166 -9.5 20.499s-13.166 9.5 -20.499 9.5z" />
    <glyph glyph-name="afii10108" unicode="&#x45b;" horiz-adv-x="650" 
d="M265 430l174.998 0.000976562c44.667 0 80.834 -13.167 108.501 -39.5s41.5 -59.833 41.5 -100.5v-290h-170v280c0 7.33301 -3.16699 14.166 -9.5 20.499s-13.166 9.5 -20.499 9.5h-125v-310h-170v490h-70v120h80l50 90h110v-90h145v-120h-145v-60z" />
    <glyph glyph-name="afii10109" unicode="&#x45c;" 
d="M300 760h175l-120 -160h-130zM235 530v-210h69l81 210h170v-65l-115 -200l130 -200v-65h-170l-96 200h-69v-200h-170v530h170z" />
    <glyph glyph-name="afii10110" unicode="&#x45e;" horiz-adv-x="580" 
d="M370 590h-160c-28 0 -50 8 -66 24s-24 38 -24 66v70h120v-45c0 -16.667 8.33301 -25 25 -25h50c16.667 0 25 8.33301 25 25v45h120v-70c0 -28 -8 -50 -24 -66s-38 -24 -66 -24zM560 465l-185 -515.001c-11.333 -33.333 -31.833 -61.666 -61.5 -84.999
s-64.167 -35 -103.5 -35h-115v120h80c25.333 0 40.333 13.333 45 40v10l-200 465v65h170l105 -370h10l85 370h170v-65z" />
    <glyph glyph-name="afii10193" unicode="&#x45f;" horiz-adv-x="635" 
d="M570 0h-165l-25 -125h-125l-25 125h-165v530h170v-410h165v410h170v-530z" />
    <glyph glyph-name="uni0472" unicode="&#x472;" horiz-adv-x="690" 
d="M465 -10h-240c-47.333 0 -85.833 14.167 -115.5 42.5s-44.5 64.166 -44.5 107.499v420c0 43.333 14.833 79.166 44.5 107.499s68.167 42.5 115.5 42.5h240c48.667 0 87.5 -14.667 116.5 -44s43.5 -64.666 43.5 -105.999v-420c0 -43.333 -14.833 -79.166 -44.5 -107.499
s-68.167 -42.5 -115.5 -42.5zM245 545v-135h200v135c0 10 -3.33301 18.333 -10 25s-15 10 -25 10h-130c-10 0 -18.333 -3.33301 -25 -10s-10 -15 -10 -25zM280 120h130c10 0 18.333 3.33301 25 10s10 15 10 25v125h-200v-125c0 -10 3.33301 -18.333 10 -25s15 -10 25 -10z
" />
    <glyph glyph-name="uni0473" unicode="&#x473;" horiz-adv-x="625" 
d="M570 400v-270c0 -40.667 -13.833 -74.167 -41.5 -100.5s-63.834 -39.5 -108.501 -39.5h-215c-44.667 0 -80.834 13.167 -108.501 39.5s-41.5 59.833 -41.5 100.5v270c0 40.667 13.833 74.167 41.5 100.5s63.834 39.5 108.501 39.5h215
c44.667 0 80.834 -13.167 108.501 -39.5s41.5 -59.833 41.5 -100.5zM255 110h115.002c7.33301 0 14.166 3.16699 20.499 9.5s9.5 13.166 9.5 20.499v70h-175v-70c0 -7.33301 3.16699 -14.166 9.5 -20.499s13.166 -9.5 20.499 -9.5zM225.002 390l-0.00195312 -70h175v70
c0 7.33301 -3.16699 14.166 -9.5 20.499s-13.166 9.5 -20.499 9.5h-115c-7.33301 0 -14.166 -3.16699 -20.499 -9.5s-9.5 -13.166 -9.5 -20.499z" />
    <glyph glyph-name="afii10050" unicode="&#x490;" horiz-adv-x="575" 
d="M565 790v-220h-305v-570h-180v700h325l30 90h130z" />
    <glyph glyph-name="afii10098" unicode="&#x491;" horiz-adv-x="500" 
d="M65 0v530h265l30 85h130v-205h-255v-410h-170z" />
    <glyph glyph-name="uni0492" unicode="&#x492;" horiz-adv-x="575" 
d="M10 400h70v300h485v-85l-40 -45h-265v-170h180v-130h-180v-270h-180v270h-70v130z" />
    <glyph glyph-name="uni0493" unicode="&#x493;" horiz-adv-x="500" 
d="M10 300h55v230h425v-75l-40 -45h-215v-110h135v-120h-135v-180h-170v180h-55v120z" />
    <glyph glyph-name="uni0496" unicode="&#x496;" horiz-adv-x="1005" 
d="M840 0h-50l-120 285h-80v-285h-180v285h-80l-120 -285h-180v70l150 285l-135 275v70h180l105 -285h80v285h180v-285h80l105 285h180v-70l-135 -275l118 -225h67v-265h-135z" />
    <glyph glyph-name="uni0497" unicode="&#x497;" horiz-adv-x="890" 
d="M730 0h-50l-91 200h-64v-200h-170v200h-64l-91 -200h-170v65l125 200l-110 200v65h170l76 -210h64v210h170v-210h64l76 210h170v-65l-110 -200l90 -145h75v-245h-135z" />
    <glyph glyph-name="uni0498" unicode="&#x498;" horiz-adv-x="615" 
d="M245 -180l-104.999 -0.00195312v90h65c20 0 30 10 30 30v60h-205v130h315c10 0 18.333 3.33301 25 10s10 15 10 25v85c0 10 -3.33301 18.333 -10 25s-15 10 -25 10h-185v130h175c10 0 18.333 3.33301 25 10s10 15 10 25v85c0 10 -3.33301 18.333 -10 25s-15 10 -25 10
h-260l-40 45v85h355c47.333 0 85.833 -14.167 115.5 -42.5s44.5 -64.166 44.5 -107.499v-80c0 -38 -17.667 -66.667 -53 -86c-14 -8 -31.333 -14.333 -52 -19v-10c22 -4 41 -10.333 57 -19c38.667 -20 58 -48.667 58 -86v-100c0 -43.333 -14.833 -79.166 -44.5 -107.499
s-68.167 -42.5 -115.5 -42.5h-35v-80c0 -28.667 -10.833 -52.5 -32.5 -71.5s-50.834 -28.5 -87.501 -28.5z" />
    <glyph glyph-name="uni0499" unicode="&#x499;" horiz-adv-x="550" 
d="M220 -170l-94.998 0.00195312v90h55c20 0 30 10 30 30v50h-180v120h270c7.33301 0 14.166 3.16699 20.499 9.5s9.5 13.166 9.5 20.499v25c0 7.33301 -3.16699 14.166 -9.5 20.499s-13.166 9.5 -20.499 9.5h-150v120h140c7.33301 0 14.166 3.16699 20.499 9.5
s9.5 13.166 9.5 20.499v25c0 7.33301 -3.16699 14.166 -9.5 20.499s-13.166 9.5 -20.499 9.5h-215l-40 45v75h305c44.667 0 80.834 -13.167 108.501 -39.5s41.5 -59.833 41.5 -100.5v-25c0 -31.333 -16 -55.666 -48 -72.999c-14.667 -7.33301 -30.334 -13 -47.001 -17v-10
c18.667 -4 36 -9.66699 52 -17c35.333 -17.333 53 -41.666 53 -72.999v-35c0 -40.667 -13.833 -74.167 -41.5 -100.5s-63.834 -39.5 -108.501 -39.5h-10v-70c0 -28.667 -10.833 -52.5 -32.5 -71.5s-50.834 -28.5 -87.501 -28.5z" />
    <glyph glyph-name="uni049A" unicode="&#x49a;" horiz-adv-x="685" 
d="M520 0h-50l-125 285h-85v-285h-180v700h180v-285h85l110 285h180v-70l-140 -275l122 -225h68v-265h-135z" />
    <glyph glyph-name="uni049B" unicode="&#x49b;" horiz-adv-x="610" 
d="M450 0h-50l-96 200h-69v-200h-170v530h170v-210h69l81 210h170v-65l-115 -200l94 -145h76v-245h-135z" />
    <glyph glyph-name="uni049C" unicode="&#x49c;" horiz-adv-x="680" 
d="M345 200h-65v85h-20v-285h-180v700h180v-285h20v85h65v-85h10l100 285h180v-70l-130 -275l145 -285v-70h-180l-115 285h-10v-85z" />
    <glyph glyph-name="uni049D" unicode="&#x49d;" 
d="M305 120h-55v80h-15v-200h-170v530h170v-210h15v80h55v-80h9l71 210h170v-65l-105 -200l120 -200v-65h-170l-86 200h-9v-80z" />
    <glyph glyph-name="uni04A0" unicode="&#x4a0;" horiz-adv-x="690" 
d="M10 700h260v-285h85l110 285h180v-70l-140 -275l155 -285v-70h-180l-125 285h-85v-285h-180v570h-80v130z" />
    <glyph glyph-name="uni04A1" unicode="&#x4a1;" horiz-adv-x="610" 
d="M10 530h235v-210h69l81 210h170v-65l-115 -200l130 -200v-65h-170l-96 200h-69v-200h-170v400h-65v130z" />
    <glyph glyph-name="uni04A2" unicode="&#x4a2;" horiz-adv-x="720" 
d="M535 0h-80v285h-190v-285h-180v700h180v-285h190v285h180v-570h65v-265h-135z" />
    <glyph glyph-name="uni04A3" unicode="&#x4a3;" horiz-adv-x="635" 
d="M465 0h-65v210h-165v-210h-170v530h170v-200h165v200h170v-410h55v-245h-135z" />
    <glyph glyph-name="uni04AA" unicode="&#x4aa;" horiz-adv-x="605" 
d="M465 -180l-104.999 0.00195312c-36.667 0 -65.834 9.5 -87.501 28.5s-32.5 42.833 -32.5 71.5v80h-15c-47.333 0 -85.833 14.167 -115.5 42.5s-44.5 64.166 -44.5 107.499v400c0 43.333 14.833 79.166 44.5 107.499s68.167 42.5 115.5 42.5h345v-85l-40 -45h-250
c-10 0 -18.333 -3.33301 -25 -10s-10 -15 -10 -25v-370c0 -10 3.33301 -18.333 10 -25s15 -10 25 -10h290v-130h-200v-60c0 -20 10 -30 30 -30h65v-90z" />
    <glyph glyph-name="uni04AB" unicode="&#x4ab;" horiz-adv-x="540" 
d="M430 -170l-94.999 -0.00195312c-36.667 0 -65.834 9.5 -87.501 28.5s-32.5 42.833 -32.5 71.5v70h-10c-44.667 0 -80.834 13.167 -108.501 39.5s-41.5 59.833 -41.5 100.5v250c0 40.667 13.833 74.167 41.5 100.5s63.834 39.5 108.501 39.5h300v-75l-40 -45h-210
c-7.33301 0 -14.166 -3.16699 -20.499 -9.5s-9.5 -13.166 -9.5 -20.499v-230c0 -7.33301 3.16699 -14.166 9.5 -20.499s13.166 -9.5 20.499 -9.5h250v-120h-160v-50c0 -20 10 -30 30 -30h55v-90z" />
    <glyph glyph-name="uni04AE" unicode="&#x4ae;" horiz-adv-x="650" 
d="M450 700h180v-70l-215 -425v-205h-180v205l-215 425v70h180l120 -330h10z" />
    <glyph glyph-name="uni04AF" unicode="&#x4af;" 
d="M385 -10v-160h-170v160l-185 475v65h170l95 -385h10l95 385h170v-65z" />
    <glyph glyph-name="uni04B0" unicode="&#x4b0;" horiz-adv-x="650" 
d="M120 260h87l-187 370v70h180l120 -330h10l120 330h180v-70l-187 -370h87v-130h-115v-130h-180v130h-115v130z" />
    <glyph glyph-name="uni04B1" unicode="&#x4b1;" 
d="M100 60h87l-157 405v65h170l95 -385h10l95 385h170v-65l-158 -405h88v-130h-115v-100h-170v100h-115v130z" />
    <glyph glyph-name="uni04B2" unicode="&#x4b2;" horiz-adv-x="665" 
d="M500 0h-55l-115 265h-10l-115 -265h-180v70l170 285l-155 275v70h180l100 -265h10l100 265h180v-70l-155 -275l134 -225h76v-265h-135z" />
    <glyph glyph-name="uni04B3" unicode="&#x4b3;" horiz-adv-x="585" 
d="M425 0h-50l-85 185h-10l-85 -185h-170v65l140 200l-130 200v65h170l75 -180h10l75 180h170v-65l-130 -200l101 -145h79v-245h-135z" />
    <glyph glyph-name="uni04B8" unicode="&#x4b8;" horiz-adv-x="680" 
d="M380 155l-100 0.000976562v80h-60c-47.333 0 -85.833 14.167 -115.5 42.5s-44.5 64.166 -44.5 107.499v315h180v-300c0 -10 3.33301 -18.333 10 -25s15 -10 25 -10h5v90h100v-90h40v335h180v-700h-180v235h-40v-80z" />
    <glyph glyph-name="uni04B9" unicode="&#x4b9;" horiz-adv-x="605" 
d="M345 85l-99.998 -0.000976562v80h-50c-44.667 0 -80.834 13.167 -108.501 39.5s-41.5 59.833 -41.5 100.5v225h170v-215c0 -7.33301 3.16699 -14.166 9.5 -20.499s13.166 -9.5 20.499 -9.5v80h100v-80h25v245h170v-530h-170v165h-25v-80z" />
    <glyph glyph-name="uni04BA" unicode="&#x4ba;" horiz-adv-x="680" 
d="M620 315v-315.001h-180v300c0 10 -3.33301 18.333 -10 25s-15 10 -25 10h-145v-335h-180v700h180v-235h200c47.333 0 85.833 -14.167 115.5 -42.5s44.5 -64.166 44.5 -107.499z" />
    <glyph glyph-name="uni04BB" unicode="&#x4bb;" horiz-adv-x="635" 
d="M245 530l174.998 0.000976562c44.667 0 80.834 -13.167 108.501 -39.5s41.5 -59.833 41.5 -100.5v-390h-170v380c0 7.33301 -3.16699 14.166 -9.5 20.499s-13.166 9.5 -20.499 9.5h-125v-410h-170v700h170v-170z" />
    <glyph glyph-name="uni04D8" unicode="&#x4d8;" horiz-adv-x="690" 
d="M465 -10l-240 -0.000976562c-47.333 0 -85.833 14.167 -115.5 42.5s-44.5 64.166 -44.5 107.499v280h380v115c0 10 -3.33301 18.333 -10 25s-15 10 -25 10h-310v130h365c48.667 0 87.5 -14.667 116.5 -44s43.5 -64.666 43.5 -105.999v-410
c0 -43.333 -14.833 -79.166 -44.5 -107.499s-68.167 -42.5 -115.5 -42.5zM280 119.999h130c10 0 18.333 3.33301 25 10s10 15 10 25v135h-200v-135c0 -10 3.33301 -18.333 10 -25s15 -10 25 -10z" />
    <glyph glyph-name="uni04D9" unicode="&#x4d9;" 
d="M345 410l-255 0.000976562v120h305c44.667 0 80.834 -13.167 108.501 -39.5s41.5 -59.833 41.5 -100.5v-260c0 -40.667 -13.833 -74.167 -41.5 -100.5s-63.834 -39.5 -108.501 -39.5h-190c-44.667 0 -80.834 13.167 -108.501 39.5s-41.5 59.833 -41.5 100.5v190h320v60
c0 7.33301 -3.16699 14.166 -9.5 20.499s-13.166 9.5 -20.499 9.5zM375 140.001l0.00195312 65h-150v-65c0 -7.33301 3.16699 -14.166 9.5 -20.499s13.166 -9.5 20.499 -9.5h90c7.33301 0 14.166 3.16699 20.499 9.5s9.5 13.166 9.5 20.499z" />
    <glyph glyph-name="Wgrave" unicode="&#x1e80;" horiz-adv-x="980" 
d="M595 590l90 -375h10l70 485h180v-70l-125 -630h-225l-100 395h-10l-100 -395h-225l-125 630v70h180l70 -485h10l90 375h210zM315 860h175l75 -160h-130z" />
    <glyph glyph-name="wgrave" unicode="&#x1e81;" horiz-adv-x="840" 
d="M425 280h-10l-75 -280h-205l-100 465v65h170l45 -340h10l70 265h180l70 -265h10l45 340h170v-65l-100 -465h-205zM245 700h175l75 -160h-130z" />
    <glyph glyph-name="Wacute" unicode="&#x1e82;" horiz-adv-x="980" 
d="M595 590l90 -375h10l70 485h180v-70l-125 -630h-225l-100 395h-10l-100 -395h-225l-125 630v70h180l70 -485h10l90 375h210zM490 870h175l-120 -160h-130z" />
    <glyph glyph-name="wacute" unicode="&#x1e83;" horiz-adv-x="840" 
d="M425 280h-10l-75 -280h-205l-100 465v65h170l45 -340h10l70 265h180l70 -265h10l45 340h170v-65l-100 -465h-205zM420 700h175l-120 -160h-130z" />
    <glyph glyph-name="Wdieresis" unicode="&#x1e84;" horiz-adv-x="980" 
d="M595 590l90 -375h10l70 485h180v-70l-125 -630h-225l-100 395h-10l-100 -395h-225l-125 630v70h180l70 -485h10l90 375h210zM455 710h-150v140h150v-140zM675 710h-150v140h150v-140z" />
    <glyph glyph-name="wdieresis" unicode="&#x1e85;" horiz-adv-x="840" 
d="M425 280h-10l-75 -280h-205l-100 465v65h170l45 -340h10l70 265h180l70 -265h10l45 340h170v-65l-100 -465h-205zM385 560h-150v140h150v-140zM605 560h-150v140h150v-140z" />
    <glyph glyph-name="Ygrave" unicode="&#x1ef2;" horiz-adv-x="650" 
d="M450 700h180v-70l-215 -425v-205h-180v205l-215 425v70h180l120 -330h10zM160 920h175l75 -160h-130z" />
    <glyph glyph-name="ygrave" unicode="&#x1ef3;" horiz-adv-x="580" 
d="M560 465l-185 -515.001c-11.333 -33.333 -31.833 -61.666 -61.5 -84.999s-64.167 -35 -103.5 -35h-115v120h80c25.333 0 40.333 13.333 45 40v10l-200 465v65h170l105 -370h10l85 370h170v-65zM115 769.999h175l75 -160h-130z" />
    <glyph glyph-name="endash" unicode="&#x2013;" 
d="M30 360h540v-120h-540v120z" />
    <glyph glyph-name="emdash" unicode="&#x2014;" horiz-adv-x="875" 
d="M30 360h815v-120h-815v120z" />
    <glyph glyph-name="quoteleft" unicode="&#x2018;" horiz-adv-x="270" 
d="M60 565l70 135h80v-250h-150v115z" />
    <glyph glyph-name="quoteright" unicode="&#x2019;" horiz-adv-x="270" 
d="M210 585l-70 -135h-80v250h150v-115z" />
    <glyph glyph-name="quotesinglbase" unicode="&#x201a;" horiz-adv-x="270" 
d="M210 35l-70 -135h-80v250h150v-115z" />
    <glyph glyph-name="quotedblleft" unicode="&#x201c;" horiz-adv-x="480" 
d="M270 565l70 135h80v-250h-150v115zM60 565l70 135h80v-250h-150v115z" />
    <glyph glyph-name="quotedblright" unicode="&#x201d;" horiz-adv-x="480" 
d="M210 585l-70 -135h-80v250h150v-115zM420 585l-70 -135h-80v250h150v-115z" />
    <glyph glyph-name="quotedblbase" unicode="&#x201e;" horiz-adv-x="480" 
d="M210 35l-70 -135h-80v250h150v-115zM420 35l-70 -135h-80v250h150v-115z" />
    <glyph glyph-name="dagger" unicode="&#x2020;" horiz-adv-x="550" 
d="M185 530l25 170h130l25 -170h160v-130h-160v-570h-180v570h-160v130h160z" />
    <glyph glyph-name="daggerdbl" unicode="&#x2021;" horiz-adv-x="570" 
d="M220 -170l-25 170h-160v130h160v270h-160v130h160l25 170h130l25 -170h160v-130h-160v-270h160v-130h-160l-25 -170h-130z" />
    <glyph glyph-name="bullet" unicode="&#x2022;" horiz-adv-x="450" 
d="M320 345v-70c0 -15.333 -5.33301 -28.333 -16 -39s-23.667 -16 -39 -16h-80c-15.333 0 -28.333 5.33301 -39 16s-16 23.667 -16 39v70c0 15.333 5.33301 28.333 16 39s23.667 16 39 16h80c15.333 0 28.333 -5.33301 39 -16s16 -23.667 16 -39z" />
    <glyph glyph-name="ellipsis" unicode="&#x2026;" horiz-adv-x="800" 
d="M210 0h-150v150h150v-150zM475 0h-150v150h150v-150zM740 0h-150v150h150v-150z" />
    <glyph glyph-name="perthousand" unicode="&#x2030;" horiz-adv-x="1255" 
d="M570 700h145v-60l-400 -640h-145v60zM850 230v-140c0 -28.667 -10.833 -52.5 -32.5 -71.5s-50.834 -28.5 -87.501 -28.5h-95c-36.667 0 -65.834 9.5 -87.501 28.5s-32.5 42.833 -32.5 71.5v140c0 28.667 10.833 52.5 32.5 71.5s50.834 28.5 87.501 28.5h95
c36.667 0 65.834 -9.5 87.501 -28.5s32.5 -42.833 32.5 -71.5zM645 210v-100c0 -20 10 -30 30 -30h15c20 0 30 10 30 30v100c0 20 -10 30 -30 30h-15c-20 0 -30 -10 -30 -30zM370 610v-140c0 -28.667 -10.833 -52.5 -32.5 -71.5s-50.834 -28.5 -87.501 -28.5h-95
c-36.667 0 -65.834 9.5 -87.501 28.5s-32.5 42.833 -32.5 71.5v140c0 28.667 10.833 52.5 32.5 71.5s50.834 28.5 87.501 28.5h95c36.667 0 65.834 -9.5 87.501 -28.5s32.5 -42.833 32.5 -71.5zM165 590v-100c0 -20 10 -30 30 -30h15c20 0 30 10 30 30v100
c0 20 -10 30 -30 30h-15c-20 0 -30 -10 -30 -30zM1220 230v-140c0 -28.667 -10.833 -52.5 -32.5 -71.5s-50.834 -28.5 -87.501 -28.5h-95c-36.667 0 -65.834 9.5 -87.501 28.5s-32.5 42.833 -32.5 71.5v140c0 28.667 10.833 52.5 32.5 71.5s50.834 28.5 87.501 28.5h95
c36.667 0 65.834 -9.5 87.501 -28.5s32.5 -42.833 32.5 -71.5zM1015 210v-100c0 -20 10 -30 30 -30h15c20 0 30 10 30 30v100c0 20 -10 30 -30 30h-15c-20 0 -30 -10 -30 -30z" />
    <glyph glyph-name="guilsinglleft" unicode="&#x2039;" horiz-adv-x="385" 
d="M65 260l120 220h135v-55l-95 -165l95 -165v-55h-135z" />
    <glyph glyph-name="guilsinglright" unicode="&#x203a;" horiz-adv-x="385" 
d="M200 480l120 -220l-120 -220h-135v55l95 165l-95 165v55h135z" />
    <glyph glyph-name="Euro" unicode="&#x20ac;" horiz-adv-x="635" 
d="M30 320l70 0.00195312v60h-70v100h70v70c0 43.333 14.833 79.166 44.5 107.499s68.167 42.5 115.5 42.5h340v-85l-40 -45h-245c-10 0 -18.333 -3.33301 -25 -10s-10 -15 -10 -25v-55h200v-100h-200v-60h200v-100h-200v-55c0 -10 3.33301 -18.333 10 -25s15 -10 25 -10
h285v-130h-340c-47.333 0 -85.833 14.167 -115.5 42.5s-44.5 64.166 -44.5 107.499v70h-70v100z" />
    <glyph glyph-name="afii61352" unicode="&#x2116;" horiz-adv-x="1085" 
d="M720 290h305v-115h-305v115zM630 700v-700h-195l-200 440h-10l35 -240v-200h-180v700h195l200 -440h10l-35 240v200h180zM1040 610v-140c0 -28.667 -10.833 -52.5 -32.5 -71.5s-50.834 -28.5 -87.501 -28.5h-95c-36.667 0 -65.834 9.5 -87.501 28.5
s-32.5 42.833 -32.5 71.5v140c0 28.667 10.833 52.5 32.5 71.5s50.834 28.5 87.501 28.5h95c36.667 0 65.834 -9.5 87.501 -28.5s32.5 -42.833 32.5 -71.5zM835 590v-100c0 -20 10 -30 30 -30h15c20 0 30 10 30 30v100c0 20 -10 30 -30 30h-15c-20 0 -30 -10 -30 -30z" />
    <glyph glyph-name="trademark" unicode="&#x2122;" horiz-adv-x="905" 
d="M10 610v90h340v-62l-25 -28h-80v-240h-130v240h-105zM660 410h-105l-50 160h-5v-200h-130v45l40 285h140l55 -175h5l55 175h140l40 -285v-45h-130v200h-5z" />
    <glyph glyph-name=".null" horiz-adv-x="0" 
 />
    <glyph glyph-name="nonmarkingreturn" horiz-adv-x="333" 
 />
    <glyph glyph-name="commaaccent" horiz-adv-x="200" 
d="M170 -171l-60 -85h-80v200h140v-115z" />
    <glyph glyph-name="foundryicon" horiz-adv-x="1330" 
d="M200 265h-170l170 175v-175zM410 350c0 -25.333 -8.66699 -46.666 -26 -63.999s-38.666 -26 -63.999 -26s-46.666 8.66699 -63.999 26s-26 38.666 -26 63.999s8.66699 46.666 26 63.999s38.666 26 63.999 26s46.666 -8.66699 63.999 -26s26 -38.666 26 -63.999zM410 435
h180l-90 -175zM910 435v-155l-150 155h150zM745 265v155l150 -155h-150zM725 265h-180l90 175zM1105 435v-155l-150 155h150zM940 265v155l150 -155h-150zM1120 435h180l-90 -175z" />
    <glyph glyph-name=".ttfautohint" horiz-adv-x="1330" 
 />
    </font>
</defs>
</svg>
